<svg id="my-svg" width="100%" xmlns="http://www.w3.org/2000/svg" xmlns:xlink="http://www.w3.org/1999/xlink" class="statediagram" style="max-width: 2960.28px; background-color: white;" viewBox="0 0 2960.28125 736.125" role="graphics-document document" aria-roledescription="stateDiagram"><style>#my-svg{font-family:"trebuchet ms",verdana,arial,sans-serif;font-size:16px;fill:#333;}@keyframes edge-animation-frame{from{stroke-dashoffset:0;}}@keyframes dash{to{stroke-dashoffset:0;}}#my-svg .edge-animation-slow{stroke-dasharray:9,5!important;stroke-dashoffset:900;animation:dash 50s linear infinite;stroke-linecap:round;}#my-svg .edge-animation-fast{stroke-dasharray:9,5!important;stroke-dashoffset:900;animation:dash 20s linear infinite;stroke-linecap:round;}#my-svg .error-icon{fill:#552222;}#my-svg .error-text{fill:#552222;stroke:#552222;}#my-svg .edge-thickness-normal{stroke-width:1px;}#my-svg .edge-thickness-thick{stroke-width:3.5px;}#my-svg .edge-pattern-solid{stroke-dasharray:0;}#my-svg .edge-thickness-invisible{stroke-width:0;fill:none;}#my-svg .edge-pattern-dashed{stroke-dasharray:3;}#my-svg .edge-pattern-dotted{stroke-dasharray:2;}#my-svg .marker{fill:#333333;stroke:#333333;}#my-svg .marker.cross{stroke:#333333;}#my-svg svg{font-family:"trebuchet ms",verdana,arial,sans-serif;font-size:16px;}#my-svg p{margin:0;}#my-svg defs [id$="-barbEnd"]{fill:#333333;stroke:#333333;}#my-svg g.stateGroup text{fill:#9370DB;stroke:none;font-size:10px;}#my-svg g.stateGroup text{fill:#333;stroke:none;font-size:10px;}#my-svg g.stateGroup .state-title{font-weight:bolder;fill:#131300;}#my-svg g.stateGroup rect{fill:#ECECFF;stroke:#9370DB;}#my-svg g.stateGroup line{stroke:#333333;stroke-width:1;}#my-svg .transition{stroke:#333333;stroke-width:1;fill:none;}#my-svg .stateGroup .composit{fill:white;border-bottom:1px;}#my-svg .stateGroup .alt-composit{fill:#e0e0e0;border-bottom:1px;}#my-svg .state-note{stroke:#aaaa33;fill:#fff5ad;}#my-svg .state-note text{fill:black;stroke:none;font-size:10px;}#my-svg .stateLabel .box{stroke:none;stroke-width:0;fill:#ECECFF;opacity:0.5;}#my-svg .edgeLabel .label rect{fill:#ECECFF;opacity:0.5;}#my-svg .edgeLabel{background-color:rgba(232,232,232, 0.8);text-align:center;}#my-svg .edgeLabel p{background-color:rgba(232,232,232, 0.8);}#my-svg .edgeLabel rect{opacity:0.5;background-color:rgba(232,232,232, 0.8);fill:rgba(232,232,232, 0.8);}#my-svg .edgeLabel .label text{fill:#333;}#my-svg .label div .edgeLabel{color:#333;}#my-svg .stateLabel text{fill:#131300;font-size:10px;font-weight:bold;}#my-svg .node circle.state-start{fill:#333333;stroke:#333333;}#my-svg .node .fork-join{fill:#333333;stroke:#333333;}#my-svg .node circle.state-end{fill:#9370DB;stroke:white;stroke-width:1.5;}#my-svg .end-state-inner{fill:white;stroke-width:1.5;}#my-svg .node rect{fill:#ECECFF;stroke:#9370DB;stroke-width:1px;}#my-svg .node polygon{fill:#ECECFF;stroke:#9370DB;stroke-width:1px;}#my-svg [id$="-barbEnd"]{fill:#333333;}#my-svg .statediagram-cluster rect{fill:#ECECFF;stroke:#9370DB;stroke-width:1px;}#my-svg .cluster-label,#my-svg .nodeLabel{color:#131300;}#my-svg .statediagram-cluster rect.outer{rx:5px;ry:5px;}#my-svg .statediagram-state .divider{stroke:#9370DB;}#my-svg .statediagram-state .title-state{rx:5px;ry:5px;}#my-svg .statediagram-cluster.statediagram-cluster .inner{fill:white;}#my-svg .statediagram-cluster.statediagram-cluster-alt .inner{fill:#f0f0f0;}#my-svg .statediagram-cluster .inner{rx:0;ry:0;}#my-svg .statediagram-state rect.basic{rx:5px;ry:5px;}#my-svg .statediagram-state rect.divider{stroke-dasharray:10,10;fill:#f0f0f0;}#my-svg .note-edge{stroke-dasharray:5;}#my-svg .statediagram-note rect{fill:#fff5ad;stroke:#aaaa33;stroke-width:1px;rx:0;ry:0;}#my-svg .statediagram-note rect{fill:#fff5ad;stroke:#aaaa33;stroke-width:1px;rx:0;ry:0;}#my-svg .statediagram-note text{fill:black;}#my-svg .statediagram-note .nodeLabel{color:black;}#my-svg .statediagram .edgeLabel{color:red;}#my-svg [id$="-dependencyStart"],#my-svg [id$="-dependencyEnd"]{fill:#333333;stroke:#333333;stroke-width:1;}#my-svg .statediagramTitleText{text-anchor:middle;font-size:18px;fill:#333;}#my-svg [data-look="neo"].statediagram-cluster rect{fill:#ECECFF;stroke:#9370DB;stroke-width:1;}#my-svg [data-look="neo"].statediagram-cluster rect.outer{rx:5px;ry:5px;filter:drop-shadow(1px 2px 2px rgba(185, 185, 185, 1));}#my-svg .node .neo-node{stroke:#9370DB;}#my-svg [data-look="neo"].node rect,#my-svg [data-look="neo"].cluster rect,#my-svg [data-look="neo"].node polygon{stroke:#9370DB;filter:drop-shadow(1px 2px 2px rgba(185, 185, 185, 1));}#my-svg [data-look="neo"].node path{stroke:#9370DB;stroke-width:1px;}#my-svg [data-look="neo"].node .outer-path{filter:drop-shadow(1px 2px 2px rgba(185, 185, 185, 1));}#my-svg [data-look="neo"].node .neo-line path{stroke:#9370DB;filter:none;}#my-svg [data-look="neo"].node circle{stroke:#9370DB;filter:drop-shadow(1px 2px 2px rgba(185, 185, 185, 1));}#my-svg [data-look="neo"].node circle .state-start{fill:#000000;}#my-svg [data-look="neo"].icon-shape .icon{fill:#9370DB;filter:drop-shadow(1px 2px 2px rgba(185, 185, 185, 1));}#my-svg [data-look="neo"].icon-shape .icon-neo path{stroke:#9370DB;filter:drop-shadow(1px 2px 2px rgba(185, 185, 185, 1));}#my-svg :root{--mermaid-font-family:"trebuchet ms",verdana,arial,sans-serif;}</style><g><defs><marker id="my-svg_stateDiagram-barbEnd" refX="19" refY="7" markerWidth="20" markerHeight="14" markerUnits="userSpaceOnUse" orient="auto"><path d="M 19,7 L9,13 L14,7 L9,1 Z"/></marker></defs><g class="root"><g class="clusters"><g class="note-cluster" id="my-svg-state-GridTie----parent-20"><rect x="1502.28125" y="8" width="675.828125" height="172" fill="none"/></g><g class="note-cluster" id="my-svg-state-Island----parent-21"><rect x="2321.0625" y="102" width="334.921875" height="196" fill="none"/></g><g class="note-cluster" id="my-svg-state-Fault----parent-22"><rect x="2705.984375" y="497.125" width="246.296875" height="172" fill="none"/></g></g><g class="edgePaths"><path d="M22,535.875L26.167,535.875C30.333,535.875,38.667,535.875,47,535.875C55.333,535.875,63.667,535.875,67.833,535.875L72,535.875" id="my-svg-edge0" class="edge-thickness-normal edge-pattern-solid transition" style="fill:none;;;fill:none" data-edge="true" data-et="edge" data-id="edge0" data-points="W3sieCI6MjIsInkiOjUzNS44NzV9LHsieCI6NDcsInkiOjUzNS44NzV9LHsieCI6NzIsInkiOjUzNS44NzV9XQ==" data-look="classic" marker-end="url(#my-svg_stateDiagram-barbEnd)"/><path d="M131.132,515.875L153.248,488.229C175.364,460.583,219.596,405.292,259.306,377.646C299.016,350,334.203,350,351.797,350L369.391,350" id="my-svg-edge1" class="edge-thickness-normal edge-pattern-solid transition" style="fill:none;;;fill:none" data-edge="true" data-et="edge" data-id="edge1" data-points="W3sieCI6MTMxLjEzMjMwODEyODc4MjgsInkiOjUxNS44NzV9LHsieCI6MjYzLjgyODEyNSwieSI6MzUwfSx7IngiOjM2OS4zOTA2MjUsInkiOjM1MH1d" data-look="classic" marker-end="url(#my-svg_stateDiagram-barbEnd)"/><path d="M1291.156,393.326L1308.75,394.98C1326.344,396.634,1361.531,399.942,1396.719,401.596C1431.906,403.25,1467.094,403.25,1491.505,401.333C1515.916,399.417,1529.552,395.583,1536.369,393.667L1543.187,391.75" id="my-svg-edge9" class="edge-thickness-normal edge-pattern-solid transition" style="fill:none;;;fill:none" data-edge="true" data-et="edge" data-id="edge9" data-points="W3sieCI6MTI5MS4xNTYyNSwieSI6MzkzLjMyNjM1MzM1NDk0MTAzfSx7IngiOjEzOTYuNzE4NzUsInkiOjQwMy4yNX0seyJ4IjoxNTAyLjI4MTI1LCJ5Ijo0MDMuMjV9LHsieCI6MTU0My4xODY2MzY1MTMxNTgsInkiOjM5MS43NX1d" data-look="classic" marker-end="url(#my-svg_stateDiagram-barbEnd)"/><path d="M1527.281,253.615L1523.115,252.888C1518.948,252.16,1510.615,250.705,1488.854,249.978C1467.094,249.25,1431.906,249.25,1396.719,252.379C1361.531,255.509,1326.344,261.767,1308.75,264.896L1291.156,268.026" id="my-svg-edge13" class="edge-thickness-normal edge-pattern-solid transition" style="fill:none;;;fill:none" data-edge="true" data-et="edge" data-id="edge13" data-points="W3sieCI6MTUyNy4yODEyNSwieSI6MjUzLjYxNTAxNTE0MzQ1ODI3fSx7IngiOjE1MDIuMjgxMjUsInkiOjI0OS4yNX0seyJ4IjoxMzk2LjcxODc1LCJ5IjoyNDkuMjV9LHsieCI6MTI5MS4xNTYyNSwieSI6MjY4LjAyNTcyNTgxMjAxM31d" data-look="classic" marker-end="url(#my-svg_stateDiagram-barbEnd)"/><path d="M1159.608,522.75L1199.126,543.479C1238.645,564.208,1317.682,605.667,1374.794,626.396C1431.906,647.125,1467.094,647.125,1541.007,647.125C1614.919,647.125,1727.557,647.125,1840.195,647.125C1952.833,647.125,2065.471,647.125,2133.703,647.125C2201.935,647.125,2225.76,647.125,2249.586,647.125C2273.411,647.125,2297.237,647.125,2313.316,645.533C2329.396,643.94,2337.729,640.755,2341.896,639.163L2346.063,637.571" id="my-svg-edge14" class="edge-thickness-normal edge-pattern-solid transition" style="fill:none;;;fill:none" data-edge="true" data-et="edge" data-id="edge14" data-points="W3sieCI6MTE1OS42MDc2NDk0NzkzODU4LCJ5Ijo1MjIuNzV9LHsieCI6MTM5Ni43MTg3NSwieSI6NjQ3LjEyNX0seyJ4IjoxNTAyLjI4MTI1LCJ5Ijo2NDcuMTI1fSx7IngiOjE4NDAuMTk1MzEyNSwieSI6NjQ3LjEyNX0seyJ4IjoyMTc4LjEwOTM3NSwieSI6NjQ3LjEyNX0seyJ4IjoyMjQ5LjU4NTkzNzUsInkiOjY0Ny4xMjV9LHsieCI6MjMyMS4wNjI1LCJ5Ijo2NDcuMTI1fSx7IngiOjIzNDYuMDYyNSwieSI6NjM3LjU3MDUzMzAwNjc2NDd9XQ==" data-look="classic" marker-end="url(#my-svg_stateDiagram-barbEnd)"/><path d="M1932.141,391.75L1973.136,428.979C2014.13,466.208,2096.12,540.667,2149.027,577.896C2201.935,615.125,2225.76,615.125,2249.586,615.125C2273.411,615.125,2297.237,615.125,2313.316,614.329C2329.396,613.533,2337.729,611.94,2341.896,611.144L2346.063,610.348" id="my-svg-edge15" class="edge-thickness-normal edge-pattern-solid transition" style="fill:none;;;fill:none" data-edge="true" data-et="edge" data-id="edge15" data-points="W3sieCI6MTkzMi4xNDA5NzE4Njg2MzU1LCJ5IjozOTEuNzV9LHsieCI6MjE3OC4xMDkzNzUsInkiOjYxNS4xMjV9LHsieCI6MjI0OS41ODU5Mzc1LCJ5Ijo2MTUuMTI1fSx7IngiOjIzMjEuMDYyNSwieSI6NjE1LjEyNX0seyJ4IjoyMzQ2LjA2MjUsInkiOjYxMC4zNDc3NjY1MDMzODIzfV0=" data-look="classic" marker-end="url(#my-svg_stateDiagram-barbEnd)"/><path d="M158.266,549.581L175.859,555.172C193.453,560.762,228.641,571.944,340.642,577.534C452.643,583.125,641.458,583.125,830.273,583.125C1019.089,583.125,1207.904,583.125,1319.905,583.125C1431.906,583.125,1467.094,583.125,1541.007,583.125C1614.919,583.125,1727.557,583.125,1840.195,583.125C1952.833,583.125,2065.471,583.125,2133.703,583.125C2201.935,583.125,2225.76,583.125,2249.586,583.125C2273.411,583.125,2297.237,583.125,2313.316,583.125C2329.396,583.125,2337.729,583.125,2341.896,583.125L2346.063,583.125" id="my-svg-edge16" class="edge-thickness-normal edge-pattern-solid transition" style="fill:none;;;fill:none" data-edge="true" data-et="edge" data-id="edge16" data-points="W3sieCI6MTU4LjI2NTYyNSwieSI6NTQ5LjU4MTA1MDAxODM4OTF9LHsieCI6MjYzLjgyODEyNSwieSI6NTgzLjEyNX0seyJ4Ijo4MzAuMjczNDM3NSwieSI6NTgzLjEyNX0seyJ4IjoxMzk2LjcxODc1LCJ5Ijo1ODMuMTI1fSx7IngiOjE1MDIuMjgxMjUsInkiOjU4My4xMjV9LHsieCI6MTg0MC4xOTUzMTI1LCJ5Ijo1ODMuMTI1fSx7IngiOjIxNzguMTA5Mzc1LCJ5Ijo1ODMuMTI1fSx7IngiOjIyNDkuNTg1OTM3NSwieSI6NTgzLjEyNX0seyJ4IjoyMzIxLjA2MjUsInkiOjU4My4xMjV9LHsieCI6MjM0Ni4wNjI1LCJ5Ijo1ODMuMTI1fV0=" data-look="classic" marker-end="url(#my-svg_stateDiagram-barbEnd)"/><path d="M2346.063,509.432L2341.896,507.277C2337.729,505.121,2329.396,500.811,2313.316,498.655C2297.237,496.5,2273.411,496.5,2249.586,496.5C2225.76,496.5,2201.935,496.5,2133.703,496.5C2065.471,496.5,1952.833,496.5,1840.195,496.5C1727.557,496.5,1614.919,496.5,1541.007,496.5C1467.094,496.5,1431.906,496.5,1396.719,491.95C1361.531,487.399,1326.344,478.299,1308.75,473.749L1291.156,469.198" id="my-svg-edge18" class="edge-thickness-normal edge-pattern-solid transition" style="fill:none;;;fill:none" data-edge="true" data-et="edge" data-id="edge18" data-points="W3sieCI6MjM0Ni4wNjI1LCJ5Ijo1MDkuNDMyMTIwMzYzODkwOH0seyJ4IjoyMzIxLjA2MjUsInkiOjQ5Ni41fSx7IngiOjIyNDkuNTg1OTM3NSwieSI6NDk2LjV9LHsieCI6MjE3OC4xMDkzNzUsInkiOjQ5Ni41fSx7IngiOjE4NDAuMTk1MzEyNSwieSI6NDk2LjV9LHsieCI6MTUwMi4yODEyNSwieSI6NDk2LjV9LHsieCI6MTM5Ni43MTg3NSwieSI6NDk2LjV9LHsieCI6MTI5MS4xNTYyNSwieSI6NDY5LjE5ODMyNDI1MzQ5OTh9XQ==" data-look="classic" marker-end="url(#my-svg_stateDiagram-barbEnd)"/><path d="M2357.359,438.125L2351.309,431.438C2345.26,424.75,2333.161,411.375,2315.199,404.688C2297.237,398,2273.411,398,2249.586,398C2225.76,398,2201.935,398,2185.855,396.893C2169.776,395.787,2161.443,393.573,2157.276,392.467L2153.109,391.36" id="my-svg-edge19" class="edge-thickness-normal edge-pattern-solid transition" style="fill:none;;;fill:none" data-edge="true" data-et="edge" data-id="edge19" data-points="W3sieCI6MjM1Ny4zNTg4OTQ5NjExNzUsInkiOjQzOC4xMjV9LHsieCI6MjMyMS4wNjI1LCJ5IjozOTh9LHsieCI6MjI0OS41ODU5Mzc1LCJ5IjozOTh9LHsieCI6MjE3OC4xMDkzNzUsInkiOjM5OH0seyJ4IjoyMTUzLjEwOTM3NSwieSI6MzkxLjM1OTk5ODE1MDQxNzN9XQ==" data-look="classic" marker-end="url(#my-svg_stateDiagram-barbEnd)"/><path d="M1212.513,177.25L1243.214,163.375C1273.915,149.5,1335.317,121.75,1383.612,107.875C1431.906,94,1467.094,94,1525.868,94C1584.643,94,1667.005,94,1708.186,94L1749.367,94" id="my-svg-GridTie-GridTie----note-20" class="edge-thickness-normal edge-pattern-solid transition note-edge" style="fill:none;;;fill:none" data-edge="true" data-et="edge" data-id="GridTie-GridTie----note-20" data-points="W3sieCI6MTIxMi41MTMzODk1ODc0MDIzLCJ5IjoxNzcuMjV9LHsieCI6MTM5Ni43MTg3NSwieSI6OTR9LHsieCI6MTUwMi4yODEyNSwieSI6OTR9LHsieCI6MTc0OS4zNjcxODc1LCJ5Ijo5NH1d" data-look="classic"/><path d="M2100.85,224.75L2113.726,220.625C2126.603,216.5,2152.356,208.25,2177.146,204.125C2201.935,200,2225.76,200,2249.586,200C2273.411,200,2297.237,200,2318.922,200C2340.607,200,2360.151,200,2369.923,200L2379.695,200" id="my-svg-Island-Island----note-21" class="edge-thickness-normal edge-pattern-solid transition note-edge" style="fill:none;;;fill:none" data-edge="true" data-et="edge" data-id="Island-Island----note-21" data-points="W3sieCI6MjEwMC44NDk1Nzc4MDAyMzEsInkiOjIyNC43NX0seyJ4IjoyMTc4LjEwOTM3NSwieSI6MjAwfSx7IngiOjIyNDkuNTg1OTM3NSwieSI6MjAwfSx7IngiOjIzMjEuMDYyNSwieSI6MjAwfSx7IngiOjIzNzkuNjk1MzEyNSwieSI6MjAwfV0=" data-look="classic"/><path d="M2630.984,583.125L2635.151,583.125C2639.318,583.125,2647.651,583.125,2655.984,583.125C2664.318,583.125,2672.651,583.125,2680.984,583.125C2689.318,583.125,2697.651,583.125,2705.984,583.125C2714.318,583.125,2722.651,583.125,2726.818,583.125L2730.984,583.125" id="my-svg-Fault-Fault----note-22" class="edge-thickness-normal edge-pattern-solid transition note-edge" style="fill:none;;;fill:none" data-edge="true" data-et="edge" data-id="Fault-Fault----note-22" data-points="W3sieCI6MjYzMC45ODQzNzUsInkiOjU4My4xMjV9LHsieCI6MjY1NS45ODQzNzUsInkiOjU4My4xMjV9LHsieCI6MjY4MC45ODQzNzUsInkiOjU4My4xMjV9LHsieCI6MjcwNS45ODQzNzUsInkiOjU4My4xMjV9LHsieCI6MjczMC45ODQzNzUsInkiOjU4My4xMjV9XQ==" data-look="classic"/></g><g class="edgeLabels"><g class="edgeLabel"><g class="label" data-id="edge0" transform="translate(0, 0)"><foreignObject width="0" height="0"><div xmlns="http://www.w3.org/1999/xhtml" class="labelBkg" style="display: table-cell; white-space: nowrap; line-height: 1.5; max-width: 200px; text-align: center;"><span class="edgeLabel"></span></div></foreignObject></g></g><g class="edgeLabel" transform="translate(263.828125, 350)"><g class="label" data-id="edge1" transform="translate(-80.5625, -24)"><foreignObject width="161.125" height="48"><div xmlns="http://www.w3.org/1999/xhtml" class="labelBkg" style="display: table-cell; white-space: nowrap; line-height: 1.5; max-width: 200px; text-align: center;"><span class="edgeLabel"><p>telemetry healthy<br />Victron mode = grid-tie</p></span></div></foreignObject></g></g><g class="edgeLabel" transform="translate(1396.71875, 403.25)"><g class="label" data-id="edge9" transform="translate(-77.0078125, -24)"><foreignObject width="154.015625" height="48"><div xmlns="http://www.w3.org/1999/xhtml" class="labelBkg" style="display: table-cell; white-space: nowrap; line-height: 1.5; max-width: 200px; text-align: center;"><span class="edgeLabel"><p>Victron mode = island<br />(grid lost)</p></span></div></foreignObject></g></g><g class="edgeLabel" transform="translate(1396.71875, 249.25)"><g class="label" data-id="edge13" transform="translate(-80.5625, -24)"><foreignObject width="161.125" height="48"><div xmlns="http://www.w3.org/1999/xhtml" class="labelBkg" style="display: table-cell; white-space: nowrap; line-height: 1.5; max-width: 200px; text-align: center;"><span class="edgeLabel"><p>Victron mode = grid-tie<br />(grid restored)</p></span></div></foreignObject></g></g><g class="edgeLabel" transform="translate(1840.1953125, 647.125)"><g class="label" data-id="edge14" transform="translate(-36.9140625, -12)"><foreignObject width="73.828125" height="24"><div xmlns="http://www.w3.org/1999/xhtml" class="labelBkg" style="display: table-cell; white-space: nowrap; line-height: 1.5; max-width: 200px; text-align: center;"><span class="edgeLabel"><p>fault event</p></span></div></foreignObject></g></g><g class="edgeLabel" transform="translate(2249.5859375, 615.125)"><g class="label" data-id="edge15" transform="translate(-36.9140625, -12)"><foreignObject width="73.828125" height="24"><div xmlns="http://www.w3.org/1999/xhtml" class="labelBkg" style="display: table-cell; white-space: nowrap; line-height: 1.5; max-width: 200px; text-align: center;"><span class="edgeLabel"><p>fault event</p></span></div></foreignObject></g></g><g class="edgeLabel" transform="translate(1396.71875, 583.125)"><g class="label" data-id="edge16" transform="translate(-48.46875, -12)"><foreignObject width="96.9375" height="24"><div xmlns="http://www.w3.org/1999/xhtml" class="labelBkg" style="display: table-cell; white-space: nowrap; line-height: 1.5; max-width: 200px; text-align: center;"><span class="edgeLabel"><p>startup failure</p></span></div></foreignObject></g></g><g class="edgeLabel" transform="translate(1840.1953125, 496.5)"><g class="label" data-id="edge18" transform="translate(-49.140625, -24)"><foreignObject width="98.28125" height="48"><div xmlns="http://www.w3.org/1999/xhtml" class="labelBkg" style="display: table-cell; white-space: nowrap; line-height: 1.5; max-width: 200px; text-align: center;"><span class="edgeLabel"><p>fault cleared<br />+ grid present</p></span></div></foreignObject></g></g><g class="edgeLabel" transform="translate(2249.5859375, 398)"><g class="label" data-id="edge19" transform="translate(-46.4765625, -24)"><foreignObject width="92.953125" height="48"><div xmlns="http://www.w3.org/1999/xhtml" class="labelBkg" style="display: table-cell; white-space: nowrap; line-height: 1.5; max-width: 200px; text-align: center;"><span class="edgeLabel"><p>fault cleared<br />+ grid absent</p></span></div></foreignObject></g></g><g class="edgeLabel"><g class="label" data-id="GridTie-GridTie----note-20" transform="translate(0, 0)"><foreignObject width="0" height="0"><div xmlns="http://www.w3.org/1999/xhtml" class="labelBkg" style="display: table-cell; white-space: nowrap; line-height: 1.5; max-width: 200px; text-align: center;"><span class="edgeLabel"></span></div></foreignObject></g></g><g class="edgeLabel"><g class="label" data-id="Island-Island----note-21" transform="translate(0, 0)"><foreignObject width="0" height="0"><div xmlns="http://www.w3.org/1999/xhtml" class="labelBkg" style="display: table-cell; white-space: nowrap; line-height: 1.5; max-width: 200px; text-align: center;"><span class="edgeLabel"></span></div></foreignObject></g></g><g class="edgeLabel"><g class="label" data-id="Fault-Fault----note-22" transform="translate(0, 0)"><foreignObject width="0" height="0"><div xmlns="http://www.w3.org/1999/xhtml" class="labelBkg" style="display: table-cell; white-space: nowrap; line-height: 1.5; max-width: 200px; text-align: center;"><span class="edgeLabel"></span></div></foreignObject></g></g></g><g class="nodes"><g class="node default" id="my-svg-state-root_start-0" data-look="classic" transform="translate(15, 535.875)"><circle class="state-start" r="7" width="14" height="14"/></g><g class="node  statediagram-state" id="my-svg-state-Initializing-16" data-look="classic" transform="translate(115.1328125, 535.875)"><rect class="basic label-container" style="" rx="5" ry="5" x="-43.1328125" y="-20" width="86.265625" height="40"/><g class="label" style="" transform="translate(-35.1328125, -12)"><rect/><foreignObject width="70.265625" height="24"><div xmlns="http://www.w3.org/1999/xhtml" style="display: table-cell; white-space: nowrap; line-height: 1.5; max-width: 200px; text-align: center;"><span class="nodeLabel markdown-node-label"><p>Initializing</p></span></div></foreignObject></g></g><g class="root" transform="translate(361.390625, 169.25)"><g class="clusters"><g class="statediagram-state statediagram-cluster" id="my-svg-state-GridTie-20" data-id="GridTie" data-look="classic"><g><rect class="outer" x="8" y="8" width="921.765625" height="345.5" data-look="classic"/></g><g class="cluster-label" transform="translate(442.953125, 9)"><foreignObject width="51.859375" height="24"><div xmlns="http://www.w3.org/1999/xhtml" style="display: table-cell; white-space: nowrap; line-height: 1.5;"><span class="nodeLabel"><p>GridTie</p></span></div></foreignObject></g><rect class="inner" x="8" y="34" width="921.765625" height="315.5"/></g></g><g class="edgePaths"><path d="M59.5,196L65.75,196C72,196,84.5,196,97,196C109.5,196,122,196,128.25,196L134.5,196" id="my-svg-edge2" class="edge-thickness-normal edge-pattern-solid transition" style="fill:none;;;fill:none" data-edge="true" data-et="edge" data-id="edge2" data-points="W3sieCI6NTkuNSwieSI6MTk2fSx7IngiOjk3LCJ5IjoxOTZ9LHsieCI6MTM0LjUsInkiOjE5Nn1d" data-look="classic" marker-end="url(#my-svg_stateDiagram-barbEnd)"/><path d="M176.297,178.584L199.214,159.487C222.13,140.39,267.964,102.195,315.576,89.148C363.188,76.102,412.578,88.203,437.273,94.254L461.969,100.305" id="my-svg-edge3" class="edge-thickness-normal edge-pattern-solid transition" style="fill:none;;;fill:none" data-edge="true" data-et="edge" data-id="edge3" data-points="W3sieCI6MTc2LjI5Njg3NSwieSI6MTc4LjU4NDQ2MzYyNTE1NDE0fSx7IngiOjMxMy43OTY4NzUsInkiOjY0fSx7IngiOjQ2MS45Njg3NSwieSI6MTAwLjMwNDYwNjU0OTg3MzA5fV0=" data-look="classic" marker-end="url(#my-svg_stateDiagram-barbEnd)"/><path d="M461.969,119.695L437.273,125.746C412.578,131.797,363.188,143.898,315.576,155.736C267.964,167.574,222.13,179.148,199.214,184.935L176.297,190.723" id="my-svg-edge4" class="edge-thickness-normal edge-pattern-solid transition" style="fill:none;;;fill:none" data-edge="true" data-et="edge" data-id="edge4" data-points="W3sieCI6NDYxLjk2ODc1LCJ5IjoxMTkuNjk1MzkzNDUwMTI2OTF9LHsieCI6MzEzLjc5Njg3NSwieSI6MTU2fSx7IngiOjE3Ni4yOTY4NzUsInkiOjE5MC43MjI1NjQ3MzQ4OTUyfV0=" data-look="classic" marker-end="url(#my-svg_stateDiagram-barbEnd)"/><path d="M541.109,97.618L565.406,90.015C589.703,82.412,638.297,67.206,685.112,67.275C731.927,67.344,776.964,82.687,799.482,90.359L822,98.031" id="my-svg-edge5" class="edge-thickness-normal edge-pattern-solid transition" style="fill:none;;;fill:none" data-edge="true" data-et="edge" data-id="edge5" data-points="W3sieCI6NTQxLjEwOTM3NSwieSI6OTcuNjE3NzAyODQ1MTAwMX0seyJ4Ijo2ODYuODkwNjI1LCJ5Ijo1Mn0seyJ4Ijo4MjIsInkiOjk4LjAzMDU2MzA3NjQ5OTQ4fV0=" data-look="classic" marker-end="url(#my-svg_stateDiagram-barbEnd)"/><path d="M830.11,130L806.24,147.667C782.37,165.333,734.63,200.667,684.772,200.667C634.914,200.667,582.937,165.333,556.948,147.667L530.96,130" id="my-svg-edge6" class="edge-thickness-normal edge-pattern-solid transition" style="fill:none;;;fill:none" data-edge="true" data-et="edge" data-id="edge6" data-points="W3sieCI6ODMwLjExMDI0MzA1NTU1NTUsInkiOjEzMH0seyJ4Ijo2ODYuODkwNjI1LCJ5IjoyMzZ9LHsieCI6NTMwLjk1OTk0NTQzNjUwOCwieSI6MTMwfV0=" data-look="classic" marker-end="url(#my-svg_stateDiagram-barbEnd)"/><path d="M176.297,201.277L199.214,207.065C222.13,212.852,267.964,224.426,313.797,234.363C359.63,244.3,405.464,252.601,428.38,256.751L451.297,260.901" id="my-svg-edge7" class="edge-thickness-normal edge-pattern-solid transition" style="fill:none;;;fill:none" data-edge="true" data-et="edge" data-id="edge7" data-points="W3sieCI6MTc2LjI5Njg3NSwieSI6MjAxLjI3NzQzNTI2NTEwNDh9LHsieCI6MzEzLjc5Njg3NSwieSI6MjM2fSx7IngiOjQ1MS4yOTY4NzUsInkiOjI2MC45MDExNjkzMjI5NTc4Nn1d" data-look="classic" marker-end="url(#my-svg_stateDiagram-barbEnd)"/><path d="M451.297,279.099L428.38,283.249C405.464,287.399,359.63,295.7,313.797,284.225C267.964,272.75,222.13,241.499,199.214,225.874L176.297,210.249" id="my-svg-edge8" class="edge-thickness-normal edge-pattern-solid transition" style="fill:none;;;fill:none" data-edge="true" data-et="edge" data-id="edge8" data-points="W3sieCI6NDUxLjI5Njg3NSwieSI6Mjc5LjA5ODgzMDY3NzA0MjE0fSx7IngiOjMxMy43OTY4NzUsInkiOjMwNH0seyJ4IjoxNzYuMjk2ODc1LCJ5IjoyMTAuMjQ5MDc1MjE1NzgzfV0=" data-look="classic" marker-end="url(#my-svg_stateDiagram-barbEnd)"/></g><g class="edgeLabels"><g class="edgeLabel"><g class="label" data-id="edge2" transform="translate(0, 0)"><foreignObject width="0" height="0"><div xmlns="http://www.w3.org/1999/xhtml" class="labelBkg" style="display: table-cell; white-space: nowrap; line-height: 1.5; max-width: 200px; text-align: center;"><span class="edgeLabel"></span></div></foreignObject></g></g><g class="edgeLabel" transform="translate(303.64451, 72.46039)"><g class="label" data-id="edge3" transform="translate(-100, -36)"><foreignObject width="200" height="72"><div xmlns="http://www.w3.org/1999/xhtml" class="labelBkg" style="display: table; white-space: break-spaces; line-height: 1.5; max-width: 200px; text-align: center; width: 200px;"><span class="edgeLabel"><p>surplus detected<br />(net_grid_power &lt; -threshold)</p></span></div></foreignObject></g></g><g class="edgeLabel" transform="translate(313.796875, 156)"><g class="label" data-id="edge4" transform="translate(-100, -36)"><foreignObject width="200" height="72"><div xmlns="http://www.w3.org/1999/xhtml" class="labelBkg" style="display: table; white-space: break-spaces; line-height: 1.5; max-width: 200px; text-align: center; width: 200px;"><span class="edgeLabel"><p>balance reached<br />(|net_grid_power| &lt; deadband)</p></span></div></foreignObject></g></g><g class="edgeLabel" transform="translate(682.11085, 53.49568)"><g class="label" data-id="edge5" transform="translate(-66.1953125, -12)"><foreignObject width="132.390625" height="24"><div xmlns="http://www.w3.org/1999/xhtml" class="labelBkg" style="display: table-cell; white-space: nowrap; line-height: 1.5; max-width: 200px; text-align: center;"><span class="edgeLabel"><p>battery SoC ≥ max</p></span></div></foreignObject></g></g><g class="edgeLabel" transform="translate(682.60309, 233.08538)"><g class="label" data-id="edge6" transform="translate(-97.609375, -12)"><foreignObject width="195.21875" height="24"><div xmlns="http://www.w3.org/1999/xhtml" class="labelBkg" style="display: table-cell; white-space: nowrap; line-height: 1.5; max-width: 200px; text-align: center;"><span class="edgeLabel"><p>surplus + battery headroom</p></span></div></foreignObject></g></g><g class="edgeLabel" transform="translate(313.796875, 236)"><g class="label" data-id="edge7" transform="translate(-62.0390625, -24)"><foreignObject width="124.078125" height="48"><div xmlns="http://www.w3.org/1999/xhtml" class="labelBkg" style="display: table-cell; white-space: nowrap; line-height: 1.5; max-width: 200px; text-align: center;"><span class="edgeLabel"><p>net import + night<br />(time-of-use rule)</p></span></div></foreignObject></g></g><g class="edgeLabel" transform="translate(313.796875, 304)"><g class="label" data-id="edge8" transform="translate(-63.96875, -24)"><foreignObject width="127.9375" height="48"><div xmlns="http://www.w3.org/1999/xhtml" class="labelBkg" style="display: table-cell; white-space: nowrap; line-height: 1.5; max-width: 200px; text-align: center;"><span class="edgeLabel"><p>battery SoC ≤ min<br />OR sun returns</p></span></div></foreignObject></g></g></g><g class="nodes"><g class="node default" id="my-svg-state-GridTie_start-2" data-look="classic" transform="translate(52.5, 196)"><circle class="state-start" r="7" width="14" height="14"/></g><g class="node  statediagram-state" id="my-svg-state-Idle-8" data-look="classic" transform="translate(155.3984375, 196)"><rect class="basic label-container" style="" rx="5" ry="5" x="-20.8984375" y="-20" width="41.796875" height="40"/><g class="label" style="" transform="translate(-12.8984375, -12)"><rect/><foreignObject width="25.796875" height="24"><div xmlns="http://www.w3.org/1999/xhtml" style="display: table-cell; white-space: nowrap; line-height: 1.5; max-width: 200px; text-align: center;"><span class="nodeLabel markdown-node-label"><p>Idle</p></span></div></foreignObject></g></g><g class="node  statediagram-state" id="my-svg-state-Diverting-6" data-look="classic" transform="translate(501.5390625, 110)"><rect class="basic label-container" style="" rx="5" ry="5" x="-39.5703125" y="-20" width="79.140625" height="40"/><g class="label" style="" transform="translate(-31.5703125, -12)"><rect/><foreignObject width="63.140625" height="24"><div xmlns="http://www.w3.org/1999/xhtml" style="display: table-cell; white-space: nowrap; line-height: 1.5; max-width: 200px; text-align: center;"><span class="nodeLabel markdown-node-label"><p>Diverting</p></span></div></foreignObject></g></g><g class="node  statediagram-state" id="my-svg-state-Holding-6" data-look="classic" transform="translate(857.1328125, 110)"><rect class="basic label-container" style="" rx="5" ry="5" x="-35.1328125" y="-20" width="70.265625" height="40"/><g class="label" style="" transform="translate(-27.1328125, -12)"><rect/><foreignObject width="54.265625" height="24"><div xmlns="http://www.w3.org/1999/xhtml" style="display: table-cell; white-space: nowrap; line-height: 1.5; max-width: 200px; text-align: center;"><span class="nodeLabel markdown-node-label"><p>Holding</p></span></div></foreignObject></g></g><g class="node  statediagram-state" id="my-svg-state-Discharging-8" data-look="classic" transform="translate(501.5390625, 270)"><rect class="basic label-container" style="" rx="5" ry="5" x="-50.2421875" y="-20" width="100.484375" height="40"/><g class="label" style="" transform="translate(-42.2421875, -12)"><rect/><foreignObject width="84.484375" height="24"><div xmlns="http://www.w3.org/1999/xhtml" style="display: table-cell; white-space: nowrap; line-height: 1.5; max-width: 200px; text-align: center;"><span class="nodeLabel markdown-node-label"><p>Discharging</p></span></div></foreignObject></g></g></g></g><g class="root" transform="translate(1519.28125, 216.75)"><g class="clusters"><g class="statediagram-state statediagram-cluster" id="my-svg-state-Island-21" data-id="Island" data-look="classic"><g><rect class="outer" x="8" y="8" width="625.828125" height="167" data-look="classic"/></g><g class="cluster-label" transform="translate(299.5625, 9)"><foreignObject width="42.703125" height="24"><div xmlns="http://www.w3.org/1999/xhtml" style="display: table-cell; white-space: nowrap; line-height: 1.5;"><span class="nodeLabel"><p>Island</p></span></div></foreignObject></g><rect class="inner" x="8" y="34" width="625.828125" height="137"/></g></g><g class="edgePaths"><path d="M59.5,91.5L65.75,91.5C72,91.5,84.5,91.5,97,91.5C109.5,91.5,122,91.5,128.25,91.5L134.5,91.5" id="my-svg-edge10" class="edge-thickness-normal edge-pattern-solid transition" style="fill:none;;;fill:none" data-edge="true" data-et="edge" data-id="edge10" data-points="W3sieCI6NTkuNSwieSI6OTEuNX0seyJ4Ijo5NywieSI6OTEuNX0seyJ4IjoxMzQuNSwieSI6OTEuNX1d" data-look="classic" marker-end="url(#my-svg_stateDiagram-barbEnd)"/><path d="M273.219,78.606L292.142,75.089C311.065,71.571,348.911,64.535,386.758,65C424.604,65.465,462.451,73.43,481.374,77.412L500.297,81.395" id="my-svg-edge11" class="edge-thickness-normal edge-pattern-solid transition" style="fill:none;;;fill:none" data-edge="true" data-et="edge" data-id="edge11" data-points="W3sieCI6MjczLjIxODc1LCJ5Ijo3OC42MDY0MDI5NzI5NjE0M30seyJ4IjozODYuNzU3ODEyNSwieSI6NTcuNX0seyJ4Ijo1MDAuMjk2ODc1LCJ5Ijo4MS4zOTQ4NjkxOTA5NjY2OX1d" data-look="classic" marker-end="url(#my-svg_stateDiagram-barbEnd)"/><path d="M500.297,101.605L481.374,105.588C462.451,109.57,424.604,117.535,386.758,118C348.911,118.465,311.065,111.429,292.142,107.911L273.219,104.394" id="my-svg-edge12" class="edge-thickness-normal edge-pattern-solid transition" style="fill:none;;;fill:none" data-edge="true" data-et="edge" data-id="edge12" data-points="W3sieCI6NTAwLjI5Njg3NSwieSI6MTAxLjYwNTEzMDgwOTAzMzMxfSx7IngiOjM4Ni43NTc4MTI1LCJ5IjoxMjUuNX0seyJ4IjoyNzMuMjE4NzUsInkiOjEwNC4zOTM1OTcwMjcwMzg1N31d" data-look="classic" marker-end="url(#my-svg_stateDiagram-barbEnd)"/></g><g class="edgeLabels"><g class="edgeLabel"><g class="label" data-id="edge10" transform="translate(0, 0)"><foreignObject width="0" height="0"><div xmlns="http://www.w3.org/1999/xhtml" class="labelBkg" style="display: table-cell; white-space: nowrap; line-height: 1.5; max-width: 200px; text-align: center;"><span class="edgeLabel"></span></div></foreignObject></g></g><g class="edgeLabel" transform="translate(386.7578125, 57.5)"><g class="label" data-id="edge11" transform="translate(-74.78125, -24)"><foreignObject width="149.5625" height="48"><div xmlns="http://www.w3.org/1999/xhtml" class="labelBkg" style="display: table-cell; white-space: nowrap; line-height: 1.5; max-width: 200px; text-align: center;"><span class="edgeLabel"><p>sun present<br />+ Victron AC-couples</p></span></div></foreignObject></g></g><g class="edgeLabel" transform="translate(386.7578125, 125.5)"><g class="label" data-id="edge12" transform="translate(-76.0390625, -24)"><foreignObject width="152.078125" height="48"><div xmlns="http://www.w3.org/1999/xhtml" class="labelBkg" style="display: table-cell; white-space: nowrap; line-height: 1.5; max-width: 200px; text-align: center;"><span class="edgeLabel"><p>sun gone<br />OR battery saturating</p></span></div></foreignObject></g></g></g><g class="nodes"><g class="node default" id="my-svg-state-Island_start-10" data-look="classic" transform="translate(52.5, 91.5)"><circle class="state-start" r="7" width="14" height="14"/></g><g class="node  statediagram-state" id="my-svg-state-BatteryDischarge-12" data-look="classic" transform="translate(203.859375, 91.5)"><rect class="basic label-container" style="" rx="5" ry="5" x="-69.359375" y="-20" width="138.71875" height="40"/><g class="label" style="" transform="translate(-61.359375, -12)"><rect/><foreignObject width="122.71875" height="24"><div xmlns="http://www.w3.org/1999/xhtml" style="display: table-cell; white-space: nowrap; line-height: 1.5; max-width: 200px; text-align: center;"><span class="nodeLabel markdown-node-label"><p>BatteryDischarge</p></span></div></foreignObject></g></g><g class="node  statediagram-state" id="my-svg-state-SolarAssist-12" data-look="classic" transform="translate(548.3125, 91.5)"><rect class="basic label-container" style="" rx="5" ry="5" x="-48.015625" y="-20" width="96.03125" height="40"/><g class="label" style="" transform="translate(-40.015625, -12)"><rect/><foreignObject width="80.03125" height="24"><div xmlns="http://www.w3.org/1999/xhtml" style="display: table-cell; white-space: nowrap; line-height: 1.5; max-width: 200px; text-align: center;"><span class="nodeLabel markdown-node-label"><p>SolarAssist</p></span></div></foreignObject></g></g></g></g><g class="root" transform="translate(2338.0625, 430.125)"><g class="clusters"><g class="statediagram-state statediagram-cluster" id="my-svg-state-Fault-22" data-id="Fault" data-look="classic"><g><rect class="outer" x="8" y="8" width="284.921875" height="290" data-look="classic"/></g><g class="cluster-label" transform="translate(132.671875, 9)"><foreignObject width="35.578125" height="24"><div xmlns="http://www.w3.org/1999/xhtml" style="display: table-cell; white-space: nowrap; line-height: 1.5;"><span class="nodeLabel"><p>Fault</p></span></div></foreignObject></g><rect class="inner" x="8" y="34" width="284.921875" height="260"/></g></g><g class="edgePaths"><path d="M59.5,63L65.75,63C72,63,84.5,63,97,63C109.5,63,122,63,128.25,63L134.5,63" id="my-svg-edge17" class="edge-thickness-normal edge-pattern-solid transition" style="fill:none;;;fill:none" data-edge="true" data-et="edge" data-id="edge17" data-points="W3sieCI6NTkuNSwieSI6NjN9LHsieCI6OTcsInkiOjYzfSx7IngiOjEzNC41LCJ5Ijo2M31d" data-look="classic" marker-end="url(#my-svg_stateDiagram-barbEnd)"/></g><g class="edgeLabels"><g class="edgeLabel"><g class="label" data-id="edge17" transform="translate(0, 0)"><foreignObject width="0" height="0"><div xmlns="http://www.w3.org/1999/xhtml" class="labelBkg" style="display: table-cell; white-space: nowrap; line-height: 1.5; max-width: 200px; text-align: center;"><span class="edgeLabel"></span></div></foreignObject></g></g></g><g class="nodes"><g class="node default" id="my-svg-state-Fault_start-17" data-look="classic" transform="translate(52.5, 63)"><circle class="state-start" r="7" width="14" height="14"/></g><g class="node  statediagram-state" id="my-svg-state-TelemetryFault-18" data-look="classic" transform="translate(194.9609375, 63)"><rect class="basic label-container" style="" rx="5" ry="5" x="-60.4609375" y="-20" width="120.921875" height="40"/><g class="label" style="" transform="translate(-52.4609375, -12)"><rect/><foreignObject width="104.921875" height="24"><div xmlns="http://www.w3.org/1999/xhtml" style="display: table-cell; white-space: nowrap; line-height: 1.5; max-width: 200px; text-align: center;"><span class="nodeLabel markdown-node-label"><p>TelemetryFault</p></span></div></foreignObject></g></g><g class="node  statediagram-state" id="my-svg-state-ActuatorFault-18" data-look="classic" transform="translate(194.9609375, 153)"><rect class="basic label-container" style="" rx="5" ry="5" x="-55.578125" y="-20" width="111.15625" height="40"/><g class="label" style="" transform="translate(-47.578125, -12)"><rect/><foreignObject width="95.15625" height="24"><div xmlns="http://www.w3.org/1999/xhtml" style="display: table-cell; white-space: nowrap; line-height: 1.5; max-width: 200px; text-align: center;"><span class="nodeLabel markdown-node-label"><p>ActuatorFault</p></span></div></foreignObject></g></g><g class="node  statediagram-state" id="my-svg-state-PolicyFault-18" data-look="classic" transform="translate(194.9609375, 243)"><rect class="basic label-container" style="" rx="5" ry="5" x="-47.125" y="-20" width="94.25" height="40"/><g class="label" style="" transform="translate(-39.125, -12)"><rect/><foreignObject width="78.25" height="24"><div xmlns="http://www.w3.org/1999/xhtml" style="display: table-cell; white-space: nowrap; line-height: 1.5; max-width: 200px; text-align: center;"><span class="nodeLabel markdown-node-label"><p>PolicyFault</p></span></div></foreignObject></g></g></g></g><g class="node statediagram-note" id="my-svg-state-GridTie----note-20" data-look="classic" transform="translate(1840.1953125, 94)"><g class="basic label-container outer-path"><path d="M-90.828125 -51 L90.828125 -51 L90.828125 51 L-90.828125 51" stroke="none" stroke-width="0" fill="#fff5ad" style=""/><path d="M-90.828125 -51 C-33.18010390625525 -51, 24.467917187489505 -51, 90.828125 -51 M-90.828125 -51 C-27.95109994187571 -51, 34.92592511624858 -51, 90.828125 -51 M90.828125 -51 C90.828125 -15.33243376716117, 90.828125 20.33513246567766, 90.828125 51 M90.828125 -51 C90.828125 -18.524145344439503, 90.828125 13.951709311120993, 90.828125 51 M90.828125 51 C27.630358550620052 51, -35.567407898759896 51, -90.828125 51 M90.828125 51 C18.29790834389422 51, -54.23230831221156 51, -90.828125 51 M-90.828125 51 C-90.828125 16.479384528891664, -90.828125 -18.04123094221667, -90.828125 -51 M-90.828125 51 C-90.828125 13.183344127347667, -90.828125 -24.633311745304667, -90.828125 -51" stroke="#aaaa33" stroke-width="1.3" fill="none" stroke-dasharray="0 0" style=""/></g><g class="label noteLabel" style="" transform="translate(-75.828125, -36)"><rect/><foreignObject width="151.65625" height="72"><div xmlns="http://www.w3.org/1999/xhtml" style="display: table-cell; white-space: nowrap; line-height: 1.5; max-width: 200px; text-align: center;"><span class="nodeLabel markdown-node-label"><p>Normal operation:<br />diversion loop + night<br />discharge live here</p></span></div></foreignObject></g></g><g class="node statediagram-note" id="my-svg-state-Island----note-21" data-look="classic" transform="translate(2488.5234375, 200)"><g class="basic label-container outer-path"><path d="M-108.828125 -63 L108.828125 -63 L108.828125 63 L-108.828125 63" stroke="none" stroke-width="0" fill="#fff5ad" style=""/><path d="M-108.828125 -63 C-47.44244356347297 -63, 13.94323787305406 -63, 108.828125 -63 M-108.828125 -63 C-39.88471758844388 -63, 29.058689823112246 -63, 108.828125 -63 M108.828125 -63 C108.828125 -23.53788708624471, 108.828125 15.924225827510583, 108.828125 63 M108.828125 -63 C108.828125 -21.05723716100811, 108.828125 20.88552567798378, 108.828125 63 M108.828125 63 C63.27357198072998 63, 17.719018961459966 63, -108.828125 63 M108.828125 63 C56.95038375039436 63, 5.072642500788717 63, -108.828125 63 M-108.828125 63 C-108.828125 16.147272613336384, -108.828125 -30.705454773327233, -108.828125 -63 M-108.828125 63 C-108.828125 32.170869427819554, -108.828125 1.3417388556391145, -108.828125 -63" stroke="#aaaa33" stroke-width="1.3" fill="none" stroke-dasharray="0 0" style=""/></g><g class="label noteLabel" style="" transform="translate(-93.828125, -48)"><rect/><foreignObject width="187.65625" height="96"><div xmlns="http://www.w3.org/1999/xhtml" style="display: table-cell; white-space: nowrap; line-height: 1.5; max-width: 200px; text-align: center;"><span class="nodeLabel markdown-node-label"><p>Outage mode:<br />Victron drives microgrid;<br />Energy Manager observes<br />and adjusts setpoints</p></span></div></foreignObject></g></g><g class="node statediagram-note" id="my-svg-state-Fault----note-22" data-look="classic" transform="translate(2829.1328125, 583.125)"><g class="basic label-container outer-path"><path d="M-98.1484375 -51 L98.1484375 -51 L98.1484375 51 L-98.1484375 51" stroke="none" stroke-width="0" fill="#fff5ad" style=""/><path d="M-98.1484375 -51 C-45.182990243271846 -51, 7.782457013456309 -51, 98.1484375 -51 M-98.1484375 -51 C-40.12586044705414 -51, 17.896716605891726 -51, 98.1484375 -51 M98.1484375 -51 C98.1484375 -26.568354697091248, 98.1484375 -2.136709394182496, 98.1484375 51 M98.1484375 -51 C98.1484375 -25.78323526036026, 98.1484375 -0.5664705207205216, 98.1484375 51 M98.1484375 51 C29.766057704768258 51, -38.616322090463484 51, -98.1484375 51 M98.1484375 51 C26.381313742424723 51, -45.385810015150554 51, -98.1484375 51 M-98.1484375 51 C-98.1484375 17.944241786515143, -98.1484375 -15.111516426969715, -98.1484375 -51 M-98.1484375 51 C-98.1484375 13.077919849858247, -98.1484375 -24.844160300283505, -98.1484375 -51" stroke="#aaaa33" stroke-width="1.3" fill="none" stroke-dasharray="0 0" style=""/></g><g class="label noteLabel" style="" transform="translate(-83.1484375, -36)"><rect/><foreignObject width="166.296875" height="72"><div xmlns="http://www.w3.org/1999/xhtml" style="display: table-cell; white-space: nowrap; line-height: 1.5; max-width: 200px; text-align: center;"><span class="nodeLabel markdown-node-label"><p>Three fault categories;<br />recovery routes back to<br />appropriate mode</p></span></div></foreignObject></g></g></g></g></g><defs><filter id="my-svg-drop-shadow" height="130%" width="130%"><feDropShadow dx="4" dy="4" stdDeviation="0" flood-opacity="0.06" flood-color="#000000"/></filter></defs><defs><filter id="my-svg-drop-shadow-small" height="150%" width="150%"><feDropShadow dx="2" dy="2" stdDeviation="0" flood-opacity="0.06" flood-color="#000000"/></filter></defs></svg>