<svg id="my-svg" width="100%" xmlns="http://www.w3.org/2000/svg" xmlns:xlink="http://www.w3.org/1999/xlink" class="flowchart" style="max-width: 1867.39px; background-color: white;" viewBox="0 0 1867.3895263671875 418.05859375" role="graphics-document document" aria-roledescription="flowchart-v2"><style>#my-svg{font-family:"trebuchet ms",verdana,arial,sans-serif;font-size:16px;fill:#333;}@keyframes edge-animation-frame{from{stroke-dashoffset:0;}}@keyframes dash{to{stroke-dashoffset:0;}}#my-svg .edge-animation-slow{stroke-dasharray:9,5!important;stroke-dashoffset:900;animation:dash 50s linear infinite;stroke-linecap:round;}#my-svg .edge-animation-fast{stroke-dasharray:9,5!important;stroke-dashoffset:900;animation:dash 20s linear infinite;stroke-linecap:round;}#my-svg .error-icon{fill:#552222;}#my-svg .error-text{fill:#552222;stroke:#552222;}#my-svg .edge-thickness-normal{stroke-width:1px;}#my-svg .edge-thickness-thick{stroke-width:3.5px;}#my-svg .edge-pattern-solid{stroke-dasharray:0;}#my-svg .edge-thickness-invisible{stroke-width:0;fill:none;}#my-svg .edge-pattern-dashed{stroke-dasharray:3;}#my-svg .edge-pattern-dotted{stroke-dasharray:2;}#my-svg .marker{fill:#333333;stroke:#333333;}#my-svg .marker.cross{stroke:#333333;}#my-svg svg{font-family:"trebuchet ms",verdana,arial,sans-serif;font-size:16px;}#my-svg p{margin:0;}#my-svg .label{font-family:"trebuchet ms",verdana,arial,sans-serif;color:#333;}#my-svg .cluster-label text{fill:#333;}#my-svg .cluster-label span{color:#333;}#my-svg .cluster-label span p{background-color:transparent;}#my-svg .label text,#my-svg span{fill:#333;color:#333;}#my-svg .node rect,#my-svg .node circle,#my-svg .node ellipse,#my-svg .node polygon,#my-svg .node path{fill:#ECECFF;stroke:#9370DB;stroke-width:1px;}#my-svg .rough-node .label text,#my-svg .node .label text,#my-svg .image-shape .label,#my-svg .icon-shape .label{text-anchor:middle;}#my-svg .node .katex path{fill:#000;stroke:#000;stroke-width:1px;}#my-svg .rough-node .label,#my-svg .node .label,#my-svg .image-shape .label,#my-svg .icon-shape .label{text-align:center;}#my-svg .node.clickable{cursor:pointer;}#my-svg .root .anchor path{fill:#333333!important;stroke-width:0;stroke:#333333;}#my-svg .arrowheadPath{fill:#333333;}#my-svg .edgePath .path{stroke:#333333;stroke-width:1px;}#my-svg .flowchart-link{stroke:#333333;fill:none;}#my-svg .edgeLabel{background-color:rgba(232,232,232, 0.8);text-align:center;}#my-svg .edgeLabel p{background-color:rgba(232,232,232, 0.8);}#my-svg .edgeLabel rect{opacity:0.5;background-color:rgba(232,232,232, 0.8);fill:rgba(232,232,232, 0.8);}#my-svg .labelBkg{background-color:rgba(232, 232, 232, 0.5);}#my-svg .cluster rect{fill:#ffffde;stroke:#aaaa33;stroke-width:1px;}#my-svg .cluster text{fill:#333;}#my-svg .cluster span{color:#333;}#my-svg div.mermaidTooltip{position:absolute;text-align:center;max-width:200px;padding:2px;font-family:"trebuchet ms",verdana,arial,sans-serif;font-size:12px;background:hsl(80, 100%, 96.2745098039%);border:1px solid #aaaa33;border-radius:2px;pointer-events:none;z-index:100;}#my-svg .flowchartTitleText{text-anchor:middle;font-size:18px;fill:#333;}#my-svg rect.text{fill:none;stroke-width:0;}#my-svg .icon-shape,#my-svg .image-shape{background-color:rgba(232,232,232, 0.8);text-align:center;}#my-svg .icon-shape p,#my-svg .image-shape p{background-color:rgba(232,232,232, 0.8);padding:2px;}#my-svg .icon-shape .label rect,#my-svg .image-shape .label rect{opacity:0.5;background-color:rgba(232,232,232, 0.8);fill:rgba(232,232,232, 0.8);}#my-svg .label-icon{display:inline-block;height:1em;overflow:visible;vertical-align:-0.125em;}#my-svg .node .label-icon path{fill:currentColor;stroke:revert;stroke-width:revert;}#my-svg .node .neo-node{stroke:#9370DB;}#my-svg [data-look="neo"].node rect,#my-svg [data-look="neo"].cluster rect,#my-svg [data-look="neo"].node polygon{stroke:#9370DB;filter:drop-shadow(1px 2px 2px rgba(185, 185, 185, 1));}#my-svg [data-look="neo"].node path{stroke:#9370DB;stroke-width:1px;}#my-svg [data-look="neo"].node .outer-path{filter:drop-shadow(1px 2px 2px rgba(185, 185, 185, 1));}#my-svg [data-look="neo"].node .neo-line path{stroke:#9370DB;filter:none;}#my-svg [data-look="neo"].node circle{stroke:#9370DB;filter:drop-shadow(1px 2px 2px rgba(185, 185, 185, 1));}#my-svg [data-look="neo"].node circle .state-start{fill:#000000;}#my-svg [data-look="neo"].icon-shape .icon{fill:#9370DB;filter:drop-shadow(1px 2px 2px rgba(185, 185, 185, 1));}#my-svg [data-look="neo"].icon-shape .icon-neo path{stroke:#9370DB;filter:drop-shadow(1px 2px 2px rgba(185, 185, 185, 1));}#my-svg :root{--mermaid-font-family:"trebuchet ms",verdana,arial,sans-serif;}#my-svg .proc&gt;*{fill:rgb(207, 229, 255)!important;stroke:rgb(42, 112, 194)!important;color:rgb(0, 0, 0)!important;}#my-svg .proc span{fill:rgb(207, 229, 255)!important;stroke:rgb(42, 112, 194)!important;color:rgb(0, 0, 0)!important;}#my-svg .proc tspan{fill:rgb(0, 0, 0)!important;}#my-svg .brain&gt;*{fill:rgb(127, 191, 245)!important;stroke:rgb(31, 90, 153)!important;color:rgb(0, 0, 0)!important;font-weight:bold!important;}#my-svg .brain span{fill:rgb(127, 191, 245)!important;stroke:rgb(31, 90, 153)!important;color:rgb(0, 0, 0)!important;font-weight:bold!important;}#my-svg .brain tspan{fill:rgb(0, 0, 0)!important;}#my-svg .optional&gt;*{fill:rgb(230, 240, 255)!important;stroke:rgb(136, 136, 136)!important;stroke-dasharray:3,3!important;}#my-svg .optional span{fill:rgb(230, 240, 255)!important;stroke:rgb(136, 136, 136)!important;stroke-dasharray:3,3!important;}#my-svg .terminator&gt;*{fill:rgb(250, 250, 250)!important;stroke:rgb(68, 68, 68)!important;}#my-svg .terminator span{fill:rgb(250, 250, 250)!important;stroke:rgb(68, 68, 68)!important;}#my-svg .store&gt;*{fill:rgb(255, 245, 204)!important;stroke:rgb(184, 152, 0)!important;}#my-svg .store span{fill:rgb(255, 245, 204)!important;stroke:rgb(184, 152, 0)!important;}#my-svg .grid&gt;*{fill:rgb(254, 240, 239)!important;stroke:rgb(231, 76, 60)!important;}#my-svg .grid span{fill:rgb(254, 240, 239)!important;stroke:rgb(231, 76, 60)!important;}#my-svg .termopt&gt;*{fill:rgb(250, 250, 250)!important;stroke:rgb(136, 136, 136)!important;stroke-dasharray:5,5!important;color:rgb(102, 102, 102)!important;}#my-svg .termopt span{fill:rgb(250, 250, 250)!important;stroke:rgb(136, 136, 136)!important;stroke-dasharray:5,5!important;color:rgb(102, 102, 102)!important;}#my-svg .termopt tspan{fill:rgb(102, 102, 102)!important;}</style><g><marker id="my-svg_flowchart-v2-pointEnd" class="marker flowchart-v2" viewBox="0 0 10 10" refX="5" refY="5" markerUnits="userSpaceOnUse" markerWidth="8" markerHeight="8" orient="auto"><path d="M 0 0 L 10 5 L 0 10 z" class="arrowMarkerPath" style="stroke-width: 1; stroke-dasharray: 1, 0;"/></marker><marker id="my-svg_flowchart-v2-pointStart" class="marker flowchart-v2" viewBox="0 0 10 10" refX="4.5" refY="5" markerUnits="userSpaceOnUse" markerWidth="8" markerHeight="8" orient="auto"><path d="M 0 5 L 10 10 L 10 0 z" class="arrowMarkerPath" style="stroke-width: 1; stroke-dasharray: 1, 0;"/></marker><marker id="my-svg_flowchart-v2-pointEnd-margin" class="marker flowchart-v2" viewBox="0 0 11.5 14" refX="11.5" refY="7" markerUnits="userSpaceOnUse" markerWidth="10.5" markerHeight="14" orient="auto"><path d="M 0 0 L 11.5 7 L 0 14 z" class="arrowMarkerPath" style="stroke-width: 0; stroke-dasharray: 1, 0;"/></marker><marker id="my-svg_flowchart-v2-pointStart-margin" class="marker flowchart-v2" viewBox="0 0 11.5 14" refX="1" refY="7" markerUnits="userSpaceOnUse" markerWidth="11.5" markerHeight="14" orient="auto"><polygon points="0,7 11.5,14 11.5,0" class="arrowMarkerPath" style="stroke-width: 0; stroke-dasharray: 1, 0;"/></marker><marker id="my-svg_flowchart-v2-circleEnd" class="marker flowchart-v2" viewBox="0 0 10 10" refX="11" refY="5" markerUnits="userSpaceOnUse" markerWidth="11" markerHeight="11" orient="auto"><circle cx="5" cy="5" r="5" class="arrowMarkerPath" style="stroke-width: 1; stroke-dasharray: 1, 0;"/></marker><marker id="my-svg_flowchart-v2-circleStart" class="marker flowchart-v2" viewBox="0 0 10 10" refX="-1" refY="5" markerUnits="userSpaceOnUse" markerWidth="11" markerHeight="11" orient="auto"><circle cx="5" cy="5" r="5" class="arrowMarkerPath" style="stroke-width: 1; stroke-dasharray: 1, 0;"/></marker><marker id="my-svg_flowchart-v2-circleEnd-margin" class="marker flowchart-v2" viewBox="0 0 10 10" refY="5" refX="12.25" markerUnits="userSpaceOnUse" markerWidth="14" markerHeight="14" orient="auto"><circle cx="5" cy="5" r="5" class="arrowMarkerPath" style="stroke-width: 0; stroke-dasharray: 1, 0;"/></marker><marker id="my-svg_flowchart-v2-circleStart-margin" class="marker flowchart-v2" viewBox="0 0 10 10" refX="-2" refY="5" markerUnits="userSpaceOnUse" markerWidth="14" markerHeight="14" orient="auto"><circle cx="5" cy="5" r="5" class="arrowMarkerPath" style="stroke-width: 0; stroke-dasharray: 1, 0;"/></marker><marker id="my-svg_flowchart-v2-crossEnd" class="marker cross flowchart-v2" viewBox="0 0 11 11" refX="12" refY="5.2" markerUnits="userSpaceOnUse" markerWidth="11" markerHeight="11" orient="auto"><path d="M 1,1 l 9,9 M 10,1 l -9,9" class="arrowMarkerPath" style="stroke-width: 2; stroke-dasharray: 1, 0;"/></marker><marker id="my-svg_flowchart-v2-crossStart" class="marker cross flowchart-v2" viewBox="0 0 11 11" refX="-1" refY="5.2" markerUnits="userSpaceOnUse" markerWidth="11" markerHeight="11" orient="auto"><path d="M 1,1 l 9,9 M 10,1 l -9,9" class="arrowMarkerPath" style="stroke-width: 2; stroke-dasharray: 1, 0;"/></marker><marker id="my-svg_flowchart-v2-crossEnd-margin" class="marker cross flowchart-v2" viewBox="0 0 15 15" refX="17.7" refY="7.5" markerUnits="userSpaceOnUse" markerWidth="12" markerHeight="12" orient="auto"><path d="M 1,1 L 14,14 M 1,14 L 14,1" class="arrowMarkerPath" style="stroke-width: 2.5;"/></marker><marker id="my-svg_flowchart-v2-crossStart-margin" class="marker cross flowchart-v2" viewBox="0 0 15 15" refX="-3.5" refY="7.5" markerUnits="userSpaceOnUse" markerWidth="12" markerHeight="12" orient="auto"><path d="M 1,1 L 14,14 M 1,14 L 14,1" class="arrowMarkerPath" style="stroke-width: 2.5; stroke-dasharray: 1, 0;"/></marker><g class="root"><g class="clusters"/><g class="edgePaths"><path d="M1753.14,355.749L1735.71,353.318C1718.28,350.886,1683.421,346.023,1645.039,346.336C1606.657,346.648,1564.753,352.137,1543.801,354.881L1522.849,357.625" id="my-svg-L_term_angler_proc_serve_ui_0" class="edge-thickness-normal edge-pattern-solid edge-thickness-normal edge-pattern-solid flowchart-link" style=";" data-edge="true" data-et="edge" data-id="L_term_angler_proc_serve_ui_0" data-points="W3sieCI6MTc1My4xMzk1MDM0NzkwMDQsInkiOjM1NS43NDkwNzkyNjU5NTE2NX0seyJ4IjoxNjQ4LjU2MTM3ODQ3OTAwNCwieSI6MzQxLjE2MDE1NjI1fSx7IngiOjE1MTguODgzMzAzMDU1MDI1OSwieSI6MzU4LjE0NDIzNTEwNTIxNTV9XQ==" data-look="classic" marker-end="url(#my-svg_flowchart-v2-pointEnd)"/><path d="M1518.883,368.176L1540.496,371.007C1562.109,373.837,1605.335,379.499,1643.718,379.99C1682.1,380.481,1715.639,375.803,1732.408,373.463L1749.178,371.124" id="my-svg-L_proc_serve_ui_term_angler_0" class="edge-thickness-normal edge-pattern-solid edge-thickness-normal edge-pattern-solid flowchart-link" style=";" data-edge="true" data-et="edge" data-id="L_proc_serve_ui_term_angler_0" data-points="W3sieCI6MTUxOC44ODMzMDMwNTUwMjU5LCJ5IjozNjguMTc2MDc3Mzk0Nzg0NX0seyJ4IjoxNjQ4LjU2MTM3ODQ3OTAwNCwieSI6Mzg1LjE2MDE1NjI1fSx7IngiOjE3NTMuMTM5NTAzNDc5MDA0LCJ5IjozNzAuNTcxMjMzMjM0MDQ4MzV9XQ==" data-look="classic" marker-end="url(#my-svg_flowchart-v2-pointEnd)"/><path d="M365.672,257.467L382.217,262.232C398.763,266.997,431.854,276.528,464.279,281.293C496.703,286.059,528.461,286.059,544.34,286.059L560.219,286.059" id="my-svg-L_term_line_proc_acquire_tension_0" class="edge-thickness-normal edge-pattern-solid edge-thickness-normal edge-pattern-solid flowchart-link" style=";" data-edge="true" data-et="edge" data-id="L_term_line_proc_acquire_tension_0" data-points="W3sieCI6MzY1LjY3MTg3NSwieSI6MjU3LjQ2Njg5MjU2Mjc2NTV9LHsieCI6NDY0Ljk0NTMxMjUsInkiOjI4Ni4wNTg1OTM3NX0seyJ4Ijo1NjQuMjE4NzUsInkiOjI4Ni4wNTg1OTM3NX1d" data-look="classic" marker-end="url(#my-svg_flowchart-v2-pointEnd)"/><path d="M1420.564,200.264L1407.014,197.992C1393.464,195.72,1366.365,191.177,1329.834,188.905C1293.302,186.633,1247.339,186.633,1202.34,186.633C1157.341,186.633,1113.307,186.633,1067.707,186.633C1022.107,186.633,974.94,186.633,925.993,186.633C877.047,186.633,826.32,186.633,776.441,186.633C726.563,186.633,677.531,186.633,625.757,186.633C573.982,186.633,519.464,186.633,476.3,191.2C433.136,195.768,401.326,204.903,385.421,209.47L369.516,214.037" id="my-svg-L_proc_reel_controller_term_line_0" class="edge-thickness-normal edge-pattern-solid edge-thickness-normal edge-pattern-solid flowchart-link" style=";" data-edge="true" data-et="edge" data-id="L_proc_reel_controller_term_line_0" data-points="W3sieCI6MTQyMC41NjM4NjkyMDMxMDksInkiOjIwMC4yNjQyMjEyNjE5MTg0NH0seyJ4IjoxMzM5LjI2NTYyNSwieSI6MTg2LjYzMjgxMjV9LHsieCI6MTIwMS4zNzUsInkiOjE4Ni42MzI4MTI1fSx7IngiOjEwNjkuMjczNDM3NSwieSI6MTg2LjYzMjgxMjV9LHsieCI6OTI3Ljc3MzQzNzUsInkiOjE4Ni42MzI4MTI1fSx7IngiOjc3NS41OTM3NSwieSI6MTg2LjYzMjgxMjV9LHsieCI6NjI4LjUsInkiOjE4Ni42MzI4MTI1fSx7IngiOjQ2NC45NDUzMTI1LCJ5IjoxODYuNjMyODEyNX0seyJ4IjozNjUuNjcxODc1LCJ5IjoyMTUuMTQxNTA5MTQwODI5Nzh9XQ==" data-look="classic" marker-end="url(#my-svg_flowchart-v2-pointEnd)"/><path d="M1261.344,67.969L1274.331,67.969C1287.318,67.969,1313.292,67.969,1338.682,68.048C1364.073,68.127,1388.88,68.285,1401.284,68.364L1413.688,68.443" id="my-svg-L_proc_cloud_forward_term_cloud_0" class="edge-thickness-normal edge-pattern-dotted edge-thickness-normal edge-pattern-solid flowchart-link" style=";" data-edge="true" data-et="edge" data-id="L_proc_cloud_forward_term_cloud_0" data-points="W3sieCI6MTI2MS4zNDM3NSwieSI6NjcuOTY4NzV9LHsieCI6MTMzOS4yNjU2MjUsInkiOjY3Ljk2ODc1fSx7IngiOjE0MTcuNjg3NTAwMDAwMDAyMywieSI6NjguNDY4NzV9XQ==" data-look="classic" marker-end="url(#my-svg_flowchart-v2-pointEnd)"/><path d="M168.5,340.273L172.667,340.273C176.833,340.273,185.167,340.273,195.725,340.273C206.284,340.273,219.068,340.273,225.46,340.273L231.852,340.273" id="my-svg-L_term_power_sys_root_0" class="edge-thickness-normal edge-pattern-solid edge-thickness-normal edge-pattern-solid flowchart-link" style=";" data-edge="true" data-et="edge" data-id="L_term_power_sys_root_0" data-points="W3sieCI6MTY4LjUsInkiOjM0MC4yNzM0Mzc1fSx7IngiOjE5My41LCJ5IjozNDAuMjczNDM3NX0seyJ4IjoyMzEuODUxNTYyNSwieSI6MzQwLjI3MzQzNzV9XQ==" data-look="classic"/><path d="M133.367,236.273L143.389,236.273C153.411,236.273,173.456,236.273,187.645,236.273C201.833,236.273,210.167,236.273,214.333,236.273L218.5,236.273" id="my-svg-L_term_fish_term_line_0" class="edge-thickness-normal edge-pattern-solid edge-thickness-normal edge-pattern-solid flowchart-link" style=";" data-edge="true" data-et="edge" data-id="L_term_fish_term_line_0" data-points="W3sieCI6MTMzLjM2NzE4NzUsInkiOjIzNi4yNzM0Mzc1fSx7IngiOjE5My41LCJ5IjoyMzYuMjczNDM3NX0seyJ4IjoyMTguNSwieSI6MjM2LjI3MzQzNzV9XQ==" data-look="classic"/><path d="M692.781,286.059L706.583,286.059C720.385,286.059,747.99,286.059,777.309,286.059C806.628,286.059,837.661,286.059,853.178,286.059L868.695,286.059" id="my-svg-L_proc_acquire_tension_store_system_state_0" class="edge-thickness-normal edge-pattern-solid edge-thickness-normal edge-pattern-solid flowchart-link" style=";" data-edge="true" data-et="edge" data-id="L_proc_acquire_tension_store_system_state_0" data-points="W3sieCI6NjkyLjc4MTI1LCJ5IjoyODYuMDU4NTkzNzV9LHsieCI6Nzc1LjU5Mzc1LCJ5IjoyODYuMDU4NTkzNzV9LHsieCI6ODcyLjY5NTMxMjUsInkiOjI4Ni4wNTg1OTM3NX1d" data-look="classic" marker-end="url(#my-svg_flowchart-v2-pointEnd)"/><path d="M982.852,286.002L997.255,285.988C1011.659,285.973,1040.466,285.943,1066.672,285.929C1092.878,285.914,1116.482,285.914,1128.284,285.914L1140.086,285.914" id="my-svg-L_store_system_state_proc_bite_detector_0" class="edge-thickness-normal edge-pattern-solid edge-thickness-normal edge-pattern-solid flowchart-link" style=";" data-edge="true" data-et="edge" data-id="L_store_system_state_proc_bite_detector_0" data-points="W3sieCI6OTgyLjg1MTU2MjUsInkiOjI4Ni4wMDIzMzU3MjcwMDQyfSx7IngiOjEwNjkuMjczNDM3NSwieSI6Mjg1LjkxNDA2MjV9LHsieCI6MTE0NC4wODU5Mzc1LCJ5IjoyODUuOTE0MDYyNX1d" data-look="classic" marker-end="url(#my-svg_flowchart-v2-pointEnd)"/><path d="M974.603,317.579L990.381,330.992C1006.16,344.405,1037.717,371.232,1075.512,384.645C1113.307,398.059,1157.341,398.059,1202.34,398.059C1247.339,398.059,1293.302,398.059,1332.94,393.945C1372.578,389.832,1405.891,381.606,1422.547,377.492L1439.203,373.379" id="my-svg-L_store_system_state_proc_serve_ui_0" class="edge-thickness-normal edge-pattern-solid edge-thickness-normal edge-pattern-solid flowchart-link" style=";" data-edge="true" data-et="edge" data-id="L_store_system_state_proc_serve_ui_0" data-points="W3sieCI6OTc0LjYwMjkyMzQxMDI3OTUsInkiOjMxNy41Nzg3MjE2MjI5NjMyfSx7IngiOjEwNjkuMjczNDM3NSwieSI6Mzk4LjA1ODU5Mzc1fSx7IngiOjEyMDEuMzc1LCJ5IjozOTguMDU4NTkzNzV9LHsieCI6MTMzOS4yNjU2MjUsInkiOjM5OC4wNTg1OTM3NX0seyJ4IjoxNDQzLjA4NjgzNzIzNzU5MjEsInkiOjM3Mi40MjAyOTQ0ODk5ODg4fV0=" data-look="classic" marker-end="url(#my-svg_flowchart-v2-pointEnd)"/><path d="M951.823,250.167L971.398,219.801C990.973,189.435,1030.123,128.702,1061.054,98.335C1091.984,67.969,1114.695,67.969,1126.051,67.969L1137.406,67.969" id="my-svg-L_store_system_state_proc_cloud_forward_0" class="edge-thickness-normal edge-pattern-dotted edge-thickness-normal edge-pattern-solid flowchart-link" style=";" data-edge="true" data-et="edge" data-id="L_store_system_state_proc_cloud_forward_0" data-points="W3sieCI6OTUxLjgyMjcxMTU1OTU2NDMsInkiOjI1MC4xNjc0OTY5NDYxNjU1Nn0seyJ4IjoxMDY5LjI3MzQzNzUsInkiOjY3Ljk2ODc1fSx7IngiOjExNDEuNDA2MjUsInkiOjY3Ljk2ODc1fV0=" data-look="classic" marker-end="url(#my-svg_flowchart-v2-pointEnd)"/><path d="M1257.676,275.321L1271.274,272.762C1284.873,270.203,1312.069,265.086,1339.022,257.836C1365.974,250.587,1392.683,241.205,1406.037,236.514L1419.391,231.823" id="my-svg-L_proc_bite_detector_proc_reel_controller_0" class="edge-thickness-normal edge-pattern-solid edge-thickness-normal edge-pattern-solid flowchart-link" style=";" data-edge="true" data-et="edge" data-id="L_proc_bite_detector_proc_reel_controller_0" data-points="W3sieCI6MTI1Ny42NzYwOTc5ODE2MTAyLCJ5IjoyNzUuMzIwNTI0NDYwNTE0MDR9LHsieCI6MTMzOS4yNjU2MjUsInkiOjI1OS45Njg3NX0seyJ4IjoxNDIzLjE2NTQyNDQ4MDc2NCwieSI6MjMwLjQ5NzcyMTEyODcwMDA4fV0=" data-look="classic" marker-end="url(#my-svg_flowchart-v2-pointEnd)"/><path d="M1253.05,310.648L1267.419,317.525C1281.788,324.403,1310.527,338.159,1341.368,346.347C1372.209,354.536,1405.152,357.157,1421.623,358.468L1438.095,359.779" id="my-svg-L_proc_bite_detector_proc_serve_ui_0" class="edge-thickness-normal edge-pattern-solid edge-thickness-normal edge-pattern-solid flowchart-link" style=";" data-edge="true" data-et="edge" data-id="L_proc_bite_detector_proc_serve_ui_0" data-points="W3sieCI6MTI1My4wNDk3OTExNzY3NjgsInkiOjMxMC42NDc2OTYyNTk4NDl9LHsieCI6MTMzOS4yNjU2MjUsInkiOjM1MS45MTQwNjI1fSx7IngiOjE0NDIuMDgyMTAxNjMwMjI2NiwieSI6MzYwLjA5NjEwMTYwNjMyMTJ9XQ==" data-look="classic" marker-end="url(#my-svg_flowchart-v2-pointEnd)"/><path d="M1444.612,349.097L1427.054,342.233C1409.496,335.369,1374.381,321.642,1343.929,312.721C1313.477,303.8,1287.688,299.685,1274.793,297.628L1261.899,295.57" id="my-svg-L_proc_serve_ui_proc_bite_detector_0" class="edge-thickness-normal edge-pattern-solid edge-thickness-normal edge-pattern-solid flowchart-link" style=";" data-edge="true" data-et="edge" data-id="L_proc_serve_ui_proc_bite_detector_0" data-points="W3sieCI6MTQ0NC42MTE1NTMyMzgxOTQ2LCJ5IjozNDkuMDk2OTE4Nzk1NjcyOX0seyJ4IjoxMzM5LjI2NTYyNSwieSI6MzA3LjkxNDA2MjV9LHsieCI6MTI1Ny45NDg1NDI5MjU5NzY0LCJ5IjoyOTQuOTQwMTg2OTY5MDk2MjZ9XQ==" data-look="classic" marker-end="url(#my-svg_flowchart-v2-pointEnd)"/></g><g class="edgeLabels"><g class="edgeLabel" transform="translate(1636.07068, 342.79608)"><g class="label" data-id="L_term_angler_proc_serve_ui_0" transform="translate(-79.578125, -12)"><foreignObject width="159.15625" height="24"><div xmlns="http://www.w3.org/1999/xhtml" class="labelBkg" style="display: table-cell; white-space: nowrap; line-height: 1.5; max-width: 200px; text-align: center;"><span class="edgeLabel"><p>F1: config, arm/disarm</p></span></div></foreignObject></g></g><g class="edgeLabel" transform="translate(1636.07068, 383.52424)"><g class="label" data-id="L_proc_serve_ui_term_angler_0" transform="translate(-59.1328125, -12)"><foreignObject width="118.265625" height="24"><div xmlns="http://www.w3.org/1999/xhtml" class="labelBkg" style="display: table-cell; white-space: nowrap; line-height: 1.5; max-width: 200px; text-align: center;"><span class="edgeLabel"><p>F2: status, alerts</p></span></div></foreignObject></g></g><g class="edgeLabel" transform="translate(464.9453125, 286.05859375)"><g class="label" data-id="L_term_line_proc_acquire_tension_0" transform="translate(-74.2734375, -12)"><foreignObject width="148.546875" height="24"><div xmlns="http://www.w3.org/1999/xhtml" class="labelBkg" style="display: table-cell; white-space: nowrap; line-height: 1.5; max-width: 200px; text-align: center;"><span class="edgeLabel"><p>F3: tension feedback</p></span></div></foreignObject></g></g><g class="edgeLabel" transform="translate(927.7734375, 186.6328125)"><g class="label" data-id="L_proc_reel_controller_term_line_0" transform="translate(-69.3671875, -12)"><foreignObject width="138.734375" height="24"><div xmlns="http://www.w3.org/1999/xhtml" class="labelBkg" style="display: table-cell; white-space: nowrap; line-height: 1.5; max-width: 200px; text-align: center;"><span class="edgeLabel"><p>F4: reel torque cmd</p></span></div></foreignObject></g></g><g class="edgeLabel" transform="translate(1339.265625, 67.96875)"><g class="label" data-id="L_proc_cloud_forward_term_cloud_0" transform="translate(-45.8046875, -12)"><foreignObject width="91.609375" height="24"><div xmlns="http://www.w3.org/1999/xhtml" class="labelBkg" style="display: table-cell; white-space: nowrap; line-height: 1.5; max-width: 200px; text-align: center;"><span class="edgeLabel"><p>F6: catch log</p></span></div></foreignObject></g></g><g class="edgeLabel"><g class="label" data-id="L_term_power_sys_root_0" transform="translate(0, 0)"><foreignObject width="0" height="0"><div xmlns="http://www.w3.org/1999/xhtml" class="labelBkg" style="display: table-cell; white-space: nowrap; line-height: 1.5; max-width: 200px; text-align: center;"><span class="edgeLabel"></span></div></foreignObject></g></g><g class="edgeLabel"><g class="label" data-id="L_term_fish_term_line_0" transform="translate(0, 0)"><foreignObject width="0" height="0"><div xmlns="http://www.w3.org/1999/xhtml" class="labelBkg" style="display: table-cell; white-space: nowrap; line-height: 1.5; max-width: 200px; text-align: center;"><span class="edgeLabel"></span></div></foreignObject></g></g><g class="edgeLabel" transform="translate(775.59375, 286.05859375)"><g class="label" data-id="L_proc_acquire_tension_store_system_state_0" transform="translate(-57.8125, -12)"><foreignObject width="115.625" height="24"><div xmlns="http://www.w3.org/1999/xhtml" class="labelBkg" style="display: table-cell; white-space: nowrap; line-height: 1.5; max-width: 200px; text-align: center;"><span class="edgeLabel"><p>tension samples</p></span></div></foreignObject></g></g><g class="edgeLabel" transform="translate(1069.2734375, 285.9140625)"><g class="label" data-id="L_store_system_state_proc_bite_detector_0" transform="translate(-47.1328125, -12)"><foreignObject width="94.265625" height="24"><div xmlns="http://www.w3.org/1999/xhtml" class="labelBkg" style="display: table-cell; white-space: nowrap; line-height: 1.5; max-width: 200px; text-align: center;"><span class="edgeLabel"><p>system_state</p></span></div></foreignObject></g></g><g class="edgeLabel" transform="translate(1201.375, 398.05859375)"><g class="label" data-id="L_store_system_state_proc_serve_ui_0" transform="translate(-47.1328125, -12)"><foreignObject width="94.265625" height="24"><div xmlns="http://www.w3.org/1999/xhtml" class="labelBkg" style="display: table-cell; white-space: nowrap; line-height: 1.5; max-width: 200px; text-align: center;"><span class="edgeLabel"><p>system_state</p></span></div></foreignObject></g></g><g class="edgeLabel" transform="translate(1069.2734375, 67.96875)"><g class="label" data-id="L_store_system_state_proc_cloud_forward_0" transform="translate(-47.1328125, -12)"><foreignObject width="94.265625" height="24"><div xmlns="http://www.w3.org/1999/xhtml" class="labelBkg" style="display: table-cell; white-space: nowrap; line-height: 1.5; max-width: 200px; text-align: center;"><span class="edgeLabel"><p>system_state</p></span></div></foreignObject></g></g><g class="edgeLabel" transform="translate(1339.265625, 259.96875)"><g class="label" data-id="L_proc_bite_detector_proc_reel_controller_0" transform="translate(-37.7890625, -12)"><foreignObject width="75.578125" height="24"><div xmlns="http://www.w3.org/1999/xhtml" class="labelBkg" style="display: table-cell; white-space: nowrap; line-height: 1.5; max-width: 200px; text-align: center;"><span class="edgeLabel"><p>motor cmd</p></span></div></foreignObject></g></g><g class="edgeLabel" transform="translate(1343.03305, 352.21387)"><g class="label" data-id="L_proc_bite_detector_proc_serve_ui_0" transform="translate(-39.5859375, -12)"><foreignObject width="79.171875" height="24"><div xmlns="http://www.w3.org/1999/xhtml" class="labelBkg" style="display: table-cell; white-space: nowrap; line-height: 1.5; max-width: 200px; text-align: center;"><span class="edgeLabel"><p>event_alert</p></span></div></foreignObject></g></g><g class="edgeLabel" transform="translate(1353.59187, 313.51462)"><g class="label" data-id="L_proc_serve_ui_proc_bite_detector_0" transform="translate(-52.921875, -12)"><foreignObject width="105.84375" height="24"><div xmlns="http://www.w3.org/1999/xhtml" class="labelBkg" style="display: table-cell; white-space: nowrap; line-height: 1.5; max-width: 200px; text-align: center;"><span class="edgeLabel"><p>event_override</p></span></div></foreignObject></g></g></g><g class="nodes"><g class="node default terminator" id="my-svg-flowchart-term_fish-0" data-look="classic" transform="translate(88.25, 236.2734375)"><rect class="basic label-container" style="fill:#fafafa !important;stroke:#444 !important" x="-45.1171875" y="-27" width="90.234375" height="54"/><g class="label" style="" transform="translate(-15.1171875, -12)"><rect/><foreignObject width="30.234375" height="24"><div xmlns="http://www.w3.org/1999/xhtml" style="display: table-cell; white-space: nowrap; line-height: 1.5; max-width: 200px; text-align: center;"><span class="nodeLabel"><p>Fish</p></span></div></foreignObject></g></g><g class="node default terminator" id="my-svg-flowchart-term_line-1" data-look="classic" transform="translate(292.0859375, 236.2734375)"><rect class="basic label-container" style="fill:#fafafa !important;stroke:#444 !important" x="-73.5859375" y="-27" width="147.171875" height="54"/><g class="label" style="" transform="translate(-43.5859375, -12)"><rect/><foreignObject width="87.171875" height="24"><div xmlns="http://www.w3.org/1999/xhtml" style="display: table-cell; white-space: nowrap; line-height: 1.5; max-width: 200px; text-align: center;"><span class="nodeLabel"><p>Hook &amp; Line</p></span></div></foreignObject></g></g><g class="node default terminator" id="my-svg-flowchart-term_angler-2" data-look="classic" transform="translate(1806.264503479004, 363.16015625)"><rect class="basic label-container" style="fill:#fafafa !important;stroke:#444 !important" x="-53.125" y="-27" width="106.25" height="54"/><g class="label" style="" transform="translate(-23.125, -12)"><rect/><foreignObject width="46.25" height="24"><div xmlns="http://www.w3.org/1999/xhtml" style="display: table-cell; white-space: nowrap; line-height: 1.5; max-width: 200px; text-align: center;"><span class="nodeLabel"><p>Angler</p></span></div></foreignObject></g></g><g class="node default terminator" id="my-svg-flowchart-term_power-3" data-look="classic" transform="translate(88.25, 340.2734375)"><rect class="basic label-container" style="fill:#fafafa !important;stroke:#444 !important" x="-80.25" y="-27" width="160.5" height="54"/><g class="label" style="" transform="translate(-50.25, -12)"><rect/><foreignObject width="100.5" height="24"><div xmlns="http://www.w3.org/1999/xhtml" style="display: table-cell; white-space: nowrap; line-height: 1.5; max-width: 200px; text-align: center;"><span class="nodeLabel"><p>Power Source</p></span></div></foreignObject></g></g><g class="node default termopt" id="my-svg-flowchart-term_cloud-4" data-look="classic" transform="translate(1480.585376739502, 67.96875)"><g class="basic label-container outer-path"><path d="M-31.9140625 -31.5 C-14.548994071968949 -31.5, 2.816074356062103 -31.5, 31.9140625 -31.5 C31.9140625 -31.5, 31.914062499999996 -31.5, 31.914062499999996 -31.5 C32.386642867300104 -31.48484526744257, 32.859223234600215 -31.469690534885135, 33.93227442939246 -31.435279871635593 C34.39143841120343 -31.39098487453577, 34.85060239301441 -31.346689877435946, 35.94219309306194 -31.241385435432253 C36.674011211813536 -31.12307075732677, 37.405829330565126 -31.004756079221284, 37.935559304093225 -30.91911344521856 C38.68335027131826 -30.748435036741547, 39.431141238543304 -30.57775662826453, 39.90418189314948 -30.469788185729428 C40.33541498604557 -30.341800467346562, 40.76664807894166 -30.2138127489637, 41.83997136774405 -29.895256030836062 C42.35382919570863 -29.706151600095406, 42.867687023673206 -29.51704716935475, 43.73497315370028 -29.197877856399685 C44.44745233873725 -28.88248445612792, 45.15993152377422 -28.56709105585615, 45.58140028220308 -28.380519338926202 C46.16360457971359 -28.076783729834617, 46.74580887722411 -27.773048120743034, 47.371665388124036 -27.44653917988677 C47.84945340328025 -27.156901277305035, 48.327241418436465 -26.867263374723297, 49.098411888132276 -26.399775304092984 C49.46523053793448 -26.143898493314385, 49.83204918773669 -25.888021682535783, 50.7545442104733 -25.244529088840633 C51.1466375570651 -24.93184507897583, 51.5387309036569 -24.619161069111026, 52.33325695219533 -23.985547688627737 C52.73171364968206 -23.62367985855679, 53.130170347168786 -23.261812028485846, 53.82806284400982 -22.62800452807842 C54.34783252560905 -22.09129965794273, 54.86760220720828 -21.55459478780704, 55.232819407872434 -21.177478043231485 C55.53305081894803 -20.824809144130846, 55.83328223002362 -20.472140245030207, 56.54175419774294 -19.63992875855011 C56.945067317723634 -19.099525920357074, 57.34838043770433 -18.55912308216404, 57.7494885198041 -18.02167479384835 C58.189669708436476 -17.345438282909594, 58.62985089706884 -16.66920177197084, 58.8510595346684 -16.329365901781543 C59.056729754284895 -15.96417760048439, 59.26239997390139 -15.598989299187238, 59.84194065074951 -14.56995614258631 C60.11518067213756 -14.00256739177413, 60.38842069352562 -13.43517864096195, 60.71806012499809 -12.750675308355413 C60.914847837499934 -12.264605853844266, 61.11163555000178 -11.778536399333118, 61.47581779456745 -10.878999214271206 C61.72114977781187 -10.14009836908224, 61.966481761056286 -9.401197523893277, 62.11209987065481 -8.962618978877531 C62.304687298364605 -8.228199649100915, 62.4972747260744 -7.493780319324301, 62.624291733727446 -7.009409419623907 C62.73164037287636 -6.458196845737155, 62.83898901202527 -5.906984271850403, 63.01028867755518 -5.027396693551458 C63.09652028155063 -4.35860140131899, 63.18275188554608 -3.6898061090865224, 63.268504557899746 -3.024725316091981 C63.31118291203285 -2.3599755011214696, 63.35386126616596 -1.695225686150958, 63.39787831032167 -1.0096246935071378 C63.39787831032167 -0.602245857634029, 63.39787831032167 -0.1948670217609202, 63.39787831032167 1.00962469350713 C63.371115691607926 1.426474082370678, 63.34435307289419 1.843323471234226, 63.268504557899746 3.02472531609196 C63.197526813675864 3.5752146841514545, 63.12654906945198 4.125704052210949, 63.01028867755518 5.027396693551435 C62.872255091655454 5.736169983737843, 62.73422150575572 6.444943273924249, 62.624291733727446 7.0094094196239 C62.41962275421288 7.7899009426097665, 62.21495377469832 8.570392465595633, 62.112099870654816 8.96261897887751 C61.97817699532232 9.365973341666516, 61.84425411998983 9.76932770445552, 61.475817794567455 10.878999214271184 C61.176135917150674 11.619219245445564, 60.8764540397339 12.359439276619945, 60.71806012499809 12.750675308355405 C60.43872897225873 13.330712423747897, 60.15939781951938 13.91074953914039, 59.84194065074951 14.569956142586303 C59.57492639131366 15.04406699834033, 59.30791213187781 15.518177854094358, 58.85105953466841 16.329365901781536 C58.600665435566704 16.71403847823188, 58.350271336465 17.098711054682227, 57.74948851980412 18.021674793848334 C57.43046055110651 18.449143207857272, 57.11143258240891 18.876611621866214, 56.54175419774295 19.639928758550102 C56.142589792347984 20.108809982225125, 55.74342538695302 20.577691205900148, 55.23281940787245 21.177478043231467 C54.94931451615577 21.47022012011342, 54.6658096244391 21.762962196995378, 53.82806284400983 22.628004528078414 C53.434320528807504 22.985590880894385, 53.04057821360518 23.343177233710353, 52.333256952195356 23.985547688627715 C51.856724783072586 24.365569412449535, 51.380192613949816 24.745591136271358, 50.75454421047331 25.24452908884063 C50.20818460014665 25.625645901478173, 49.66182498981999 26.006762714115716, 49.0984118881323 26.399775304092973 C48.593966113868674 26.705573296904003, 48.089520339605045 27.011371289715033, 47.37166538812404 27.446539179886766 C46.80504616994076 27.742144063076054, 46.238426951757475 28.03774894626534, 45.581400282203084 28.3805193389262 C45.16743847456829 28.563767951425397, 44.75347666693351 28.747016563924596, 43.734973153700295 29.197877856399682 C43.03996154933581 29.453648551422656, 42.344949944971326 29.709419246445627, 41.83997136774407 29.895256030836055 C41.19590358160058 30.086411968982645, 40.55183579545709 30.277567907129235, 39.90418189314951 30.46978818572942 C39.26773719408262 30.615052535101643, 38.63129249501572 30.760316884473863, 37.93555930409324 30.919113445218557 C37.238762262949784 31.03176618708887, 36.54196522180632 31.144418928959187, 35.94219309306196 31.24138543543225 C35.2845041470302 31.30483189706925, 34.626815200998436 31.368278358706252, 33.93227442939246 31.435279871635593 C33.41878669092819 31.45174642396489, 32.90529895246392 31.46821297629419, 31.914062500000007 31.5 C31.914062500000004 31.5, 31.914062500000004 31.5, 31.9140625 31.5 C8.78533557610897 31.5, -14.34339134778206 31.5, -31.914062499999993 31.5 C-32.39258137028219 31.484654831210527, -32.871100240564374 31.469309662421054, -33.93227442939244 31.435279871635593 C-34.45883235554363 31.38448346177835, -34.985390281694805 31.3336870519211, -35.942193093061945 31.24138543543225 C-36.66699909066086 31.12420442269492, -37.39180508825977 31.007023409957586, -37.935559304093225 30.919113445218557 C-38.37982813815273 30.817711982969556, -38.82409697221224 30.71631052072055, -39.90418189314947 30.469788185729428 C-40.46022751713804 30.304756763272664, -41.01627314112661 30.139725340815897, -41.839971367744035 29.89525603083607 C-42.283612690595035 29.731991923051467, -42.727254013446036 29.568727815266868, -43.73497315370029 29.197877856399685 C-44.21684072756724 28.984569375542495, -44.69870830143419 28.771260894685305, -45.58140028220308 28.380519338926206 C-46.20927188744954 28.052959124640086, -46.83714349269599 27.725398910353963, -47.37166538812403 27.446539179886773 C-47.88629838317871 27.134565633965455, -48.40093137823339 26.822592088044132, -49.09841188813226 26.399775304092994 C-49.58925516367244 26.057384283339104, -50.08009843921261 25.71499326258521, -50.7545442104733 25.244529088840636 C-51.12709372974474 24.94743076118073, -51.49964324901618 24.650332433520823, -52.33325695219533 23.98554768862774 C-52.90304610537379 23.468080255505928, -53.472835258552244 22.95061282238412, -53.82806284400981 22.628004528078435 C-54.21483650735449 22.228628965966735, -54.601610170699175 21.82925340385503, -55.23281940787244 21.177478043231478 C-55.72483191275273 20.599532158694462, -56.21684441763301 20.02158627415745, -56.54175419774293 19.639928758550113 C-56.92207691825249 19.13033096117992, -57.302399638762054 18.620733163809724, -57.7494885198041 18.021674793848355 C-58.17109564333746 17.373973034736522, -58.59270276687082 16.72627127562469, -58.851059534668394 16.329365901781557 C-59.16371877545866 15.774207759577191, -59.47637801624893 15.219049617372825, -59.8419406507495 14.569956142586314 C-60.04088494667204 14.156844055377155, -60.23982924259457 13.743731968167996, -60.71806012499809 12.750675308355417 C-60.969543921789146 12.129505468173065, -61.2210277185802 11.508335627990714, -61.47581779456745 10.878999214271209 C-61.700533347920555 10.202191771132863, -61.925248901273655 9.525384327994516, -62.11209987065481 8.962618978877522 C-62.250284095147514 8.435662641465104, -62.38846831964022 7.908706304052684, -62.62429173372744 7.009409419623911 C-62.709373365878356 6.572533220538289, -62.79445499802927 6.1356570214526664, -63.01028867755518 5.027396693551461 C-63.10686253250066 4.278388945259034, -63.20343638744613 3.5293811969666082, -63.268504557899746 3.024725316091999 C-63.301530501069394 2.51031959316318, -63.33455644423905 1.9959138702343604, -63.39787831032167 1.0096246935071416 C-63.39787831032167 0.21014126124302668, -63.39787831032167 -0.5893421710210882, -63.39787831032167 -1.0096246935071262 C-63.35398124223401 -1.6933569620480426, -63.31008417414635 -2.3770892305889593, -63.268504557899746 -3.024725316091956 C-63.210762134260136 -3.4725641513095393, -63.15301971062052 -3.920402986527123, -63.01028867755518 -5.027396693551446 C-62.906733458096554 -5.559130859068107, -62.803178238637926 -6.090865024584769, -62.624291733727446 -7.009409419623896 C-62.51096158684557 -7.441586387280854, -62.397631439963696 -7.87376335493781, -62.112099870654816 -8.962618978877506 C-61.970337104043736 -9.389585845080562, -61.82857433743266 -9.816552711283618, -61.47581779456746 -10.878999214271168 C-61.191558227493466 -11.58112584072878, -60.90729866041948 -12.28325246718639, -60.71806012499809 -12.750675308355401 C-60.48816734294364 -13.22805258920901, -60.25827456088919 -13.705429870062622, -59.84194065074951 -14.5699561425863 C-59.505790362415055 -15.166825018431865, -59.169640074080604 -15.76369389427743, -58.8510595346684 -16.329365901781546 C-58.557132761143514 -16.780916356305763, -58.263205987618626 -17.232466810829976, -57.74948851980411 -18.021674793848344 C-57.30089472248667 -18.62274961451806, -56.85230092516922 -19.223824435187773, -56.54175419774295 -19.639928758550102 C-56.066914920219205 -20.1977019930498, -55.59207564269546 -20.755475227549496, -55.232819407872455 -21.177478043231467 C-54.88395951441829 -21.537704525152815, -54.53509962096411 -21.897931007074167, -53.828062844009835 -22.628004528078403 C-53.46285345500217 -22.959678032264243, -53.09764406599451 -23.29135153645008, -52.333256952195356 -23.98554768862771 C-51.85258980682105 -24.36886694597379, -51.37192266144675 -24.752186203319866, -50.75454421047331 -25.244529088840626 C-50.13172973997946 -25.678977502253247, -49.50891526948561 -26.113425915665868, -49.098411888132304 -26.39977530409297 C-48.530966552479086 -26.743764001244884, -47.963521216825875 -27.087752698396798, -47.37166538812404 -27.446539179886763 C-46.890032148522494 -27.697806932486078, -46.408398908920944 -27.949074685085396, -45.58140028220309 -28.3805193389262 C-44.94003441152382 -28.664432984433333, -44.29866854084455 -28.948346629940467, -43.7349731537003 -29.19787785639968 C-43.03376374873781 -29.45592939933456, -42.332554343775314 -29.713980942269444, -41.83997136774408 -29.895256030836055 C-41.20245312115202 -30.084468100023013, -40.56493487455996 -30.27368016920997, -39.90418189314951 -30.469788185729417 C-39.18169577343122 -30.634690927892578, -38.45920965371293 -30.79959367005574, -37.93555930409324 -30.919113445218553 C-37.342655496021955 -31.014969534869817, -36.74975168795067 -31.110825624521077, -35.94219309306196 -31.24138543543225 C-35.418867837373924 -31.291869993457773, -34.89554258168589 -31.342354551483293, -33.93227442939246 -31.435279871635593 C-33.31530385749794 -31.455064917015886, -32.69833328560341 -31.474849962396178, -31.91406250000001 -31.5 C-31.914062500000007 -31.5, -31.914062500000004 -31.5, -31.9140625 -31.5" stroke="none" stroke-width="0" fill="#fafafa" style="fill:#fafafa !important;stroke:#888 !important;stroke-dasharray:5 5 !important"/><path d="M-31.9140625 -31.5 C-14.911884307856209 -31.5, 2.0902938842875827 -31.5, 31.9140625 -31.5 M-31.9140625 -31.5 C-11.722414353168531 -31.5, 8.469233793662937 -31.5, 31.9140625 -31.5 M31.9140625 -31.5 C31.9140625 -31.5, 31.914062499999996 -31.5, 31.914062499999996 -31.5 M31.9140625 -31.5 C31.9140625 -31.5, 31.914062499999996 -31.5, 31.914062499999996 -31.5 M31.914062499999996 -31.5 C32.52105437160419 -31.480534952115658, 33.128046243208374 -31.461069904231316, 33.93227442939246 -31.435279871635593 M31.914062499999996 -31.5 C32.47379104376362 -31.482050595047017, 33.033519587527245 -31.464101190094038, 33.93227442939246 -31.435279871635593 M33.93227442939246 -31.435279871635593 C34.618806583364645 -31.369050940417612, 35.30533873733683 -31.30282200919963, 35.94219309306194 -31.241385435432253 M33.93227442939246 -31.435279871635593 C34.36006057426861 -31.394011856727502, 34.78784671914477 -31.35274384181941, 35.94219309306194 -31.241385435432253 M35.94219309306194 -31.241385435432253 C36.70658574610612 -31.117804359241628, 37.4709783991503 -30.994223283051006, 37.935559304093225 -30.91911344521856 M35.94219309306194 -31.241385435432253 C36.461666748427625 -31.157400963411092, 36.98114040379331 -31.073416491389935, 37.935559304093225 -30.91911344521856 M37.935559304093225 -30.91911344521856 C38.65495390519171 -30.754916322006324, 39.374348506290204 -30.59071919879409, 39.90418189314948 -30.469788185729428 M37.935559304093225 -30.91911344521856 C38.69318019282395 -30.746191421304104, 39.45080108155467 -30.57326939738965, 39.90418189314948 -30.469788185729428 M39.90418189314948 -30.469788185729428 C40.40439576206585 -30.321327335111224, 40.904609630982236 -30.17286648449302, 41.83997136774405 -29.895256030836062 M39.90418189314948 -30.469788185729428 C40.56318638269532 -30.274199112417374, 41.222190872241164 -30.078610039105325, 41.83997136774405 -29.895256030836062 M41.83997136774405 -29.895256030836062 C42.46326970751136 -29.665876480094997, 43.086568047278675 -29.436496929353936, 43.73497315370028 -29.197877856399685 M41.83997136774405 -29.895256030836062 C42.5015791745179 -29.65177824210776, 43.16318698129176 -29.40830045337946, 43.73497315370028 -29.197877856399685 M43.73497315370028 -29.197877856399685 C44.106132143349086 -29.0335767817224, 44.4772911329979 -28.869275707045112, 45.58140028220308 -28.380519338926202 M43.73497315370028 -29.197877856399685 C44.29964876096251 -28.94791271557144, 44.864324368224736 -28.697947574743196, 45.58140028220308 -28.380519338926202 M45.58140028220308 -28.380519338926202 C46.253431073206855 -28.0299213057158, 46.92546186421063 -27.679323272505393, 47.371665388124036 -27.44653917988677 M45.58140028220308 -28.380519338926202 C45.98562999202807 -28.169632958231986, 46.38985970185308 -27.958746577537774, 47.371665388124036 -27.44653917988677 M47.371665388124036 -27.44653917988677 C47.893582168906306 -27.130150160253105, 48.415498949688576 -26.813761140619444, 49.098411888132276 -26.399775304092984 M47.371665388124036 -27.44653917988677 C47.95680243785314 -27.091825661693996, 48.541939487582255 -26.73711214350122, 49.098411888132276 -26.399775304092984 M49.098411888132276 -26.399775304092984 C49.58967016763347 -26.05709479454112, 50.08092844713466 -25.714414284989253, 50.7545442104733 -25.244529088840633 M49.098411888132276 -26.399775304092984 C49.660125673906364 -26.007948083334853, 50.22183945968046 -25.616120862576725, 50.7545442104733 -25.244529088840633 M50.7545442104733 -25.244529088840633 C51.3236792801973 -24.79065901605601, 51.8928143499213 -24.33678894327139, 52.33325695219533 -23.985547688627737 M50.7545442104733 -25.244529088840633 C51.346612853223725 -24.772370101855444, 51.93868149597415 -24.300211114870258, 52.33325695219533 -23.985547688627737 M52.33325695219533 -23.985547688627737 C52.8461740528047 -23.519729948897123, 53.35909115341406 -23.053912209166505, 53.82806284400982 -22.62800452807842 M52.33325695219533 -23.985547688627737 C52.7389688330296 -23.61709089300218, 53.14468071386387 -23.24863409737663, 53.82806284400982 -22.62800452807842 M53.82806284400982 -22.62800452807842 C54.34729575354064 -22.09185391917317, 54.866528663071456 -21.555703310267923, 55.232819407872434 -21.177478043231485 M53.82806284400982 -22.62800452807842 C54.34826779055605 -22.09085021114904, 54.86847273710227 -21.553695894219658, 55.232819407872434 -21.177478043231485 M55.232819407872434 -21.177478043231485 C55.731649999029976 -20.59152324659311, 56.23048059018752 -20.005568449954733, 56.54175419774294 -19.63992875855011 M55.232819407872434 -21.177478043231485 C55.70666748454668 -20.62086912965054, 56.180515561220915 -20.064260216069595, 56.54175419774294 -19.63992875855011 M56.54175419774294 -19.63992875855011 C56.981152757726186 -19.051174718204873, 57.420551317709425 -18.462420677859633, 57.7494885198041 -18.02167479384835 M56.54175419774294 -19.63992875855011 C56.97743536872156 -19.05615568080997, 57.41311653970017 -18.472382603069825, 57.7494885198041 -18.02167479384835 M57.7494885198041 -18.02167479384835 C57.990943261701894 -17.650735470616738, 58.23239800359968 -17.279796147385127, 58.8510595346684 -16.329365901781543 M57.7494885198041 -18.02167479384835 C58.15972179497441 -17.3914463201281, 58.569955070144715 -16.761217846407845, 58.8510595346684 -16.329365901781543 M58.8510595346684 -16.329365901781543 C59.11476051053717 -15.86113811650721, 59.37846148640594 -15.392910331232876, 59.84194065074951 -14.56995614258631 M58.8510595346684 -16.329365901781543 C59.061032110075715 -15.956538332117024, 59.27100468548303 -15.583710762452506, 59.84194065074951 -14.56995614258631 M59.84194065074951 -14.56995614258631 C60.130698002173226 -13.970345323937403, 60.41945535359694 -13.370734505288494, 60.71806012499809 -12.750675308355413 M59.84194065074951 -14.56995614258631 C60.1227262409511 -13.986898856683508, 60.40351183115269 -13.403841570780706, 60.71806012499809 -12.750675308355413 M60.71806012499809 -12.750675308355413 C60.88979344858582 -12.326490678855773, 61.06152677217356 -11.902306049356131, 61.47581779456745 -10.878999214271206 M60.71806012499809 -12.750675308355413 C60.94307314765359 -12.19488879206548, 61.168086170309095 -11.63910227577555, 61.47581779456745 -10.878999214271206 M61.47581779456745 -10.878999214271206 C61.628454287113854 -10.419282418043885, 61.78109077966026 -9.959565621816564, 62.11209987065481 -8.962618978877531 M61.47581779456745 -10.878999214271206 C61.71322856932405 -10.163955786974368, 61.950639344080656 -9.44891235967753, 62.11209987065481 -8.962618978877531 M62.11209987065481 -8.962618978877531 C62.22941688709329 -8.515238349681054, 62.34673390353177 -8.067857720484575, 62.624291733727446 -7.009409419623907 M62.11209987065481 -8.962618978877531 C62.219928532187474 -8.551421559215951, 62.32775719372014 -8.140224139554373, 62.624291733727446 -7.009409419623907 M62.624291733727446 -7.009409419623907 C62.70299330832592 -6.6052934676444295, 62.78169488292439 -6.201177515664952, 63.01028867755518 -5.027396693551458 M62.624291733727446 -7.009409419623907 C62.74378385177656 -6.395842648109802, 62.86327596982567 -5.782275876595697, 63.01028867755518 -5.027396693551458 M63.01028867755518 -5.027396693551458 C63.10488809196287 -4.293702316172705, 63.199487506370566 -3.560007938793952, 63.268504557899746 -3.024725316091981 M63.01028867755518 -5.027396693551458 C63.091003680211976 -4.401387071925426, 63.17171868286878 -3.775377450299395, 63.268504557899746 -3.024725316091981 M63.268504557899746 -3.024725316091981 C63.302641816319564 -2.4930099611043164, 63.336779074739376 -1.9612946061166519, 63.39787831032167 -1.0096246935071378 M63.268504557899746 -3.024725316091981 C63.31368690486189 -2.320973791622545, 63.35886925182403 -1.6172222671531087, 63.39787831032167 -1.0096246935071378 M63.39787831032167 -1.0096246935071378 C63.39787831032167 -0.4905784933940375, 63.39787831032167 0.028467706719062846, 63.39787831032167 1.00962469350713 M63.39787831032167 -1.0096246935071378 C63.39787831032167 -0.3034275393096022, 63.39787831032167 0.4027696148879334, 63.39787831032167 1.00962469350713 M63.39787831032167 1.00962469350713 C63.36510719899723 1.5200612047502597, 63.332336087672786 2.0304977159933895, 63.268504557899746 3.02472531609196 M63.39787831032167 1.00962469350713 C63.364084839167454 1.5359852843330226, 63.330291368013235 2.062345875158915, 63.268504557899746 3.02472531609196 M63.268504557899746 3.02472531609196 C63.19786498156602 3.572591920774229, 63.12722540523229 4.120458525456498, 63.01028867755518 5.027396693551435 M63.268504557899746 3.02472531609196 C63.16688336754331 3.8128792011226644, 63.065262177186874 4.601033086153369, 63.01028867755518 5.027396693551435 M63.01028867755518 5.027396693551435 C62.89648612419659 5.611748752869622, 62.782683570838 6.196100812187808, 62.624291733727446 7.0094094196239 M63.01028867755518 5.027396693551435 C62.914091232329376 5.5213502434487065, 62.81789378710357 6.015303793345977, 62.624291733727446 7.0094094196239 M62.624291733727446 7.0094094196239 C62.49957249558364 7.485017928325966, 62.37485325743984 7.960626437028032, 62.112099870654816 8.96261897887751 M62.624291733727446 7.0094094196239 C62.51731140896243 7.417371763518975, 62.4103310841974 7.82533410741405, 62.112099870654816 8.96261897887751 M62.112099870654816 8.96261897887751 C61.93491927497465 9.496258703171927, 61.75773867929449 10.029898427466346, 61.475817794567455 10.878999214271184 M62.112099870654816 8.96261897887751 C61.87285235419464 9.683194379540456, 61.63360483773447 10.403769780203401, 61.475817794567455 10.878999214271184 M61.475817794567455 10.878999214271184 C61.293388217396625 11.329603796919061, 61.110958640225796 11.78020837956694, 60.71806012499809 12.750675308355405 M61.475817794567455 10.878999214271184 C61.2174009422088 11.517293835747017, 60.95898408985015 12.155588457222848, 60.71806012499809 12.750675308355405 M60.71806012499809 12.750675308355405 C60.42134470158346 13.366811233768919, 60.12462927816882 13.982947159182434, 59.84194065074951 14.569956142586303 M60.71806012499809 12.750675308355405 C60.53303080446238 13.134892651441053, 60.348001483926666 13.519109994526701, 59.84194065074951 14.569956142586303 M59.84194065074951 14.569956142586303 C59.510974776783016 15.157619565742678, 59.18000890281652 15.745282988899055, 58.85105953466841 16.329365901781536 M59.84194065074951 14.569956142586303 C59.47848346223398 15.215311184826852, 59.115026273718456 15.860666227067401, 58.85105953466841 16.329365901781536 M58.85105953466841 16.329365901781536 C58.567791912761635 16.764541037037347, 58.28452429085486 17.199716172293158, 57.74948851980412 18.021674793848334 M58.85105953466841 16.329365901781536 C58.59699732098973 16.719673687248797, 58.34293510731105 17.109981472716054, 57.74948851980412 18.021674793848334 M57.74948851980412 18.021674793848334 C57.36280661280208 18.539793321784636, 56.97612470580005 19.057911849720938, 56.54175419774295 19.639928758550102 M57.74948851980412 18.021674793848334 C57.49267728655953 18.365778450411433, 57.235866053314936 18.709882106974536, 56.54175419774295 19.639928758550102 M56.54175419774295 19.639928758550102 C56.02376462024083 20.24838879072602, 55.50577504273871 20.856848822901934, 55.23281940787245 21.177478043231467 M56.54175419774295 19.639928758550102 C56.23802178824896 19.996710129605447, 55.93428937875496 20.35349150066079, 55.23281940787245 21.177478043231467 M55.23281940787245 21.177478043231467 C54.848781773582246 21.574028430712257, 54.46474413929204 21.97057881819305, 53.82806284400983 22.628004528078414 M55.23281940787245 21.177478043231467 C54.67143227438225 21.75715634930093, 54.11004514089205 22.336834655370392, 53.82806284400983 22.628004528078414 M53.82806284400983 22.628004528078414 C53.498375564136076 22.92741779261234, 53.16868828426232 23.226831057146267, 52.333256952195356 23.985547688627715 M53.82806284400983 22.628004528078414 C53.3527172926237 23.0597007808932, 52.87737174123758 23.491397033707983, 52.333256952195356 23.985547688627715 M52.333256952195356 23.985547688627715 C51.877752298153204 24.348800528738415, 51.42224764411106 24.712053368849116, 50.75454421047331 25.24452908884063 M52.333256952195356 23.985547688627715 C51.79147124736311 24.417607370708325, 51.24968554253088 24.849667052788934, 50.75454421047331 25.24452908884063 M50.75454421047331 25.24452908884063 C50.345019571089956 25.530195749238544, 49.9354949317066 25.815862409636463, 49.0984118881323 26.399775304092973 M50.75454421047331 25.24452908884063 C50.09891595201284 25.70186698025278, 49.44328769355236 26.159204871664937, 49.0984118881323 26.399775304092973 M49.0984118881323 26.399775304092973 C48.6978292293716 26.642610865918712, 48.297246570610895 26.88544642774445, 47.37166538812404 27.446539179886766 M49.0984118881323 26.399775304092973 C48.64409023061779 26.67518776276868, 48.18976857310328 26.95060022144439, 47.37166538812404 27.446539179886766 M47.37166538812404 27.446539179886766 C46.85364182879682 27.716791738977854, 46.33561826946959 27.98704429806894, 45.581400282203084 28.3805193389262 M47.37166538812404 27.446539179886766 C46.995556046729966 27.642755182382526, 46.61944670533589 27.838971184878286, 45.581400282203084 28.3805193389262 M45.581400282203084 28.3805193389262 C44.84892883084777 28.70476272244759, 44.116457379492445 29.029006105968982, 43.734973153700295 29.197877856399682 M45.581400282203084 28.3805193389262 C45.02147761719881 28.62838049320787, 44.46155495219454 28.87624164748954, 43.734973153700295 29.197877856399682 M43.734973153700295 29.197877856399682 C42.98826280937484 29.472674165626206, 42.24155246504938 29.74747047485273, 41.83997136774407 29.895256030836055 M43.734973153700295 29.197877856399682 C42.98159832412718 29.47512675780317, 42.228223494554065 29.75237565920666, 41.83997136774407 29.895256030836055 M41.83997136774407 29.895256030836055 C41.16925253161166 30.09432186072514, 40.49853369547925 30.293387690614225, 39.90418189314951 30.46978818572942 M41.83997136774407 29.895256030836055 C41.112812100649975 30.111073084372702, 40.38565283355589 30.32689013790935, 39.90418189314951 30.46978818572942 M39.90418189314951 30.46978818572942 C39.2712849794734 30.61424277623766, 38.63838806579728 30.7586973667459, 37.93555930409324 30.919113445218557 M39.90418189314951 30.46978818572942 C39.36606145150261 30.59261066497127, 38.82794100985571 30.715433144213122, 37.93555930409324 30.919113445218557 M37.93555930409324 30.919113445218557 C37.49815824773191 30.989829055915205, 37.06075719137057 31.06054466661185, 35.94219309306196 31.24138543543225 M37.93555930409324 30.919113445218557 C37.155650985827855 31.045202973836364, 36.37574266756247 31.171292502454172, 35.94219309306196 31.24138543543225 M35.94219309306196 31.24138543543225 C35.18191427997522 31.314728618161677, 34.421635466888475 31.388071800891108, 33.93227442939246 31.435279871635593 M35.94219309306196 31.24138543543225 C35.26646909028546 31.306571717303086, 34.59074508750897 31.371757999173923, 33.93227442939246 31.435279871635593 M33.93227442939246 31.435279871635593 C33.354736378718115 31.4538003928111, 32.77719832804378 31.472320913986607, 31.914062500000007 31.5 M33.93227442939246 31.435279871635593 C33.18942350309023 31.459101654970492, 32.44657257678801 31.482923438305395, 31.914062500000007 31.5 M31.914062500000007 31.5 C31.914062500000004 31.5, 31.9140625 31.5, 31.9140625 31.5 M31.914062500000007 31.5 C31.914062500000007 31.5, 31.914062500000004 31.5, 31.9140625 31.5 M31.9140625 31.5 C13.480481692604307 31.5, -4.953099114791385 31.5, -31.914062499999993 31.5 M31.9140625 31.5 C15.569143366157093 31.5, -0.7757757676858148 31.5, -31.914062499999993 31.5 M-31.914062499999993 31.5 C-32.4394263116184 31.483152605120022, -32.96479012323681 31.466305210240044, -33.93227442939244 31.435279871635593 M-31.914062499999993 31.5 C-32.66510903650876 31.475915399397564, -33.41615557301753 31.451830798795125, -33.93227442939244 31.435279871635593 M-33.93227442939244 31.435279871635593 C-34.680968164141305 31.363054287480324, -35.429661898890174 31.290828703325055, -35.942193093061945 31.24138543543225 M-33.93227442939244 31.435279871635593 C-34.57541547200536 31.373236828744993, -35.21855651461828 31.311193785854396, -35.942193093061945 31.24138543543225 M-35.942193093061945 31.24138543543225 C-36.394469962201846 31.168264818689213, -36.84674683134175 31.09514420194618, -37.935559304093225 30.919113445218557 M-35.942193093061945 31.24138543543225 C-36.62346095532983 31.131243330771955, -37.30472881759773 31.02110122611166, -37.935559304093225 30.919113445218557 M-37.935559304093225 30.919113445218557 C-38.55940170809781 30.77672548745665, -39.183244112102386 30.63433752969474, -39.90418189314947 30.469788185729428 M-37.935559304093225 30.919113445218557 C-38.493508572437214 30.79176516567828, -39.0514578407812 30.66441688613801, -39.90418189314947 30.469788185729428 M-39.90418189314947 30.469788185729428 C-40.50868566737943 30.29037463864304, -41.11318944160939 30.11096109155665, -41.839971367744035 29.89525603083607 M-39.90418189314947 30.469788185729428 C-40.33277216213133 30.342584843611846, -40.761362431113184 30.21538150149426, -41.839971367744035 29.89525603083607 M-41.839971367744035 29.89525603083607 C-42.36650307776563 29.701487494342352, -42.89303478778722 29.50771895784863, -43.73497315370029 29.197877856399685 M-41.839971367744035 29.89525603083607 C-42.45109412188002 29.670357208157213, -43.062216876016 29.44545838547836, -43.73497315370029 29.197877856399685 M-43.73497315370029 29.197877856399685 C-44.17887180775312 29.001377090036218, -44.62277046180595 28.80487632367275, -45.58140028220308 28.380519338926206 M-43.73497315370029 29.197877856399685 C-44.35311300497263 28.924245680708616, -44.97125285624496 28.650613505017546, -45.58140028220308 28.380519338926206 M-45.58140028220308 28.380519338926206 C-46.15903529832901 28.079167521006195, -46.73667031445493 27.777815703086183, -47.37166538812403 27.446539179886773 M-45.58140028220308 28.380519338926206 C-46.0787087707399 28.121073818997836, -46.57601725927672 27.861628299069466, -47.37166538812403 27.446539179886773 M-47.37166538812403 27.446539179886773 C-47.933928576923435 27.10569193061131, -48.49619176572284 26.764844681335852, -49.09841188813226 26.399775304092994 M-47.37166538812403 27.446539179886773 C-47.77883009288236 27.199713543096873, -48.185994797640696 26.952887906306973, -49.09841188813226 26.399775304092994 M-49.09841188813226 26.399775304092994 C-49.75156980994861 25.944160612584632, -50.404727731764964 25.488545921076273, -50.7545442104733 25.244529088840636 M-49.09841188813226 26.399775304092994 C-49.4811224641798 26.132812973516053, -49.863833040227334 25.86585064293911, -50.7545442104733 25.244529088840636 M-50.7545442104733 25.244529088840636 C-51.13178412560544 24.94369029529849, -51.50902404073759 24.64285150175635, -52.33325695219533 23.98554768862774 M-50.7545442104733 25.244529088840636 C-51.38143922424283 24.744596997736366, -52.00833423801236 24.244664906632096, -52.33325695219533 23.98554768862774 M-52.33325695219533 23.98554768862774 C-52.64592976826646 23.70158650994131, -52.9586025843376 23.417625331254882, -53.82806284400981 22.628004528078435 M-52.33325695219533 23.98554768862774 C-52.86992085710024 23.49816372954192, -53.40658476200516 23.0107797704561, -53.82806284400981 22.628004528078435 M-53.82806284400981 22.628004528078435 C-54.23452978513158 22.208294039813715, -54.64099672625335 21.788583551548992, -55.23281940787244 21.177478043231478 M-53.82806284400981 22.628004528078435 C-54.364789584256 22.073790102689344, -54.901516324502204 21.519575677300253, -55.23281940787244 21.177478043231478 M-55.23281940787244 21.177478043231478 C-55.61214280778935 20.73190319357617, -55.99146620770626 20.28632834392086, -56.54175419774293 19.639928758550113 M-55.23281940787244 21.177478043231478 C-55.67134372410369 20.66236242864578, -56.10986804033494 20.14724681406008, -56.54175419774293 19.639928758550113 M-56.54175419774293 19.639928758550113 C-56.833735295751914 19.248700687243318, -57.125716393760904 18.857472615936523, -57.7494885198041 18.021674793848355 M-56.54175419774293 19.639928758550113 C-56.818059513236584 19.269704807720693, -57.09436482873024 18.899480856891273, -57.7494885198041 18.021674793848355 M-57.7494885198041 18.021674793848355 C-57.997611742811785 17.640490892894043, -58.245734965819466 17.25930699193973, -58.851059534668394 16.329365901781557 M-57.7494885198041 18.021674793848355 C-58.06370316428688 17.538956721476673, -58.37791780876965 17.05623864910499, -58.851059534668394 16.329365901781557 M-58.851059534668394 16.329365901781557 C-59.111533626537444 15.86686777580616, -59.37200771840649 15.404369649830763, -59.8419406507495 14.569956142586314 M-58.851059534668394 16.329365901781557 C-59.065976210655506 15.94775958089313, -59.28089288664262 15.566153260004704, -59.8419406507495 14.569956142586314 M-59.8419406507495 14.569956142586314 C-60.12615481654671 13.979779346099457, -60.41036898234391 13.3896025496126, -60.71806012499809 12.750675308355417 M-59.8419406507495 14.569956142586314 C-60.10740729708159 14.018708971401429, -60.37287394341368 13.467461800216544, -60.71806012499809 12.750675308355417 M-60.71806012499809 12.750675308355417 C-60.94331166500299 12.194299649601053, -61.16856320500789 11.637923990846687, -61.47581779456745 10.878999214271209 M-60.71806012499809 12.750675308355417 C-60.899500623243306 12.302513769776334, -61.08094112148853 11.854352231197252, -61.47581779456745 10.878999214271209 M-61.47581779456745 10.878999214271209 C-61.63591584375598 10.396809398275396, -61.79601389294452 9.914619582279585, -62.11209987065481 8.962618978877522 M-61.47581779456745 10.878999214271209 C-61.72783488248248 10.119963898941137, -61.97985197039752 9.360928583611063, -62.11209987065481 8.962618978877522 M-62.11209987065481 8.962618978877522 C-62.292176291830394 8.275909539320397, -62.47225271300597 7.589200099763271, -62.62429173372744 7.009409419623911 M-62.11209987065481 8.962618978877522 C-62.22614581526814 8.527712364241832, -62.34019175988147 8.092805749606141, -62.62429173372744 7.009409419623911 M-62.62429173372744 7.009409419623911 C-62.722486640639595 6.505199326130939, -62.82068154755174 6.000989232637968, -63.01028867755518 5.027396693551461 M-62.62429173372744 7.009409419623911 C-62.71013524594367 6.568621127426319, -62.7959787581599 6.127832835228726, -63.01028867755518 5.027396693551461 M-63.01028867755518 5.027396693551461 C-63.090155320757695 4.407966780325317, -63.17002196396021 3.7885368670991735, -63.268504557899746 3.024725316091999 M-63.01028867755518 5.027396693551461 C-63.08241686594187 4.467984707746103, -63.154545054328565 3.908572721940744, -63.268504557899746 3.024725316091999 M-63.268504557899746 3.024725316091999 C-63.296916763292394 2.582182283182117, -63.32532896868504 2.139639250272235, -63.39787831032167 1.0096246935071416 M-63.268504557899746 3.024725316091999 C-63.300732875439515 2.5227432561803713, -63.33296119297929 2.0207611962687437, -63.39787831032167 1.0096246935071416 M-63.39787831032167 1.0096246935071416 C-63.39787831032167 0.4069957364354978, -63.39787831032167 -0.19563322063614597, -63.39787831032167 -1.0096246935071262 M-63.39787831032167 1.0096246935071416 C-63.39787831032167 0.30221675901403955, -63.39787831032167 -0.40519117547906247, -63.39787831032167 -1.0096246935071262 M-63.39787831032167 -1.0096246935071262 C-63.37042018823323 -1.4373071088317824, -63.34296206614479 -1.8649895241564385, -63.268504557899746 -3.024725316091956 M-63.39787831032167 -1.0096246935071262 C-63.36786112934074 -1.4771665167175392, -63.337843948359804 -1.9447083399279521, -63.268504557899746 -3.024725316091956 M-63.268504557899746 -3.024725316091956 C-63.18892839879645 -3.641902292007117, -63.10935223969316 -4.259079267922278, -63.01028867755518 -5.027396693551446 M-63.268504557899746 -3.024725316091956 C-63.18561711595455 -3.667583947842174, -63.102729674009346 -4.310442579592392, -63.01028867755518 -5.027396693551446 M-63.01028867755518 -5.027396693551446 C-62.86021759868692 -5.797979966006214, -62.71014651981866 -6.5685632384609836, -62.624291733727446 -7.009409419623896 M-63.01028867755518 -5.027396693551446 C-62.87759190392611 -5.708766580663672, -62.744895130297046 -6.390136467775897, -62.624291733727446 -7.009409419623896 M-62.624291733727446 -7.009409419623896 C-62.42558184866057 -7.767176332792855, -62.226871963593695 -8.524943245961813, -62.112099870654816 -8.962618978877506 M-62.624291733727446 -7.009409419623896 C-62.50532253954842 -7.463090518603426, -62.3863533453694 -7.916771617582956, -62.112099870654816 -8.962618978877506 M-62.112099870654816 -8.962618978877506 C-61.94464218443097 -9.46697484902476, -61.77718449820711 -9.971330719172016, -61.47581779456746 -10.878999214271168 M-62.112099870654816 -8.962618978877506 C-61.95644942153251 -9.43141333210267, -61.800798972410206 -9.900207685327834, -61.47581779456746 -10.878999214271168 M-61.47581779456746 -10.878999214271168 C-61.225253817305905 -11.497897082432159, -60.97468984004434 -12.116794950593151, -60.71806012499809 -12.750675308355401 M-61.47581779456746 -10.878999214271168 C-61.30116363136944 -11.310398374078801, -61.12650946817143 -11.741797533886434, -60.71806012499809 -12.750675308355401 M-60.71806012499809 -12.750675308355401 C-60.45974959745794 -13.287062645752412, -60.20143906991779 -13.823449983149425, -59.84194065074951 -14.5699561425863 M-60.71806012499809 -12.750675308355401 C-60.44472413615783 -13.318263337635464, -60.171388147317565 -13.885851366915528, -59.84194065074951 -14.5699561425863 M-59.84194065074951 -14.5699561425863 C-59.49499201103581 -15.185998584757366, -59.14804337132211 -15.802041026928432, -58.8510595346684 -16.329365901781546 M-59.84194065074951 -14.5699561425863 C-59.572733228944955 -15.047961180207738, -59.3035258071404 -15.525966217829177, -58.8510595346684 -16.329365901781546 M-58.8510595346684 -16.329365901781546 C-58.594903651186 -16.72289012629638, -58.3387477677036 -17.116414350811215, -57.74948851980411 -18.021674793848344 M-58.8510595346684 -16.329365901781546 C-58.585793926805096 -16.736885109248963, -58.3205283189418 -17.144404316716376, -57.74948851980411 -18.021674793848344 M-57.74948851980411 -18.021674793848344 C-57.40892065772095 -18.478004702669274, -57.068352795637786 -18.934334611490204, -56.54175419774295 -19.639928758550102 M-57.74948851980411 -18.021674793848344 C-57.30587609492985 -18.616075029256553, -56.8622636700556 -19.21047526466476, -56.54175419774295 -19.639928758550102 M-56.54175419774295 -19.639928758550102 C-56.09753687469692 -20.161731702881706, -55.65331955165089 -20.683534647213307, -55.232819407872455 -21.177478043231467 M-56.54175419774295 -19.639928758550102 C-56.21271134017158 -20.026441222122426, -55.883668482600214 -20.412953685694752, -55.232819407872455 -21.177478043231467 M-55.232819407872455 -21.177478043231467 C-54.870156435421436 -21.55195733747092, -54.50749346297042 -21.926436631710377, -53.828062844009835 -22.628004528078403 M-55.232819407872455 -21.177478043231467 C-54.91021067495875 -21.510598046634428, -54.58760194204504 -21.843718050037385, -53.828062844009835 -22.628004528078403 M-53.828062844009835 -22.628004528078403 C-53.35505749341127 -23.057575472456247, -52.882052142812704 -23.48714641683409, -52.333256952195356 -23.98554768862771 M-53.828062844009835 -22.628004528078403 C-53.303099523858336 -23.10476232567168, -52.77813620370684 -23.58152012326495, -52.333256952195356 -23.98554768862771 M-52.333256952195356 -23.98554768862771 C-51.78304911663361 -24.424323795842785, -51.23284128107188 -24.86309990305786, -50.75454421047331 -25.244529088840626 M-52.333256952195356 -23.98554768862771 C-51.878271227713896 -24.348386696223056, -51.42328550323244 -24.711225703818403, -50.75454421047331 -25.244529088840626 M-50.75454421047331 -25.244529088840626 C-50.40919640341055 -25.485428769181993, -50.06384859634779 -25.726328449523358, -49.098411888132304 -26.39977530409297 M-50.75454421047331 -25.244529088840626 C-50.211437927206084 -25.62337652135577, -49.668331643938856 -26.002223953870914, -49.098411888132304 -26.39977530409297 M-49.098411888132304 -26.39977530409297 C-48.7224715321381 -26.62767255716741, -48.346531176143905 -26.85556981024185, -47.37166538812404 -27.446539179886763 M-49.098411888132304 -26.39977530409297 C-48.56844387225772 -26.721045029753903, -48.03847585638313 -27.042314755414836, -47.37166538812404 -27.446539179886763 M-47.37166538812404 -27.446539179886763 C-46.7148235232224 -27.78921316007866, -46.05798165832075 -28.131887140270557, -45.58140028220309 -28.3805193389262 M-47.37166538812404 -27.446539179886763 C-46.81462948414787 -27.73714445419261, -46.257593580171694 -28.027749728498456, -45.58140028220309 -28.3805193389262 M-45.58140028220309 -28.3805193389262 C-45.00200956015639 -28.63699842456116, -44.422618838109685 -28.89347751019612, -43.7349731537003 -29.19787785639968 M-45.58140028220309 -28.3805193389262 C-44.85544612482886 -28.70187770973082, -44.129491967454626 -29.02323608053544, -43.7349731537003 -29.19787785639968 M-43.7349731537003 -29.19787785639968 C-43.0301711681386 -29.45725150220452, -42.3253691825769 -29.716625148009363, -41.83997136774408 -29.895256030836055 M-43.7349731537003 -29.19787785639968 C-43.07182327296299 -29.44192314260131, -42.408673392225666 -29.685968428802944, -41.83997136774408 -29.895256030836055 M-41.83997136774408 -29.895256030836055 C-41.364612146927634 -30.036340152362907, -40.88925292611118 -30.177424273889763, -39.90418189314951 -30.469788185729417 M-41.83997136774408 -29.895256030836055 C-41.34842189975484 -30.04114533273945, -40.856872431765595 -30.18703463464285, -39.90418189314951 -30.469788185729417 M-39.90418189314951 -30.469788185729417 C-39.391016103996286 -30.586914928383912, -38.87785031484305 -30.70404167103841, -37.93555930409324 -30.919113445218553 M-39.90418189314951 -30.469788185729417 C-39.41481432252414 -30.58148314030282, -38.92544675189877 -30.69317809487622, -37.93555930409324 -30.919113445218553 M-37.93555930409324 -30.919113445218553 C-37.21995430307666 -31.03480691218325, -36.504349302060085 -31.150500379147942, -35.94219309306196 -31.24138543543225 M-37.93555930409324 -30.919113445218553 C-37.422612075845386 -31.0020427751165, -36.90966484759754 -31.084972105014447, -35.94219309306196 -31.24138543543225 M-35.94219309306196 -31.24138543543225 C-35.522634444149276 -31.281859753699756, -35.10307579523659 -31.322334071967262, -33.93227442939246 -31.435279871635593 M-35.94219309306196 -31.24138543543225 C-35.292735931331855 -31.30403778673784, -34.64327876960176 -31.366690138043428, -33.93227442939246 -31.435279871635593 M-33.93227442939246 -31.435279871635593 C-33.36417301691886 -31.453497778191306, -32.79607160444527 -31.471715684747014, -31.91406250000001 -31.5 M-33.93227442939246 -31.435279871635593 C-33.39689295460118 -31.45244851347533, -32.86151147980989 -31.46961715531506, -31.91406250000001 -31.5 M-31.91406250000001 -31.5 C-31.914062500000007 -31.5, -31.914062500000004 -31.5, -31.9140625 -31.5 M-31.91406250000001 -31.5 C-31.914062500000007 -31.5, -31.914062500000007 -31.5, -31.9140625 -31.5" stroke="#888" stroke-width="1.3" fill="none" stroke-dasharray="5 5" style="fill:#fafafa !important;stroke:#888 !important;stroke-dasharray:5 5 !important"/></g><g class="label" style="color:#666 !important" transform="translate(-48.0390625, -24)"><rect/><foreignObject width="96.078125" height="48"><div style="color: rgb(102, 102, 102) !important; display: table-cell; white-space: nowrap; line-height: 1.5; max-width: 200px; text-align: center;" xmlns="http://www.w3.org/1999/xhtml"><span style="color:#666 !important" class="nodeLabel"><p>Cloud Logger<br /><i>optional</i></p></span></div></foreignObject></g></g><g class="node default proc" id="my-svg-flowchart-proc_acquire_tension-5" data-look="classic" transform="translate(628.5, 286.05859375)"><circle class="basic label-container" style="fill:#cfe5ff !important;stroke:#2a70c2 !important" r="64.28125" cx="0" cy="0"/><g class="label" style="color:#000 !important" transform="translate(-56.78125, -12)"><rect/><foreignObject width="113.5625" height="24"><div style="color: rgb(0, 0, 0) !important; display: table-cell; white-space: nowrap; line-height: 1.5; max-width: 200px; text-align: center;" xmlns="http://www.w3.org/1999/xhtml"><span style="color:#000 !important" class="nodeLabel"><p>Acquire Tension</p></span></div></foreignObject></g></g><g class="node default brain" id="my-svg-flowchart-proc_bite_detector-6" data-look="classic" transform="translate(1201.375, 285.9140625)"><circle class="basic label-container" style="fill:#7fbff5 !important;stroke:#1f5a99 !important" r="57.2890625" cx="0" cy="0"/><g class="label" style="color:#000 !important;font-weight:bold !important" transform="translate(-49.7890625, -12)"><rect/><foreignObject width="99.578125" height="24"><div style="color: rgb(0, 0, 0) !important; font-weight: bold !important; display: table-cell; white-space: nowrap; line-height: 1.5; max-width: 200px; text-align: center;" xmlns="http://www.w3.org/1999/xhtml"><span style="color:#000 !important;font-weight:bold !important" class="nodeLabel"><p>Bite Detector</p></span></div></foreignObject></g></g><g class="node default proc" id="my-svg-flowchart-proc_reel_controller-7" data-look="classic" transform="translate(1480.585376739502, 210.328125)"><circle class="basic label-container" style="fill:#cfe5ff !important;stroke:#2a70c2 !important" r="60.859375" cx="0" cy="0"/><g class="label" style="color:#000 !important" transform="translate(-53.359375, -12)"><rect/><foreignObject width="106.71875" height="24"><div style="color: rgb(0, 0, 0) !important; display: table-cell; white-space: nowrap; line-height: 1.5; max-width: 200px; text-align: center;" xmlns="http://www.w3.org/1999/xhtml"><span style="color:#000 !important" class="nodeLabel"><p>Reel Controller</p></span></div></foreignObject></g></g><g class="node default proc" id="my-svg-flowchart-proc_serve_ui-8" data-look="classic" transform="translate(1480.585376739502, 363.16015625)"><circle class="basic label-container" style="fill:#cfe5ff !important;stroke:#2a70c2 !important" r="38.625" cx="0" cy="0"/><g class="label" style="color:#000 !important" transform="translate(-31.125, -12)"><rect/><foreignObject width="62.25" height="24"><div style="color: rgb(0, 0, 0) !important; display: table-cell; white-space: nowrap; line-height: 1.5; max-width: 200px; text-align: center;" xmlns="http://www.w3.org/1999/xhtml"><span style="color:#000 !important" class="nodeLabel"><p>Serve UI</p></span></div></foreignObject></g></g><g class="node default optional" id="my-svg-flowchart-proc_cloud_forward-9" data-look="classic" transform="translate(1201.375, 67.96875)"><circle class="basic label-container" style="fill:#e6f0ff !important;stroke:#888 !important;stroke-dasharray:3 3 !important" r="59.96875" cx="0" cy="0"/><g class="label" style="" transform="translate(-52.46875, -12)"><rect/><foreignObject width="104.9375" height="24"><div xmlns="http://www.w3.org/1999/xhtml" style="display: table-cell; white-space: nowrap; line-height: 1.5; max-width: 200px; text-align: center;"><span class="nodeLabel"><p>Cloud Forward</p></span></div></foreignObject></g></g><g class="node default store" id="my-svg-flowchart-store_system_state-10" data-look="classic" transform="translate(927.7734375, 286.05859375)"><path d="M0,11.710963455149502 a55.078125,11.710963455149502 0,0,0 110.15625,0 a55.078125,11.710963455149502 0,0,0 -110.15625,0 l0,50.7109634551495 a55.078125,11.710963455149502 0,0,0 110.15625,0 l0,-50.7109634551495" class="basic label-container outer-path" style="fill:#fff5cc !important;stroke:#b89800 !important" transform="translate(-55.078125, -37.06644518272425)"/><g class="label" style="" transform="translate(-47.578125, -2)"><rect/><foreignObject width="95.15625" height="24"><div xmlns="http://www.w3.org/1999/xhtml" style="display: table-cell; white-space: nowrap; line-height: 1.5; max-width: 200px; text-align: center;"><span class="nodeLabel"><p>System State</p></span></div></foreignObject></g></g><g class="node default" id="my-svg-flowchart-sys_root-22" data-look="classic" transform="translate(292.0859375, 340.2734375)"><rect class="basic label-container" style="" x="-60.234375" y="-27" width="120.46875" height="54"/><g class="label" style="" transform="translate(-30.234375, -12)"><rect/><foreignObject width="60.46875" height="24"><div xmlns="http://www.w3.org/1999/xhtml" style="display: table-cell; white-space: nowrap; line-height: 1.5; max-width: 200px; text-align: center;"><span class="nodeLabel"><p>sys_root</p></span></div></foreignObject></g></g></g></g></g><defs><filter id="my-svg-drop-shadow" height="130%" width="130%"><feDropShadow dx="4" dy="4" stdDeviation="0" flood-opacity="0.06" flood-color="#000000"/></filter></defs><defs><filter id="my-svg-drop-shadow-small" height="150%" width="150%"><feDropShadow dx="2" dy="2" stdDeviation="0" flood-opacity="0.06" flood-color="#000000"/></filter></defs></svg>