<svg id="my-svg" width="100%" xmlns="http://www.w3.org/2000/svg" xmlns:xlink="http://www.w3.org/1999/xlink" class="flowchart" style="max-width: 2495.25px; background-color: white;" viewBox="0 0 2495.248779296875 369.50390625" role="graphics-document document" aria-roledescription="flowchart-v2"><style>#my-svg{font-family:"trebuchet ms",verdana,arial,sans-serif;font-size:16px;fill:#333;}@keyframes edge-animation-frame{from{stroke-dashoffset:0;}}@keyframes dash{to{stroke-dashoffset:0;}}#my-svg .edge-animation-slow{stroke-dasharray:9,5!important;stroke-dashoffset:900;animation:dash 50s linear infinite;stroke-linecap:round;}#my-svg .edge-animation-fast{stroke-dasharray:9,5!important;stroke-dashoffset:900;animation:dash 20s linear infinite;stroke-linecap:round;}#my-svg .error-icon{fill:#552222;}#my-svg .error-text{fill:#552222;stroke:#552222;}#my-svg .edge-thickness-normal{stroke-width:1px;}#my-svg .edge-thickness-thick{stroke-width:3.5px;}#my-svg .edge-pattern-solid{stroke-dasharray:0;}#my-svg .edge-thickness-invisible{stroke-width:0;fill:none;}#my-svg .edge-pattern-dashed{stroke-dasharray:3;}#my-svg .edge-pattern-dotted{stroke-dasharray:2;}#my-svg .marker{fill:#333333;stroke:#333333;}#my-svg .marker.cross{stroke:#333333;}#my-svg svg{font-family:"trebuchet ms",verdana,arial,sans-serif;font-size:16px;}#my-svg p{margin:0;}#my-svg .label{font-family:"trebuchet ms",verdana,arial,sans-serif;color:#333;}#my-svg .cluster-label text{fill:#333;}#my-svg .cluster-label span{color:#333;}#my-svg .cluster-label span p{background-color:transparent;}#my-svg .label text,#my-svg span{fill:#333;color:#333;}#my-svg .node rect,#my-svg .node circle,#my-svg .node ellipse,#my-svg .node polygon,#my-svg .node path{fill:#ECECFF;stroke:#9370DB;stroke-width:1px;}#my-svg .rough-node .label text,#my-svg .node .label text,#my-svg .image-shape .label,#my-svg .icon-shape .label{text-anchor:middle;}#my-svg .node .katex path{fill:#000;stroke:#000;stroke-width:1px;}#my-svg .rough-node .label,#my-svg .node .label,#my-svg .image-shape .label,#my-svg .icon-shape .label{text-align:center;}#my-svg .node.clickable{cursor:pointer;}#my-svg .root .anchor path{fill:#333333!important;stroke-width:0;stroke:#333333;}#my-svg .arrowheadPath{fill:#333333;}#my-svg .edgePath .path{stroke:#333333;stroke-width:1px;}#my-svg .flowchart-link{stroke:#333333;fill:none;}#my-svg .edgeLabel{background-color:rgba(232,232,232, 0.8);text-align:center;}#my-svg .edgeLabel p{background-color:rgba(232,232,232, 0.8);}#my-svg .edgeLabel rect{opacity:0.5;background-color:rgba(232,232,232, 0.8);fill:rgba(232,232,232, 0.8);}#my-svg .labelBkg{background-color:rgba(232, 232, 232, 0.5);}#my-svg .cluster rect{fill:#ffffde;stroke:#aaaa33;stroke-width:1px;}#my-svg .cluster text{fill:#333;}#my-svg .cluster span{color:#333;}#my-svg div.mermaidTooltip{position:absolute;text-align:center;max-width:200px;padding:2px;font-family:"trebuchet ms",verdana,arial,sans-serif;font-size:12px;background:hsl(80, 100%, 96.2745098039%);border:1px solid #aaaa33;border-radius:2px;pointer-events:none;z-index:100;}#my-svg .flowchartTitleText{text-anchor:middle;font-size:18px;fill:#333;}#my-svg rect.text{fill:none;stroke-width:0;}#my-svg .icon-shape,#my-svg .image-shape{background-color:rgba(232,232,232, 0.8);text-align:center;}#my-svg .icon-shape p,#my-svg .image-shape p{background-color:rgba(232,232,232, 0.8);padding:2px;}#my-svg .icon-shape .label rect,#my-svg .image-shape .label rect{opacity:0.5;background-color:rgba(232,232,232, 0.8);fill:rgba(232,232,232, 0.8);}#my-svg .label-icon{display:inline-block;height:1em;overflow:visible;vertical-align:-0.125em;}#my-svg .node .label-icon path{fill:currentColor;stroke:revert;stroke-width:revert;}#my-svg .node .neo-node{stroke:#9370DB;}#my-svg [data-look="neo"].node rect,#my-svg [data-look="neo"].cluster rect,#my-svg [data-look="neo"].node polygon{stroke:#9370DB;filter:drop-shadow(1px 2px 2px rgba(185, 185, 185, 1));}#my-svg [data-look="neo"].node path{stroke:#9370DB;stroke-width:1px;}#my-svg [data-look="neo"].node .outer-path{filter:drop-shadow(1px 2px 2px rgba(185, 185, 185, 1));}#my-svg [data-look="neo"].node .neo-line path{stroke:#9370DB;filter:none;}#my-svg [data-look="neo"].node circle{stroke:#9370DB;filter:drop-shadow(1px 2px 2px rgba(185, 185, 185, 1));}#my-svg [data-look="neo"].node circle .state-start{fill:#000000;}#my-svg [data-look="neo"].icon-shape .icon{fill:#9370DB;filter:drop-shadow(1px 2px 2px rgba(185, 185, 185, 1));}#my-svg [data-look="neo"].icon-shape .icon-neo path{stroke:#9370DB;filter:drop-shadow(1px 2px 2px rgba(185, 185, 185, 1));}#my-svg :root{--mermaid-font-family:"trebuchet ms",verdana,arial,sans-serif;}#my-svg .proc&gt;*{fill:rgb(207, 229, 255)!important;stroke:rgb(42, 112, 194)!important;color:rgb(0, 0, 0)!important;}#my-svg .proc span{fill:rgb(207, 229, 255)!important;stroke:rgb(42, 112, 194)!important;color:rgb(0, 0, 0)!important;}#my-svg .proc tspan{fill:rgb(0, 0, 0)!important;}#my-svg .brain&gt;*{fill:rgb(127, 191, 245)!important;stroke:rgb(31, 90, 153)!important;color:rgb(0, 0, 0)!important;font-weight:bold!important;}#my-svg .brain span{fill:rgb(127, 191, 245)!important;stroke:rgb(31, 90, 153)!important;color:rgb(0, 0, 0)!important;font-weight:bold!important;}#my-svg .brain tspan{fill:rgb(0, 0, 0)!important;}#my-svg .optional&gt;*{fill:rgb(230, 240, 255)!important;stroke:rgb(136, 136, 136)!important;stroke-dasharray:3,3!important;}#my-svg .optional span{fill:rgb(230, 240, 255)!important;stroke:rgb(136, 136, 136)!important;stroke-dasharray:3,3!important;}#my-svg .terminator&gt;*{fill:rgb(250, 250, 250)!important;stroke:rgb(68, 68, 68)!important;}#my-svg .terminator span{fill:rgb(250, 250, 250)!important;stroke:rgb(68, 68, 68)!important;}#my-svg .store&gt;*{fill:rgb(255, 245, 204)!important;stroke:rgb(184, 152, 0)!important;}#my-svg .store span{fill:rgb(255, 245, 204)!important;stroke:rgb(184, 152, 0)!important;}#my-svg .grid&gt;*{fill:rgb(254, 240, 239)!important;stroke:rgb(231, 76, 60)!important;}#my-svg .grid span{fill:rgb(254, 240, 239)!important;stroke:rgb(231, 76, 60)!important;}#my-svg .termopt&gt;*{fill:rgb(250, 250, 250)!important;stroke:rgb(136, 136, 136)!important;stroke-dasharray:5,5!important;color:rgb(102, 102, 102)!important;}#my-svg .termopt span{fill:rgb(250, 250, 250)!important;stroke:rgb(136, 136, 136)!important;stroke-dasharray:5,5!important;color:rgb(102, 102, 102)!important;}#my-svg .termopt tspan{fill:rgb(102, 102, 102)!important;}</style><g><marker id="my-svg_flowchart-v2-pointEnd" class="marker flowchart-v2" viewBox="0 0 10 10" refX="5" refY="5" markerUnits="userSpaceOnUse" markerWidth="8" markerHeight="8" orient="auto"><path d="M 0 0 L 10 5 L 0 10 z" class="arrowMarkerPath" style="stroke-width: 1; stroke-dasharray: 1, 0;"/></marker><marker id="my-svg_flowchart-v2-pointStart" class="marker flowchart-v2" viewBox="0 0 10 10" refX="4.5" refY="5" markerUnits="userSpaceOnUse" markerWidth="8" markerHeight="8" orient="auto"><path d="M 0 5 L 10 10 L 10 0 z" class="arrowMarkerPath" style="stroke-width: 1; stroke-dasharray: 1, 0;"/></marker><marker id="my-svg_flowchart-v2-pointEnd-margin" class="marker flowchart-v2" viewBox="0 0 11.5 14" refX="11.5" refY="7" markerUnits="userSpaceOnUse" markerWidth="10.5" markerHeight="14" orient="auto"><path d="M 0 0 L 11.5 7 L 0 14 z" class="arrowMarkerPath" style="stroke-width: 0; stroke-dasharray: 1, 0;"/></marker><marker id="my-svg_flowchart-v2-pointStart-margin" class="marker flowchart-v2" viewBox="0 0 11.5 14" refX="1" refY="7" markerUnits="userSpaceOnUse" markerWidth="11.5" markerHeight="14" orient="auto"><polygon points="0,7 11.5,14 11.5,0" class="arrowMarkerPath" style="stroke-width: 0; stroke-dasharray: 1, 0;"/></marker><marker id="my-svg_flowchart-v2-circleEnd" class="marker flowchart-v2" viewBox="0 0 10 10" refX="11" refY="5" markerUnits="userSpaceOnUse" markerWidth="11" markerHeight="11" orient="auto"><circle cx="5" cy="5" r="5" class="arrowMarkerPath" style="stroke-width: 1; stroke-dasharray: 1, 0;"/></marker><marker id="my-svg_flowchart-v2-circleStart" class="marker flowchart-v2" viewBox="0 0 10 10" refX="-1" refY="5" markerUnits="userSpaceOnUse" markerWidth="11" markerHeight="11" orient="auto"><circle cx="5" cy="5" r="5" class="arrowMarkerPath" style="stroke-width: 1; stroke-dasharray: 1, 0;"/></marker><marker id="my-svg_flowchart-v2-circleEnd-margin" class="marker flowchart-v2" viewBox="0 0 10 10" refY="5" refX="12.25" markerUnits="userSpaceOnUse" markerWidth="14" markerHeight="14" orient="auto"><circle cx="5" cy="5" r="5" class="arrowMarkerPath" style="stroke-width: 0; stroke-dasharray: 1, 0;"/></marker><marker id="my-svg_flowchart-v2-circleStart-margin" class="marker flowchart-v2" viewBox="0 0 10 10" refX="-2" refY="5" markerUnits="userSpaceOnUse" markerWidth="14" markerHeight="14" orient="auto"><circle cx="5" cy="5" r="5" class="arrowMarkerPath" style="stroke-width: 0; stroke-dasharray: 1, 0;"/></marker><marker id="my-svg_flowchart-v2-crossEnd" class="marker cross flowchart-v2" viewBox="0 0 11 11" refX="12" refY="5.2" markerUnits="userSpaceOnUse" markerWidth="11" markerHeight="11" orient="auto"><path d="M 1,1 l 9,9 M 10,1 l -9,9" class="arrowMarkerPath" style="stroke-width: 2; stroke-dasharray: 1, 0;"/></marker><marker id="my-svg_flowchart-v2-crossStart" class="marker cross flowchart-v2" viewBox="0 0 11 11" refX="-1" refY="5.2" markerUnits="userSpaceOnUse" markerWidth="11" markerHeight="11" orient="auto"><path d="M 1,1 l 9,9 M 10,1 l -9,9" class="arrowMarkerPath" style="stroke-width: 2; stroke-dasharray: 1, 0;"/></marker><marker id="my-svg_flowchart-v2-crossEnd-margin" class="marker cross flowchart-v2" viewBox="0 0 15 15" refX="17.7" refY="7.5" markerUnits="userSpaceOnUse" markerWidth="12" markerHeight="12" orient="auto"><path d="M 1,1 L 14,14 M 1,14 L 14,1" class="arrowMarkerPath" style="stroke-width: 2.5;"/></marker><marker id="my-svg_flowchart-v2-crossStart-margin" class="marker cross flowchart-v2" viewBox="0 0 15 15" refX="-3.5" refY="7.5" markerUnits="userSpaceOnUse" markerWidth="12" markerHeight="12" orient="auto"><path d="M 1,1 L 14,14 M 1,14 L 14,1" class="arrowMarkerPath" style="stroke-width: 2.5; stroke-dasharray: 1, 0;"/></marker><g class="root"><g class="clusters"/><g class="edgePaths"><path d="M141.375,203.106L163.326,200.493C185.276,197.881,229.177,192.655,271.555,192.769C313.932,192.883,354.786,198.337,375.213,201.063L395.64,203.79" id="my-svg-L_term_angler_proc_serve_ui_0" class="edge-thickness-normal edge-pattern-solid edge-thickness-normal edge-pattern-solid flowchart-link" style=";" data-edge="true" data-et="edge" data-id="L_term_angler_proc_serve_ui_0" data-points="W3sieCI6MTQxLjM3NSwieSI6MjAzLjEwNjI0NTExMjY0Njl9LHsieCI6MjczLjA3ODEyNSwieSI6MTg3LjQyOTY4NzV9LHsieCI6Mzk5LjYwNTIwODU1ODcxMDMzLCJ5IjoyMDQuMzE5MTU3ODg3ODE0MTl9XQ==" data-look="classic" marker-end="url(#my-svg_flowchart-v2-pointEnd)"/><path d="M400.161,217.698L378.98,222.339C357.8,226.981,315.439,236.264,272.962,236.744C230.486,237.224,187.893,228.901,166.597,224.739L145.301,220.578" id="my-svg-L_proc_serve_ui_term_angler_0" class="edge-thickness-normal edge-pattern-solid edge-thickness-normal edge-pattern-solid flowchart-link" style=";" data-edge="true" data-et="edge" data-id="L_proc_serve_ui_term_angler_0" data-points="W3sieCI6NDAwLjE2MDk0NDcwMDQxMDk0LCJ5IjoyMTcuNjk3ODA5OTg4ODYwNDZ9LHsieCI6MjczLjA3ODEyNSwieSI6MjQ1LjU0Njg3NX0seyJ4IjoxNDEuMzc1LCJ5IjoyMTkuODEwODIxNzg4NjEyNzR9XQ==" data-look="classic" marker-end="url(#my-svg_flowchart-v2-pointEnd)"/><path d="M1351.75,129.313L1368.296,129.313C1384.841,129.313,1417.932,129.313,1450.357,129.313C1482.781,129.313,1514.539,129.313,1530.418,129.313L1546.297,129.313" id="my-svg-L_term_line_proc_acquire_tension_0" class="edge-thickness-normal edge-pattern-solid edge-thickness-normal edge-pattern-solid flowchart-link" style=";" data-edge="true" data-et="edge" data-id="L_term_line_proc_acquire_tension_0" data-points="W3sieCI6MTM1MS43NSwieSI6MTI5LjMxMjV9LHsieCI6MTQ1MS4wMjM0Mzc1LCJ5IjoxMjkuMzEyNX0seyJ4IjoxNTUwLjI5Njg3NSwieSI6MTI5LjMxMjV9XQ==" data-look="classic" marker-end="url(#my-svg_flowchart-v2-pointEnd)"/><path d="M1015.844,68.859L1031.572,68.859C1047.299,68.859,1078.755,68.859,1109.584,74.295C1140.412,79.73,1170.613,90.601,1185.714,96.036L1200.815,101.471" id="my-svg-L_proc_reel_controller_term_line_0" class="edge-thickness-normal edge-pattern-solid edge-thickness-normal edge-pattern-solid flowchart-link" style=";" data-edge="true" data-et="edge" data-id="L_proc_reel_controller_term_line_0" data-points="W3sieCI6MTAxNS44NDM3NSwieSI6NjguODU5Mzc1fSx7IngiOjExMTAuMjEwOTM3NSwieSI6NjguODU5Mzc1fSx7IngiOjEyMDQuNTc4MTI1LCJ5IjoxMDIuODI1OTQzODM3Nzk4ODZ9XQ==" data-look="classic" marker-end="url(#my-svg_flowchart-v2-pointEnd)"/><path d="M2218.844,241.215L2230.645,241.215C2242.445,241.215,2266.047,241.215,2289.065,241.294C2312.083,241.372,2334.518,241.529,2345.736,241.608L2356.953,241.687" id="my-svg-L_proc_cloud_forward_term_cloud_0" class="edge-thickness-normal edge-pattern-dotted edge-thickness-normal edge-pattern-solid flowchart-link" style=";" data-edge="true" data-et="edge" data-id="L_proc_cloud_forward_term_cloud_0" data-points="W3sieCI6MjIxOC44NDM3NSwieSI6MjQxLjIxNDg0Mzc1fSx7IngiOjIyODkuNjQ4NDM3NSwieSI6MjQxLjIxNDg0Mzc1fSx7IngiOjIzNjAuOTUzMTI1MDAwMDAwNSwieSI6MjQxLjcxNDg0Mzc0OTk5OTk3fV0=" data-look="classic" marker-end="url(#my-svg_flowchart-v2-pointEnd)"/><path d="M168.5,325.055L185.93,325.055C203.359,325.055,238.219,325.055,273.078,325.055C307.938,325.055,342.797,325.055,360.227,325.055L377.656,325.055" id="my-svg-L_term_power_sys_root_0" class="edge-thickness-normal edge-pattern-solid edge-thickness-normal edge-pattern-solid flowchart-link" style=";" data-edge="true" data-et="edge" data-id="L_term_power_sys_root_0" data-points="W3sieCI6MTY4LjUsInkiOjMyNS4wNTQ2ODc1fSx7IngiOjI3My4wNzgxMjUsInkiOjMyNS4wNTQ2ODc1fSx7IngiOjM3Ny42NTYyNSwieSI6MzI1LjA1NDY4NzV9XQ==" data-look="classic"/><path d="M1000.102,206.719L1018.453,206.719C1036.805,206.719,1073.508,206.719,1110.088,198.318C1146.667,189.917,1183.124,173.115,1201.352,164.714L1219.58,156.313" id="my-svg-L_term_fish_term_line_0" class="edge-thickness-normal edge-pattern-solid edge-thickness-normal edge-pattern-solid flowchart-link" style=";" data-edge="true" data-et="edge" data-id="L_term_fish_term_line_0" data-points="W3sieCI6MTAwMC4xMDE1NjI1LCJ5IjoyMDYuNzE4NzV9LHsieCI6MTExMC4yMTA5Mzc1LCJ5IjoyMDYuNzE4NzV9LHsieCI6MTIxOS41ODA0OTM2NjY3MzQsInkiOjE1Ni4zMTI1fV0=" data-look="classic"/><path d="M1678.859,129.313L1692.661,129.313C1706.464,129.313,1734.068,129.313,1762.736,142.209C1791.403,155.106,1821.135,180.9,1836.001,193.797L1850.866,206.694" id="my-svg-L_proc_acquire_tension_store_system_state_0" class="edge-thickness-normal edge-pattern-solid edge-thickness-normal edge-pattern-solid flowchart-link" style=";" data-edge="true" data-et="edge" data-id="L_proc_acquire_tension_store_system_state_0" data-points="W3sieCI6MTY3OC44NTkzNzUsInkiOjEyOS4zMTI1fSx7IngiOjE3NjEuNjcxODc1LCJ5IjoxMjkuMzEyNX0seyJ4IjoxODUzLjg4NzcxMzA0NTk3NTMsInkiOjIwOS4zMTQ3NTYwMDM3OTEwOH1d" data-look="classic" marker-end="url(#my-svg_flowchart-v2-pointEnd)"/><path d="M1844.484,259.647L1830.682,264.265C1816.88,268.884,1789.276,278.122,1750.958,282.741C1712.641,287.359,1663.609,287.359,1611.835,287.359C1560.06,287.359,1505.542,287.359,1449.473,287.359C1393.404,287.359,1335.784,287.359,1278.982,287.359C1222.18,287.359,1166.195,287.359,1112.332,287.359C1058.469,287.359,1006.727,287.359,960.247,287.359C913.768,287.359,872.552,287.359,838.418,270.905C804.283,254.45,777.23,221.54,763.704,205.086L750.178,188.631" id="my-svg-L_store_system_state_proc_bite_detector_0" class="edge-thickness-normal edge-pattern-solid edge-thickness-normal edge-pattern-solid flowchart-link" style=";" data-edge="true" data-et="edge" data-id="L_store_system_state_proc_bite_detector_0" data-points="W3sieCI6MTg0NC40ODQzNzUsInkiOjI1OS42NDY1MTIwMzk2NjAxfSx7IngiOjE3NjEuNjcxODc1LCJ5IjoyODcuMzU5Mzc1fSx7IngiOjE2MTQuNTc4MTI1LCJ5IjoyODcuMzU5Mzc1fSx7IngiOjE0NTEuMDIzNDM3NSwieSI6Mjg3LjM1OTM3NX0seyJ4IjoxMjc4LjE2NDA2MjUsInkiOjI4Ny4zNTkzNzV9LHsieCI6MTExMC4yMTA5Mzc1LCJ5IjoyODcuMzU5Mzc1fSx7IngiOjk1NC45ODQzNzUsInkiOjI4Ny4zNTkzNzV9LHsieCI6ODMxLjMzNTkzNzUsInkiOjI4Ny4zNTkzNzV9LHsieCI6NzQ3LjYzNzQ2MjQ4NTgxMzgsInkiOjE4NS41NDA3NTE5MzA1MzA0Nn1d" data-look="classic" marker-end="url(#my-svg_flowchart-v2-pointEnd)"/><path d="M1852.364,272.606L1837.248,285.423C1822.133,298.239,1791.902,323.871,1752.272,336.688C1712.641,349.504,1663.609,349.504,1611.835,349.504C1560.06,349.504,1505.542,349.504,1449.473,349.504C1393.404,349.504,1335.784,349.504,1278.982,349.504C1222.18,349.504,1166.195,349.504,1112.332,349.504C1058.469,349.504,1006.727,349.504,960.247,349.504C913.768,349.504,872.552,349.504,831.931,349.504C791.31,349.504,751.284,349.504,708.736,349.504C666.188,349.504,621.117,349.504,580.545,331.216C539.972,312.928,503.897,276.353,485.86,258.065L467.823,239.777" id="my-svg-L_store_system_state_proc_serve_ui_0" class="edge-thickness-normal edge-pattern-solid edge-thickness-normal edge-pattern-solid flowchart-link" style=";" data-edge="true" data-et="edge" data-id="L_store_system_state_proc_serve_ui_0" data-points="W3sieCI6MTg1Mi4zNjM2ODIzODY4NDI2LCJ5IjoyNzIuNjA2Mjg4NzIzMzczMX0seyJ4IjoxNzYxLjY3MTg3NSwieSI6MzQ5LjUwMzkwNjI1fSx7IngiOjE2MTQuNTc4MTI1LCJ5IjozNDkuNTAzOTA2MjV9LHsieCI6MTQ1MS4wMjM0Mzc1LCJ5IjozNDkuNTAzOTA2MjV9LHsieCI6MTI3OC4xNjQwNjI1LCJ5IjozNDkuNTAzOTA2MjV9LHsieCI6MTExMC4yMTA5Mzc1LCJ5IjozNDkuNTAzOTA2MjV9LHsieCI6OTU0Ljk4NDM3NSwieSI6MzQ5LjUwMzkwNjI1fSx7IngiOjgzMS4zMzU5Mzc1LCJ5IjozNDkuNTAzOTA2MjV9LHsieCI6NzExLjI1NzgxMjUsInkiOjM0OS41MDM5MDYyNX0seyJ4Ijo1NzYuMDQ2ODc1LCJ5IjozNDkuNTAzOTA2MjV9LHsieCI6NDY1LjAxMzcwNTk5NzQyMjE2LCJ5IjoyMzYuOTI5MzA3NTM3NTA3Mzh9XQ==" data-look="classic" marker-end="url(#my-svg_flowchart-v2-pointEnd)"/><path d="M1954.641,241.215L1966.663,241.215C1978.685,241.215,2002.729,241.215,2026.107,241.215C2049.484,241.215,2072.195,241.215,2083.551,241.215L2094.906,241.215" id="my-svg-L_store_system_state_proc_cloud_forward_0" class="edge-thickness-normal edge-pattern-dotted edge-thickness-normal edge-pattern-solid flowchart-link" style=";" data-edge="true" data-et="edge" data-id="L_store_system_state_proc_cloud_forward_0" data-points="W3sieCI6MTk1NC42NDA2MjUsInkiOjI0MS4yMTQ4NDM3NX0seyJ4IjoyMDI2Ljc3MzQzNzUsInkiOjI0MS4yMTQ4NDM3NX0seyJ4IjoyMDk4LjkwNjI1LCJ5IjoyNDEuMjE0ODQzNzV9XQ==" data-look="classic" marker-end="url(#my-svg_flowchart-v2-pointEnd)"/><path d="M760.314,111.696L772.151,104.557C783.988,97.417,807.662,83.138,829.297,75.999C850.932,68.859,870.529,68.859,880.327,68.859L890.125,68.859" id="my-svg-L_proc_bite_detector_proc_reel_controller_0" class="edge-thickness-normal edge-pattern-solid edge-thickness-normal edge-pattern-solid flowchart-link" style=";" data-edge="true" data-et="edge" data-id="L_proc_bite_detector_proc_reel_controller_0" data-points="W3sieCI6NzYwLjMxNDM1MzMwNDAyODgsInkiOjExMS42OTY0MzM5NjQ3ODUzM30seyJ4Ijo4MzEuMzM1OTM3NSwieSI6NjguODU5Mzc1fSx7IngiOjg5NC4xMjUsInkiOjY4Ljg1OTM3NX1d" data-look="classic" marker-end="url(#my-svg_flowchart-v2-pointEnd)"/><path d="M660.099,167.069L646.09,174.129C632.081,181.189,604.064,195.309,574.134,202.37C544.203,209.43,512.359,209.43,496.438,209.43L480.516,209.43" id="my-svg-L_proc_bite_detector_proc_serve_ui_0" class="edge-thickness-normal edge-pattern-solid edge-thickness-normal edge-pattern-solid flowchart-link" style=";" data-edge="true" data-et="edge" data-id="L_proc_bite_detector_proc_serve_ui_0" data-points="W3sieCI6NjYwLjA5ODc2MTk0NTk5MDIsInkiOjE2Ny4wNjg2NDM3NjcwMzY1fSx7IngiOjU3Ni4wNDY4NzUsInkiOjIwOS40Mjk2ODc1fSx7IngiOjQ3Ni41MTU2MjUsInkiOjIwOS40Mjk2ODc1fV0=" data-look="classic" marker-end="url(#my-svg_flowchart-v2-pointEnd)"/><path d="M471.304,190.053L488.761,179.93C506.218,169.806,541.133,149.559,570.95,140.53C600.767,131.501,625.487,133.69,637.847,134.785L650.208,135.879" id="my-svg-L_proc_serve_ui_proc_bite_detector_0" class="edge-thickness-normal edge-pattern-solid edge-thickness-normal edge-pattern-solid flowchart-link" style=";" data-edge="true" data-et="edge" data-id="L_proc_serve_ui_proc_bite_detector_0" data-points="W3sieCI6NDcxLjMwMzg2NTA0NzkxODQsInkiOjE5MC4wNTMyNTgxNDYyNjc2NH0seyJ4Ijo1NzYuMDQ2ODc1LCJ5IjoxMjkuMzEyNX0seyJ4Ijo2NTQuMTkyMDMyMzIwMjcwMiwieSI6MTM2LjIzMjA5NjMyNDgwMDA0fV0=" data-look="classic" marker-end="url(#my-svg_flowchart-v2-pointEnd)"/></g><g class="edgeLabels"><g class="edgeLabel" transform="translate(270.60385, 187.7242)"><g class="label" data-id="L_term_angler_proc_serve_ui_0" transform="translate(-79.578125, -12)"><foreignObject width="159.15625" height="24"><div xmlns="http://www.w3.org/1999/xhtml" class="labelBkg" style="display: table-cell; white-space: nowrap; line-height: 1.5; max-width: 200px; text-align: center;"><span class="edgeLabel"><p>F1: config, arm/disarm</p></span></div></foreignObject></g></g><g class="edgeLabel" transform="translate(273.078125, 245.546875)"><g class="label" data-id="L_proc_serve_ui_term_angler_0" transform="translate(-59.1328125, -12)"><foreignObject width="118.265625" height="24"><div xmlns="http://www.w3.org/1999/xhtml" class="labelBkg" style="display: table-cell; white-space: nowrap; line-height: 1.5; max-width: 200px; text-align: center;"><span class="edgeLabel"><p>F2: status, alerts</p></span></div></foreignObject></g></g><g class="edgeLabel" transform="translate(1451.0234375, 129.3125)"><g class="label" data-id="L_term_line_proc_acquire_tension_0" transform="translate(-74.2734375, -12)"><foreignObject width="148.546875" height="24"><div xmlns="http://www.w3.org/1999/xhtml" class="labelBkg" style="display: table-cell; white-space: nowrap; line-height: 1.5; max-width: 200px; text-align: center;"><span class="edgeLabel"><p>F3: tension feedback</p></span></div></foreignObject></g></g><g class="edgeLabel" transform="translate(1110.2109375, 68.859375)"><g class="label" data-id="L_proc_reel_controller_term_line_0" transform="translate(-69.3671875, -12)"><foreignObject width="138.734375" height="24"><div xmlns="http://www.w3.org/1999/xhtml" class="labelBkg" style="display: table-cell; white-space: nowrap; line-height: 1.5; max-width: 200px; text-align: center;"><span class="edgeLabel"><p>F4: reel torque cmd</p></span></div></foreignObject></g></g><g class="edgeLabel" transform="translate(2289.6484375, 241.21484375)"><g class="label" data-id="L_proc_cloud_forward_term_cloud_0" transform="translate(-45.8046875, -12)"><foreignObject width="91.609375" height="24"><div xmlns="http://www.w3.org/1999/xhtml" class="labelBkg" style="display: table-cell; white-space: nowrap; line-height: 1.5; max-width: 200px; text-align: center;"><span class="edgeLabel"><p>F6: catch log</p></span></div></foreignObject></g></g><g class="edgeLabel"><g class="label" data-id="L_term_power_sys_root_0" transform="translate(0, 0)"><foreignObject width="0" height="0"><div xmlns="http://www.w3.org/1999/xhtml" class="labelBkg" style="display: table-cell; white-space: nowrap; line-height: 1.5; max-width: 200px; text-align: center;"><span class="edgeLabel"></span></div></foreignObject></g></g><g class="edgeLabel"><g class="label" data-id="L_term_fish_term_line_0" transform="translate(0, 0)"><foreignObject width="0" height="0"><div xmlns="http://www.w3.org/1999/xhtml" class="labelBkg" style="display: table-cell; white-space: nowrap; line-height: 1.5; max-width: 200px; text-align: center;"><span class="edgeLabel"></span></div></foreignObject></g></g><g class="edgeLabel" transform="translate(1761.671875, 129.3125)"><g class="label" data-id="L_proc_acquire_tension_store_system_state_0" transform="translate(-57.8125, -12)"><foreignObject width="115.625" height="24"><div xmlns="http://www.w3.org/1999/xhtml" class="labelBkg" style="display: table-cell; white-space: nowrap; line-height: 1.5; max-width: 200px; text-align: center;"><span class="edgeLabel"><p>tension samples</p></span></div></foreignObject></g></g><g class="edgeLabel" transform="translate(1278.1640625, 287.359375)"><g class="label" data-id="L_store_system_state_proc_bite_detector_0" transform="translate(-47.1328125, -12)"><foreignObject width="94.265625" height="24"><div xmlns="http://www.w3.org/1999/xhtml" class="labelBkg" style="display: table-cell; white-space: nowrap; line-height: 1.5; max-width: 200px; text-align: center;"><span class="edgeLabel"><p>system_state</p></span></div></foreignObject></g></g><g class="edgeLabel" transform="translate(1110.2109375, 349.50390625)"><g class="label" data-id="L_store_system_state_proc_serve_ui_0" transform="translate(-47.1328125, -12)"><foreignObject width="94.265625" height="24"><div xmlns="http://www.w3.org/1999/xhtml" class="labelBkg" style="display: table-cell; white-space: nowrap; line-height: 1.5; max-width: 200px; text-align: center;"><span class="edgeLabel"><p>system_state</p></span></div></foreignObject></g></g><g class="edgeLabel" transform="translate(2026.7734375, 241.21484375)"><g class="label" data-id="L_store_system_state_proc_cloud_forward_0" transform="translate(-47.1328125, -12)"><foreignObject width="94.265625" height="24"><div xmlns="http://www.w3.org/1999/xhtml" class="labelBkg" style="display: table-cell; white-space: nowrap; line-height: 1.5; max-width: 200px; text-align: center;"><span class="edgeLabel"><p>system_state</p></span></div></foreignObject></g></g><g class="edgeLabel" transform="translate(831.3359375, 68.859375)"><g class="label" data-id="L_proc_bite_detector_proc_reel_controller_0" transform="translate(-37.7890625, -12)"><foreignObject width="75.578125" height="24"><div xmlns="http://www.w3.org/1999/xhtml" class="labelBkg" style="display: table-cell; white-space: nowrap; line-height: 1.5; max-width: 200px; text-align: center;"><span class="edgeLabel"><p>motor cmd</p></span></div></foreignObject></g></g><g class="edgeLabel" transform="translate(576.046875, 209.4296875)"><g class="label" data-id="L_proc_bite_detector_proc_serve_ui_0" transform="translate(-39.5859375, -12)"><foreignObject width="79.171875" height="24"><div xmlns="http://www.w3.org/1999/xhtml" class="labelBkg" style="display: table-cell; white-space: nowrap; line-height: 1.5; max-width: 200px; text-align: center;"><span class="edgeLabel"><p>event_alert</p></span></div></foreignObject></g></g><g class="edgeLabel" transform="translate(557.60805, 140.00523)"><g class="label" data-id="L_proc_serve_ui_proc_bite_detector_0" transform="translate(-52.921875, -12)"><foreignObject width="105.84375" height="24"><div xmlns="http://www.w3.org/1999/xhtml" class="labelBkg" style="display: table-cell; white-space: nowrap; line-height: 1.5; max-width: 200px; text-align: center;"><span class="edgeLabel"><p>event_override</p></span></div></foreignObject></g></g></g><g class="nodes"><g class="node default terminator" id="my-svg-flowchart-term_angler-0" data-look="classic" transform="translate(88.25, 209.4296875)"><rect class="basic label-container" style="fill:#fafafa !important;stroke:#444 !important" x="-53.125" y="-27" width="106.25" height="54"/><g class="label" style="" transform="translate(-23.125, -12)"><rect/><foreignObject width="46.25" height="24"><div xmlns="http://www.w3.org/1999/xhtml" style="display: table-cell; white-space: nowrap; line-height: 1.5; max-width: 200px; text-align: center;"><span class="nodeLabel"><p>Angler</p></span></div></foreignObject></g></g><g class="node default termopt" id="my-svg-flowchart-term_cloud-1" data-look="classic" transform="translate(2423.851001739502, 241.21484375)"><g class="basic label-container outer-path"><path d="M-31.9140625 -31.5 C-10.159489604396192 -31.5, 11.595083291207615 -31.5, 31.9140625 -31.5 C31.9140625 -31.5, 31.914062499999996 -31.5, 31.914062499999996 -31.5 C32.63072456214656 -31.47701804256504, 33.34738662429312 -31.45403608513008, 33.93227442939246 -31.435279871635593 C34.58484791855752 -31.372326891970285, 35.237421407722586 -31.309373912304977, 35.94219309306194 -31.241385435432253 C36.707891278218604 -31.117593290934234, 37.47358946337527 -30.99380114643622, 37.935559304093225 -30.91911344521856 C38.59834155329316 -30.76783772189705, 39.2611238024931 -30.616561998575534, 39.90418189314948 -30.469788185729428 C40.502853389177716 -30.292105628199057, 41.10152488520595 -30.114423070668686, 41.83997136774405 -29.895256030836062 C42.40328454001062 -29.687951576232084, 42.966597712277185 -29.480647121628103, 43.73497315370028 -29.197877856399685 C44.363648755183256 -28.91958181662229, 44.992324356666224 -28.6412857768449, 45.58140028220308 -28.380519338926202 C46.19077231635826 -28.062610339028858, 46.800144350513456 -27.744701339131513, 47.371665388124036 -27.44653917988677 C48.029489835579035 -27.047762134034, 48.68731428303403 -26.648985088181227, 49.098411888132276 -26.399775304092984 C49.61302448069755 -26.04080383673954, 50.12763707326282 -25.68183236938609, 50.7545442104733 -25.244529088840633 C51.33602927864331 -24.78081022094258, 51.91751434681332 -24.31709135304453, 52.33325695219533 -23.985547688627737 C52.64121877044901 -23.705864913512947, 52.94918058870269 -23.42618213839816, 53.82806284400982 -22.62800452807842 C54.263346642858544 -22.178538268302606, 54.69863044170726 -21.729072008526792, 55.232819407872434 -21.177478043231485 C55.75018880821549 -20.569746506435678, 56.26755820855855 -19.962014969639874, 56.54175419774294 -19.63992875855011 C56.816051582517034 -19.272395251958653, 57.09034896729112 -18.904861745367192, 57.7494885198041 -18.02167479384835 C58.033453603451164 -17.585428170064763, 58.31741868709822 -17.149181546281174, 58.8510595346684 -16.329365901781543 C59.05783319205753 -15.962218334983886, 59.26460684944666 -15.595070768186229, 59.84194065074951 -14.56995614258631 C60.189952922657575 -13.847301213699454, 60.53796519456564 -13.124646284812599, 60.71806012499809 -12.750675308355413 C60.910794600824694 -12.274617426796103, 61.1035290766513 -11.798559545236795, 61.47581779456745 -10.878999214271206 C61.70988927984554 -10.174013194840112, 61.943960765123634 -9.46902717540902, 62.11209987065481 -8.962618978877531 C62.27076427273947 -8.357562848141862, 62.42942867482413 -7.752506717406194, 62.624291733727446 -7.009409419623907 C62.709310237498215 -6.572857371428144, 62.794328741268984 -6.136305323232381, 63.01028867755518 -5.027396693551458 C63.09346258151996 -4.382316318945732, 63.176636485484735 -3.737235944340008, 63.268504557899746 -3.024725316091981 C63.31127202865762 -2.3585874377570857, 63.35403949941549 -1.6924495594221902, 63.39787831032167 -1.0096246935071378 C63.39787831032167 -0.3586282007865522, 63.39787831032167 0.29236829193403335, 63.39787831032167 1.00962469350713 C63.3485705736587 1.777632492521593, 63.29926283699572 2.5456402915360554, 63.268504557899746 3.02472531609196 C63.2050922426372 3.516538711090262, 63.14167992737465 4.008352106088564, 63.01028867755518 5.027396693551435 C62.86801145124495 5.757960180352037, 62.725734224934726 6.48852366715264, 62.624291733727446 7.0094094196239 C62.48208355873388 7.551710824287281, 62.33987538374031 8.094012228950662, 62.112099870654816 8.96261897887751 C61.87908360900128 9.664426832878494, 61.64606734734774 10.366234686879478, 61.475817794567455 10.878999214271184 C61.24291367477225 11.454276893060182, 61.01000955497703 12.02955457184918, 60.71806012499809 12.750675308355405 C60.512308277179876 13.177923422734228, 60.306556429361656 13.605171537113053, 59.84194065074951 14.569956142586303 C59.6101073956667 14.981599562648514, 59.3782741405839 15.393242982710722, 58.85105953466841 16.329365901781536 C58.60507821555786 16.707259263168126, 58.35909689644731 17.085152624554713, 57.74948851980412 18.021674793848334 C57.46672616251647 18.4005505924331, 57.18396380522882 18.77942639101786, 56.54175419774295 19.639928758550102 C56.19918430979414 20.042330841713596, 55.856614421845336 20.444732924877094, 55.23281940787245 21.177478043231467 C54.801993836043145 21.62234081758249, 54.37116826421384 22.06720359193351, 53.82806284400983 22.628004528078414 C53.38123510554079 23.033801657741886, 52.93440736707174 23.43959878740536, 52.333256952195356 23.985547688627715 C51.93471534124445 24.303374017723392, 51.536173730293534 24.621200346819066, 50.75454421047331 25.24452908884063 C50.28276209889593 25.573623866758567, 49.81097998731854 25.902718644676504, 49.0984118881323 26.399775304092973 C48.49093128921835 26.768033613106866, 47.88345069030441 27.13629192212076, 47.37166538812404 27.446539179886766 C46.686908797756146 27.803776254474165, 46.00215220738826 28.161013329061568, 45.581400282203084 28.3805193389262 C45.12000103932899 28.58476709682432, 44.658601796454896 28.78901485472244, 43.734973153700295 29.197877856399682 C43.042095255489336 29.452863327834393, 42.34921735727838 29.707848799269108, 41.83997136774407 29.895256030836055 C41.235495990414144 30.074661149871574, 40.631020613084225 30.254066268907092, 39.90418189314951 30.46978818572942 C39.15108687423968 30.641677209391318, 38.39799185532985 30.813566233053212, 37.93555930409324 30.919113445218557 C37.41846565633745 31.002713136066582, 36.90137200858167 31.086312826914607, 35.94219309306196 31.24138543543225 C35.39694336609849 31.293985020833677, 34.85169363913503 31.346584606235105, 33.93227442939246 31.435279871635593 C33.24495869856124 31.45732074934444, 32.557642967730025 31.479361627053283, 31.914062500000007 31.5 C31.914062500000004 31.5, 31.914062500000004 31.5, 31.9140625 31.5 C16.125044108878356 31.5, 0.3360257177567121 31.5, -31.914062499999993 31.5 C-32.530785075262294 31.48022290738901, -33.147507650524595 31.460445814778016, -33.93227442939244 31.435279871635593 C-34.53795451975112 31.376850641755574, -35.1436346101098 31.318421411875555, -35.942193093061945 31.24138543543225 C-36.54764645508934 31.14350043122061, -37.15309981711674 31.045615427008965, -37.935559304093225 30.919113445218557 C-38.418826314133106 30.808810903788913, -38.90209332417299 30.698508362359274, -39.90418189314947 30.469788185729428 C-40.47745146431313 30.29964478616144, -41.05072103547678 30.129501386593454, -41.839971367744035 29.89525603083607 C-42.53320887822304 29.640138218762495, -43.22644638870205 29.38502040668892, -43.73497315370029 29.197877856399685 C-44.36819192165211 28.917570691594776, -45.001410689603944 28.637263526789866, -45.58140028220308 28.380519338926206 C-46.156326574952374 28.080580660256764, -46.73125286770166 27.780641981587323, -47.37166538812403 27.446539179886773 C-47.871355883060154 27.1436238653492, -48.37104637799629 26.84070855081162, -49.09841188813226 26.399775304092994 C-49.646956716121416 26.017134178210643, -50.19550154411057 25.634493052328292, -50.7545442104733 25.244529088840636 C-51.21239585457936 24.879404586609994, -51.67024749868543 24.51428008437935, -52.33325695219533 23.98554768862774 C-52.69254443854085 23.6592522997547, -53.05183192488637 23.33295691088166, -53.82806284400981 22.628004528078435 C-54.204827928141896 22.238963645723366, -54.58159301227399 21.8499227633683, -55.23281940787244 21.177478043231478 C-55.71250377558894 20.61401349009793, -56.19218814330544 20.050548936964375, -56.54175419774293 19.639928758550113 C-56.97455258272674 19.060018351415813, -57.40735096771054 18.480107944281514, -57.7494885198041 18.021674793848355 C-58.03913090459735 17.576706310935403, -58.3287732893906 17.13173782802245, -58.851059534668394 16.329365901781557 C-59.128243564039614 15.837197589706404, -59.40542759341083 15.345029277631252, -59.8419406507495 14.569956142586314 C-60.130541413411976 13.970670483850595, -60.419142176074445 13.371384825114877, -60.71806012499809 12.750675308355417 C-60.97836413708676 12.107719365860708, -61.23866814917542 11.464763423366, -61.47581779456745 10.878999214271209 C-61.66078514918908 10.321907012696634, -61.84575250381071 9.764814811122061, -62.11209987065481 8.962618978877522 C-62.22034949387361 8.549816249860754, -62.32859911709241 8.137013520843984, -62.62429173372744 7.009409419623911 C-62.775248696090145 6.234277322656709, -62.92620565845286 5.4591452256895066, -63.01028867755518 5.027396693551461 C-63.0775528283275 4.505709222970337, -63.144816979099815 3.984021752389213, -63.268504557899746 3.024725316091999 C-63.31773365816763 2.257942342405124, -63.36696275843552 1.4911593687182492, -63.39787831032167 1.0096246935071416 C-63.39787831032167 0.4094145031532651, -63.39787831032167 -0.19079568720061135, -63.39787831032167 -1.0096246935071262 C-63.361326498694666 -1.5789486636890357, -63.32477468706766 -2.1482726338709455, -63.268504557899746 -3.024725316091956 C-63.170963590853596 -3.7812337948593377, -63.073422623807446 -4.53774227362672, -63.01028867755518 -5.027396693551446 C-62.92530075048013 -5.463791736877068, -62.840312823405085 -5.9001867802026915, -62.624291733727446 -7.009409419623896 C-62.49329331741143 -7.508963156109656, -62.3622949010954 -8.008516892595416, -62.112099870654816 -8.962618978877506 C-61.867951526697944 -9.697954891119682, -61.62380318274108 -10.43329080336186, -61.47581779456746 -10.878999214271168 C-61.24361261328115 -11.452550501430116, -61.01140743199485 -12.026101788589063, -60.71806012499809 -12.750675308355401 C-60.467976521072934 -13.269979262837904, -60.217892917147786 -13.789283217320406, -59.84194065074951 -14.5699561425863 C-59.46910611157642 -15.231961620479058, -59.096271572403346 -15.893967098371817, -58.8510595346684 -16.329365901781546 C-58.43623853315388 -16.966642355143527, -58.021417531639365 -17.60391880850551, -57.74948851980411 -18.021674793848344 C-57.50494658198548 -18.349338712296472, -57.26040464416684 -18.677002630744603, -56.54175419774295 -19.639928758550102 C-56.275830029366986 -19.952298418238342, -56.009905860991026 -20.264668077926583, -55.232819407872455 -21.177478043231467 C-54.79918112027999 -21.625245177536208, -54.36554283268753 -22.07301231184095, -53.828062844009835 -22.628004528078403 C-53.32481941440842 -23.08503689575091, -52.82157598480699 -23.54206926342342, -52.333256952195356 -23.98554768862771 C-51.98612112162301 -24.262379275836754, -51.63898529105065 -24.539210863045795, -50.75454421047331 -25.244529088840626 C-50.27908353119224 -25.57618987634602, -49.80362285191118 -25.90785066385142, -49.098411888132304 -26.39977530409297 C-48.727429276561196 -26.62466714336319, -48.35644666499009 -26.849558982633415, -47.37166538812404 -27.446539179886763 C-46.658609509478666 -27.81853997504197, -45.94555363083329 -28.190540770197174, -45.58140028220309 -28.3805193389262 C-44.9701059719653 -28.651121196667034, -44.35881166172751 -28.921723054407874, -43.7349731537003 -29.19787785639968 C-43.245504169419775 -29.378006967216606, -42.75603518513924 -29.558136078033534, -41.83997136774408 -29.895256030836055 C-41.41453014954839 -30.02152475121001, -40.989088931352704 -30.147793471583963, -39.90418189314951 -30.469788185729417 C-39.426073149803564 -30.578913386447006, -38.94796440645762 -30.68803858716459, -37.93555930409324 -30.919113445218553 C-37.389099629940546 -31.007460807477496, -36.84263995578785 -31.09580816973644, -35.94219309306196 -31.24138543543225 C-35.40450853375781 -31.293255218208028, -34.866823974453666 -31.345125000983806, -33.93227442939246 -31.435279871635593 C-33.23613124060685 -31.457603828739433, -32.539988051821254 -31.47992778584327, -31.91406250000001 -31.5 C-31.914062500000007 -31.5, -31.914062500000004 -31.5, -31.9140625 -31.5" stroke="none" stroke-width="0" fill="#fafafa" style="fill:#fafafa !important;stroke:#888 !important;stroke-dasharray:5 5 !important"/><path d="M-31.9140625 -31.5 C-17.358185295380828 -31.5, -2.802308090761656 -31.5, 31.9140625 -31.5 M-31.9140625 -31.5 C-9.606700342447375 -31.5, 12.70066181510525 -31.5, 31.9140625 -31.5 M31.9140625 -31.5 C31.9140625 -31.5, 31.914062499999996 -31.5, 31.914062499999996 -31.5 M31.9140625 -31.5 C31.9140625 -31.5, 31.9140625 -31.5, 31.914062499999996 -31.5 M31.914062499999996 -31.5 C32.683692204123226 -31.475319473382108, 33.45332190824646 -31.45063894676422, 33.93227442939246 -31.435279871635593 M31.914062499999996 -31.5 C32.555560770258 -31.47942839907346, 33.197059040516 -31.458856798146922, 33.93227442939246 -31.435279871635593 M33.93227442939246 -31.435279871635593 C34.605523464538436 -31.37033234691549, 35.27877249968441 -31.305384822195386, 35.94219309306194 -31.241385435432253 M33.93227442939246 -31.435279871635593 C34.676289250848264 -31.36350565661849, 35.42030407230408 -31.291731441601385, 35.94219309306194 -31.241385435432253 M35.94219309306194 -31.241385435432253 C36.57657940496368 -31.138822776263307, 37.21096571686542 -31.036260117094358, 37.935559304093225 -30.91911344521856 M35.94219309306194 -31.241385435432253 C36.444022757828854 -31.160253506979913, 36.94585242259576 -31.079121578527573, 37.935559304093225 -30.91911344521856 M37.935559304093225 -30.91911344521856 C38.5893262770328 -30.7698953998733, 39.243093249972375 -30.62067735452804, 39.90418189314948 -30.469788185729428 M37.935559304093225 -30.91911344521856 C38.57093555569492 -30.774092962007998, 39.20631180729662 -30.629072478797436, 39.90418189314948 -30.469788185729428 M39.90418189314948 -30.469788185729428 C40.572779810368594 -30.271351833440878, 41.241377727587704 -30.07291548115233, 41.83997136774405 -29.895256030836062 M39.90418189314948 -30.469788185729428 C40.3993327957316 -30.322829996943177, 40.894483698313735 -30.175871808156927, 41.83997136774405 -29.895256030836062 M41.83997136774405 -29.895256030836062 C42.308792293118856 -29.722725596565006, 42.77761321849366 -29.55019516229395, 43.73497315370028 -29.197877856399685 M41.83997136774405 -29.895256030836062 C42.25527413125788 -29.742420774846313, 42.670576894771706 -29.58958551885656, 43.73497315370028 -29.197877856399685 M43.73497315370028 -29.197877856399685 C44.27739619627819 -28.957763265858308, 44.819819238856105 -28.717648675316934, 45.58140028220308 -28.380519338926202 M43.73497315370028 -29.197877856399685 C44.12588178409784 -29.024834201615203, 44.51679041449541 -28.85179054683072, 45.58140028220308 -28.380519338926202 M45.58140028220308 -28.380519338926202 C46.237098960239656 -28.03844175858957, 46.89279763827623 -27.69636417825294, 47.371665388124036 -27.44653917988677 M45.58140028220308 -28.380519338926202 C46.03998163681042 -28.14127773996293, 46.49856299141776 -27.90203614099966, 47.371665388124036 -27.44653917988677 M47.371665388124036 -27.44653917988677 C48.05757972867796 -27.030733875762895, 48.74349406923188 -26.614928571639023, 49.098411888132276 -26.399775304092984 M47.371665388124036 -27.44653917988677 C48.05831931096475 -27.030285536634377, 48.74497323380546 -26.61403189338198, 49.098411888132276 -26.399775304092984 M49.098411888132276 -26.399775304092984 C49.64730936382534 -26.01688818643826, 50.19620683951841 -25.63400106878353, 50.7545442104733 -25.244529088840633 M49.098411888132276 -26.399775304092984 C49.50744886128793 -26.11444881854478, 49.91648583444359 -25.829122332996576, 50.7545442104733 -25.244529088840633 M50.7545442104733 -25.244529088840633 C51.307870833586385 -24.803265831547783, 51.86119745669947 -24.362002574254934, 52.33325695219533 -23.985547688627737 M50.7545442104733 -25.244529088840633 C51.074689953512944 -24.98922137820253, 51.3948356965526 -24.733913667564426, 52.33325695219533 -23.985547688627737 M52.33325695219533 -23.985547688627737 C52.82889661756706 -23.53542085844406, 53.32453628293879 -23.08529402826038, 53.82806284400982 -22.62800452807842 M52.33325695219533 -23.985547688627737 C52.7099742787743 -23.64342298002298, 53.08669160535327 -23.301298271418226, 53.82806284400982 -22.62800452807842 M53.82806284400982 -22.62800452807842 C54.29856310037608 -22.142174384590813, 54.769063356742336 -21.656344241103206, 55.232819407872434 -21.177478043231485 M53.82806284400982 -22.62800452807842 C54.29944102640242 -22.14126785388955, 54.77081920879502 -21.654531179700676, 55.232819407872434 -21.177478043231485 M55.232819407872434 -21.177478043231485 C55.64967227314262 -20.687818948085148, 56.0665251384128 -20.198159852938808, 56.54175419774294 -19.63992875855011 M55.232819407872434 -21.177478043231485 C55.63663520915509 -20.70313302527486, 56.040451010437735 -20.228788007318233, 56.54175419774294 -19.63992875855011 M56.54175419774294 -19.63992875855011 C56.89065379021113 -19.17243509004949, 57.239553382679325 -18.70494142154887, 57.7494885198041 -18.02167479384835 M56.54175419774294 -19.63992875855011 C56.894321791521875 -19.167520302454893, 57.246889385300804 -18.695111846359676, 57.7494885198041 -18.02167479384835 M57.7494885198041 -18.02167479384835 C57.991702980347796 -17.649568338763608, 58.23391744089149 -17.277461883678864, 58.8510595346684 -16.329365901781543 M57.7494885198041 -18.02167479384835 C58.033258545163505 -17.58572783197508, 58.317028570522915 -17.14978087010181, 58.8510595346684 -16.329365901781543 M58.8510595346684 -16.329365901781543 C59.23101602108642 -15.654714685380046, 59.610972507504435 -14.980063468978551, 59.84194065074951 -14.56995614258631 M58.8510595346684 -16.329365901781543 C59.069822187720156 -15.940930659167435, 59.28858484077192 -15.552495416553327, 59.84194065074951 -14.56995614258631 M59.84194065074951 -14.56995614258631 C60.04981752059982 -14.138295374489662, 60.25769439045012 -13.706634606393015, 60.71806012499809 -12.750675308355413 M59.84194065074951 -14.56995614258631 C60.10452187707798 -14.02470060777704, 60.36710310340644 -13.479445072967769, 60.71806012499809 -12.750675308355413 M60.71806012499809 -12.750675308355413 C61.01413111517002 -12.01937423848757, 61.31020210534194 -11.288073168619727, 61.47581779456745 -10.878999214271206 M60.71806012499809 -12.750675308355413 C60.8710713623424 -12.372734593843939, 61.024082599686714 -11.994793879332462, 61.47581779456745 -10.878999214271206 M61.47581779456745 -10.878999214271206 C61.67254539902916 -10.28648701391966, 61.869273003490875 -9.693974813568111, 62.11209987065481 -8.962618978877531 M61.47581779456745 -10.878999214271206 C61.609752845447325 -10.4756081806734, 61.743687896327195 -10.072217147075591, 62.11209987065481 -8.962618978877531 M62.11209987065481 -8.962618978877531 C62.271720286129 -8.353917154748745, 62.431340701603204 -7.74521533061996, 62.624291733727446 -7.009409419623907 M62.11209987065481 -8.962618978877531 C62.24175933030467 -8.468171264467347, 62.371418789954525 -7.973723550057165, 62.624291733727446 -7.009409419623907 M62.624291733727446 -7.009409419623907 C62.77627928812643 -6.228985450366103, 62.928266842525424 -5.4485614811083, 63.01028867755518 -5.027396693551458 M62.624291733727446 -7.009409419623907 C62.724504800553994 -6.494836501508763, 62.82471786738054 -5.980263583393618, 63.01028867755518 -5.027396693551458 M63.01028867755518 -5.027396693551458 C63.100566053222785 -4.327223195157766, 63.19084342889038 -3.627049696764076, 63.268504557899746 -3.024725316091981 M63.01028867755518 -5.027396693551458 C63.09800775387267 -4.347064859723852, 63.18572683019017 -3.666733025896245, 63.268504557899746 -3.024725316091981 M63.268504557899746 -3.024725316091981 C63.29994235597952 -2.535056234865653, 63.33138015405929 -2.045387153639325, 63.39787831032167 -1.0096246935071378 M63.268504557899746 -3.024725316091981 C63.30105165808325 -2.5177779591874545, 63.33359875826676 -2.0108306022829274, 63.39787831032167 -1.0096246935071378 M63.39787831032167 -1.0096246935071378 C63.39787831032167 -0.5710596441373608, 63.39787831032167 -0.13249459476758374, 63.39787831032167 1.00962469350713 M63.39787831032167 -1.0096246935071378 C63.39787831032167 -0.423443585170982, 63.39787831032167 0.16273752316517376, 63.39787831032167 1.00962469350713 M63.39787831032167 1.00962469350713 C63.3499226511283 1.7565727945551903, 63.30196699193494 2.503520895603251, 63.268504557899746 3.02472531609196 M63.39787831032167 1.00962469350713 C63.356811919144356 1.6492668842881493, 63.31574552796704 2.288909075069168, 63.268504557899746 3.02472531609196 M63.268504557899746 3.02472531609196 C63.17228923295826 3.770952376473184, 63.076073908016774 4.517179436854408, 63.01028867755518 5.027396693551435 M63.268504557899746 3.02472531609196 C63.19825513838701 3.5695659415158065, 63.12800571887427 4.114406566939653, 63.01028867755518 5.027396693551435 M63.01028867755518 5.027396693551435 C62.90948222520689 5.545016520908671, 62.8086757728586 6.062636348265906, 62.624291733727446 7.0094094196239 M63.01028867755518 5.027396693551435 C62.89028441822635 5.643593202295786, 62.77028015889752 6.259789711040138, 62.624291733727446 7.0094094196239 M62.624291733727446 7.0094094196239 C62.4901762805256 7.52084976868764, 62.35606082732376 8.03229011775138, 62.112099870654816 8.96261897887751 M62.624291733727446 7.0094094196239 C62.468455172930156 7.6036817659366625, 62.312618612132866 8.197954112249425, 62.112099870654816 8.96261897887751 M62.112099870654816 8.96261897887751 C61.9787336961978 9.36429664732782, 61.84536752174078 9.765974315778127, 61.475817794567455 10.878999214271184 M62.112099870654816 8.96261897887751 C61.91825987451355 9.546434163045774, 61.72441987837228 10.13024934721404, 61.475817794567455 10.878999214271184 M61.475817794567455 10.878999214271184 C61.22646305300808 11.494910246868793, 60.97710831144871 12.110821279466402, 60.71806012499809 12.750675308355405 M61.475817794567455 10.878999214271184 C61.26327497612204 11.403984085067199, 61.05073215767663 11.928968955863215, 60.71806012499809 12.750675308355405 M60.71806012499809 12.750675308355405 C60.506016245175395 13.19098896181944, 60.29397236535271 13.631302615283474, 59.84194065074951 14.569956142586303 M60.71806012499809 12.750675308355405 C60.42106502438089 13.367391989464188, 60.12406992376368 13.984108670572972, 59.84194065074951 14.569956142586303 M59.84194065074951 14.569956142586303 C59.46224431935713 15.244145427396226, 59.08254798796475 15.91833471220615, 58.85105953466841 16.329365901781536 M59.84194065074951 14.569956142586303 C59.53562773243431 15.113845746601354, 59.2293148141191 15.657735350616406, 58.85105953466841 16.329365901781536 M58.85105953466841 16.329365901781536 C58.62837559110043 16.671468238113448, 58.40569164753245 17.01357057444536, 57.74948851980412 18.021674793848334 M58.85105953466841 16.329365901781536 C58.44745012633595 16.949418337281557, 58.043840718003494 17.56947077278158, 57.74948851980412 18.021674793848334 M57.74948851980412 18.021674793848334 C57.48972117609649 18.369739369124705, 57.22995383238886 18.717803944401076, 56.54175419774295 19.639928758550102 M57.74948851980412 18.021674793848334 C57.48011076130526 18.38261644941815, 57.2107330028064 18.74355810498797, 56.54175419774295 19.639928758550102 M56.54175419774295 19.639928758550102 C56.15930358502753 20.08917701030198, 55.77685297231212 20.53842526205386, 55.23281940787245 21.177478043231467 M56.54175419774295 19.639928758550102 C56.05719304510026 20.20912186075487, 55.57263189245758 20.77831496295964, 55.23281940787245 21.177478043231467 M55.23281940787245 21.177478043231467 C54.67317702464158 21.755354751411506, 54.11353464141072 22.33323145959154, 53.82806284400983 22.628004528078414 M55.23281940787245 21.177478043231467 C54.68188606746005 21.74636194967573, 54.13095272704764 22.315245856119994, 53.82806284400983 22.628004528078414 M53.82806284400983 22.628004528078414 C53.37075697999877 23.04331761412314, 52.9134511159877 23.458630700167866, 52.333256952195356 23.985547688627715 M53.82806284400983 22.628004528078414 C53.30024551684751 23.107354259326026, 52.7724281896852 23.586703990573636, 52.333256952195356 23.985547688627715 M52.333256952195356 23.985547688627715 C51.95591524421001 24.28646765926146, 51.57857353622467 24.587387629895208, 50.75454421047331 25.24452908884063 M52.333256952195356 23.985547688627715 C51.82296627229336 24.39249092644427, 51.31267559239135 24.79943416426083, 50.75454421047331 25.24452908884063 M50.75454421047331 25.24452908884063 C50.126666834881135 25.682509165680212, 49.49878945928896 26.1204892425198, 49.0984118881323 26.399775304092973 M50.75454421047331 25.24452908884063 C50.15627093125682 25.66185862958921, 49.557997652040335 26.079188170337794, 49.0984118881323 26.399775304092973 M49.0984118881323 26.399775304092973 C48.65300893615795 26.669781191058103, 48.20760598418361 26.939787078023233, 47.37166538812404 27.446539179886766 M49.0984118881323 26.399775304092973 C48.54958999213796 26.7324743626802, 48.00076809614362 27.065173421267424, 47.37166538812404 27.446539179886766 M47.37166538812404 27.446539179886766 C46.79189590545385 27.749004547635728, 46.21212642278366 28.051469915384686, 45.581400282203084 28.3805193389262 M47.37166538812404 27.446539179886766 C46.678804292444035 27.808004369704314, 45.985943196764026 28.16946955952186, 45.581400282203084 28.3805193389262 M45.581400282203084 28.3805193389262 C44.89012181144826 28.686527811882108, 44.198843340693436 28.992536284838014, 43.734973153700295 29.197877856399682 M45.581400282203084 28.3805193389262 C44.8815190203442 28.690336012311143, 44.18163775848532 29.000152685696083, 43.734973153700295 29.197877856399682 M43.734973153700295 29.197877856399682 C43.1724500701837 29.40489155104017, 42.609926986667105 29.61190524568066, 41.83997136774407 29.895256030836055 M43.734973153700295 29.197877856399682 C43.33094673108146 29.346563314702724, 42.92692030846262 29.495248773005766, 41.83997136774407 29.895256030836055 M41.83997136774407 29.895256030836055 C41.34794915215626 30.041285641745205, 40.85592693656845 30.187315252654358, 39.90418189314951 30.46978818572942 M41.83997136774407 29.895256030836055 C41.414252366399005 30.021607195790633, 40.98853336505394 30.14795836074521, 39.90418189314951 30.46978818572942 M39.90418189314951 30.46978818572942 C39.430603913045715 30.57787926930298, 38.95702593294192 30.68597035287654, 37.93555930409324 30.919113445218557 M39.90418189314951 30.46978818572942 C39.135374988576466 30.64526334476431, 38.36656808400341 30.8207385037992, 37.93555930409324 30.919113445218557 M37.93555930409324 30.919113445218557 C37.205770678697725 31.037100010577188, 36.475982053302204 31.15508657593582, 35.94219309306196 31.24138543543225 M37.93555930409324 30.919113445218557 C37.28077007978031 31.024974689039198, 36.62598085546738 31.130835932859835, 35.94219309306196 31.24138543543225 M35.94219309306196 31.24138543543225 C35.34933252541879 31.298577981373636, 34.75647195777562 31.35577052731502, 33.93227442939246 31.435279871635593 M35.94219309306196 31.24138543543225 C35.366467990723066 31.296924943644143, 34.79074288838417 31.35246445185604, 33.93227442939246 31.435279871635593 M33.93227442939246 31.435279871635593 C33.14299232727275 31.460590612406158, 32.353710225153044 31.485901353176725, 31.914062500000007 31.5 M33.93227442939246 31.435279871635593 C33.37615935887798 31.453113399534676, 32.82004428836349 31.470946927433754, 31.914062500000007 31.5 M31.914062500000007 31.5 C31.914062500000004 31.5, 31.914062500000004 31.5, 31.9140625 31.5 M31.914062500000007 31.5 C31.914062500000004 31.5, 31.9140625 31.5, 31.9140625 31.5 M31.9140625 31.5 C8.343287112271117 31.5, -15.227488275457766 31.5, -31.914062499999993 31.5 M31.9140625 31.5 C17.808444775641657 31.5, 3.7028270512833146 31.5, -31.914062499999993 31.5 M-31.914062499999993 31.5 C-32.51860988157881 31.48061334215286, -33.12315726315762 31.46122668430572, -33.93227442939244 31.435279871635593 M-31.914062499999993 31.5 C-32.60205990894493 31.477937262200854, -33.290057317889875 31.455874524401708, -33.93227442939244 31.435279871635593 M-33.93227442939244 31.435279871635593 C-34.602743666622395 31.370600510677253, -35.27321290385235 31.30592114971891, -35.942193093061945 31.24138543543225 M-33.93227442939244 31.435279871635593 C-34.55722873879986 31.374991281024585, -35.182183048207264 31.314702690413572, -35.942193093061945 31.24138543543225 M-35.942193093061945 31.24138543543225 C-36.53268818832457 31.145918767788046, -37.1231832835872 31.05045210014384, -37.935559304093225 30.919113445218557 M-35.942193093061945 31.24138543543225 C-36.59110512010751 31.136474371287452, -37.24001714715307 31.031563307142655, -37.935559304093225 30.919113445218557 M-37.935559304093225 30.919113445218557 C-38.38419597583127 30.816715052522234, -38.832832647569305 30.714316659825908, -39.90418189314947 30.469788185729428 M-37.935559304093225 30.919113445218557 C-38.61794723984191 30.763362851881354, -39.3003351755906 30.607612258544155, -39.90418189314947 30.469788185729428 M-39.90418189314947 30.469788185729428 C-40.39112332556397 30.325266524596543, -40.878064757978464 30.18074486346366, -41.839971367744035 29.89525603083607 M-39.90418189314947 30.469788185729428 C-40.34934126481714 30.337667220907687, -40.79450063648482 30.20554625608595, -41.839971367744035 29.89525603083607 M-41.839971367744035 29.89525603083607 C-42.36539486850469 29.701895325594553, -42.89081836926533 29.508534620353036, -43.73497315370029 29.197877856399685 M-41.839971367744035 29.89525603083607 C-42.49866079985274 29.652852230961702, -43.15735023196145 29.41044843108733, -43.73497315370029 29.197877856399685 M-43.73497315370029 29.197877856399685 C-44.29630047710619 28.949394901511322, -44.8576278005121 28.70091194662296, -45.58140028220308 28.380519338926206 M-43.73497315370029 29.197877856399685 C-44.46558700895662 28.874456775567687, -45.19620086421295 28.55103569473569, -45.58140028220308 28.380519338926206 M-45.58140028220308 28.380519338926206 C-46.11641625755752 28.10140184727788, -46.65143223291196 27.82228435562956, -47.37166538812403 27.446539179886773 M-45.58140028220308 28.380519338926206 C-45.95426990432722 28.185993495898433, -46.32713952645136 27.991467652870657, -47.37166538812403 27.446539179886773 M-47.37166538812403 27.446539179886773 C-47.80300755730185 27.185057022083228, -48.234349726479664 26.923574864279686, -49.09841188813226 26.399775304092994 M-47.37166538812403 27.446539179886773 C-47.77002725884741 27.20504987282005, -48.168389129570805 26.963560565753333, -49.09841188813226 26.399775304092994 M-49.09841188813226 26.399775304092994 C-49.70978245318297 25.97330966371883, -50.32115301823367 25.546844023344665, -50.7545442104733 25.244529088840636 M-49.09841188813226 26.399775304092994 C-49.49245237237524 26.124909720022732, -49.886492856618226 25.85004413595247, -50.7545442104733 25.244529088840636 M-50.7545442104733 25.244529088840636 C-51.11779297190375 24.95484786805536, -51.4810417333342 24.665166647270084, -52.33325695219533 23.98554768862774 M-50.7545442104733 25.244529088840636 C-51.33222846349303 24.78384126988099, -51.90991271651276 24.32315345092135, -52.33325695219533 23.98554768862774 M-52.33325695219533 23.98554768862774 C-52.81671103266756 23.546487484236874, -53.3001651131398 23.107427279846007, -53.82806284400981 22.628004528078435 M-52.33325695219533 23.98554768862774 C-52.814205297865406 23.548763126286083, -53.29515364353548 23.11197856394443, -53.82806284400981 22.628004528078435 M-53.82806284400981 22.628004528078435 C-54.33505288820773 22.104495682787338, -54.842042932405654 21.58098683749624, -55.23281940787244 21.177478043231478 M-53.82806284400981 22.628004528078435 C-54.33520782494653 22.104335697883982, -54.84235280588326 21.58066686768953, -55.23281940787244 21.177478043231478 M-55.23281940787244 21.177478043231478 C-55.53681160103277 20.82039151549955, -55.840803794193086 20.463304987767625, -56.54175419774293 19.639928758550113 M-55.23281940787244 21.177478043231478 C-55.62323709658459 20.718871210674365, -56.01365478529674 20.260264378117252, -56.54175419774293 19.639928758550113 M-56.54175419774293 19.639928758550113 C-56.83082762865511 19.252596696259122, -57.11990105956728 18.865264633968128, -57.7494885198041 18.021674793848355 M-56.54175419774293 19.639928758550113 C-56.88722066446451 19.177035165785774, -57.23268713118608 18.714141573021436, -57.7494885198041 18.021674793848355 M-57.7494885198041 18.021674793848355 C-58.052079617994906 17.556813609940352, -58.35467071618571 17.09195242603235, -58.851059534668394 16.329365901781557 M-57.7494885198041 18.021674793848355 C-58.01157357138229 17.619041774933827, -58.273658622960475 17.216408756019295, -58.851059534668394 16.329365901781557 M-58.851059534668394 16.329365901781557 C-59.091501695454525 15.902436497896861, -59.331943856240656 15.475507094012166, -59.8419406507495 14.569956142586314 M-58.851059534668394 16.329365901781557 C-59.049410486024456 15.977173702437083, -59.24776143738051 15.624981503092611, -59.8419406507495 14.569956142586314 M-59.8419406507495 14.569956142586314 C-60.04588542192206 14.146460461527447, -60.24983019309462 13.72296478046858, -60.71806012499809 12.750675308355417 M-59.8419406507495 14.569956142586314 C-60.02840616521859 14.182756512068377, -60.21487167968768 13.79555688155044, -60.71806012499809 12.750675308355417 M-60.71806012499809 12.750675308355417 C-60.89254775855183 12.319687479988787, -61.067035392105566 11.888699651622156, -61.47581779456745 10.878999214271209 M-60.71806012499809 12.750675308355417 C-60.92572552934138 12.237737744690037, -61.133390933684666 11.724800181024657, -61.47581779456745 10.878999214271209 M-61.47581779456745 10.878999214271209 C-61.65040145376666 10.353181048891757, -61.824985112965884 9.827362883512306, -62.11209987065481 8.962618978877522 M-61.47581779456745 10.878999214271209 C-61.64831489746409 10.359465424027505, -61.82081200036074 9.839931633783799, -62.11209987065481 8.962618978877522 M-62.11209987065481 8.962618978877522 C-62.236304231662785 8.488973919843534, -62.36050859267076 8.015328860809548, -62.62429173372744 7.009409419623911 M-62.11209987065481 8.962618978877522 C-62.23315404629709 8.500986941941914, -62.354208221939366 8.039354905006306, -62.62429173372744 7.009409419623911 M-62.62429173372744 7.009409419623911 C-62.73856045157697 6.422663704168638, -62.852829169426506 5.835917988713364, -63.01028867755518 5.027396693551461 M-62.62429173372744 7.009409419623911 C-62.769499182374396 6.263799860426923, -62.91470663102136 5.518190301229935, -63.01028867755518 5.027396693551461 M-63.01028867755518 5.027396693551461 C-63.10552111419112 4.288792720774799, -63.20075355082706 3.5501887479981367, -63.268504557899746 3.024725316091999 M-63.01028867755518 5.027396693551461 C-63.06611914689178 4.5943865983499945, -63.12194961622838 4.161376503148528, -63.268504557899746 3.024725316091999 M-63.268504557899746 3.024725316091999 C-63.30953775660949 2.3856001247859693, -63.35057095531922 1.7464749334799392, -63.39787831032167 1.0096246935071416 M-63.268504557899746 3.024725316091999 C-63.31293497692315 2.3326856762136967, -63.35736539594656 1.6406460363353943, -63.39787831032167 1.0096246935071416 M-63.39787831032167 1.0096246935071416 C-63.39787831032167 0.5781530012356747, -63.39787831032167 0.14668130896420783, -63.39787831032167 -1.0096246935071262 M-63.39787831032167 1.0096246935071416 C-63.39787831032167 0.5459405900033008, -63.39787831032167 0.08225648649945994, -63.39787831032167 -1.0096246935071262 M-63.39787831032167 -1.0096246935071262 C-63.37147634294284 -1.4208566467169403, -63.345074375564 -1.8320885999267547, -63.268504557899746 -3.024725316091956 M-63.39787831032167 -1.0096246935071262 C-63.35798475571271 -1.6309990080394074, -63.31809120110375 -2.252373322571689, -63.268504557899746 -3.024725316091956 M-63.268504557899746 -3.024725316091956 C-63.186955423062656 -3.65720430219029, -63.10540628822557 -4.289683288288624, -63.01028867755518 -5.027396693551446 M-63.268504557899746 -3.024725316091956 C-63.18799685736192 -3.6491271434197357, -63.10748915682408 -4.273528970747515, -63.01028867755518 -5.027396693551446 M-63.01028867755518 -5.027396693551446 C-62.85709568097427 -5.814010353643149, -62.70390268439335 -6.600624013734852, -62.624291733727446 -7.009409419623896 M-63.01028867755518 -5.027396693551446 C-62.86324354637887 -5.782442364142332, -62.716198415202555 -6.537488034733218, -62.624291733727446 -7.009409419623896 M-62.624291733727446 -7.009409419623896 C-62.4602914573159 -7.634813551750564, -62.29629118090434 -8.260217683877231, -62.112099870654816 -8.962618978877506 M-62.624291733727446 -7.009409419623896 C-62.44275718778003 -7.701679320891282, -62.261222641832624 -8.393949222158668, -62.112099870654816 -8.962618978877506 M-62.112099870654816 -8.962618978877506 C-61.92211991469522 -9.534808337032452, -61.73213995873563 -10.106997695187399, -61.47581779456746 -10.878999214271168 M-62.112099870654816 -8.962618978877506 C-61.87574053489784 -9.674495639431543, -61.63938119914085 -10.38637229998558, -61.47581779456746 -10.878999214271168 M-61.47581779456746 -10.878999214271168 C-61.19226752626552 -11.579373859048456, -60.90871725796358 -12.279748503825743, -60.71806012499809 -12.750675308355401 M-61.47581779456746 -10.878999214271168 C-61.18421172806415 -11.599271836354113, -60.89260566156083 -12.319544458437058, -60.71806012499809 -12.750675308355401 M-60.71806012499809 -12.750675308355401 C-60.39582981314724 -13.419793445537875, -60.073599501296385 -14.08891158272035, -59.84194065074951 -14.5699561425863 M-60.71806012499809 -12.750675308355401 C-60.43226949862957 -13.344125658949444, -60.14647887226105 -13.937576009543488, -59.84194065074951 -14.5699561425863 M-59.84194065074951 -14.5699561425863 C-59.481268213557975 -15.21036657686445, -59.120595776366436 -15.8507770111426, -58.8510595346684 -16.329365901781546 M-59.84194065074951 -14.5699561425863 C-59.47035764896011 -15.22973938912242, -59.098774647170714 -15.889522635658542, -58.8510595346684 -16.329365901781546 M-58.8510595346684 -16.329365901781546 C-58.4827753300635 -16.895149338210665, -58.11449112545859 -17.46093277463978, -57.74948851980411 -18.021674793848344 M-58.8510595346684 -16.329365901781546 C-58.44515968931389 -16.952937063615902, -58.03925984395938 -17.57650822545026, -57.74948851980411 -18.021674793848344 M-57.74948851980411 -18.021674793848344 C-57.3749942166132 -18.523463042991285, -57.000499913422296 -19.02525129213423, -56.54175419774295 -19.639928758550102 M-57.74948851980411 -18.021674793848344 C-57.35127939689834 -18.555238740944674, -56.95307027399258 -19.088802688041007, -56.54175419774295 -19.639928758550102 M-56.54175419774295 -19.639928758550102 C-56.2402718228255 -19.994067110961247, -55.93878944790805 -20.348205463372388, -55.232819407872455 -21.177478043231467 M-56.54175419774295 -19.639928758550102 C-56.206995269776264 -20.033155643662383, -55.87223634180959 -20.42638252877466, -55.232819407872455 -21.177478043231467 M-55.232819407872455 -21.177478043231467 C-54.88634610315169 -21.535240176343002, -54.53987279843091 -21.893002309454538, -53.828062844009835 -22.628004528078403 M-55.232819407872455 -21.177478043231467 C-54.89858987012825 -21.522597481707734, -54.56436033238404 -21.867716920184005, -53.828062844009835 -22.628004528078403 M-53.828062844009835 -22.628004528078403 C-53.43347889306288 -22.986355232209185, -53.03889494211593 -23.344705936339967, -52.333256952195356 -23.98554768862771 M-53.828062844009835 -22.628004528078403 C-53.305915641081285 -23.102204802520173, -52.78376843815274 -23.576405076961944, -52.333256952195356 -23.98554768862771 M-52.333256952195356 -23.98554768862771 C-51.71585135121314 -24.477912225557983, -51.098445750230916 -24.97027676248825, -50.75454421047331 -25.244529088840626 M-52.333256952195356 -23.98554768862771 C-51.92406349375083 -24.311868582641985, -51.514870035306295 -24.638189476656255, -50.75454421047331 -25.244529088840626 M-50.75454421047331 -25.244529088840626 C-50.124256743308585 -25.684190341230043, -49.49396927614386 -26.123851593619456, -49.098411888132304 -26.39977530409297 M-50.75454421047331 -25.244529088840626 C-50.14052812372428 -25.67284013062876, -49.52651203697524 -26.10115117241689, -49.098411888132304 -26.39977530409297 M-49.098411888132304 -26.39977530409297 C-48.58578633987251 -26.71053192397016, -48.07316079161273 -27.021288543847348, -47.37166538812404 -27.446539179886763 M-49.098411888132304 -26.39977530409297 C-48.537572433924346 -26.739759477092303, -47.97673297971638 -27.079743650091633, -47.37166538812404 -27.446539179886763 M-47.37166538812404 -27.446539179886763 C-46.68636698293482 -27.804058918919406, -46.00106857774559 -28.16157865795205, -45.58140028220309 -28.3805193389262 M-47.37166538812404 -27.446539179886763 C-46.77850724708111 -27.75598940213294, -46.185349106038174 -28.065439624379117, -45.58140028220309 -28.3805193389262 M-45.58140028220309 -28.3805193389262 C-45.06587056454383 -28.60872905228823, -44.55034084688456 -28.83693876565026, -43.7349731537003 -29.19787785639968 M-45.58140028220309 -28.3805193389262 C-45.01569189140226 -28.630941662390548, -44.44998350060143 -28.881363985854897, -43.7349731537003 -29.19787785639968 M-43.7349731537003 -29.19787785639968 C-43.16887751406189 -29.406206284717342, -42.60278187442348 -29.614534713035006, -41.83997136774408 -29.895256030836055 M-43.7349731537003 -29.19787785639968 C-43.02402800943716 -29.459512241393387, -42.31308286517402 -29.721146626387096, -41.83997136774408 -29.895256030836055 M-41.83997136774408 -29.895256030836055 C-41.37161470257951 -30.034261830602595, -40.90325803741494 -30.173267630369136, -39.90418189314951 -30.469788185729417 M-41.83997136774408 -29.895256030836055 C-41.23452360063114 -30.07494975005499, -40.629075833518215 -30.254643469273926, -39.90418189314951 -30.469788185729417 M-39.90418189314951 -30.469788185729417 C-39.241094977322945 -30.62113344722032, -38.578008061496384 -30.772478708711226, -37.93555930409324 -30.919113445218553 M-39.90418189314951 -30.469788185729417 C-39.45006703695248 -30.57343693828001, -38.99595218075546 -30.6770856908306, -37.93555930409324 -30.919113445218553 M-37.93555930409324 -30.919113445218553 C-37.45172290865018 -30.997336361426502, -36.96788651320713 -31.07555927763445, -35.94219309306196 -31.24138543543225 M-37.93555930409324 -30.919113445218553 C-37.260955033536675 -31.028178232047885, -36.58635076298011 -31.13724301887722, -35.94219309306196 -31.24138543543225 M-35.94219309306196 -31.24138543543225 C-35.38366384360093 -31.295266080398054, -34.8251345941399 -31.349146725363862, -33.93227442939246 -31.435279871635593 M-35.94219309306196 -31.24138543543225 C-35.512275415981875 -31.28285907668851, -35.08235773890179 -31.324332717944774, -33.93227442939246 -31.435279871635593 M-33.93227442939246 -31.435279871635593 C-33.30709028705838 -31.455328310233135, -32.6819061447243 -31.47537674883068, -31.91406250000001 -31.5 M-33.93227442939246 -31.435279871635593 C-33.50495499806855 -31.448983174071337, -33.07763556674464 -31.46268647650708, -31.91406250000001 -31.5 M-31.91406250000001 -31.5 C-31.914062500000007 -31.5, -31.914062500000004 -31.5, -31.9140625 -31.5 M-31.91406250000001 -31.5 C-31.914062500000007 -31.5, -31.914062500000007 -31.5, -31.9140625 -31.5" stroke="#888" stroke-width="1.3" fill="none" stroke-dasharray="5 5" style="fill:#fafafa !important;stroke:#888 !important;stroke-dasharray:5 5 !important"/></g><g class="label" style="color:#666 !important" transform="translate(-48.0390625, -24)"><rect/><foreignObject width="96.078125" height="48"><div style="color: rgb(102, 102, 102) !important; display: table-cell; white-space: nowrap; line-height: 1.5; max-width: 200px; text-align: center;" xmlns="http://www.w3.org/1999/xhtml"><span style="color:#666 !important" class="nodeLabel"><p>Cloud Logger<br /><i>optional</i></p></span></div></foreignObject></g></g><g class="node default terminator" id="my-svg-flowchart-term_line-2" data-look="classic" transform="translate(1278.1640625, 129.3125)"><rect class="basic label-container" style="fill:#fafafa !important;stroke:#444 !important" x="-73.5859375" y="-27" width="147.171875" height="54"/><g class="label" style="" transform="translate(-43.5859375, -12)"><rect/><foreignObject width="87.171875" height="24"><div xmlns="http://www.w3.org/1999/xhtml" style="display: table-cell; white-space: nowrap; line-height: 1.5; max-width: 200px; text-align: center;"><span class="nodeLabel"><p>Hook &amp; Line</p></span></div></foreignObject></g></g><g class="node default terminator" id="my-svg-flowchart-term_fish-3" data-look="classic" transform="translate(954.984375, 206.71875)"><rect class="basic label-container" style="fill:#fafafa !important;stroke:#444 !important" x="-45.1171875" y="-27" width="90.234375" height="54"/><g class="label" style="" transform="translate(-15.1171875, -12)"><rect/><foreignObject width="30.234375" height="24"><div xmlns="http://www.w3.org/1999/xhtml" style="display: table-cell; white-space: nowrap; line-height: 1.5; max-width: 200px; text-align: center;"><span class="nodeLabel"><p>Fish</p></span></div></foreignObject></g></g><g class="node default terminator" id="my-svg-flowchart-term_power-4" data-look="classic" transform="translate(88.25, 325.0546875)"><rect class="basic label-container" style="fill:#fafafa !important;stroke:#444 !important" x="-80.25" y="-27" width="160.5" height="54"/><g class="label" style="" transform="translate(-50.25, -12)"><rect/><foreignObject width="100.5" height="24"><div xmlns="http://www.w3.org/1999/xhtml" style="display: table-cell; white-space: nowrap; line-height: 1.5; max-width: 200px; text-align: center;"><span class="nodeLabel"><p>Power Source</p></span></div></foreignObject></g></g><g class="node default proc" id="my-svg-flowchart-proc_acquire_tension-5" data-look="classic" transform="translate(1614.578125, 129.3125)"><circle class="basic label-container" style="fill:#cfe5ff !important;stroke:#2a70c2 !important" r="64.28125" cx="0" cy="0"/><g class="label" style="color:#000 !important" transform="translate(-56.78125, -12)"><rect/><foreignObject width="113.5625" height="24"><div style="color: rgb(0, 0, 0) !important; display: table-cell; white-space: nowrap; line-height: 1.5; max-width: 200px; text-align: center;" xmlns="http://www.w3.org/1999/xhtml"><span style="color:#000 !important" class="nodeLabel"><p>Acquire Tension</p></span></div></foreignObject></g></g><g class="node default brain" id="my-svg-flowchart-proc_bite_detector-6" data-look="classic" transform="translate(711.2578125, 141.28515625)"><circle class="basic label-container" style="fill:#7fbff5 !important;stroke:#1f5a99 !important" r="57.2890625" cx="0" cy="0"/><g class="label" style="color:#000 !important;font-weight:bold !important" transform="translate(-49.7890625, -12)"><rect/><foreignObject width="99.578125" height="24"><div style="color: rgb(0, 0, 0) !important; font-weight: bold !important; display: table-cell; white-space: nowrap; line-height: 1.5; max-width: 200px; text-align: center;" xmlns="http://www.w3.org/1999/xhtml"><span style="color:#000 !important;font-weight:bold !important" class="nodeLabel"><p>Bite Detector</p></span></div></foreignObject></g></g><g class="node default proc" id="my-svg-flowchart-proc_reel_controller-7" data-look="classic" transform="translate(954.984375, 68.859375)"><circle class="basic label-container" style="fill:#cfe5ff !important;stroke:#2a70c2 !important" r="60.859375" cx="0" cy="0"/><g class="label" style="color:#000 !important" transform="translate(-53.359375, -12)"><rect/><foreignObject width="106.71875" height="24"><div style="color: rgb(0, 0, 0) !important; display: table-cell; white-space: nowrap; line-height: 1.5; max-width: 200px; text-align: center;" xmlns="http://www.w3.org/1999/xhtml"><span style="color:#000 !important" class="nodeLabel"><p>Reel Controller</p></span></div></foreignObject></g></g><g class="node default proc" id="my-svg-flowchart-proc_serve_ui-8" data-look="classic" transform="translate(437.890625, 209.4296875)"><circle class="basic label-container" style="fill:#cfe5ff !important;stroke:#2a70c2 !important" r="38.625" cx="0" cy="0"/><g class="label" style="color:#000 !important" transform="translate(-31.125, -12)"><rect/><foreignObject width="62.25" height="24"><div style="color: rgb(0, 0, 0) !important; display: table-cell; white-space: nowrap; line-height: 1.5; max-width: 200px; text-align: center;" xmlns="http://www.w3.org/1999/xhtml"><span style="color:#000 !important" class="nodeLabel"><p>Serve UI</p></span></div></foreignObject></g></g><g class="node default optional" id="my-svg-flowchart-proc_cloud_forward-9" data-look="classic" transform="translate(2158.875, 241.21484375)"><circle class="basic label-container" style="fill:#e6f0ff !important;stroke:#888 !important;stroke-dasharray:3 3 !important" r="59.96875" cx="0" cy="0"/><g class="label" style="" transform="translate(-52.46875, -12)"><rect/><foreignObject width="104.9375" height="24"><div xmlns="http://www.w3.org/1999/xhtml" style="display: table-cell; white-space: nowrap; line-height: 1.5; max-width: 200px; text-align: center;"><span class="nodeLabel"><p>Cloud Forward</p></span></div></foreignObject></g></g><g class="node default store" id="my-svg-flowchart-store_system_state-10" data-look="classic" transform="translate(1899.5625, 241.21484375)"><path d="M0,11.710963455149502 a55.078125,11.710963455149502 0,0,0 110.15625,0 a55.078125,11.710963455149502 0,0,0 -110.15625,0 l0,50.7109634551495 a55.078125,11.710963455149502 0,0,0 110.15625,0 l0,-50.7109634551495" class="basic label-container outer-path" style="fill:#fff5cc !important;stroke:#b89800 !important" transform="translate(-55.078125, -37.06644518272425)"/><g class="label" style="" transform="translate(-47.578125, -2)"><rect/><foreignObject width="95.15625" height="24"><div xmlns="http://www.w3.org/1999/xhtml" style="display: table-cell; white-space: nowrap; line-height: 1.5; max-width: 200px; text-align: center;"><span class="nodeLabel"><p>System State</p></span></div></foreignObject></g></g><g class="node default" id="my-svg-flowchart-sys_root-22" data-look="classic" transform="translate(437.890625, 325.0546875)"><rect class="basic label-container" style="" x="-60.234375" y="-27" width="120.46875" height="54"/><g class="label" style="" transform="translate(-30.234375, -12)"><rect/><foreignObject width="60.46875" height="24"><div xmlns="http://www.w3.org/1999/xhtml" style="display: table-cell; white-space: nowrap; line-height: 1.5; max-width: 200px; text-align: center;"><span class="nodeLabel"><p>sys_root</p></span></div></foreignObject></g></g></g></g></g><defs><filter id="my-svg-drop-shadow" height="130%" width="130%"><feDropShadow dx="4" dy="4" stdDeviation="0" flood-opacity="0.06" flood-color="#000000"/></filter></defs><defs><filter id="my-svg-drop-shadow-small" height="150%" width="150%"><feDropShadow dx="2" dy="2" stdDeviation="0" flood-opacity="0.06" flood-color="#000000"/></filter></defs></svg>