<svg id="my-svg" width="100%" xmlns="http://www.w3.org/2000/svg" xmlns:xlink="http://www.w3.org/1999/xlink" class="flowchart" style="max-width: 2495.25px; background-color: white;" viewBox="0 0 2495.248779296875 369.50390625" role="graphics-document document" aria-roledescription="flowchart-v2"><style>#my-svg{font-family:"trebuchet ms",verdana,arial,sans-serif;font-size:16px;fill:#333;}@keyframes edge-animation-frame{from{stroke-dashoffset:0;}}@keyframes dash{to{stroke-dashoffset:0;}}#my-svg .edge-animation-slow{stroke-dasharray:9,5!important;stroke-dashoffset:900;animation:dash 50s linear infinite;stroke-linecap:round;}#my-svg .edge-animation-fast{stroke-dasharray:9,5!important;stroke-dashoffset:900;animation:dash 20s linear infinite;stroke-linecap:round;}#my-svg .error-icon{fill:#552222;}#my-svg .error-text{fill:#552222;stroke:#552222;}#my-svg .edge-thickness-normal{stroke-width:1px;}#my-svg .edge-thickness-thick{stroke-width:3.5px;}#my-svg .edge-pattern-solid{stroke-dasharray:0;}#my-svg .edge-thickness-invisible{stroke-width:0;fill:none;}#my-svg .edge-pattern-dashed{stroke-dasharray:3;}#my-svg .edge-pattern-dotted{stroke-dasharray:2;}#my-svg .marker{fill:#333333;stroke:#333333;}#my-svg .marker.cross{stroke:#333333;}#my-svg svg{font-family:"trebuchet ms",verdana,arial,sans-serif;font-size:16px;}#my-svg p{margin:0;}#my-svg .label{font-family:"trebuchet ms",verdana,arial,sans-serif;color:#333;}#my-svg .cluster-label text{fill:#333;}#my-svg .cluster-label span{color:#333;}#my-svg .cluster-label span p{background-color:transparent;}#my-svg .label text,#my-svg span{fill:#333;color:#333;}#my-svg .node rect,#my-svg .node circle,#my-svg .node ellipse,#my-svg .node polygon,#my-svg .node path{fill:#ECECFF;stroke:#9370DB;stroke-width:1px;}#my-svg .rough-node .label text,#my-svg .node .label text,#my-svg .image-shape .label,#my-svg .icon-shape .label{text-anchor:middle;}#my-svg .node .katex path{fill:#000;stroke:#000;stroke-width:1px;}#my-svg .rough-node .label,#my-svg .node .label,#my-svg .image-shape .label,#my-svg .icon-shape .label{text-align:center;}#my-svg .node.clickable{cursor:pointer;}#my-svg .root .anchor path{fill:#333333!important;stroke-width:0;stroke:#333333;}#my-svg .arrowheadPath{fill:#333333;}#my-svg .edgePath .path{stroke:#333333;stroke-width:1px;}#my-svg .flowchart-link{stroke:#333333;fill:none;}#my-svg .edgeLabel{background-color:rgba(232,232,232, 0.8);text-align:center;}#my-svg .edgeLabel p{background-color:rgba(232,232,232, 0.8);}#my-svg .edgeLabel rect{opacity:0.5;background-color:rgba(232,232,232, 0.8);fill:rgba(232,232,232, 0.8);}#my-svg .labelBkg{background-color:rgba(232, 232, 232, 0.5);}#my-svg .cluster rect{fill:#ffffde;stroke:#aaaa33;stroke-width:1px;}#my-svg .cluster text{fill:#333;}#my-svg .cluster span{color:#333;}#my-svg div.mermaidTooltip{position:absolute;text-align:center;max-width:200px;padding:2px;font-family:"trebuchet ms",verdana,arial,sans-serif;font-size:12px;background:hsl(80, 100%, 96.2745098039%);border:1px solid #aaaa33;border-radius:2px;pointer-events:none;z-index:100;}#my-svg .flowchartTitleText{text-anchor:middle;font-size:18px;fill:#333;}#my-svg rect.text{fill:none;stroke-width:0;}#my-svg .icon-shape,#my-svg .image-shape{background-color:rgba(232,232,232, 0.8);text-align:center;}#my-svg .icon-shape p,#my-svg .image-shape p{background-color:rgba(232,232,232, 0.8);padding:2px;}#my-svg .icon-shape .label rect,#my-svg .image-shape .label rect{opacity:0.5;background-color:rgba(232,232,232, 0.8);fill:rgba(232,232,232, 0.8);}#my-svg .label-icon{display:inline-block;height:1em;overflow:visible;vertical-align:-0.125em;}#my-svg .node .label-icon path{fill:currentColor;stroke:revert;stroke-width:revert;}#my-svg .node .neo-node{stroke:#9370DB;}#my-svg [data-look="neo"].node rect,#my-svg [data-look="neo"].cluster rect,#my-svg [data-look="neo"].node polygon{stroke:#9370DB;filter:drop-shadow(1px 2px 2px rgba(185, 185, 185, 1));}#my-svg [data-look="neo"].node path{stroke:#9370DB;stroke-width:1px;}#my-svg [data-look="neo"].node .outer-path{filter:drop-shadow(1px 2px 2px rgba(185, 185, 185, 1));}#my-svg [data-look="neo"].node .neo-line path{stroke:#9370DB;filter:none;}#my-svg [data-look="neo"].node circle{stroke:#9370DB;filter:drop-shadow(1px 2px 2px rgba(185, 185, 185, 1));}#my-svg [data-look="neo"].node circle .state-start{fill:#000000;}#my-svg [data-look="neo"].icon-shape .icon{fill:#9370DB;filter:drop-shadow(1px 2px 2px rgba(185, 185, 185, 1));}#my-svg [data-look="neo"].icon-shape .icon-neo path{stroke:#9370DB;filter:drop-shadow(1px 2px 2px rgba(185, 185, 185, 1));}#my-svg :root{--mermaid-font-family:"trebuchet ms",verdana,arial,sans-serif;}#my-svg .proc&gt;*{fill:rgb(207, 229, 255)!important;stroke:rgb(42, 112, 194)!important;color:rgb(0, 0, 0)!important;}#my-svg .proc span{fill:rgb(207, 229, 255)!important;stroke:rgb(42, 112, 194)!important;color:rgb(0, 0, 0)!important;}#my-svg .proc tspan{fill:rgb(0, 0, 0)!important;}#my-svg .brain&gt;*{fill:rgb(127, 191, 245)!important;stroke:rgb(31, 90, 153)!important;color:rgb(0, 0, 0)!important;font-weight:bold!important;}#my-svg .brain span{fill:rgb(127, 191, 245)!important;stroke:rgb(31, 90, 153)!important;color:rgb(0, 0, 0)!important;font-weight:bold!important;}#my-svg .brain tspan{fill:rgb(0, 0, 0)!important;}#my-svg .optional&gt;*{fill:rgb(230, 240, 255)!important;stroke:rgb(136, 136, 136)!important;stroke-dasharray:3,3!important;}#my-svg .optional span{fill:rgb(230, 240, 255)!important;stroke:rgb(136, 136, 136)!important;stroke-dasharray:3,3!important;}#my-svg .terminator&gt;*{fill:rgb(250, 250, 250)!important;stroke:rgb(68, 68, 68)!important;}#my-svg .terminator span{fill:rgb(250, 250, 250)!important;stroke:rgb(68, 68, 68)!important;}#my-svg .store&gt;*{fill:rgb(255, 245, 204)!important;stroke:rgb(184, 152, 0)!important;}#my-svg .store span{fill:rgb(255, 245, 204)!important;stroke:rgb(184, 152, 0)!important;}#my-svg .grid&gt;*{fill:rgb(254, 240, 239)!important;stroke:rgb(231, 76, 60)!important;}#my-svg .grid span{fill:rgb(254, 240, 239)!important;stroke:rgb(231, 76, 60)!important;}#my-svg .termopt&gt;*{fill:rgb(250, 250, 250)!important;stroke:rgb(136, 136, 136)!important;stroke-dasharray:5,5!important;color:rgb(102, 102, 102)!important;}#my-svg .termopt span{fill:rgb(250, 250, 250)!important;stroke:rgb(136, 136, 136)!important;stroke-dasharray:5,5!important;color:rgb(102, 102, 102)!important;}#my-svg .termopt tspan{fill:rgb(102, 102, 102)!important;}</style><g><marker id="my-svg_flowchart-v2-pointEnd" class="marker flowchart-v2" viewBox="0 0 10 10" refX="5" refY="5" markerUnits="userSpaceOnUse" markerWidth="8" markerHeight="8" orient="auto"><path d="M 0 0 L 10 5 L 0 10 z" class="arrowMarkerPath" style="stroke-width: 1; stroke-dasharray: 1, 0;"/></marker><marker id="my-svg_flowchart-v2-pointStart" class="marker flowchart-v2" viewBox="0 0 10 10" refX="4.5" refY="5" markerUnits="userSpaceOnUse" markerWidth="8" markerHeight="8" orient="auto"><path d="M 0 5 L 10 10 L 10 0 z" class="arrowMarkerPath" style="stroke-width: 1; stroke-dasharray: 1, 0;"/></marker><marker id="my-svg_flowchart-v2-pointEnd-margin" class="marker flowchart-v2" viewBox="0 0 11.5 14" refX="11.5" refY="7" markerUnits="userSpaceOnUse" markerWidth="10.5" markerHeight="14" orient="auto"><path d="M 0 0 L 11.5 7 L 0 14 z" class="arrowMarkerPath" style="stroke-width: 0; stroke-dasharray: 1, 0;"/></marker><marker id="my-svg_flowchart-v2-pointStart-margin" class="marker flowchart-v2" viewBox="0 0 11.5 14" refX="1" refY="7" markerUnits="userSpaceOnUse" markerWidth="11.5" markerHeight="14" orient="auto"><polygon points="0,7 11.5,14 11.5,0" class="arrowMarkerPath" style="stroke-width: 0; stroke-dasharray: 1, 0;"/></marker><marker id="my-svg_flowchart-v2-circleEnd" class="marker flowchart-v2" viewBox="0 0 10 10" refX="11" refY="5" markerUnits="userSpaceOnUse" markerWidth="11" markerHeight="11" orient="auto"><circle cx="5" cy="5" r="5" class="arrowMarkerPath" style="stroke-width: 1; stroke-dasharray: 1, 0;"/></marker><marker id="my-svg_flowchart-v2-circleStart" class="marker flowchart-v2" viewBox="0 0 10 10" refX="-1" refY="5" markerUnits="userSpaceOnUse" markerWidth="11" markerHeight="11" orient="auto"><circle cx="5" cy="5" r="5" class="arrowMarkerPath" style="stroke-width: 1; stroke-dasharray: 1, 0;"/></marker><marker id="my-svg_flowchart-v2-circleEnd-margin" class="marker flowchart-v2" viewBox="0 0 10 10" refY="5" refX="12.25" markerUnits="userSpaceOnUse" markerWidth="14" markerHeight="14" orient="auto"><circle cx="5" cy="5" r="5" class="arrowMarkerPath" style="stroke-width: 0; stroke-dasharray: 1, 0;"/></marker><marker id="my-svg_flowchart-v2-circleStart-margin" class="marker flowchart-v2" viewBox="0 0 10 10" refX="-2" refY="5" markerUnits="userSpaceOnUse" markerWidth="14" markerHeight="14" orient="auto"><circle cx="5" cy="5" r="5" class="arrowMarkerPath" style="stroke-width: 0; stroke-dasharray: 1, 0;"/></marker><marker id="my-svg_flowchart-v2-crossEnd" class="marker cross flowchart-v2" viewBox="0 0 11 11" refX="12" refY="5.2" markerUnits="userSpaceOnUse" markerWidth="11" markerHeight="11" orient="auto"><path d="M 1,1 l 9,9 M 10,1 l -9,9" class="arrowMarkerPath" style="stroke-width: 2; stroke-dasharray: 1, 0;"/></marker><marker id="my-svg_flowchart-v2-crossStart" class="marker cross flowchart-v2" viewBox="0 0 11 11" refX="-1" refY="5.2" markerUnits="userSpaceOnUse" markerWidth="11" markerHeight="11" orient="auto"><path d="M 1,1 l 9,9 M 10,1 l -9,9" class="arrowMarkerPath" style="stroke-width: 2; stroke-dasharray: 1, 0;"/></marker><marker id="my-svg_flowchart-v2-crossEnd-margin" class="marker cross flowchart-v2" viewBox="0 0 15 15" refX="17.7" refY="7.5" markerUnits="userSpaceOnUse" markerWidth="12" markerHeight="12" orient="auto"><path d="M 1,1 L 14,14 M 1,14 L 14,1" class="arrowMarkerPath" style="stroke-width: 2.5;"/></marker><marker id="my-svg_flowchart-v2-crossStart-margin" class="marker cross flowchart-v2" viewBox="0 0 15 15" refX="-3.5" refY="7.5" markerUnits="userSpaceOnUse" markerWidth="12" markerHeight="12" orient="auto"><path d="M 1,1 L 14,14 M 1,14 L 14,1" class="arrowMarkerPath" style="stroke-width: 2.5; stroke-dasharray: 1, 0;"/></marker><g class="root"><g class="clusters"/><g class="edgePaths"><path d="M141.375,203.106L163.326,200.493C185.276,197.881,229.177,192.655,271.555,192.769C313.932,192.883,354.786,198.337,375.213,201.063L395.64,203.79" id="my-svg-L_term_angler_proc_serve_ui_0" class="edge-thickness-normal edge-pattern-solid edge-thickness-normal edge-pattern-solid flowchart-link" style=";" data-edge="true" data-et="edge" data-id="L_term_angler_proc_serve_ui_0" data-points="W3sieCI6MTQxLjM3NSwieSI6MjAzLjEwNjI0NTExMjY0Njl9LHsieCI6MjczLjA3ODEyNSwieSI6MTg3LjQyOTY4NzV9LHsieCI6Mzk5LjYwNTIwODU1ODcxMDMzLCJ5IjoyMDQuMzE5MTU3ODg3ODE0MTl9XQ==" data-look="classic" marker-end="url(#my-svg_flowchart-v2-pointEnd)"/><path d="M400.161,217.698L378.98,222.339C357.8,226.981,315.439,236.264,272.962,236.744C230.486,237.224,187.893,228.901,166.597,224.739L145.301,220.578" id="my-svg-L_proc_serve_ui_term_angler_0" class="edge-thickness-normal edge-pattern-solid edge-thickness-normal edge-pattern-solid flowchart-link" style=";" data-edge="true" data-et="edge" data-id="L_proc_serve_ui_term_angler_0" data-points="W3sieCI6NDAwLjE2MDk0NDcwMDQxMDk0LCJ5IjoyMTcuNjk3ODA5OTg4ODYwNDZ9LHsieCI6MjczLjA3ODEyNSwieSI6MjQ1LjU0Njg3NX0seyJ4IjoxNDEuMzc1LCJ5IjoyMTkuODEwODIxNzg4NjEyNzR9XQ==" data-look="classic" marker-end="url(#my-svg_flowchart-v2-pointEnd)"/><path d="M1351.75,129.313L1368.296,129.313C1384.841,129.313,1417.932,129.313,1450.357,129.313C1482.781,129.313,1514.539,129.313,1530.418,129.313L1546.297,129.313" id="my-svg-L_term_line_proc_acquire_tension_0" class="edge-thickness-normal edge-pattern-solid edge-thickness-normal edge-pattern-solid flowchart-link" style=";" data-edge="true" data-et="edge" data-id="L_term_line_proc_acquire_tension_0" data-points="W3sieCI6MTM1MS43NSwieSI6MTI5LjMxMjV9LHsieCI6MTQ1MS4wMjM0Mzc1LCJ5IjoxMjkuMzEyNX0seyJ4IjoxNTUwLjI5Njg3NSwieSI6MTI5LjMxMjV9XQ==" data-look="classic" marker-end="url(#my-svg_flowchart-v2-pointEnd)"/><path d="M1015.844,68.859L1031.572,68.859C1047.299,68.859,1078.755,68.859,1109.584,74.295C1140.412,79.73,1170.613,90.601,1185.714,96.036L1200.815,101.471" id="my-svg-L_proc_reel_controller_term_line_0" class="edge-thickness-normal edge-pattern-solid edge-thickness-normal edge-pattern-solid flowchart-link" style=";" data-edge="true" data-et="edge" data-id="L_proc_reel_controller_term_line_0" data-points="W3sieCI6MTAxNS44NDM3NSwieSI6NjguODU5Mzc1fSx7IngiOjExMTAuMjEwOTM3NSwieSI6NjguODU5Mzc1fSx7IngiOjEyMDQuNTc4MTI1LCJ5IjoxMDIuODI1OTQzODM3Nzk4ODZ9XQ==" data-look="classic" marker-end="url(#my-svg_flowchart-v2-pointEnd)"/><path d="M2218.844,241.215L2230.645,241.215C2242.445,241.215,2266.047,241.215,2289.065,241.294C2312.083,241.372,2334.518,241.529,2345.736,241.608L2356.953,241.687" id="my-svg-L_proc_cloud_forward_term_cloud_0" class="edge-thickness-normal edge-pattern-dotted edge-thickness-normal edge-pattern-solid flowchart-link" style=";" data-edge="true" data-et="edge" data-id="L_proc_cloud_forward_term_cloud_0" data-points="W3sieCI6MjIxOC44NDM3NSwieSI6MjQxLjIxNDg0Mzc1fSx7IngiOjIyODkuNjQ4NDM3NSwieSI6MjQxLjIxNDg0Mzc1fSx7IngiOjIzNjAuOTUzMTI1MDAwMDAwNSwieSI6MjQxLjcxNDg0Mzc0OTk5OTk3fV0=" data-look="classic" marker-end="url(#my-svg_flowchart-v2-pointEnd)"/><path d="M168.5,325.055L185.93,325.055C203.359,325.055,238.219,325.055,273.078,325.055C307.938,325.055,342.797,325.055,360.227,325.055L377.656,325.055" id="my-svg-L_term_power_sys_root_0" class="edge-thickness-normal edge-pattern-solid edge-thickness-normal edge-pattern-solid flowchart-link" style=";" data-edge="true" data-et="edge" data-id="L_term_power_sys_root_0" data-points="W3sieCI6MTY4LjUsInkiOjMyNS4wNTQ2ODc1fSx7IngiOjI3My4wNzgxMjUsInkiOjMyNS4wNTQ2ODc1fSx7IngiOjM3Ny42NTYyNSwieSI6MzI1LjA1NDY4NzV9XQ==" data-look="classic"/><path d="M1000.102,206.719L1018.453,206.719C1036.805,206.719,1073.508,206.719,1110.088,198.318C1146.667,189.917,1183.124,173.115,1201.352,164.714L1219.58,156.313" id="my-svg-L_term_fish_term_line_0" class="edge-thickness-normal edge-pattern-solid edge-thickness-normal edge-pattern-solid flowchart-link" style=";" data-edge="true" data-et="edge" data-id="L_term_fish_term_line_0" data-points="W3sieCI6MTAwMC4xMDE1NjI1LCJ5IjoyMDYuNzE4NzV9LHsieCI6MTExMC4yMTA5Mzc1LCJ5IjoyMDYuNzE4NzV9LHsieCI6MTIxOS41ODA0OTM2NjY3MzQsInkiOjE1Ni4zMTI1fV0=" data-look="classic"/><path d="M1678.859,129.313L1692.661,129.313C1706.464,129.313,1734.068,129.313,1762.736,142.209C1791.403,155.106,1821.135,180.9,1836.001,193.797L1850.866,206.694" id="my-svg-L_proc_acquire_tension_store_system_state_0" class="edge-thickness-normal edge-pattern-solid edge-thickness-normal edge-pattern-solid flowchart-link" style=";" data-edge="true" data-et="edge" data-id="L_proc_acquire_tension_store_system_state_0" data-points="W3sieCI6MTY3OC44NTkzNzUsInkiOjEyOS4zMTI1fSx7IngiOjE3NjEuNjcxODc1LCJ5IjoxMjkuMzEyNX0seyJ4IjoxODUzLjg4NzcxMzA0NTk3NTMsInkiOjIwOS4zMTQ3NTYwMDM3OTEwOH1d" data-look="classic" marker-end="url(#my-svg_flowchart-v2-pointEnd)"/><path d="M1844.484,259.647L1830.682,264.265C1816.88,268.884,1789.276,278.122,1750.958,282.741C1712.641,287.359,1663.609,287.359,1611.835,287.359C1560.06,287.359,1505.542,287.359,1449.473,287.359C1393.404,287.359,1335.784,287.359,1278.982,287.359C1222.18,287.359,1166.195,287.359,1112.332,287.359C1058.469,287.359,1006.727,287.359,960.247,287.359C913.768,287.359,872.552,287.359,838.418,270.905C804.283,254.45,777.23,221.54,763.704,205.086L750.178,188.631" id="my-svg-L_store_system_state_proc_bite_detector_0" class="edge-thickness-normal edge-pattern-solid edge-thickness-normal edge-pattern-solid flowchart-link" style=";" data-edge="true" data-et="edge" data-id="L_store_system_state_proc_bite_detector_0" data-points="W3sieCI6MTg0NC40ODQzNzUsInkiOjI1OS42NDY1MTIwMzk2NjAxfSx7IngiOjE3NjEuNjcxODc1LCJ5IjoyODcuMzU5Mzc1fSx7IngiOjE2MTQuNTc4MTI1LCJ5IjoyODcuMzU5Mzc1fSx7IngiOjE0NTEuMDIzNDM3NSwieSI6Mjg3LjM1OTM3NX0seyJ4IjoxMjc4LjE2NDA2MjUsInkiOjI4Ny4zNTkzNzV9LHsieCI6MTExMC4yMTA5Mzc1LCJ5IjoyODcuMzU5Mzc1fSx7IngiOjk1NC45ODQzNzUsInkiOjI4Ny4zNTkzNzV9LHsieCI6ODMxLjMzNTkzNzUsInkiOjI4Ny4zNTkzNzV9LHsieCI6NzQ3LjYzNzQ2MjQ4NTgxMzgsInkiOjE4NS41NDA3NTE5MzA1MzA0Nn1d" data-look="classic" marker-end="url(#my-svg_flowchart-v2-pointEnd)"/><path d="M1852.364,272.606L1837.248,285.423C1822.133,298.239,1791.902,323.871,1752.272,336.688C1712.641,349.504,1663.609,349.504,1611.835,349.504C1560.06,349.504,1505.542,349.504,1449.473,349.504C1393.404,349.504,1335.784,349.504,1278.982,349.504C1222.18,349.504,1166.195,349.504,1112.332,349.504C1058.469,349.504,1006.727,349.504,960.247,349.504C913.768,349.504,872.552,349.504,831.931,349.504C791.31,349.504,751.284,349.504,708.736,349.504C666.188,349.504,621.117,349.504,580.545,331.216C539.972,312.928,503.897,276.353,485.86,258.065L467.823,239.777" id="my-svg-L_store_system_state_proc_serve_ui_0" class="edge-thickness-normal edge-pattern-solid edge-thickness-normal edge-pattern-solid flowchart-link" style=";" data-edge="true" data-et="edge" data-id="L_store_system_state_proc_serve_ui_0" data-points="W3sieCI6MTg1Mi4zNjM2ODIzODY4NDI2LCJ5IjoyNzIuNjA2Mjg4NzIzMzczMX0seyJ4IjoxNzYxLjY3MTg3NSwieSI6MzQ5LjUwMzkwNjI1fSx7IngiOjE2MTQuNTc4MTI1LCJ5IjozNDkuNTAzOTA2MjV9LHsieCI6MTQ1MS4wMjM0Mzc1LCJ5IjozNDkuNTAzOTA2MjV9LHsieCI6MTI3OC4xNjQwNjI1LCJ5IjozNDkuNTAzOTA2MjV9LHsieCI6MTExMC4yMTA5Mzc1LCJ5IjozNDkuNTAzOTA2MjV9LHsieCI6OTU0Ljk4NDM3NSwieSI6MzQ5LjUwMzkwNjI1fSx7IngiOjgzMS4zMzU5Mzc1LCJ5IjozNDkuNTAzOTA2MjV9LHsieCI6NzExLjI1NzgxMjUsInkiOjM0OS41MDM5MDYyNX0seyJ4Ijo1NzYuMDQ2ODc1LCJ5IjozNDkuNTAzOTA2MjV9LHsieCI6NDY1LjAxMzcwNTk5NzQyMjE2LCJ5IjoyMzYuOTI5MzA3NTM3NTA3Mzh9XQ==" data-look="classic" marker-end="url(#my-svg_flowchart-v2-pointEnd)"/><path d="M1954.641,241.215L1966.663,241.215C1978.685,241.215,2002.729,241.215,2026.107,241.215C2049.484,241.215,2072.195,241.215,2083.551,241.215L2094.906,241.215" id="my-svg-L_store_system_state_proc_cloud_forward_0" class="edge-thickness-normal edge-pattern-dotted edge-thickness-normal edge-pattern-solid flowchart-link" style=";" data-edge="true" data-et="edge" data-id="L_store_system_state_proc_cloud_forward_0" data-points="W3sieCI6MTk1NC42NDA2MjUsInkiOjI0MS4yMTQ4NDM3NX0seyJ4IjoyMDI2Ljc3MzQzNzUsInkiOjI0MS4yMTQ4NDM3NX0seyJ4IjoyMDk4LjkwNjI1LCJ5IjoyNDEuMjE0ODQzNzV9XQ==" data-look="classic" marker-end="url(#my-svg_flowchart-v2-pointEnd)"/><path d="M760.314,111.696L772.151,104.557C783.988,97.417,807.662,83.138,829.297,75.999C850.932,68.859,870.529,68.859,880.327,68.859L890.125,68.859" id="my-svg-L_proc_bite_detector_proc_reel_controller_0" class="edge-thickness-normal edge-pattern-solid edge-thickness-normal edge-pattern-solid flowchart-link" style=";" data-edge="true" data-et="edge" data-id="L_proc_bite_detector_proc_reel_controller_0" data-points="W3sieCI6NzYwLjMxNDM1MzMwNDAyODgsInkiOjExMS42OTY0MzM5NjQ3ODUzM30seyJ4Ijo4MzEuMzM1OTM3NSwieSI6NjguODU5Mzc1fSx7IngiOjg5NC4xMjUsInkiOjY4Ljg1OTM3NX1d" data-look="classic" marker-end="url(#my-svg_flowchart-v2-pointEnd)"/><path d="M660.099,167.069L646.09,174.129C632.081,181.189,604.064,195.309,574.134,202.37C544.203,209.43,512.359,209.43,496.438,209.43L480.516,209.43" id="my-svg-L_proc_bite_detector_proc_serve_ui_0" class="edge-thickness-normal edge-pattern-solid edge-thickness-normal edge-pattern-solid flowchart-link" style=";" data-edge="true" data-et="edge" data-id="L_proc_bite_detector_proc_serve_ui_0" data-points="W3sieCI6NjYwLjA5ODc2MTk0NTk5MDIsInkiOjE2Ny4wNjg2NDM3NjcwMzY1fSx7IngiOjU3Ni4wNDY4NzUsInkiOjIwOS40Mjk2ODc1fSx7IngiOjQ3Ni41MTU2MjUsInkiOjIwOS40Mjk2ODc1fV0=" data-look="classic" marker-end="url(#my-svg_flowchart-v2-pointEnd)"/><path d="M471.304,190.053L488.761,179.93C506.218,169.806,541.133,149.559,570.95,140.53C600.767,131.501,625.487,133.69,637.847,134.785L650.208,135.879" id="my-svg-L_proc_serve_ui_proc_bite_detector_0" class="edge-thickness-normal edge-pattern-solid edge-thickness-normal edge-pattern-solid flowchart-link" style=";" data-edge="true" data-et="edge" data-id="L_proc_serve_ui_proc_bite_detector_0" data-points="W3sieCI6NDcxLjMwMzg2NTA0NzkxODQsInkiOjE5MC4wNTMyNTgxNDYyNjc2NH0seyJ4Ijo1NzYuMDQ2ODc1LCJ5IjoxMjkuMzEyNX0seyJ4Ijo2NTQuMTkyMDMyMzIwMjcwMiwieSI6MTM2LjIzMjA5NjMyNDgwMDA0fV0=" data-look="classic" marker-end="url(#my-svg_flowchart-v2-pointEnd)"/></g><g class="edgeLabels"><g class="edgeLabel" transform="translate(270.60385, 187.7242)"><g class="label" data-id="L_term_angler_proc_serve_ui_0" transform="translate(-79.578125, -12)"><foreignObject width="159.15625" height="24"><div xmlns="http://www.w3.org/1999/xhtml" class="labelBkg" style="display: table-cell; white-space: nowrap; line-height: 1.5; max-width: 200px; text-align: center;"><span class="edgeLabel"><p>F1: config, arm/disarm</p></span></div></foreignObject></g></g><g class="edgeLabel" transform="translate(273.078125, 245.546875)"><g class="label" data-id="L_proc_serve_ui_term_angler_0" transform="translate(-59.1328125, -12)"><foreignObject width="118.265625" height="24"><div xmlns="http://www.w3.org/1999/xhtml" class="labelBkg" style="display: table-cell; white-space: nowrap; line-height: 1.5; max-width: 200px; text-align: center;"><span class="edgeLabel"><p>F2: status, alerts</p></span></div></foreignObject></g></g><g class="edgeLabel" transform="translate(1451.0234375, 129.3125)"><g class="label" data-id="L_term_line_proc_acquire_tension_0" transform="translate(-74.2734375, -12)"><foreignObject width="148.546875" height="24"><div xmlns="http://www.w3.org/1999/xhtml" class="labelBkg" style="display: table-cell; white-space: nowrap; line-height: 1.5; max-width: 200px; text-align: center;"><span class="edgeLabel"><p>F3: tension feedback</p></span></div></foreignObject></g></g><g class="edgeLabel" transform="translate(1110.2109375, 68.859375)"><g class="label" data-id="L_proc_reel_controller_term_line_0" transform="translate(-69.3671875, -12)"><foreignObject width="138.734375" height="24"><div xmlns="http://www.w3.org/1999/xhtml" class="labelBkg" style="display: table-cell; white-space: nowrap; line-height: 1.5; max-width: 200px; text-align: center;"><span class="edgeLabel"><p>F4: reel torque cmd</p></span></div></foreignObject></g></g><g class="edgeLabel" transform="translate(2289.6484375, 241.21484375)"><g class="label" data-id="L_proc_cloud_forward_term_cloud_0" transform="translate(-45.8046875, -12)"><foreignObject width="91.609375" height="24"><div xmlns="http://www.w3.org/1999/xhtml" class="labelBkg" style="display: table-cell; white-space: nowrap; line-height: 1.5; max-width: 200px; text-align: center;"><span class="edgeLabel"><p>F6: catch log</p></span></div></foreignObject></g></g><g class="edgeLabel"><g class="label" data-id="L_term_power_sys_root_0" transform="translate(0, 0)"><foreignObject width="0" height="0"><div xmlns="http://www.w3.org/1999/xhtml" class="labelBkg" style="display: table-cell; white-space: nowrap; line-height: 1.5; max-width: 200px; text-align: center;"><span class="edgeLabel"></span></div></foreignObject></g></g><g class="edgeLabel"><g class="label" data-id="L_term_fish_term_line_0" transform="translate(0, 0)"><foreignObject width="0" height="0"><div xmlns="http://www.w3.org/1999/xhtml" class="labelBkg" style="display: table-cell; white-space: nowrap; line-height: 1.5; max-width: 200px; text-align: center;"><span class="edgeLabel"></span></div></foreignObject></g></g><g class="edgeLabel" transform="translate(1761.671875, 129.3125)"><g class="label" data-id="L_proc_acquire_tension_store_system_state_0" transform="translate(-57.8125, -12)"><foreignObject width="115.625" height="24"><div xmlns="http://www.w3.org/1999/xhtml" class="labelBkg" style="display: table-cell; white-space: nowrap; line-height: 1.5; max-width: 200px; text-align: center;"><span class="edgeLabel"><p>tension samples</p></span></div></foreignObject></g></g><g class="edgeLabel" transform="translate(1278.1640625, 287.359375)"><g class="label" data-id="L_store_system_state_proc_bite_detector_0" transform="translate(-47.1328125, -12)"><foreignObject width="94.265625" height="24"><div xmlns="http://www.w3.org/1999/xhtml" class="labelBkg" style="display: table-cell; white-space: nowrap; line-height: 1.5; max-width: 200px; text-align: center;"><span class="edgeLabel"><p>system_state</p></span></div></foreignObject></g></g><g class="edgeLabel" transform="translate(1110.2109375, 349.50390625)"><g class="label" data-id="L_store_system_state_proc_serve_ui_0" transform="translate(-47.1328125, -12)"><foreignObject width="94.265625" height="24"><div xmlns="http://www.w3.org/1999/xhtml" class="labelBkg" style="display: table-cell; white-space: nowrap; line-height: 1.5; max-width: 200px; text-align: center;"><span class="edgeLabel"><p>system_state</p></span></div></foreignObject></g></g><g class="edgeLabel" transform="translate(2026.7734375, 241.21484375)"><g class="label" data-id="L_store_system_state_proc_cloud_forward_0" transform="translate(-47.1328125, -12)"><foreignObject width="94.265625" height="24"><div xmlns="http://www.w3.org/1999/xhtml" class="labelBkg" style="display: table-cell; white-space: nowrap; line-height: 1.5; max-width: 200px; text-align: center;"><span class="edgeLabel"><p>system_state</p></span></div></foreignObject></g></g><g class="edgeLabel" transform="translate(831.3359375, 68.859375)"><g class="label" data-id="L_proc_bite_detector_proc_reel_controller_0" transform="translate(-37.7890625, -12)"><foreignObject width="75.578125" height="24"><div xmlns="http://www.w3.org/1999/xhtml" class="labelBkg" style="display: table-cell; white-space: nowrap; line-height: 1.5; max-width: 200px; text-align: center;"><span class="edgeLabel"><p>motor cmd</p></span></div></foreignObject></g></g><g class="edgeLabel" transform="translate(576.046875, 209.4296875)"><g class="label" data-id="L_proc_bite_detector_proc_serve_ui_0" transform="translate(-39.5859375, -12)"><foreignObject width="79.171875" height="24"><div xmlns="http://www.w3.org/1999/xhtml" class="labelBkg" style="display: table-cell; white-space: nowrap; line-height: 1.5; max-width: 200px; text-align: center;"><span class="edgeLabel"><p>event_alert</p></span></div></foreignObject></g></g><g class="edgeLabel" transform="translate(557.60805, 140.00523)"><g class="label" data-id="L_proc_serve_ui_proc_bite_detector_0" transform="translate(-52.921875, -12)"><foreignObject width="105.84375" height="24"><div xmlns="http://www.w3.org/1999/xhtml" class="labelBkg" style="display: table-cell; white-space: nowrap; line-height: 1.5; max-width: 200px; text-align: center;"><span class="edgeLabel"><p>event_override</p></span></div></foreignObject></g></g></g><g class="nodes"><g class="node default terminator" id="my-svg-flowchart-term_angler-0" data-look="classic" transform="translate(88.25, 209.4296875)"><rect class="basic label-container" style="fill:#fafafa !important;stroke:#444 !important" x="-53.125" y="-27" width="106.25" height="54"/><g class="label" style="" transform="translate(-23.125, -12)"><rect/><foreignObject width="46.25" height="24"><div xmlns="http://www.w3.org/1999/xhtml" style="display: table-cell; white-space: nowrap; line-height: 1.5; max-width: 200px; text-align: center;"><span class="nodeLabel"><p>Angler</p></span></div></foreignObject></g></g><g class="node default terminator" id="my-svg-flowchart-term_line-1" data-look="classic" transform="translate(1278.1640625, 129.3125)"><rect class="basic label-container" style="fill:#fafafa !important;stroke:#444 !important" x="-73.5859375" y="-27" width="147.171875" height="54"/><g class="label" style="" transform="translate(-43.5859375, -12)"><rect/><foreignObject width="87.171875" height="24"><div xmlns="http://www.w3.org/1999/xhtml" style="display: table-cell; white-space: nowrap; line-height: 1.5; max-width: 200px; text-align: center;"><span class="nodeLabel"><p>Hook &amp; Line</p></span></div></foreignObject></g></g><g class="node default terminator" id="my-svg-flowchart-term_power-2" data-look="classic" transform="translate(88.25, 325.0546875)"><rect class="basic label-container" style="fill:#fafafa !important;stroke:#444 !important" x="-80.25" y="-27" width="160.5" height="54"/><g class="label" style="" transform="translate(-50.25, -12)"><rect/><foreignObject width="100.5" height="24"><div xmlns="http://www.w3.org/1999/xhtml" style="display: table-cell; white-space: nowrap; line-height: 1.5; max-width: 200px; text-align: center;"><span class="nodeLabel"><p>Power Source</p></span></div></foreignObject></g></g><g class="node default terminator" id="my-svg-flowchart-term_fish-3" data-look="classic" transform="translate(954.984375, 206.71875)"><rect class="basic label-container" style="fill:#fafafa !important;stroke:#444 !important" x="-45.1171875" y="-27" width="90.234375" height="54"/><g class="label" style="" transform="translate(-15.1171875, -12)"><rect/><foreignObject width="30.234375" height="24"><div xmlns="http://www.w3.org/1999/xhtml" style="display: table-cell; white-space: nowrap; line-height: 1.5; max-width: 200px; text-align: center;"><span class="nodeLabel"><p>Fish</p></span></div></foreignObject></g></g><g class="node default termopt" id="my-svg-flowchart-term_cloud-4" data-look="classic" transform="translate(2423.851001739502, 241.21484375)"><g class="basic label-container outer-path"><path d="M-31.9140625 -31.5 C-7.3773258668891195 -31.5, 17.15941076622176 -31.5, 31.9140625 -31.5 C31.9140625 -31.5, 31.9140625 -31.5, 31.914062499999996 -31.5 C32.64832958188411 -31.47645348384815, 33.382596663768226 -31.452906967696297, 33.93227442939246 -31.435279871635593 C34.39565377320163 -31.39057822363352, 34.8590331170108 -31.345876575631443, 35.94219309306194 -31.241385435432253 C36.65240030011318 -31.12656464193536, 37.36260750716441 -31.011743848438464, 37.935559304093225 -30.91911344521856 C38.40689929600596 -30.811533167845372, 38.878239287918696 -30.703952890472184, 39.90418189314948 -30.469788185729428 C40.61212492826583 -30.259674408975716, 41.32006796338218 -30.049560632222008, 41.83997136774405 -29.895256030836062 C42.377256524099835 -29.697530126687592, 42.91454168045563 -29.49980422253912, 43.73497315370028 -29.197877856399685 C44.13931189022654 -29.018889092021972, 44.5436506267528 -28.83990032764426, 45.58140028220308 -28.380519338926202 C46.253869493089915 -28.029692582343625, 46.926338703976754 -27.67886582576105, 47.371665388124036 -27.44653917988677 C47.78968629510318 -27.19313244951249, 48.20770720208232 -26.93972571913821, 49.098411888132276 -26.399775304092984 C49.558579144568064 -26.078782546322845, 50.01874640100386 -25.75778978855271, 50.7545442104733 -25.244529088840633 C51.12666451394325 -24.947773049360503, 51.498784817413195 -24.651017009880377, 52.33325695219533 -23.985547688627737 C52.79752301343184 -23.563913535619584, 53.26178907466836 -23.142279382611434, 53.82806284400982 -22.62800452807842 C54.11252385645229 -22.334275178048113, 54.396984868894755 -22.040545828017805, 55.232819407872434 -21.177478043231485 C55.64843585881082 -20.68927131071324, 56.064052309749215 -20.201064578195, 56.54175419774294 -19.63992875855011 C56.82719433000458 -19.25746498545051, 57.11263446226622 -18.875001212350913, 57.7494885198041 -18.02167479384835 C58.17071102355172 -17.374563914012292, 58.59193352729934 -16.727453034176236, 58.8510595346684 -16.329365901781543 C59.08988654353719 -15.905304363677951, 59.328713552405986 -15.481242825574359, 59.84194065074951 -14.56995614258631 C60.05725985871691 -14.122841200148983, 60.272579066684315 -13.675726257711656, 60.71806012499809 -12.750675308355413 C60.99532511352264 -12.065825426145894, 61.27259010204719 -11.380975543936376, 61.47581779456745 -10.878999214271206 C61.64742105972855 -10.362157520873257, 61.819024324889654 -9.845315827475307, 62.11209987065481 -8.962618978877531 C62.27298802583097 -8.349082713823298, 62.43387618100713 -7.735546448769064, 62.624291733727446 -7.009409419623907 C62.76345208901964 -6.294850406750012, 62.90261244431183 -5.580291393876117, 63.01028867755518 -5.027396693551458 C63.08605111616938 -4.439798180645414, 63.161813554783585 -3.852199667739371, 63.268504557899746 -3.024725316091981 C63.303860879254195 -2.474022071887547, 63.33921720060864 -1.923318827683113, 63.39787831032167 -1.0096246935071378 C63.39787831032167 -0.5594253986566535, 63.39787831032167 -0.10922610380616937, 63.39787831032167 1.00962469350713 C63.35338470244878 1.7026485507212819, 63.308891094575884 2.395672407935434, 63.268504557899746 3.02472531609196 C63.213240612682085 3.4533415620998147, 63.157976667464425 3.8819578081076695, 63.01028867755518 5.027396693551435 C62.91664445143047 5.508240002987614, 62.82300022530576 5.989083312423793, 62.624291733727446 7.0094094196239 C62.49461225015247 7.503933493938988, 62.364932766577496 7.998457568254077, 62.112099870654816 8.96261897887751 C61.96237111616138 9.413578131374434, 61.81264236166793 9.86453728387136, 61.475817794567455 10.878999214271184 C61.303578564926305 11.304433441503788, 61.131339335285155 11.729867668736391, 60.71806012499809 12.750675308355405 C60.5163295793094 13.169573102820193, 60.3145990336207 13.58847089728498, 59.84194065074951 14.569956142586303 C59.44856913474758 15.268427102433082, 59.05519761874566 15.966898062279858, 58.85105953466841 16.329365901781536 C58.54444439914881 16.8004090876319, 58.2378292636292 17.271452273482257, 57.74948851980412 18.021674793848334 C57.34908348490136 18.55818106296894, 56.948678449998596 19.094687332089546, 56.54175419774295 19.639928758550102 C56.251447805078136 19.980939166275892, 55.961141412413326 20.32194957400168, 55.23281940787245 21.177478043231467 C54.71979143425321 21.707221546373297, 54.20676346063397 22.23696504951513, 53.82806284400983 22.628004528078414 C53.43478869434784 22.98516570533764, 53.04151454468584 23.34232688259686, 52.333256952195356 23.985547688627715 C52.008926429961384 24.24419264931164, 51.68459590772741 24.502837609995566, 50.75454421047331 25.24452908884063 C50.40511513425042 25.488275685872807, 50.055686058027526 25.732022282904985, 49.0984118881323 26.399775304092973 C48.41622560418544 26.813320638393154, 47.73403932023858 27.226865972693332, 47.37166538812404 27.446539179886766 C46.71963504791993 27.786702990725885, 46.06760470771582 28.126866801565004, 45.581400282203084 28.3805193389262 C44.903550640362106 28.680583267674002, 44.22570099852113 28.980647196421806, 43.734973153700295 29.197877856399682 C42.98000354873986 29.475713649887645, 42.22503394377943 29.75354944337561, 41.83997136774407 29.895256030836055 C41.379202937675586 30.032009682257538, 40.9184345076071 30.16876333367902, 39.90418189314951 30.46978818572942 C39.25588396819658 30.617757956560602, 38.60758604324364 30.765727727391784, 37.93555930409324 30.919113445218557 C37.1727283591465 31.042442036555215, 36.40989741419975 31.165770627891874, 35.94219309306196 31.24138543543225 C35.20655042157473 31.31235199921087, 34.470907750087505 31.383318562989487, 33.93227442939246 31.435279871635593 C33.461522160314836 31.45037598064121, 32.990769891237214 31.465472089646823, 31.914062500000007 31.5 C31.914062500000007 31.5, 31.914062500000004 31.5, 31.9140625 31.5 C15.750019063354141 31.5, -0.41402437329171704 31.5, -31.914062499999993 31.5 C-32.7193766093009 31.474175143963542, -33.52469071860182 31.448350287927084, -33.93227442939244 31.435279871635593 C-34.554492363670484 31.37525525584234, -35.176710297948524 31.315230640049087, -35.942193093061945 31.24138543543225 C-36.622081856182284 31.131466292827056, -37.30197061930263 31.021547150221867, -37.935559304093225 30.919113445218557 C-38.62971205726324 30.760677609077543, -39.32386481043326 30.602241772936534, -39.90418189314947 30.469788185729428 C-40.447913456034456 30.30841151197038, -40.99164501891944 30.147034838211333, -41.839971367744035 29.89525603083607 C-42.55303107077911 29.632843468667524, -43.266090773814184 29.370430906498978, -43.73497315370029 29.197877856399685 C-44.22997824686777 28.978753785458814, -44.72498334003526 28.759629714517942, -45.58140028220308 28.380519338926206 C-46.07701661842018 28.121956613779158, -46.572632954637285 27.86339388863211, -47.37166538812403 27.446539179886773 C-47.927272477436794 27.109726897235696, -48.48287956674956 26.77291461458462, -49.09841188813226 26.399775304092994 C-49.74396848082448 25.949462970725396, -50.389525073516694 25.499150637357797, -50.7545442104733 25.244529088840636 C-51.194282305993674 24.893849659585307, -51.63402040151406 24.543170230329977, -52.33325695219533 23.98554768862774 C-52.87476238910399 23.493766778276033, -53.41626782601266 23.001985867924326, -53.82806284400981 22.628004528078435 C-54.1778173860925 22.266854247996115, -54.52757192817519 21.905703967913794, -55.23281940787244 21.177478043231478 C-55.70520831656053 20.62258315139608, -56.17759722524862 20.067688259560676, -56.54175419774293 19.639928758550113 C-56.88877166311187 19.1749569688972, -57.235789128480796 18.70998517924429, -57.7494885198041 18.021674793848355 C-58.18648717557655 17.350327508012175, -58.623485831348994 16.678980222175994, -58.851059534668394 16.329365901781557 C-59.22454162605149 15.666210629368145, -59.59802371743459 15.003055356954732, -59.8419406507495 14.569956142586314 C-60.14956057214844 13.931176793789518, -60.457180493547376 13.292397444992725, -60.71806012499809 12.750675308355417 C-60.96247145631076 12.146974594641504, -61.20688278762342 11.54327388092759, -61.47581779456745 10.878999214271209 C-61.61692952069577 10.453993178273004, -61.758041246824085 10.028987142274799, -62.11209987065481 8.962618978877522 C-62.296770767434694 8.258388812582874, -62.48144166421457 7.554158646288227, -62.62429173372744 7.009409419623911 C-62.758434967380914 6.320612265995784, -62.8925782010344 5.631815112367658, -63.01028867755518 5.027396693551461 C-63.062418661219105 4.623086834483716, -63.11454864488302 4.21877697541597, -63.268504557899746 3.024725316091999 C-63.318263073214084 2.2496962757205425, -63.36802158852842 1.4746672353490857, -63.39787831032167 1.0096246935071416 C-63.39787831032167 0.39090558956654153, -63.39787831032167 -0.2278135143740585, -63.39787831032167 -1.0096246935071262 C-63.35582169597835 -1.664690409392498, -63.31376508163502 -2.3197561252778693, -63.268504557899746 -3.024725316091956 C-63.1905615627406 -3.6292357949610254, -63.11261856758145 -4.2337462738300955, -63.01028867755518 -5.027396693551446 C-62.926371749955806 -5.458292380925306, -62.84245482235643 -5.889188068299164, -62.624291733727446 -7.009409419623896 C-62.47668022341228 -7.572316083688896, -62.32906871309711 -8.135222747753895, -62.112099870654816 -8.962618978877506 C-61.91110621244265 -9.56797985342206, -61.710112554230484 -10.173340727966613, -61.47581779456746 -10.878999214271168 C-61.307184111543094 -11.295527671651826, -61.13855042851872 -11.712056129032483, -60.71806012499809 -12.750675308355401 C-60.45081157046636 -13.305622650043572, -60.18356301593463 -13.860569991731742, -59.84194065074951 -14.5699561425863 C-59.572630743558115 -15.048143153389846, -59.303320836366716 -15.526330164193395, -58.8510595346684 -16.329365901781546 C-58.54450842768609 -16.800310722604554, -58.23795732070378 -17.271255543427564, -57.74948851980411 -18.021674793848344 C-57.415394312847006 -18.469330594562475, -57.081300105889895 -18.916986395276602, -56.54175419774295 -19.639928758550102 C-56.211301999325634 -20.02809671407384, -55.88084980090832 -20.416264669597577, -55.232819407872455 -21.177478043231467 C-54.820916269131544 -21.602801851858075, -54.409013130390626 -22.028125660484687, -53.828062844009835 -22.628004528078403 C-53.51176103674754 -22.915261460546805, -53.19545922948524 -23.202518393015204, -52.333256952195356 -23.98554768862771 C-51.93322531019645 -24.304562277832776, -51.533193668197534 -24.62357686703784, -50.75454421047331 -25.244529088840626 C-50.10745856034699 -25.69590802648243, -49.46037291022066 -26.147286964124234, -49.098411888132304 -26.39977530409297 C-48.5544780810735 -26.729511174441875, -48.0105442740147 -27.059247044790776, -47.37166538812404 -27.446539179886763 C-46.705563300735626 -27.79404421221855, -46.03946121334722 -28.141549244550337, -45.58140028220309 -28.3805193389262 C-45.037591081709564 -28.621247540457905, -44.49378188121604 -28.861975741989607, -43.7349731537003 -29.19787785639968 C-43.249568562297526 -29.376511233066758, -42.76416397089475 -29.555144609733834, -41.83997136774408 -29.895256030836055 C-41.227862113341665 -30.07692684451565, -40.61575285893925 -30.258597658195242, -39.90418189314951 -30.469788185729417 C-39.417390999925765 -30.58089503050029, -38.93060010670202 -30.69200187527116, -37.93555930409324 -30.919113445218553 C-37.30669268930065 -31.020783722564786, -36.67782607450805 -31.12245399991102, -35.94219309306196 -31.24138543543225 C-35.242568149583896 -31.308877412307478, -34.54294320610584 -31.37636938918271, -33.93227442939246 -31.435279871635593 C-33.50930436479519 -31.448843698345943, -33.086334300197926 -31.46240752505629, -31.91406250000001 -31.5 C-31.914062500000007 -31.5, -31.914062500000004 -31.5, -31.9140625 -31.5" stroke="none" stroke-width="0" fill="#fafafa" style="fill:#fafafa !important;stroke:#888 !important;stroke-dasharray:5 5 !important"/><path d="M-31.9140625 -31.5 C-10.132058528110996 -31.5, 11.649945443778009 -31.5, 31.9140625 -31.5 M-31.9140625 -31.5 C-10.485909586957018 -31.5, 10.942243326085965 -31.5, 31.9140625 -31.5 M31.9140625 -31.5 C31.9140625 -31.5, 31.914062499999996 -31.5, 31.914062499999996 -31.5 M31.9140625 -31.5 C31.9140625 -31.5, 31.914062499999996 -31.5, 31.914062499999996 -31.5 M31.914062499999996 -31.5 C32.59536831867359 -31.478151848476465, 33.276674137347186 -31.45630369695293, 33.93227442939246 -31.435279871635593 M31.914062499999996 -31.5 C32.55262163588519 -31.47952265139212, 33.191180771770384 -31.459045302784236, 33.93227442939246 -31.435279871635593 M33.93227442939246 -31.435279871635593 C34.35366473519386 -31.394628855630923, 34.775055040995255 -31.35397783962625, 35.94219309306194 -31.241385435432253 M33.93227442939246 -31.435279871635593 C34.43576400692705 -31.38670883762564, 34.93925358446164 -31.33813780361569, 35.94219309306194 -31.241385435432253 M35.94219309306194 -31.241385435432253 C36.39074453927636 -31.168867116176724, 36.839295985490786 -31.096348796921195, 37.935559304093225 -30.91911344521856 M35.94219309306194 -31.241385435432253 C36.672631094246 -31.123293884032115, 37.40306909543007 -31.005202332631978, 37.935559304093225 -30.91911344521856 M37.935559304093225 -30.91911344521856 C38.34656210594494 -30.825304737739838, 38.75756490779666 -30.731496030261116, 39.90418189314948 -30.469788185729428 M37.935559304093225 -30.91911344521856 C38.40865532900214 -30.811132364773183, 38.88175135391104 -30.703151284327802, 39.90418189314948 -30.469788185729428 M39.90418189314948 -30.469788185729428 C40.42190707215425 -30.316130070195733, 40.939632251159026 -30.162471954662035, 41.83997136774405 -29.895256030836062 M39.90418189314948 -30.469788185729428 C40.38509521492017 -30.327055636193425, 40.86600853669086 -30.18432308665742, 41.83997136774405 -29.895256030836062 M41.83997136774405 -29.895256030836062 C42.24070652042631 -29.747781790293846, 42.64144167310857 -29.600307549751633, 43.73497315370028 -29.197877856399685 M41.83997136774405 -29.895256030836062 C42.36747831460811 -29.701128598169326, 42.89498526147217 -29.507001165502587, 43.73497315370028 -29.197877856399685 M43.73497315370028 -29.197877856399685 C44.16078763193509 -29.00938241822284, 44.58660211016989 -28.820886980045998, 45.58140028220308 -28.380519338926202 M43.73497315370028 -29.197877856399685 C44.332375643234094 -28.93342549559828, 44.92977813276791 -28.66897313479687, 45.58140028220308 -28.380519338926202 M45.58140028220308 -28.380519338926202 C46.165511640707614 -28.075788817335567, 46.74962299921214 -27.771058295744936, 47.371665388124036 -27.44653917988677 M45.58140028220308 -28.380519338926202 C45.98792796109654 -28.16843410924089, 46.39445563999 -27.956348879555577, 47.371665388124036 -27.44653917988677 M47.371665388124036 -27.44653917988677 C47.76851481940389 -27.2059667224988, 48.165364250683744 -26.96539426511083, 49.098411888132276 -26.399775304092984 M47.371665388124036 -27.44653917988677 C47.822065448533 -27.173504016422303, 48.27246550894197 -26.900468852957836, 49.098411888132276 -26.399775304092984 M49.098411888132276 -26.399775304092984 C49.610603303715976 -26.042492744990817, 50.12279471929968 -25.685210185888653, 50.7545442104733 -25.244529088840633 M49.098411888132276 -26.399775304092984 C49.53029872873264 -26.09850974017017, 49.96218556933301 -25.797244176247354, 50.7545442104733 -25.244529088840633 M50.7545442104733 -25.244529088840633 C51.23230843071789 -24.863524837035417, 51.71007265096249 -24.482520585230205, 52.33325695219533 -23.985547688627737 M50.7545442104733 -25.244529088840633 C51.1606125628246 -24.920700383773145, 51.56668091517591 -24.596871678705657, 52.33325695219533 -23.985547688627737 M52.33325695219533 -23.985547688627737 C52.65535946286872 -23.693022710799585, 52.97746197354211 -23.40049773297143, 53.82806284400982 -22.62800452807842 M52.33325695219533 -23.985547688627737 C52.68221882200021 -23.668629751496063, 53.0311806918051 -23.35171181436439, 53.82806284400982 -22.62800452807842 M53.82806284400982 -22.62800452807842 C54.140840938457806 -22.305035466001748, 54.45361903290579 -21.982066403925074, 55.232819407872434 -21.177478043231485 M53.82806284400982 -22.62800452807842 C54.13785172248273 -22.308122076915208, 54.44764060095564 -21.988239625751998, 55.232819407872434 -21.177478043231485 M55.232819407872434 -21.177478043231485 C55.73857168645894 -20.58339263868388, 56.24432396504544 -19.989307234136273, 56.54175419774294 -19.63992875855011 M55.232819407872434 -21.177478043231485 C55.73489642793413 -20.58770980647525, 56.23697344799583 -19.997941569719014, 56.54175419774294 -19.63992875855011 M56.54175419774294 -19.63992875855011 C56.99980946787435 -19.026176426267586, 57.45786473800577 -18.41242409398506, 57.7494885198041 -18.02167479384835 M56.54175419774294 -19.63992875855011 C56.89746547071623 -19.163308058729523, 57.253176743689515 -18.68668735890894, 57.7494885198041 -18.02167479384835 M57.7494885198041 -18.02167479384835 C57.986862839032476 -17.65700409558387, 58.22423715826085 -17.292333397319382, 58.8510595346684 -16.329365901781543 M57.7494885198041 -18.02167479384835 C57.999688791497306 -17.637299988347408, 58.24988906319051 -17.252925182846468, 58.8510595346684 -16.329365901781543 M58.8510595346684 -16.329365901781543 C59.050314180699495 -15.975569101032535, 59.249568826730595 -15.621772300283528, 59.84194065074951 -14.56995614258631 M58.8510595346684 -16.329365901781543 C59.08767001287878 -15.909240038310024, 59.32428049108916 -15.489114174838505, 59.84194065074951 -14.56995614258631 M59.84194065074951 -14.56995614258631 C60.101267964137975 -14.031457427619538, 60.36059527752644 -13.492958712652765, 60.71806012499809 -12.750675308355413 M59.84194065074951 -14.56995614258631 C60.0326615444089 -14.173920126129172, 60.2233824380683 -13.777884109672033, 60.71806012499809 -12.750675308355413 M60.71806012499809 -12.750675308355413 C60.886065375192544 -12.335699092214565, 61.054070625387006 -11.920722876073715, 61.47581779456745 -10.878999214271206 M60.71806012499809 -12.750675308355413 C60.962654988946156 -12.146521265483704, 61.20724985289422 -11.542367222611997, 61.47581779456745 -10.878999214271206 M61.47581779456745 -10.878999214271206 C61.62204977887154 -10.43857177644993, 61.76828176317563 -9.998144338628652, 62.11209987065481 -8.962618978877531 M61.47581779456745 -10.878999214271206 C61.65055020057104 -10.352733047216562, 61.82528260657463 -9.826466880161917, 62.11209987065481 -8.962618978877531 M62.11209987065481 -8.962618978877531 C62.28228450781795 -8.313631198886172, 62.45246914498108 -7.664643418894814, 62.624291733727446 -7.009409419623907 M62.11209987065481 -8.962618978877531 C62.225387533750315 -8.530604020310596, 62.33867519684582 -8.098589061743663, 62.624291733727446 -7.009409419623907 M62.624291733727446 -7.009409419623907 C62.74784663086539 -6.374981136157325, 62.87140152800333 -5.740552852690744, 63.01028867755518 -5.027396693551458 M62.624291733727446 -7.009409419623907 C62.77570617520311 -6.23192826409991, 62.92712061667878 -5.454447108575912, 63.01028867755518 -5.027396693551458 M63.01028867755518 -5.027396693551458 C63.094693885189656 -4.372766570831974, 63.179099092824124 -3.718136448112491, 63.268504557899746 -3.024725316091981 M63.01028867755518 -5.027396693551458 C63.0768669347364 -4.51102887821785, 63.14344519191762 -3.9946610628842416, 63.268504557899746 -3.024725316091981 M63.268504557899746 -3.024725316091981 C63.298659156962124 -2.5550430953411563, 63.32881375602451 -2.0853608745903314, 63.39787831032167 -1.0096246935071378 M63.268504557899746 -3.024725316091981 C63.30717437303199 -2.42241173169429, 63.345844188164236 -1.820098147296599, 63.39787831032167 -1.0096246935071378 M63.39787831032167 -1.0096246935071378 C63.39787831032167 -0.35812310847748463, 63.39787831032167 0.29337847655216853, 63.39787831032167 1.00962469350713 M63.39787831032167 -1.0096246935071378 C63.39787831032167 -0.3246302244594045, 63.39787831032167 0.36036424458832883, 63.39787831032167 1.00962469350713 M63.39787831032167 1.00962469350713 C63.35930447707676 1.610443282534391, 63.32073064383185 2.2112618715616517, 63.268504557899746 3.02472531609196 M63.39787831032167 1.00962469350713 C63.34905561040692 1.7700776536533718, 63.30023291049218 2.5305306137996135, 63.268504557899746 3.02472531609196 M63.268504557899746 3.02472531609196 C63.19412499708127 3.601598501894471, 63.11974543626279 4.178471687696982, 63.01028867755518 5.027396693551435 M63.268504557899746 3.02472531609196 C63.185928013124936 3.6651726907821978, 63.103351468350134 4.305620065472436, 63.01028867755518 5.027396693551435 M63.01028867755518 5.027396693551435 C62.87439821137819 5.725165516910087, 62.738507745201204 6.422934340268739, 62.624291733727446 7.0094094196239 M63.01028867755518 5.027396693551435 C62.92887274653248 5.445450292089891, 62.84745681550978 5.863503890628347, 62.624291733727446 7.0094094196239 M62.624291733727446 7.0094094196239 C62.512207376707266 7.4368356506094795, 62.40012301968708 7.86426188159506, 62.112099870654816 8.96261897887751 M62.624291733727446 7.0094094196239 C62.4496116541648 7.675540269821674, 62.27493157460214 8.341671120019448, 62.112099870654816 8.96261897887751 M62.112099870654816 8.96261897887751 C61.904205987226234 9.588762232372314, 61.69631210379765 10.214905485867119, 61.475817794567455 10.878999214271184 M62.112099870654816 8.96261897887751 C61.88313981639707 9.652210182471263, 61.654179762139314 10.341801386065015, 61.475817794567455 10.878999214271184 M61.475817794567455 10.878999214271184 C61.21457894446937 11.524264224723016, 60.95334009437129 12.169529235174847, 60.71806012499809 12.750675308355405 M61.475817794567455 10.878999214271184 C61.186976433326834 11.592442960903336, 60.89813507208621 12.305886707535487, 60.71806012499809 12.750675308355405 M60.71806012499809 12.750675308355405 C60.506552008248505 13.189876438334636, 60.29504389149892 13.62907756831387, 59.84194065074951 14.569956142586303 M60.71806012499809 12.750675308355405 C60.37889080889792 13.45496765029822, 60.039721492797746 14.159259992241038, 59.84194065074951 14.569956142586303 M59.84194065074951 14.569956142586303 C59.618467274135085 14.966755751898411, 59.39499389752066 15.36355536121052, 58.85105953466841 16.329365901781536 M59.84194065074951 14.569956142586303 C59.54586502511333 15.095668396811456, 59.249789399477145 15.62138065103661, 58.85105953466841 16.329365901781536 M58.85105953466841 16.329365901781536 C58.52364220111271 16.83236684998765, 58.196224867557014 17.335367798193765, 57.74948851980412 18.021674793848334 M58.85105953466841 16.329365901781536 C58.55695088497002 16.781195766948837, 58.262842235271634 17.23302563211614, 57.74948851980412 18.021674793848334 M57.74948851980412 18.021674793848334 C57.27647532838906 18.655469377956273, 56.80346213697401 19.289263962064215, 56.54175419774295 19.639928758550102 M57.74948851980412 18.021674793848334 C57.34136075091554 18.56852882295439, 56.933232982026965 19.115382852060446, 56.54175419774295 19.639928758550102 M56.54175419774295 19.639928758550102 C56.24434239629065 19.989285583746888, 55.94693059483834 20.338642408943677, 55.23281940787245 21.177478043231467 M56.54175419774295 19.639928758550102 C56.116234709000025 20.13976816277236, 55.69071522025711 20.639607566994616, 55.23281940787245 21.177478043231467 M55.23281940787245 21.177478043231467 C54.80766661636976 21.616483206151333, 54.38251382486707 22.055488369071202, 53.82806284400983 22.628004528078414 M55.23281940787245 21.177478043231467 C54.8870712823989 21.534491369231922, 54.54132315692535 21.89150469523238, 53.82806284400983 22.628004528078414 M53.82806284400983 22.628004528078414 C53.29113220073099 23.11563073189792, 52.754201557452156 23.603256935717425, 52.333256952195356 23.985547688627715 M53.82806284400983 22.628004528078414 C53.48376098270365 22.94069036878863, 53.13945912139748 23.253376209498846, 52.333256952195356 23.985547688627715 M52.333256952195356 23.985547688627715 C51.86372039110157 24.359990601207368, 51.39418383000779 24.734433513787017, 50.75454421047331 25.24452908884063 M52.333256952195356 23.985547688627715 C51.978094310597065 24.26878044402753, 51.622931668998774 24.552013199427346, 50.75454421047331 25.24452908884063 M50.75454421047331 25.24452908884063 C50.335007488838095 25.53717974440139, 49.915470767202876 25.829830399962148, 49.0984118881323 26.399775304092973 M50.75454421047331 25.24452908884063 C50.19644639755046 25.633833963470675, 49.638348584627614 26.023138838100717, 49.0984118881323 26.399775304092973 M49.0984118881323 26.399775304092973 C48.483360338096354 26.772623168168867, 47.86830878806041 27.14547103224476, 47.37166538812404 27.446539179886766 M49.0984118881323 26.399775304092973 C48.6596327618947 26.665765788970567, 48.2208536356571 26.931756273848162, 47.37166538812404 27.446539179886766 M47.37166538812404 27.446539179886766 C46.8059195281185 27.741688432674138, 46.24017366811295 28.036837685461514, 45.581400282203084 28.3805193389262 M47.37166538812404 27.446539179886766 C46.74190650712117 27.775083984726148, 46.1121476261183 28.10362878956553, 45.581400282203084 28.3805193389262 M45.581400282203084 28.3805193389262 C44.94592890496441 28.66182366704112, 44.31045752772573 28.943127995156036, 43.734973153700295 29.197877856399682 M45.581400282203084 28.3805193389262 C45.18013904215784 28.558145786902458, 44.778877802112596 28.735772234878713, 43.734973153700295 29.197877856399682 M43.734973153700295 29.197877856399682 C43.28477285896738 29.363555726467297, 42.83457256423447 29.529233596534915, 41.83997136774407 29.895256030836055 M43.734973153700295 29.197877856399682 C43.23770527569476 29.380877032199592, 42.74043739768922 29.563876207999506, 41.83997136774407 29.895256030836055 M41.83997136774407 29.895256030836055 C41.21898628869299 30.07956114268122, 40.5980012096419 30.263866254526388, 39.90418189314951 30.46978818572942 M41.83997136774407 29.895256030836055 C41.381141125645726 30.031434438241757, 40.92231088354738 30.167612845647458, 39.90418189314951 30.46978818572942 M39.90418189314951 30.46978818572942 C39.217346126319455 30.626553967486135, 38.530510359489405 30.78331974924285, 37.93555930409324 30.919113445218557 M39.90418189314951 30.46978818572942 C39.37909870495199 30.58963499694748, 38.854015516754465 30.70948180816554, 37.93555930409324 30.919113445218557 M37.93555930409324 30.919113445218557 C37.42778809812117 31.001205955975607, 36.92001689214911 31.083298466732657, 35.94219309306196 31.24138543543225 M37.93555930409324 30.919113445218557 C37.37417363560825 31.00987392648833, 36.81278796712327 31.1006344077581, 35.94219309306196 31.24138543543225 M35.94219309306196 31.24138543543225 C35.5144564566677 31.282648674316636, 35.086719820273444 31.32391191320102, 33.93227442939246 31.435279871635593 M35.94219309306196 31.24138543543225 C35.22485103655824 31.310586560893118, 34.50750898005453 31.37978768635399, 33.93227442939246 31.435279871635593 M33.93227442939246 31.435279871635593 C33.36411600137978 31.45349960656867, 32.795957573367104 31.471719341501743, 31.914062500000007 31.5 M33.93227442939246 31.435279871635593 C33.30512076776615 31.455391468883402, 32.677967106139846 31.47550306613121, 31.914062500000007 31.5 M31.914062500000007 31.5 C31.914062500000004 31.5, 31.914062500000004 31.5, 31.9140625 31.5 M31.914062500000007 31.5 C31.914062500000004 31.5, 31.914062500000004 31.5, 31.9140625 31.5 M31.9140625 31.5 C11.639632159474154 31.5, -8.634798181051693 31.5, -31.914062499999993 31.5 M31.9140625 31.5 C19.021607184110792 31.5, 6.129151868221587 31.5, -31.914062499999993 31.5 M-31.914062499999993 31.5 C-32.460212494463924 31.482486032694016, -33.006362488927856 31.464972065388032, -33.93227442939244 31.435279871635593 M-31.914062499999993 31.5 C-32.64230006588585 31.47664683869047, -33.3705376317717 31.453293677380945, -33.93227442939244 31.435279871635593 M-33.93227442939244 31.435279871635593 C-34.474617698998706 31.38296066867989, -35.01696096860498 31.33064146572418, -35.942193093061945 31.24138543543225 M-33.93227442939244 31.435279871635593 C-34.57401072175474 31.373372343312212, -35.215747014117035 31.31146481498883, -35.942193093061945 31.24138543543225 M-35.942193093061945 31.24138543543225 C-36.341076478434985 31.17689706307199, -36.73995986380803 31.112408690711728, -37.935559304093225 30.919113445218557 M-35.942193093061945 31.24138543543225 C-36.50092157201348 31.151054547959433, -37.05965005096501 31.060723660486616, -37.935559304093225 30.919113445218557 M-37.935559304093225 30.919113445218557 C-38.64392188639194 30.75743430830672, -39.35228446869064 30.595755171394885, -39.90418189314947 30.469788185729428 M-37.935559304093225 30.919113445218557 C-38.64651635486063 30.75684213780923, -39.35747340562803 30.594570830399906, -39.90418189314947 30.469788185729428 M-39.90418189314947 30.469788185729428 C-40.3553626649048 30.335880100968645, -40.806543436660135 30.20197201620786, -41.839971367744035 29.89525603083607 M-39.90418189314947 30.469788185729428 C-40.593744221813736 30.265129706168402, -41.283306550478 30.060471226607376, -41.839971367744035 29.89525603083607 M-41.839971367744035 29.89525603083607 C-42.410775072594014 29.68519499099967, -42.981578777444 29.475133951163272, -43.73497315370029 29.197877856399685 M-41.839971367744035 29.89525603083607 C-42.5599960559712 29.630280289733218, -43.28002074419836 29.365304548630366, -43.73497315370029 29.197877856399685 M-43.73497315370029 29.197877856399685 C-44.11106697659278 29.031392277432047, -44.48716079948527 28.86490669846441, -45.58140028220308 28.380519338926206 M-43.73497315370029 29.197877856399685 C-44.25435677739151 28.967962133159368, -44.77374040108273 28.73804640991905, -45.58140028220308 28.380519338926206 M-45.58140028220308 28.380519338926206 C-45.984266506357336 28.17034428783306, -46.3871327305116 27.96016923673991, -47.37166538812403 27.446539179886773 M-45.58140028220308 28.380519338926206 C-46.28066574392149 28.015712995448617, -46.9799312056399 27.650906651971027, -47.37166538812403 27.446539179886773 M-47.37166538812403 27.446539179886773 C-47.77375867544837 27.202787866148313, -48.17585196277272 26.959036552409856, -49.09841188813226 26.399775304092994 M-47.37166538812403 27.446539179886773 C-48.0366488764895 27.04342228136288, -48.70163236485497 26.640305382838985, -49.09841188813226 26.399775304092994 M-49.09841188813226 26.399775304092994 C-49.44623752697534 26.15714719556529, -49.79406316581842 25.914519087037583, -50.7545442104733 25.244529088840636 M-49.09841188813226 26.399775304092994 C-49.757913050804135 25.939735842358296, -50.417414213476 25.479696380623594, -50.7545442104733 25.244529088840636 M-50.7545442104733 25.244529088840636 C-51.168933294080404 24.914064822020602, -51.583322377687516 24.58360055520057, -52.33325695219533 23.98554768862774 M-50.7545442104733 25.244529088840636 C-51.283423239404485 24.82276213733005, -51.81230226833567 24.400995185819458, -52.33325695219533 23.98554768862774 M-52.33325695219533 23.98554768862774 C-52.90980521798129 23.461941808272115, -53.486353483767246 22.938335927916494, -53.82806284400981 22.628004528078435 M-52.33325695219533 23.98554768862774 C-52.751000057539045 23.606164453231465, -53.16874316288277 23.226781217835185, -53.82806284400981 22.628004528078435 M-53.82806284400981 22.628004528078435 C-54.3309468882395 22.1087354648634, -54.83383093246919 21.58946640164837, -55.23281940787244 21.177478043231478 M-53.82806284400981 22.628004528078435 C-54.25071888657684 22.19157746342153, -54.67337492914388 21.755150398764624, -55.23281940787244 21.177478043231478 M-55.23281940787244 21.177478043231478 C-55.700852247550976 20.627700037922047, -56.16888508722951 20.077922032612616, -56.54175419774293 19.639928758550113 M-55.23281940787244 21.177478043231478 C-55.56530334318489 20.78692349394161, -55.89778727849733 20.396368944651744, -56.54175419774293 19.639928758550113 M-56.54175419774293 19.639928758550113 C-56.92765862894978 19.12285197734986, -57.31356306015663 18.605775196149608, -57.7494885198041 18.021674793848355 M-56.54175419774293 19.639928758550113 C-56.81506191750952 19.273721312908382, -57.088369637276095 18.90751386726665, -57.7494885198041 18.021674793848355 M-57.7494885198041 18.021674793848355 C-58.07550557614928 17.520825047464683, -58.401522632494455 17.019975301081008, -58.851059534668394 16.329365901781557 M-57.7494885198041 18.021674793848355 C-57.99611113288542 17.642796232711135, -58.242733745966724 17.26391767157391, -58.851059534668394 16.329365901781557 M-58.851059534668394 16.329365901781557 C-59.24265052854978 15.634056439257217, -59.63424152243116 14.938746976732878, -59.8419406507495 14.569956142586314 M-58.851059534668394 16.329365901781557 C-59.09697055794273 15.892725978766673, -59.342881581217064 15.456086055751792, -59.8419406507495 14.569956142586314 M-59.8419406507495 14.569956142586314 C-60.19028953339251 13.846602234306044, -60.53863841603552 13.123248326025774, -60.71806012499809 12.750675308355417 M-59.8419406507495 14.569956142586314 C-60.0917565928122 14.051207993688235, -60.341572534874906 13.532459844790157, -60.71806012499809 12.750675308355417 M-60.71806012499809 12.750675308355417 C-60.91832416810229 12.256019250046165, -61.11858821120649 11.761363191736914, -61.47581779456745 10.878999214271209 M-60.71806012499809 12.750675308355417 C-60.988402941156856 12.082923325720477, -61.25874575731563 11.415171343085536, -61.47581779456745 10.878999214271209 M-61.47581779456745 10.878999214271209 C-61.71462964643494 10.159735965947688, -61.95344149830243 9.440472717624166, -62.11209987065481 8.962618978877522 M-61.47581779456745 10.878999214271209 C-61.63672522991013 10.394371656137302, -61.7976326652528 9.909744098003394, -62.11209987065481 8.962618978877522 M-62.11209987065481 8.962618978877522 C-62.24977474631079 8.437605009332703, -62.38744962196677 7.912591039787882, -62.62429173372744 7.009409419623911 M-62.11209987065481 8.962618978877522 C-62.22932506467508 8.51558850835776, -62.34655025869535 8.068558037837999, -62.62429173372744 7.009409419623911 M-62.62429173372744 7.009409419623911 C-62.77608923436782 6.2299613362487, -62.9278867350082 5.450513252873489, -63.01028867755518 5.027396693551461 M-62.62429173372744 7.009409419623911 C-62.728250914456524 6.475600998360683, -62.832210095185616 5.941792577097456, -63.01028867755518 5.027396693551461 M-63.01028867755518 5.027396693551461 C-63.087867506547006 4.425710615563419, -63.16544633553883 3.8240245375753785, -63.268504557899746 3.024725316091999 M-63.01028867755518 5.027396693551461 C-63.08758902659762 4.427870451058803, -63.16488937564005 3.8283442085661443, -63.268504557899746 3.024725316091999 M-63.268504557899746 3.024725316091999 C-63.319589821543374 2.229031099559866, -63.370675085187 1.4333368830277333, -63.39787831032167 1.0096246935071416 M-63.268504557899746 3.024725316091999 C-63.31795989326757 2.2544185481099417, -63.367415228635394 1.4841117801278843, -63.39787831032167 1.0096246935071416 M-63.39787831032167 1.0096246935071416 C-63.39787831032167 0.4049354366125675, -63.39787831032167 -0.1997538202820066, -63.39787831032167 -1.0096246935071262 M-63.39787831032167 1.0096246935071416 C-63.39787831032167 0.2756649345997224, -63.39787831032167 -0.45829482430769675, -63.39787831032167 -1.0096246935071262 M-63.39787831032167 -1.0096246935071262 C-63.35265015027146 -1.714089793802925, -63.30742199022124 -2.4185548940987234, -63.268504557899746 -3.024725316091956 M-63.39787831032167 -1.0096246935071262 C-63.35716510518193 -1.6437657266662873, -63.31645190004219 -2.2779067598254485, -63.268504557899746 -3.024725316091956 M-63.268504557899746 -3.024725316091956 C-63.17641817163873 -3.7389291434186065, -63.08433178537772 -4.453132970745258, -63.01028867755518 -5.027396693551446 M-63.268504557899746 -3.024725316091956 C-63.19829282014262 -3.569273689260396, -63.12808108238549 -4.113822062428836, -63.01028867755518 -5.027396693551446 M-63.01028867755518 -5.027396693551446 C-62.90603757241851 -5.56270408494937, -62.80178646728184 -6.098011476347294, -62.624291733727446 -7.009409419623896 M-63.01028867755518 -5.027396693551446 C-62.90087022096344 -5.5892373425510495, -62.7914517643717 -6.151077991550652, -62.624291733727446 -7.009409419623896 M-62.624291733727446 -7.009409419623896 C-62.426449662012345 -7.763866984369858, -62.228607590297244 -8.51832454911582, -62.112099870654816 -8.962618978877506 M-62.624291733727446 -7.009409419623896 C-62.45455523758064 -7.656688243694425, -62.284818741433845 -8.303967067764953, -62.112099870654816 -8.962618978877506 M-62.112099870654816 -8.962618978877506 C-61.97593519055061 -9.372725300455832, -61.8397705104464 -9.782831622034156, -61.47581779456746 -10.878999214271168 M-62.112099870654816 -8.962618978877506 C-61.89547216044498 -9.61506712709112, -61.678844450235154 -10.267515275304733, -61.47581779456746 -10.878999214271168 M-61.47581779456746 -10.878999214271168 C-61.25572058457738 -11.422643578236737, -61.035623374587296 -11.966287942202307, -60.71806012499809 -12.750675308355401 M-61.47581779456746 -10.878999214271168 C-61.29690199737408 -11.32092469244044, -61.117986200180695 -11.762850170609711, -60.71806012499809 -12.750675308355401 M-60.71806012499809 -12.750675308355401 C-60.49562032740791 -13.212576307500628, -60.273180529817736 -13.674477306645855, -59.84194065074951 -14.5699561425863 M-60.71806012499809 -12.750675308355401 C-60.41496815614782 -13.380052266802217, -60.11187618729756 -14.009429225249031, -59.84194065074951 -14.5699561425863 M-59.84194065074951 -14.5699561425863 C-59.58031473195785 -15.034499453897919, -59.31868881316619 -15.499042765209538, -58.8510595346684 -16.329365901781546 M-59.84194065074951 -14.5699561425863 C-59.613602384723904 -14.975393855671426, -59.38526411869831 -15.380831568756554, -58.8510595346684 -16.329365901781546 M-58.8510595346684 -16.329365901781546 C-58.4219065590221 -16.98866011608387, -57.992753583375794 -17.6479543303862, -57.74948851980411 -18.021674793848344 M-58.8510595346684 -16.329365901781546 C-58.472203018890724 -16.911391247235102, -58.09334650311304 -17.49341659268866, -57.74948851980411 -18.021674793848344 M-57.74948851980411 -18.021674793848344 C-57.43768525086749 -18.439462768361256, -57.12588198193087 -18.857250742874168, -56.54175419774295 -19.639928758550102 M-57.74948851980411 -18.021674793848344 C-57.47849564816889 -18.38478055388106, -57.207502776533666 -18.747886313913774, -56.54175419774295 -19.639928758550102 M-56.54175419774295 -19.639928758550102 C-56.24824028340848 -19.984706903742225, -55.95472636907401 -20.329485048934348, -55.232819407872455 -21.177478043231467 M-56.54175419774295 -19.639928758550102 C-56.224759564011286 -20.012288692836947, -55.907764930279626 -20.384648627123795, -55.232819407872455 -21.177478043231467 M-55.232819407872455 -21.177478043231467 C-54.88954910066156 -21.531932818443067, -54.54627879345067 -21.886387593654668, -53.828062844009835 -22.628004528078403 M-55.232819407872455 -21.177478043231467 C-54.86185725238139 -21.56052692533537, -54.49089509689033 -21.943575807439274, -53.828062844009835 -22.628004528078403 M-53.828062844009835 -22.628004528078403 C-53.32523091288407 -23.084663183722974, -52.822398981758305 -23.541321839367548, -52.333256952195356 -23.98554768862771 M-53.828062844009835 -22.628004528078403 C-53.43328120048246 -22.986534771380065, -53.03849955695509 -23.345065014681726, -52.333256952195356 -23.98554768862771 M-52.333256952195356 -23.98554768862771 C-52.01496245375318 -24.239379080963023, -51.696667955311 -24.493210473298333, -50.75454421047331 -25.244529088840626 M-52.333256952195356 -23.98554768862771 C-51.866260219711876 -24.357965155478325, -51.399263487228396 -24.730382622328936, -50.75454421047331 -25.244529088840626 M-50.75454421047331 -25.244529088840626 C-50.392433662256636 -25.497121731763595, -50.03032311403995 -25.749714374686565, -49.098411888132304 -26.39977530409297 M-50.75454421047331 -25.244529088840626 C-50.14559682691687 -25.66930442270223, -49.53664944336043 -26.094079756563833, -49.098411888132304 -26.39977530409297 M-49.098411888132304 -26.39977530409297 C-48.56794139421261 -26.72134963489773, -48.037470900292924 -27.042923965702496, -47.37166538812404 -27.446539179886763 M-49.098411888132304 -26.39977530409297 C-48.492737178661756 -26.766938872313688, -47.887062469191214 -27.134102440534406, -47.37166538812404 -27.446539179886763 M-47.37166538812404 -27.446539179886763 C-46.67949030809516 -27.807646475778537, -45.98731522806627 -28.168753771670307, -45.58140028220309 -28.3805193389262 M-47.37166538812404 -27.446539179886763 C-46.705305104818585 -27.79417891286309, -46.03894482151313 -28.141818645839418, -45.58140028220309 -28.3805193389262 M-45.58140028220309 -28.3805193389262 C-44.99203713099408 -28.641412923129714, -44.40267397978506 -28.902306507333233, -43.7349731537003 -29.19787785639968 M-45.58140028220309 -28.3805193389262 C-45.068800513516635 -28.607432050791815, -44.55620074483018 -28.83434476265743, -43.7349731537003 -29.19787785639968 M-43.7349731537003 -29.19787785639968 C-43.2807311961576 -29.36504309574202, -42.8264892386149 -29.53220833508436, -41.83997136774408 -29.895256030836055 M-43.7349731537003 -29.19787785639968 C-43.03148893035883 -29.456766553526215, -42.328004707017364 -29.715655250652752, -41.83997136774408 -29.895256030836055 M-41.83997136774408 -29.895256030836055 C-41.077428226101 -30.12157483260509, -40.31488508445793 -30.347893634374124, -39.90418189314951 -30.469788185729417 M-41.83997136774408 -29.895256030836055 C-41.10111982343771 -30.114543290875286, -40.36226827913136 -30.333830550914513, -39.90418189314951 -30.469788185729417 M-39.90418189314951 -30.469788185729417 C-39.51016582219446 -30.559719782729754, -39.1161497512394 -30.64965137973009, -37.93555930409324 -30.919113445218553 M-39.90418189314951 -30.469788185729417 C-39.172362755637096 -30.636821128300454, -38.440543618124686 -30.80385407087149, -37.93555930409324 -30.919113445218553 M-37.93555930409324 -30.919113445218553 C-37.4474229176819 -30.998031550619327, -36.95928653127056 -31.076949656020098, -35.94219309306196 -31.24138543543225 M-37.93555930409324 -30.919113445218553 C-37.22971435527294 -31.03322898263449, -36.52386940645264 -31.147344520050424, -35.94219309306196 -31.24138543543225 M-35.94219309306196 -31.24138543543225 C-35.372941763891475 -31.29630042653244, -34.803690434721 -31.351215417632627, -33.93227442939246 -31.435279871635593 M-35.94219309306196 -31.24138543543225 C-35.323985391982966 -31.3010231888518, -34.70577769090397 -31.360660942271352, -33.93227442939246 -31.435279871635593 M-33.93227442939246 -31.435279871635593 C-33.41907961045341 -31.45173703060585, -32.90588479151436 -31.46819418957611, -31.91406250000001 -31.5 M-33.93227442939246 -31.435279871635593 C-33.272766494773464 -31.456429007444505, -32.61325856015447 -31.477578143253417, -31.91406250000001 -31.5 M-31.91406250000001 -31.5 C-31.914062500000007 -31.5, -31.914062500000004 -31.5, -31.9140625 -31.5 M-31.91406250000001 -31.5 C-31.914062500000007 -31.5, -31.914062500000007 -31.5, -31.9140625 -31.5" stroke="#888" stroke-width="1.3" fill="none" stroke-dasharray="5 5" style="fill:#fafafa !important;stroke:#888 !important;stroke-dasharray:5 5 !important"/></g><g class="label" style="color:#666 !important" transform="translate(-48.0390625, -24)"><rect/><foreignObject width="96.078125" height="48"><div style="color: rgb(102, 102, 102) !important; display: table-cell; white-space: nowrap; line-height: 1.5; max-width: 200px; text-align: center;" xmlns="http://www.w3.org/1999/xhtml"><span style="color:#666 !important" class="nodeLabel"><p>Cloud Logger<br /><i>optional</i></p></span></div></foreignObject></g></g><g class="node default proc" id="my-svg-flowchart-proc_acquire_tension-5" data-look="classic" transform="translate(1614.578125, 129.3125)"><circle class="basic label-container" style="fill:#cfe5ff !important;stroke:#2a70c2 !important" r="64.28125" cx="0" cy="0"/><g class="label" style="color:#000 !important" transform="translate(-56.78125, -12)"><rect/><foreignObject width="113.5625" height="24"><div style="color: rgb(0, 0, 0) !important; display: table-cell; white-space: nowrap; line-height: 1.5; max-width: 200px; text-align: center;" xmlns="http://www.w3.org/1999/xhtml"><span style="color:#000 !important" class="nodeLabel"><p>Acquire Tension</p></span></div></foreignObject></g></g><g class="node default brain" id="my-svg-flowchart-proc_bite_detector-6" data-look="classic" transform="translate(711.2578125, 141.28515625)"><circle class="basic label-container" style="fill:#7fbff5 !important;stroke:#1f5a99 !important" r="57.2890625" cx="0" cy="0"/><g class="label" style="color:#000 !important;font-weight:bold !important" transform="translate(-49.7890625, -12)"><rect/><foreignObject width="99.578125" height="24"><div style="color: rgb(0, 0, 0) !important; font-weight: bold !important; display: table-cell; white-space: nowrap; line-height: 1.5; max-width: 200px; text-align: center;" xmlns="http://www.w3.org/1999/xhtml"><span style="color:#000 !important;font-weight:bold !important" class="nodeLabel"><p>Bite Detector</p></span></div></foreignObject></g></g><g class="node default proc" id="my-svg-flowchart-proc_reel_controller-7" data-look="classic" transform="translate(954.984375, 68.859375)"><circle class="basic label-container" style="fill:#cfe5ff !important;stroke:#2a70c2 !important" r="60.859375" cx="0" cy="0"/><g class="label" style="color:#000 !important" transform="translate(-53.359375, -12)"><rect/><foreignObject width="106.71875" height="24"><div style="color: rgb(0, 0, 0) !important; display: table-cell; white-space: nowrap; line-height: 1.5; max-width: 200px; text-align: center;" xmlns="http://www.w3.org/1999/xhtml"><span style="color:#000 !important" class="nodeLabel"><p>Reel Controller</p></span></div></foreignObject></g></g><g class="node default proc" id="my-svg-flowchart-proc_serve_ui-8" data-look="classic" transform="translate(437.890625, 209.4296875)"><circle class="basic label-container" style="fill:#cfe5ff !important;stroke:#2a70c2 !important" r="38.625" cx="0" cy="0"/><g class="label" style="color:#000 !important" transform="translate(-31.125, -12)"><rect/><foreignObject width="62.25" height="24"><div style="color: rgb(0, 0, 0) !important; display: table-cell; white-space: nowrap; line-height: 1.5; max-width: 200px; text-align: center;" xmlns="http://www.w3.org/1999/xhtml"><span style="color:#000 !important" class="nodeLabel"><p>Serve UI</p></span></div></foreignObject></g></g><g class="node default optional" id="my-svg-flowchart-proc_cloud_forward-9" data-look="classic" transform="translate(2158.875, 241.21484375)"><circle class="basic label-container" style="fill:#e6f0ff !important;stroke:#888 !important;stroke-dasharray:3 3 !important" r="59.96875" cx="0" cy="0"/><g class="label" style="" transform="translate(-52.46875, -12)"><rect/><foreignObject width="104.9375" height="24"><div xmlns="http://www.w3.org/1999/xhtml" style="display: table-cell; white-space: nowrap; line-height: 1.5; max-width: 200px; text-align: center;"><span class="nodeLabel"><p>Cloud Forward</p></span></div></foreignObject></g></g><g class="node default store" id="my-svg-flowchart-store_system_state-10" data-look="classic" transform="translate(1899.5625, 241.21484375)"><path d="M0,11.710963455149502 a55.078125,11.710963455149502 0,0,0 110.15625,0 a55.078125,11.710963455149502 0,0,0 -110.15625,0 l0,50.7109634551495 a55.078125,11.710963455149502 0,0,0 110.15625,0 l0,-50.7109634551495" class="basic label-container outer-path" style="fill:#fff5cc !important;stroke:#b89800 !important" transform="translate(-55.078125, -37.06644518272425)"/><g class="label" style="" transform="translate(-47.578125, -2)"><rect/><foreignObject width="95.15625" height="24"><div xmlns="http://www.w3.org/1999/xhtml" style="display: table-cell; white-space: nowrap; line-height: 1.5; max-width: 200px; text-align: center;"><span class="nodeLabel"><p>System State</p></span></div></foreignObject></g></g><g class="node default" id="my-svg-flowchart-sys_root-22" data-look="classic" transform="translate(437.890625, 325.0546875)"><rect class="basic label-container" style="" x="-60.234375" y="-27" width="120.46875" height="54"/><g class="label" style="" transform="translate(-30.234375, -12)"><rect/><foreignObject width="60.46875" height="24"><div xmlns="http://www.w3.org/1999/xhtml" style="display: table-cell; white-space: nowrap; line-height: 1.5; max-width: 200px; text-align: center;"><span class="nodeLabel"><p>sys_root</p></span></div></foreignObject></g></g></g></g></g><defs><filter id="my-svg-drop-shadow" height="130%" width="130%"><feDropShadow dx="4" dy="4" stdDeviation="0" flood-opacity="0.06" flood-color="#000000"/></filter></defs><defs><filter id="my-svg-drop-shadow-small" height="150%" width="150%"><feDropShadow dx="2" dy="2" stdDeviation="0" flood-opacity="0.06" flood-color="#000000"/></filter></defs></svg>