<svg id="my-svg" width="100%" xmlns="http://www.w3.org/2000/svg" xmlns:xlink="http://www.w3.org/1999/xlink" class="flowchart" style="max-width: 1867.39px; background-color: white;" viewBox="0 0 1867.3895263671875 418.05859375" role="graphics-document document" aria-roledescription="flowchart-v2"><style>#my-svg{font-family:"trebuchet ms",verdana,arial,sans-serif;font-size:16px;fill:#333;}@keyframes edge-animation-frame{from{stroke-dashoffset:0;}}@keyframes dash{to{stroke-dashoffset:0;}}#my-svg .edge-animation-slow{stroke-dasharray:9,5!important;stroke-dashoffset:900;animation:dash 50s linear infinite;stroke-linecap:round;}#my-svg .edge-animation-fast{stroke-dasharray:9,5!important;stroke-dashoffset:900;animation:dash 20s linear infinite;stroke-linecap:round;}#my-svg .error-icon{fill:#552222;}#my-svg .error-text{fill:#552222;stroke:#552222;}#my-svg .edge-thickness-normal{stroke-width:1px;}#my-svg .edge-thickness-thick{stroke-width:3.5px;}#my-svg .edge-pattern-solid{stroke-dasharray:0;}#my-svg .edge-thickness-invisible{stroke-width:0;fill:none;}#my-svg .edge-pattern-dashed{stroke-dasharray:3;}#my-svg .edge-pattern-dotted{stroke-dasharray:2;}#my-svg .marker{fill:#333333;stroke:#333333;}#my-svg .marker.cross{stroke:#333333;}#my-svg svg{font-family:"trebuchet ms",verdana,arial,sans-serif;font-size:16px;}#my-svg p{margin:0;}#my-svg .label{font-family:"trebuchet ms",verdana,arial,sans-serif;color:#333;}#my-svg .cluster-label text{fill:#333;}#my-svg .cluster-label span{color:#333;}#my-svg .cluster-label span p{background-color:transparent;}#my-svg .label text,#my-svg span{fill:#333;color:#333;}#my-svg .node rect,#my-svg .node circle,#my-svg .node ellipse,#my-svg .node polygon,#my-svg .node path{fill:#ECECFF;stroke:#9370DB;stroke-width:1px;}#my-svg .rough-node .label text,#my-svg .node .label text,#my-svg .image-shape .label,#my-svg .icon-shape .label{text-anchor:middle;}#my-svg .node .katex path{fill:#000;stroke:#000;stroke-width:1px;}#my-svg .rough-node .label,#my-svg .node .label,#my-svg .image-shape .label,#my-svg .icon-shape .label{text-align:center;}#my-svg .node.clickable{cursor:pointer;}#my-svg .root .anchor path{fill:#333333!important;stroke-width:0;stroke:#333333;}#my-svg .arrowheadPath{fill:#333333;}#my-svg .edgePath .path{stroke:#333333;stroke-width:1px;}#my-svg .flowchart-link{stroke:#333333;fill:none;}#my-svg .edgeLabel{background-color:rgba(232,232,232, 0.8);text-align:center;}#my-svg .edgeLabel p{background-color:rgba(232,232,232, 0.8);}#my-svg .edgeLabel rect{opacity:0.5;background-color:rgba(232,232,232, 0.8);fill:rgba(232,232,232, 0.8);}#my-svg .labelBkg{background-color:rgba(232, 232, 232, 0.5);}#my-svg .cluster rect{fill:#ffffde;stroke:#aaaa33;stroke-width:1px;}#my-svg .cluster text{fill:#333;}#my-svg .cluster span{color:#333;}#my-svg div.mermaidTooltip{position:absolute;text-align:center;max-width:200px;padding:2px;font-family:"trebuchet ms",verdana,arial,sans-serif;font-size:12px;background:hsl(80, 100%, 96.2745098039%);border:1px solid #aaaa33;border-radius:2px;pointer-events:none;z-index:100;}#my-svg .flowchartTitleText{text-anchor:middle;font-size:18px;fill:#333;}#my-svg rect.text{fill:none;stroke-width:0;}#my-svg .icon-shape,#my-svg .image-shape{background-color:rgba(232,232,232, 0.8);text-align:center;}#my-svg .icon-shape p,#my-svg .image-shape p{background-color:rgba(232,232,232, 0.8);padding:2px;}#my-svg .icon-shape .label rect,#my-svg .image-shape .label rect{opacity:0.5;background-color:rgba(232,232,232, 0.8);fill:rgba(232,232,232, 0.8);}#my-svg .label-icon{display:inline-block;height:1em;overflow:visible;vertical-align:-0.125em;}#my-svg .node .label-icon path{fill:currentColor;stroke:revert;stroke-width:revert;}#my-svg .node .neo-node{stroke:#9370DB;}#my-svg [data-look="neo"].node rect,#my-svg [data-look="neo"].cluster rect,#my-svg [data-look="neo"].node polygon{stroke:#9370DB;filter:drop-shadow(1px 2px 2px rgba(185, 185, 185, 1));}#my-svg [data-look="neo"].node path{stroke:#9370DB;stroke-width:1px;}#my-svg [data-look="neo"].node .outer-path{filter:drop-shadow(1px 2px 2px rgba(185, 185, 185, 1));}#my-svg [data-look="neo"].node .neo-line path{stroke:#9370DB;filter:none;}#my-svg [data-look="neo"].node circle{stroke:#9370DB;filter:drop-shadow(1px 2px 2px rgba(185, 185, 185, 1));}#my-svg [data-look="neo"].node circle .state-start{fill:#000000;}#my-svg [data-look="neo"].icon-shape .icon{fill:#9370DB;filter:drop-shadow(1px 2px 2px rgba(185, 185, 185, 1));}#my-svg [data-look="neo"].icon-shape .icon-neo path{stroke:#9370DB;filter:drop-shadow(1px 2px 2px rgba(185, 185, 185, 1));}#my-svg :root{--mermaid-font-family:"trebuchet ms",verdana,arial,sans-serif;}#my-svg .proc&gt;*{fill:rgb(207, 229, 255)!important;stroke:rgb(42, 112, 194)!important;color:rgb(0, 0, 0)!important;}#my-svg .proc span{fill:rgb(207, 229, 255)!important;stroke:rgb(42, 112, 194)!important;color:rgb(0, 0, 0)!important;}#my-svg .proc tspan{fill:rgb(0, 0, 0)!important;}#my-svg .brain&gt;*{fill:rgb(127, 191, 245)!important;stroke:rgb(31, 90, 153)!important;color:rgb(0, 0, 0)!important;font-weight:bold!important;}#my-svg .brain span{fill:rgb(127, 191, 245)!important;stroke:rgb(31, 90, 153)!important;color:rgb(0, 0, 0)!important;font-weight:bold!important;}#my-svg .brain tspan{fill:rgb(0, 0, 0)!important;}#my-svg .optional&gt;*{fill:rgb(230, 240, 255)!important;stroke:rgb(136, 136, 136)!important;stroke-dasharray:3,3!important;}#my-svg .optional span{fill:rgb(230, 240, 255)!important;stroke:rgb(136, 136, 136)!important;stroke-dasharray:3,3!important;}#my-svg .terminator&gt;*{fill:rgb(250, 250, 250)!important;stroke:rgb(68, 68, 68)!important;}#my-svg .terminator span{fill:rgb(250, 250, 250)!important;stroke:rgb(68, 68, 68)!important;}#my-svg .store&gt;*{fill:rgb(255, 245, 204)!important;stroke:rgb(184, 152, 0)!important;}#my-svg .store span{fill:rgb(255, 245, 204)!important;stroke:rgb(184, 152, 0)!important;}#my-svg .grid&gt;*{fill:rgb(254, 240, 239)!important;stroke:rgb(231, 76, 60)!important;}#my-svg .grid span{fill:rgb(254, 240, 239)!important;stroke:rgb(231, 76, 60)!important;}#my-svg .termopt&gt;*{fill:rgb(250, 250, 250)!important;stroke:rgb(136, 136, 136)!important;stroke-dasharray:5,5!important;color:rgb(102, 102, 102)!important;}#my-svg .termopt span{fill:rgb(250, 250, 250)!important;stroke:rgb(136, 136, 136)!important;stroke-dasharray:5,5!important;color:rgb(102, 102, 102)!important;}#my-svg .termopt tspan{fill:rgb(102, 102, 102)!important;}</style><g><marker id="my-svg_flowchart-v2-pointEnd" class="marker flowchart-v2" viewBox="0 0 10 10" refX="5" refY="5" markerUnits="userSpaceOnUse" markerWidth="8" markerHeight="8" orient="auto"><path d="M 0 0 L 10 5 L 0 10 z" class="arrowMarkerPath" style="stroke-width: 1; stroke-dasharray: 1, 0;"/></marker><marker id="my-svg_flowchart-v2-pointStart" class="marker flowchart-v2" viewBox="0 0 10 10" refX="4.5" refY="5" markerUnits="userSpaceOnUse" markerWidth="8" markerHeight="8" orient="auto"><path d="M 0 5 L 10 10 L 10 0 z" class="arrowMarkerPath" style="stroke-width: 1; stroke-dasharray: 1, 0;"/></marker><marker id="my-svg_flowchart-v2-pointEnd-margin" class="marker flowchart-v2" viewBox="0 0 11.5 14" refX="11.5" refY="7" markerUnits="userSpaceOnUse" markerWidth="10.5" markerHeight="14" orient="auto"><path d="M 0 0 L 11.5 7 L 0 14 z" class="arrowMarkerPath" style="stroke-width: 0; stroke-dasharray: 1, 0;"/></marker><marker id="my-svg_flowchart-v2-pointStart-margin" class="marker flowchart-v2" viewBox="0 0 11.5 14" refX="1" refY="7" markerUnits="userSpaceOnUse" markerWidth="11.5" markerHeight="14" orient="auto"><polygon points="0,7 11.5,14 11.5,0" class="arrowMarkerPath" style="stroke-width: 0; stroke-dasharray: 1, 0;"/></marker><marker id="my-svg_flowchart-v2-circleEnd" class="marker flowchart-v2" viewBox="0 0 10 10" refX="11" refY="5" markerUnits="userSpaceOnUse" markerWidth="11" markerHeight="11" orient="auto"><circle cx="5" cy="5" r="5" class="arrowMarkerPath" style="stroke-width: 1; stroke-dasharray: 1, 0;"/></marker><marker id="my-svg_flowchart-v2-circleStart" class="marker flowchart-v2" viewBox="0 0 10 10" refX="-1" refY="5" markerUnits="userSpaceOnUse" markerWidth="11" markerHeight="11" orient="auto"><circle cx="5" cy="5" r="5" class="arrowMarkerPath" style="stroke-width: 1; stroke-dasharray: 1, 0;"/></marker><marker id="my-svg_flowchart-v2-circleEnd-margin" class="marker flowchart-v2" viewBox="0 0 10 10" refY="5" refX="12.25" markerUnits="userSpaceOnUse" markerWidth="14" markerHeight="14" orient="auto"><circle cx="5" cy="5" r="5" class="arrowMarkerPath" style="stroke-width: 0; stroke-dasharray: 1, 0;"/></marker><marker id="my-svg_flowchart-v2-circleStart-margin" class="marker flowchart-v2" viewBox="0 0 10 10" refX="-2" refY="5" markerUnits="userSpaceOnUse" markerWidth="14" markerHeight="14" orient="auto"><circle cx="5" cy="5" r="5" class="arrowMarkerPath" style="stroke-width: 0; stroke-dasharray: 1, 0;"/></marker><marker id="my-svg_flowchart-v2-crossEnd" class="marker cross flowchart-v2" viewBox="0 0 11 11" refX="12" refY="5.2" markerUnits="userSpaceOnUse" markerWidth="11" markerHeight="11" orient="auto"><path d="M 1,1 l 9,9 M 10,1 l -9,9" class="arrowMarkerPath" style="stroke-width: 2; stroke-dasharray: 1, 0;"/></marker><marker id="my-svg_flowchart-v2-crossStart" class="marker cross flowchart-v2" viewBox="0 0 11 11" refX="-1" refY="5.2" markerUnits="userSpaceOnUse" markerWidth="11" markerHeight="11" orient="auto"><path d="M 1,1 l 9,9 M 10,1 l -9,9" class="arrowMarkerPath" style="stroke-width: 2; stroke-dasharray: 1, 0;"/></marker><marker id="my-svg_flowchart-v2-crossEnd-margin" class="marker cross flowchart-v2" viewBox="0 0 15 15" refX="17.7" refY="7.5" markerUnits="userSpaceOnUse" markerWidth="12" markerHeight="12" orient="auto"><path d="M 1,1 L 14,14 M 1,14 L 14,1" class="arrowMarkerPath" style="stroke-width: 2.5;"/></marker><marker id="my-svg_flowchart-v2-crossStart-margin" class="marker cross flowchart-v2" viewBox="0 0 15 15" refX="-3.5" refY="7.5" markerUnits="userSpaceOnUse" markerWidth="12" markerHeight="12" orient="auto"><path d="M 1,1 L 14,14 M 1,14 L 14,1" class="arrowMarkerPath" style="stroke-width: 2.5; stroke-dasharray: 1, 0;"/></marker><g class="root"><g class="clusters"/><g class="edgePaths"><path d="M1753.14,355.749L1735.71,353.318C1718.28,350.886,1683.421,346.023,1645.039,346.336C1606.657,346.648,1564.753,352.137,1543.801,354.881L1522.849,357.625" id="my-svg-L_term_angler_proc_serve_ui_0" class="edge-thickness-normal edge-pattern-solid edge-thickness-normal edge-pattern-solid flowchart-link" style=";" data-edge="true" data-et="edge" data-id="L_term_angler_proc_serve_ui_0" data-points="W3sieCI6MTc1My4xMzk1MDM0NzkwMDQsInkiOjM1NS43NDkwNzkyNjU5NTE2NX0seyJ4IjoxNjQ4LjU2MTM3ODQ3OTAwNCwieSI6MzQxLjE2MDE1NjI1fSx7IngiOjE1MTguODgzMzAzMDU1MDI1OSwieSI6MzU4LjE0NDIzNTEwNTIxNTV9XQ==" data-look="classic" marker-end="url(#my-svg_flowchart-v2-pointEnd)"/><path d="M1518.883,368.176L1540.496,371.007C1562.109,373.837,1605.335,379.499,1643.718,379.99C1682.1,380.481,1715.639,375.803,1732.408,373.463L1749.178,371.124" id="my-svg-L_proc_serve_ui_term_angler_0" class="edge-thickness-normal edge-pattern-solid edge-thickness-normal edge-pattern-solid flowchart-link" style=";" data-edge="true" data-et="edge" data-id="L_proc_serve_ui_term_angler_0" data-points="W3sieCI6MTUxOC44ODMzMDMwNTUwMjU5LCJ5IjozNjguMTc2MDc3Mzk0Nzg0NX0seyJ4IjoxNjQ4LjU2MTM3ODQ3OTAwNCwieSI6Mzg1LjE2MDE1NjI1fSx7IngiOjE3NTMuMTM5NTAzNDc5MDA0LCJ5IjozNzAuNTcxMjMzMjM0MDQ4MzV9XQ==" data-look="classic" marker-end="url(#my-svg_flowchart-v2-pointEnd)"/><path d="M365.672,257.467L382.217,262.232C398.763,266.997,431.854,276.528,464.279,281.293C496.703,286.059,528.461,286.059,544.34,286.059L560.219,286.059" id="my-svg-L_term_line_proc_acquire_tension_0" class="edge-thickness-normal edge-pattern-solid edge-thickness-normal edge-pattern-solid flowchart-link" style=";" data-edge="true" data-et="edge" data-id="L_term_line_proc_acquire_tension_0" data-points="W3sieCI6MzY1LjY3MTg3NSwieSI6MjU3LjQ2Njg5MjU2Mjc2NTV9LHsieCI6NDY0Ljk0NTMxMjUsInkiOjI4Ni4wNTg1OTM3NX0seyJ4Ijo1NjQuMjE4NzUsInkiOjI4Ni4wNTg1OTM3NX1d" data-look="classic" marker-end="url(#my-svg_flowchart-v2-pointEnd)"/><path d="M1420.564,200.264L1407.014,197.992C1393.464,195.72,1366.365,191.177,1329.834,188.905C1293.302,186.633,1247.339,186.633,1202.34,186.633C1157.341,186.633,1113.307,186.633,1067.707,186.633C1022.107,186.633,974.94,186.633,925.993,186.633C877.047,186.633,826.32,186.633,776.441,186.633C726.563,186.633,677.531,186.633,625.757,186.633C573.982,186.633,519.464,186.633,476.3,191.2C433.136,195.768,401.326,204.903,385.421,209.47L369.516,214.037" id="my-svg-L_proc_reel_controller_term_line_0" class="edge-thickness-normal edge-pattern-solid edge-thickness-normal edge-pattern-solid flowchart-link" style=";" data-edge="true" data-et="edge" data-id="L_proc_reel_controller_term_line_0" data-points="W3sieCI6MTQyMC41NjM4NjkyMDMxMDksInkiOjIwMC4yNjQyMjEyNjE5MTg0NH0seyJ4IjoxMzM5LjI2NTYyNSwieSI6MTg2LjYzMjgxMjV9LHsieCI6MTIwMS4zNzUsInkiOjE4Ni42MzI4MTI1fSx7IngiOjEwNjkuMjczNDM3NSwieSI6MTg2LjYzMjgxMjV9LHsieCI6OTI3Ljc3MzQzNzUsInkiOjE4Ni42MzI4MTI1fSx7IngiOjc3NS41OTM3NSwieSI6MTg2LjYzMjgxMjV9LHsieCI6NjI4LjUsInkiOjE4Ni42MzI4MTI1fSx7IngiOjQ2NC45NDUzMTI1LCJ5IjoxODYuNjMyODEyNX0seyJ4IjozNjUuNjcxODc1LCJ5IjoyMTUuMTQxNTA5MTQwODI5Nzh9XQ==" data-look="classic" marker-end="url(#my-svg_flowchart-v2-pointEnd)"/><path d="M1261.344,67.969L1274.331,67.969C1287.318,67.969,1313.292,67.969,1338.682,68.048C1364.073,68.127,1388.88,68.285,1401.284,68.364L1413.688,68.443" id="my-svg-L_proc_cloud_forward_term_cloud_0" class="edge-thickness-normal edge-pattern-dotted edge-thickness-normal edge-pattern-solid flowchart-link" style=";" data-edge="true" data-et="edge" data-id="L_proc_cloud_forward_term_cloud_0" data-points="W3sieCI6MTI2MS4zNDM3NSwieSI6NjcuOTY4NzV9LHsieCI6MTMzOS4yNjU2MjUsInkiOjY3Ljk2ODc1fSx7IngiOjE0MTcuNjg3NTAwMDAwMDAyMywieSI6NjguNDY4NzV9XQ==" data-look="classic" marker-end="url(#my-svg_flowchart-v2-pointEnd)"/><path d="M168.5,340.273L172.667,340.273C176.833,340.273,185.167,340.273,195.725,340.273C206.284,340.273,219.068,340.273,225.46,340.273L231.852,340.273" id="my-svg-L_term_power_sys_root_0" class="edge-thickness-normal edge-pattern-solid edge-thickness-normal edge-pattern-solid flowchart-link" style=";" data-edge="true" data-et="edge" data-id="L_term_power_sys_root_0" data-points="W3sieCI6MTY4LjUsInkiOjM0MC4yNzM0Mzc1fSx7IngiOjE5My41LCJ5IjozNDAuMjczNDM3NX0seyJ4IjoyMzEuODUxNTYyNSwieSI6MzQwLjI3MzQzNzV9XQ==" data-look="classic"/><path d="M133.367,236.273L143.389,236.273C153.411,236.273,173.456,236.273,187.645,236.273C201.833,236.273,210.167,236.273,214.333,236.273L218.5,236.273" id="my-svg-L_term_fish_term_line_0" class="edge-thickness-normal edge-pattern-solid edge-thickness-normal edge-pattern-solid flowchart-link" style=";" data-edge="true" data-et="edge" data-id="L_term_fish_term_line_0" data-points="W3sieCI6MTMzLjM2NzE4NzUsInkiOjIzNi4yNzM0Mzc1fSx7IngiOjE5My41LCJ5IjoyMzYuMjczNDM3NX0seyJ4IjoyMTguNSwieSI6MjM2LjI3MzQzNzV9XQ==" data-look="classic"/><path d="M692.781,286.059L706.583,286.059C720.385,286.059,747.99,286.059,777.309,286.059C806.628,286.059,837.661,286.059,853.178,286.059L868.695,286.059" id="my-svg-L_proc_acquire_tension_store_system_state_0" class="edge-thickness-normal edge-pattern-solid edge-thickness-normal edge-pattern-solid flowchart-link" style=";" data-edge="true" data-et="edge" data-id="L_proc_acquire_tension_store_system_state_0" data-points="W3sieCI6NjkyLjc4MTI1LCJ5IjoyODYuMDU4NTkzNzV9LHsieCI6Nzc1LjU5Mzc1LCJ5IjoyODYuMDU4NTkzNzV9LHsieCI6ODcyLjY5NTMxMjUsInkiOjI4Ni4wNTg1OTM3NX1d" data-look="classic" marker-end="url(#my-svg_flowchart-v2-pointEnd)"/><path d="M982.852,286.002L997.255,285.988C1011.659,285.973,1040.466,285.943,1066.672,285.929C1092.878,285.914,1116.482,285.914,1128.284,285.914L1140.086,285.914" id="my-svg-L_store_system_state_proc_bite_detector_0" class="edge-thickness-normal edge-pattern-solid edge-thickness-normal edge-pattern-solid flowchart-link" style=";" data-edge="true" data-et="edge" data-id="L_store_system_state_proc_bite_detector_0" data-points="W3sieCI6OTgyLjg1MTU2MjUsInkiOjI4Ni4wMDIzMzU3MjcwMDQyfSx7IngiOjEwNjkuMjczNDM3NSwieSI6Mjg1LjkxNDA2MjV9LHsieCI6MTE0NC4wODU5Mzc1LCJ5IjoyODUuOTE0MDYyNX1d" data-look="classic" marker-end="url(#my-svg_flowchart-v2-pointEnd)"/><path d="M974.603,317.579L990.381,330.992C1006.16,344.405,1037.717,371.232,1075.512,384.645C1113.307,398.059,1157.341,398.059,1202.34,398.059C1247.339,398.059,1293.302,398.059,1332.94,393.945C1372.578,389.832,1405.891,381.606,1422.547,377.492L1439.203,373.379" id="my-svg-L_store_system_state_proc_serve_ui_0" class="edge-thickness-normal edge-pattern-solid edge-thickness-normal edge-pattern-solid flowchart-link" style=";" data-edge="true" data-et="edge" data-id="L_store_system_state_proc_serve_ui_0" data-points="W3sieCI6OTc0LjYwMjkyMzQxMDI3OTUsInkiOjMxNy41Nzg3MjE2MjI5NjMyfSx7IngiOjEwNjkuMjczNDM3NSwieSI6Mzk4LjA1ODU5Mzc1fSx7IngiOjEyMDEuMzc1LCJ5IjozOTguMDU4NTkzNzV9LHsieCI6MTMzOS4yNjU2MjUsInkiOjM5OC4wNTg1OTM3NX0seyJ4IjoxNDQzLjA4NjgzNzIzNzU5MjEsInkiOjM3Mi40MjAyOTQ0ODk5ODg4fV0=" data-look="classic" marker-end="url(#my-svg_flowchart-v2-pointEnd)"/><path d="M951.823,250.167L971.398,219.801C990.973,189.435,1030.123,128.702,1061.054,98.335C1091.984,67.969,1114.695,67.969,1126.051,67.969L1137.406,67.969" id="my-svg-L_store_system_state_proc_cloud_forward_0" class="edge-thickness-normal edge-pattern-dotted edge-thickness-normal edge-pattern-solid flowchart-link" style=";" data-edge="true" data-et="edge" data-id="L_store_system_state_proc_cloud_forward_0" data-points="W3sieCI6OTUxLjgyMjcxMTU1OTU2NDMsInkiOjI1MC4xNjc0OTY5NDYxNjU1Nn0seyJ4IjoxMDY5LjI3MzQzNzUsInkiOjY3Ljk2ODc1fSx7IngiOjExNDEuNDA2MjUsInkiOjY3Ljk2ODc1fV0=" data-look="classic" marker-end="url(#my-svg_flowchart-v2-pointEnd)"/><path d="M1257.676,275.321L1271.274,272.762C1284.873,270.203,1312.069,265.086,1339.022,257.836C1365.974,250.587,1392.683,241.205,1406.037,236.514L1419.391,231.823" id="my-svg-L_proc_bite_detector_proc_reel_controller_0" class="edge-thickness-normal edge-pattern-solid edge-thickness-normal edge-pattern-solid flowchart-link" style=";" data-edge="true" data-et="edge" data-id="L_proc_bite_detector_proc_reel_controller_0" data-points="W3sieCI6MTI1Ny42NzYwOTc5ODE2MTAyLCJ5IjoyNzUuMzIwNTI0NDYwNTE0MDR9LHsieCI6MTMzOS4yNjU2MjUsInkiOjI1OS45Njg3NX0seyJ4IjoxNDIzLjE2NTQyNDQ4MDc2NCwieSI6MjMwLjQ5NzcyMTEyODcwMDA4fV0=" data-look="classic" marker-end="url(#my-svg_flowchart-v2-pointEnd)"/><path d="M1253.05,310.648L1267.419,317.525C1281.788,324.403,1310.527,338.159,1341.368,346.347C1372.209,354.536,1405.152,357.157,1421.623,358.468L1438.095,359.779" id="my-svg-L_proc_bite_detector_proc_serve_ui_0" class="edge-thickness-normal edge-pattern-solid edge-thickness-normal edge-pattern-solid flowchart-link" style=";" data-edge="true" data-et="edge" data-id="L_proc_bite_detector_proc_serve_ui_0" data-points="W3sieCI6MTI1My4wNDk3OTExNzY3NjgsInkiOjMxMC42NDc2OTYyNTk4NDl9LHsieCI6MTMzOS4yNjU2MjUsInkiOjM1MS45MTQwNjI1fSx7IngiOjE0NDIuMDgyMTAxNjMwMjI2NiwieSI6MzYwLjA5NjEwMTYwNjMyMTJ9XQ==" data-look="classic" marker-end="url(#my-svg_flowchart-v2-pointEnd)"/><path d="M1444.612,349.097L1427.054,342.233C1409.496,335.369,1374.381,321.642,1343.929,312.721C1313.477,303.8,1287.688,299.685,1274.793,297.628L1261.899,295.57" id="my-svg-L_proc_serve_ui_proc_bite_detector_0" class="edge-thickness-normal edge-pattern-solid edge-thickness-normal edge-pattern-solid flowchart-link" style=";" data-edge="true" data-et="edge" data-id="L_proc_serve_ui_proc_bite_detector_0" data-points="W3sieCI6MTQ0NC42MTE1NTMyMzgxOTQ2LCJ5IjozNDkuMDk2OTE4Nzk1NjcyOX0seyJ4IjoxMzM5LjI2NTYyNSwieSI6MzA3LjkxNDA2MjV9LHsieCI6MTI1Ny45NDg1NDI5MjU5NzY0LCJ5IjoyOTQuOTQwMTg2OTY5MDk2MjZ9XQ==" data-look="classic" marker-end="url(#my-svg_flowchart-v2-pointEnd)"/></g><g class="edgeLabels"><g class="edgeLabel" transform="translate(1636.07068, 342.79608)"><g class="label" data-id="L_term_angler_proc_serve_ui_0" transform="translate(-79.578125, -12)"><foreignObject width="159.15625" height="24"><div xmlns="http://www.w3.org/1999/xhtml" class="labelBkg" style="display: table-cell; white-space: nowrap; line-height: 1.5; max-width: 200px; text-align: center;"><span class="edgeLabel"><p>F1: config, arm/disarm</p></span></div></foreignObject></g></g><g class="edgeLabel" transform="translate(1636.07068, 383.52424)"><g class="label" data-id="L_proc_serve_ui_term_angler_0" transform="translate(-59.1328125, -12)"><foreignObject width="118.265625" height="24"><div xmlns="http://www.w3.org/1999/xhtml" class="labelBkg" style="display: table-cell; white-space: nowrap; line-height: 1.5; max-width: 200px; text-align: center;"><span class="edgeLabel"><p>F2: status, alerts</p></span></div></foreignObject></g></g><g class="edgeLabel" transform="translate(464.9453125, 286.05859375)"><g class="label" data-id="L_term_line_proc_acquire_tension_0" transform="translate(-74.2734375, -12)"><foreignObject width="148.546875" height="24"><div xmlns="http://www.w3.org/1999/xhtml" class="labelBkg" style="display: table-cell; white-space: nowrap; line-height: 1.5; max-width: 200px; text-align: center;"><span class="edgeLabel"><p>F3: tension feedback</p></span></div></foreignObject></g></g><g class="edgeLabel" transform="translate(927.7734375, 186.6328125)"><g class="label" data-id="L_proc_reel_controller_term_line_0" transform="translate(-69.3671875, -12)"><foreignObject width="138.734375" height="24"><div xmlns="http://www.w3.org/1999/xhtml" class="labelBkg" style="display: table-cell; white-space: nowrap; line-height: 1.5; max-width: 200px; text-align: center;"><span class="edgeLabel"><p>F4: reel torque cmd</p></span></div></foreignObject></g></g><g class="edgeLabel" transform="translate(1339.265625, 67.96875)"><g class="label" data-id="L_proc_cloud_forward_term_cloud_0" transform="translate(-45.8046875, -12)"><foreignObject width="91.609375" height="24"><div xmlns="http://www.w3.org/1999/xhtml" class="labelBkg" style="display: table-cell; white-space: nowrap; line-height: 1.5; max-width: 200px; text-align: center;"><span class="edgeLabel"><p>F6: catch log</p></span></div></foreignObject></g></g><g class="edgeLabel"><g class="label" data-id="L_term_power_sys_root_0" transform="translate(0, 0)"><foreignObject width="0" height="0"><div xmlns="http://www.w3.org/1999/xhtml" class="labelBkg" style="display: table-cell; white-space: nowrap; line-height: 1.5; max-width: 200px; text-align: center;"><span class="edgeLabel"></span></div></foreignObject></g></g><g class="edgeLabel"><g class="label" data-id="L_term_fish_term_line_0" transform="translate(0, 0)"><foreignObject width="0" height="0"><div xmlns="http://www.w3.org/1999/xhtml" class="labelBkg" style="display: table-cell; white-space: nowrap; line-height: 1.5; max-width: 200px; text-align: center;"><span class="edgeLabel"></span></div></foreignObject></g></g><g class="edgeLabel" transform="translate(775.59375, 286.05859375)"><g class="label" data-id="L_proc_acquire_tension_store_system_state_0" transform="translate(-57.8125, -12)"><foreignObject width="115.625" height="24"><div xmlns="http://www.w3.org/1999/xhtml" class="labelBkg" style="display: table-cell; white-space: nowrap; line-height: 1.5; max-width: 200px; text-align: center;"><span class="edgeLabel"><p>tension samples</p></span></div></foreignObject></g></g><g class="edgeLabel" transform="translate(1069.2734375, 285.9140625)"><g class="label" data-id="L_store_system_state_proc_bite_detector_0" transform="translate(-47.1328125, -12)"><foreignObject width="94.265625" height="24"><div xmlns="http://www.w3.org/1999/xhtml" class="labelBkg" style="display: table-cell; white-space: nowrap; line-height: 1.5; max-width: 200px; text-align: center;"><span class="edgeLabel"><p>system_state</p></span></div></foreignObject></g></g><g class="edgeLabel" transform="translate(1201.375, 398.05859375)"><g class="label" data-id="L_store_system_state_proc_serve_ui_0" transform="translate(-47.1328125, -12)"><foreignObject width="94.265625" height="24"><div xmlns="http://www.w3.org/1999/xhtml" class="labelBkg" style="display: table-cell; white-space: nowrap; line-height: 1.5; max-width: 200px; text-align: center;"><span class="edgeLabel"><p>system_state</p></span></div></foreignObject></g></g><g class="edgeLabel" transform="translate(1069.2734375, 67.96875)"><g class="label" data-id="L_store_system_state_proc_cloud_forward_0" transform="translate(-47.1328125, -12)"><foreignObject width="94.265625" height="24"><div xmlns="http://www.w3.org/1999/xhtml" class="labelBkg" style="display: table-cell; white-space: nowrap; line-height: 1.5; max-width: 200px; text-align: center;"><span class="edgeLabel"><p>system_state</p></span></div></foreignObject></g></g><g class="edgeLabel" transform="translate(1339.265625, 259.96875)"><g class="label" data-id="L_proc_bite_detector_proc_reel_controller_0" transform="translate(-37.7890625, -12)"><foreignObject width="75.578125" height="24"><div xmlns="http://www.w3.org/1999/xhtml" class="labelBkg" style="display: table-cell; white-space: nowrap; line-height: 1.5; max-width: 200px; text-align: center;"><span class="edgeLabel"><p>motor cmd</p></span></div></foreignObject></g></g><g class="edgeLabel" transform="translate(1343.03305, 352.21387)"><g class="label" data-id="L_proc_bite_detector_proc_serve_ui_0" transform="translate(-39.5859375, -12)"><foreignObject width="79.171875" height="24"><div xmlns="http://www.w3.org/1999/xhtml" class="labelBkg" style="display: table-cell; white-space: nowrap; line-height: 1.5; max-width: 200px; text-align: center;"><span class="edgeLabel"><p>event_alert</p></span></div></foreignObject></g></g><g class="edgeLabel" transform="translate(1353.59187, 313.51462)"><g class="label" data-id="L_proc_serve_ui_proc_bite_detector_0" transform="translate(-52.921875, -12)"><foreignObject width="105.84375" height="24"><div xmlns="http://www.w3.org/1999/xhtml" class="labelBkg" style="display: table-cell; white-space: nowrap; line-height: 1.5; max-width: 200px; text-align: center;"><span class="edgeLabel"><p>event_override</p></span></div></foreignObject></g></g></g><g class="nodes"><g class="node default terminator" id="my-svg-flowchart-term_fish-0" data-look="classic" transform="translate(88.25, 236.2734375)"><rect class="basic label-container" style="fill:#fafafa !important;stroke:#444 !important" x="-45.1171875" y="-27" width="90.234375" height="54"/><g class="label" style="" transform="translate(-15.1171875, -12)"><rect/><foreignObject width="30.234375" height="24"><div xmlns="http://www.w3.org/1999/xhtml" style="display: table-cell; white-space: nowrap; line-height: 1.5; max-width: 200px; text-align: center;"><span class="nodeLabel"><p>Fish</p></span></div></foreignObject></g></g><g class="node default terminator" id="my-svg-flowchart-term_power-1" data-look="classic" transform="translate(88.25, 340.2734375)"><rect class="basic label-container" style="fill:#fafafa !important;stroke:#444 !important" x="-80.25" y="-27" width="160.5" height="54"/><g class="label" style="" transform="translate(-50.25, -12)"><rect/><foreignObject width="100.5" height="24"><div xmlns="http://www.w3.org/1999/xhtml" style="display: table-cell; white-space: nowrap; line-height: 1.5; max-width: 200px; text-align: center;"><span class="nodeLabel"><p>Power Source</p></span></div></foreignObject></g></g><g class="node default termopt" id="my-svg-flowchart-term_cloud-2" data-look="classic" transform="translate(1480.585376739502, 67.96875)"><g class="basic label-container outer-path"><path d="M-31.9140625 -31.5 C-9.886568694192448 -31.5, 12.140925111615104 -31.5, 31.9140625 -31.5 C31.9140625 -31.5, 31.9140625 -31.5, 31.914062499999996 -31.5 C32.60692940273248 -31.47778110701298, 33.29979630546497 -31.455562214025964, 33.93227442939246 -31.435279871635593 C34.64781304015451 -31.366252722416462, 35.363351650916556 -31.29722557319733, 35.94219309306194 -31.241385435432253 C36.62832747697544 -31.130456549292735, 37.314461860888954 -31.019527663153216, 37.935559304093225 -30.91911344521856 C38.66033324901028 -30.753688521883237, 39.38510719392733 -30.58826359854791, 39.90418189314948 -30.469788185729428 C40.61528242779375 -30.258737279689882, 41.32638296243802 -30.04768637365034, 41.83997136774405 -29.895256030836062 C42.41524508834714 -29.683549983882145, 42.99051880895023 -29.47184393692823, 43.73497315370028 -29.197877856399685 C44.29317053370001 -28.950780434610767, 44.85136791369973 -28.703683012821845, 45.58140028220308 -28.380519338926202 C46.049518880070565 -28.136302166263008, 46.517637477938045 -27.892084993599816, 47.371665388124036 -27.44653917988677 C47.90217091567195 -27.124943611490693, 48.43267644321987 -26.80334804309462, 49.098411888132276 -26.399775304092984 C49.52083844681993 -26.105108823303475, 49.943265005507584 -25.810442342513962, 50.7545442104733 -25.244529088840633 C51.378407427712546 -24.74701477478977, 52.0022706449518 -24.249500460738908, 52.33325695219533 -23.985547688627737 C52.689700421269 -23.661835160992414, 53.046143890342684 -23.33812263335709, 53.82806284400982 -22.62800452807842 C54.38869262621093 -22.049108249394642, 54.94932240841204 -21.470211970710864, 55.232819407872434 -21.177478043231485 C55.622527309822985 -20.719704966592555, 56.01223521177354 -20.261931889953626, 56.54175419774294 -19.63992875855011 C56.99716079135088 -19.029725411509645, 57.45256738495882 -18.419522064469177, 57.7494885198041 -18.02167479384835 C58.06036138747204 -17.544090588056974, 58.37123425513999 -17.066506382265597, 58.8510595346684 -16.329365901781543 C59.130620122630155 -15.832977769276248, 59.4101807105919 -15.33658963677095, 59.84194065074951 -14.56995614258631 C60.0786139400417 -14.078498993373925, 60.31528722933388 -13.58704184416154, 60.71806012499809 -12.750675308355413 C60.92047387283003 -12.250709437806934, 61.12288762066197 -11.750743567258455, 61.47581779456745 -10.878999214271206 C61.71174484562058 -10.168424526369957, 61.94767189667371 -9.457849838468707, 62.11209987065481 -8.962618978877531 C62.27875402580443 -8.327094456924279, 62.44540818095406 -7.691569934971025, 62.624291733727446 -7.009409419623907 C62.72222250208062 -6.506555621805568, 62.8201532704338 -6.003701823987228, 63.01028867755518 -5.027396693551458 C63.08477705112884 -4.449679577507283, 63.15926542470249 -3.8719624614631085, 63.268504557899746 -3.024725316091981 C63.29707510314998 -2.579716012090556, 63.32564564840021 -2.134706708089131, 63.39787831032167 -1.0096246935071378 C63.39787831032167 -0.37618497610449564, 63.39787831032167 0.2572547412981465, 63.39787831032167 1.00962469350713 C63.3551448042861 1.6752335438763686, 63.31241129825053 2.340842394245607, 63.268504557899746 3.02472531609196 C63.192631172768166 3.6131843082779422, 63.11675778763658 4.201643300463925, 63.01028867755518 5.027396693551435 C62.866970440798134 5.763305548978806, 62.72365220404109 6.499214404406176, 62.624291733727446 7.0094094196239 C62.48766616810048 7.530421915254228, 62.35104060247352 8.051434410884557, 62.112099870654816 8.96261897887751 C61.928648246316904 9.515146042336335, 61.745196621979 10.06767310579516, 61.475817794567455 10.878999214271184 C61.24618522555224 11.446196099382458, 61.01655265653702 12.013392984493732, 60.71806012499809 12.750675308355405 C60.459803255785545 13.286951223087035, 60.20154638657301 13.823227137818666, 59.84194065074951 14.569956142586303 C59.451372182471744 15.263450007359465, 59.06080371419399 15.956943872132626, 58.85105953466841 16.329365901781536 C58.57837106186707 16.74828862311211, 58.30568258906572 17.16721134444268, 57.74948851980412 18.021674793848334 C57.44255131299804 18.432942688413693, 57.135614106191966 18.84421058297905, 56.54175419774295 19.639928758550102 C56.13757953627198 20.11469531410365, 55.73340487480101 20.589461869657196, 55.23281940787245 21.177478043231467 C54.71037576143716 21.716944001596982, 54.18793211500188 22.256409959962497, 53.82806284400983 22.628004528078414 C53.38074813912163 23.03424390775934, 52.93343343423343 23.440483287440266, 52.333256952195356 23.985547688627715 C51.95725832556323 24.28539658762317, 51.5812596989311 24.585245486618625, 50.75454421047331 25.24452908884063 C50.235432772816424 25.60663875577812, 49.71632133515954 25.968748422715613, 49.0984118881323 26.399775304092973 C48.51739225795096 26.751992818359245, 47.93637262776962 27.104210332625517, 47.37166538812404 27.446539179886766 C46.69633990542137 27.798856051646133, 46.02101442271869 28.151172923405504, 45.581400282203084 28.3805193389262 C45.20398308173048 28.54759073789195, 44.82656588125787 28.714662136857708, 43.734973153700295 29.197877856399682 C43.04029211658663 29.453526899618623, 42.34561107947297 29.709175942837565, 41.83997136774407 29.895256030836055 C41.224937778941076 30.0777947716156, 40.609904190138074 30.260333512395142, 39.90418189314951 30.46978818572942 C39.2972951757731 30.608306118664647, 38.69040845839669 30.74682405159987, 37.93555930409324 30.919113445218557 C37.25712266926997 31.028797818982103, 36.57868603444669 31.13848219274565, 35.94219309306196 31.24138543543225 C35.307065993711994 31.30265538285445, 34.671938894362036 31.363925330276647, 33.93227442939246 31.435279871635593 C33.411834709056635 31.451969360492303, 32.89139498872082 31.46865884934901, 31.914062500000007 31.5 C31.914062500000007 31.5, 31.914062500000004 31.5, 31.9140625 31.5 C9.096708276686485 31.5, -13.72064594662703 31.5, -31.914062499999993 31.5 C-32.32974709365097 31.48666980416259, -32.74543168730195 31.47333960832518, -33.93227442939244 31.435279871635593 C-34.475179096068224 31.38290651137977, -35.018083762744006 31.330533151123948, -35.942193093061945 31.24138543543225 C-36.37239913676509 31.17183305858402, -36.802605180468234 31.102280681735795, -37.935559304093225 30.919113445218557 C-38.64275166023177 30.75770140479134, -39.349944016370316 30.59628936436412, -39.90418189314947 30.469788185729428 C-40.52965268957577 30.284151736513312, -41.155123486002076 30.098515287297193, -41.839971367744035 29.89525603083607 C-42.430163482021705 29.678059877105788, -43.02035559629938 29.460863723375507, -43.73497315370029 29.197877856399685 C-44.18858699412742 28.99707646521908, -44.64220083455455 28.796275074038473, -45.58140028220308 28.380519338926206 C-46.10533683629196 28.107181974255415, -46.629273390380845 27.83384460958462, -47.37166538812403 27.446539179886773 C-47.85738192914652 27.152094958331713, -48.34309847016901 26.85765073677665, -49.09841188813226 26.399775304092994 C-49.466651832423565 26.14290705980565, -49.83489177671486 25.886038815518305, -50.7545442104733 25.244529088840636 C-51.28806779294217 24.819058229480504, -51.82159137541104 24.393587370120375, -52.33325695219533 23.98554768862774 C-52.732754017029784 23.6227350244582, -53.13225108186424 23.25992236028866, -53.82806284400981 22.628004528078435 C-54.16514869922645 22.27993570730385, -54.50223455444309 21.93186688652926, -55.23281940787244 21.177478043231478 C-55.63868970972253 20.70071969200395, -56.04456001157261 20.223961340776423, -56.54175419774293 19.639928758550113 C-56.81567149722409 19.272904531624704, -57.08958879670525 18.905880304699295, -57.7494885198041 18.021674793848355 C-57.97653316922762 17.672873242308846, -58.20357781865115 17.32407169076934, -58.851059534668394 16.329365901781557 C-59.116231714883675 15.858525844214387, -59.38140389509896 15.387685786647218, -59.8419406507495 14.569956142586314 C-60.086078069634596 14.062999568567465, -60.3302154885197 13.556042994548616, -60.71806012499809 12.750675308355417 C-61.00266935274845 12.047685013266939, -61.287278580498814 11.344694718178461, -61.47581779456745 10.878999214271209 C-61.72996331089299 10.113553411687692, -61.984108827218535 9.348107609104174, -62.11209987065481 8.962618978877522 C-62.311099250105734 8.20374809815453, -62.51009862955665 7.44487721743154, -62.62429173372744 7.009409419623911 C-62.742724386218505 6.401282779832253, -62.86115703870958 5.793156140040594, -63.01028867755518 5.027396693551461 C-63.087552014965766 4.428157505966677, -63.164815352376344 3.828918318381894, -63.268504557899746 3.024725316091999 C-63.31530449162165 2.295778572146766, -63.36210442534355 1.5668318282015326, -63.39787831032167 1.0096246935071416 C-63.39787831032167 0.2571449067884003, -63.39787831032167 -0.495334879930341, -63.39787831032167 -1.0096246935071262 C-63.34680216088489 -1.8051769489106961, -63.29572601144812 -2.600729204314266, -63.268504557899746 -3.024725316091956 C-63.17035013939305 -3.7859916032476106, -63.072195720886356 -4.547257890403266, -63.01028867755518 -5.027396693551446 C-62.91207213024147 -5.531717905932714, -62.813855582927765 -6.036039118313982, -62.624291733727446 -7.009409419623896 C-62.41974766020489 -7.789424621927633, -62.215203586682335 -8.56943982423137, -62.112099870654816 -8.962618978877506 C-61.9018222223594 -9.595941752349878, -61.691544574063975 -10.229264525822252, -61.47581779456746 -10.878999214271168 C-61.18831737048071 -11.589130820208002, -60.90081694639396 -12.299262426144834, -60.71806012499809 -12.750675308355401 C-60.515725414391845 -13.17082766419854, -60.3133907037856 -13.59098002004168, -59.84194065074951 -14.5699561425863 C-59.54025787688678 -15.105624456273022, -59.23857510302404 -15.641292769959744, -58.8510595346684 -16.329365901781546 C-58.445309173669294 -16.952707415503838, -58.03955881267018 -17.576048929226125, -57.74948851980411 -18.021674793848344 C-57.42500643248714 -18.456451229926806, -57.10052434517017 -18.891227666005268, -56.54175419774295 -19.639928758550102 C-56.020755212569895 -20.251923812216454, -55.49975622739684 -20.863918865882805, -55.232819407872455 -21.177478043231467 C-54.71421505949961 -21.712979611135278, -54.195610711126754 -22.248481179039093, -53.828062844009835 -22.628004528078403 C-53.28951527278797 -23.117099183074195, -52.75096770156611 -23.60619383806999, -52.333256952195356 -23.98554768862771 C-51.90133374650455 -24.32999495120691, -51.46941054081375 -24.67444221378611, -50.75454421047331 -25.244529088840626 C-50.12737355797275 -25.68201618624505, -49.500202905472186 -26.119503283649475, -49.098411888132304 -26.39977530409297 C-48.69031083141554 -26.647168562942685, -48.28220977469878 -26.894561821792397, -47.37166538812404 -27.446539179886763 C-46.67837350739759 -27.80822910998711, -45.98508162667114 -28.16991904008746, -45.58140028220309 -28.3805193389262 C-44.86187510721871 -28.69903178993582, -44.142349932234325 -29.017544240945444, -43.7349731537003 -29.19787785639968 C-43.35094227693865 -29.339204768990477, -42.966911400177 -29.480531681581276, -41.83997136774408 -29.895256030836055 C-41.09312135558402 -30.116917194149448, -40.346271343423965 -30.33857835746284, -39.90418189314951 -30.469788185729417 C-39.46155195083677 -30.57081558163199, -39.01892200852402 -30.671842977534563, -37.93555930409324 -30.919113445218553 C-37.41634744215969 -31.003055592507845, -36.89713558022614 -31.086997739797134, -35.94219309306196 -31.24138543543225 C-35.303240387581624 -31.30302443447688, -34.664287682101296 -31.36466343352151, -33.93227442939246 -31.435279871635593 C-33.24414099900979 -31.457346971377497, -32.55600756862711 -31.479414071119404, -31.91406250000001 -31.5 C-31.914062500000007 -31.5, -31.914062500000004 -31.5, -31.9140625 -31.5" stroke="none" stroke-width="0" fill="#fafafa" style="fill:#fafafa !important;stroke:#888 !important;stroke-dasharray:5 5 !important"/><path d="M-31.9140625 -31.5 C-8.605403853726049 -31.5, 14.703254792547902 -31.5, 31.9140625 -31.5 M-31.9140625 -31.5 C-15.170154379797705 -31.5, 1.573753740404591 -31.5, 31.9140625 -31.5 M31.9140625 -31.5 C31.9140625 -31.5, 31.914062499999996 -31.5, 31.914062499999996 -31.5 M31.9140625 -31.5 C31.9140625 -31.5, 31.914062499999996 -31.5, 31.914062499999996 -31.5 M31.914062499999996 -31.5 C32.70986580542658 -31.474480136932137, 33.50566911085317 -31.44896027386427, 33.93227442939246 -31.435279871635593 M31.914062499999996 -31.5 C32.462513009749095 -31.4824122596465, 33.0109635194982 -31.464824519293003, 33.93227442939246 -31.435279871635593 M33.93227442939246 -31.435279871635593 C34.57795971490888 -31.372991388691993, 35.2236450004253 -31.310702905748393, 35.94219309306194 -31.241385435432253 M33.93227442939246 -31.435279871635593 C34.67068633521389 -31.364046163151247, 35.409098241035316 -31.2928124546669, 35.94219309306194 -31.241385435432253 M35.94219309306194 -31.241385435432253 C36.3855642716249 -31.169704621677038, 36.828935450187856 -31.09802380792182, 37.935559304093225 -30.91911344521856 M35.94219309306194 -31.241385435432253 C36.54270417910998 -31.144299460073032, 37.14321526515803 -31.047213484713808, 37.935559304093225 -30.91911344521856 M37.935559304093225 -30.91911344521856 C38.639365807882854 -30.75847420349523, 39.34317231167248 -30.597834961771902, 39.90418189314948 -30.469788185729428 M37.935559304093225 -30.91911344521856 C38.36682091711871 -30.82068079629052, 38.7980825301442 -30.722248147362485, 39.90418189314948 -30.469788185729428 M39.90418189314948 -30.469788185729428 C40.57632725346624 -30.270298970950403, 41.24847261378301 -30.070809756171382, 41.83997136774405 -29.895256030836062 M39.90418189314948 -30.469788185729428 C40.38469312340395 -30.32717497484482, 40.86520435365841 -30.18456176396021, 41.83997136774405 -29.895256030836062 M41.83997136774405 -29.895256030836062 C42.358444467816966 -29.70445313729643, 42.87691756788988 -29.513650243756796, 43.73497315370028 -29.197877856399685 M41.83997136774405 -29.895256030836062 C42.34487053948242 -29.70944846839956, 42.84976971122079 -29.52364090596306, 43.73497315370028 -29.197877856399685 M43.73497315370028 -29.197877856399685 C44.417677716619515 -28.895664798106655, 45.10038227953875 -28.593451739813624, 45.58140028220308 -28.380519338926202 M43.73497315370028 -29.197877856399685 C44.20162648919963 -28.991304267553485, 44.66827982469899 -28.784730678707284, 45.58140028220308 -28.380519338926202 M45.58140028220308 -28.380519338926202 C46.28275282999479 -28.01462416398101, 46.984105377786506 -27.648728989035824, 47.371665388124036 -27.44653917988677 M45.58140028220308 -28.380519338926202 C46.27370841406096 -28.019342629980468, 46.96601654591884 -27.658165921034733, 47.371665388124036 -27.44653917988677 M47.371665388124036 -27.44653917988677 C47.7291529494062 -27.229828119407422, 48.08664051068836 -27.013117058928078, 49.098411888132276 -26.399775304092984 M47.371665388124036 -27.44653917988677 C47.90505950404949 -27.123192532241003, 48.438453619974936 -26.799845884595236, 49.098411888132276 -26.399775304092984 M49.098411888132276 -26.399775304092984 C49.739493023576856 -25.952584855961913, 50.38057415902144 -25.505394407830842, 50.7545442104733 -25.244529088840633 M49.098411888132276 -26.399775304092984 C49.70398159600151 -25.977356090573547, 50.309551303870755 -25.554936877054114, 50.7545442104733 -25.244529088840633 M50.7545442104733 -25.244529088840633 C51.196758383650725 -24.891875053545004, 51.63897255682814 -24.539221018249375, 52.33325695219533 -23.985547688627737 M50.7545442104733 -25.244529088840633 C51.37681461650087 -24.748284999344598, 51.99908502252844 -24.25204090984856, 52.33325695219533 -23.985547688627737 M52.33325695219533 -23.985547688627737 C52.65126163726762 -23.69674424758798, 52.96926632233991 -23.40794080654822, 53.82806284400982 -22.62800452807842 M52.33325695219533 -23.985547688627737 C52.69700567071619 -23.655200726730794, 53.06075438923705 -23.324853764833847, 53.82806284400982 -22.62800452807842 M53.82806284400982 -22.62800452807842 C54.22081045120976 -22.222460378466256, 54.613558058409694 -21.81691622885409, 55.232819407872434 -21.177478043231485 M53.82806284400982 -22.62800452807842 C54.33130448977461 -22.108366211918767, 54.8345461355394 -21.588727895759117, 55.232819407872434 -21.177478043231485 M55.232819407872434 -21.177478043231485 C55.72977694707944 -20.59372343999388, 56.22673448628645 -20.009968836756272, 56.54175419774294 -19.63992875855011 M55.232819407872434 -21.177478043231485 C55.672140871288775 -20.66142605420322, 56.11146233470512 -20.14537406517495, 56.54175419774294 -19.63992875855011 M56.54175419774294 -19.63992875855011 C56.87183697738466 -19.197647904990053, 57.201919757026374 -18.75536705143, 57.7494885198041 -18.02167479384835 M56.54175419774294 -19.63992875855011 C57.00658959555461 -19.01709167285838, 57.47142499336628 -18.394254587166653, 57.7494885198041 -18.02167479384835 M57.7494885198041 -18.02167479384835 C58.11121518999101 -17.465965491229834, 58.472941860177905 -16.910256188611317, 58.8510595346684 -16.329365901781543 M57.7494885198041 -18.02167479384835 C58.15216229605552 -17.403059740477197, 58.55483607230694 -16.784444687106042, 58.8510595346684 -16.329365901781543 M58.8510595346684 -16.329365901781543 C59.10513523557159 -15.878228766873374, 59.35921093647478 -15.427091631965204, 59.84194065074951 -14.56995614258631 M58.8510595346684 -16.329365901781543 C59.135146220408 -15.824941224354587, 59.41923290614759 -15.320516546927632, 59.84194065074951 -14.56995614258631 M59.84194065074951 -14.56995614258631 C60.19091775810538 -13.845297712247914, 60.53989486546126 -13.120639281909519, 60.71806012499809 -12.750675308355413 M59.84194065074951 -14.56995614258631 C60.15490172653076 -13.920085772432238, 60.46786280231201 -13.270215402278165, 60.71806012499809 -12.750675308355413 M60.71806012499809 -12.750675308355413 C60.99529791820659 -12.06589259910233, 61.27253571141509 -11.381109889849245, 61.47581779456745 -10.878999214271206 M60.71806012499809 -12.750675308355413 C60.95997454250954 -12.153142020005046, 61.201888960020995 -11.555608731654678, 61.47581779456745 -10.878999214271206 M61.47581779456745 -10.878999214271206 C61.663431760868946 -10.313935839997193, 61.85104572717044 -9.748872465723178, 62.11209987065481 -8.962618978877531 M61.47581779456745 -10.878999214271206 C61.65373834822388 -10.343130854448539, 61.831658901880324 -9.807262494625874, 62.11209987065481 -8.962618978877531 M62.11209987065481 -8.962618978877531 C62.270772230824925 -8.357532500512974, 62.42944459099504 -7.752446022148419, 62.624291733727446 -7.009409419623907 M62.11209987065481 -8.962618978877531 C62.30250514570916 -8.236521142927057, 62.49291042076352 -7.510423306976583, 62.624291733727446 -7.009409419623907 M62.624291733727446 -7.009409419623907 C62.73794984645681 -6.425799032409273, 62.85160795918617 -5.842188645194639, 63.01028867755518 -5.027396693551458 M62.624291733727446 -7.009409419623907 C62.741484430885066 -6.407649688404847, 62.858677128042686 -5.805889957185787, 63.01028867755518 -5.027396693551458 M63.01028867755518 -5.027396693551458 C63.093201362501205 -4.384342282071627, 63.176114047447236 -3.741287870591795, 63.268504557899746 -3.024725316091981 M63.01028867755518 -5.027396693551458 C63.07366797703246 -4.535839362463995, 63.13704727650973 -4.044282031376532, 63.268504557899746 -3.024725316091981 M63.268504557899746 -3.024725316091981 C63.305032263242886 -2.4557768207395174, 63.341559968586026 -1.886828325387054, 63.39787831032167 -1.0096246935071378 M63.268504557899746 -3.024725316091981 C63.31098834110025 -2.3630061004516234, 63.353472124300744 -1.7012868848112659, 63.39787831032167 -1.0096246935071378 M63.39787831032167 -1.0096246935071378 C63.39787831032167 -0.4776987673766978, 63.39787831032167 0.05422715875374218, 63.39787831032167 1.00962469350713 M63.39787831032167 -1.0096246935071378 C63.39787831032167 -0.3596700736125982, 63.39787831032167 0.29028454628194145, 63.39787831032167 1.00962469350713 M63.39787831032167 1.00962469350713 C63.359805073703406 1.602646086000071, 63.32173183708514 2.195667478493012, 63.268504557899746 3.02472531609196 M63.39787831032167 1.00962469350713 C63.35323257024639 1.70501813257234, 63.308586830171116 2.40041157163755, 63.268504557899746 3.02472531609196 M63.268504557899746 3.02472531609196 C63.187314227067816 3.654421489180164, 63.106123896235886 4.284117662268368, 63.01028867755518 5.027396693551435 M63.268504557899746 3.02472531609196 C63.18435642652325 3.677361606120021, 63.10020829514676 4.3299978961480825, 63.01028867755518 5.027396693551435 M63.01028867755518 5.027396693551435 C62.91360114867003 5.523866719460217, 62.816913619784884 6.020336745368998, 62.624291733727446 7.0094094196239 M63.01028867755518 5.027396693551435 C62.89915728265207 5.598032918750296, 62.78802588774895 6.168669143949158, 62.624291733727446 7.0094094196239 M62.624291733727446 7.0094094196239 C62.50728486328155 7.455607327732534, 62.39027799283566 7.901805235841168, 62.112099870654816 8.96261897887751 M62.624291733727446 7.0094094196239 C62.43746582648922 7.721857574783631, 62.25063991925101 8.434305729943363, 62.112099870654816 8.96261897887751 M62.112099870654816 8.96261897887751 C61.908057155056675 9.577163128467292, 61.70401443945853 10.191707278057073, 61.475817794567455 10.878999214271184 M62.112099870654816 8.96261897887751 C61.95970761212348 9.421600181164845, 61.80731535359214 9.88058138345218, 61.475817794567455 10.878999214271184 M61.475817794567455 10.878999214271184 C61.28300687485962 11.355245913695066, 61.09019595515179 11.831492613118948, 60.71806012499809 12.750675308355405 M61.475817794567455 10.878999214271184 C61.18959816288743 11.585967238200965, 60.90337853120741 12.292935262130745, 60.71806012499809 12.750675308355405 M60.71806012499809 12.750675308355405 C60.41311999820237 13.383890006320208, 60.10817987140665 14.017104704285009, 59.84194065074951 14.569956142586303 M60.71806012499809 12.750675308355405 C60.48093208021191 13.243076767081275, 60.243804035425725 13.735478225807148, 59.84194065074951 14.569956142586303 M59.84194065074951 14.569956142586303 C59.50152725726632 15.174394593309666, 59.16111386378312 15.778833044033028, 58.85105953466841 16.329365901781536 M59.84194065074951 14.569956142586303 C59.49993613968704 15.177219783689802, 59.15793162862457 15.7844834247933, 58.85105953466841 16.329365901781536 M58.85105953466841 16.329365901781536 C58.55847477099582 16.778854668792512, 58.265890007323236 17.228343435803488, 57.74948851980412 18.021674793848334 M58.85105953466841 16.329365901781536 C58.629965200068774 16.669026171868293, 58.40887086546915 17.00868644195505, 57.74948851980412 18.021674793848334 M57.74948851980412 18.021674793848334 C57.345434962796986 18.563069750201592, 56.94138140578986 19.104464706554847, 56.54175419774295 19.639928758550102 M57.74948851980412 18.021674793848334 C57.410060922844124 18.47647685128451, 57.07063332588413 18.93127890872068, 56.54175419774295 19.639928758550102 M56.54175419774295 19.639928758550102 C56.06126121013784 20.204343162616578, 55.58076822253275 20.768757566683053, 55.23281940787245 21.177478043231467 M56.54175419774295 19.639928758550102 C56.07479703158147 20.18844321653884, 55.60783986541999 20.73695767452758, 55.23281940787245 21.177478043231467 M55.23281940787245 21.177478043231467 C54.726147953167256 21.700657918714633, 54.21947649846207 22.2238377941978, 53.82806284400983 22.628004528078414 M55.23281940787245 21.177478043231467 C54.79783810926196 21.62663194667558, 54.362856810651465 22.07578585011969, 53.82806284400983 22.628004528078414 M53.82806284400983 22.628004528078414 C53.419406265422225 22.99913562029111, 53.01074968683463 23.370266712503803, 52.333256952195356 23.985547688627715 M53.82806284400983 22.628004528078414 C53.313848239657126 23.09500062637866, 52.799633635304424 23.561996724678902, 52.333256952195356 23.985547688627715 M52.333256952195356 23.985547688627715 C52.001622685487995 24.250017191168364, 51.66998841878064 24.514486693709014, 50.75454421047331 25.24452908884063 M52.333256952195356 23.985547688627715 C51.71898648340665 24.47541204106303, 51.10471601461794 24.965276393498346, 50.75454421047331 25.24452908884063 M50.75454421047331 25.24452908884063 C50.17925910276874 25.645823076284405, 49.60397399506416 26.047117063728184, 49.0984118881323 26.399775304092973 M50.75454421047331 25.24452908884063 C50.18372143198274 25.642710348595834, 49.612898653492174 26.04089160835104, 49.0984118881323 26.399775304092973 M49.0984118881323 26.399775304092973 C48.608491166127784 26.696768124865848, 48.118570444123264 26.993760945638723, 47.37166538812404 27.446539179886766 M49.0984118881323 26.399775304092973 C48.53318678782805 26.74241808152879, 47.96796168752381 27.08506085896461, 47.37166538812404 27.446539179886766 M47.37166538812404 27.446539179886766 C46.753059694961784 27.769265373773656, 46.134454001799526 28.09199156766055, 45.581400282203084 28.3805193389262 M47.37166538812404 27.446539179886766 C46.808844360033035 27.74016254973777, 46.24602333194203 28.033785919588777, 45.581400282203084 28.3805193389262 M45.581400282203084 28.3805193389262 C44.884184548733046 28.68915606196349, 44.186968815263 28.997792785000783, 43.734973153700295 29.197877856399682 M45.581400282203084 28.3805193389262 C45.15078586815916 28.5711395663007, 44.72017145411524 28.761759793675207, 43.734973153700295 29.197877856399682 M43.734973153700295 29.197877856399682 C43.25708496031896 29.373745129114045, 42.77919676693763 29.54961240182841, 41.83997136774407 29.895256030836055 M43.734973153700295 29.197877856399682 C43.054173096553185 29.44841857067656, 42.37337303940607 29.69895928495344, 41.83997136774407 29.895256030836055 M41.83997136774407 29.895256030836055 C41.30911261351944 30.052812122555462, 40.778253859294814 30.21036821427487, 39.90418189314951 30.46978818572942 M41.83997136774407 29.895256030836055 C41.17726522695565 30.09194373480654, 40.51455908616723 30.288631438777028, 39.90418189314951 30.46978818572942 M39.90418189314951 30.46978818572942 C39.46893622828588 30.56913016849115, 39.03369056342223 30.668472151252875, 37.93555930409324 30.919113445218557 M39.90418189314951 30.46978818572942 C39.189873364792795 30.63282444602807, 38.475564836436085 30.795860706326724, 37.93555930409324 30.919113445218557 M37.93555930409324 30.919113445218557 C37.34116326072722 31.015210787899814, 36.746767217361196 31.111308130581072, 35.94219309306196 31.24138543543225 M37.93555930409324 30.919113445218557 C37.32019193545134 31.01860126913536, 36.70482456680945 31.118089093052166, 35.94219309306196 31.24138543543225 M35.94219309306196 31.24138543543225 C35.3696793502674 31.296615147651128, 34.79716560747284 31.351844859870006, 33.93227442939246 31.435279871635593 M35.94219309306196 31.24138543543225 C35.27117200581879 31.30611803269767, 34.60015091857562 31.37085062996309, 33.93227442939246 31.435279871635593 M33.93227442939246 31.435279871635593 C33.209283160192335 31.458464794421708, 32.48629189099221 31.48164971720782, 31.914062500000007 31.5 M33.93227442939246 31.435279871635593 C33.43305911235261 31.451288735189394, 32.933843795312754 31.467297598743194, 31.914062500000007 31.5 M31.914062500000007 31.5 C31.914062500000004 31.5, 31.914062500000004 31.5, 31.9140625 31.5 M31.914062500000007 31.5 C31.914062500000004 31.5, 31.914062500000004 31.5, 31.9140625 31.5 M31.9140625 31.5 C17.468449764834112 31.5, 3.0228370296682243 31.5, -31.914062499999993 31.5 M31.9140625 31.5 C10.685550112718026 31.5, -10.542962274563948 31.5, -31.914062499999993 31.5 M-31.914062499999993 31.5 C-32.38104616607319 31.4850247427576, -32.84802983214639 31.470049485515194, -33.93227442939244 31.435279871635593 M-31.914062499999993 31.5 C-32.70339977048111 31.47468749008746, -33.492737040962226 31.449374980174923, -33.93227442939244 31.435279871635593 M-33.93227442939244 31.435279871635593 C-34.4617003833432 31.384206786585832, -34.99112633729395 31.333133701536067, -35.942193093061945 31.24138543543225 M-33.93227442939244 31.435279871635593 C-34.54182843261079 31.376476930041065, -35.15138243582914 31.317673988446533, -35.942193093061945 31.24138543543225 M-35.942193093061945 31.24138543543225 C-36.697640535073106 31.119250551590294, -37.45308797708427 30.997115667748343, -37.935559304093225 30.919113445218557 M-35.942193093061945 31.24138543543225 C-36.34814316624096 31.175754575790503, -36.754093239419966 31.110123716148756, -37.935559304093225 30.919113445218557 M-37.935559304093225 30.919113445218557 C-38.335250614751594 30.82788651179034, -38.734941925409956 30.736659578362122, -39.90418189314947 30.469788185729428 M-37.935559304093225 30.919113445218557 C-38.70013545757964 30.744603927510962, -39.46471161106606 30.570094409803364, -39.90418189314947 30.469788185729428 M-39.90418189314947 30.469788185729428 C-40.44215809269264 30.310119673599715, -40.9801342922358 30.15045116147, -41.839971367744035 29.89525603083607 M-39.90418189314947 30.469788185729428 C-40.3865055828597 30.326637046392147, -40.86882927256992 30.183485907054862, -41.839971367744035 29.89525603083607 M-41.839971367744035 29.89525603083607 C-42.57829927552058 29.62354453574594, -43.31662718329713 29.35183304065581, -43.73497315370029 29.197877856399685 M-41.839971367744035 29.89525603083607 C-42.53553264413125 29.63928305142762, -43.231093920518475 29.383310072019164, -43.73497315370029 29.197877856399685 M-43.73497315370029 29.197877856399685 C-44.414670418329486 28.89699603985132, -45.094367682958676 28.59611422330296, -45.58140028220308 28.380519338926206 M-43.73497315370029 29.197877856399685 C-44.449643262424566 28.88151459920299, -45.164313371148836 28.565151342006295, -45.58140028220308 28.380519338926206 M-45.58140028220308 28.380519338926206 C-46.01407110412573 28.154795248268044, -46.44674192604838 27.929071157609886, -47.37166538812403 27.446539179886773 M-45.58140028220308 28.380519338926206 C-46.21347663773284 28.05076550911056, -46.845552993262594 27.72101167929491, -47.37166538812403 27.446539179886773 M-47.37166538812403 27.446539179886773 C-47.839015798865276 27.16322861443956, -48.30636620960653 26.87991804899235, -49.09841188813226 26.399775304092994 M-47.37166538812403 27.446539179886773 C-47.813207454257245 27.178873784607617, -48.25474952039047 26.91120838932846, -49.09841188813226 26.399775304092994 M-49.09841188813226 26.399775304092994 C-49.751295360894886 25.944352056363808, -50.40417883365751 25.48892880863462, -50.7545442104733 25.244529088840636 M-49.09841188813226 26.399775304092994 C-49.73403712197545 25.956390656736886, -50.369662355818626 25.513006009380778, -50.7545442104733 25.244529088840636 M-50.7545442104733 25.244529088840636 C-51.31139940593948 24.800451888995443, -51.868254601405674 24.35637468915025, -52.33325695219533 23.98554768862774 M-50.7545442104733 25.244529088840636 C-51.36743087822207 24.755768280910175, -51.980317545970856 24.267007472979714, -52.33325695219533 23.98554768862774 M-52.33325695219533 23.98554768862774 C-52.71529408805941 23.63859166998469, -53.09733122392348 23.29163565134164, -53.82806284400981 22.628004528078435 M-52.33325695219533 23.98554768862774 C-52.78458084072502 23.575667274440796, -53.23590472925471 23.165786860253856, -53.82806284400981 22.628004528078435 M-53.82806284400981 22.628004528078435 C-54.142829408658024 22.302982207263582, -54.45759597330624 21.97795988644873, -55.23281940787244 21.177478043231478 M-53.82806284400981 22.628004528078435 C-54.198344681199394 22.245658130475977, -54.56862651838898 21.86331173287352, -55.23281940787244 21.177478043231478 M-55.23281940787244 21.177478043231478 C-55.69676487823138 20.63250129450275, -56.160710348590314 20.087524545774023, -56.54175419774293 19.639928758550113 M-55.23281940787244 21.177478043231478 C-55.61032333883815 20.734040445336966, -55.98782726980386 20.29060284744245, -56.54175419774293 19.639928758550113 M-56.54175419774293 19.639928758550113 C-56.89736111246501 19.16344788927891, -57.2529680271871 18.68696702000771, -57.7494885198041 18.021674793848355 M-56.54175419774293 19.639928758550113 C-56.858672105472714 19.215287634007552, -57.175590013202495 18.79064650946499, -57.7494885198041 18.021674793848355 M-57.7494885198041 18.021674793848355 C-58.061845284906745 17.54181092311503, -58.37420205000938 17.061947052381704, -58.851059534668394 16.329365901781557 M-57.7494885198041 18.021674793848355 C-58.043169502166535 17.57050194055384, -58.33685048452897 17.11932908725932, -58.851059534668394 16.329365901781557 M-58.851059534668394 16.329365901781557 C-59.05796407674906 15.961985935960557, -59.26486861882973 15.59460597013956, -59.8419406507495 14.569956142586314 M-58.851059534668394 16.329365901781557 C-59.22931279923154 15.657738928253284, -59.6075660637947 14.986111954725013, -59.8419406507495 14.569956142586314 M-59.8419406507495 14.569956142586314 C-60.06749155900532 14.10159485557678, -60.293042467261145 13.633233568567244, -60.71806012499809 12.750675308355417 M-59.8419406507495 14.569956142586314 C-60.07412580803124 14.087818695524268, -60.30631096531298 13.60568124846222, -60.71806012499809 12.750675308355417 M-60.71806012499809 12.750675308355417 C-60.95823460261501 12.157439705184006, -61.19840908023192 11.564204102012592, -61.47581779456745 10.878999214271209 M-60.71806012499809 12.750675308355417 C-60.98064145554099 12.102094345249784, -61.2432227860839 11.45351338214415, -61.47581779456745 10.878999214271209 M-61.47581779456745 10.878999214271209 C-61.65411926400827 10.341983596796641, -61.832420733449105 9.804967979322072, -62.11209987065481 8.962618978877522 M-61.47581779456745 10.878999214271209 C-61.635089149901106 10.399299268450509, -61.79436050523476 9.919599322629809, -62.11209987065481 8.962618978877522 M-62.11209987065481 8.962618978877522 C-62.3055238308443 8.225009588200361, -62.49894779103379 7.4874001975232, -62.62429173372744 7.009409419623911 M-62.11209987065481 8.962618978877522 C-62.28725739748547 8.294667415319882, -62.46241492431613 7.626715851762243, -62.62429173372744 7.009409419623911 M-62.62429173372744 7.009409419623911 C-62.74612011583139 6.383846425957828, -62.86794849793533 5.758283432291746, -63.01028867755518 5.027396693551461 M-62.62429173372744 7.009409419623911 C-62.75362418209885 6.345314631659392, -62.882956630470254 5.681219843694872, -63.01028867755518 5.027396693551461 M-63.01028867755518 5.027396693551461 C-63.08080875885697 4.480456868739985, -63.15132884015875 3.93351704392851, -63.268504557899746 3.024725316091999 M-63.01028867755518 5.027396693551461 C-63.094322650378686 4.375645794717225, -63.1783566232022 3.723894895882988, -63.268504557899746 3.024725316091999 M-63.268504557899746 3.024725316091999 C-63.30680467304487 2.4281701074101454, -63.34510478819 1.831614898728292, -63.39787831032167 1.0096246935071416 M-63.268504557899746 3.024725316091999 C-63.29818486856838 2.5624305199124855, -63.32786517923701 2.1001357237329716, -63.39787831032167 1.0096246935071416 M-63.39787831032167 1.0096246935071416 C-63.39787831032167 0.23454958868377673, -63.39787831032167 -0.5405255161395881, -63.39787831032167 -1.0096246935071262 M-63.39787831032167 1.0096246935071416 C-63.39787831032167 0.25668425719067756, -63.39787831032167 -0.49625617912578646, -63.39787831032167 -1.0096246935071262 M-63.39787831032167 -1.0096246935071262 C-63.3657617382839 -1.509866227025709, -63.333645166246136 -2.0101077605442916, -63.268504557899746 -3.024725316091956 M-63.39787831032167 -1.0096246935071262 C-63.3665537489703 -1.4975300212855664, -63.33522918761893 -1.9854353490640069, -63.268504557899746 -3.024725316091956 M-63.268504557899746 -3.024725316091956 C-63.18096366229767 -3.703675215476531, -63.093422766695596 -4.3826251148611055, -63.01028867755518 -5.027396693551446 M-63.268504557899746 -3.024725316091956 C-63.18269866633868 -3.6902188667497753, -63.096892774777615 -4.355712417407594, -63.01028867755518 -5.027396693551446 M-63.01028867755518 -5.027396693551446 C-62.880967565953895 -5.69143326959744, -62.75164645435261 -6.355469845643435, -62.624291733727446 -7.009409419623896 M-63.01028867755518 -5.027396693551446 C-62.8629869198187 -5.783760087290742, -62.715685162082224 -6.5401234810300375, -62.624291733727446 -7.009409419623896 M-62.624291733727446 -7.009409419623896 C-62.48820829034858 -7.528354568164946, -62.35212484696972 -8.047299716705997, -62.112099870654816 -8.962618978877506 M-62.624291733727446 -7.009409419623896 C-62.423522725232374 -7.775028662854314, -62.2227537167373 -8.540647906084732, -62.112099870654816 -8.962618978877506 M-62.112099870654816 -8.962618978877506 C-61.87794846265775 -9.667845712804189, -61.64379705466069 -10.373072446730873, -61.47581779456746 -10.878999214271168 M-62.112099870654816 -8.962618978877506 C-61.893852775270844 -9.619944457221635, -61.67560567988688 -10.277269935565762, -61.47581779456746 -10.878999214271168 M-61.47581779456746 -10.878999214271168 C-61.292143824135316 -11.332677472333206, -61.10846985370317 -11.786355730395242, -60.71806012499809 -12.750675308355401 M-61.47581779456746 -10.878999214271168 C-61.307392397882225 -11.29501320036723, -61.13896700119698 -11.711027186463292, -60.71806012499809 -12.750675308355401 M-60.71806012499809 -12.750675308355401 C-60.491923719368 -13.220252393190245, -60.26578731373791 -13.68982947802509, -59.84194065074951 -14.5699561425863 M-60.71806012499809 -12.750675308355401 C-60.3687923349704 -13.475937347481441, -60.019524544942705 -14.20119938660748, -59.84194065074951 -14.5699561425863 M-59.84194065074951 -14.5699561425863 C-59.535035289701135 -15.11489768866543, -59.228129928652756 -15.659839234744561, -58.8510595346684 -16.329365901781546 M-59.84194065074951 -14.5699561425863 C-59.59578002968735 -15.007039251747987, -59.34961940862518 -15.444122360909674, -58.8510595346684 -16.329365901781546 M-58.8510595346684 -16.329365901781546 C-58.59034643026439 -16.72989124141714, -58.329633325860385 -17.130416581052728, -57.74948851980411 -18.021674793848344 M-58.8510595346684 -16.329365901781546 C-58.542391476516016 -16.80356292808278, -58.233723418363624 -17.277759954384013, -57.74948851980411 -18.021674793848344 M-57.74948851980411 -18.021674793848344 C-57.41278220149067 -18.472830585811725, -57.076075883177225 -18.923986377775105, -56.54175419774295 -19.639928758550102 M-57.74948851980411 -18.021674793848344 C-57.46260401009555 -18.406073901141312, -57.175719500387 -18.79047300843428, -56.54175419774295 -19.639928758550102 M-56.54175419774295 -19.639928758550102 C-56.09619184154724 -20.163311655353873, -55.65062948535153 -20.686694552157647, -55.232819407872455 -21.177478043231467 M-56.54175419774295 -19.639928758550102 C-56.111253212656365 -20.1456197118328, -55.68075222756978 -20.651310665115496, -55.232819407872455 -21.177478043231467 M-55.232819407872455 -21.177478043231467 C-54.90264227809553 -21.518413037772643, -54.57246514831859 -21.859348032313815, -53.828062844009835 -22.628004528078403 M-55.232819407872455 -21.177478043231467 C-54.855415117027746 -21.567178958997157, -54.47801082618304 -21.956879874762844, -53.828062844009835 -22.628004528078403 M-53.828062844009835 -22.628004528078403 C-53.52441262119541 -22.90377162629383, -53.220762398380984 -23.179538724509253, -52.333256952195356 -23.98554768862771 M-53.828062844009835 -22.628004528078403 C-53.24649863755622 -23.15616575303387, -52.66493443110261 -23.684326977989343, -52.333256952195356 -23.98554768862771 M-52.333256952195356 -23.98554768862771 C-51.89018158547571 -24.338888502855944, -51.44710621875606 -24.692229317084173, -50.75454421047331 -25.244529088840626 M-52.333256952195356 -23.98554768862771 C-51.71764040034294 -24.476485506485563, -51.10202384849052 -24.967423324343414, -50.75454421047331 -25.244529088840626 M-50.75454421047331 -25.244529088840626 C-50.39814491953484 -25.49313780592266, -50.041745628596374 -25.741746523004693, -49.098411888132304 -26.39977530409297 M-50.75454421047331 -25.244529088840626 C-50.18638680829827 -25.6408510974604, -49.618229406123234 -26.037173106080175, -49.098411888132304 -26.39977530409297 M-49.098411888132304 -26.39977530409297 C-48.43263430856075 -26.803373585372587, -47.766856728989204 -27.206971866652204, -47.37166538812404 -27.446539179886763 M-49.098411888132304 -26.39977530409297 C-48.67179740994706 -26.65839150783382, -48.24518293176181 -26.91700771157467, -47.37166538812404 -27.446539179886763 M-47.37166538812404 -27.446539179886763 C-46.790182726200456 -27.74989831215488, -46.20870006427686 -28.053257444422997, -45.58140028220309 -28.3805193389262 M-47.37166538812404 -27.446539179886763 C-46.77125522718238 -27.759772776268967, -46.17084506624072 -28.073006372651168, -45.58140028220309 -28.3805193389262 M-45.58140028220309 -28.3805193389262 C-45.204053961988954 -28.547559361304117, -44.82670764177481 -28.714599383682035, -43.7349731537003 -29.19787785639968 M-45.58140028220309 -28.3805193389262 C-45.046518014903434 -28.617295851941044, -44.51163574760377 -28.85407236495589, -43.7349731537003 -29.19787785639968 M-43.7349731537003 -29.19787785639968 C-43.1400504795042 -29.41681489990876, -42.54512780530809 -29.635751943417844, -41.83997136774408 -29.895256030836055 M-43.7349731537003 -29.19787785639968 C-43.04840933608068 -29.450539687810057, -42.36184551846107 -29.70320151922044, -41.83997136774408 -29.895256030836055 M-41.83997136774408 -29.895256030836055 C-41.30953274906187 -30.052687428531804, -40.77909413037967 -30.210118826227557, -39.90418189314951 -30.469788185729417 M-41.83997136774408 -29.895256030836055 C-41.0693389904572 -30.123975675282907, -40.29870661317032 -30.352695319729758, -39.90418189314951 -30.469788185729417 M-39.90418189314951 -30.469788185729417 C-39.31038590123214 -30.605318246003584, -38.716589909314756 -30.74084830627775, -37.93555930409324 -30.919113445218553 M-39.90418189314951 -30.469788185729417 C-39.22548219937607 -30.6246969619038, -38.546782505602614 -30.779605738078182, -37.93555930409324 -30.919113445218553 M-37.93555930409324 -30.919113445218553 C-37.52850811654858 -30.98492232449167, -37.12145692900392 -31.050731203764787, -35.94219309306196 -31.24138543543225 M-37.93555930409324 -30.919113445218553 C-37.295572564152216 -31.022581538160924, -36.655585824211194 -31.126049631103296, -35.94219309306196 -31.24138543543225 M-35.94219309306196 -31.24138543543225 C-35.28970132242844 -31.3043305318091, -34.637209551794925 -31.36727562818595, -33.93227442939246 -31.435279871635593 M-35.94219309306196 -31.24138543543225 C-35.313258708404796 -31.30205797911586, -34.684324323747624 -31.362730522799477, -33.93227442939246 -31.435279871635593 M-33.93227442939246 -31.435279871635593 C-33.49859808932829 -31.449187027761663, -33.06492174926412 -31.463094183887733, -31.91406250000001 -31.5 M-33.93227442939246 -31.435279871635593 C-33.48068552720298 -31.449761448764335, -33.0290966250135 -31.46424302589308, -31.91406250000001 -31.5 M-31.91406250000001 -31.5 C-31.914062500000007 -31.5, -31.914062500000004 -31.5, -31.9140625 -31.5 M-31.91406250000001 -31.5 C-31.914062500000007 -31.5, -31.914062500000004 -31.5, -31.9140625 -31.5" stroke="#888" stroke-width="1.3" fill="none" stroke-dasharray="5 5" style="fill:#fafafa !important;stroke:#888 !important;stroke-dasharray:5 5 !important"/></g><g class="label" style="color:#666 !important" transform="translate(-48.0390625, -24)"><rect/><foreignObject width="96.078125" height="48"><div style="color: rgb(102, 102, 102) !important; display: table-cell; white-space: nowrap; line-height: 1.5; max-width: 200px; text-align: center;" xmlns="http://www.w3.org/1999/xhtml"><span style="color:#666 !important" class="nodeLabel"><p>Cloud Logger<br /><i>optional</i></p></span></div></foreignObject></g></g><g class="node default terminator" id="my-svg-flowchart-term_angler-3" data-look="classic" transform="translate(1806.264503479004, 363.16015625)"><rect class="basic label-container" style="fill:#fafafa !important;stroke:#444 !important" x="-53.125" y="-27" width="106.25" height="54"/><g class="label" style="" transform="translate(-23.125, -12)"><rect/><foreignObject width="46.25" height="24"><div xmlns="http://www.w3.org/1999/xhtml" style="display: table-cell; white-space: nowrap; line-height: 1.5; max-width: 200px; text-align: center;"><span class="nodeLabel"><p>Angler</p></span></div></foreignObject></g></g><g class="node default terminator" id="my-svg-flowchart-term_line-4" data-look="classic" transform="translate(292.0859375, 236.2734375)"><rect class="basic label-container" style="fill:#fafafa !important;stroke:#444 !important" x="-73.5859375" y="-27" width="147.171875" height="54"/><g class="label" style="" transform="translate(-43.5859375, -12)"><rect/><foreignObject width="87.171875" height="24"><div xmlns="http://www.w3.org/1999/xhtml" style="display: table-cell; white-space: nowrap; line-height: 1.5; max-width: 200px; text-align: center;"><span class="nodeLabel"><p>Hook &amp; Line</p></span></div></foreignObject></g></g><g class="node default proc" id="my-svg-flowchart-proc_acquire_tension-5" data-look="classic" transform="translate(628.5, 286.05859375)"><circle class="basic label-container" style="fill:#cfe5ff !important;stroke:#2a70c2 !important" r="64.28125" cx="0" cy="0"/><g class="label" style="color:#000 !important" transform="translate(-56.78125, -12)"><rect/><foreignObject width="113.5625" height="24"><div style="color: rgb(0, 0, 0) !important; display: table-cell; white-space: nowrap; line-height: 1.5; max-width: 200px; text-align: center;" xmlns="http://www.w3.org/1999/xhtml"><span style="color:#000 !important" class="nodeLabel"><p>Acquire Tension</p></span></div></foreignObject></g></g><g class="node default brain" id="my-svg-flowchart-proc_bite_detector-6" data-look="classic" transform="translate(1201.375, 285.9140625)"><circle class="basic label-container" style="fill:#7fbff5 !important;stroke:#1f5a99 !important" r="57.2890625" cx="0" cy="0"/><g class="label" style="color:#000 !important;font-weight:bold !important" transform="translate(-49.7890625, -12)"><rect/><foreignObject width="99.578125" height="24"><div style="color: rgb(0, 0, 0) !important; font-weight: bold !important; display: table-cell; white-space: nowrap; line-height: 1.5; max-width: 200px; text-align: center;" xmlns="http://www.w3.org/1999/xhtml"><span style="color:#000 !important;font-weight:bold !important" class="nodeLabel"><p>Bite Detector</p></span></div></foreignObject></g></g><g class="node default proc" id="my-svg-flowchart-proc_reel_controller-7" data-look="classic" transform="translate(1480.585376739502, 210.328125)"><circle class="basic label-container" style="fill:#cfe5ff !important;stroke:#2a70c2 !important" r="60.859375" cx="0" cy="0"/><g class="label" style="color:#000 !important" transform="translate(-53.359375, -12)"><rect/><foreignObject width="106.71875" height="24"><div style="color: rgb(0, 0, 0) !important; display: table-cell; white-space: nowrap; line-height: 1.5; max-width: 200px; text-align: center;" xmlns="http://www.w3.org/1999/xhtml"><span style="color:#000 !important" class="nodeLabel"><p>Reel Controller</p></span></div></foreignObject></g></g><g class="node default proc" id="my-svg-flowchart-proc_serve_ui-8" data-look="classic" transform="translate(1480.585376739502, 363.16015625)"><circle class="basic label-container" style="fill:#cfe5ff !important;stroke:#2a70c2 !important" r="38.625" cx="0" cy="0"/><g class="label" style="color:#000 !important" transform="translate(-31.125, -12)"><rect/><foreignObject width="62.25" height="24"><div style="color: rgb(0, 0, 0) !important; display: table-cell; white-space: nowrap; line-height: 1.5; max-width: 200px; text-align: center;" xmlns="http://www.w3.org/1999/xhtml"><span style="color:#000 !important" class="nodeLabel"><p>Serve UI</p></span></div></foreignObject></g></g><g class="node default optional" id="my-svg-flowchart-proc_cloud_forward-9" data-look="classic" transform="translate(1201.375, 67.96875)"><circle class="basic label-container" style="fill:#e6f0ff !important;stroke:#888 !important;stroke-dasharray:3 3 !important" r="59.96875" cx="0" cy="0"/><g class="label" style="" transform="translate(-52.46875, -12)"><rect/><foreignObject width="104.9375" height="24"><div xmlns="http://www.w3.org/1999/xhtml" style="display: table-cell; white-space: nowrap; line-height: 1.5; max-width: 200px; text-align: center;"><span class="nodeLabel"><p>Cloud Forward</p></span></div></foreignObject></g></g><g class="node default store" id="my-svg-flowchart-store_system_state-10" data-look="classic" transform="translate(927.7734375, 286.05859375)"><path d="M0,11.710963455149502 a55.078125,11.710963455149502 0,0,0 110.15625,0 a55.078125,11.710963455149502 0,0,0 -110.15625,0 l0,50.7109634551495 a55.078125,11.710963455149502 0,0,0 110.15625,0 l0,-50.7109634551495" class="basic label-container outer-path" style="fill:#fff5cc !important;stroke:#b89800 !important" transform="translate(-55.078125, -37.06644518272425)"/><g class="label" style="" transform="translate(-47.578125, -2)"><rect/><foreignObject width="95.15625" height="24"><div xmlns="http://www.w3.org/1999/xhtml" style="display: table-cell; white-space: nowrap; line-height: 1.5; max-width: 200px; text-align: center;"><span class="nodeLabel"><p>System State</p></span></div></foreignObject></g></g><g class="node default" id="my-svg-flowchart-sys_root-22" data-look="classic" transform="translate(292.0859375, 340.2734375)"><rect class="basic label-container" style="" x="-60.234375" y="-27" width="120.46875" height="54"/><g class="label" style="" transform="translate(-30.234375, -12)"><rect/><foreignObject width="60.46875" height="24"><div xmlns="http://www.w3.org/1999/xhtml" style="display: table-cell; white-space: nowrap; line-height: 1.5; max-width: 200px; text-align: center;"><span class="nodeLabel"><p>sys_root</p></span></div></foreignObject></g></g></g></g></g><defs><filter id="my-svg-drop-shadow" height="130%" width="130%"><feDropShadow dx="4" dy="4" stdDeviation="0" flood-opacity="0.06" flood-color="#000000"/></filter></defs><defs><filter id="my-svg-drop-shadow-small" height="150%" width="150%"><feDropShadow dx="2" dy="2" stdDeviation="0" flood-opacity="0.06" flood-color="#000000"/></filter></defs></svg>