<svg id="my-svg" width="100%" xmlns="http://www.w3.org/2000/svg" xmlns:xlink="http://www.w3.org/1999/xlink" class="flowchart" style="max-width: 2299.03px; background-color: white;" viewBox="0 0 2299.03125 784.62890625" role="graphics-document document" aria-roledescription="flowchart-v2"><style>#my-svg{font-family:"trebuchet ms",verdana,arial,sans-serif;font-size:16px;fill:#333;}@keyframes edge-animation-frame{from{stroke-dashoffset:0;}}@keyframes dash{to{stroke-dashoffset:0;}}#my-svg .edge-animation-slow{stroke-dasharray:9,5!important;stroke-dashoffset:900;animation:dash 50s linear infinite;stroke-linecap:round;}#my-svg .edge-animation-fast{stroke-dasharray:9,5!important;stroke-dashoffset:900;animation:dash 20s linear infinite;stroke-linecap:round;}#my-svg .error-icon{fill:#552222;}#my-svg .error-text{fill:#552222;stroke:#552222;}#my-svg .edge-thickness-normal{stroke-width:1px;}#my-svg .edge-thickness-thick{stroke-width:3.5px;}#my-svg .edge-pattern-solid{stroke-dasharray:0;}#my-svg .edge-thickness-invisible{stroke-width:0;fill:none;}#my-svg .edge-pattern-dashed{stroke-dasharray:3;}#my-svg .edge-pattern-dotted{stroke-dasharray:2;}#my-svg .marker{fill:#333333;stroke:#333333;}#my-svg .marker.cross{stroke:#333333;}#my-svg svg{font-family:"trebuchet ms",verdana,arial,sans-serif;font-size:16px;}#my-svg p{margin:0;}#my-svg .label{font-family:"trebuchet ms",verdana,arial,sans-serif;color:#333;}#my-svg .cluster-label text{fill:#333;}#my-svg .cluster-label span{color:#333;}#my-svg .cluster-label span p{background-color:transparent;}#my-svg .label text,#my-svg span{fill:#333;color:#333;}#my-svg .node rect,#my-svg .node circle,#my-svg .node ellipse,#my-svg .node polygon,#my-svg .node path{fill:#ECECFF;stroke:#9370DB;stroke-width:1px;}#my-svg .rough-node .label text,#my-svg .node .label text,#my-svg .image-shape .label,#my-svg .icon-shape .label{text-anchor:middle;}#my-svg .node .katex path{fill:#000;stroke:#000;stroke-width:1px;}#my-svg .rough-node .label,#my-svg .node .label,#my-svg .image-shape .label,#my-svg .icon-shape .label{text-align:center;}#my-svg .node.clickable{cursor:pointer;}#my-svg .root .anchor path{fill:#333333!important;stroke-width:0;stroke:#333333;}#my-svg .arrowheadPath{fill:#333333;}#my-svg .edgePath .path{stroke:#333333;stroke-width:1px;}#my-svg .flowchart-link{stroke:#333333;fill:none;}#my-svg .edgeLabel{background-color:rgba(232,232,232, 0.8);text-align:center;}#my-svg .edgeLabel p{background-color:rgba(232,232,232, 0.8);}#my-svg .edgeLabel rect{opacity:0.5;background-color:rgba(232,232,232, 0.8);fill:rgba(232,232,232, 0.8);}#my-svg .labelBkg{background-color:rgba(232, 232, 232, 0.5);}#my-svg .cluster rect{fill:#ffffde;stroke:#aaaa33;stroke-width:1px;}#my-svg .cluster text{fill:#333;}#my-svg .cluster span{color:#333;}#my-svg div.mermaidTooltip{position:absolute;text-align:center;max-width:200px;padding:2px;font-family:"trebuchet ms",verdana,arial,sans-serif;font-size:12px;background:hsl(80, 100%, 96.2745098039%);border:1px solid #aaaa33;border-radius:2px;pointer-events:none;z-index:100;}#my-svg .flowchartTitleText{text-anchor:middle;font-size:18px;fill:#333;}#my-svg rect.text{fill:none;stroke-width:0;}#my-svg .icon-shape,#my-svg .image-shape{background-color:rgba(232,232,232, 0.8);text-align:center;}#my-svg .icon-shape p,#my-svg .image-shape p{background-color:rgba(232,232,232, 0.8);padding:2px;}#my-svg .icon-shape .label rect,#my-svg .image-shape .label rect{opacity:0.5;background-color:rgba(232,232,232, 0.8);fill:rgba(232,232,232, 0.8);}#my-svg .label-icon{display:inline-block;height:1em;overflow:visible;vertical-align:-0.125em;}#my-svg .node .label-icon path{fill:currentColor;stroke:revert;stroke-width:revert;}#my-svg .node .neo-node{stroke:#9370DB;}#my-svg [data-look="neo"].node rect,#my-svg [data-look="neo"].cluster rect,#my-svg [data-look="neo"].node polygon{stroke:#9370DB;filter:drop-shadow(1px 2px 2px rgba(185, 185, 185, 1));}#my-svg [data-look="neo"].node path{stroke:#9370DB;stroke-width:1px;}#my-svg [data-look="neo"].node .outer-path{filter:drop-shadow(1px 2px 2px rgba(185, 185, 185, 1));}#my-svg [data-look="neo"].node .neo-line path{stroke:#9370DB;filter:none;}#my-svg [data-look="neo"].node circle{stroke:#9370DB;filter:drop-shadow(1px 2px 2px rgba(185, 185, 185, 1));}#my-svg [data-look="neo"].node circle .state-start{fill:#000000;}#my-svg [data-look="neo"].icon-shape .icon{fill:#9370DB;filter:drop-shadow(1px 2px 2px rgba(185, 185, 185, 1));}#my-svg [data-look="neo"].icon-shape .icon-neo path{stroke:#9370DB;filter:drop-shadow(1px 2px 2px rgba(185, 185, 185, 1));}#my-svg :root{--mermaid-font-family:"trebuchet ms",verdana,arial,sans-serif;}#my-svg .proc&gt;*{fill:rgb(207, 229, 255)!important;stroke:rgb(42, 112, 194)!important;color:rgb(0, 0, 0)!important;}#my-svg .proc span{fill:rgb(207, 229, 255)!important;stroke:rgb(42, 112, 194)!important;color:rgb(0, 0, 0)!important;}#my-svg .proc tspan{fill:rgb(0, 0, 0)!important;}#my-svg .brain&gt;*{fill:rgb(127, 191, 245)!important;stroke:rgb(31, 90, 153)!important;color:rgb(0, 0, 0)!important;font-weight:bold!important;}#my-svg .brain span{fill:rgb(127, 191, 245)!important;stroke:rgb(31, 90, 153)!important;color:rgb(0, 0, 0)!important;font-weight:bold!important;}#my-svg .brain tspan{fill:rgb(0, 0, 0)!important;}#my-svg .optional&gt;*{fill:rgb(230, 240, 255)!important;stroke:rgb(136, 136, 136)!important;stroke-dasharray:3,3!important;}#my-svg .optional span{fill:rgb(230, 240, 255)!important;stroke:rgb(136, 136, 136)!important;stroke-dasharray:3,3!important;}#my-svg .terminator&gt;*{fill:rgb(250, 250, 250)!important;stroke:rgb(68, 68, 68)!important;}#my-svg .terminator span{fill:rgb(250, 250, 250)!important;stroke:rgb(68, 68, 68)!important;}#my-svg .store&gt;*{fill:rgb(255, 245, 204)!important;stroke:rgb(184, 152, 0)!important;}#my-svg .store span{fill:rgb(255, 245, 204)!important;stroke:rgb(184, 152, 0)!important;}#my-svg .grid&gt;*{fill:rgb(254, 240, 239)!important;stroke:rgb(231, 76, 60)!important;}#my-svg .grid span{fill:rgb(254, 240, 239)!important;stroke:rgb(231, 76, 60)!important;}#my-svg .termopt&gt;*{fill:rgb(250, 250, 250)!important;stroke:rgb(136, 136, 136)!important;stroke-dasharray:5,5!important;color:rgb(102, 102, 102)!important;}#my-svg .termopt span{fill:rgb(250, 250, 250)!important;stroke:rgb(136, 136, 136)!important;stroke-dasharray:5,5!important;color:rgb(102, 102, 102)!important;}#my-svg .termopt tspan{fill:rgb(102, 102, 102)!important;}</style><g><marker id="my-svg_flowchart-v2-pointEnd" class="marker flowchart-v2" viewBox="0 0 10 10" refX="5" refY="5" markerUnits="userSpaceOnUse" markerWidth="8" markerHeight="8" orient="auto"><path d="M 0 0 L 10 5 L 0 10 z" class="arrowMarkerPath" style="stroke-width: 1; stroke-dasharray: 1, 0;"/></marker><marker id="my-svg_flowchart-v2-pointStart" class="marker flowchart-v2" viewBox="0 0 10 10" refX="4.5" refY="5" markerUnits="userSpaceOnUse" markerWidth="8" markerHeight="8" orient="auto"><path d="M 0 5 L 10 10 L 10 0 z" class="arrowMarkerPath" style="stroke-width: 1; stroke-dasharray: 1, 0;"/></marker><marker id="my-svg_flowchart-v2-pointEnd-margin" class="marker flowchart-v2" viewBox="0 0 11.5 14" refX="11.5" refY="7" markerUnits="userSpaceOnUse" markerWidth="10.5" markerHeight="14" orient="auto"><path d="M 0 0 L 11.5 7 L 0 14 z" class="arrowMarkerPath" style="stroke-width: 0; stroke-dasharray: 1, 0;"/></marker><marker id="my-svg_flowchart-v2-pointStart-margin" class="marker flowchart-v2" viewBox="0 0 11.5 14" refX="1" refY="7" markerUnits="userSpaceOnUse" markerWidth="11.5" markerHeight="14" orient="auto"><polygon points="0,7 11.5,14 11.5,0" class="arrowMarkerPath" style="stroke-width: 0; stroke-dasharray: 1, 0;"/></marker><marker id="my-svg_flowchart-v2-circleEnd" class="marker flowchart-v2" viewBox="0 0 10 10" refX="11" refY="5" markerUnits="userSpaceOnUse" markerWidth="11" markerHeight="11" orient="auto"><circle cx="5" cy="5" r="5" class="arrowMarkerPath" style="stroke-width: 1; stroke-dasharray: 1, 0;"/></marker><marker id="my-svg_flowchart-v2-circleStart" class="marker flowchart-v2" viewBox="0 0 10 10" refX="-1" refY="5" markerUnits="userSpaceOnUse" markerWidth="11" markerHeight="11" orient="auto"><circle cx="5" cy="5" r="5" class="arrowMarkerPath" style="stroke-width: 1; stroke-dasharray: 1, 0;"/></marker><marker id="my-svg_flowchart-v2-circleEnd-margin" class="marker flowchart-v2" viewBox="0 0 10 10" refY="5" refX="12.25" markerUnits="userSpaceOnUse" markerWidth="14" markerHeight="14" orient="auto"><circle cx="5" cy="5" r="5" class="arrowMarkerPath" style="stroke-width: 0; stroke-dasharray: 1, 0;"/></marker><marker id="my-svg_flowchart-v2-circleStart-margin" class="marker flowchart-v2" viewBox="0 0 10 10" refX="-2" refY="5" markerUnits="userSpaceOnUse" markerWidth="14" markerHeight="14" orient="auto"><circle cx="5" cy="5" r="5" class="arrowMarkerPath" style="stroke-width: 0; stroke-dasharray: 1, 0;"/></marker><marker id="my-svg_flowchart-v2-crossEnd" class="marker cross flowchart-v2" viewBox="0 0 11 11" refX="12" refY="5.2" markerUnits="userSpaceOnUse" markerWidth="11" markerHeight="11" orient="auto"><path d="M 1,1 l 9,9 M 10,1 l -9,9" class="arrowMarkerPath" style="stroke-width: 2; stroke-dasharray: 1, 0;"/></marker><marker id="my-svg_flowchart-v2-crossStart" class="marker cross flowchart-v2" viewBox="0 0 11 11" refX="-1" refY="5.2" markerUnits="userSpaceOnUse" markerWidth="11" markerHeight="11" orient="auto"><path d="M 1,1 l 9,9 M 10,1 l -9,9" class="arrowMarkerPath" style="stroke-width: 2; stroke-dasharray: 1, 0;"/></marker><marker id="my-svg_flowchart-v2-crossEnd-margin" class="marker cross flowchart-v2" viewBox="0 0 15 15" refX="17.7" refY="7.5" markerUnits="userSpaceOnUse" markerWidth="12" markerHeight="12" orient="auto"><path d="M 1,1 L 14,14 M 1,14 L 14,1" class="arrowMarkerPath" style="stroke-width: 2.5;"/></marker><marker id="my-svg_flowchart-v2-crossStart-margin" class="marker cross flowchart-v2" viewBox="0 0 15 15" refX="-3.5" refY="7.5" markerUnits="userSpaceOnUse" markerWidth="12" markerHeight="12" orient="auto"><path d="M 1,1 L 14,14 M 1,14 L 14,1" class="arrowMarkerPath" style="stroke-width: 2.5; stroke-dasharray: 1, 0;"/></marker><g class="root"><g class="clusters"/><g class="edgePaths"><path d="M1904.216,138.75L1870.99,229.499C1837.764,320.249,1771.312,501.747,1703.627,592.497C1635.943,683.246,1567.026,683.246,1498.109,683.246C1429.193,683.246,1360.276,683.246,1289.792,683.246C1219.307,683.246,1147.255,683.246,1084.014,683.246C1020.773,683.246,966.344,683.246,917.927,683.246C869.51,683.246,827.107,683.246,782.776,683.246C738.445,683.246,692.188,683.246,655.651,685.148C619.115,687.05,592.301,690.854,578.894,692.756L565.487,694.658" id="my-svg-L_term_inverters_proc_acquire_telemetry_0" class="edge-thickness-normal edge-pattern-solid edge-thickness-normal edge-pattern-solid flowchart-link" style=";" data-edge="true" data-et="edge" data-id="L_term_inverters_proc_acquire_telemetry_0" data-points="W3sieCI6MTkwNC4yMTYwMzcyNTQ0NDc5LCJ5IjoxMzguNzV9LHsieCI6MTcwNC44NTkzNzUsInkiOjY4My4yNDYwOTM3NX0seyJ4IjoxNDk4LjEwOTM3NSwieSI6NjgzLjI0NjA5Mzc1fSx7IngiOjEyOTEuMzU5Mzc1LCJ5Ijo2ODMuMjQ2MDkzNzV9LHsieCI6MTA3NS4yMDMxMjUsInkiOjY4My4yNDYwOTM3NX0seyJ4Ijo5MTEuOTE0MDYyNSwieSI6NjgzLjI0NjA5Mzc1fSx7IngiOjc4NC43MDMxMjUsInkiOjY4My4yNDYwOTM3NX0seyJ4Ijo2NDUuOTI5Njg3NSwieSI6NjgzLjI0NjA5Mzc1fSx7IngiOjU2MS41MjY3MzQ5ODU0NzIzLCJ5Ijo2OTUuMjE5ODMyNTA0NzA1OH1d" data-look="classic" marker-end="url(#my-svg_flowchart-v2-pointEnd)"/><path d="M1579.12,78.779L1600.076,75.941C1621.033,73.103,1662.946,67.426,1704.457,69.5C1745.969,71.573,1787.078,81.397,1807.633,86.309L1828.188,91.22" id="my-svg-L_proc_dispatch_commands_term_inverters_0" class="edge-thickness-normal edge-pattern-solid edge-thickness-normal edge-pattern-solid flowchart-link" style=";" data-edge="true" data-et="edge" data-id="L_proc_dispatch_commands_term_inverters_0" data-points="W3sieCI6MTU3OS4xMTk4NDA2MzU1Mzk1LCJ5Ijo3OC43Nzg4MTIzOTI3Njg1M30seyJ4IjoxNzA0Ljg1OTM3NSwieSI6NjEuNzV9LHsieCI6MTgzMi4wNzgxMjUsInkiOjkyLjE0OTg4MDUyMTIyNjE1fV0=" data-look="classic" marker-end="url(#my-svg_flowchart-v2-pointEnd)"/><path d="M188.047,705.246L207.332,705.246C226.617,705.246,265.188,705.246,303.091,705.246C340.995,705.246,378.232,705.246,396.85,705.246L415.469,705.246" id="my-svg-L_term_meter_proc_acquire_telemetry_0" class="edge-thickness-normal edge-pattern-solid edge-thickness-normal edge-pattern-solid flowchart-link" style=";" data-edge="true" data-et="edge" data-id="L_term_meter_proc_acquire_telemetry_0" data-points="W3sieCI6MTg4LjA0Njg3NSwieSI6NzA1LjI0NjA5Mzc1fSx7IngiOjMwMy43NTc4MTI1LCJ5Ijo3MDUuMjQ2MDkzNzV9LHsieCI6NDE5LjQ2ODc1LCJ5Ijo3MDUuMjQ2MDkzNzV9XQ==" data-look="classic" marker-end="url(#my-svg_flowchart-v2-pointEnd)"/><path d="M1902.819,253.5L1869.826,332.458C1836.833,411.415,1770.846,569.331,1703.394,648.288C1635.943,727.246,1567.026,727.246,1498.109,727.246C1429.193,727.246,1360.276,727.246,1289.792,727.246C1219.307,727.246,1147.255,727.246,1084.014,727.246C1020.773,727.246,966.344,727.246,917.927,727.246C869.51,727.246,827.107,727.246,782.776,727.246C738.445,727.246,692.188,727.246,655.651,725.344C619.115,723.442,592.301,719.638,578.894,717.736L565.487,715.834" id="my-svg-L_term_battery_system_proc_acquire_telemetry_0" class="edge-thickness-normal edge-pattern-solid edge-thickness-normal edge-pattern-solid flowchart-link" style=";" data-edge="true" data-et="edge" data-id="L_term_battery_system_proc_acquire_telemetry_0" data-points="W3sieCI6MTkwMi44MTkzMTk1OTY4MzIsInkiOjI1My41fSx7IngiOjE3MDQuODU5Mzc1LCJ5Ijo3MjcuMjQ2MDkzNzV9LHsieCI6MTQ5OC4xMDkzNzUsInkiOjcyNy4yNDYwOTM3NX0seyJ4IjoxMjkxLjM1OTM3NSwieSI6NzI3LjI0NjA5Mzc1fSx7IngiOjEwNzUuMjAzMTI1LCJ5Ijo3MjcuMjQ2MDkzNzV9LHsieCI6OTExLjkxNDA2MjUsInkiOjcyNy4yNDYwOTM3NX0seyJ4Ijo3ODQuNzAzMTI1LCJ5Ijo3MjcuMjQ2MDkzNzV9LHsieCI6NjQ1LjkyOTY4NzUsInkiOjcyNy4yNDYwOTM3NX0seyJ4Ijo1NjEuNTI2NzM0OTg1NDcyMywieSI6NzE1LjI3MjM1NDk5NTI5NDJ9XQ==" data-look="classic" marker-end="url(#my-svg_flowchart-v2-pointEnd)"/><path d="M1576.882,111.61L1598.212,117.529C1619.541,123.448,1662.2,135.287,1705.918,149.699C1749.635,164.11,1794.411,181.096,1816.798,189.589L1839.186,198.081" id="my-svg-L_proc_dispatch_commands_term_battery_system_0" class="edge-thickness-normal edge-pattern-solid edge-thickness-normal edge-pattern-solid flowchart-link" style=";" data-edge="true" data-et="edge" data-id="L_proc_dispatch_commands_term_battery_system_0" data-points="W3sieCI6MTU3Ni44ODI0MjAyMDM1MDg0LCJ5IjoxMTEuNjEwMjM0NDMwNzE5Njl9LHsieCI6MTcwNC44NTkzNzUsInkiOjE0Ny4xMjV9LHsieCI6MTg0Mi45MjYyNjcyMjQ0MDk1LCJ5IjoxOTkuNX1d" data-look="classic" marker-end="url(#my-svg_flowchart-v2-pointEnd)"/><path d="M1967.664,364.125L1988.357,364.125C2009.049,364.125,2050.435,364.125,2087.558,374.741C2124.68,385.357,2157.54,406.589,2173.97,417.205L2190.4,427.821" id="my-svg-L_term_user_proc_handle_user_input_0" class="edge-thickness-normal edge-pattern-solid edge-thickness-normal edge-pattern-solid flowchart-link" style=";" data-edge="true" data-et="edge" data-id="L_term_user_proc_handle_user_input_0" data-points="W3sieCI6MTk2Ny42NjQwNjI1LCJ5IjozNjQuMTI1fSx7IngiOjIwOTEuODIwMzEyNSwieSI6MzY0LjEyNX0seyJ4IjoyMTkzLjc1OTc1NjIwODAwMSwieSI6NDI5Ljk5MjE4MjE5NzI5ODN9XQ==" data-look="classic" marker-end="url(#my-svg_flowchart-v2-pointEnd)"/><path d="M1536.734,364.125L1564.755,364.125C1592.776,364.125,1648.818,364.125,1702.118,364.125C1755.419,364.125,1805.979,364.125,1831.259,364.125L1856.539,364.125" id="my-svg-L_proc_serve_ui_term_user_0" class="edge-thickness-normal edge-pattern-solid edge-thickness-normal edge-pattern-solid flowchart-link" style=";" data-edge="true" data-et="edge" data-id="L_proc_serve_ui_term_user_0" data-points="W3sieCI6MTUzNi43MzQzNzUsInkiOjM2NC4xMjV9LHsieCI6MTcwNC44NTkzNzUsInkiOjM2NC4xMjV9LHsieCI6MTg2MC41MzkwNjI1LCJ5IjozNjQuMTI1fV0=" data-look="classic" marker-end="url(#my-svg_flowchart-v2-pointEnd)"/><path d="M1135.172,576.277L1161.203,576.277C1187.234,576.277,1239.297,576.277,1288.344,576.358C1337.391,576.439,1383.422,576.601,1406.438,576.682L1429.454,576.763" id="my-svg-L_proc_cloud_forward_term_smiles_cloud_0" class="edge-thickness-normal edge-pattern-dotted edge-thickness-normal edge-pattern-solid flowchart-link" style=";" data-edge="true" data-et="edge" data-id="L_proc_cloud_forward_term_smiles_cloud_0" data-points="W3sieCI6MTEzNS4xNzE4NzUsInkiOjU3Ni4yNzczNDM3NX0seyJ4IjoxMjkxLjM1OTM3NSwieSI6NTc2LjI3NzM0Mzc1fSx7IngiOjE0MzMuNDUzNjgxOTQ1NzcwNSwieSI6NTc2Ljc3NzM0Mzc1fV0=" data-look="classic" marker-end="url(#my-svg_flowchart-v2-pointEnd)"/><path d="M1565,229.937L1588.31,223.469C1611.62,217,1658.24,204.062,1704.561,188.865C1750.882,173.667,1796.904,156.208,1819.915,147.479L1842.926,138.75" id="my-svg-L_term_grid_term_inverters_0" class="edge-thickness-normal edge-pattern-solid edge-thickness-normal edge-pattern-solid flowchart-link" style=";" data-edge="true" data-et="edge" data-id="L_term_grid_term_inverters_0" data-points="W3sieCI6MTU2NSwieSI6MjI5LjkzNzI0NDkzNjUxNzU0fSx7IngiOjE3MDQuODU5Mzc1LCJ5IjoxOTEuMTI1fSx7IngiOjE4NDIuOTI2MjY3MjI0NDA5NSwieSI6MTM4Ljc1fV0=" data-look="classic"/><path d="M1565,262.028L1588.31,266.742C1611.62,271.456,1658.24,280.884,1702.383,279.245C1746.526,277.605,1788.193,264.898,1809.026,258.545L1829.859,252.191" id="my-svg-L_term_grid_term_battery_system_0" class="edge-thickness-normal edge-pattern-solid edge-thickness-normal edge-pattern-solid flowchart-link" style=";" data-edge="true" data-et="edge" data-id="L_term_grid_term_battery_system_0" data-points="W3sieCI6MTU2NSwieSI6MjYyLjAyNzc1OTQwOTAwODQ3fSx7IngiOjE3MDQuODU5Mzc1LCJ5IjoyOTAuMzEyNX0seyJ4IjoxODI5Ljg1OTM3NSwieSI6MjUyLjE5MTMwMzcxODc3Njg1fV0=" data-look="classic"/><path d="M530.059,645.595L549.371,616.214C568.683,586.833,607.306,528.071,639.901,498.69C672.495,469.309,699.06,469.309,712.342,469.309L725.625,469.309" id="my-svg-L_proc_acquire_telemetry_store_system_state_0" class="edge-thickness-normal edge-pattern-solid edge-thickness-normal edge-pattern-solid flowchart-link" style=";" data-edge="true" data-et="edge" data-id="L_proc_acquire_telemetry_store_system_state_0" data-points="W3sieCI6NTMwLjA1OTMzNjUxNDk0NTIsInkiOjY0NS41OTQ5NzE1NzEwOTA5fSx7IngiOjY0NS45Mjk2ODc1LCJ5Ijo0NjkuMzA4NTkzNzV9LHsieCI6NzI5LjYyNSwieSI6NDY5LjMwODU5Mzc1fV0=" data-look="classic" marker-end="url(#my-svg_flowchart-v2-pointEnd)"/><path d="M821.778,435.293L836.8,419.765C851.823,404.237,881.869,373.181,911.816,357.653C941.763,342.125,971.612,342.125,986.536,342.125L1001.461,342.125" id="my-svg-L_store_system_state_proc_compute_balance_0" class="edge-thickness-normal edge-pattern-solid edge-thickness-normal edge-pattern-solid flowchart-link" style=";" data-edge="true" data-et="edge" data-id="L_store_system_state_proc_compute_balance_0" data-points="W3sieCI6ODIxLjc3NzU0MjI4NzQyNDEsInkiOjQzNS4yOTI1MDYzMDEwMTYyfSx7IngiOjkxMS45MTQwNjI1LCJ5IjozNDIuMTI1fSx7IngiOjEwMDUuNDYwOTM3NSwieSI6MzQyLjEyNX1d" data-look="classic" marker-end="url(#my-svg_flowchart-v2-pointEnd)"/><path d="M839.781,469.309L851.803,469.309C863.826,469.309,887.87,469.309,927.107,469.309C966.344,469.309,1020.773,469.309,1084.014,469.309C1147.255,469.309,1219.307,469.309,1283.46,454.999C1347.612,440.69,1403.865,412.071,1431.992,397.762L1460.118,383.453" id="my-svg-L_store_system_state_proc_serve_ui_0" class="edge-thickness-normal edge-pattern-solid edge-thickness-normal edge-pattern-solid flowchart-link" style=";" data-edge="true" data-et="edge" data-id="L_store_system_state_proc_serve_ui_0" data-points="W3sieCI6ODM5Ljc4MTI1LCJ5Ijo0NjkuMzA4NTkzNzV9LHsieCI6OTExLjkxNDA2MjUsInkiOjQ2OS4zMDg1OTM3NX0seyJ4IjoxMDc1LjIwMzEyNSwieSI6NDY5LjMwODU5Mzc1fSx7IngiOjEyOTEuMzU5Mzc1LCJ5Ijo0NjkuMzA4NTkzNzV9LHsieCI6MTQ2My42ODM0MjQ0MDMxODMsInkiOjM4MS42MzkxMjQzMTQ1NDk4Nn1d" data-look="classic" marker-end="url(#my-svg_flowchart-v2-pointEnd)"/><path d="M828.784,501.685L842.639,514.117C856.494,526.549,884.204,551.413,914.612,563.845C945.021,576.277,978.128,576.277,994.681,576.277L1011.234,576.277" id="my-svg-L_store_system_state_proc_cloud_forward_0" class="edge-thickness-normal edge-pattern-dotted edge-thickness-normal edge-pattern-solid flowchart-link" style=";" data-edge="true" data-et="edge" data-id="L_store_system_state_proc_cloud_forward_0" data-points="W3sieCI6ODI4Ljc4MzgyNzMyNDc2MDUsInkiOjUwMS42ODU0OTMyNjc2NzUyfSx7IngiOjkxMS45MTQwNjI1LCJ5Ijo1NzYuMjc3MzQzNzV9LHsieCI6MTAxNS4yMzQzNzUsInkiOjU3Ni4yNzczNDM3NX1d" data-look="classic" marker-end="url(#my-svg_flowchart-v2-pointEnd)"/><path d="M1118.362,287.341L1147.195,250.743C1176.028,214.144,1233.694,140.947,1282.773,106.503C1331.853,72.059,1372.347,76.368,1392.594,78.522L1412.841,80.677" id="my-svg-L_proc_compute_balance_proc_dispatch_commands_0" class="edge-thickness-normal edge-pattern-solid edge-thickness-normal edge-pattern-solid flowchart-link" style=";" data-edge="true" data-et="edge" data-id="L_proc_compute_balance_proc_dispatch_commands_0" data-points="W3sieCI6MTExOC4zNjI0MTEyNzE5MjM3LCJ5IjoyODcuMzQxMzQ2MTgwNzg3NzV9LHsieCI6MTI5MS4zNTkzNzUsInkiOjY3Ljc1fSx7IngiOjE0MTYuODE4MzAxMzc0Njc0MywieSI6ODEuMDk5OTIyMDMyNjEzNDZ9XQ==" data-look="classic" marker-end="url(#my-svg_flowchart-v2-pointEnd)"/><path d="M1134.087,304.753L1160.299,288.117C1186.511,271.481,1238.935,238.209,1287.121,209.331C1335.306,180.453,1379.254,155.969,1401.227,143.726L1423.201,131.484" id="my-svg-L_proc_compute_balance_proc_dispatch_commands_2" class="edge-thickness-normal edge-pattern-solid edge-thickness-normal edge-pattern-solid flowchart-link" style=";" data-edge="true" data-et="edge" data-id="L_proc_compute_balance_proc_dispatch_commands_2" data-points="W3sieCI6MTEzNC4wODcwOTg0NjU4MjkzLCJ5IjozMDQuNzUzMjE0MDM1NzEwNDd9LHsieCI6MTI5MS4zNTkzNzUsInkiOjIwNC45Mzc1fSx7IngiOjE0MjYuNjk0OTMwNjkyMTYzLCJ5IjoxMjkuNTM3NDMwNzMxMzYxMzN9XQ==" data-look="classic" marker-end="url(#my-svg_flowchart-v2-pointEnd)"/><path d="M1144.587,349.187L1169.049,351.676C1193.511,354.166,1242.435,359.146,1294.251,361.635C1346.068,364.125,1400.776,364.125,1428.13,364.125L1455.484,364.125" id="my-svg-L_proc_compute_balance_proc_serve_ui_0" class="edge-thickness-normal edge-pattern-solid edge-thickness-normal edge-pattern-solid flowchart-link" style=";" data-edge="true" data-et="edge" data-id="L_proc_compute_balance_proc_serve_ui_0" data-points="W3sieCI6MTE0NC41ODY4NzE5MjAxMTQ2LCJ5IjozNDkuMTg2NzU0NzgyNjc0NjV9LHsieCI6MTI5MS4zNTkzNzUsInkiOjM2NC4xMjV9LHsieCI6MTQ1OS40ODQzNzUsInkiOjM2NC4xMjV9XQ==" data-look="classic" marker-end="url(#my-svg_flowchart-v2-pointEnd)"/><path d="M2185.83,451.197L2170.161,448.956C2154.493,446.715,2123.157,442.232,2077.869,439.991C2032.581,437.75,1973.341,437.75,1908.848,437.75C1844.354,437.75,1774.607,437.75,1705.275,437.75C1635.943,437.75,1567.026,437.75,1498.109,437.75C1429.193,437.75,1360.276,437.75,1301.031,426.785C1241.787,415.82,1192.214,393.889,1167.427,382.924L1142.641,371.959" id="my-svg-L_proc_handle_user_input_proc_compute_balance_0" class="edge-thickness-normal edge-pattern-solid edge-thickness-normal edge-pattern-solid flowchart-link" style=";" data-edge="true" data-et="edge" data-id="L_proc_handle_user_input_proc_compute_balance_0" data-points="W3sieCI6MjE4NS44Mjk1ODY4Njg5NDc0LCJ5Ijo0NTEuMTk3NDYxNTk4OTUzNH0seyJ4IjoyMDkxLjgyMDMxMjUsInkiOjQzNy43NX0seyJ4IjoxOTE0LjEwMTU2MjUsInkiOjQzNy43NX0seyJ4IjoxNzA0Ljg1OTM3NSwieSI6NDM3Ljc1fSx7IngiOjE0OTguMTA5Mzc1LCJ5Ijo0MzcuNzV9LHsieCI6MTI5MS4zNTkzNzUsInkiOjQzNy43NX0seyJ4IjoxMTM4Ljk4MjkxNzUyODA2MTUsInkiOjM3MC4zNDA0MzUxNzkzOTR9XQ==" data-look="classic" marker-end="url(#my-svg_flowchart-v2-pointEnd)"/><path d="M2215.021,506.216L2194.487,548.388C2173.954,590.559,2132.887,674.903,2082.734,717.074C2032.581,759.246,1973.341,759.246,1908.848,759.246C1844.354,759.246,1774.607,759.246,1705.275,759.246C1635.943,759.246,1567.026,759.246,1498.109,759.246C1429.193,759.246,1360.276,759.246,1289.792,759.246C1219.307,759.246,1147.255,759.246,1084.014,759.246C1020.773,759.246,966.344,759.246,917.927,759.246C869.51,759.246,827.107,759.246,782.776,759.246C738.445,759.246,692.188,759.246,655.077,754.378C617.967,749.509,590.004,739.772,576.023,734.904L562.042,730.035" id="my-svg-L_proc_handle_user_input_proc_acquire_telemetry_0" class="edge-thickness-normal edge-pattern-solid edge-thickness-normal edge-pattern-solid flowchart-link" style=";" data-edge="true" data-et="edge" data-id="L_proc_handle_user_input_proc_acquire_telemetry_0" data-points="W3sieCI6MjIxNS4wMjA2MDQ2ODkwMDA3LCJ5Ijo1MDYuMjE1ODk3MjM2MjY3NjZ9LHsieCI6MjA5MS44MjAzMTI1LCJ5Ijo3NTkuMjQ2MDkzNzV9LHsieCI6MTkxNC4xMDE1NjI1LCJ5Ijo3NTkuMjQ2MDkzNzV9LHsieCI6MTcwNC44NTkzNzUsInkiOjc1OS4yNDYwOTM3NX0seyJ4IjoxNDk4LjEwOTM3NSwieSI6NzU5LjI0NjA5Mzc1fSx7IngiOjEyOTEuMzU5Mzc1LCJ5Ijo3NTkuMjQ2MDkzNzV9LHsieCI6MTA3NS4yMDMxMjUsInkiOjc1OS4yNDYwOTM3NX0seyJ4Ijo5MTEuOTE0MDYyNSwieSI6NzU5LjI0NjA5Mzc1fSx7IngiOjc4NC43MDMxMjUsInkiOjc1OS4yNDYwOTM3NX0seyJ4Ijo2NDUuOTI5Njg3NSwieSI6NzU5LjI0NjA5Mzc1fSx7IngiOjU1OC4yNjQzMzI2NDgzNDA4LCJ5Ijo3MjguNzIwMDAxNDIwNzk3NX1d" data-look="classic" marker-end="url(#my-svg_flowchart-v2-pointEnd)"/></g><g class="edgeLabels"><g class="edgeLabel" transform="translate(1075.203125, 683.24609375)"><g class="label" data-id="L_term_inverters_proc_acquire_telemetry_0" transform="translate(-91.15625, -12)"><foreignObject width="182.3125" height="24"><div xmlns="http://www.w3.org/1999/xhtml" class="labelBkg" style="display: table-cell; white-space: nowrap; line-height: 1.5; max-width: 200px; text-align: center;"><span class="edgeLabel"><p>F1: per-channel telemetry</p></span></div></foreignObject></g></g><g class="edgeLabel" transform="translate(1704.859375, 61.75)"><g class="label" data-id="L_proc_dispatch_commands_term_inverters_0" transform="translate(-86.6953125, -12)"><foreignObject width="173.390625" height="24"><div xmlns="http://www.w3.org/1999/xhtml" class="labelBkg" style="display: table-cell; white-space: nowrap; line-height: 1.5; max-width: 200px; text-align: center;"><span class="edgeLabel"><p>F2: power-limit setpoints</p></span></div></foreignObject></g></g><g class="edgeLabel" transform="translate(303.7578125, 705.24609375)"><g class="label" data-id="L_term_meter_proc_acquire_telemetry_0" transform="translate(-90.7109375, -12)"><foreignObject width="181.421875" height="24"><div xmlns="http://www.w3.org/1999/xhtml" class="labelBkg" style="display: table-cell; white-space: nowrap; line-height: 1.5; max-width: 200px; text-align: center;"><span class="edgeLabel"><p>F3: net grid power, V/I/PF</p></span></div></foreignObject></g></g><g class="edgeLabel" transform="translate(1075.203125, 727.24609375)"><g class="label" data-id="L_term_battery_system_proc_acquire_telemetry_0" transform="translate(-77.8125, -12)"><foreignObject width="155.625" height="24"><div xmlns="http://www.w3.org/1999/xhtml" class="labelBkg" style="display: table-cell; white-space: nowrap; line-height: 1.5; max-width: 200px; text-align: center;"><span class="edgeLabel"><p>F4: SoC, mode, AC-in</p></span></div></foreignObject></g></g><g class="edgeLabel" transform="translate(1711.80344, 149.7592)"><g class="label" data-id="L_proc_dispatch_commands_term_battery_system_0" transform="translate(-100, -24)"><foreignObject width="200" height="48"><div xmlns="http://www.w3.org/1999/xhtml" class="labelBkg" style="display: table; white-space: break-spaces; line-height: 1.5; max-width: 200px; text-align: center; width: 200px;"><span class="edgeLabel"><p>F5: max-charge, grid setpoint</p></span></div></foreignObject></g></g><g class="edgeLabel" transform="translate(2091.8203125, 364.125)"><g class="label" data-id="L_term_user_proc_handle_user_input_0" transform="translate(-68.4765625, -12)"><foreignObject width="136.953125" height="24"><div xmlns="http://www.w3.org/1999/xhtml" class="labelBkg" style="display: table-cell; white-space: nowrap; line-height: 1.5; max-width: 200px; text-align: center;"><span class="edgeLabel"><p>F6: config, override</p></span></div></foreignObject></g></g><g class="edgeLabel" transform="translate(1704.859375, 364.125)"><g class="label" data-id="L_proc_serve_ui_term_user_0" transform="translate(-79.6015625, -12)"><foreignObject width="159.203125" height="24"><div xmlns="http://www.w3.org/1999/xhtml" class="labelBkg" style="display: table-cell; white-space: nowrap; line-height: 1.5; max-width: 200px; text-align: center;"><span class="edgeLabel"><p>F7: dashboards, alerts</p></span></div></foreignObject></g></g><g class="edgeLabel" transform="translate(1291.359375, 576.27734375)"><g class="label" data-id="L_proc_cloud_forward_term_smiles_cloud_0" transform="translate(-100, -24)"><foreignObject width="200" height="48"><div xmlns="http://www.w3.org/1999/xhtml" class="labelBkg" style="display: table; white-space: break-spaces; line-height: 1.5; max-width: 200px; text-align: center; width: 200px;"><span class="edgeLabel"><p>F8: optional telemetry forward</p></span></div></foreignObject></g></g><g class="edgeLabel"><g class="label" data-id="L_term_grid_term_inverters_0" transform="translate(0, 0)"><foreignObject width="0" height="0"><div xmlns="http://www.w3.org/1999/xhtml" class="labelBkg" style="display: table-cell; white-space: nowrap; line-height: 1.5; max-width: 200px; text-align: center;"><span class="edgeLabel"></span></div></foreignObject></g></g><g class="edgeLabel"><g class="label" data-id="L_term_grid_term_battery_system_0" transform="translate(0, 0)"><foreignObject width="0" height="0"><div xmlns="http://www.w3.org/1999/xhtml" class="labelBkg" style="display: table-cell; white-space: nowrap; line-height: 1.5; max-width: 200px; text-align: center;"><span class="edgeLabel"></span></div></foreignObject></g></g><g class="edgeLabel" transform="translate(645.9296875, 469.30859375)"><g class="label" data-id="L_proc_acquire_telemetry_store_system_state_0" transform="translate(-58.6953125, -12)"><foreignObject width="117.390625" height="24"><div xmlns="http://www.w3.org/1999/xhtml" class="labelBkg" style="display: table-cell; white-space: nowrap; line-height: 1.5; max-width: 200px; text-align: center;"><span class="edgeLabel"><p>normalized state</p></span></div></foreignObject></g></g><g class="edgeLabel" transform="translate(911.9140625, 342.125)"><g class="label" data-id="L_store_system_state_proc_compute_balance_0" transform="translate(-47.1328125, -12)"><foreignObject width="94.265625" height="24"><div xmlns="http://www.w3.org/1999/xhtml" class="labelBkg" style="display: table-cell; white-space: nowrap; line-height: 1.5; max-width: 200px; text-align: center;"><span class="edgeLabel"><p>system_state</p></span></div></foreignObject></g></g><g class="edgeLabel" transform="translate(1075.203125, 469.30859375)"><g class="label" data-id="L_store_system_state_proc_serve_ui_0" transform="translate(-47.1328125, -12)"><foreignObject width="94.265625" height="24"><div xmlns="http://www.w3.org/1999/xhtml" class="labelBkg" style="display: table-cell; white-space: nowrap; line-height: 1.5; max-width: 200px; text-align: center;"><span class="edgeLabel"><p>system_state</p></span></div></foreignObject></g></g><g class="edgeLabel" transform="translate(911.9140625, 576.27734375)"><g class="label" data-id="L_store_system_state_proc_cloud_forward_0" transform="translate(-47.1328125, -12)"><foreignObject width="94.265625" height="24"><div xmlns="http://www.w3.org/1999/xhtml" class="labelBkg" style="display: table-cell; white-space: nowrap; line-height: 1.5; max-width: 200px; text-align: center;"><span class="edgeLabel"><p>system_state</p></span></div></foreignObject></g></g><g class="edgeLabel" transform="translate(1243.89958, 127.99245)"><g class="label" data-id="L_proc_compute_balance_proc_dispatch_commands_0" transform="translate(-47.5859375, -12)"><foreignObject width="95.171875" height="24"><div xmlns="http://www.w3.org/1999/xhtml" class="labelBkg" style="display: table-cell; white-space: nowrap; line-height: 1.5; max-width: 200px; text-align: center;"><span class="edgeLabel"><p>cmd_setpoint</p></span></div></foreignObject></g></g><g class="edgeLabel" transform="translate(1278.12435, 213.33735)"><g class="label" data-id="L_proc_compute_balance_proc_dispatch_commands_2" transform="translate(-64.90625, -12)"><foreignObject width="129.8125" height="24"><div xmlns="http://www.w3.org/1999/xhtml" class="labelBkg" style="display: table-cell; white-space: nowrap; line-height: 1.5; max-width: 200px; text-align: center;"><span class="edgeLabel"><p>cmd_inverter_limit</p></span></div></foreignObject></g></g><g class="edgeLabel" transform="translate(1291.359375, 364.125)"><g class="label" data-id="L_proc_compute_balance_proc_serve_ui_0" transform="translate(-39.5859375, -12)"><foreignObject width="79.171875" height="24"><div xmlns="http://www.w3.org/1999/xhtml" class="labelBkg" style="display: table-cell; white-space: nowrap; line-height: 1.5; max-width: 200px; text-align: center;"><span class="edgeLabel"><p>event_alert</p></span></div></foreignObject></g></g><g class="edgeLabel" transform="translate(1704.859375, 437.75)"><g class="label" data-id="L_proc_handle_user_input_proc_compute_balance_0" transform="translate(-52.921875, -12)"><foreignObject width="105.84375" height="24"><div xmlns="http://www.w3.org/1999/xhtml" class="labelBkg" style="display: table-cell; white-space: nowrap; line-height: 1.5; max-width: 200px; text-align: center;"><span class="edgeLabel"><p>event_override</p></span></div></foreignObject></g></g><g class="edgeLabel" transform="translate(1291.359375, 759.24609375)"><g class="label" data-id="L_proc_handle_user_input_proc_acquire_telemetry_0" transform="translate(-45.3671875, -12)"><foreignObject width="90.734375" height="24"><div xmlns="http://www.w3.org/1999/xhtml" class="labelBkg" style="display: table-cell; white-space: nowrap; line-height: 1.5; max-width: 200px; text-align: center;"><span class="edgeLabel"><p>event_config</p></span></div></foreignObject></g></g></g><g class="nodes"><g class="node default termopt" id="my-svg-flowchart-term_smiles_cloud-0" data-look="classic" transform="translate(1498.109375, 576.27734375)"><g class="basic label-container outer-path"><path d="M-33.671875 -31.5 C-8.101760183895934 -31.5, 17.468354632208133 -31.5, 33.671875 -31.5 C33.671875 -31.5, 33.671875 -31.5, 33.671875 -31.5 C34.20641976500854 -31.482858189814444, 34.74096453001708 -31.465716379628883, 35.69008692939246 -31.435279871635593 C36.266310456027426 -31.3796922810313, 36.842533982662395 -31.324104690427006, 37.70000559306194 -31.241385435432253 C38.136967976217576 -31.17074074601754, 38.573930359373215 -31.10009605660283, 39.693371804093225 -30.91911344521856 C40.247881017284726 -30.792550335818383, 40.80239023047623 -30.665987226418206, 41.66199439314948 -30.469788185729428 C42.05815457791835 -30.35220992237727, 42.45431476268722 -30.234631659025116, 43.59778386774405 -29.895256030836062 C44.0221136235909 -29.739098758223157, 44.446443379437746 -29.582941485610252, 45.49278565370028 -29.197877856399685 C46.022495399886985 -28.96339106504416, 46.55220514607368 -28.728904273688634, 47.33921278220308 -28.380519338926202 C47.998523567455905 -28.036557324568516, 48.65783435270873 -27.69259531021083, 49.129477888124036 -27.44653917988677 C49.535068458184256 -27.200667792801507, 49.940659028244475 -26.954796405716245, 50.856224388132276 -26.399775304092984 C51.421338851912296 -26.005575917570898, 51.986453315692316 -25.61137653104881, 52.5123567104733 -25.244529088840633 C53.11515831651968 -24.763810849243068, 53.71795992256606 -24.283092609645507, 54.09106945219533 -23.985547688627737 C54.49400074884705 -23.61961614598655, 54.89693204549877 -23.253684603345366, 55.58587534400982 -22.62800452807842 C55.93193367028665 -22.27067089428062, 56.27799199656348 -21.91333726048282, 56.990631907872434 -21.177478043231485 C57.428304337036096 -20.66336310366912, 57.865976766199765 -20.149248164106755, 58.29956669774294 -19.63992875855011 C58.59886298341282 -19.238899002205013, 58.898159269082704 -18.837869245859917, 59.5073010198041 -18.02167479384835 C59.75476072082067 -17.641510240853, 60.00222042183723 -17.26134568785764, 60.6088720346684 -16.329365901781543 C60.92486430985766 -15.76828961949544, 61.24085658504693 -15.207213337209335, 61.59975315074951 -14.56995614258631 C61.948170028684075 -13.846461040628242, 62.29658690661864 -13.122965938670173, 62.47587262499809 -12.750675308355413 C62.71777653599012 -12.153167971311142, 62.959680446982155 -11.555660634266872, 63.23363029456745 -10.878999214271206 C63.38183875275429 -10.432618952023418, 63.53004721094114 -9.98623868977563, 63.86991237065481 -8.962618978877531 C64.0449105855736 -8.29527494068606, 64.21990880049239 -7.627930902494587, 64.38210423372745 -7.009409419623907 C64.52209518669319 -6.290585463243201, 64.66208613965894 -5.571761506862495, 64.76810117755518 -5.027396693551458 C64.83582118048793 -4.502173723632224, 64.90354118342067 -3.9769507537129902, 65.02631705789975 -3.024725316091981 C65.0689401898588 -2.360835631057029, 65.11156332181783 -1.6969459460220768, 65.15569081032167 -1.0096246935071378 C65.15569081032167 -0.2645632614010588, 65.15569081032167 0.4804981707050202, 65.15569081032167 1.00962469350713 C65.10712922310722 1.7660106125798594, 65.05856763589277 2.5223965316525883, 65.02631705789975 3.02472531609196 C64.94995910100465 3.6169425511862556, 64.87360114410954 4.209159786280551, 64.76810117755518 5.027396693551435 C64.67150816100293 5.523381418605942, 64.57491514445069 6.019366143660448, 64.38210423372745 7.0094094196239 C64.20015089000502 7.70327637831551, 64.0181975462826 8.39714333700712, 63.869912370654816 8.96261897887751 C63.725425515879834 9.397790364605745, 63.580938661104845 9.83296175033398, 63.233630294567455 10.878999214271184 C63.05757397410684 11.313861729626304, 62.88151765364622 11.748724244981425, 62.47587262499809 12.750675308355405 C62.23279654423127 13.25542799106266, 61.989720463464444 13.760180673769915, 61.59975315074951 14.569956142586303 C61.36808846191377 14.981300256207657, 61.13642377307804 15.392644369829009, 60.60887203466841 16.329365901781536 C60.353681162697605 16.721407609472692, 60.098490290726794 17.113449317163845, 59.50730101980412 18.021674793848334 C59.16237596485468 18.483842944161637, 58.81745090990524 18.94601109447494, 58.29956669774295 19.639928758550102 C57.78258864298817 20.24720059854971, 57.26561058823341 20.854472438549323, 56.99063190787245 21.177478043231467 C56.4574705504099 21.728010918173066, 55.924309192947355 22.278543793114668, 55.58587534400983 22.628004528078414 C55.17639516035363 22.99988359662301, 54.766914976697436 23.37176266516761, 54.091069452195356 23.985547688627715 C53.695783086290916 24.300778046424536, 53.300496720386484 24.61600840422136, 52.51235671047331 25.24452908884063 C52.123910090152286 25.515492635593404, 51.73546346983125 25.786456182346182, 50.8562243881323 26.399775304092973 C50.310481408407114 26.730607905544115, 49.76473842868194 27.061440506995254, 49.12947788812404 27.446539179886766 C48.67769196825094 27.682235604901873, 48.22590604837783 27.91793202991698, 47.339212782203084 28.3805193389262 C46.87996518516175 28.58381462704046, 46.42071758812041 28.787109915154723, 45.492785653700295 29.197877856399682 C44.88524688635774 29.42145773880854, 44.277708119015195 29.6450376212174, 43.59778386774407 29.895256030836055 C43.092355194415276 30.0452646080308, 42.586926521086475 30.195273185225542, 41.66199439314951 30.46978818572942 C40.97788125641035 30.62593254493471, 40.29376811967119 30.78207690414, 39.69337180409324 30.919113445218557 C39.129011450323766 31.010354850536096, 38.564651096554286 31.101596255853636, 37.70000559306196 31.24138543543225 C37.18619458895361 31.29095216505044, 36.67238358484526 31.340518894668634, 35.69008692939246 31.435279871635593 C35.14333393746992 31.452813175896413, 34.59658094554739 31.47034648015723, 33.67187500000001 31.5 C33.67187500000001 31.5, 33.67187500000001 31.5, 33.671875 31.5 C6.784748739744579 31.5, -20.102377520510842 31.5, -33.67187499999999 31.5 C-34.24125500871778 31.481741091351374, -34.810635017435565 31.46348218270275, -35.69008692939244 31.435279871635593 C-36.450259325297935 31.361946954843656, -37.21043172120343 31.288614038051715, -37.700005593061945 31.24138543543225 C-38.393335655062984 31.129293207862855, -39.08666571706402 31.017200980293463, -39.693371804093225 30.919113445218557 C-40.29208710903338 30.782460583848458, -40.89080241397354 30.645807722478356, -41.66199439314947 30.469788185729428 C-42.30295735116765 30.279553744272857, -42.94392030918582 30.08931930281629, -43.597783867744035 29.89525603083607 C-44.33151095869694 29.625237678866522, -45.06523804964985 29.355219326896975, -45.49278565370029 29.197877856399685 C-45.99609259579625 28.975078803203775, -46.49939953789221 28.75227975000786, -47.33921278220308 28.380519338926206 C-47.95420790882029 28.059676775293184, -48.5692030354375 27.738834211660166, -49.12947788812403 27.446539179886773 C-49.59593413692419 27.16377066066293, -50.06239038572435 26.881002141439083, -50.85622438813226 26.399775304092994 C-51.35469931842034 26.05206077135598, -51.85317424870841 25.704346238618964, -52.5123567104733 25.244529088840636 C-52.91867523820433 24.920500875565263, -53.32499376593535 24.59647266228989, -54.09106945219533 23.98554768862774 C-54.619385021711146 23.505745466857448, -55.147700591226965 23.025943245087152, -55.58587534400981 22.628004528078435 C-56.054745699181076 22.143857391392036, -56.52361605435234 21.659710254705633, -56.99063190787244 21.177478043231478 C-57.41984797688961 20.673296425477705, -57.849064045906786 20.169114807723933, -58.29956669774293 19.639928758550113 C-58.612866570783204 19.220135470881758, -58.92616644382347 18.800342183213402, -59.5073010198041 18.021674793848355 C-59.8487056042715 17.497185672139103, -60.19011018873889 16.97269655042985, -60.608872034668394 16.329365901781557 C-60.82042771123677 15.953727375699204, -61.031983387805134 15.57808884961685, -61.5997531507495 14.569956142586314 C-61.91730651284731 13.91054979163672, -62.23485987494513 13.251143440687127, -62.47587262499809 12.750675308355417 C-62.69645712392394 12.205827331297396, -62.917041622849794 11.660979354239377, -63.23363029456745 10.878999214271209 C-63.46432828303153 10.184173629750191, -63.695026271495614 9.489348045229171, -63.86991237065481 8.962618978877522 C-64.06665326575201 8.212360677828585, -64.2633941608492 7.462102376779649, -64.38210423372743 7.009409419623911 C-64.47334749826386 6.5408945405001475, -64.5645907628003 6.0723796613763845, -64.76810117755518 5.027396693551461 C-64.82753084248927 4.566471948037448, -64.88696050742335 4.105547202523434, -65.02631705789975 3.024725316091999 C-65.07284194300468 2.300062676371399, -65.1193668281096 1.5754000366507992, -65.15569081032167 1.0096246935071416 C-65.15569081032167 0.5007081926199854, -65.15569081032167 -0.008208308267170672, -65.15569081032167 -1.0096246935071262 C-65.10624227085891 -1.779825609782317, -65.05679373139614 -2.5500265260575077, -65.02631705789975 -3.024725316091956 C-64.95984738818522 -3.5402509484768965, -64.89337771847069 -4.055776580861838, -64.76810117755518 -5.027396693551446 C-64.66608039667244 -5.5512518412846275, -64.5640596157897 -6.075106989017809, -64.38210423372745 -7.009409419623896 C-64.20985978869392 -7.666252139751451, -64.03761534366038 -8.323094859879006, -63.869912370654816 -8.962618978877506 C-63.67178895660323 -9.559335135321685, -63.47366554255165 -10.156051291765865, -63.23363029456746 -10.878999214271168 C-62.99993206971694 -11.456238347899752, -62.76623384486642 -12.033477481528337, -62.47587262499809 -12.750675308355401 C-62.22397917176848 -13.273737453643186, -61.972085718538864 -13.796799598930969, -61.59975315074951 -14.5699561425863 C-61.320895206293784 -15.06509666039628, -61.042037261838054 -15.560237178206261, -60.6088720346684 -16.329365901781546 C-60.29048140356975 -16.81849941100463, -59.9720907724711 -17.307632920227714, -59.50730101980411 -18.021674793848344 C-59.25387147693258 -18.36124729338988, -59.000441934061044 -18.700819792931416, -58.29956669774295 -19.639928758550102 C-57.954672769661165 -20.045060791495423, -57.609778841579384 -20.450192824440744, -56.990631907872455 -21.177478043231467 C-56.532155620181 -21.650892451876153, -56.07367933248954 -22.124306860520836, -55.585875344009835 -22.628004528078403 C-55.22578169748356 -22.955032050297774, -54.86568805095728 -23.282059572517145, -54.091069452195356 -23.98554768862771 C-53.54145892513086 -24.42384745821128, -52.99184839806637 -24.86214722779485, -52.51235671047331 -25.244529088840626 C-52.07929681437745 -25.546612925496344, -51.646236918281595 -25.84869676215206, -50.856224388132304 -26.39977530409297 C-50.25087089326719 -26.766744150132208, -49.64551739840207 -27.133712996171447, -49.12947788812404 -27.446539179886763 C-48.48434969672086 -27.78310214411748, -47.839221505317674 -28.11966510834819, -47.33921278220309 -28.3805193389262 C-46.96755226741697 -28.545042423904558, -46.595891752630855 -28.709565508882918, -45.4927856537003 -29.19787785639968 C-44.839040232915394 -29.43846221440495, -44.185294812130486 -29.679046572410222, -43.59778386774408 -29.895256030836055 C-43.20791314171996 -30.01096761584681, -42.81804241569585 -30.126679200857566, -41.66199439314951 -30.469788185729417 C-41.12072942302972 -30.59332838307524, -40.57946445290993 -30.71686858042106, -39.69337180409324 -30.919113445218553 C-39.03244095504594 -31.025967619297237, -38.371510105998645 -31.132821793375918, -37.70000559306196 -31.24138543543225 C-37.047049795650935 -31.30437529591425, -36.39409399823992 -31.367365156396254, -35.69008692939246 -31.435279871635593 C-35.18264985231082 -31.45155239103125, -34.675212775229184 -31.467824910426906, -33.67187500000001 -31.5 C-33.67187500000001 -31.5, -33.671875 -31.5, -33.671875 -31.5" stroke="none" stroke-width="0" fill="#fafafa" style="fill:#fafafa !important;stroke:#888 !important;stroke-dasharray:5 5 !important"/><path d="M-33.671875 -31.5 C-19.940483900672852 -31.5, -6.209092801345701 -31.5, 33.671875 -31.5 M-33.671875 -31.5 C-8.530747789597406 -31.5, 16.610379420805188 -31.5, 33.671875 -31.5 M33.671875 -31.5 C33.671875 -31.5, 33.671875 -31.5, 33.671875 -31.5 M33.671875 -31.5 C33.671875 -31.5, 33.671875 -31.5, 33.671875 -31.5 M33.671875 -31.5 C34.144361103324414 -31.484848290304793, 34.616847206648835 -31.46969658060959, 35.69008692939246 -31.435279871635593 M33.671875 -31.5 C34.10857132478217 -31.485995998842068, 34.54526764956434 -31.471991997684132, 35.69008692939246 -31.435279871635593 M35.69008692939246 -31.435279871635593 C36.12186491886207 -31.393626768280466, 36.553642908331696 -31.35197366492534, 37.70000559306194 -31.241385435432253 M35.69008692939246 -31.435279871635593 C36.30168566440277 -31.376279677224243, 36.91328439941309 -31.317279482812893, 37.70000559306194 -31.241385435432253 M37.70000559306194 -31.241385435432253 C38.34511439892949 -31.137089246593096, 38.99022320479704 -31.03279305775394, 39.693371804093225 -30.91911344521856 M37.70000559306194 -31.241385435432253 C38.489107169109666 -31.113809612190977, 39.278208745157386 -30.986233788949697, 39.693371804093225 -30.91911344521856 M39.693371804093225 -30.91911344521856 C40.45756929665241 -30.74469035439661, 41.22176678921159 -30.57026726357466, 41.66199439314948 -30.469788185729428 M39.693371804093225 -30.91911344521856 C40.11027583931439 -30.823957819732406, 40.527179874535555 -30.728802194246253, 41.66199439314948 -30.469788185729428 M41.66199439314948 -30.469788185729428 C42.26889685171383 -30.28966272172354, 42.87579931027819 -30.10953725771765, 43.59778386774405 -29.895256030836062 M41.66199439314948 -30.469788185729428 C42.093452597361825 -30.34173365548953, 42.52491080157417 -30.213679125249637, 43.59778386774405 -29.895256030836062 M43.59778386774405 -29.895256030836062 C44.08479290894656 -29.71603220181131, 44.57180195014908 -29.536808372786556, 45.49278565370028 -29.197877856399685 M43.59778386774405 -29.895256030836062 C44.07520979268811 -29.719558877179775, 44.55263571763218 -29.543861723523488, 45.49278565370028 -29.197877856399685 M45.49278565370028 -29.197877856399685 C46.21016124254582 -28.88031696340852, 46.92753683139137 -28.562756070417354, 47.33921278220308 -28.380519338926202 M45.49278565370028 -29.197877856399685 C46.16940112676887 -28.898360257557105, 46.84601659983745 -28.598842658714524, 47.33921278220308 -28.380519338926202 M47.33921278220308 -28.380519338926202 C48.043488556822616 -28.013099118417355, 48.747764331442156 -27.645678897908507, 49.129477888124036 -27.44653917988677 M47.33921278220308 -28.380519338926202 C47.948428235828246 -28.062692026991073, 48.557643689453414 -27.744864715055947, 49.129477888124036 -27.44653917988677 M49.129477888124036 -27.44653917988677 C49.78263308066145 -27.050592663804625, 50.43578827319887 -26.654646147722477, 50.856224388132276 -26.399775304092984 M49.129477888124036 -27.44653917988677 C49.660735528996774 -27.124487675973278, 50.19199316986952 -26.802436172059785, 50.856224388132276 -26.399775304092984 M50.856224388132276 -26.399775304092984 C51.514823177298936 -25.9403652990524, 52.17342196646559 -25.480955294011817, 52.5123567104733 -25.244529088840633 M50.856224388132276 -26.399775304092984 C51.32566262369193 -26.072315512620257, 51.79510085925158 -25.74485572114753, 52.5123567104733 -25.244529088840633 M52.5123567104733 -25.244529088840633 C53.081269835030334 -24.790836011420456, 53.65018295958737 -24.337142934000283, 54.09106945219533 -23.985547688627737 M52.5123567104733 -25.244529088840633 C52.83567814070962 -24.98668885217177, 53.15899957094594 -24.72884861550291, 54.09106945219533 -23.985547688627737 M54.09106945219533 -23.985547688627737 C54.68612365280427 -23.445135207906088, 55.281177853413205 -22.90472272718444, 55.58587534400982 -22.62800452807842 M54.09106945219533 -23.985547688627737 C54.57152487026857 -23.549210790087375, 55.05198028834182 -23.112873891547014, 55.58587534400982 -22.62800452807842 M55.58587534400982 -22.62800452807842 C56.096703688008006 -22.10053232311328, 56.60753203200618 -21.573060118148145, 56.990631907872434 -21.177478043231485 M55.58587534400982 -22.62800452807842 C55.867157286022135 -22.337557829273784, 56.14843922803445 -22.04711113046915, 56.990631907872434 -21.177478043231485 M56.990631907872434 -21.177478043231485 C57.418732971007955 -20.674606174831933, 57.84683403414348 -20.17173430643238, 58.29956669774294 -19.63992875855011 M56.990631907872434 -21.177478043231485 C57.38979736176632 -20.708595587929963, 57.78896281566021 -20.239713132628438, 58.29956669774294 -19.63992875855011 M58.29956669774294 -19.63992875855011 C58.59006759019788 -19.25068402783623, 58.880568482652826 -18.861439297122345, 59.5073010198041 -18.02167479384835 M58.29956669774294 -19.63992875855011 C58.555397880240704 -19.297138280703294, 58.81122906273847 -18.954347802856475, 59.5073010198041 -18.02167479384835 M59.5073010198041 -18.02167479384835 C59.747649625681035 -17.652434792583882, 59.98799823155797 -17.283194791319417, 60.6088720346684 -16.329365901781543 M59.5073010198041 -18.02167479384835 C59.91139057064938 -17.400884730512317, 60.31548012149466 -16.780094667176282, 60.6088720346684 -16.329365901781543 M60.6088720346684 -16.329365901781543 C60.811863419536635 -15.968934142841354, 61.01485480440488 -15.608502383901165, 61.59975315074951 -14.56995614258631 M60.6088720346684 -16.329365901781543 C60.982103109304376 -15.666656335020857, 61.35533418394035 -15.003946768260171, 61.59975315074951 -14.56995614258631 M61.59975315074951 -14.56995614258631 C61.85518143751493 -14.039553839828097, 62.11060972428035 -13.509151537069883, 62.47587262499809 -12.750675308355413 M61.59975315074951 -14.56995614258631 C61.872726324690774 -14.003121506207009, 62.145699498632034 -13.436286869827706, 62.47587262499809 -12.750675308355413 M62.47587262499809 -12.750675308355413 C62.67867592954844 -12.249747225180892, 62.88147923409879 -11.748819142006369, 63.23363029456745 -10.878999214271206 M62.47587262499809 -12.750675308355413 C62.67260002786417 -12.264754819810616, 62.869327430730245 -11.778834331265816, 63.23363029456745 -10.878999214271206 M63.23363029456745 -10.878999214271206 C63.37063324918379 -10.466368143423239, 63.50763620380013 -10.053737072575272, 63.86991237065481 -8.962618978877531 M63.23363029456745 -10.878999214271206 C63.38790687118998 -10.4143427461185, 63.54218344781252 -9.949686277965794, 63.86991237065481 -8.962618978877531 M63.86991237065481 -8.962618978877531 C64.01088362954214 -8.42503447141005, 64.15185488842947 -7.88744996394257, 64.38210423372745 -7.009409419623907 M63.86991237065481 -8.962618978877531 C64.03126254425763 -8.347320837322366, 64.19261271786046 -7.7320226957672, 64.38210423372745 -7.009409419623907 M64.38210423372745 -7.009409419623907 C64.51357722996828 -6.334323370754855, 64.64505022620911 -5.6592373218858025, 64.76810117755518 -5.027396693551458 M64.38210423372745 -7.009409419623907 C64.52305663725703 -6.285648617800505, 64.66400904078662 -5.561887815977103, 64.76810117755518 -5.027396693551458 M64.76810117755518 -5.027396693551458 C64.86955182765767 -4.2405654850533905, 64.97100247776015 -3.4537342765553234, 65.02631705789975 -3.024725316091981 M64.76810117755518 -5.027396693551458 C64.8560272014728 -4.345459815003679, 64.94395322539043 -3.663522936455899, 65.02631705789975 -3.024725316091981 M65.02631705789975 -3.024725316091981 C65.072758708923 -2.3013591143788275, 65.11920035994625 -1.5779929126656735, 65.15569081032167 -1.0096246935071378 M65.02631705789975 -3.024725316091981 C65.05927124056929 -2.5114373208764667, 65.09222542323882 -1.9981493256609517, 65.15569081032167 -1.0096246935071378 M65.15569081032167 -1.0096246935071378 C65.15569081032167 -0.23723884570430642, 65.15569081032167 0.535147002098525, 65.15569081032167 1.00962469350713 M65.15569081032167 -1.0096246935071378 C65.15569081032167 -0.26206518751264085, 65.15569081032167 0.4854943184818561, 65.15569081032167 1.00962469350713 M65.15569081032167 1.00962469350713 C65.11357798061093 1.665566009116402, 65.07146515090017 2.3215073247256734, 65.02631705789975 3.02472531609196 M65.15569081032167 1.00962469350713 C65.10940947927995 1.7304937821000514, 65.06312814823822 2.4513628706929724, 65.02631705789975 3.02472531609196 M65.02631705789975 3.02472531609196 C64.95156999242352 3.6044487954480466, 64.87682292694727 4.1841722748041335, 64.76810117755518 5.027396693551435 M65.02631705789975 3.02472531609196 C64.9626302155514 3.518667888956284, 64.89894337320304 4.012610461820608, 64.76810117755518 5.027396693551435 M64.76810117755518 5.027396693551435 C64.6444017711095 5.662567001771175, 64.52070236466383 6.297737309990916, 64.38210423372745 7.0094094196239 M64.76810117755518 5.027396693551435 C64.61690062500475 5.803779574649832, 64.46570007245431 6.58016245574823, 64.38210423372745 7.0094094196239 M64.38210423372745 7.0094094196239 C64.24835517735346 7.519452538785651, 64.11460612097946 8.029495657947402, 63.869912370654816 8.96261897887751 M64.38210423372745 7.0094094196239 C64.22667946348548 7.6021114300780255, 64.07125469324353 8.194813440532151, 63.869912370654816 8.96261897887751 M63.869912370654816 8.96261897887751 C63.73325257500587 9.374216509590644, 63.59659277935692 9.785814040303778, 63.233630294567455 10.878999214271184 M63.869912370654816 8.96261897887751 C63.685193605468776 9.518962468679439, 63.50047484028273 10.075305958481367, 63.233630294567455 10.878999214271184 M63.233630294567455 10.878999214271184 C62.95935997415199 11.556452208353303, 62.68508965373651 12.233905202435421, 62.47587262499809 12.750675308355405 M63.233630294567455 10.878999214271184 C62.98244044855828 11.499442990339146, 62.731250602549096 12.11988676640711, 62.47587262499809 12.750675308355405 M62.47587262499809 12.750675308355405 C62.13340668562845 13.46181315905371, 61.79094074625881 14.172951009752015, 61.59975315074951 14.569956142586303 M62.47587262499809 12.750675308355405 C62.275127030389974 13.167527830826797, 62.07438143578186 13.58438035329819, 61.59975315074951 14.569956142586303 M61.59975315074951 14.569956142586303 C61.34751011886525 15.017839188073502, 61.09526708698099 15.465722233560701, 60.60887203466841 16.329365901781536 M61.59975315074951 14.569956142586303 C61.28707114069121 15.125154713931686, 60.97438913063292 15.68035328527707, 60.60887203466841 16.329365901781536 M60.60887203466841 16.329365901781536 C60.37469848357209 16.689119360668602, 60.14052493247576 17.04887281955567, 59.50730101980412 18.021674793848334 M60.60887203466841 16.329365901781536 C60.174813456615496 16.996196438719107, 59.740754878562576 17.663026975656674, 59.50730101980412 18.021674793848334 M59.50730101980412 18.021674793848334 C59.11629021402317 18.54559365177759, 58.72527940824222 19.069512509706847, 58.29956669774295 19.639928758550102 M59.50730101980412 18.021674793848334 C59.14306153273068 18.50972252362684, 58.77882204565723 18.997770253405346, 58.29956669774295 19.639928758550102 M58.29956669774295 19.639928758550102 C58.00443108685564 19.98661184079034, 57.70929547596833 20.33329492303057, 56.99063190787245 21.177478043231467 M58.29956669774295 19.639928758550102 C57.8431201412716 20.176096856326183, 57.38667358480024 20.71226495410226, 56.99063190787245 21.177478043231467 M56.99063190787245 21.177478043231467 C56.556340170474385 21.62591991810972, 56.12204843307632 22.074361792987972, 55.58587534400983 22.628004528078414 M56.99063190787245 21.177478043231467 C56.52119938646741 21.66220566270895, 56.05176686506236 22.14693328218643, 55.58587534400983 22.628004528078414 M55.58587534400983 22.628004528078414 C55.09469623633555 23.07408039778116, 54.60351712866127 23.5201562674839, 54.091069452195356 23.985547688627715 M55.58587534400983 22.628004528078414 C55.1172002249083 23.053642870782294, 54.648525105806776 23.479281213486175, 54.091069452195356 23.985547688627715 M54.091069452195356 23.985547688627715 C53.66313312031567 24.326815525437713, 53.23519678843599 24.66808336224771, 52.51235671047331 25.24452908884063 M54.091069452195356 23.985547688627715 C53.495667616342715 24.460364808411928, 52.900265780490074 24.93518192819614, 52.51235671047331 25.24452908884063 M52.51235671047331 25.24452908884063 C52.11218924678213 25.52366858854129, 51.71202178309095 25.802808088241953, 50.8562243881323 26.399775304092973 M52.51235671047331 25.24452908884063 C52.03349595455505 25.578561622621187, 51.55463519863678 25.91259415640175, 50.8562243881323 26.399775304092973 M50.8562243881323 26.399775304092973 C50.459554422831275 26.640238968149916, 50.06288445753026 26.88070263220686, 49.12947788812404 27.446539179886766 M50.8562243881323 26.399775304092973 C50.39272707143696 26.68075010128626, 49.92922975474161 26.96172489847955, 49.12947788812404 27.446539179886766 M49.12947788812404 27.446539179886766 C48.45570113372238 27.798048081083508, 47.78192437932071 28.149556982280245, 47.339212782203084 28.3805193389262 M49.12947788812404 27.446539179886766 C48.756266053091885 27.641243555169453, 48.38305421805972 27.835947930452143, 47.339212782203084 28.3805193389262 M47.339212782203084 28.3805193389262 C46.809629301461854 28.61495023631455, 46.280045820720616 28.849381133702895, 45.492785653700295 29.197877856399682 M47.339212782203084 28.3805193389262 C46.917511206872014 28.56719411699249, 46.49580963154094 28.75386889505878, 45.492785653700295 29.197877856399682 M45.492785653700295 29.197877856399682 C44.91083599697071 29.412040709559825, 44.32888634024112 29.62620356271997, 43.59778386774407 29.895256030836055 M45.492785653700295 29.197877856399682 C44.78041261857007 29.460037718431757, 44.068039583439834 29.72219758046383, 43.59778386774407 29.895256030836055 M43.59778386774407 29.895256030836055 C43.08239600817971 30.04822044222868, 42.567008148615336 30.201184853621303, 41.66199439314951 30.46978818572942 M43.59778386774407 29.895256030836055 C43.13066583984647 30.0338942095635, 42.66354781194888 30.172532388290943, 41.66199439314951 30.46978818572942 M41.66199439314951 30.46978818572942 C40.8921176012153 30.64550753957283, 40.12224080928109 30.821226893416235, 39.69337180409324 30.919113445218557 M41.66199439314951 30.46978818572942 C41.25715492211317 30.562190153169023, 40.852315451076834 30.65459212060863, 39.69337180409324 30.919113445218557 M39.69337180409324 30.919113445218557 C39.26901324572413 30.987720445985904, 38.84465468735503 31.05632744675325, 37.70000559306196 31.24138543543225 M39.69337180409324 30.919113445218557 C39.177965372834684 31.00244035998787, 38.66255894157613 31.08576727475718, 37.70000559306196 31.24138543543225 M37.70000559306196 31.24138543543225 C37.101841494277565 31.2990896066444, 36.50367739549316 31.356793777856552, 35.69008692939246 31.435279871635593 M37.70000559306196 31.24138543543225 C37.173264712688514 31.292199494663283, 36.64652383231507 31.343013553894316, 35.69008692939246 31.435279871635593 M35.69008692939246 31.435279871635593 C35.17826665108122 31.4516929517633, 34.66644637277 31.468106031891004, 33.67187500000001 31.5 M35.69008692939246 31.435279871635593 C34.997354074644065 31.457494465964672, 34.30462121989568 31.479709060293747, 33.67187500000001 31.5 M33.67187500000001 31.5 C33.67187500000001 31.5, 33.671875 31.5, 33.671875 31.5 M33.67187500000001 31.5 C33.67187500000001 31.5, 33.671875 31.5, 33.671875 31.5 M33.671875 31.5 C8.623752003735884 31.5, -16.42437099252823 31.5, -33.67187499999999 31.5 M33.671875 31.5 C9.288004531554147 31.5, -15.095865936891705 31.5, -33.67187499999999 31.5 M-33.67187499999999 31.5 C-34.20140862460209 31.483018887333685, -34.73094224920418 31.466037774667367, -35.69008692939244 31.435279871635593 M-33.67187499999999 31.5 C-34.19421445294773 31.483249590416033, -34.716553905895466 31.466499180832066, -35.69008692939244 31.435279871635593 M-35.69008692939244 31.435279871635593 C-36.158327059313876 31.39010930944322, -36.62656718923532 31.344938747250843, -37.700005593061945 31.24138543543225 M-35.69008692939244 31.435279871635593 C-36.34402624217572 31.37219513260848, -36.997965554958995 31.309110393581367, -37.700005593061945 31.24138543543225 M-37.700005593061945 31.24138543543225 C-38.35449513630908 31.135572641722266, -39.00898467955623 31.02975984801228, -39.693371804093225 30.919113445218557 M-37.700005593061945 31.24138543543225 C-38.448762985926905 31.12033214685415, -39.19752037879186 30.999278858276046, -39.693371804093225 30.919113445218557 M-39.693371804093225 30.919113445218557 C-40.25199001781555 30.791612483260955, -40.81060823153788 30.66411152130335, -41.66199439314947 30.469788185729428 M-39.693371804093225 30.919113445218557 C-40.37435195683024 30.763684169167124, -41.05533210956725 30.608254893115696, -41.66199439314947 30.469788185729428 M-41.66199439314947 30.469788185729428 C-42.122656457403544 30.33306610312334, -42.583318521657624 30.196344020517248, -43.597783867744035 29.89525603083607 M-41.66199439314947 30.469788185729428 C-42.218950247033426 30.304486611817605, -42.77590610091738 30.139185037905783, -43.597783867744035 29.89525603083607 M-43.597783867744035 29.89525603083607 C-44.04047472312386 29.732341703866886, -44.48316557850368 29.569427376897707, -45.49278565370029 29.197877856399685 M-43.597783867744035 29.89525603083607 C-44.060142900848454 29.725103632653592, -44.52250193395287 29.55495123447112, -45.49278565370029 29.197877856399685 M-45.49278565370029 29.197877856399685 C-46.17632037285377 28.895297312567465, -46.85985509200725 28.59271676873524, -47.33921278220308 28.380519338926206 M-45.49278565370029 29.197877856399685 C-45.93764966072841 29.000949756910234, -46.38251366775653 28.804021657420787, -47.33921278220308 28.380519338926206 M-47.33921278220308 28.380519338926206 C-47.72249402959205 28.180561757666737, -48.105775276981014 27.98060417640727, -49.12947788812403 27.446539179886773 M-47.33921278220308 28.380519338926206 C-48.033015724922805 28.018562788111318, -48.72681866764254 27.65660623729643, -49.12947788812403 27.446539179886773 M-49.12947788812403 27.446539179886773 C-49.56142964993068 27.184687483449267, -49.99338141173734 26.922835787011756, -50.85622438813226 26.399775304092994 M-49.12947788812403 27.446539179886773 C-49.536008601596194 27.200097872340294, -49.94253931506836 26.953656564793818, -50.85622438813226 26.399775304092994 M-50.85622438813226 26.399775304092994 C-51.2565104555256 26.120553071583977, -51.656796522918945 25.84133083907496, -52.5123567104733 25.244529088840636 M-50.85622438813226 26.399775304092994 C-51.25578028000486 26.121062410418457, -51.65533617187746 25.842349516743923, -52.5123567104733 25.244529088840636 M-52.5123567104733 25.244529088840636 C-52.838826362135315 24.98417822936247, -53.16529601379734 24.7238273698843, -54.09106945219533 23.98554768862774 M-52.5123567104733 25.244529088840636 C-52.908646015713025 24.92849891361326, -53.30493532095275 24.612468738385882, -54.09106945219533 23.98554768862774 M-54.09106945219533 23.98554768862774 C-54.61563560510315 23.5091505878167, -55.14020175801098 23.032753487005657, -55.58587534400981 22.628004528078435 M-54.09106945219533 23.98554768862774 C-54.54931279216498 23.569383211721675, -55.00755613213464 23.15321873481561, -55.58587534400981 22.628004528078435 M-55.58587534400981 22.628004528078435 C-55.943448429781874 22.25878095972246, -56.30102151555394 21.889557391366488, -56.99063190787244 21.177478043231478 M-55.58587534400981 22.628004528078435 C-55.93281208936001 22.269763854467822, -56.27974883471022 21.91152318085721, -56.99063190787244 21.177478043231478 M-56.99063190787244 21.177478043231478 C-57.35213529521889 20.75283559432887, -57.71363868256534 20.328193145426262, -58.29956669774293 19.639928758550113 M-56.99063190787244 21.177478043231478 C-57.36771667798249 20.734532815528947, -57.744801448092545 20.291587587826417, -58.29956669774293 19.639928758550113 M-58.29956669774293 19.639928758550113 C-58.6366686272283 19.18824288365727, -58.973770556713674 18.73655700876443, -59.5073010198041 18.021674793848355 M-58.29956669774293 19.639928758550113 C-58.60145163955425 19.235430438806922, -58.90333658136557 18.830932119063732, -59.5073010198041 18.021674793848355 M-59.5073010198041 18.021674793848355 C-59.83719917653346 17.514862635053206, -60.16709733326282 17.008050476258052, -60.608872034668394 16.329365901781557 M-59.5073010198041 18.021674793848355 C-59.91773034943894 17.391145127822583, -60.328159679073785 16.760615461796807, -60.608872034668394 16.329365901781557 M-60.608872034668394 16.329365901781557 C-60.95144698588415 15.721089386422578, -61.2940219370999 15.1128128710636, -61.5997531507495 14.569956142586314 M-60.608872034668394 16.329365901781557 C-60.91112130283384 15.792691720096597, -61.21337057099929 15.256017538411635, -61.5997531507495 14.569956142586314 M-61.5997531507495 14.569956142586314 C-61.921488787453605 13.901865208930424, -62.2432244241577 13.233774275274532, -62.47587262499809 12.750675308355417 M-61.5997531507495 14.569956142586314 C-61.899433595308246 13.947663287325767, -62.199114039867 13.325370432065219, -62.47587262499809 12.750675308355417 M-62.47587262499809 12.750675308355417 C-62.68039338076358 12.245505087474834, -62.884914136529076 11.74033486659425, -63.23363029456745 10.878999214271209 M-62.47587262499809 12.750675308355417 C-62.74672910054651 12.081654577097119, -63.01758557609492 11.41263384583882, -63.23363029456745 10.878999214271209 M-63.23363029456745 10.878999214271209 C-63.39412318828441 10.395620189465717, -63.55461608200137 9.912241164660225, -63.86991237065481 8.962618978877522 M-63.23363029456745 10.878999214271209 C-63.36325903672126 10.48857809643919, -63.492887778875065 10.098156978607168, -63.86991237065481 8.962618978877522 M-63.86991237065481 8.962618978877522 C-63.97634371948667 8.55675011814324, -64.08277506831854 8.150881257408958, -64.38210423372743 7.009409419623911 M-63.86991237065481 8.962618978877522 C-64.06585814808504 8.21539280609888, -64.26180392551528 7.468166633320239, -64.38210423372743 7.009409419623911 M-64.38210423372743 7.009409419623911 C-64.46790492376688 6.568841010253635, -64.55370561380633 6.128272600883359, -64.76810117755518 5.027396693551461 M-64.38210423372743 7.009409419623911 C-64.4917789403417 6.446252980917065, -64.60145364695599 5.883096542210219, -64.76810117755518 5.027396693551461 M-64.76810117755518 5.027396693551461 C-64.83036219008784 4.544512575175776, -64.89262320262048 4.06162845680009, -65.02631705789975 3.024725316091999 M-64.76810117755518 5.027396693551461 C-64.82384049441649 4.595093558948261, -64.8795798112778 4.1627904243450615, -65.02631705789975 3.024725316091999 M-65.02631705789975 3.024725316091999 C-65.0629469749491 2.454184790911543, -65.09957689199844 1.8836442657310875, -65.15569081032167 1.0096246935071416 M-65.02631705789975 3.024725316091999 C-65.07413195166558 2.279969750201549, -65.12194684543141 1.5352141843110985, -65.15569081032167 1.0096246935071416 M-65.15569081032167 1.0096246935071416 C-65.15569081032167 0.46366653682003334, -65.15569081032167 -0.0822916198670749, -65.15569081032167 -1.0096246935071262 M-65.15569081032167 1.0096246935071416 C-65.15569081032167 0.5742885656473855, -65.15569081032167 0.13895243778762933, -65.15569081032167 -1.0096246935071262 M-65.15569081032167 -1.0096246935071262 C-65.10748567570084 -1.7604585757107667, -65.05928054108003 -2.511292457914407, -65.02631705789975 -3.024725316091956 M-65.15569081032167 -1.0096246935071262 C-65.12261089735536 -1.5248710395827247, -65.08953098438903 -2.0401173856583235, -65.02631705789975 -3.024725316091956 M-65.02631705789975 -3.024725316091956 C-64.96852439562682 -3.4729537922287643, -64.9107317333539 -3.9211822683655733, -64.76810117755518 -5.027396693551446 M-65.02631705789975 -3.024725316091956 C-64.96743132805807 -3.481431408441431, -64.90854559821638 -3.9381375007909067, -64.76810117755518 -5.027396693551446 M-64.76810117755518 -5.027396693551446 C-64.6162336199459 -5.807204504655407, -64.46436606233664 -6.587012315759367, -64.38210423372745 -7.009409419623896 M-64.76810117755518 -5.027396693551446 C-64.6905653774844 -5.425526639717747, -64.61302957741363 -5.823656585884048, -64.38210423372745 -7.009409419623896 M-64.38210423372745 -7.009409419623896 C-64.19198010810642 -7.734435110934158, -64.0018559824854 -8.45946080224442, -63.869912370654816 -8.962618978877506 M-64.38210423372745 -7.009409419623896 C-64.23661336244099 -7.564229167981646, -64.09112249115454 -8.119048916339395, -63.869912370654816 -8.962618978877506 M-63.869912370654816 -8.962618978877506 C-63.687254318399816 -9.512755929661148, -63.504596266144816 -10.062892880444789, -63.23363029456746 -10.878999214271168 M-63.869912370654816 -8.962618978877506 C-63.692949192159496 -9.495603877251908, -63.515986013664175 -10.02858877562631, -63.23363029456746 -10.878999214271168 M-63.23363029456746 -10.878999214271168 C-62.95984886956908 -11.555244627220926, -62.686067444570696 -12.231490040170684, -62.47587262499809 -12.750675308355401 M-63.23363029456746 -10.878999214271168 C-63.009337287658646 -11.43300727774622, -62.78504428074984 -11.987015341221275, -62.47587262499809 -12.750675308355401 M-62.47587262499809 -12.750675308355401 C-62.23263051346729 -13.25577275749654, -61.989388401936495 -13.76087020663768, -61.59975315074951 -14.5699561425863 M-62.47587262499809 -12.750675308355401 C-62.19460648066584 -13.334730475192721, -61.91334033633359 -13.918785642030041, -61.59975315074951 -14.5699561425863 M-61.59975315074951 -14.5699561425863 C-61.30553155721581 -15.092376375072389, -61.01130996368211 -15.614796607558478, -60.6088720346684 -16.329365901781546 M-61.59975315074951 -14.5699561425863 C-61.39215341017442 -14.938570503730613, -61.184553669599346 -15.307184864874927, -60.6088720346684 -16.329365901781546 M-60.6088720346684 -16.329365901781546 C-60.345139854929826 -16.734529351866275, -60.08140767519125 -17.139692801951004, -59.50730101980411 -18.021674793848344 M-60.6088720346684 -16.329365901781546 C-60.186304116518 -16.97854369943463, -59.7637361983676 -17.627721497087716, -59.50730101980411 -18.021674793848344 M-59.50730101980411 -18.021674793848344 C-59.05383237906519 -18.62928146059546, -58.60036373832627 -19.23688812734258, -58.29956669774295 -19.639928758550102 M-59.50730101980411 -18.021674793848344 C-59.049583837632206 -18.634974119065575, -58.5918666554603 -19.248273444282805, -58.29956669774295 -19.639928758550102 M-58.29956669774295 -19.639928758550102 C-58.00689213067834 -19.983720958678838, -57.71421756361372 -20.327513158807577, -56.990631907872455 -21.177478043231467 M-58.29956669774295 -19.639928758550102 C-57.93879134944798 -20.063716011356235, -57.578016001153024 -20.487503264162367, -56.990631907872455 -21.177478043231467 M-56.990631907872455 -21.177478043231467 C-56.44328420663698 -21.742659482839095, -55.895936505401515 -22.307840922446722, -55.585875344009835 -22.628004528078403 M-56.990631907872455 -21.177478043231467 C-56.45540581974338 -21.73014292210379, -55.92017973161431 -22.28280780097612, -55.585875344009835 -22.628004528078403 M-55.585875344009835 -22.628004528078403 C-55.17201361925433 -23.00386279632017, -54.758151894498816 -23.379721064561938, -54.091069452195356 -23.98554768862771 M-55.585875344009835 -22.628004528078403 C-55.15860606604177 -23.0160391814034, -54.7313367880737 -23.404073834728397, -54.091069452195356 -23.98554768862771 M-54.091069452195356 -23.98554768862771 C-53.645253109048994 -24.341074358615803, -53.19943676590263 -24.696601028603894, -52.51235671047331 -25.244529088840626 M-54.091069452195356 -23.98554768862771 C-53.56582699690252 -24.404414569435005, -53.04058454160969 -24.8232814502423, -52.51235671047331 -25.244529088840626 M-52.51235671047331 -25.244529088840626 C-51.90589051260143 -25.667573654977478, -51.29942431472955 -26.09061822111433, -50.856224388132304 -26.39977530409297 M-52.51235671047331 -25.244529088840626 C-51.97758893320135 -25.617559940541575, -51.4428211559294 -25.99059079224252, -50.856224388132304 -26.39977530409297 M-50.856224388132304 -26.39977530409297 C-50.18126177514889 -26.808941606604108, -49.50629916216547 -27.218107909115243, -49.12947788812404 -27.446539179886763 M-50.856224388132304 -26.39977530409297 C-50.4018725346337 -26.675206067751684, -49.9475206811351 -26.9506368314104, -49.12947788812404 -27.446539179886763 M-49.12947788812404 -27.446539179886763 C-48.56594379237525 -27.740534556678096, -48.00240969662645 -28.03452993346943, -47.33921278220309 -28.3805193389262 M-49.12947788812404 -27.446539179886763 C-48.666878407431774 -27.68787703265481, -48.204278926739505 -27.929214885422862, -47.33921278220309 -28.3805193389262 M-47.33921278220309 -28.3805193389262 C-46.61376915296271 -28.701651714070245, -45.88832552372232 -29.02278408921429, -45.4927856537003 -29.19787785639968 M-47.33921278220309 -28.3805193389262 C-46.86010178952442 -28.592607563062412, -46.38099079684576 -28.80469578719862, -45.4927856537003 -29.19787785639968 M-45.4927856537003 -29.19787785639968 C-44.96896058504599 -29.39065032385032, -44.44513551639169 -29.583422791300958, -43.59778386774408 -29.895256030836055 M-45.4927856537003 -29.19787785639968 C-45.03431224680867 -29.366600308217514, -44.57583883991703 -29.535322760035353, -43.59778386774408 -29.895256030836055 M-43.59778386774408 -29.895256030836055 C-43.118496644972204 -30.037505962724776, -42.63920942220033 -30.179755894613496, -41.66199439314951 -30.469788185729417 M-43.59778386774408 -29.895256030836055 C-43.157924970923965 -30.0258038425458, -42.71806607410385 -30.156351654255545, -41.66199439314951 -30.469788185729417 M-41.66199439314951 -30.469788185729417 C-41.205823955680266 -30.573906111291475, -40.74965351821101 -30.67802403685353, -39.69337180409324 -30.919113445218553 M-41.66199439314951 -30.469788185729417 C-41.23684697405511 -30.56682530979153, -40.811699554960704 -30.66386243385364, -39.69337180409324 -30.919113445218553 M-39.69337180409324 -30.919113445218553 C-39.05880713873522 -31.021704939191164, -38.42424247337719 -31.12429643316377, -37.70000559306196 -31.24138543543225 M-39.69337180409324 -30.919113445218553 C-39.28190857730757 -30.98563562878028, -38.87044535052189 -31.05215781234201, -37.70000559306196 -31.24138543543225 M-37.70000559306196 -31.24138543543225 C-36.97172765128467 -31.311641532593136, -36.243449709507374 -31.381897629754018, -35.69008692939246 -31.435279871635593 M-37.70000559306196 -31.24138543543225 C-36.954841668500805 -31.313270503043928, -36.20967774393965 -31.385155570655606, -35.69008692939246 -31.435279871635593 M-35.69008692939246 -31.435279871635593 C-35.04170782280125 -31.456072127590602, -34.39332871621004 -31.476864383545614, -33.67187500000001 -31.5 M-35.69008692939246 -31.435279871635593 C-35.114614304173934 -31.453734158636838, -34.53914167895541 -31.472188445638082, -33.67187500000001 -31.5 M-33.67187500000001 -31.5 C-33.67187500000001 -31.5, -33.67187500000001 -31.5, -33.671875 -31.5 M-33.67187500000001 -31.5 C-33.67187500000001 -31.5, -33.671875 -31.5, -33.671875 -31.5" stroke="#888" stroke-width="1.3" fill="none" stroke-dasharray="5 5" style="fill:#fafafa !important;stroke:#888 !important;stroke-dasharray:5 5 !important"/></g><g class="label" style="color:#666 !important" transform="translate(-49.796875, -24)"><rect/><foreignObject width="99.59375" height="48"><div style="color: rgb(102, 102, 102) !important; display: table-cell; white-space: nowrap; line-height: 1.5; max-width: 200px; text-align: center;" xmlns="http://www.w3.org/1999/xhtml"><span style="color:#666 !important" class="nodeLabel"><p>S-Miles Cloud<br /><i>optional</i></p></span></div></foreignObject></g></g><g class="node default terminator" id="my-svg-flowchart-term_meter-1" data-look="classic" transform="translate(98.0234375, 705.24609375)"><rect class="basic label-container" style="fill:#fafafa !important;stroke:#444 !important" x="-90.0234375" y="-27" width="180.046875" height="54"/><g class="label" style="" transform="translate(-60.0234375, -12)"><rect/><foreignObject width="120.046875" height="24"><div xmlns="http://www.w3.org/1999/xhtml" style="display: table-cell; white-space: nowrap; line-height: 1.5; max-width: 200px; text-align: center;"><span class="nodeLabel"><p>Net Power Meter</p></span></div></foreignObject></g></g><g class="node default terminator" id="my-svg-flowchart-term_battery_system-2" data-look="classic" transform="translate(1914.1015625, 226.5)"><rect class="basic label-container" style="fill:#fafafa !important;stroke:#444 !important" x="-84.2421875" y="-27" width="168.484375" height="54"/><g class="label" style="" transform="translate(-54.2421875, -12)"><rect/><foreignObject width="108.484375" height="24"><div xmlns="http://www.w3.org/1999/xhtml" style="display: table-cell; white-space: nowrap; line-height: 1.5; max-width: 200px; text-align: center;"><span class="nodeLabel"><p>Battery System</p></span></div></foreignObject></g></g><g class="node default terminator" id="my-svg-flowchart-term_inverters-3" data-look="classic" transform="translate(1914.1015625, 111.75)"><rect class="basic label-container" style="fill:#fafafa !important;stroke:#444 !important" x="-82.0234375" y="-27" width="164.046875" height="54"/><g class="label" style="" transform="translate(-52.0234375, -12)"><rect/><foreignObject width="104.046875" height="24"><div xmlns="http://www.w3.org/1999/xhtml" style="display: table-cell; white-space: nowrap; line-height: 1.5; max-width: 200px; text-align: center;"><span class="nodeLabel"><p>Solar Inverters</p></span></div></foreignObject></g></g><g class="node default terminator" id="my-svg-flowchart-term_user-4" data-look="classic" transform="translate(1914.1015625, 364.125)"><rect class="basic label-container" style="fill:#fafafa !important;stroke:#444 !important" x="-53.5625" y="-27" width="107.125" height="54"/><g class="label" style="" transform="translate(-23.5625, -12)"><rect/><foreignObject width="47.125" height="24"><div xmlns="http://www.w3.org/1999/xhtml" style="display: table-cell; white-space: nowrap; line-height: 1.5; max-width: 200px; text-align: center;"><span class="nodeLabel"><p>Owner</p></span></div></foreignObject></g></g><g class="node default grid" id="my-svg-flowchart-term_grid-5" data-look="classic" transform="translate(1498.109375, 248.5)"><rect class="basic label-container" style="fill:#fef0ef !important;stroke:#e74c3c !important" x="-66.890625" y="-27" width="133.78125" height="54"/><g class="label" style="" transform="translate(-36.890625, -12)"><rect/><foreignObject width="73.78125" height="24"><div xmlns="http://www.w3.org/1999/xhtml" style="display: table-cell; white-space: nowrap; line-height: 1.5; max-width: 200px; text-align: center;"><span class="nodeLabel"><p>Utility Grid</p></span></div></foreignObject></g></g><g class="node default proc" id="my-svg-flowchart-proc_acquire_telemetry-6" data-look="classic" transform="translate(490.8515625, 705.24609375)"><circle class="basic label-container" style="fill:#cfe5ff !important;stroke:#2a70c2 !important" r="71.3828125" cx="0" cy="0"/><g class="label" style="color:#000 !important" transform="translate(-63.8828125, -12)"><rect/><foreignObject width="127.765625" height="24"><div style="color: rgb(0, 0, 0) !important; display: table-cell; white-space: nowrap; line-height: 1.5; max-width: 200px; text-align: center;" xmlns="http://www.w3.org/1999/xhtml"><span style="color:#000 !important" class="nodeLabel"><p>Acquire Telemetry</p></span></div></foreignObject></g></g><g class="node default brain" id="my-svg-flowchart-proc_compute_balance-7" data-look="classic" transform="translate(1075.203125, 342.125)"><circle class="basic label-container" style="fill:#7fbff5 !important;stroke:#1f5a99 !important" r="69.7421875" cx="0" cy="0"/><g class="label" style="color:#000 !important;font-weight:bold !important" transform="translate(-62.2421875, -12)"><rect/><foreignObject width="124.484375" height="24"><div style="color: rgb(0, 0, 0) !important; font-weight: bold !important; display: table-cell; white-space: nowrap; line-height: 1.5; max-width: 200px; text-align: center;" xmlns="http://www.w3.org/1999/xhtml"><span style="color:#000 !important;font-weight:bold !important" class="nodeLabel"><p>Energy Manager</p></span></div></foreignObject></g></g><g class="node default proc" id="my-svg-flowchart-proc_dispatch_commands-8" data-look="classic" transform="translate(1498.109375, 89.75)"><circle class="basic label-container" style="fill:#cfe5ff !important;stroke:#2a70c2 !important" r="81.75" cx="0" cy="0"/><g class="label" style="color:#000 !important" transform="translate(-74.25, -12)"><rect/><foreignObject width="148.5" height="24"><div style="color: rgb(0, 0, 0) !important; display: table-cell; white-space: nowrap; line-height: 1.5; max-width: 200px; text-align: center;" xmlns="http://www.w3.org/1999/xhtml"><span style="color:#000 !important" class="nodeLabel"><p>Dispatch Commands</p></span></div></foreignObject></g></g><g class="node default proc" id="my-svg-flowchart-proc_serve_ui-9" data-look="classic" transform="translate(1498.109375, 364.125)"><circle class="basic label-container" style="fill:#cfe5ff !important;stroke:#2a70c2 !important" r="38.625" cx="0" cy="0"/><g class="label" style="color:#000 !important" transform="translate(-31.125, -12)"><rect/><foreignObject width="62.25" height="24"><div style="color: rgb(0, 0, 0) !important; display: table-cell; white-space: nowrap; line-height: 1.5; max-width: 200px; text-align: center;" xmlns="http://www.w3.org/1999/xhtml"><span style="color:#000 !important" class="nodeLabel"><p>Serve UI</p></span></div></foreignObject></g></g><g class="node default proc" id="my-svg-flowchart-proc_handle_user_input-10" data-look="classic" transform="translate(2238.1640625, 458.68359375)"><circle class="basic label-container" style="fill:#cfe5ff !important;stroke:#2a70c2 !important" r="52.8671875" cx="0" cy="0"/><g class="label" style="color:#000 !important" transform="translate(-45.3671875, -12)"><rect/><foreignObject width="90.734375" height="24"><div style="color: rgb(0, 0, 0) !important; display: table-cell; white-space: nowrap; line-height: 1.5; max-width: 200px; text-align: center;" xmlns="http://www.w3.org/1999/xhtml"><span style="color:#000 !important" class="nodeLabel"><p>Handle Input</p></span></div></foreignObject></g></g><g class="node default optional" id="my-svg-flowchart-proc_cloud_forward-11" data-look="classic" transform="translate(1075.203125, 576.27734375)"><circle class="basic label-container" style="fill:#e6f0ff !important;stroke:#888 !important;stroke-dasharray:3 3 !important" r="59.96875" cx="0" cy="0"/><g class="label" style="" transform="translate(-52.46875, -12)"><rect/><foreignObject width="104.9375" height="24"><div xmlns="http://www.w3.org/1999/xhtml" style="display: table-cell; white-space: nowrap; line-height: 1.5; max-width: 200px; text-align: center;"><span class="nodeLabel"><p>Cloud Forward</p></span></div></foreignObject></g></g><g class="node default store" id="my-svg-flowchart-store_system_state-12" data-look="classic" transform="translate(784.703125, 469.30859375)"><path d="M0,11.710963455149502 a55.078125,11.710963455149502 0,0,0 110.15625,0 a55.078125,11.710963455149502 0,0,0 -110.15625,0 l0,50.7109634551495 a55.078125,11.710963455149502 0,0,0 110.15625,0 l0,-50.7109634551495" class="basic label-container outer-path" style="fill:#fff5cc !important;stroke:#b89800 !important" transform="translate(-55.078125, -37.06644518272425)"/><g class="label" style="" transform="translate(-47.578125, -2)"><rect/><foreignObject width="95.15625" height="24"><div xmlns="http://www.w3.org/1999/xhtml" style="display: table-cell; white-space: nowrap; line-height: 1.5; max-width: 200px; text-align: center;"><span class="nodeLabel"><p>System State</p></span></div></foreignObject></g></g></g></g></g><defs><filter id="my-svg-drop-shadow" height="130%" width="130%"><feDropShadow dx="4" dy="4" stdDeviation="0" flood-opacity="0.06" flood-color="#000000"/></filter></defs><defs><filter id="my-svg-drop-shadow-small" height="150%" width="150%"><feDropShadow dx="2" dy="2" stdDeviation="0" flood-opacity="0.06" flood-color="#000000"/></filter></defs></svg>