<svg id="my-svg" width="100%" xmlns="http://www.w3.org/2000/svg" xmlns:xlink="http://www.w3.org/1999/xlink" class="flowchart" style="max-width: 2781.64px; background-color: white;" viewBox="0 0 2781.639404296875 478.3496398925781" role="graphics-document document" aria-roledescription="flowchart-v2"><style>#my-svg{font-family:"trebuchet ms",verdana,arial,sans-serif;font-size:16px;fill:#333;}@keyframes edge-animation-frame{from{stroke-dashoffset:0;}}@keyframes dash{to{stroke-dashoffset:0;}}#my-svg .edge-animation-slow{stroke-dasharray:9,5!important;stroke-dashoffset:900;animation:dash 50s linear infinite;stroke-linecap:round;}#my-svg .edge-animation-fast{stroke-dasharray:9,5!important;stroke-dashoffset:900;animation:dash 20s linear infinite;stroke-linecap:round;}#my-svg .error-icon{fill:#552222;}#my-svg .error-text{fill:#552222;stroke:#552222;}#my-svg .edge-thickness-normal{stroke-width:1px;}#my-svg .edge-thickness-thick{stroke-width:3.5px;}#my-svg .edge-pattern-solid{stroke-dasharray:0;}#my-svg .edge-thickness-invisible{stroke-width:0;fill:none;}#my-svg .edge-pattern-dashed{stroke-dasharray:3;}#my-svg .edge-pattern-dotted{stroke-dasharray:2;}#my-svg .marker{fill:#333333;stroke:#333333;}#my-svg .marker.cross{stroke:#333333;}#my-svg svg{font-family:"trebuchet ms",verdana,arial,sans-serif;font-size:16px;}#my-svg p{margin:0;}#my-svg .label{font-family:"trebuchet ms",verdana,arial,sans-serif;color:#333;}#my-svg .cluster-label text{fill:#333;}#my-svg .cluster-label span{color:#333;}#my-svg .cluster-label span p{background-color:transparent;}#my-svg .label text,#my-svg span{fill:#333;color:#333;}#my-svg .node rect,#my-svg .node circle,#my-svg .node ellipse,#my-svg .node polygon,#my-svg .node path{fill:#ECECFF;stroke:#9370DB;stroke-width:1px;}#my-svg .rough-node .label text,#my-svg .node .label text,#my-svg .image-shape .label,#my-svg .icon-shape .label{text-anchor:middle;}#my-svg .node .katex path{fill:#000;stroke:#000;stroke-width:1px;}#my-svg .rough-node .label,#my-svg .node .label,#my-svg .image-shape .label,#my-svg .icon-shape .label{text-align:center;}#my-svg .node.clickable{cursor:pointer;}#my-svg .root .anchor path{fill:#333333!important;stroke-width:0;stroke:#333333;}#my-svg .arrowheadPath{fill:#333333;}#my-svg .edgePath .path{stroke:#333333;stroke-width:1px;}#my-svg .flowchart-link{stroke:#333333;fill:none;}#my-svg .edgeLabel{background-color:rgba(232,232,232, 0.8);text-align:center;}#my-svg .edgeLabel p{background-color:rgba(232,232,232, 0.8);}#my-svg .edgeLabel rect{opacity:0.5;background-color:rgba(232,232,232, 0.8);fill:rgba(232,232,232, 0.8);}#my-svg .labelBkg{background-color:rgba(232, 232, 232, 0.5);}#my-svg .cluster rect{fill:#ffffde;stroke:#aaaa33;stroke-width:1px;}#my-svg .cluster text{fill:#333;}#my-svg .cluster span{color:#333;}#my-svg div.mermaidTooltip{position:absolute;text-align:center;max-width:200px;padding:2px;font-family:"trebuchet ms",verdana,arial,sans-serif;font-size:12px;background:hsl(80, 100%, 96.2745098039%);border:1px solid #aaaa33;border-radius:2px;pointer-events:none;z-index:100;}#my-svg .flowchartTitleText{text-anchor:middle;font-size:18px;fill:#333;}#my-svg rect.text{fill:none;stroke-width:0;}#my-svg .icon-shape,#my-svg .image-shape{background-color:rgba(232,232,232, 0.8);text-align:center;}#my-svg .icon-shape p,#my-svg .image-shape p{background-color:rgba(232,232,232, 0.8);padding:2px;}#my-svg .icon-shape .label rect,#my-svg .image-shape .label rect{opacity:0.5;background-color:rgba(232,232,232, 0.8);fill:rgba(232,232,232, 0.8);}#my-svg .label-icon{display:inline-block;height:1em;overflow:visible;vertical-align:-0.125em;}#my-svg .node .label-icon path{fill:currentColor;stroke:revert;stroke-width:revert;}#my-svg .node .neo-node{stroke:#9370DB;}#my-svg [data-look="neo"].node rect,#my-svg [data-look="neo"].cluster rect,#my-svg [data-look="neo"].node polygon{stroke:#9370DB;filter:drop-shadow(1px 2px 2px rgba(185, 185, 185, 1));}#my-svg [data-look="neo"].node path{stroke:#9370DB;stroke-width:1px;}#my-svg [data-look="neo"].node .outer-path{filter:drop-shadow(1px 2px 2px rgba(185, 185, 185, 1));}#my-svg [data-look="neo"].node .neo-line path{stroke:#9370DB;filter:none;}#my-svg [data-look="neo"].node circle{stroke:#9370DB;filter:drop-shadow(1px 2px 2px rgba(185, 185, 185, 1));}#my-svg [data-look="neo"].node circle .state-start{fill:#000000;}#my-svg [data-look="neo"].icon-shape .icon{fill:#9370DB;filter:drop-shadow(1px 2px 2px rgba(185, 185, 185, 1));}#my-svg [data-look="neo"].icon-shape .icon-neo path{stroke:#9370DB;filter:drop-shadow(1px 2px 2px rgba(185, 185, 185, 1));}#my-svg :root{--mermaid-font-family:"trebuchet ms",verdana,arial,sans-serif;}#my-svg .proc&gt;*{fill:rgb(207, 229, 255)!important;stroke:rgb(42, 112, 194)!important;color:rgb(0, 0, 0)!important;}#my-svg .proc span{fill:rgb(207, 229, 255)!important;stroke:rgb(42, 112, 194)!important;color:rgb(0, 0, 0)!important;}#my-svg .proc tspan{fill:rgb(0, 0, 0)!important;}#my-svg .brain&gt;*{fill:rgb(127, 191, 245)!important;stroke:rgb(31, 90, 153)!important;color:rgb(0, 0, 0)!important;font-weight:bold!important;}#my-svg .brain span{fill:rgb(127, 191, 245)!important;stroke:rgb(31, 90, 153)!important;color:rgb(0, 0, 0)!important;font-weight:bold!important;}#my-svg .brain tspan{fill:rgb(0, 0, 0)!important;}#my-svg .optional&gt;*{fill:rgb(230, 240, 255)!important;stroke:rgb(136, 136, 136)!important;stroke-dasharray:3,3!important;}#my-svg .optional span{fill:rgb(230, 240, 255)!important;stroke:rgb(136, 136, 136)!important;stroke-dasharray:3,3!important;}#my-svg .terminator&gt;*{fill:rgb(250, 250, 250)!important;stroke:rgb(68, 68, 68)!important;}#my-svg .terminator span{fill:rgb(250, 250, 250)!important;stroke:rgb(68, 68, 68)!important;}#my-svg .store&gt;*{fill:rgb(255, 245, 204)!important;stroke:rgb(184, 152, 0)!important;}#my-svg .store span{fill:rgb(255, 245, 204)!important;stroke:rgb(184, 152, 0)!important;}#my-svg .grid&gt;*{fill:rgb(254, 240, 239)!important;stroke:rgb(231, 76, 60)!important;}#my-svg .grid span{fill:rgb(254, 240, 239)!important;stroke:rgb(231, 76, 60)!important;}#my-svg .termopt&gt;*{fill:rgb(250, 250, 250)!important;stroke:rgb(136, 136, 136)!important;stroke-dasharray:5,5!important;color:rgb(102, 102, 102)!important;}#my-svg .termopt span{fill:rgb(250, 250, 250)!important;stroke:rgb(136, 136, 136)!important;stroke-dasharray:5,5!important;color:rgb(102, 102, 102)!important;}#my-svg .termopt tspan{fill:rgb(102, 102, 102)!important;}</style><g><marker id="my-svg_flowchart-v2-pointEnd" class="marker flowchart-v2" viewBox="0 0 10 10" refX="5" refY="5" markerUnits="userSpaceOnUse" markerWidth="8" markerHeight="8" orient="auto"><path d="M 0 0 L 10 5 L 0 10 z" class="arrowMarkerPath" style="stroke-width: 1; stroke-dasharray: 1, 0;"/></marker><marker id="my-svg_flowchart-v2-pointStart" class="marker flowchart-v2" viewBox="0 0 10 10" refX="4.5" refY="5" markerUnits="userSpaceOnUse" markerWidth="8" markerHeight="8" orient="auto"><path d="M 0 5 L 10 10 L 10 0 z" class="arrowMarkerPath" style="stroke-width: 1; stroke-dasharray: 1, 0;"/></marker><marker id="my-svg_flowchart-v2-pointEnd-margin" class="marker flowchart-v2" viewBox="0 0 11.5 14" refX="11.5" refY="7" markerUnits="userSpaceOnUse" markerWidth="10.5" markerHeight="14" orient="auto"><path d="M 0 0 L 11.5 7 L 0 14 z" class="arrowMarkerPath" style="stroke-width: 0; stroke-dasharray: 1, 0;"/></marker><marker id="my-svg_flowchart-v2-pointStart-margin" class="marker flowchart-v2" viewBox="0 0 11.5 14" refX="1" refY="7" markerUnits="userSpaceOnUse" markerWidth="11.5" markerHeight="14" orient="auto"><polygon points="0,7 11.5,14 11.5,0" class="arrowMarkerPath" style="stroke-width: 0; stroke-dasharray: 1, 0;"/></marker><marker id="my-svg_flowchart-v2-circleEnd" class="marker flowchart-v2" viewBox="0 0 10 10" refX="11" refY="5" markerUnits="userSpaceOnUse" markerWidth="11" markerHeight="11" orient="auto"><circle cx="5" cy="5" r="5" class="arrowMarkerPath" style="stroke-width: 1; stroke-dasharray: 1, 0;"/></marker><marker id="my-svg_flowchart-v2-circleStart" class="marker flowchart-v2" viewBox="0 0 10 10" refX="-1" refY="5" markerUnits="userSpaceOnUse" markerWidth="11" markerHeight="11" orient="auto"><circle cx="5" cy="5" r="5" class="arrowMarkerPath" style="stroke-width: 1; stroke-dasharray: 1, 0;"/></marker><marker id="my-svg_flowchart-v2-circleEnd-margin" class="marker flowchart-v2" viewBox="0 0 10 10" refY="5" refX="12.25" markerUnits="userSpaceOnUse" markerWidth="14" markerHeight="14" orient="auto"><circle cx="5" cy="5" r="5" class="arrowMarkerPath" style="stroke-width: 0; stroke-dasharray: 1, 0;"/></marker><marker id="my-svg_flowchart-v2-circleStart-margin" class="marker flowchart-v2" viewBox="0 0 10 10" refX="-2" refY="5" markerUnits="userSpaceOnUse" markerWidth="14" markerHeight="14" orient="auto"><circle cx="5" cy="5" r="5" class="arrowMarkerPath" style="stroke-width: 0; stroke-dasharray: 1, 0;"/></marker><marker id="my-svg_flowchart-v2-crossEnd" class="marker cross flowchart-v2" viewBox="0 0 11 11" refX="12" refY="5.2" markerUnits="userSpaceOnUse" markerWidth="11" markerHeight="11" orient="auto"><path d="M 1,1 l 9,9 M 10,1 l -9,9" class="arrowMarkerPath" style="stroke-width: 2; stroke-dasharray: 1, 0;"/></marker><marker id="my-svg_flowchart-v2-crossStart" class="marker cross flowchart-v2" viewBox="0 0 11 11" refX="-1" refY="5.2" markerUnits="userSpaceOnUse" markerWidth="11" markerHeight="11" orient="auto"><path d="M 1,1 l 9,9 M 10,1 l -9,9" class="arrowMarkerPath" style="stroke-width: 2; stroke-dasharray: 1, 0;"/></marker><marker id="my-svg_flowchart-v2-crossEnd-margin" class="marker cross flowchart-v2" viewBox="0 0 15 15" refX="17.7" refY="7.5" markerUnits="userSpaceOnUse" markerWidth="12" markerHeight="12" orient="auto"><path d="M 1,1 L 14,14 M 1,14 L 14,1" class="arrowMarkerPath" style="stroke-width: 2.5;"/></marker><marker id="my-svg_flowchart-v2-crossStart-margin" class="marker cross flowchart-v2" viewBox="0 0 15 15" refX="-3.5" refY="7.5" markerUnits="userSpaceOnUse" markerWidth="12" markerHeight="12" orient="auto"><path d="M 1,1 L 14,14 M 1,14 L 14,1" class="arrowMarkerPath" style="stroke-width: 2.5; stroke-dasharray: 1, 0;"/></marker><g class="root"><g class="clusters"/><g class="edgePaths"><path d="M1468.5,413.225L1489.193,413.225C1509.885,413.225,1551.271,413.225,1593.561,395.259C1635.851,377.294,1679.047,341.363,1700.644,323.397L1722.242,305.432" id="my-svg-L_term_inverters_proc_acquire_telemetry_0" class="edge-thickness-normal edge-pattern-solid edge-thickness-normal edge-pattern-solid flowchart-link" style=";" data-edge="true" data-et="edge" data-id="L_term_inverters_proc_acquire_telemetry_0" data-points="W3sieCI6MTQ2OC41LCJ5Ijo0MTMuMjI0NjMwMzU1ODM0OTZ9LHsieCI6MTU5Mi42NTYyNSwieSI6NDEzLjIyNDYzMDM1NTgzNDk2fSx7IngiOjE3MjUuMzE2ODc1NjAxOTQwNiwieSI6MzAyLjg3Mzk3OTU3MzkzMzJ9XQ==" data-look="classic" marker-end="url(#my-svg_flowchart-v2-pointEnd)"/><path d="M1044.919,404.362L1066.008,408.505C1087.097,412.649,1129.275,420.937,1171.866,423.481C1214.457,426.025,1257.46,422.825,1278.962,421.225L1300.464,419.625" id="my-svg-L_proc_dispatch_commands_term_inverters_0" class="edge-thickness-normal edge-pattern-solid edge-thickness-normal edge-pattern-solid flowchart-link" style=";" data-edge="true" data-et="edge" data-id="L_proc_dispatch_commands_term_inverters_0" data-points="W3sieCI6MTA0NC45MTkyMzMxNTA3Mzg2LCJ5Ijo0MDQuMzYxNTYyMTI2Njg3NX0seyJ4IjoxMTcxLjQ1MzEyNSwieSI6NDI5LjIyNDYzMDM1NTgzNDk2fSx7IngiOjEzMDQuNDUzMTI1LCJ5Ijo0MTkuMzI4MDM0NzgxMjI0NjN9XQ==" data-look="classic" marker-end="url(#my-svg_flowchart-v2-pointEnd)"/><path d="M1476.5,309.225L1495.859,309.225C1515.219,309.225,1553.938,309.225,1592.446,303.915C1630.955,298.605,1669.254,287.986,1688.404,282.676L1707.553,277.367" id="my-svg-L_term_meter_proc_acquire_telemetry_0" class="edge-thickness-normal edge-pattern-solid edge-thickness-normal edge-pattern-solid flowchart-link" style=";" data-edge="true" data-et="edge" data-id="L_term_meter_proc_acquire_telemetry_0" data-points="W3sieCI6MTQ3Ni41LCJ5IjozMDkuMjI0NjMwMzU1ODM0OTZ9LHsieCI6MTU5Mi42NTYyNSwieSI6MzA5LjIyNDYzMDM1NTgzNDk2fSx7IngiOjE3MTEuNDA3NzkzMDM2NTc5NywieSI6Mjc2LjI5NzcyODg1ODE2ODg1fV0=" data-look="classic" marker-end="url(#my-svg_flowchart-v2-pointEnd)"/><path d="M1470.719,205.225L1491.042,205.225C1511.365,205.225,1552.01,205.225,1591.483,210.534C1630.955,215.844,1669.254,226.463,1688.404,231.773L1707.553,237.083" id="my-svg-L_term_battery_system_proc_acquire_telemetry_0" class="edge-thickness-normal edge-pattern-solid edge-thickness-normal edge-pattern-solid flowchart-link" style=";" data-edge="true" data-et="edge" data-id="L_term_battery_system_proc_acquire_telemetry_0" data-points="W3sieCI6MTQ3MC43MTg3NSwieSI6MjA1LjIyNDYzMDM1NTgzNDk2fSx7IngiOjE1OTIuNjU2MjUsInkiOjIwNS4yMjQ2MzAzNTU4MzQ5Nn0seyJ4IjoxNzExLjQwNzc5MzAzNjU3OTcsInkiOjIzOC4xNTE1MzE4NTM1MDEwN31d" data-look="classic" marker-end="url(#my-svg_flowchart-v2-pointEnd)"/><path d="M1037.734,351.863L1060.021,340.653C1082.307,329.442,1126.88,307.021,1172.188,287.312C1217.496,267.603,1263.539,250.606,1286.561,242.108L1309.582,233.61" id="my-svg-L_proc_dispatch_commands_term_battery_system_0" class="edge-thickness-normal edge-pattern-solid edge-thickness-normal edge-pattern-solid flowchart-link" style=";" data-edge="true" data-et="edge" data-id="L_proc_dispatch_commands_term_battery_system_0" data-points="W3sieCI6MTAzNy43MzQwMjYzMzU1NTkzLCJ5IjozNTEuODYzNDA5MTI3NzkwNjV9LHsieCI6MTE3MS40NTMxMjUsInkiOjI4NC41OTk2MzAzNTU4MzQ5Nn0seyJ4IjoxMzEzLjMzNDczMTc5MTMzODUsInkiOjIzMi4yMjQ2MzAzNTU4MzQ5Nn1d" data-look="classic" marker-end="url(#my-svg_flowchart-v2-pointEnd)"/><path d="M99.292,147.371L117.51,160.409C135.728,173.446,172.165,199.521,205.296,212.558C238.427,225.596,268.253,225.596,283.165,225.596L298.078,225.596" id="my-svg-L_term_user_proc_handle_user_input_0" class="edge-thickness-normal edge-pattern-solid edge-thickness-normal edge-pattern-solid flowchart-link" style=";" data-edge="true" data-et="edge" data-id="L_term_user_proc_handle_user_input_0" data-points="W3sieCI6OTkuMjkxODI4OTA0MDI3MzcsInkiOjE0Ny4zNzEwOTM3NX0seyJ4IjoyMDguNjAxNTYyNSwieSI6MjI1LjU5NTcyNDEwNTgzNDk2fSx7IngiOjMwMi4wNzgxMjUsInkiOjIyNS41OTU3MjQxMDU4MzQ5Nn1d" data-look="classic" marker-end="url(#my-svg_flowchart-v2-pointEnd)"/><path d="M2295.82,42.907L2280.06,39.089C2264.299,35.271,2232.779,27.636,2195.816,23.818C2158.854,20,2116.451,20,2072.12,20C2027.789,20,1981.531,20,1932.556,20C1883.581,20,1831.888,20,1774.785,20C1717.682,20,1655.169,20,1589.549,20C1523.93,20,1455.203,20,1385.003,20C1314.802,20,1243.128,20,1172.832,20C1102.536,20,1033.62,20,970.552,20C907.484,20,850.266,20,795.048,20C739.831,20,686.615,20,635.396,20C584.177,20,534.956,20,488.547,20C442.138,20,398.542,20,352.353,20C306.164,20,257.383,20,215.629,31.853C173.874,43.705,139.147,67.411,121.784,79.263L104.42,91.116" id="my-svg-L_proc_serve_ui_term_user_0" class="edge-thickness-normal edge-pattern-solid edge-thickness-normal edge-pattern-solid flowchart-link" style=";" data-edge="true" data-et="edge" data-id="L_proc_serve_ui_term_user_0" data-points="W3sieCI6MjI5NS44MjAwNjMyNDk4NTA2LCJ5Ijo0Mi45MDY1NTczOTk2OTE3OH0seyJ4IjoyMjAxLjI1NzgxMjUsInkiOjIwfSx7IngiOjIwNzQuMDQ2ODc1LCJ5IjoyMH0seyJ4IjoxOTM1LjI3MzQzNzUsInkiOjIwfSx7IngiOjE3ODAuMTk1MzEyNSwieSI6MjB9LHsieCI6MTU5Mi42NTYyNSwieSI6MjB9LHsieCI6MTM4Ni40NzY1NjI1LCJ5IjoyMH0seyJ4IjoxMTcxLjQ1MzEyNSwieSI6MjB9LHsieCI6OTY0LjcwMzEyNSwieSI6MjB9LHsieCI6NzkzLjA0Njg3NSwieSI6MjB9LHsieCI6NjMzLjM5ODQzNzUsInkiOjIwfSx7IngiOjQ4NS43MzQzNzUsInkiOjIwfSx7IngiOjM1NC45NDUzMTI1LCJ5IjoyMH0seyJ4IjoyMDguNjAxNTYyNSwieSI6MjB9LHsieCI6MTAxLjExNjI2NTMyMzk5Mjk5LCJ5Ijo5My4zNzEwOTM3NX1d" data-look="classic" marker-end="url(#my-svg_flowchart-v2-pointEnd)"/><path d="M2393.328,242.297L2414.161,242.297C2434.995,242.297,2476.661,242.297,2517.745,242.378C2558.828,242.458,2599.328,242.62,2619.578,242.7L2639.828,242.781" id="my-svg-L_proc_cloud_forward_term_smiles_cloud_0" class="edge-thickness-normal edge-pattern-dotted edge-thickness-normal edge-pattern-solid flowchart-link" style=";" data-edge="true" data-et="edge" data-id="L_proc_cloud_forward_term_smiles_cloud_0" data-points="W3sieCI6MjM5My4zMjgxMjUsInkiOjI0Mi4yOTY4NzV9LHsieCI6MjUxOC4zMjgxMjUsInkiOjI0Mi4yOTY4NzV9LHsieCI6MjY0My44MjgxMjUwMDAwNTQsInkiOjI0Mi43OTY4NzUwMDAwMDAwM31d" data-look="classic" marker-end="url(#my-svg_flowchart-v2-pointEnd)"/><path d="M1018.379,254.225L1043.891,267.058C1069.403,279.891,1120.428,305.558,1169.978,327.558C1219.527,349.558,1267.602,367.891,1291.639,377.058L1315.676,386.225" id="my-svg-L_term_grid_term_inverters_0" class="edge-thickness-normal edge-pattern-solid edge-thickness-normal edge-pattern-solid flowchart-link" style=";" data-edge="true" data-et="edge" data-id="L_term_grid_term_inverters_0" data-points="W3sieCI6MTAxOC4zNzg2MDU3NjkyMzA3LCJ5IjoyNTQuMjI0NjMwMzU1ODM0OTZ9LHsieCI6MTE3MS40NTMxMjUsInkiOjMzMS4yMjQ2MzAzNTU4MzQ5Nn0seyJ4IjoxMzE1LjY3NjE2MjM0NzU2MDksInkiOjM4Ni4yMjQ2MzAzNTU4MzQ5Nn1d" data-look="classic"/><path d="M1031.594,212.989L1054.904,208.028C1078.214,203.068,1124.833,193.146,1169.94,190.416C1215.047,187.685,1258.641,192.145,1280.438,194.375L1302.234,196.605" id="my-svg-L_term_grid_term_battery_system_0" class="edge-thickness-normal edge-pattern-solid edge-thickness-normal edge-pattern-solid flowchart-link" style=";" data-edge="true" data-et="edge" data-id="L_term_grid_term_battery_system_0" data-points="W3sieCI6MTAzMS41OTM3NSwieSI6MjEyLjk4OTE0MDYzMzk0ODY0fSx7IngiOjExNzEuNDUzMTI1LCJ5IjoxODMuMjI0NjMwMzU1ODM0OTZ9LHsieCI6MTMwMi4yMzQzNzUsInkiOjE5Ni42MDU0MzkxMzM5NDc4fV0=" data-look="classic"/><path d="M1851.578,257.225L1865.527,257.225C1879.477,257.225,1907.375,257.225,1934.651,252.117C1961.927,247.008,1988.58,236.792,2001.907,231.684L2015.234,226.576" id="my-svg-L_proc_acquire_telemetry_store_system_state_0" class="edge-thickness-normal edge-pattern-solid edge-thickness-normal edge-pattern-solid flowchart-link" style=";" data-edge="true" data-et="edge" data-id="L_proc_acquire_telemetry_store_system_state_0" data-points="W3sieCI6MTg1MS41NzgxMjUsInkiOjI1Ny4yMjQ2MzAzNTU4MzQ5Nn0seyJ4IjoxOTM1LjI3MzQzNzUsInkiOjI1Ny4yMjQ2MzAzNTU4MzQ5Nn0seyJ4IjoyMDE4Ljk2ODc1LCJ5IjoyMjUuMTQ0NDg5ODg2NTMwNzh9XQ==" data-look="classic" marker-end="url(#my-svg_flowchart-v2-pointEnd)"/><path d="M2022.608,174.491L2008.053,162.748C1993.497,151.005,1964.385,127.519,1923.983,115.776C1883.581,104.033,1831.888,104.033,1774.785,104.033C1717.682,104.033,1655.169,104.033,1589.549,104.033C1523.93,104.033,1455.203,104.033,1385.003,104.033C1314.802,104.033,1243.128,104.033,1172.832,104.033C1102.536,104.033,1033.62,104.033,970.552,104.033C907.484,104.033,850.266,104.033,801.062,140.742C751.858,177.451,710.668,250.869,690.074,287.578L669.479,324.287" id="my-svg-L_store_system_state_proc_compute_balance_0" class="edge-thickness-normal edge-pattern-solid edge-thickness-normal edge-pattern-solid flowchart-link" style=";" data-edge="true" data-et="edge" data-id="L_store_system_state_proc_compute_balance_0" data-points="W3sieCI6MjAyMi42MDg0OTA2NTc1MDg0LCJ5IjoxNzQuNDkxMTgwODc3MDk0ODh9LHsieCI6MTkzNS4yNzM0Mzc1LCJ5IjoxMDQuMDMzMjI0MTA1ODM0OTZ9LHsieCI6MTc4MC4xOTUzMTI1LCJ5IjoxMDQuMDMzMjI0MTA1ODM0OTZ9LHsieCI6MTU5Mi42NTYyNSwieSI6MTA0LjAzMzIyNDEwNTgzNDk2fSx7IngiOjEzODYuNDc2NTYyNSwieSI6MTA0LjAzMzIyNDEwNTgzNDk2fSx7IngiOjExNzEuNDUzMTI1LCJ5IjoxMDQuMDMzMjI0MTA1ODM0OTZ9LHsieCI6OTY0LjcwMzEyNSwieSI6MTA0LjAzMzIyNDEwNTgzNDk2fSx7IngiOjc5My4wNDY4NzUsInkiOjEwNC4wMzMyMjQxMDU4MzQ5Nn0seyJ4Ijo2NjcuNTIyMDg1Njg0NDA2NSwieSI6MzI3Ljc3NTcwOTQ3MDQ0NjQzfV0=" data-look="classic" marker-end="url(#my-svg_flowchart-v2-pointEnd)"/><path d="M2121.199,172.625L2134.543,161.193C2147.886,149.761,2174.572,126.897,2203.322,109.397C2232.072,91.896,2262.886,79.759,2278.293,73.69L2293.7,67.621" id="my-svg-L_store_system_state_proc_serve_ui_0" class="edge-thickness-normal edge-pattern-solid edge-thickness-normal edge-pattern-solid flowchart-link" style=";" data-edge="true" data-et="edge" data-id="L_store_system_state_proc_serve_ui_0" data-points="W3sieCI6MjEyMS4xOTk0NTEyNjgwMTcsInkiOjE3Mi42MjU0NjIwNDA4NzA2NH0seyJ4IjoyMjAxLjI1NzgxMjUsInkiOjEwNC4wMzMyMjQxMDU4MzQ5Nn0seyJ4IjoyMjk3LjQyMTcyMTM2OTAyMTcsInkiOjY2LjE1NTQxMTU2MjM2MTc5fV0=" data-look="classic" marker-end="url(#my-svg_flowchart-v2-pointEnd)"/><path d="M2129.125,220.6L2141.147,224.216C2153.169,227.832,2177.214,235.065,2200.591,238.681C2223.969,242.297,2246.68,242.297,2258.035,242.297L2269.391,242.297" id="my-svg-L_store_system_state_proc_cloud_forward_0" class="edge-thickness-normal edge-pattern-dotted edge-thickness-normal edge-pattern-solid flowchart-link" style=";" data-edge="true" data-et="edge" data-id="L_store_system_state_proc_cloud_forward_0" data-points="W3sieCI6MjEyOS4xMjUsInkiOjIyMC42MDAxMTgzMzkzMjE2M30seyJ4IjoyMjAxLjI1NzgxMjUsInkiOjI0Mi4yOTY4NzV9LHsieCI6MjI3My4zOTA2MjUsInkiOjI0Mi4yOTY4NzV9XQ==" data-look="classic" marker-end="url(#my-svg_flowchart-v2-pointEnd)"/><path d="M702.488,398.12L717.581,400.2C732.674,402.28,762.86,406.44,792.387,406.67C821.914,406.9,850.782,403.2,865.215,401.35L879.649,399.5" id="my-svg-L_proc_compute_balance_proc_dispatch_commands_0" class="edge-thickness-normal edge-pattern-solid edge-thickness-normal edge-pattern-solid flowchart-link" style=";" data-edge="true" data-et="edge" data-id="L_proc_compute_balance_proc_dispatch_commands_0" data-points="W3sieCI6NzAyLjQ4NzcyMDc5MjcwNTgsInkiOjM5OC4xMjAzMjYzMDY1MjA1fSx7IngiOjc5My4wNDY4NzUsInkiOjQxMC41OTk2MzAzNTU4MzQ5Nn0seyJ4Ijo4ODMuNjE2MzY5MzAyOTY0OSwieSI6Mzk4Ljk5MTk2MTY4ODU2OTg2fV0=" data-look="classic" marker-end="url(#my-svg_flowchart-v2-pointEnd)"/><path d="M695.178,356.238L711.489,347.693C727.801,339.149,760.424,322.06,792.497,321.194C824.57,320.328,856.092,335.686,871.854,343.364L887.615,351.043" id="my-svg-L_proc_compute_balance_proc_dispatch_commands_2" class="edge-thickness-normal edge-pattern-solid edge-thickness-normal edge-pattern-solid flowchart-link" style=";" data-edge="true" data-et="edge" data-id="L_proc_compute_balance_proc_dispatch_commands_2" data-points="W3sieCI6Njk1LjE3NzcwNDM3Mjk0ODUsInkiOjM1Ni4yMzc2OTQzNTE4NDc4NH0seyJ4Ijo3OTMuMDQ2ODc1LCJ5IjozMDQuOTcwNzI0MTA1ODM0OTZ9LHsieCI6ODkxLjIxMDk1NjQ4NDQ1ODYsInkiOjM1Mi43OTUxMTAxNTQwMDQ3Nn1d" data-look="classic" marker-end="url(#my-svg_flowchart-v2-pointEnd)"/><path d="M663.286,325.586L684.913,279.988C706.539,234.391,749.793,143.195,800.029,97.598C850.266,52,907.484,52,970.552,52C1033.62,52,1102.536,52,1172.832,52C1243.128,52,1314.802,52,1385.003,52C1455.203,52,1523.93,52,1589.549,52C1655.169,52,1717.682,52,1774.785,52C1831.888,52,1883.581,52,1932.556,52C1981.531,52,2027.789,52,2072.12,52C2116.451,52,2158.854,52,2194.969,52C2231.083,52,2260.909,52,2275.822,52L2290.734,52" id="my-svg-L_proc_compute_balance_proc_serve_ui_0" class="edge-thickness-normal edge-pattern-solid edge-thickness-normal edge-pattern-solid flowchart-link" style=";" data-edge="true" data-et="edge" data-id="L_proc_compute_balance_proc_serve_ui_0" data-points="W3sieCI6NjYzLjI4NTY4Njc1MjYwMDYsInkiOjMyNS41ODU5NDA5NzQ4OTEwNn0seyJ4Ijo3OTMuMDQ2ODc1LCJ5Ijo1Mn0seyJ4Ijo5NjQuNzAzMTI1LCJ5Ijo1Mn0seyJ4IjoxMTcxLjQ1MzEyNSwieSI6NTJ9LHsieCI6MTM4Ni40NzY1NjI1LCJ5Ijo1Mn0seyJ4IjoxNTkyLjY1NjI1LCJ5Ijo1Mn0seyJ4IjoxNzgwLjE5NTMxMjUsInkiOjUyfSx7IngiOjE5MzUuMjczNDM3NSwieSI6NTJ9LHsieCI6MjA3NC4wNDY4NzUsInkiOjUyfSx7IngiOjIyMDEuMjU3ODEyNSwieSI6NTJ9LHsieCI6MjI5NC43MzQzNzUsInkiOjUyfV0=" data-look="classic" marker-end="url(#my-svg_flowchart-v2-pointEnd)"/><path d="M388.031,266.83L404.315,287.125C420.599,307.42,453.166,348.01,481.771,368.305C510.375,388.6,535.016,388.6,547.336,388.6L559.656,388.6" id="my-svg-L_proc_handle_user_input_proc_compute_balance_0" class="edge-thickness-normal edge-pattern-solid edge-thickness-normal edge-pattern-solid flowchart-link" style=";" data-edge="true" data-et="edge" data-id="L_proc_handle_user_input_proc_compute_balance_0" data-points="W3sieCI6Mzg4LjAzMDY3ODYxMzg0ODMsInkiOjI2Ni44MzAzOTQ3NTE2OTc3fSx7IngiOjQ4NS43MzQzNzUsInkiOjM4OC41OTk2MzAzNTU4MzQ5Nn0seyJ4Ijo1NjMuNjU2MjUsInkiOjM4OC41OTk2MzAzNTU4MzQ5Nn1d" data-look="classic" marker-end="url(#my-svg_flowchart-v2-pointEnd)"/><path d="M398.595,195.769L413.118,185.845C427.641,175.921,456.688,156.073,495.822,146.149C534.956,136.225,584.177,136.225,635.396,136.225C686.615,136.225,739.831,136.225,795.048,136.225C850.266,136.225,907.484,136.225,970.552,136.225C1033.62,136.225,1102.536,136.225,1172.832,136.225C1243.128,136.225,1314.802,136.225,1385.003,136.225C1455.203,136.225,1523.93,136.225,1578.992,149.58C1634.055,162.935,1675.454,189.645,1696.153,203.001L1716.852,216.356" id="my-svg-L_proc_handle_user_input_proc_acquire_telemetry_0" class="edge-thickness-normal edge-pattern-solid edge-thickness-normal edge-pattern-solid flowchart-link" style=";" data-edge="true" data-et="edge" data-id="L_proc_handle_user_input_proc_acquire_telemetry_0" data-points="W3sieCI6Mzk4LjU5NTA0NTIzODc5MTksInkiOjE5NS43Njg4ODQ3NDk0Mzk5fSx7IngiOjQ4NS43MzQzNzUsInkiOjEzNi4yMjQ2MzAzNTU4MzQ5Nn0seyJ4Ijo2MzMuMzk4NDM3NSwieSI6MTM2LjIyNDYzMDM1NTgzNDk2fSx7IngiOjc5My4wNDY4NzUsInkiOjEzNi4yMjQ2MzAzNTU4MzQ5Nn0seyJ4Ijo5NjQuNzAzMTI1LCJ5IjoxMzYuMjI0NjMwMzU1ODM0OTZ9LHsieCI6MTE3MS40NTMxMjUsInkiOjEzNi4yMjQ2MzAzNTU4MzQ5Nn0seyJ4IjoxMzg2LjQ3NjU2MjUsInkiOjEzNi4yMjQ2MzAzNTU4MzQ5Nn0seyJ4IjoxNTkyLjY1NjI1LCJ5IjoxMzYuMjI0NjMwMzU1ODM0OTZ9LHsieCI6MTcyMC4yMTM2MDI1NjQyMzcsInkiOjIxOC41MjQ0OTYwNzE5MzE3fV0=" data-look="classic" marker-end="url(#my-svg_flowchart-v2-pointEnd)"/></g><g class="edgeLabels"><g class="edgeLabel" transform="translate(1592.65625, 413.22463035583496)"><g class="label" data-id="L_term_inverters_proc_acquire_telemetry_0" transform="translate(-91.15625, -12)"><foreignObject width="182.3125" height="24"><div xmlns="http://www.w3.org/1999/xhtml" class="labelBkg" style="display: table-cell; white-space: nowrap; line-height: 1.5; max-width: 200px; text-align: center;"><span class="edgeLabel"><p>F1: per-channel telemetry</p></span></div></foreignObject></g></g><g class="edgeLabel" transform="translate(1173.65415, 429.06085)"><g class="label" data-id="L_proc_dispatch_commands_term_inverters_0" transform="translate(-86.6953125, -12)"><foreignObject width="173.390625" height="24"><div xmlns="http://www.w3.org/1999/xhtml" class="labelBkg" style="display: table-cell; white-space: nowrap; line-height: 1.5; max-width: 200px; text-align: center;"><span class="edgeLabel"><p>F2: power-limit setpoints</p></span></div></foreignObject></g></g><g class="edgeLabel" transform="translate(1592.65625, 309.22463035583496)"><g class="label" data-id="L_term_meter_proc_acquire_telemetry_0" transform="translate(-90.7109375, -12)"><foreignObject width="181.421875" height="24"><div xmlns="http://www.w3.org/1999/xhtml" class="labelBkg" style="display: table-cell; white-space: nowrap; line-height: 1.5; max-width: 200px; text-align: center;"><span class="edgeLabel"><p>F3: net grid power, V/I/PF</p></span></div></foreignObject></g></g><g class="edgeLabel" transform="translate(1592.65625, 205.22463035583496)"><g class="label" data-id="L_term_battery_system_proc_acquire_telemetry_0" transform="translate(-77.8125, -12)"><foreignObject width="155.625" height="24"><div xmlns="http://www.w3.org/1999/xhtml" class="labelBkg" style="display: table-cell; white-space: nowrap; line-height: 1.5; max-width: 200px; text-align: center;"><span class="edgeLabel"><p>F4: SoC, mode, AC-in</p></span></div></foreignObject></g></g><g class="edgeLabel" transform="translate(1172.18311, 284.33016)"><g class="label" data-id="L_proc_dispatch_commands_term_battery_system_0" transform="translate(-100, -24)"><foreignObject width="200" height="48"><div xmlns="http://www.w3.org/1999/xhtml" class="labelBkg" style="display: table; white-space: break-spaces; line-height: 1.5; max-width: 200px; text-align: center; width: 200px;"><span class="edgeLabel"><p>F5: max-charge, grid setpoint</p></span></div></foreignObject></g></g><g class="edgeLabel" transform="translate(208.6015625, 225.59572410583496)"><g class="label" data-id="L_term_user_proc_handle_user_input_0" transform="translate(-68.4765625, -12)"><foreignObject width="136.953125" height="24"><div xmlns="http://www.w3.org/1999/xhtml" class="labelBkg" style="display: table-cell; white-space: nowrap; line-height: 1.5; max-width: 200px; text-align: center;"><span class="edgeLabel"><p>F6: config, override</p></span></div></foreignObject></g></g><g class="edgeLabel" transform="translate(1171.453125, 20)"><g class="label" data-id="L_proc_serve_ui_term_user_0" transform="translate(-79.6015625, -12)"><foreignObject width="159.203125" height="24"><div xmlns="http://www.w3.org/1999/xhtml" class="labelBkg" style="display: table-cell; white-space: nowrap; line-height: 1.5; max-width: 200px; text-align: center;"><span class="edgeLabel"><p>F7: dashboards, alerts</p></span></div></foreignObject></g></g><g class="edgeLabel" transform="translate(2518.328125, 242.296875)"><g class="label" data-id="L_proc_cloud_forward_term_smiles_cloud_0" transform="translate(-100, -24)"><foreignObject width="200" height="48"><div xmlns="http://www.w3.org/1999/xhtml" class="labelBkg" style="display: table; white-space: break-spaces; line-height: 1.5; max-width: 200px; text-align: center; width: 200px;"><span class="edgeLabel"><p>F8: optional telemetry forward</p></span></div></foreignObject></g></g><g class="edgeLabel"><g class="label" data-id="L_term_grid_term_inverters_0" transform="translate(0, 0)"><foreignObject width="0" height="0"><div xmlns="http://www.w3.org/1999/xhtml" class="labelBkg" style="display: table-cell; white-space: nowrap; line-height: 1.5; max-width: 200px; text-align: center;"><span class="edgeLabel"></span></div></foreignObject></g></g><g class="edgeLabel"><g class="label" data-id="L_term_grid_term_battery_system_0" transform="translate(0, 0)"><foreignObject width="0" height="0"><div xmlns="http://www.w3.org/1999/xhtml" class="labelBkg" style="display: table-cell; white-space: nowrap; line-height: 1.5; max-width: 200px; text-align: center;"><span class="edgeLabel"></span></div></foreignObject></g></g><g class="edgeLabel" transform="translate(1935.2734375, 257.22463035583496)"><g class="label" data-id="L_proc_acquire_telemetry_store_system_state_0" transform="translate(-58.6953125, -12)"><foreignObject width="117.390625" height="24"><div xmlns="http://www.w3.org/1999/xhtml" class="labelBkg" style="display: table-cell; white-space: nowrap; line-height: 1.5; max-width: 200px; text-align: center;"><span class="edgeLabel"><p>normalized state</p></span></div></foreignObject></g></g><g class="edgeLabel" transform="translate(1386.4765625, 104.03322410583496)"><g class="label" data-id="L_store_system_state_proc_compute_balance_0" transform="translate(-47.1328125, -12)"><foreignObject width="94.265625" height="24"><div xmlns="http://www.w3.org/1999/xhtml" class="labelBkg" style="display: table-cell; white-space: nowrap; line-height: 1.5; max-width: 200px; text-align: center;"><span class="edgeLabel"><p>system_state</p></span></div></foreignObject></g></g><g class="edgeLabel" transform="translate(2200.47214, 104.70638)"><g class="label" data-id="L_store_system_state_proc_serve_ui_0" transform="translate(-47.1328125, -12)"><foreignObject width="94.265625" height="24"><div xmlns="http://www.w3.org/1999/xhtml" class="labelBkg" style="display: table-cell; white-space: nowrap; line-height: 1.5; max-width: 200px; text-align: center;"><span class="edgeLabel"><p>system_state</p></span></div></foreignObject></g></g><g class="edgeLabel" transform="translate(2201.2578125, 242.296875)"><g class="label" data-id="L_store_system_state_proc_cloud_forward_0" transform="translate(-47.1328125, -12)"><foreignObject width="94.265625" height="24"><div xmlns="http://www.w3.org/1999/xhtml" class="labelBkg" style="display: table-cell; white-space: nowrap; line-height: 1.5; max-width: 200px; text-align: center;"><span class="edgeLabel"><p>system_state</p></span></div></foreignObject></g></g><g class="edgeLabel" transform="translate(792.99504, 410.59249)"><g class="label" data-id="L_proc_compute_balance_proc_dispatch_commands_0" transform="translate(-47.5859375, -12)"><foreignObject width="95.171875" height="24"><div xmlns="http://www.w3.org/1999/xhtml" class="labelBkg" style="display: table-cell; white-space: nowrap; line-height: 1.5; max-width: 200px; text-align: center;"><span class="edgeLabel"><p>cmd_setpoint</p></span></div></foreignObject></g></g><g class="edgeLabel" transform="translate(792.47565, 305.26995)"><g class="label" data-id="L_proc_compute_balance_proc_dispatch_commands_2" transform="translate(-64.90625, -12)"><foreignObject width="129.8125" height="24"><div xmlns="http://www.w3.org/1999/xhtml" class="labelBkg" style="display: table-cell; white-space: nowrap; line-height: 1.5; max-width: 200px; text-align: center;"><span class="edgeLabel"><p>cmd_inverter_limit</p></span></div></foreignObject></g></g><g class="edgeLabel" transform="translate(1592.65625, 52)"><g class="label" data-id="L_proc_compute_balance_proc_serve_ui_0" transform="translate(-39.5859375, -12)"><foreignObject width="79.171875" height="24"><div xmlns="http://www.w3.org/1999/xhtml" class="labelBkg" style="display: table-cell; white-space: nowrap; line-height: 1.5; max-width: 200px; text-align: center;"><span class="edgeLabel"><p>event_alert</p></span></div></foreignObject></g></g><g class="edgeLabel" transform="translate(485.734375, 388.59963035583496)"><g class="label" data-id="L_proc_handle_user_input_proc_compute_balance_0" transform="translate(-52.921875, -12)"><foreignObject width="105.84375" height="24"><div xmlns="http://www.w3.org/1999/xhtml" class="labelBkg" style="display: table-cell; white-space: nowrap; line-height: 1.5; max-width: 200px; text-align: center;"><span class="edgeLabel"><p>event_override</p></span></div></foreignObject></g></g><g class="edgeLabel" transform="translate(964.703125, 136.22463035583496)"><g class="label" data-id="L_proc_handle_user_input_proc_acquire_telemetry_0" transform="translate(-45.3671875, -12)"><foreignObject width="90.734375" height="24"><div xmlns="http://www.w3.org/1999/xhtml" class="labelBkg" style="display: table-cell; white-space: nowrap; line-height: 1.5; max-width: 200px; text-align: center;"><span class="edgeLabel"><p>event_config</p></span></div></foreignObject></g></g></g><g class="nodes"><g class="node default termopt" id="my-svg-flowchart-term_smiles_cloud-0" data-look="classic" transform="translate(2708.483818054199, 242.296875)"><g class="basic label-container outer-path"><path d="M-33.671875 -31.5 C-10.939717884448946 -31.5, 11.792439231102108 -31.5, 33.671875 -31.5 C33.671875 -31.5, 33.671875 -31.5, 33.671875 -31.5 C34.07944690085959 -31.48692996243001, 34.48701880171917 -31.473859924860022, 35.69008692939246 -31.435279871635593 C36.15272825091036 -31.390649419756357, 36.61536957242826 -31.346018967877118, 37.70000559306194 -31.241385435432253 C38.25740004837266 -31.151270222556175, 38.81479450368338 -31.0611550096801, 39.693371804093225 -30.91911344521856 C40.39794743291345 -30.75829865572601, 41.10252306173367 -30.597483866233453, 41.66199439314948 -30.469788185729428 C42.1897802402853 -30.31314411670396, 42.717566087421126 -30.15650004767849, 43.59778386774405 -29.895256030836062 C44.33973880310521 -29.622209756066916, 45.08169373846638 -29.34916348129777, 45.49278565370028 -29.197877856399685 C45.97083702885518 -28.98625869350881, 46.448888404010084 -28.77463953061793, 47.33921278220308 -28.380519338926202 C48.05197238326605 -28.008673111595964, 48.76473198432902 -27.63682688426573, 49.129477888124036 -27.44653917988677 C49.63843890919699 -27.13800401792539, 50.14739993026995 -26.82946885596401, 50.856224388132276 -26.399775304092984 C51.19162708867263 -26.165812899544928, 51.52702978921299 -25.93185049499687, 52.5123567104733 -25.244529088840633 C52.86542629780898 -24.962965488516733, 53.21849588514466 -24.681401888192838, 54.09106945219533 -23.985547688627737 C54.45703743290879 -23.653185251525926, 54.82300541362226 -23.320822814424115, 55.58587534400982 -22.62800452807842 C55.901473196110246 -22.302123834719193, 56.21707104821067 -21.976243141359966, 56.990631907872434 -21.177478043231485 C57.27076874982278 -20.848413368438738, 57.550905591773116 -20.519348693645995, 58.29956669774294 -19.63992875855011 C58.71195572369067 -19.087365033193283, 59.12434474963841 -18.53480130783646, 59.5073010198041 -18.02167479384835 C59.80166233314358 -17.56945676947865, 60.096023646483054 -17.117238745108946, 60.6088720346684 -16.329365901781543 C60.98577146817001 -15.660142792393316, 61.362670901671606 -14.990919683005089, 61.59975315074951 -14.56995614258631 C61.89553722364271 -13.955754186458249, 62.191321296535925 -13.341552230330189, 62.47587262499809 -12.750675308355413 C62.68425573230799 -12.235965004486655, 62.892638839617895 -11.721254700617898, 63.23363029456745 -10.878999214271206 C63.47179301413582 -10.161691049007457, 63.70995573370419 -9.444382883743707, 63.86991237065481 -8.962618978877531 C64.07321783472398 -8.187327131236275, 64.27652329879315 -7.412035283595021, 64.38210423372745 -7.009409419623907 C64.48249982782504 -6.493899262549135, 64.58289542192261 -5.978389105474364, 64.76810117755518 -5.027396693551458 C64.82181422686205 -4.610808889968728, 64.87552727616891 -4.194221086385998, 65.02631705789975 -3.024725316091981 C65.05510630008408 -2.576309630813082, 65.0838955422684 -2.1278939455341828, 65.15569081032167 -1.0096246935071378 C65.15569081032167 -0.5399141650367961, 65.15569081032167 -0.07020363656645445, 65.15569081032167 1.00962469350713 C65.11985873630134 1.567738169503381, 65.084026662281 2.1258516454996315, 65.02631705789975 3.02472531609196 C64.92440372478221 3.81514500268765, 64.82249039166467 4.60556468928334, 64.76810117755518 5.027396693551435 C64.68053376341572 5.477036857777994, 64.59296634927628 5.9266770220045535, 64.38210423372745 7.0094094196239 C64.27752149318717 7.40822873575045, 64.17293875264689 7.807048051877, 63.869912370654816 8.96261897887751 C63.700078726236384 9.474130856549309, 63.53024508181796 9.985642734221106, 63.233630294567455 10.878999214271184 C63.02062168087062 11.40513460834376, 62.807613067173776 11.931270002416337, 62.47587262499809 12.750675308355405 C62.29437625475916 13.127556404556767, 62.112879884520225 13.50443750075813, 61.59975315074951 14.569956142586303 C61.390760693684854 14.941043412885685, 61.1817682366202 15.312130683185067, 60.60887203466841 16.329365901781536 C60.37258701409829 16.692363144789294, 60.13630199352818 17.055360387797048, 59.50730101980412 18.021674793848334 C59.248329171590754 18.368673477633518, 58.98935732337739 18.715672161418702, 58.29956669774295 19.639928758550102 C57.93971453431346 20.062631585882542, 57.579862370883966 20.485334413214982, 56.99063190787245 21.177478043231467 C56.51637239936848 21.667189923191604, 56.04211289086451 22.156901803151737, 55.58587534400983 22.628004528078414 C55.058834213624564 23.10664933795015, 54.5317930832393 23.585294147821884, 54.091069452195356 23.985547688627715 C53.590107583499226 24.385051447757682, 53.089145714803095 24.78455520688765, 52.51235671047331 25.24452908884063 C51.875221447589496 25.688967067087376, 51.238086184705686 26.133405045334126, 50.8562243881323 26.399775304092973 C50.298427671316254 26.737914951804214, 49.74063095450021 27.07605459951546, 49.12947788812404 27.446539179886766 C48.74471413888629 27.64727018141116, 48.35995038964854 27.848001182935548, 47.339212782203084 28.3805193389262 C46.888363666105505 28.580096868658746, 46.437514550007926 28.779674398391297, 45.492785653700295 29.197877856399682 C44.893803172132884 29.418308946549853, 44.294820690565466 29.638740036700025, 43.59778386774407 29.895256030836055 C42.85658635810169 30.115239561072794, 42.115388848459304 30.335223091309533, 41.66199439314951 30.46978818572942 C41.01406272994359 30.61767435970693, 40.36613106673766 30.76556053368444, 39.69337180409324 30.919113445218557 C39.25025837401581 30.990752588197502, 38.80714494393838 31.062391731176447, 37.70000559306196 31.24138543543225 C37.172018989902575 31.292319668042243, 36.64403238674319 31.343253900652236, 35.69008692939246 31.435279871635593 C34.945472864317644 31.45915819539919, 34.20085879924283 31.483036519162784, 33.67187500000001 31.5 C33.67187500000001 31.5, 33.671875 31.5, 33.671875 31.5 C18.182215122642887 31.5, 2.692555245285771 31.5, -33.67187499999999 31.5 C-34.13148344678228 31.485261251685262, -34.591091893564574 31.470522503370525, -35.69008692939244 31.435279871635593 C-36.493889816888874 31.35773797379322, -37.297692704385305 31.280196075950848, -37.700005593061945 31.24138543543225 C-38.37634110369557 31.132040755133225, -39.0526766143292 31.0226960748342, -39.693371804093225 30.919113445218557 C-40.282873607728746 30.784563505397525, -40.87237541136427 30.650013565576494, -41.66199439314947 30.469788185729428 C-42.33686847486728 30.269489100761927, -43.01174255658509 30.069190015794426, -43.597783867744035 29.89525603083607 C-44.145669394305564 29.693629092463137, -44.69355492086709 29.492002154090205, -45.49278565370029 29.197877856399685 C-46.175586665796644 28.895622102917006, -46.858387677893006 28.593366349434326, -47.33921278220308 28.380519338926206 C-47.760077623217335 28.160954420945863, -48.18094246423159 27.941389502965524, -49.12947788812403 27.446539179886773 C-49.78930705043587 27.04654686410677, -50.44913621274772 26.646554548326765, -50.85622438813226 26.399775304092994 C-51.35726976194118 26.050267741228545, -51.8583151357501 25.700760178364096, -52.5123567104733 25.244529088840636 C-52.860701112746696 24.966733697861454, -53.2090455150201 24.688938306882267, -54.09106945219533 23.98554768862774 C-54.56793654853999 23.552469608939486, -55.04480364488465 23.11939152925123, -55.58587534400981 22.628004528078435 C-55.93106873845216 22.27156400741195, -56.27626213289452 21.915123486745465, -56.99063190787244 21.177478043231478 C-57.386833110089434 20.71207756662033, -57.783034312306434 20.246677090009182, -58.29956669774293 19.639928758550113 C-58.73009961785544 19.06305386795526, -59.16063253796794 18.48617897736041, -59.5073010198041 18.021674793848355 C-59.94414334001486 17.350567681416905, -60.38098566022562 16.679460568985455, -60.608872034668394 16.329365901781557 C-60.853767961456946 15.894528385366844, -61.098663888245504 15.459690868952132, -61.5997531507495 14.569956142586314 C-61.796248660220414 14.161929012839582, -61.99274416969133 13.753901883092851, -62.47587262499809 12.750675308355417 C-62.73027008978591 12.122308651889119, -62.98466755457373 11.493941995422821, -63.23363029456745 10.878999214271209 C-63.42838169626611 10.29243902177682, -63.62313309796477 9.705878829282431, -63.86991237065481 8.962618978877522 C-64.00463363300584 8.448868416968608, -64.13935489535686 7.935117855059692, -64.38210423372743 7.009409419623911 C-64.47041819658689 6.555935885503255, -64.55873215944635 6.102462351382599, -64.76810117755518 5.027396693551461 C-64.83228187957407 4.529623842606132, -64.89646258159294 4.031850991660803, -65.02631705789975 3.024725316091999 C-65.05918568494035 2.5127699188564745, -65.09205431198095 2.00081452162095, -65.15569081032167 1.0096246935071416 C-65.15569081032167 0.44528543114473174, -65.15569081032167 -0.1190538312176781, -65.15569081032167 -1.0096246935071262 C-65.11287410445976 -1.676529448329287, -65.07005739859785 -2.343434203151448, -65.02631705789975 -3.024725316091956 C-64.96832271746655 -3.4745179682139438, -64.91032837703337 -3.924310620335932, -64.76810117755518 -5.027396693551446 C-64.69085134705311 -5.424058246422107, -64.61360151655104 -5.8207197992927675, -64.38210423372745 -7.009409419623896 C-64.20323713305903 -7.691507195964357, -64.02437003239062 -8.373604972304818, -63.869912370654816 -8.962618978877506 C-63.73355821667679 -9.373295965575206, -63.597204062698765 -9.783972952272908, -63.23363029456746 -10.878999214271168 C-63.06906736093104 -11.285472841961017, -62.90450442729461 -11.691946469650867, -62.47587262499809 -12.750675308355401 C-62.160599775127366 -13.405346126870304, -61.845326925256636 -14.060016945385208, -61.59975315074951 -14.5699561425863 C-61.30852839295895 -15.087055189747923, -61.01730363516838 -15.60415423690955, -60.6088720346684 -16.329365901781546 C-60.382267235652215 -16.67749172497901, -60.155662436636035 -17.025617548176474, -59.50730101980411 -18.021674793848344 C-59.09962672554873 -18.567921208258305, -58.69195243129336 -19.114167622668266, -58.29956669774295 -19.639928758550102 C-57.873501325083225 -20.140409389082716, -57.4474359524235 -20.64089001961533, -56.990631907872455 -21.177478043231467 C-56.61228550508058 -21.56815176693144, -56.233939102288694 -21.958825490631412, -55.585875344009835 -22.628004528078403 C-55.119115548850644 -23.051903424254544, -54.65235575369146 -23.475802320430688, -54.091069452195356 -23.98554768862771 C-53.49274934789955 -24.462692049836964, -52.894429243603746 -24.939836411046215, -52.51235671047331 -25.244529088840626 C-51.88478881752245 -25.68229328398692, -51.257220924571584 -26.120057479133212, -50.856224388132304 -26.39977530409297 C-50.35267772641697 -26.70502824959345, -49.84913106470164 -27.01028119509393, -49.12947788812404 -27.446539179886763 C-48.4160405517935 -27.818738981271984, -47.702603215462965 -28.190938782657206, -47.33921278220309 -28.3805193389262 C-46.84634880593613 -28.598695600929183, -46.35348482966918 -28.81687186293217, -45.4927856537003 -29.19787785639968 C-44.95493233304995 -29.3958128502606, -44.417079012399604 -29.593747844121527, -43.59778386774408 -29.895256030836055 C-43.068432747158994 -30.052364664804976, -42.53908162657391 -30.209473298773894, -41.66199439314951 -30.469788185729417 C-41.182566016105845 -30.579214584227095, -40.70313763906218 -30.688640982724774, -39.69337180409324 -30.919113445218553 C-39.194640771902975 -30.999744410786157, -38.69590973971271 -31.08037537635376, -37.70000559306196 -31.24138543543225 C-36.975343384793064 -31.311292727130134, -36.25068117652417 -31.38120001882802, -35.69008692939246 -31.435279871635593 C-35.18983260027398 -31.451322054284443, -34.689578271155504 -31.46736423693329, -33.67187500000001 -31.5 C-33.67187500000001 -31.5, -33.671875 -31.5, -33.671875 -31.5" stroke="none" stroke-width="0" fill="#fafafa" style="fill:#fafafa !important;stroke:#888 !important;stroke-dasharray:5 5 !important"/><path d="M-33.671875 -31.5 C-8.032297116728216 -31.5, 17.607280766543568 -31.5, 33.671875 -31.5 M-33.671875 -31.5 C-15.874571262897742 -31.5, 1.9227324742045155 -31.5, 33.671875 -31.5 M33.671875 -31.5 C33.671875 -31.5, 33.671875 -31.5, 33.671875 -31.5 M33.671875 -31.5 C33.671875 -31.5, 33.671875 -31.5, 33.671875 -31.5 M33.671875 -31.5 C34.278729792211216 -31.480539347984983, 34.88558458442244 -31.461078695969963, 35.69008692939246 -31.435279871635593 M33.671875 -31.5 C34.23937599840793 -31.48180134755474, 34.806876996815866 -31.46360269510948, 35.69008692939246 -31.435279871635593 M35.69008692939246 -31.435279871635593 C36.15717517952367 -31.390220429901245, 36.62426342965489 -31.345160988166896, 37.70000559306194 -31.241385435432253 M35.69008692939246 -31.435279871635593 C36.367295475888206 -31.369950377617585, 37.044504022383954 -31.30462088359958, 37.70000559306194 -31.241385435432253 M37.70000559306194 -31.241385435432253 C38.17148762222773 -31.165159877354473, 38.642969651393514 -31.088934319276692, 39.693371804093225 -30.91911344521856 M37.70000559306194 -31.241385435432253 C38.485037291216784 -31.11446759848632, 39.27006898937164 -30.98754976154039, 39.693371804093225 -30.91911344521856 M39.693371804093225 -30.91911344521856 C40.47650581983296 -30.740368216553012, 41.25963983557269 -30.561622987887464, 41.66199439314948 -30.469788185729428 M39.693371804093225 -30.91911344521856 C40.27514578925122 -30.786327329536295, 40.856919774409214 -30.65354121385403, 41.66199439314948 -30.469788185729428 M41.66199439314948 -30.469788185729428 C42.283922665456174 -30.28520313907692, 42.90585093776287 -30.100618092424412, 43.59778386774405 -29.895256030836062 M41.66199439314948 -30.469788185729428 C42.211318329744294 -30.30675172480827, 42.76064226633912 -30.14371526388711, 43.59778386774405 -29.895256030836062 M43.59778386774405 -29.895256030836062 C44.2089264987962 -29.670349893268316, 44.82006912984836 -29.44544375570057, 45.49278565370028 -29.197877856399685 M43.59778386774405 -29.895256030836062 C44.29370400100772 -29.63915098877984, 44.98962413427138 -29.38304594672362, 45.49278565370028 -29.197877856399685 M45.49278565370028 -29.197877856399685 C46.08143894715434 -28.937298505167107, 46.6700922406084 -28.676719153934528, 47.33921278220308 -28.380519338926202 M45.49278565370028 -29.197877856399685 C46.22466677926058 -28.873895792596354, 46.95654790482089 -28.549913728793022, 47.33921278220308 -28.380519338926202 M47.33921278220308 -28.380519338926202 C48.011223399348815 -28.029931830404617, 48.68323401649455 -27.67934432188303, 49.129477888124036 -27.44653917988677 M47.33921278220308 -28.380519338926202 C47.96743077666284 -28.052778413609378, 48.5956487711226 -27.725037488292553, 49.129477888124036 -27.44653917988677 M49.129477888124036 -27.44653917988677 C49.49328016437639 -27.22600010208311, 49.85708244062874 -27.00546102427945, 50.856224388132276 -26.399775304092984 M49.129477888124036 -27.44653917988677 C49.64694821175665 -27.13284562870751, 50.16441853538927 -26.81915207752825, 50.856224388132276 -26.399775304092984 M50.856224388132276 -26.399775304092984 C51.42208359795645 -26.005056414970028, 51.987942807780634 -25.610337525847076, 52.5123567104733 -25.244529088840633 M50.856224388132276 -26.399775304092984 C51.37538150912638 -26.037633770437047, 51.89453863012048 -25.675492236781114, 52.5123567104733 -25.244529088840633 M52.5123567104733 -25.244529088840633 C52.9346605104818 -24.907753046309935, 53.356964310490305 -24.57097700377924, 54.09106945219533 -23.985547688627737 M52.5123567104733 -25.244529088840633 C52.95442867074312 -24.891988464554373, 53.396500631012934 -24.539447840268114, 54.09106945219533 -23.985547688627737 M54.09106945219533 -23.985547688627737 C54.650752712376885 -23.477258160138433, 55.21043597255845 -22.968968631649133, 55.58587534400982 -22.62800452807842 M54.09106945219533 -23.985547688627737 C54.430307189199695 -23.677460951619032, 54.76954492620407 -23.369374214610332, 55.58587534400982 -22.62800452807842 M55.58587534400982 -22.62800452807842 C55.893070580408875 -22.31080022529844, 56.20026581680793 -21.99359592251846, 56.990631907872434 -21.177478043231485 M55.58587534400982 -22.62800452807842 C55.88996620790186 -22.314005744785657, 56.19405707179389 -22.000006961492893, 56.990631907872434 -21.177478043231485 M56.990631907872434 -21.177478043231485 C57.40959881653199 -20.685335672427517, 57.82856572519154 -20.193193301623552, 58.29956669774294 -19.63992875855011 M56.990631907872434 -21.177478043231485 C57.43831143926826 -20.651608191966975, 57.88599097066409 -20.125738340702462, 58.29956669774294 -19.63992875855011 M58.29956669774294 -19.63992875855011 C58.72620607882478 -19.06827085554764, 59.15284545990662 -18.496612952545174, 59.5073010198041 -18.02167479384835 M58.29956669774294 -19.63992875855011 C58.68881516931527 -19.11837126790845, 59.0780636408876 -18.596813777266796, 59.5073010198041 -18.02167479384835 M59.5073010198041 -18.02167479384835 C59.72841824459893 -17.681979358274905, 59.949535469393744 -17.342283922701455, 60.6088720346684 -16.329365901781543 M59.5073010198041 -18.02167479384835 C59.90547789040336 -17.409968195147158, 60.30365476100262 -16.798261596445965, 60.6088720346684 -16.329365901781543 M60.6088720346684 -16.329365901781543 C60.99477707680194 -15.644152422350556, 61.380682118935475 -14.95893894291957, 61.59975315074951 -14.56995614258631 M60.6088720346684 -16.329365901781543 C60.89259014257876 -15.825595671612941, 61.17630825048913 -15.32182544144434, 61.59975315074951 -14.56995614258631 M61.59975315074951 -14.56995614258631 C61.93912213369864 -13.865249188159448, 62.278491116647764 -13.160542233732583, 62.47587262499809 -12.750675308355413 M61.59975315074951 -14.56995614258631 C61.85480687664823 -14.040331623482103, 62.10986060254696 -13.510707104377898, 62.47587262499809 -12.750675308355413 M62.47587262499809 -12.750675308355413 C62.629172829323835 -12.372020839813002, 62.78247303364958 -11.99336637127059, 63.23363029456745 -10.878999214271206 M62.47587262499809 -12.750675308355413 C62.631836546746335 -12.36544140627996, 62.787800468494574 -11.980207504204506, 63.23363029456745 -10.878999214271206 M63.23363029456745 -10.878999214271206 C63.36229168487811 -10.491491606064159, 63.49095307518878 -10.103983997857112, 63.86991237065481 -8.962618978877531 M63.23363029456745 -10.878999214271206 C63.36308863462472 -10.489091320404082, 63.492546974681986 -10.099183426536957, 63.86991237065481 -8.962618978877531 M63.86991237065481 -8.962618978877531 C64.02439155523322 -8.373522896377944, 64.17887073981163 -7.7844268138783566, 64.38210423372745 -7.009409419623907 M63.86991237065481 -8.962618978877531 C64.03194919929636 -8.344702324061535, 64.19398602793791 -7.726785669245539, 64.38210423372745 -7.009409419623907 M64.38210423372745 -7.009409419623907 C64.52806032746497 -6.259955726113048, 64.6740164212025 -5.510502032602188, 64.76810117755518 -5.027396693551458 M64.38210423372745 -7.009409419623907 C64.50128015591396 -6.397466247036247, 64.62045607810047 -5.785523074448586, 64.76810117755518 -5.027396693551458 M64.76810117755518 -5.027396693551458 C64.8244230885301 -4.5905750740493705, 64.880744999505 -4.153753454547284, 65.02631705789975 -3.024725316091981 M64.76810117755518 -5.027396693551458 C64.84951758387476 -4.395947123624681, 64.93093399019435 -3.764497553697904, 65.02631705789975 -3.024725316091981 M65.02631705789975 -3.024725316091981 C65.06595268004808 -2.4073685078332554, 65.10558830219642 -1.7900116995745299, 65.15569081032167 -1.0096246935071378 M65.02631705789975 -3.024725316091981 C65.06061016524403 -2.4905824883067544, 65.09490327258831 -1.956439660521528, 65.15569081032167 -1.0096246935071378 M65.15569081032167 -1.0096246935071378 C65.15569081032167 -0.5013135450467269, 65.15569081032167 0.00699760341368405, 65.15569081032167 1.00962469350713 M65.15569081032167 -1.0096246935071378 C65.15569081032167 -0.3394004135159159, 65.15569081032167 0.33082386647530604, 65.15569081032167 1.00962469350713 M65.15569081032167 1.00962469350713 C65.11515771345714 1.6409603948990668, 65.07462461659262 2.2722960962910035, 65.02631705789975 3.02472531609196 M65.15569081032167 1.00962469350713 C65.12556551425112 1.478850496507218, 65.09544021818057 1.948076299507306, 65.02631705789975 3.02472531609196 M65.02631705789975 3.02472531609196 C64.96046163083591 3.535487003774063, 64.89460620377208 4.046248691456166, 64.76810117755518 5.027396693551435 M65.02631705789975 3.02472531609196 C64.93279693194263 3.7500489453776673, 64.8392768059855 4.475372574663375, 64.76810117755518 5.027396693551435 M64.76810117755518 5.027396693551435 C64.68493254138728 5.4544500625761305, 64.60176390521939 5.881503431600826, 64.38210423372745 7.0094094196239 M64.76810117755518 5.027396693551435 C64.62873402486528 5.743017567355909, 64.48936687217538 6.458638441160383, 64.38210423372745 7.0094094196239 M64.38210423372745 7.0094094196239 C64.19452869588531 7.724716241168299, 64.00695315804319 8.440023062712697, 63.869912370654816 8.96261897887751 M64.38210423372745 7.0094094196239 C64.23854114134659 7.556877711509969, 64.09497804896571 8.104346003396039, 63.869912370654816 8.96261897887751 M63.869912370654816 8.96261897887751 C63.63995216950907 9.655222465546125, 63.409991968363336 10.34782595221474, 63.233630294567455 10.878999214271184 M63.869912370654816 8.96261897887751 C63.619394350205816 9.717139341843845, 63.368876329756816 10.471659704810179, 63.233630294567455 10.878999214271184 M63.233630294567455 10.878999214271184 C63.05676199984871 11.315867321742328, 62.87989370512997 11.752735429213471, 62.47587262499809 12.750675308355405 M63.233630294567455 10.878999214271184 C62.99843019675665 11.459948003148416, 62.76323009894584 12.040896792025649, 62.47587262499809 12.750675308355405 M62.47587262499809 12.750675308355405 C62.287073864522284 13.14271997412975, 62.09827510404648 13.534764639904097, 61.59975315074951 14.569956142586303 M62.47587262499809 12.750675308355405 C62.13246407231524 13.463770515767285, 61.78905551963239 14.176865723179166, 61.59975315074951 14.569956142586303 M61.59975315074951 14.569956142586303 C61.301663401204785 15.09924467776323, 61.00357365166007 15.628533212940157, 60.60887203466841 16.329365901781536 M61.59975315074951 14.569956142586303 C61.386112105234595 14.949297452399747, 61.17247105971968 15.328638762213192, 60.60887203466841 16.329365901781536 M60.60887203466841 16.329365901781536 C60.36350227657665 16.706319741216145, 60.11813251848488 17.083273580650754, 59.50730101980412 18.021674793848334 M60.60887203466841 16.329365901781536 C60.35447333583803 16.720190618800718, 60.10007463700766 17.1110153358199, 59.50730101980412 18.021674793848334 M59.50730101980412 18.021674793848334 C59.18356990113937 18.455445000347463, 58.859838782474625 18.889215206846597, 58.29956669774295 19.639928758550102 M59.50730101980412 18.021674793848334 C59.0927448033006 18.577142357114788, 58.678188586797084 19.132609920381242, 58.29956669774295 19.639928758550102 M58.29956669774295 19.639928758550102 C57.779775315595 20.250505292988596, 57.25998393344706 20.86108182742709, 56.99063190787245 21.177478043231467 M58.29956669774295 19.639928758550102 C58.03052659673569 19.95595857000865, 57.761486495728434 20.271988381467196, 56.99063190787245 21.177478043231467 M56.99063190787245 21.177478043231467 C56.64514490767607 21.534221735944463, 56.299657907479684 21.890965428657463, 55.58587534400983 22.628004528078414 M56.99063190787245 21.177478043231467 C56.60261208531327 21.578140367043712, 56.21459226275409 21.978802690855957, 55.58587534400983 22.628004528078414 M55.58587534400983 22.628004528078414 C55.22207006827903 22.958402853737006, 54.858264792548226 23.2888011793956, 54.091069452195356 23.985547688627715 M55.58587534400983 22.628004528078414 C55.0300580370506 23.132783100138713, 54.474240730091374 23.63756167219901, 54.091069452195356 23.985547688627715 M54.091069452195356 23.985547688627715 C53.50561077918956 24.452435400640244, 52.920152106183764 24.919323112652776, 52.51235671047331 25.24452908884063 M54.091069452195356 23.985547688627715 C53.73070546242782 24.272928380778815, 53.37034147266029 24.560309072929915, 52.51235671047331 25.24452908884063 M52.51235671047331 25.24452908884063 C52.161796457399596 25.48906474587608, 51.81123620432589 25.733600402911534, 50.8562243881323 26.399775304092973 M52.51235671047331 25.24452908884063 C52.0919747971802 25.53776931351418, 51.67159288388709 25.83100953818773, 50.8562243881323 26.399775304092973 M50.8562243881323 26.399775304092973 C50.43867258370297 26.652897661744806, 50.02112077927364 26.90602001939664, 49.12947788812404 27.446539179886766 M50.8562243881323 26.399775304092973 C50.348122169380964 26.707789855040104, 49.840019950629625 27.015804405987236, 49.12947788812404 27.446539179886766 M49.12947788812404 27.446539179886766 C48.56521512894443 27.740914699923223, 48.00095236976482 28.03529021995968, 47.339212782203084 28.3805193389262 M49.12947788812404 27.446539179886766 C48.54810244556782 27.749842375879602, 47.9667270030116 28.05314557187244, 47.339212782203084 28.3805193389262 M47.339212782203084 28.3805193389262 C46.63642029418281 28.691624725774332, 45.93362780616254 29.00273011262247, 45.492785653700295 29.197877856399682 M47.339212782203084 28.3805193389262 C46.71797930880332 28.65552096936404, 46.09674583540356 28.930522599801886, 45.492785653700295 29.197877856399682 M45.492785653700295 29.197877856399682 C44.88190619757232 29.422687143162566, 44.271026741444345 29.64749642992545, 43.59778386774407 29.895256030836055 M45.492785653700295 29.197877856399682 C45.08653035518492 29.347383561636153, 44.68027505666954 29.496889266872625, 43.59778386774407 29.895256030836055 M43.59778386774407 29.895256030836055 C43.066725950030374 30.052871233233585, 42.535668032316686 30.21048643563112, 41.66199439314951 30.46978818572942 M43.59778386774407 29.895256030836055 C43.17966058109942 30.01935282753827, 42.76153729445476 30.143449624240485, 41.66199439314951 30.46978818572942 M41.66199439314951 30.46978818572942 C41.235982925924645 30.56702252313887, 40.80997145869978 30.664256860548317, 39.69337180409324 30.919113445218557 M41.66199439314951 30.46978818572942 C41.212235000951445 30.57244283204431, 40.76247560875338 30.6750974783592, 39.69337180409324 30.919113445218557 M39.69337180409324 30.919113445218557 C39.1945175122246 30.999764338455066, 38.69566322035596 31.080415231691575, 37.70000559306196 31.24138543543225 M39.69337180409324 30.919113445218557 C39.036271432310826 31.025348337438846, 38.379171060528414 31.131583229659135, 37.70000559306196 31.24138543543225 M37.70000559306196 31.24138543543225 C36.90341429636782 31.318231639783132, 36.10682299967369 31.395077844134015, 35.69008692939246 31.435279871635593 M37.70000559306196 31.24138543543225 C37.24500552496481 31.285278744783938, 36.79000545686767 31.32917205413563, 35.69008692939246 31.435279871635593 M35.69008692939246 31.435279871635593 C34.92901220401521 31.459686056736356, 34.16793747863796 31.48409224183712, 33.67187500000001 31.5 M35.69008692939246 31.435279871635593 C35.05186578649065 31.455746381466362, 34.41364464358884 31.47621289129713, 33.67187500000001 31.5 M33.67187500000001 31.5 C33.67187500000001 31.5, 33.67187500000001 31.5, 33.671875 31.5 M33.67187500000001 31.5 C33.67187500000001 31.5, 33.671875 31.5, 33.671875 31.5 M33.671875 31.5 C9.173611780839579 31.5, -15.324651438320842 31.5, -33.67187499999999 31.5 M33.671875 31.5 C17.72895671325146 31.5, 1.7860384265029197 31.5, -33.67187499999999 31.5 M-33.67187499999999 31.5 C-34.46858672393344 31.47445100571875, -35.2652984478669 31.448902011437497, -35.69008692939244 31.435279871635593 M-33.67187499999999 31.5 C-34.17618156112684 31.483827870157835, -34.680488122253685 31.46765574031567, -35.69008692939244 31.435279871635593 M-35.69008692939244 31.435279871635593 C-36.467901490967705 31.3602450363393, -37.24571605254296 31.285210201043007, -37.700005593061945 31.24138543543225 M-35.69008692939244 31.435279871635593 C-36.38754134514817 31.367997282959294, -37.08499576090391 31.300714694283, -37.700005593061945 31.24138543543225 M-37.700005593061945 31.24138543543225 C-38.420509542255196 31.124899944518262, -39.14101349144845 31.008414453604274, -39.693371804093225 30.919113445218557 M-37.700005593061945 31.24138543543225 C-38.23365671933457 31.155108859862786, -38.76730784560719 31.068832284293322, -39.693371804093225 30.919113445218557 M-39.693371804093225 30.919113445218557 C-40.196822989976916 30.804203997366624, -40.7002741758606 30.68929454951469, -41.66199439314947 30.469788185729428 M-39.693371804093225 30.919113445218557 C-40.23405420746093 30.795706214932295, -40.77473661082863 30.672298984646034, -41.66199439314947 30.469788185729428 M-41.66199439314947 30.469788185729428 C-42.36287521487187 30.261770436840727, -43.06375603659427 30.05375268795203, -43.597783867744035 29.89525603083607 M-41.66199439314947 30.469788185729428 C-42.20239712506127 30.309399491529835, -42.742799856973065 30.149010797330238, -43.597783867744035 29.89525603083607 M-43.597783867744035 29.89525603083607 C-44.197928848168864 29.674397130360347, -44.798073828593694 29.453538229884625, -45.49278565370029 29.197877856399685 M-43.597783867744035 29.89525603083607 C-44.03232264077009 29.735341745530096, -44.46686141379615 29.57542746022412, -45.49278565370029 29.197877856399685 M-45.49278565370029 29.197877856399685 C-46.00733954900421 28.970100110647625, -46.52189344430813 28.742322364895564, -47.33921278220308 28.380519338926206 M-45.49278565370029 29.197877856399685 C-45.87073846394328 29.03056935887688, -46.248691274186285 28.86326086135407, -47.33921278220308 28.380519338926206 M-47.33921278220308 28.380519338926206 C-47.824476503885464 28.127357566150753, -48.30974022556786 27.874195793375296, -49.12947788812403 27.446539179886773 M-47.33921278220308 28.380519338926206 C-47.971251945787586 28.05078491212457, -48.6032911093721 27.721050485322937, -49.12947788812403 27.446539179886773 M-49.12947788812403 27.446539179886773 C-49.6135906073217 27.15306720454702, -50.097703326519365 26.859595229207272, -50.85622438813226 26.399775304092994 M-49.12947788812403 27.446539179886773 C-49.6824461031411 27.11132659834149, -50.235414318158185 26.776114016796207, -50.85622438813226 26.399775304092994 M-50.85622438813226 26.399775304092994 C-51.48180648201551 25.963396316412418, -52.107388575898746 25.527017328731844, -52.5123567104733 25.244529088840636 M-50.85622438813226 26.399775304092994 C-51.30160631934672 26.089096149150848, -51.74698825056118 25.7784169942087, -52.5123567104733 25.244529088840636 M-52.5123567104733 25.244529088840636 C-52.96600843383906 24.8827539116358, -53.419660157204824 24.52097873443096, -54.09106945219533 23.98554768862774 M-52.5123567104733 25.244529088840636 C-53.06495248330474 24.803848665198657, -53.61754825613618 24.363168241556675, -54.09106945219533 23.98554768862774 M-54.09106945219533 23.98554768862774 C-54.59309731977279 23.529619262223385, -55.09512518735025 23.07369083581903, -55.58587534400981 22.628004528078435 M-54.09106945219533 23.98554768862774 C-54.60793698849257 23.516142267728203, -55.1248045247898 23.046736846828665, -55.58587534400981 22.628004528078435 M-55.58587534400981 22.628004528078435 C-55.91297945474415 22.29024267799828, -56.24008356547851 21.952480827918123, -56.99063190787244 21.177478043231478 M-55.58587534400981 22.628004528078435 C-55.963942821058296 22.23761881810874, -56.342010298106786 21.847233108139047, -56.99063190787244 21.177478043231478 M-56.99063190787244 21.177478043231478 C-57.29449037491305 20.82054859780899, -57.59834884195367 20.463619152386503, -58.29956669774293 19.639928758550113 M-56.99063190787244 21.177478043231478 C-57.30080950707746 20.813125785599873, -57.61098710628249 20.448773527968264, -58.29956669774293 19.639928758550113 M-58.29956669774293 19.639928758550113 C-58.59466498086037 19.244523943179395, -58.889763263977805 18.84911912780868, -59.5073010198041 18.021674793848355 M-58.29956669774293 19.639928758550113 C-58.56157151732481 19.288866169440503, -58.82357633690668 18.93780358033089, -59.5073010198041 18.021674793848355 M-59.5073010198041 18.021674793848355 C-59.78940204687765 17.588291861530955, -60.0715030739512 17.154908929213555, -60.608872034668394 16.329365901781557 M-59.5073010198041 18.021674793848355 C-59.90126879165922 17.41643450111943, -60.295236563514344 16.811194208390507, -60.608872034668394 16.329365901781557 M-60.608872034668394 16.329365901781557 C-60.8679515405728 15.869344004403525, -61.12703104647721 15.409322107025492, -61.5997531507495 14.569956142586314 M-60.608872034668394 16.329365901781557 C-60.82189752287015 15.951117576309551, -61.03492301107192 15.572869250837545, -61.5997531507495 14.569956142586314 M-61.5997531507495 14.569956142586314 C-61.794277346209476 14.166022488562662, -61.988801541669446 13.762088834539009, -62.47587262499809 12.750675308355417 M-61.5997531507495 14.569956142586314 C-61.914066076713205 13.91727862660342, -62.22837900267692 13.264601110620523, -62.47587262499809 12.750675308355417 M-62.47587262499809 12.750675308355417 C-62.7171823509698 12.15463561979913, -62.9584920769415 11.558595931242843, -63.23363029456745 10.878999214271209 M-62.47587262499809 12.750675308355417 C-62.64207074958105 12.340162727413361, -62.80826887416401 11.929650146471305, -63.23363029456745 10.878999214271209 M-63.23363029456745 10.878999214271209 C-63.44689129259061 10.236691066751119, -63.66015229061376 9.594382919231029, -63.86991237065481 8.962618978877522 M-63.23363029456745 10.878999214271209 C-63.392290856163214 10.401138881872276, -63.55095141775898 9.923278549473341, -63.86991237065481 8.962618978877522 M-63.86991237065481 8.962618978877522 C-64.03079367695862 8.349108831541841, -64.19167498326244 7.735598684206158, -64.38210423372743 7.009409419623911 M-63.86991237065481 8.962618978877522 C-63.97349748686515 8.567604036694144, -64.07708260307548 8.172589094510768, -64.38210423372743 7.009409419623911 M-64.38210423372743 7.009409419623911 C-64.4614386316969 6.6020440533817215, -64.54077302966634 6.194678687139532, -64.76810117755518 5.027396693551461 M-64.38210423372743 7.009409419623911 C-64.48044989465663 6.504425236115303, -64.57879555558583 5.999441052606694, -64.76810117755518 5.027396693551461 M-64.76810117755518 5.027396693551461 C-64.86992362878937 4.2376818688964075, -64.97174608002355 3.4479670442413535, -65.02631705789975 3.024725316091999 M-64.76810117755518 5.027396693551461 C-64.85647149338381 4.342013974677333, -64.94484180921242 3.6566312558032052, -65.02631705789975 3.024725316091999 M-65.02631705789975 3.024725316091999 C-65.05277195751442 2.6126689005826917, -65.07922685712911 2.2006124850733846, -65.15569081032167 1.0096246935071416 M-65.02631705789975 3.024725316091999 C-65.06624582361043 2.4028025602285195, -65.10617458932111 1.78087980436504, -65.15569081032167 1.0096246935071416 M-65.15569081032167 1.0096246935071416 C-65.15569081032167 0.4809770383101756, -65.15569081032167 -0.04767061688679042, -65.15569081032167 -1.0096246935071262 M-65.15569081032167 1.0096246935071416 C-65.15569081032167 0.5564208099226657, -65.15569081032167 0.10321692633818991, -65.15569081032167 -1.0096246935071262 M-65.15569081032167 -1.0096246935071262 C-65.12938729472431 -1.4193231807516804, -65.10308377912695 -1.8290216679962346, -65.02631705789975 -3.024725316091956 M-65.15569081032167 -1.0096246935071262 C-65.12555226792486 -1.4790568187309758, -65.09541372552806 -1.9484889439548252, -65.02631705789975 -3.024725316091956 M-65.02631705789975 -3.024725316091956 C-64.92472396095634 -3.8126613141589036, -64.82313086401292 -4.600597312225852, -64.76810117755518 -5.027396693551446 M-65.02631705789975 -3.024725316091956 C-64.95488310674251 -3.578752935038251, -64.88344915558528 -4.132780553984546, -64.76810117755518 -5.027396693551446 M-64.76810117755518 -5.027396693551446 C-64.6361886300475 -5.704739745276607, -64.50427608253982 -6.382082797001768, -64.38210423372745 -7.009409419623896 M-64.76810117755518 -5.027396693551446 C-64.65399119097033 -5.613327357510452, -64.53988120438548 -6.199258021469458, -64.38210423372745 -7.009409419623896 M-64.38210423372745 -7.009409419623896 C-64.18268135704092 -7.769895278851133, -63.98325848035438 -8.53038113807837, -63.869912370654816 -8.962618978877506 M-64.38210423372745 -7.009409419623896 C-64.23035488111586 -7.5880954697173415, -64.07860552850427 -8.166781519810787, -63.869912370654816 -8.962618978877506 M-63.869912370654816 -8.962618978877506 C-63.64998113985765 -9.625016804755635, -63.430049909060486 -10.287414630633764, -63.23363029456746 -10.878999214271168 M-63.869912370654816 -8.962618978877506 C-63.70671531447071 -9.454142510184246, -63.54351825828661 -9.945666041490988, -63.23363029456746 -10.878999214271168 M-63.23363029456746 -10.878999214271168 C-62.970941348240494 -11.527845990444046, -62.708252401913526 -12.176692766616924, -62.47587262499809 -12.750675308355401 M-63.23363029456746 -10.878999214271168 C-63.03616945674839 -11.366731301329862, -62.83870861892932 -11.854463388388558, -62.47587262499809 -12.750675308355401 M-62.47587262499809 -12.750675308355401 C-62.14904448484644 -13.429340934382243, -61.822216344694795 -14.108006560409082, -61.59975315074951 -14.5699561425863 M-62.47587262499809 -12.750675308355401 C-62.27592299243885 -13.165874998601437, -62.07597335987961 -13.581074688847472, -61.59975315074951 -14.5699561425863 M-61.59975315074951 -14.5699561425863 C-61.35303869480982 -15.008022641654897, -61.10632423887013 -15.446089140723496, -60.6088720346684 -16.329365901781546 M-61.59975315074951 -14.5699561425863 C-61.35500086047464 -15.004538617826185, -61.11024857019977 -15.43912109306607, -60.6088720346684 -16.329365901781546 M-60.6088720346684 -16.329365901781546 C-60.18606686741014 -16.978908177774617, -59.76326170015187 -17.628450453767687, -59.50730101980411 -18.021674793848344 M-60.6088720346684 -16.329365901781546 C-60.215865249863036 -16.933129860340895, -59.82285846505767 -17.53689381890024, -59.50730101980411 -18.021674793848344 M-59.50730101980411 -18.021674793848344 C-59.05460630849678 -18.628244465663556, -58.60191159718945 -19.234814137478768, -58.29956669774295 -19.639928758550102 M-59.50730101980411 -18.021674793848344 C-59.2356620766396 -18.38564623087198, -58.96402313347509 -18.749617667895613, -58.29956669774295 -19.639928758550102 M-58.29956669774295 -19.639928758550102 C-57.989942448550025 -20.003631019770985, -57.6803181993571 -20.36733328099187, -56.990631907872455 -21.177478043231467 M-58.29956669774295 -19.639928758550102 C-57.805413167174635 -20.22038961368808, -57.31125963660632 -20.800850468826063, -56.990631907872455 -21.177478043231467 M-56.990631907872455 -21.177478043231467 C-56.50131488690187 -21.68273804105814, -56.01199786593129 -22.187998038884814, -55.585875344009835 -22.628004528078403 M-56.990631907872455 -21.177478043231467 C-56.43969479573536 -21.74636584429113, -55.88875768359828 -22.315253645350793, -55.585875344009835 -22.628004528078403 M-55.585875344009835 -22.628004528078403 C-55.233117918967075 -22.948369488052233, -54.88036049392431 -23.26873444802606, -54.091069452195356 -23.98554768862771 M-55.585875344009835 -22.628004528078403 C-55.10864617448697 -23.06141143304717, -54.631417004964106 -23.494818338015936, -54.091069452195356 -23.98554768862771 M-54.091069452195356 -23.98554768862771 C-53.527343723373136 -24.435103955991774, -52.96361799455091 -24.884660223355837, -52.51235671047331 -25.244529088840626 M-54.091069452195356 -23.98554768862771 C-53.63521840586584 -24.3490767673697, -53.17936735953633 -24.71260584611169, -52.51235671047331 -25.244529088840626 M-52.51235671047331 -25.244529088840626 C-51.951232988330304 -25.635944706753154, -51.390109266187295 -26.027360324665686, -50.856224388132304 -26.39977530409297 M-52.51235671047331 -25.244529088840626 C-52.00505668465921 -25.598399626184374, -51.497756658845105 -25.95227016352812, -50.856224388132304 -26.39977530409297 M-50.856224388132304 -26.39977530409297 C-50.42470800410898 -26.66136307195966, -49.99319162008565 -26.92295083982635, -49.12947788812404 -27.446539179886763 M-50.856224388132304 -26.39977530409297 C-50.37665176526807 -26.69049504635482, -49.89707914240385 -26.981214788616672, -49.12947788812404 -27.446539179886763 M-49.12947788812404 -27.446539179886763 C-48.54439020813646 -27.75177904776974, -47.95930252814888 -28.057018915652716, -47.33921278220309 -28.3805193389262 M-49.12947788812404 -27.446539179886763 C-48.6056898998863 -27.719799037848173, -48.081901911648565 -27.993058895809586, -47.33921278220309 -28.3805193389262 M-47.33921278220309 -28.3805193389262 C-46.603717530515546 -28.706101269156818, -45.868222278828 -29.031683199387437, -45.4927856537003 -29.19787785639968 M-47.33921278220309 -28.3805193389262 C-46.73192312416224 -28.649348455933236, -46.1246334661214 -28.91817757294027, -45.4927856537003 -29.19787785639968 M-45.4927856537003 -29.19787785639968 C-44.89912517966921 -29.416350398580388, -44.305464705638116 -29.634822940761094, -43.59778386774408 -29.895256030836055 M-45.4927856537003 -29.19787785639968 C-44.87313510440129 -29.4259149865286, -44.25348455510228 -29.653952116657525, -43.59778386774408 -29.895256030836055 M-43.59778386774408 -29.895256030836055 C-43.14525718598907 -30.029563574619917, -42.692730504234056 -30.16387111840378, -41.66199439314951 -30.469788185729417 M-43.59778386774408 -29.895256030836055 C-43.085209885262 -30.047385298280997, -42.57263590277993 -30.199514565725938, -41.66199439314951 -30.469788185729417 M-41.66199439314951 -30.469788185729417 C-41.15823047524198 -30.584769012625028, -40.654466557334445 -30.699749839520635, -39.69337180409324 -30.919113445218553 M-41.66199439314951 -30.469788185729417 C-41.184875843318274 -30.57868738123889, -40.70775729348703 -30.687586576748362, -39.69337180409324 -30.919113445218553 M-39.69337180409324 -30.919113445218553 C-39.070671513582994 -31.019786799075373, -38.44797122307275 -31.120460152932196, -37.70000559306196 -31.24138543543225 M-39.69337180409324 -30.919113445218553 C-39.29227461323482 -30.983959728481373, -38.891177422376394 -31.04880601174419, -37.70000559306196 -31.24138543543225 M-37.70000559306196 -31.24138543543225 C-37.055328034368124 -31.303576704181243, -36.41065047567429 -31.36576797293024, -35.69008692939246 -31.435279871635593 M-37.70000559306196 -31.24138543543225 C-37.128381521578085 -31.29652932212977, -36.55675745009421 -31.351673208827293, -35.69008692939246 -31.435279871635593 M-35.69008692939246 -31.435279871635593 C-35.11598835524569 -31.453690095493396, -34.54188978109892 -31.4721003193512, -33.67187500000001 -31.5 M-35.69008692939246 -31.435279871635593 C-34.91612227025032 -31.460099411823464, -34.14215761110818 -31.48491895201133, -33.67187500000001 -31.5 M-33.67187500000001 -31.5 C-33.67187500000001 -31.5, -33.671875 -31.5, -33.671875 -31.5 M-33.67187500000001 -31.5 C-33.67187500000001 -31.5, -33.671875 -31.5, -33.671875 -31.5" stroke="#888" stroke-width="1.3" fill="none" stroke-dasharray="5 5" style="fill:#fafafa !important;stroke:#888 !important;stroke-dasharray:5 5 !important"/></g><g class="label" style="color:#666 !important" transform="translate(-49.796875, -24)"><rect/><foreignObject width="99.59375" height="48"><div style="color: rgb(102, 102, 102) !important; display: table-cell; white-space: nowrap; line-height: 1.5; max-width: 200px; text-align: center;" xmlns="http://www.w3.org/1999/xhtml"><span style="color:#666 !important" class="nodeLabel"><p>S-Miles Cloud<br /><i>optional</i></p></span></div></foreignObject></g></g><g class="node default terminator" id="my-svg-flowchart-term_user-1" data-look="classic" transform="translate(61.5625, 120.37109375)"><rect class="basic label-container" style="fill:#fafafa !important;stroke:#444 !important" x="-53.5625" y="-27" width="107.125" height="54"/><g class="label" style="" transform="translate(-23.5625, -12)"><rect/><foreignObject width="47.125" height="24"><div xmlns="http://www.w3.org/1999/xhtml" style="display: table-cell; white-space: nowrap; line-height: 1.5; max-width: 200px; text-align: center;"><span class="nodeLabel"><p>Owner</p></span></div></foreignObject></g></g><g class="node default terminator" id="my-svg-flowchart-term_battery_system-2" data-look="classic" transform="translate(1386.4765625, 205.22463035583496)"><rect class="basic label-container" style="fill:#fafafa !important;stroke:#444 !important" x="-84.2421875" y="-27" width="168.484375" height="54"/><g class="label" style="" transform="translate(-54.2421875, -12)"><rect/><foreignObject width="108.484375" height="24"><div xmlns="http://www.w3.org/1999/xhtml" style="display: table-cell; white-space: nowrap; line-height: 1.5; max-width: 200px; text-align: center;"><span class="nodeLabel"><p>Battery System</p></span></div></foreignObject></g></g><g class="node default grid" id="my-svg-flowchart-term_grid-3" data-look="classic" transform="translate(964.703125, 227.22463035583496)"><rect class="basic label-container" style="fill:#fef0ef !important;stroke:#e74c3c !important" x="-66.890625" y="-27" width="133.78125" height="54"/><g class="label" style="" transform="translate(-36.890625, -12)"><rect/><foreignObject width="73.78125" height="24"><div xmlns="http://www.w3.org/1999/xhtml" style="display: table-cell; white-space: nowrap; line-height: 1.5; max-width: 200px; text-align: center;"><span class="nodeLabel"><p>Utility Grid</p></span></div></foreignObject></g></g><g class="node default terminator" id="my-svg-flowchart-term_inverters-4" data-look="classic" transform="translate(1386.4765625, 413.22463035583496)"><rect class="basic label-container" style="fill:#fafafa !important;stroke:#444 !important" x="-82.0234375" y="-27" width="164.046875" height="54"/><g class="label" style="" transform="translate(-52.0234375, -12)"><rect/><foreignObject width="104.046875" height="24"><div xmlns="http://www.w3.org/1999/xhtml" style="display: table-cell; white-space: nowrap; line-height: 1.5; max-width: 200px; text-align: center;"><span class="nodeLabel"><p>Solar Inverters</p></span></div></foreignObject></g></g><g class="node default terminator" id="my-svg-flowchart-term_meter-5" data-look="classic" transform="translate(1386.4765625, 309.22463035583496)"><rect class="basic label-container" style="fill:#fafafa !important;stroke:#444 !important" x="-90.0234375" y="-27" width="180.046875" height="54"/><g class="label" style="" transform="translate(-60.0234375, -12)"><rect/><foreignObject width="120.046875" height="24"><div xmlns="http://www.w3.org/1999/xhtml" style="display: table-cell; white-space: nowrap; line-height: 1.5; max-width: 200px; text-align: center;"><span class="nodeLabel"><p>Net Power Meter</p></span></div></foreignObject></g></g><g class="node default proc" id="my-svg-flowchart-proc_acquire_telemetry-6" data-look="classic" transform="translate(1780.1953125, 257.22463035583496)"><circle class="basic label-container" style="fill:#cfe5ff !important;stroke:#2a70c2 !important" r="71.3828125" cx="0" cy="0"/><g class="label" style="color:#000 !important" transform="translate(-63.8828125, -12)"><rect/><foreignObject width="127.765625" height="24"><div style="color: rgb(0, 0, 0) !important; display: table-cell; white-space: nowrap; line-height: 1.5; max-width: 200px; text-align: center;" xmlns="http://www.w3.org/1999/xhtml"><span style="color:#000 !important" class="nodeLabel"><p>Acquire Telemetry</p></span></div></foreignObject></g></g><g class="node default brain" id="my-svg-flowchart-proc_compute_balance-7" data-look="classic" transform="translate(633.3984375, 388.59963035583496)"><circle class="basic label-container" style="fill:#7fbff5 !important;stroke:#1f5a99 !important" r="69.7421875" cx="0" cy="0"/><g class="label" style="color:#000 !important;font-weight:bold !important" transform="translate(-62.2421875, -12)"><rect/><foreignObject width="124.484375" height="24"><div style="color: rgb(0, 0, 0) !important; font-weight: bold !important; display: table-cell; white-space: nowrap; line-height: 1.5; max-width: 200px; text-align: center;" xmlns="http://www.w3.org/1999/xhtml"><span style="color:#000 !important;font-weight:bold !important" class="nodeLabel"><p>Energy Manager</p></span></div></foreignObject></g></g><g class="node default proc" id="my-svg-flowchart-proc_dispatch_commands-8" data-look="classic" transform="translate(964.703125, 388.59963035583496)"><circle class="basic label-container" style="fill:#cfe5ff !important;stroke:#2a70c2 !important" r="81.75" cx="0" cy="0"/><g class="label" style="color:#000 !important" transform="translate(-74.25, -12)"><rect/><foreignObject width="148.5" height="24"><div style="color: rgb(0, 0, 0) !important; display: table-cell; white-space: nowrap; line-height: 1.5; max-width: 200px; text-align: center;" xmlns="http://www.w3.org/1999/xhtml"><span style="color:#000 !important" class="nodeLabel"><p>Dispatch Commands</p></span></div></foreignObject></g></g><g class="node default proc" id="my-svg-flowchart-proc_serve_ui-9" data-look="classic" transform="translate(2333.359375, 52)"><circle class="basic label-container" style="fill:#cfe5ff !important;stroke:#2a70c2 !important" r="38.625" cx="0" cy="0"/><g class="label" style="color:#000 !important" transform="translate(-31.125, -12)"><rect/><foreignObject width="62.25" height="24"><div style="color: rgb(0, 0, 0) !important; display: table-cell; white-space: nowrap; line-height: 1.5; max-width: 200px; text-align: center;" xmlns="http://www.w3.org/1999/xhtml"><span style="color:#000 !important" class="nodeLabel"><p>Serve UI</p></span></div></foreignObject></g></g><g class="node default proc" id="my-svg-flowchart-proc_handle_user_input-10" data-look="classic" transform="translate(354.9453125, 225.59572410583496)"><circle class="basic label-container" style="fill:#cfe5ff !important;stroke:#2a70c2 !important" r="52.8671875" cx="0" cy="0"/><g class="label" style="color:#000 !important" transform="translate(-45.3671875, -12)"><rect/><foreignObject width="90.734375" height="24"><div style="color: rgb(0, 0, 0) !important; display: table-cell; white-space: nowrap; line-height: 1.5; max-width: 200px; text-align: center;" xmlns="http://www.w3.org/1999/xhtml"><span style="color:#000 !important" class="nodeLabel"><p>Handle Input</p></span></div></foreignObject></g></g><g class="node default optional" id="my-svg-flowchart-proc_cloud_forward-11" data-look="classic" transform="translate(2333.359375, 242.296875)"><circle class="basic label-container" style="fill:#e6f0ff !important;stroke:#888 !important;stroke-dasharray:3 3 !important" r="59.96875" cx="0" cy="0"/><g class="label" style="" transform="translate(-52.46875, -12)"><rect/><foreignObject width="104.9375" height="24"><div xmlns="http://www.w3.org/1999/xhtml" style="display: table-cell; white-space: nowrap; line-height: 1.5; max-width: 200px; text-align: center;"><span class="nodeLabel"><p>Cloud Forward</p></span></div></foreignObject></g></g><g class="node default store" id="my-svg-flowchart-store_system_state-12" data-look="classic" transform="translate(2074.046875, 204.03322410583496)"><path d="M0,11.710963455149502 a55.078125,11.710963455149502 0,0,0 110.15625,0 a55.078125,11.710963455149502 0,0,0 -110.15625,0 l0,50.7109634551495 a55.078125,11.710963455149502 0,0,0 110.15625,0 l0,-50.7109634551495" class="basic label-container outer-path" style="fill:#fff5cc !important;stroke:#b89800 !important" transform="translate(-55.078125, -37.06644518272425)"/><g class="label" style="" transform="translate(-47.578125, -2)"><rect/><foreignObject width="95.15625" height="24"><div xmlns="http://www.w3.org/1999/xhtml" style="display: table-cell; white-space: nowrap; line-height: 1.5; max-width: 200px; text-align: center;"><span class="nodeLabel"><p>System State</p></span></div></foreignObject></g></g></g></g></g><defs><filter id="my-svg-drop-shadow" height="130%" width="130%"><feDropShadow dx="4" dy="4" stdDeviation="0" flood-opacity="0.06" flood-color="#000000"/></filter></defs><defs><filter id="my-svg-drop-shadow-small" height="150%" width="150%"><feDropShadow dx="2" dy="2" stdDeviation="0" flood-opacity="0.06" flood-color="#000000"/></filter></defs></svg>