<svg id="my-svg" width="100%" xmlns="http://www.w3.org/2000/svg" xmlns:xlink="http://www.w3.org/1999/xlink" class="flowchart" style="max-width: 2520.25px; background-color: white;" viewBox="0 0 2520.25 723.396484375" role="graphics-document document" aria-roledescription="flowchart-v2"><style>#my-svg{font-family:"trebuchet ms",verdana,arial,sans-serif;font-size:16px;fill:#333;}@keyframes edge-animation-frame{from{stroke-dashoffset:0;}}@keyframes dash{to{stroke-dashoffset:0;}}#my-svg .edge-animation-slow{stroke-dasharray:9,5!important;stroke-dashoffset:900;animation:dash 50s linear infinite;stroke-linecap:round;}#my-svg .edge-animation-fast{stroke-dasharray:9,5!important;stroke-dashoffset:900;animation:dash 20s linear infinite;stroke-linecap:round;}#my-svg .error-icon{fill:#552222;}#my-svg .error-text{fill:#552222;stroke:#552222;}#my-svg .edge-thickness-normal{stroke-width:1px;}#my-svg .edge-thickness-thick{stroke-width:3.5px;}#my-svg .edge-pattern-solid{stroke-dasharray:0;}#my-svg .edge-thickness-invisible{stroke-width:0;fill:none;}#my-svg .edge-pattern-dashed{stroke-dasharray:3;}#my-svg .edge-pattern-dotted{stroke-dasharray:2;}#my-svg .marker{fill:#333333;stroke:#333333;}#my-svg .marker.cross{stroke:#333333;}#my-svg svg{font-family:"trebuchet ms",verdana,arial,sans-serif;font-size:16px;}#my-svg p{margin:0;}#my-svg .label{font-family:"trebuchet ms",verdana,arial,sans-serif;color:#333;}#my-svg .cluster-label text{fill:#333;}#my-svg .cluster-label span{color:#333;}#my-svg .cluster-label span p{background-color:transparent;}#my-svg .label text,#my-svg span{fill:#333;color:#333;}#my-svg .node rect,#my-svg .node circle,#my-svg .node ellipse,#my-svg .node polygon,#my-svg .node path{fill:#ECECFF;stroke:#9370DB;stroke-width:1px;}#my-svg .rough-node .label text,#my-svg .node .label text,#my-svg .image-shape .label,#my-svg .icon-shape .label{text-anchor:middle;}#my-svg .node .katex path{fill:#000;stroke:#000;stroke-width:1px;}#my-svg .rough-node .label,#my-svg .node .label,#my-svg .image-shape .label,#my-svg .icon-shape .label{text-align:center;}#my-svg .node.clickable{cursor:pointer;}#my-svg .root .anchor path{fill:#333333!important;stroke-width:0;stroke:#333333;}#my-svg .arrowheadPath{fill:#333333;}#my-svg .edgePath .path{stroke:#333333;stroke-width:1px;}#my-svg .flowchart-link{stroke:#333333;fill:none;}#my-svg .edgeLabel{background-color:rgba(232,232,232, 0.8);text-align:center;}#my-svg .edgeLabel p{background-color:rgba(232,232,232, 0.8);}#my-svg .edgeLabel rect{opacity:0.5;background-color:rgba(232,232,232, 0.8);fill:rgba(232,232,232, 0.8);}#my-svg .labelBkg{background-color:rgba(232, 232, 232, 0.5);}#my-svg .cluster rect{fill:#ffffde;stroke:#aaaa33;stroke-width:1px;}#my-svg .cluster text{fill:#333;}#my-svg .cluster span{color:#333;}#my-svg div.mermaidTooltip{position:absolute;text-align:center;max-width:200px;padding:2px;font-family:"trebuchet ms",verdana,arial,sans-serif;font-size:12px;background:hsl(80, 100%, 96.2745098039%);border:1px solid #aaaa33;border-radius:2px;pointer-events:none;z-index:100;}#my-svg .flowchartTitleText{text-anchor:middle;font-size:18px;fill:#333;}#my-svg rect.text{fill:none;stroke-width:0;}#my-svg .icon-shape,#my-svg .image-shape{background-color:rgba(232,232,232, 0.8);text-align:center;}#my-svg .icon-shape p,#my-svg .image-shape p{background-color:rgba(232,232,232, 0.8);padding:2px;}#my-svg .icon-shape .label rect,#my-svg .image-shape .label rect{opacity:0.5;background-color:rgba(232,232,232, 0.8);fill:rgba(232,232,232, 0.8);}#my-svg .label-icon{display:inline-block;height:1em;overflow:visible;vertical-align:-0.125em;}#my-svg .node .label-icon path{fill:currentColor;stroke:revert;stroke-width:revert;}#my-svg .node .neo-node{stroke:#9370DB;}#my-svg [data-look="neo"].node rect,#my-svg [data-look="neo"].cluster rect,#my-svg [data-look="neo"].node polygon{stroke:#9370DB;filter:drop-shadow(1px 2px 2px rgba(185, 185, 185, 1));}#my-svg [data-look="neo"].node path{stroke:#9370DB;stroke-width:1px;}#my-svg [data-look="neo"].node .outer-path{filter:drop-shadow(1px 2px 2px rgba(185, 185, 185, 1));}#my-svg [data-look="neo"].node .neo-line path{stroke:#9370DB;filter:none;}#my-svg [data-look="neo"].node circle{stroke:#9370DB;filter:drop-shadow(1px 2px 2px rgba(185, 185, 185, 1));}#my-svg [data-look="neo"].node circle .state-start{fill:#000000;}#my-svg [data-look="neo"].icon-shape .icon{fill:#9370DB;filter:drop-shadow(1px 2px 2px rgba(185, 185, 185, 1));}#my-svg [data-look="neo"].icon-shape .icon-neo path{stroke:#9370DB;filter:drop-shadow(1px 2px 2px rgba(185, 185, 185, 1));}#my-svg :root{--mermaid-font-family:"trebuchet ms",verdana,arial,sans-serif;}#my-svg .proc&gt;*{fill:rgb(207, 229, 255)!important;stroke:rgb(42, 112, 194)!important;color:rgb(0, 0, 0)!important;}#my-svg .proc span{fill:rgb(207, 229, 255)!important;stroke:rgb(42, 112, 194)!important;color:rgb(0, 0, 0)!important;}#my-svg .proc tspan{fill:rgb(0, 0, 0)!important;}#my-svg .brain&gt;*{fill:rgb(127, 191, 245)!important;stroke:rgb(31, 90, 153)!important;color:rgb(0, 0, 0)!important;font-weight:bold!important;}#my-svg .brain span{fill:rgb(127, 191, 245)!important;stroke:rgb(31, 90, 153)!important;color:rgb(0, 0, 0)!important;font-weight:bold!important;}#my-svg .brain tspan{fill:rgb(0, 0, 0)!important;}#my-svg .optional&gt;*{fill:rgb(230, 240, 255)!important;stroke:rgb(136, 136, 136)!important;stroke-dasharray:3,3!important;}#my-svg .optional span{fill:rgb(230, 240, 255)!important;stroke:rgb(136, 136, 136)!important;stroke-dasharray:3,3!important;}#my-svg .terminator&gt;*{fill:rgb(250, 250, 250)!important;stroke:rgb(68, 68, 68)!important;}#my-svg .terminator span{fill:rgb(250, 250, 250)!important;stroke:rgb(68, 68, 68)!important;}#my-svg .store&gt;*{fill:rgb(255, 245, 204)!important;stroke:rgb(184, 152, 0)!important;}#my-svg .store span{fill:rgb(255, 245, 204)!important;stroke:rgb(184, 152, 0)!important;}#my-svg .grid&gt;*{fill:rgb(254, 240, 239)!important;stroke:rgb(231, 76, 60)!important;}#my-svg .grid span{fill:rgb(254, 240, 239)!important;stroke:rgb(231, 76, 60)!important;}#my-svg .termopt&gt;*{fill:rgb(250, 250, 250)!important;stroke:rgb(136, 136, 136)!important;stroke-dasharray:5,5!important;color:rgb(102, 102, 102)!important;}#my-svg .termopt span{fill:rgb(250, 250, 250)!important;stroke:rgb(136, 136, 136)!important;stroke-dasharray:5,5!important;color:rgb(102, 102, 102)!important;}#my-svg .termopt tspan{fill:rgb(102, 102, 102)!important;}</style><g><marker id="my-svg_flowchart-v2-pointEnd" class="marker flowchart-v2" viewBox="0 0 10 10" refX="5" refY="5" markerUnits="userSpaceOnUse" markerWidth="8" markerHeight="8" orient="auto"><path d="M 0 0 L 10 5 L 0 10 z" class="arrowMarkerPath" style="stroke-width: 1; stroke-dasharray: 1, 0;"/></marker><marker id="my-svg_flowchart-v2-pointStart" class="marker flowchart-v2" viewBox="0 0 10 10" refX="4.5" refY="5" markerUnits="userSpaceOnUse" markerWidth="8" markerHeight="8" orient="auto"><path d="M 0 5 L 10 10 L 10 0 z" class="arrowMarkerPath" style="stroke-width: 1; stroke-dasharray: 1, 0;"/></marker><marker id="my-svg_flowchart-v2-pointEnd-margin" class="marker flowchart-v2" viewBox="0 0 11.5 14" refX="11.5" refY="7" markerUnits="userSpaceOnUse" markerWidth="10.5" markerHeight="14" orient="auto"><path d="M 0 0 L 11.5 7 L 0 14 z" class="arrowMarkerPath" style="stroke-width: 0; stroke-dasharray: 1, 0;"/></marker><marker id="my-svg_flowchart-v2-pointStart-margin" class="marker flowchart-v2" viewBox="0 0 11.5 14" refX="1" refY="7" markerUnits="userSpaceOnUse" markerWidth="11.5" markerHeight="14" orient="auto"><polygon points="0,7 11.5,14 11.5,0" class="arrowMarkerPath" style="stroke-width: 0; stroke-dasharray: 1, 0;"/></marker><marker id="my-svg_flowchart-v2-circleEnd" class="marker flowchart-v2" viewBox="0 0 10 10" refX="11" refY="5" markerUnits="userSpaceOnUse" markerWidth="11" markerHeight="11" orient="auto"><circle cx="5" cy="5" r="5" class="arrowMarkerPath" style="stroke-width: 1; stroke-dasharray: 1, 0;"/></marker><marker id="my-svg_flowchart-v2-circleStart" class="marker flowchart-v2" viewBox="0 0 10 10" refX="-1" refY="5" markerUnits="userSpaceOnUse" markerWidth="11" markerHeight="11" orient="auto"><circle cx="5" cy="5" r="5" class="arrowMarkerPath" style="stroke-width: 1; stroke-dasharray: 1, 0;"/></marker><marker id="my-svg_flowchart-v2-circleEnd-margin" class="marker flowchart-v2" viewBox="0 0 10 10" refY="5" refX="12.25" markerUnits="userSpaceOnUse" markerWidth="14" markerHeight="14" orient="auto"><circle cx="5" cy="5" r="5" class="arrowMarkerPath" style="stroke-width: 0; stroke-dasharray: 1, 0;"/></marker><marker id="my-svg_flowchart-v2-circleStart-margin" class="marker flowchart-v2" viewBox="0 0 10 10" refX="-2" refY="5" markerUnits="userSpaceOnUse" markerWidth="14" markerHeight="14" orient="auto"><circle cx="5" cy="5" r="5" class="arrowMarkerPath" style="stroke-width: 0; stroke-dasharray: 1, 0;"/></marker><marker id="my-svg_flowchart-v2-crossEnd" class="marker cross flowchart-v2" viewBox="0 0 11 11" refX="12" refY="5.2" markerUnits="userSpaceOnUse" markerWidth="11" markerHeight="11" orient="auto"><path d="M 1,1 l 9,9 M 10,1 l -9,9" class="arrowMarkerPath" style="stroke-width: 2; stroke-dasharray: 1, 0;"/></marker><marker id="my-svg_flowchart-v2-crossStart" class="marker cross flowchart-v2" viewBox="0 0 11 11" refX="-1" refY="5.2" markerUnits="userSpaceOnUse" markerWidth="11" markerHeight="11" orient="auto"><path d="M 1,1 l 9,9 M 10,1 l -9,9" class="arrowMarkerPath" style="stroke-width: 2; stroke-dasharray: 1, 0;"/></marker><marker id="my-svg_flowchart-v2-crossEnd-margin" class="marker cross flowchart-v2" viewBox="0 0 15 15" refX="17.7" refY="7.5" markerUnits="userSpaceOnUse" markerWidth="12" markerHeight="12" orient="auto"><path d="M 1,1 L 14,14 M 1,14 L 14,1" class="arrowMarkerPath" style="stroke-width: 2.5;"/></marker><marker id="my-svg_flowchart-v2-crossStart-margin" class="marker cross flowchart-v2" viewBox="0 0 15 15" refX="-3.5" refY="7.5" markerUnits="userSpaceOnUse" markerWidth="12" markerHeight="12" orient="auto"><path d="M 1,1 L 14,14 M 1,14 L 14,1" class="arrowMarkerPath" style="stroke-width: 2.5; stroke-dasharray: 1, 0;"/></marker><g class="root"><g class="clusters"/><g class="edgePaths"><path d="M355.84,433.688L377.864,441.719C399.888,449.751,443.936,465.815,485.024,469.107C526.112,472.4,564.24,462.921,583.304,458.181L602.368,453.442" id="my-svg-L_term_inverters_proc_acquire_telemetry_0" class="edge-thickness-normal edge-pattern-solid edge-thickness-normal edge-pattern-solid flowchart-link" style=";" data-edge="true" data-et="edge" data-id="L_term_inverters_proc_acquire_telemetry_0" data-points="W3sieCI6MzU1Ljg0MDQyOTYxNjQ3MzU2LCJ5Ijo0MzMuNjg3NX0seyJ4Ijo0ODcuOTg0Mzc1LCJ5Ijo0ODEuODc4OTA2MjV9LHsieCI6NjA2LjI0OTQxODkzMDU3ODksInkiOjQ1Mi40NzY0NTc1MDI3NTE3fV0=" data-look="classic" marker-end="url(#my-svg_flowchart-v2-pointEnd)"/><path d="M1639.243,307.273L1618.132,302.947C1597.021,298.62,1554.8,289.966,1499.887,285.639C1444.974,281.313,1377.37,281.313,1318.577,281.313C1259.784,281.313,1209.802,281.313,1158.34,281.313C1106.878,281.313,1053.935,281.313,999.065,281.313C944.195,281.313,887.398,281.313,833.154,281.313C778.909,281.313,727.216,281.313,670.113,281.313C613.01,281.313,550.497,281.313,492.847,297.362C435.198,313.411,382.411,345.51,356.017,361.56L329.624,377.609" id="my-svg-L_proc_dispatch_commands_term_inverters_0" class="edge-thickness-normal edge-pattern-solid edge-thickness-normal edge-pattern-solid flowchart-link" style=";" data-edge="true" data-et="edge" data-id="L_proc_dispatch_commands_term_inverters_0" data-points="W3sieCI6MTYzOS4yNDI5MTcwNDE0NDU1LCJ5IjozMDcuMjczNDIxNzA2MTk3MTV9LHsieCI6MTUxMi41NzgxMjUsInkiOjI4MS4zMTI1fSx7IngiOjEzMDkuNzY1NjI1LCJ5IjoyODEuMzEyNX0seyJ4IjoxMTU5LjgyMDMxMjUsInkiOjI4MS4zMTI1fSx7IngiOjEwMDAuOTkyMTg3NSwieSI6MjgxLjMxMjV9LHsieCI6ODMwLjYwMTU2MjUsInkiOjI4MS4zMTI1fSx7IngiOjY3NS41MjM0Mzc1LCJ5IjoyODEuMzEyNX0seyJ4Ijo0ODcuOTg0Mzc1LCJ5IjoyODEuMzEyNX0seyJ4IjozMjYuMjA2Mjk1MTc2OTY5MSwieSI6Mzc5LjY4NzV9XQ==" data-look="classic" marker-end="url(#my-svg_flowchart-v2-pointEnd)"/><path d="M350.901,296.938L373.748,305.865C396.596,314.793,442.29,332.648,484.945,350.527C527.599,368.406,567.214,386.308,587.022,395.26L606.829,404.211" id="my-svg-L_term_meter_proc_acquire_telemetry_0" class="edge-thickness-normal edge-pattern-solid edge-thickness-normal edge-pattern-solid flowchart-link" style=";" data-edge="true" data-et="edge" data-id="L_term_meter_proc_acquire_telemetry_0" data-points="W3sieCI6MzUwLjkwMTEyMzg2MzYzNjM3LCJ5IjoyOTYuOTM3NX0seyJ4Ijo0ODcuOTg0Mzc1LCJ5IjozNTAuNTAzOTA2MjV9LHsieCI6NjEwLjQ3NDM5MDg4ODMwNjUsInkiOjQwNS44NTc4NjEzNTc1MzM4fV0=" data-look="classic" marker-end="url(#my-svg_flowchart-v2-pointEnd)"/><path d="M2051.078,194.054L2030.245,190.868C2009.411,187.682,1967.745,181.31,1912.453,178.124C1857.161,174.938,1788.245,174.938,1719.328,174.938C1650.411,174.938,1581.495,174.938,1513.234,174.938C1444.974,174.938,1377.37,174.938,1318.577,174.938C1259.784,174.938,1209.802,174.938,1158.34,174.938C1106.878,174.938,1053.935,174.938,999.065,174.938C944.195,174.938,887.398,174.938,839.584,207.53C791.769,240.122,752.937,305.307,733.52,337.9L714.104,370.492" id="my-svg-L_term_battery_system_proc_acquire_telemetry_0" class="edge-thickness-normal edge-pattern-solid edge-thickness-normal edge-pattern-solid flowchart-link" style=";" data-edge="true" data-et="edge" data-id="L_term_battery_system_proc_acquire_telemetry_0" data-points="W3sieCI6MjA1MS4wNzgxMjUsInkiOjE5NC4wNTQxMDM4MTU4NTMzNX0seyJ4IjoxOTI2LjA3ODEyNSwieSI6MTc0LjkzNzV9LHsieCI6MTcxOS4zMjgxMjUsInkiOjE3NC45Mzc1fSx7IngiOjE1MTIuNTc4MTI1LCJ5IjoxNzQuOTM3NX0seyJ4IjoxMzA5Ljc2NTYyNSwieSI6MTc0LjkzNzV9LHsieCI6MTE1OS44MjAzMTI1LCJ5IjoxNzQuOTM3NX0seyJ4IjoxMDAwLjk5MjE4NzUsInkiOjE3NC45Mzc1fSx7IngiOjgzMC42MDE1NjI1LCJ5IjoxNzQuOTM3NX0seyJ4Ijo3MTIuMDU2ODM2NzExNDQzMiwieSI6MzczLjkyODQwODU5NjM1Mjk0fV0=" data-look="classic" marker-end="url(#my-svg_flowchart-v2-pointEnd)"/><path d="M1801.078,323.688L1821.911,323.688C1842.745,323.688,1884.411,323.688,1931.471,309.054C1978.531,294.421,2030.984,265.154,2057.211,250.52L2083.437,235.887" id="my-svg-L_proc_dispatch_commands_term_battery_system_0" class="edge-thickness-normal edge-pattern-solid edge-thickness-normal edge-pattern-solid flowchart-link" style=";" data-edge="true" data-et="edge" data-id="L_proc_dispatch_commands_term_battery_system_0" data-points="W3sieCI6MTgwMS4wNzgxMjUsInkiOjMyMy42ODc1fSx7IngiOjE5MjYuMDc4MTI1LCJ5IjozMjMuNjg3NX0seyJ4IjoyMDg2LjkzMDI1NjI5MDE1LCJ5IjoyMzMuOTM3NX1d" data-look="classic" marker-end="url(#my-svg_flowchart-v2-pointEnd)"/><path d="M2182.211,676.772L2204.016,676.772C2225.82,676.772,2269.43,676.772,2307.741,665.759C2346.052,654.746,2379.065,632.72,2395.571,621.707L2412.078,610.694" id="my-svg-L_term_user_proc_handle_user_input_0" class="edge-thickness-normal edge-pattern-solid edge-thickness-normal edge-pattern-solid flowchart-link" style=";" data-edge="true" data-et="edge" data-id="L_term_user_proc_handle_user_input_0" data-points="W3sieCI6MjE4Mi4yMTA5Mzc1LCJ5Ijo2NzYuNzcxNTA1MzU1ODM1fSx7IngiOjIzMTMuMDM5MDYyNSwieSI6Njc2Ljc3MTUwNTM1NTgzNX0seyJ4IjoyNDE1LjQwNTIxODI4NzU5OTQsInkiOjYwOC40NzQxMzQ2MjIwNDQ1fV0=" data-look="classic" marker-end="url(#my-svg_flowchart-v2-pointEnd)"/><path d="M1757.953,676.772L1785.974,676.772C1813.995,676.772,1870.036,676.772,1924.449,676.772C1978.862,676.772,2031.646,676.772,2058.038,676.772L2084.43,676.772" id="my-svg-L_proc_serve_ui_term_user_0" class="edge-thickness-normal edge-pattern-solid edge-thickness-normal edge-pattern-solid flowchart-link" style=";" data-edge="true" data-et="edge" data-id="L_proc_serve_ui_term_user_0" data-points="W3sieCI6MTc1Ny45NTMxMjUsInkiOjY3Ni43NzE1MDUzNTU4MzV9LHsieCI6MTkyNi4wNzgxMjUsInkiOjY3Ni43NzE1MDUzNTU4MzV9LHsieCI6MjA4OC40Mjk2ODc1LCJ5Ijo2NzYuNzcxNTA1MzU1ODM1fV0=" data-look="classic" marker-end="url(#my-svg_flowchart-v2-pointEnd)"/><path d="M1369.734,67.969L1393.542,67.969C1417.349,67.969,1464.964,67.969,1511.787,68.05C1558.61,68.131,1604.641,68.293,1627.657,68.374L1650.672,68.455" id="my-svg-L_proc_cloud_forward_term_smiles_cloud_0" class="edge-thickness-normal edge-pattern-dotted edge-thickness-normal edge-pattern-solid flowchart-link" style=";" data-edge="true" data-et="edge" data-id="L_proc_cloud_forward_term_smiles_cloud_0" data-points="W3sieCI6MTM2OS43MzQzNzUsInkiOjY3Ljk2ODc1fSx7IngiOjE1MTIuNTc4MTI1LCJ5Ijo2Ny45Njg3NX0seyJ4IjoxNjU0LjY3MjQzMTk0NTgwMywieSI6NjguNDY4NzV9XQ==" data-look="classic" marker-end="url(#my-svg_flowchart-v2-pointEnd)"/><path d="M95.734,314.654L107.575,329.993C119.416,345.332,143.099,376.01,160.44,391.349C177.781,406.688,188.781,406.688,194.281,406.688L199.781,406.688" id="my-svg-L_term_grid_term_inverters_0" class="edge-thickness-normal edge-pattern-solid edge-thickness-normal edge-pattern-solid flowchart-link" style=";" data-edge="true" data-et="edge" data-id="L_term_grid_term_inverters_0" data-points="W3sieCI6OTUuNzMzOTM5MDcxNjU4MjYsInkiOjMxNC42NTQyNzU4OTQxNjUwNH0seyJ4IjoxNjYuNzgxMjUsInkiOjQwNi42ODc1fSx7IngiOjE5OS43ODEyNSwieSI6NDA2LjY4NzV9XQ==" data-look="classic"/><path d="M105.628,260.654L115.82,251.701C126.013,242.749,146.397,224.843,175.76,215.89C205.122,206.938,243.464,206.938,296.997,206.938C350.531,206.938,419.258,206.938,484.878,206.938C550.497,206.938,613.01,206.938,670.113,206.938C727.216,206.938,778.909,206.938,833.154,206.938C887.398,206.938,944.195,206.938,999.065,206.938C1053.935,206.938,1106.878,206.938,1158.34,206.938C1209.802,206.938,1259.784,206.938,1318.577,206.938C1377.37,206.938,1444.974,206.938,1513.234,206.938C1581.495,206.938,1650.411,206.938,1719.328,206.938C1788.245,206.938,1857.161,206.938,1912.453,206.938C1967.745,206.938,2009.411,206.938,2030.245,206.938L2051.078,206.938" id="my-svg-L_term_grid_term_battery_system_0" class="edge-thickness-normal edge-pattern-solid edge-thickness-normal edge-pattern-solid flowchart-link" style=";" data-edge="true" data-et="edge" data-id="L_term_grid_term_battery_system_0" data-points="W3sieCI6MTA1LjYyODMxMDUzNzA1NzY0LCJ5IjoyNjAuNjU0Mjc1ODk0MTY1MDR9LHsieCI6MTY2Ljc4MTI1LCJ5IjoyMDYuOTM3NX0seyJ4IjoyODEuODA0Njg3NSwieSI6MjA2LjkzNzV9LHsieCI6NDg3Ljk4NDM3NSwieSI6MjA2LjkzNzV9LHsieCI6Njc1LjUyMzQzNzUsInkiOjIwNi45Mzc1fSx7IngiOjgzMC42MDE1NjI1LCJ5IjoyMDYuOTM3NX0seyJ4IjoxMDAwLjk5MjE4NzUsInkiOjIwNi45Mzc1fSx7IngiOjExNTkuODIwMzEyNSwieSI6MjA2LjkzNzV9LHsieCI6MTMwOS43NjU2MjUsInkiOjIwNi45Mzc1fSx7IngiOjE1MTIuNTc4MTI1LCJ5IjoyMDYuOTM3NX0seyJ4IjoxNzE5LjMyODEyNSwieSI6MjA2LjkzNzV9LHsieCI6MTkyNi4wNzgxMjUsInkiOjIwNi45Mzc1fSx7IngiOjIwNTEuMDc4MTI1LCJ5IjoyMDYuOTM3NX1d" data-look="classic"/><path d="M745.054,419.098L759.312,415.785C773.57,412.472,802.086,405.846,834.896,402.534C867.706,399.221,904.81,399.221,923.362,399.221L941.914,399.221" id="my-svg-L_proc_acquire_telemetry_store_system_state_0" class="edge-thickness-normal edge-pattern-solid edge-thickness-normal edge-pattern-solid flowchart-link" style=";" data-edge="true" data-et="edge" data-id="L_proc_acquire_telemetry_store_system_state_0" data-points="W3sieCI6NzQ1LjA1Mzk4MDIwMjk2NDEsInkiOjQxOS4wOTgxMTYyMDkyMzAzNH0seyJ4Ijo4MzAuNjAxNTYyNSwieSI6Mzk5LjIyMDY4MjE0NDE2NTA0fSx7IngiOjk0NS45MTQwNjI1LCJ5IjozOTkuMjIwNjgyMTQ0MTY1MDR9XQ==" data-look="classic" marker-end="url(#my-svg_flowchart-v2-pointEnd)"/><path d="M1034.289,433.905L1055.211,457.592C1076.133,481.28,1117.977,528.654,1151.599,552.342C1185.221,576.029,1210.622,576.029,1223.323,576.029L1236.023,576.029" id="my-svg-L_store_system_state_proc_compute_balance_0" class="edge-thickness-normal edge-pattern-solid edge-thickness-normal edge-pattern-solid flowchart-link" style=";" data-edge="true" data-et="edge" data-id="L_store_system_state_proc_compute_balance_0" data-points="W3sieCI6MTAzNC4yODkxNzIzNzk1NzE1LCJ5Ijo0MzMuOTA0ODE2MTkzMjAxNDR9LHsieCI6MTE1OS44MjAzMTI1LCJ5Ijo1NzYuMDI5MzE3ODU1ODM1fSx7IngiOjEyNDAuMDIzNDM3NSwieSI6NTc2LjAyOTMxNzg1NTgzNX1d" data-look="classic" marker-end="url(#my-svg_flowchart-v2-pointEnd)"/><path d="M1021.047,435.483L1044.176,478.365C1067.305,521.246,1113.563,607.009,1161.682,649.89C1209.802,692.772,1259.784,692.772,1318.577,692.772C1377.37,692.772,1444.974,692.772,1506.151,690.653C1567.329,688.534,1622.08,684.297,1649.455,682.179L1676.83,680.06" id="my-svg-L_store_system_state_proc_serve_ui_0" class="edge-thickness-normal edge-pattern-solid edge-thickness-normal edge-pattern-solid flowchart-link" style=";" data-edge="true" data-et="edge" data-id="L_store_system_state_proc_serve_ui_0" data-points="W3sieCI6MTAyMS4wNDcyOTg5Mjk5Njg5LCJ5Ijo0MzUuNDgzMTkxMjU4NzUwNn0seyJ4IjoxMTU5LjgyMDMxMjUsInkiOjY5Mi43NzE1MDUzNTU4MzV9LHsieCI6MTMwOS43NjU2MjUsInkiOjY5Mi43NzE1MDUzNTU4MzV9LHsieCI6MTUxMi41NzgxMjUsInkiOjY5Mi43NzE1MDUzNTU4MzV9LHsieCI6MTY4MC44MTgyNjkxOTMzOTc2LCJ5Ijo2NzkuNzUxNzExODUxMTQ2NH1d" data-look="classic" marker-end="url(#my-svg_flowchart-v2-pointEnd)"/><path d="M1018.765,362.781L1042.274,313.645C1065.783,264.51,1112.802,166.239,1150.64,117.104C1188.479,67.969,1217.138,67.969,1231.467,67.969L1245.797,67.969" id="my-svg-L_store_system_state_proc_cloud_forward_0" class="edge-thickness-normal edge-pattern-dotted edge-thickness-normal edge-pattern-solid flowchart-link" style=";" data-edge="true" data-et="edge" data-id="L_store_system_state_proc_cloud_forward_0" data-points="W3sieCI6MTAxOC43NjQ3NDYzODUyMDIxLCJ5IjozNjIuNzgwNjcxNzQ2ODk2NzZ9LHsieCI6MTE1OS44MjAzMTI1LCJ5Ijo2Ny45Njg3NX0seyJ4IjoxMjQ5Ljc5Njg3NSwieSI6NjcuOTY4NzV9XQ==" data-look="classic" marker-end="url(#my-svg_flowchart-v2-pointEnd)"/><path d="M1364.112,532.32L1388.856,512.419C1413.6,492.517,1463.089,452.715,1509.17,423.606C1555.251,394.496,1597.924,376.08,1619.26,366.873L1640.597,357.665" id="my-svg-L_proc_compute_balance_proc_dispatch_commands_0" class="edge-thickness-normal edge-pattern-solid edge-thickness-normal edge-pattern-solid flowchart-link" style=";" data-edge="true" data-et="edge" data-id="L_proc_compute_balance_proc_dispatch_commands_0" data-points="W3sieCI6MTM2NC4xMTE1ODY5MzkyMzc0LCJ5Ijo1MzIuMzIwMTc1MzU0NzA0OH0seyJ4IjoxNTEyLjU3ODEyNSwieSI6NDEyLjkxMjEzMDM1NTgzNDk2fSx7IngiOjE2NDQuMjY5NDIzNjI4MzUwNSwieSI6MzU2LjA3OTY4ODA3Njc4MDh9XQ==" data-look="classic" marker-end="url(#my-svg_flowchart-v2-pointEnd)"/><path d="M1358.56,526.199L1384.23,499.985C1409.9,473.77,1461.239,421.341,1507.405,390.643C1553.572,359.945,1594.565,350.978,1615.062,346.495L1635.559,342.011" id="my-svg-L_proc_compute_balance_proc_dispatch_commands_2" class="edge-thickness-normal edge-pattern-solid edge-thickness-normal edge-pattern-solid flowchart-link" style=";" data-edge="true" data-et="edge" data-id="L_proc_compute_balance_proc_dispatch_commands_2" data-points="W3sieCI6MTM1OC41NjAyNDc5MDgyNjc3LCJ5Ijo1MjYuMTk5MDMwOTU1OTQ3M30seyJ4IjoxNTEyLjU3ODEyNSwieSI6MzY4LjkxMjEzMDM1NTgzNDk2fSx7IngiOjE2MzkuNDY2MzkyNzc2MTYwNSwieSI6MzQxLjE1NjUwNzU5MDgwOTI3fV0=" data-look="classic" marker-end="url(#my-svg_flowchart-v2-pointEnd)"/><path d="M1376.787,595.319L1399.419,601.832C1422.051,608.346,1467.314,621.373,1517.445,633.522C1567.576,645.672,1622.573,656.943,1650.072,662.578L1677.571,668.214" id="my-svg-L_proc_compute_balance_proc_serve_ui_0" class="edge-thickness-normal edge-pattern-solid edge-thickness-normal edge-pattern-solid flowchart-link" style=";" data-edge="true" data-et="edge" data-id="L_proc_compute_balance_proc_serve_ui_0" data-points="W3sieCI6MTM3Ni43ODcyMTMyNTExMTIyLCJ5Ijo1OTUuMzE4Njc4MjgwMjY0M30seyJ4IjoxNTEyLjU3ODEyNSwieSI6NjM0LjQwMDQxMTYwNTgzNX0seyJ4IjoxNjgxLjQ4OTU2MDQ0NDAwMTQsInkiOjY2OS4wMTY5MTU5MTg1MDY2fV0=" data-look="classic" marker-end="url(#my-svg_flowchart-v2-pointEnd)"/><path d="M2406.528,578.012L2390.946,577.682C2375.365,577.351,2344.202,576.69,2299.001,576.36C2253.799,576.029,2194.56,576.029,2130.066,576.029C2065.573,576.029,1995.826,576.029,1926.493,576.029C1857.161,576.029,1788.245,576.029,1719.328,576.029C1650.411,576.029,1581.495,576.029,1525.525,576.029C1469.555,576.029,1426.531,576.029,1405.02,576.029L1383.508,576.029" id="my-svg-L_proc_handle_user_input_proc_compute_balance_0" class="edge-thickness-normal edge-pattern-solid edge-thickness-normal edge-pattern-solid flowchart-link" style=";" data-edge="true" data-et="edge" data-id="L_proc_handle_user_input_proc_compute_balance_0" data-points="W3sieCI6MjQwNi41Mjc1MDkzNDE4NTQsInkiOjU3OC4wMTE5NDMxMjY3OTAxfSx7IngiOjIzMTMuMDM5MDYyNSwieSI6NTc2LjAyOTMxNzg1NTgzNX0seyJ4IjoyMTM1LjMyMDMxMjUsInkiOjU3Ni4wMjkzMTc4NTU4MzV9LHsieCI6MTkyNi4wNzgxMjUsInkiOjU3Ni4wMjkzMTc4NTU4MzV9LHsieCI6MTcxOS4zMjgxMjUsInkiOjU3Ni4wMjkzMTc4NTU4MzV9LHsieCI6MTUxMi41NzgxMjUsInkiOjU3Ni4wMjkzMTc4NTU4MzV9LHsieCI6MTM3OS41MDc4MTI1LCJ5Ijo1NzYuMDI5MzE3ODU1ODM1fV0=" data-look="classic" marker-end="url(#my-svg_flowchart-v2-pointEnd)"/><path d="M2416.824,547.77L2399.526,535.022C2382.229,522.275,2347.634,496.781,2300.717,484.034C2253.799,471.287,2194.56,471.287,2130.066,471.287C2065.573,471.287,1995.826,471.287,1926.493,471.287C1857.161,471.287,1788.245,471.287,1719.328,471.287C1650.411,471.287,1581.495,471.287,1513.234,471.287C1444.974,471.287,1377.37,471.287,1318.577,471.287C1259.784,471.287,1209.802,471.287,1158.34,471.287C1106.878,471.287,1053.935,471.287,999.065,471.287C944.195,471.287,887.398,471.287,845.391,468.125C803.384,464.963,776.167,458.639,762.559,455.477L748.95,452.315" id="my-svg-L_proc_handle_user_input_proc_acquire_telemetry_0" class="edge-thickness-normal edge-pattern-solid edge-thickness-normal edge-pattern-solid flowchart-link" style=";" data-edge="true" data-et="edge" data-id="L_proc_handle_user_input_proc_acquire_telemetry_0" data-points="W3sieCI6MjQxNi44MjM2NDc4MTAxNDIsInkiOjU0Ny43Njk1NDc2MzU2NzE1fSx7IngiOjIzMTMuMDM5MDYyNSwieSI6NDcxLjI4NzEzMDM1NTgzNDk2fSx7IngiOjIxMzUuMzIwMzEyNSwieSI6NDcxLjI4NzEzMDM1NTgzNDk2fSx7IngiOjE5MjYuMDc4MTI1LCJ5Ijo0NzEuMjg3MTMwMzU1ODM0OTZ9LHsieCI6MTcxOS4zMjgxMjUsInkiOjQ3MS4yODcxMzAzNTU4MzQ5Nn0seyJ4IjoxNTEyLjU3ODEyNSwieSI6NDcxLjI4NzEzMDM1NTgzNDk2fSx7IngiOjEzMDkuNzY1NjI1LCJ5Ijo0NzEuMjg3MTMwMzU1ODM0OTZ9LHsieCI6MTE1OS44MjAzMTI1LCJ5Ijo0NzEuMjg3MTMwMzU1ODM0OTZ9LHsieCI6MTAwMC45OTIxODc1LCJ5Ijo0NzEuMjg3MTMwMzU1ODM0OTZ9LHsieCI6ODMwLjYwMTU2MjUsInkiOjQ3MS4yODcxMzAzNTU4MzQ5Nn0seyJ4Ijo3NDUuMDUzOTgwMjAyOTY0MSwieSI6NDUxLjQwOTY5NjI5MDc2OTY2fV0=" data-look="classic" marker-end="url(#my-svg_flowchart-v2-pointEnd)"/></g><g class="edgeLabels"><g class="edgeLabel" transform="translate(479.15708, 478.65969)"><g class="label" data-id="L_term_inverters_proc_acquire_telemetry_0" transform="translate(-91.15625, -12)"><foreignObject width="182.3125" height="24"><div xmlns="http://www.w3.org/1999/xhtml" class="labelBkg" style="display: table-cell; white-space: nowrap; line-height: 1.5; max-width: 200px; text-align: center;"><span class="edgeLabel"><p>F1: per-channel telemetry</p></span></div></foreignObject></g></g><g class="edgeLabel" transform="translate(1000.9921875, 281.3125)"><g class="label" data-id="L_proc_dispatch_commands_term_inverters_0" transform="translate(-86.6953125, -12)"><foreignObject width="173.390625" height="24"><div xmlns="http://www.w3.org/1999/xhtml" class="labelBkg" style="display: table-cell; white-space: nowrap; line-height: 1.5; max-width: 200px; text-align: center;"><span class="edgeLabel"><p>F2: power-limit setpoints</p></span></div></foreignObject></g></g><g class="edgeLabel" transform="translate(487.984375, 350.50390625)"><g class="label" data-id="L_term_meter_proc_acquire_telemetry_0" transform="translate(-90.7109375, -12)"><foreignObject width="181.421875" height="24"><div xmlns="http://www.w3.org/1999/xhtml" class="labelBkg" style="display: table-cell; white-space: nowrap; line-height: 1.5; max-width: 200px; text-align: center;"><span class="edgeLabel"><p>F3: net grid power, V/I/PF</p></span></div></foreignObject></g></g><g class="edgeLabel" transform="translate(1309.765625, 174.9375)"><g class="label" data-id="L_term_battery_system_proc_acquire_telemetry_0" transform="translate(-77.8125, -12)"><foreignObject width="155.625" height="24"><div xmlns="http://www.w3.org/1999/xhtml" class="labelBkg" style="display: table-cell; white-space: nowrap; line-height: 1.5; max-width: 200px; text-align: center;"><span class="edgeLabel"><p>F4: SoC, mode, AC-in</p></span></div></foreignObject></g></g><g class="edgeLabel" transform="translate(1926.078125, 323.6875)"><g class="label" data-id="L_proc_dispatch_commands_term_battery_system_0" transform="translate(-100, -24)"><foreignObject width="200" height="48"><div xmlns="http://www.w3.org/1999/xhtml" class="labelBkg" style="display: table; white-space: break-spaces; line-height: 1.5; max-width: 200px; text-align: center; width: 200px;"><span class="edgeLabel"><p>F5: max-charge, grid setpoint</p></span></div></foreignObject></g></g><g class="edgeLabel" transform="translate(2313.0390625, 676.771505355835)"><g class="label" data-id="L_term_user_proc_handle_user_input_0" transform="translate(-68.4765625, -12)"><foreignObject width="136.953125" height="24"><div xmlns="http://www.w3.org/1999/xhtml" class="labelBkg" style="display: table-cell; white-space: nowrap; line-height: 1.5; max-width: 200px; text-align: center;"><span class="edgeLabel"><p>F6: config, override</p></span></div></foreignObject></g></g><g class="edgeLabel" transform="translate(1926.078125, 676.771505355835)"><g class="label" data-id="L_proc_serve_ui_term_user_0" transform="translate(-79.6015625, -12)"><foreignObject width="159.203125" height="24"><div xmlns="http://www.w3.org/1999/xhtml" class="labelBkg" style="display: table-cell; white-space: nowrap; line-height: 1.5; max-width: 200px; text-align: center;"><span class="edgeLabel"><p>F7: dashboards, alerts</p></span></div></foreignObject></g></g><g class="edgeLabel" transform="translate(1512.578125, 67.96875)"><g class="label" data-id="L_proc_cloud_forward_term_smiles_cloud_0" transform="translate(-100, -24)"><foreignObject width="200" height="48"><div xmlns="http://www.w3.org/1999/xhtml" class="labelBkg" style="display: table; white-space: break-spaces; line-height: 1.5; max-width: 200px; text-align: center; width: 200px;"><span class="edgeLabel"><p>F8: optional telemetry forward</p></span></div></foreignObject></g></g><g class="edgeLabel"><g class="label" data-id="L_term_grid_term_inverters_0" transform="translate(0, 0)"><foreignObject width="0" height="0"><div xmlns="http://www.w3.org/1999/xhtml" class="labelBkg" style="display: table-cell; white-space: nowrap; line-height: 1.5; max-width: 200px; text-align: center;"><span class="edgeLabel"></span></div></foreignObject></g></g><g class="edgeLabel"><g class="label" data-id="L_term_grid_term_battery_system_0" transform="translate(0, 0)"><foreignObject width="0" height="0"><div xmlns="http://www.w3.org/1999/xhtml" class="labelBkg" style="display: table-cell; white-space: nowrap; line-height: 1.5; max-width: 200px; text-align: center;"><span class="edgeLabel"></span></div></foreignObject></g></g><g class="edgeLabel" transform="translate(830.6015625, 399.22068214416504)"><g class="label" data-id="L_proc_acquire_telemetry_store_system_state_0" transform="translate(-58.6953125, -12)"><foreignObject width="117.390625" height="24"><div xmlns="http://www.w3.org/1999/xhtml" class="labelBkg" style="display: table-cell; white-space: nowrap; line-height: 1.5; max-width: 200px; text-align: center;"><span class="edgeLabel"><p>normalized state</p></span></div></foreignObject></g></g><g class="edgeLabel" transform="translate(1159.8203125, 576.029317855835)"><g class="label" data-id="L_store_system_state_proc_compute_balance_0" transform="translate(-47.1328125, -12)"><foreignObject width="94.265625" height="24"><div xmlns="http://www.w3.org/1999/xhtml" class="labelBkg" style="display: table-cell; white-space: nowrap; line-height: 1.5; max-width: 200px; text-align: center;"><span class="edgeLabel"><p>system_state</p></span></div></foreignObject></g></g><g class="edgeLabel" transform="translate(1309.765625, 692.771505355835)"><g class="label" data-id="L_store_system_state_proc_serve_ui_0" transform="translate(-47.1328125, -12)"><foreignObject width="94.265625" height="24"><div xmlns="http://www.w3.org/1999/xhtml" class="labelBkg" style="display: table-cell; white-space: nowrap; line-height: 1.5; max-width: 200px; text-align: center;"><span class="edgeLabel"><p>system_state</p></span></div></foreignObject></g></g><g class="edgeLabel" transform="translate(1159.8203125, 67.96875)"><g class="label" data-id="L_store_system_state_proc_cloud_forward_0" transform="translate(-47.1328125, -12)"><foreignObject width="94.265625" height="24"><div xmlns="http://www.w3.org/1999/xhtml" class="labelBkg" style="display: table-cell; white-space: nowrap; line-height: 1.5; max-width: 200px; text-align: center;"><span class="edgeLabel"><p>system_state</p></span></div></foreignObject></g></g><g class="edgeLabel" transform="translate(1494.2286, 427.67021)"><g class="label" data-id="L_proc_compute_balance_proc_dispatch_commands_0" transform="translate(-47.5859375, -12)"><foreignObject width="95.171875" height="24"><div xmlns="http://www.w3.org/1999/xhtml" class="labelBkg" style="display: table-cell; white-space: nowrap; line-height: 1.5; max-width: 200px; text-align: center;"><span class="edgeLabel"><p>cmd_setpoint</p></span></div></foreignObject></g></g><g class="edgeLabel" transform="translate(1481.00695, 401.15341)"><g class="label" data-id="L_proc_compute_balance_proc_dispatch_commands_2" transform="translate(-64.90625, -12)"><foreignObject width="129.8125" height="24"><div xmlns="http://www.w3.org/1999/xhtml" class="labelBkg" style="display: table-cell; white-space: nowrap; line-height: 1.5; max-width: 200px; text-align: center;"><span class="edgeLabel"><p>cmd_inverter_limit</p></span></div></foreignObject></g></g><g class="edgeLabel" transform="translate(1512.578125, 634.400411605835)"><g class="label" data-id="L_proc_compute_balance_proc_serve_ui_0" transform="translate(-39.5859375, -12)"><foreignObject width="79.171875" height="24"><div xmlns="http://www.w3.org/1999/xhtml" class="labelBkg" style="display: table-cell; white-space: nowrap; line-height: 1.5; max-width: 200px; text-align: center;"><span class="edgeLabel"><p>event_alert</p></span></div></foreignObject></g></g><g class="edgeLabel" transform="translate(1926.078125, 576.029317855835)"><g class="label" data-id="L_proc_handle_user_input_proc_compute_balance_0" transform="translate(-52.921875, -12)"><foreignObject width="105.84375" height="24"><div xmlns="http://www.w3.org/1999/xhtml" class="labelBkg" style="display: table-cell; white-space: nowrap; line-height: 1.5; max-width: 200px; text-align: center;"><span class="edgeLabel"><p>event_override</p></span></div></foreignObject></g></g><g class="edgeLabel" transform="translate(1512.578125, 471.28713035583496)"><g class="label" data-id="L_proc_handle_user_input_proc_acquire_telemetry_0" transform="translate(-45.3671875, -12)"><foreignObject width="90.734375" height="24"><div xmlns="http://www.w3.org/1999/xhtml" class="labelBkg" style="display: table-cell; white-space: nowrap; line-height: 1.5; max-width: 200px; text-align: center;"><span class="edgeLabel"><p>event_config</p></span></div></foreignObject></g></g></g><g class="nodes"><g class="node default termopt" id="my-svg-flowchart-term_smiles_cloud-0" data-look="classic" transform="translate(1719.328125, 67.96875)"><g class="basic label-container outer-path"><path d="M-33.671875 -31.5 C-9.544466755296707 -31.5, 14.582941489406586 -31.5, 33.671875 -31.5 C33.671875 -31.5, 33.671875 -31.5, 33.671875 -31.5 C34.243939569765274 -31.481655002703764, 34.81600413953054 -31.463310005407525, 35.69008692939246 -31.435279871635593 C36.10984248349718 -31.394786558161023, 36.52959803760191 -31.354293244686456, 37.70000559306194 -31.241385435432253 C38.378898534592665 -31.131627289538958, 39.0577914761234 -31.021869143645663, 39.693371804093225 -30.91911344521856 C40.193761219920816 -30.804902826402014, 40.69415063574841 -30.690692207585467, 41.66199439314948 -30.469788185729428 C42.16523769092364 -30.320428216528033, 42.6684809886978 -30.171068247326634, 43.59778386774405 -29.895256030836062 C44.12645080227458 -29.700701711985253, 44.655117736805124 -29.506147393134444, 45.49278565370028 -29.197877856399685 C46.11092274002482 -28.924246904668987, 46.729059826349356 -28.650615952938285, 47.33921278220308 -28.380519338926202 C47.75222945004025 -28.165048807865354, 48.16524611787741 -27.94957827680451, 49.129477888124036 -27.44653917988677 C49.58538498479462 -27.170165618677572, 50.04129208146521 -26.893792057468374, 50.856224388132276 -26.399775304092984 C51.45842798816593 -25.979704141683197, 52.06063158819958 -25.559632979273406, 52.5123567104733 -25.244529088840633 C53.08272039797823 -24.789679226070614, 53.65308408548315 -24.334829363300596, 54.09106945219533 -23.985547688627737 C54.56589639407765 -23.554322423242652, 55.04072333595997 -23.12309715785757, 55.58587534400982 -22.62800452807842 C55.885169022501515 -22.31895923256776, 56.1844627009932 -22.009913937057096, 56.990631907872434 -21.177478043231485 C57.31542995876002 -20.795951771126273, 57.64022800964761 -20.41442549902106, 58.29956669774294 -19.63992875855011 C58.618096673034856 -19.213127610336656, 58.93662664832678 -18.786326462123206, 59.5073010198041 -18.02167479384835 C59.758903348550845 -17.635146052208142, 60.01050567729759 -17.24861731056793, 60.6088720346684 -16.329365901781543 C60.95876551323541 -15.708094600029149, 61.30865899180243 -15.086823298276755, 61.59975315074951 -14.56995614258631 C61.84594735905274 -14.058728601332463, 62.09214156735597 -13.547501060078616, 62.47587262499809 -12.750675308355413 C62.691194816045346 -12.218825333497325, 62.90651700709261 -11.686975358639234, 63.23363029456745 -10.878999214271206 C63.46962589077278 -10.168218079292714, 63.70562148697811 -9.457436944314223, 63.86991237065481 -8.962618978877531 C64.02291759218171 -8.379143756312985, 64.17592281370861 -7.7956685337484375, 64.38210423372745 -7.009409419623907 C64.53461500082398 -6.226298863745258, 64.6871257679205 -5.443188307866609, 64.76810117755518 -5.027396693551458 C64.84766578459337 -4.410309313171993, 64.92723039163157 -3.7932219327925294, 65.02631705789975 -3.024725316091981 C65.06373995466629 -2.4418334917344873, 65.10116285143283 -1.8589416673769936, 65.15569081032167 -1.0096246935071378 C65.15569081032167 -0.43254083401003607, 65.15569081032167 0.14454302548706566, 65.15569081032167 1.00962469350713 C65.12866501979082 1.4305731958507546, 65.10163922925994 1.8515216981943794, 65.02631705789975 3.02472531609196 C64.92611047112158 3.8019078151146983, 64.8259038843434 4.579090314137437, 64.76810117755518 5.027396693551435 C64.67416287423285 5.5097500272441415, 64.58022457091053 5.992103360936848, 64.38210423372745 7.0094094196239 C64.26892232636565 7.4410210857433405, 64.15574041900388 7.872632751862782, 63.869912370654816 8.96261897887751 C63.63273831019275 9.676949460434507, 63.39556424973068 10.391279941991503, 63.233630294567455 10.878999214271184 C63.06465736735591 11.296365611353, 62.89568444014437 11.713732008434814, 62.47587262499809 12.750675308355405 C62.27596350539518 13.165790872580775, 62.07605438579228 13.580906436806146, 61.59975315074951 14.569956142586303 C61.33739091129888 15.035806865788471, 61.07502867184825 15.501657588990637, 60.60887203466841 16.329365901781536 C60.25313248554469 16.875877378679895, 59.897392936420964 17.422388855578255, 59.50730101980412 18.021674793848334 C59.0777148324322 18.597281148819924, 58.64812864506029 19.172887503791518, 58.29956669774295 19.639928758550102 C57.817644927928725 20.20602149149942, 57.335723158114504 20.772114224448742, 56.99063190787245 21.177478043231467 C56.52232219381961 21.661046271933596, 56.05401247976678 22.144614500635722, 55.58587534400983 22.628004528078414 C55.15162405072128 23.022380062983466, 54.717372757432734 23.416755597888518, 54.091069452195356 23.985547688627715 C53.654620961926774 24.33360374523481, 53.21817247165819 24.681659801841906, 52.51235671047331 25.24452908884063 C52.093506349167995 25.53670096914731, 51.67465598786268 25.828872849453994, 50.8562243881323 26.399775304092973 C50.173693247043786 26.813529692819028, 49.49116210595527 27.227284081545086, 49.12947788812404 27.446539179886766 C48.55667081185087 27.745372264678036, 47.9838637355777 28.04420534946931, 47.339212782203084 28.3805193389262 C46.955903976544676 28.55019877673945, 46.572595170886274 28.719878214552697, 45.492785653700295 29.197877856399682 C44.96790533795597 29.391038664534044, 44.44302502221164 29.58419947266841, 43.59778386774407 29.895256030836055 C43.17129680816104 30.02183515144404, 42.74480974857801 30.148414272052026, 41.66199439314951 30.46978818572942 C40.92623790106735 30.637719803787363, 40.19048140898519 30.8056514218453, 39.69337180409324 30.919113445218557 C39.24929523435146 30.990908301149176, 38.805218664609676 31.062703157079795, 37.70000559306196 31.24138543543225 C37.00739901153169 31.30820035937119, 36.31479243000141 31.375015283310134, 35.69008692939246 31.435279871635593 C35.26307108919948 31.448973438494672, 34.836055249006506 31.46266700535375, 33.67187500000001 31.5 C33.67187500000001 31.5, 33.67187500000001 31.5, 33.671875 31.5 C13.178177373379224 31.5, -7.3155202532415515 31.5, -33.67187499999999 31.5 C-34.451553569388956 31.474997225831967, -35.231232138777926 31.449994451663933, -35.69008692939244 31.435279871635593 C-36.17785418222292 31.388225551380984, -36.6656214350534 31.341171231126378, -37.700005593061945 31.24138543543225 C-38.3640776536039 31.13402341463957, -39.028149714145854 31.02666139384689, -39.693371804093225 30.919113445218557 C-40.34861334031912 30.76955884042562, -41.003854876545006 30.620004235632685, -41.66199439314947 30.469788185729428 C-42.170476723766484 30.31887329908052, -42.6789590543835 30.16795841243161, -43.597783867744035 29.89525603083607 C-44.318334911126236 29.63008658617059, -45.03888595450844 29.36491714150511, -45.49278565370029 29.197877856399685 C-46.22500846765267 28.87374453728101, -46.95723128160505 28.549611218162333, -47.33921278220308 28.380519338926206 C-47.86914910844567 28.104051896965863, -48.39908543468826 27.82758445500552, -49.12947788812403 27.446539179886773 C-49.635401467457285 27.139845332957986, -50.14132504679055 26.833151486029198, -50.85622438813226 26.399775304092994 C-51.30920770173317 26.0837937538566, -51.762191015334075 25.767812203620206, -52.5123567104733 25.244529088840636 C-52.91505703837003 24.923386293648775, -53.31775736626676 24.602243498456914, -54.09106945219533 23.98554768862774 C-54.40937172993791 23.696473981798697, -54.72767400768049 23.407400274969653, -55.58587534400981 22.628004528078435 C-56.12653408725384 22.069729986770636, -56.66719283049786 21.511455445462833, -56.99063190787244 21.177478043231478 C-57.437703681390005 20.652322098953178, -57.88477545490757 20.127166154674875, -58.29956669774293 19.639928758550113 C-58.67615150121923 19.135339429473245, -59.05273630469553 18.630750100396373, -59.5073010198041 18.021674793848355 C-59.91160832218106 17.400550205685185, -60.31591562455802 16.779425617522016, -60.608872034668394 16.329365901781557 C-60.97204137484418 15.684521963416028, -61.33521071501996 15.039678025050497, -61.5997531507495 14.569956142586314 C-61.877233988138876 13.993761246608466, -62.15471482552825 13.417566350630617, -62.47587262499809 12.750675308355417 C-62.7023516648141 12.191267701335516, -62.92883070463011 11.631860094315616, -63.23363029456745 10.878999214271209 C-63.47711740328694 10.14565483721049, -63.72060451200643 9.41231046014977, -63.86991237065481 8.962618978877522 C-64.06765558250245 8.208538409652295, -64.2653987943501 7.454457840427067, -64.38210423372743 7.009409419623911 C-64.5346858826973 6.225934900306573, -64.68726753166717 5.442460380989235, -64.76810117755518 5.027396693551461 C-64.85355581948087 4.364627365703497, -64.93901046140657 3.701858037855533, -65.02631705789975 3.024725316091999 C-65.06262107110531 2.459261006343292, -65.09892508431088 1.8937966965945847, -65.15569081032167 1.0096246935071416 C-65.15569081032167 0.3088057435623237, -65.15569081032167 -0.39201320638249415, -65.15569081032167 -1.0096246935071262 C-65.11443618968288 -1.6521987100867181, -65.0731815690441 -2.2947727266663103, -65.02631705789975 -3.024725316091956 C-64.93200929946453 -3.756157667342232, -64.8377015410293 -4.487590018592508, -64.76810117755518 -5.027396693551446 C-64.65845558343936 -5.590403645731618, -64.54880998932356 -6.1534105979117895, -64.38210423372745 -7.009409419623896 C-64.18227132947518 -7.771458891666331, -63.982438425222924 -8.533508363708766, -63.869912370654816 -8.962618978877506 C-63.68883815659205 -9.507985661376487, -63.50776394252929 -10.053352343875467, -63.23363029456746 -10.878999214271168 C-63.04619150066638 -11.341976659089378, -62.85875270676531 -11.804954103907585, -62.47587262499809 -12.750675308355401 C-62.17355271190835 -13.378449076496137, -61.87123279881861 -14.006222844636874, -61.59975315074951 -14.5699561425863 C-61.39248966420278 -14.937973450653864, -61.18522617765604 -15.305990758721428, -60.6088720346684 -16.329365901781546 C-60.197011026261926 -16.96209501086013, -59.78515001785546 -17.594824119938714, -59.50730101980411 -18.021674793848344 C-59.20048592094997 -18.432779074882372, -58.89367082209583 -18.8438833559164, -58.29956669774295 -19.639928758550102 C-57.8649048121702 -20.15050734230579, -57.43024292659746 -20.661085926061478, -56.990631907872455 -21.177478043231467 C-56.44304649819553 -21.742904936321125, -55.8954610885186 -22.30833182941078, -55.585875344009835 -22.628004528078403 C-55.08331117894817 -23.08442000566826, -54.5807470138865 -23.540835483258117, -54.091069452195356 -23.98554768862771 C-53.5280621914779 -24.434530996797463, -52.96505493076044 -24.883514304967214, -52.51235671047331 -25.244529088840626 C-51.99541539087553 -25.605124975362987, -51.47847407127774 -25.965720861885348, -50.856224388132304 -26.39977530409297 C-50.35642047443629 -26.70275937374931, -49.856616560740285 -27.005743443405645, -49.12947788812404 -27.446539179886763 C-48.479357864563916 -27.78570637975633, -47.829237841003795 -28.124873579625902, -47.33921278220309 -28.3805193389262 C-46.72105803580189 -28.654158108248968, -46.102903289400686 -28.92779687757174, -45.4927856537003 -29.19787785639968 C-44.816344647701975 -29.446814399559177, -44.13990364170365 -29.69575094271868, -43.59778386774408 -29.895256030836055 C-43.18742302860326 -30.017048973865048, -42.77706218946245 -30.13884191689404, -41.66199439314951 -30.469788185729417 C-41.03057683101079 -30.613905123902917, -40.39915926887206 -30.758022062076417, -39.69337180409324 -30.919113445218553 C-39.14327976626355 -31.00804805986739, -38.59318772843385 -31.096982674516234, -37.70000559306196 -31.24138543543225 C-37.24262716998175 -31.285508181828764, -36.785248746901544 -31.329630928225278, -35.69008692939246 -31.435279871635593 C-35.19866199610699 -31.451038912745453, -34.70723706282152 -31.466797953855313, -33.67187500000001 -31.5 C-33.67187500000001 -31.5, -33.671875 -31.5, -33.671875 -31.5" stroke="none" stroke-width="0" fill="#fafafa" style="fill:#fafafa !important;stroke:#888 !important;stroke-dasharray:5 5 !important"/><path d="M-33.671875 -31.5 C-15.802354190883054 -31.5, 2.067166618233891 -31.5, 33.671875 -31.5 M-33.671875 -31.5 C-10.518305578155065 -31.5, 12.63526384368987 -31.5, 33.671875 -31.5 M33.671875 -31.5 C33.671875 -31.5, 33.671875 -31.5, 33.671875 -31.5 M33.671875 -31.5 C33.671875 -31.5, 33.671875 -31.5, 33.671875 -31.5 M33.671875 -31.5 C34.15661749960722 -31.484455251531635, 34.641359999214444 -31.468910503063267, 35.69008692939246 -31.435279871635593 M33.671875 -31.5 C34.450011755824264 -31.47504666879203, 35.22814851164852 -31.450093337584057, 35.69008692939246 -31.435279871635593 M35.69008692939246 -31.435279871635593 C36.42688232072967 -31.364202106359397, 37.16367771206688 -31.2931243410832, 37.70000559306194 -31.241385435432253 M35.69008692939246 -31.435279871635593 C36.19580862309171 -31.38649350806375, 36.70153031679095 -31.337707144491905, 37.70000559306194 -31.241385435432253 M37.70000559306194 -31.241385435432253 C38.48136996768875 -31.115060502913817, 39.26273434231556 -30.988735570395377, 39.693371804093225 -30.91911344521856 M37.70000559306194 -31.241385435432253 C38.30590764848181 -31.143427889952587, 38.91180970390168 -31.045470344472918, 39.693371804093225 -30.91911344521856 M39.693371804093225 -30.91911344521856 C40.26823993738976 -30.78790354515878, 40.84310807068629 -30.656693645098997, 41.66199439314948 -30.469788185729428 M39.693371804093225 -30.91911344521856 C40.23106446403375 -30.796388604359652, 40.768757123974275 -30.673663763500745, 41.66199439314948 -30.469788185729428 M41.66199439314948 -30.469788185729428 C42.076165551323136 -30.34686436001226, 42.49033670949679 -30.223940534295092, 43.59778386774405 -29.895256030836062 M41.66199439314948 -30.469788185729428 C42.29416856660187 -30.28216220939871, 42.92634274005427 -30.09453623306799, 43.59778386774405 -29.895256030836062 M43.59778386774405 -29.895256030836062 C44.24163567216949 -29.658312615106666, 44.885487476594925 -29.421369199377267, 45.49278565370028 -29.197877856399685 M43.59778386774405 -29.895256030836062 C44.00491954306652 -29.745426338796467, 44.41205521838899 -29.59559664675687, 45.49278565370028 -29.197877856399685 M45.49278565370028 -29.197877856399685 C46.17903978185441 -28.89409351087128, 46.86529391000854 -28.590309165342873, 47.33921278220308 -28.380519338926202 M45.49278565370028 -29.197877856399685 C46.09817187444299 -28.929891334621075, 46.7035580951857 -28.66190481284246, 47.33921278220308 -28.380519338926202 M47.33921278220308 -28.380519338926202 C48.03219125878813 -28.01899291156568, 48.72516973537319 -27.657466484205155, 49.129477888124036 -27.44653917988677 M47.33921278220308 -28.380519338926202 C47.9402140178244 -28.06697737926222, 48.54121525344573 -27.75343541959824, 49.129477888124036 -27.44653917988677 M49.129477888124036 -27.44653917988677 C49.56555015348567 -27.182189609979467, 50.0016224188473 -26.917840040072168, 50.856224388132276 -26.399775304092984 M49.129477888124036 -27.44653917988677 C49.79402988093341 -27.04368385650473, 50.45858187374277 -26.640828533122697, 50.856224388132276 -26.399775304092984 M50.856224388132276 -26.399775304092984 C51.48650271550633 -25.96012042722589, 52.11678104288038 -25.520465550358793, 52.5123567104733 -25.244529088840633 M50.856224388132276 -26.399775304092984 C51.489465005122405 -25.958054062225163, 52.12270562211254 -25.516332820357345, 52.5123567104733 -25.244529088840633 M52.5123567104733 -25.244529088840633 C53.0995046111187 -24.77629426273776, 53.686652511764095 -24.308059436634885, 54.09106945219533 -23.985547688627737 M52.5123567104733 -25.244529088840633 C52.96907052288033 -24.880311977110996, 53.425784335287354 -24.516094865381362, 54.09106945219533 -23.985547688627737 M54.09106945219533 -23.985547688627737 C54.537831185283636 -23.579810503304643, 54.98459291837194 -23.174073317981552, 55.58587534400982 -22.62800452807842 M54.09106945219533 -23.985547688627737 C54.49509568480898 -23.618621754116344, 54.89912191742263 -23.25169581960495, 55.58587534400982 -22.62800452807842 M55.58587534400982 -22.62800452807842 C55.90342937676267 -22.300103917590146, 56.220983409515526 -21.97220330710187, 56.990631907872434 -21.177478043231485 M55.58587534400982 -22.62800452807842 C56.004971915454945 -22.195252909592902, 56.42406848690007 -21.762501291107387, 56.990631907872434 -21.177478043231485 M56.990631907872434 -21.177478043231485 C57.50128785945746 -20.57763250535291, 58.0119438110425 -19.977786967474334, 58.29956669774294 -19.63992875855011 M56.990631907872434 -21.177478043231485 C57.3777111131802 -20.722792783246252, 57.76479031848796 -20.268107523261023, 58.29956669774294 -19.63992875855011 M58.29956669774294 -19.63992875855011 C58.64681015117023 -19.174654165486935, 58.99405360459752 -18.709379572423757, 59.5073010198041 -18.02167479384835 M58.29956669774294 -19.63992875855011 C58.765942243154846 -19.0150280153844, 59.232317788566746 -18.390127272218688, 59.5073010198041 -18.02167479384835 M59.5073010198041 -18.02167479384835 C59.88947162256139 -17.434558120837167, 60.271642225318665 -16.847441447825986, 60.6088720346684 -16.329365901781543 M59.5073010198041 -18.02167479384835 C59.8502998485234 -17.494736484853654, 60.193298677242694 -16.967798175858956, 60.6088720346684 -16.329365901781543 M60.6088720346684 -16.329365901781543 C60.88509175574523 -15.83890981672988, 61.161311476822064 -15.348453731678218, 61.59975315074951 -14.56995614258631 M60.6088720346684 -16.329365901781543 C60.98437195206493 -15.662627774954244, 61.359871869461465 -14.995889648126944, 61.59975315074951 -14.56995614258631 M61.59975315074951 -14.56995614258631 C61.871279149905256 -14.006126595613711, 62.142805149061004 -13.442297048641112, 62.47587262499809 -12.750675308355413 M61.59975315074951 -14.56995614258631 C61.94253483150617 -13.858162648142056, 62.285316512262845 -13.146369153697801, 62.47587262499809 -12.750675308355413 M62.47587262499809 -12.750675308355413 C62.663623090008684 -12.286928029870937, 62.851373555019286 -11.823180751386461, 63.23363029456745 -10.878999214271206 M62.47587262499809 -12.750675308355413 C62.75097256115006 -12.07117314736461, 63.02607249730203 -11.391670986373803, 63.23363029456745 -10.878999214271206 M63.23363029456745 -10.878999214271206 C63.44914950933388 -10.229889677718345, 63.664668724100316 -9.580780141165485, 63.86991237065481 -8.962618978877531 M63.23363029456745 -10.878999214271206 C63.47753114785528 -10.144408704491887, 63.721432001143114 -9.409818194712571, 63.86991237065481 -8.962618978877531 M63.86991237065481 -8.962618978877531 C64.0484481296902 -8.281784751788159, 64.22698388872558 -7.600950524698786, 64.38210423372745 -7.009409419623907 M63.86991237065481 -8.962618978877531 C64.03244763666305 -8.342801566358244, 64.19498290267128 -7.722984153838954, 64.38210423372745 -7.009409419623907 M64.38210423372745 -7.009409419623907 C64.51933632425988 -6.30475163875246, 64.65656841479232 -5.600093857881013, 64.76810117755518 -5.027396693551458 M64.38210423372745 -7.009409419623907 C64.49393393610316 -6.435187533140565, 64.60576363847888 -5.860965646657222, 64.76810117755518 -5.027396693551458 M64.76810117755518 -5.027396693551458 C64.84742049037901 -4.412211766659847, 64.92673980320282 -3.797026839768237, 65.02631705789975 -3.024725316091981 M64.76810117755518 -5.027396693551458 C64.85094878539674 -4.384847007242987, 64.93379639323828 -3.742297320934517, 65.02631705789975 -3.024725316091981 M65.02631705789975 -3.024725316091981 C65.0537943833896 -2.5967437922895797, 65.08127170887946 -2.168762268487179, 65.15569081032167 -1.0096246935071378 M65.02631705789975 -3.024725316091981 C65.0674408192729 -2.384189538202423, 65.10856458064605 -1.7436537603128652, 65.15569081032167 -1.0096246935071378 M65.15569081032167 -1.0096246935071378 C65.15569081032167 -0.5803931451550257, 65.15569081032167 -0.15116159680291374, 65.15569081032167 1.00962469350713 M65.15569081032167 -1.0096246935071378 C65.15569081032167 -0.5992702510096127, 65.15569081032167 -0.18891580851208767, 65.15569081032167 1.00962469350713 M65.15569081032167 1.00962469350713 C65.1294778608083 1.417912540889984, 65.10326491129491 1.826200388272838, 65.02631705789975 3.02472531609196 M65.15569081032167 1.00962469350713 C65.12536983399876 1.4818983743880767, 65.09504885767585 1.9541720552690232, 65.02631705789975 3.02472531609196 M65.02631705789975 3.02472531609196 C64.9462858655717 3.6454314398418726, 64.86625467324365 4.266137563591785, 64.76810117755518 5.027396693551435 M65.02631705789975 3.02472531609196 C64.94486283427202 3.6564681895928506, 64.86340861064429 4.288211063093741, 64.76810117755518 5.027396693551435 M64.76810117755518 5.027396693551435 C64.63348117504238 5.7186419545071105, 64.49886117252956 6.409887215462785, 64.38210423372745 7.0094094196239 M64.76810117755518 5.027396693551435 C64.66317843500809 5.56615280110127, 64.55825569246099 6.1049089086511055, 64.38210423372745 7.0094094196239 M64.38210423372745 7.0094094196239 C64.2795792947466 7.400381446547508, 64.17705435576575 7.7913534734711165, 63.869912370654816 8.96261897887751 M64.38210423372745 7.0094094196239 C64.27018042214847 7.436223421261311, 64.1582566105695 7.8630374228987225, 63.869912370654816 8.96261897887751 M63.869912370654816 8.96261897887751 C63.68396497134543 9.522662918902682, 63.49801757203604 10.082706858927857, 63.233630294567455 10.878999214271184 M63.869912370654816 8.96261897887751 C63.72602999146939 9.395969780440113, 63.582147612283954 9.829320582002717, 63.233630294567455 10.878999214271184 M63.233630294567455 10.878999214271184 C62.95617362171923 11.56432256046614, 62.678716948871006 12.249645906661097, 62.47587262499809 12.750675308355405 M63.233630294567455 10.878999214271184 C62.95510509679927 11.566961837676967, 62.67657989903108 12.25492446108275, 62.47587262499809 12.750675308355405 M62.47587262499809 12.750675308355405 C62.22159594503337 13.278686274951529, 61.967319265068646 13.806697241547651, 61.59975315074951 14.569956142586303 M62.47587262499809 12.750675308355405 C62.29360468106979 13.129158593831773, 62.111336737141485 13.507641879308142, 61.59975315074951 14.569956142586303 M61.59975315074951 14.569956142586303 C61.29531522825501 15.110516501657765, 60.99087730576053 15.651076860729226, 60.60887203466841 16.329365901781536 M61.59975315074951 14.569956142586303 C61.22721962221361 15.23142714561211, 60.85468609367771 15.89289814863792, 60.60887203466841 16.329365901781536 M60.60887203466841 16.329365901781536 C60.19249884036334 16.969026940091922, 59.77612564605828 17.60868797840231, 59.50730101980412 18.021674793848334 M60.60887203466841 16.329365901781536 C60.22454680024354 16.919792667633754, 59.840221565818666 17.510219433485968, 59.50730101980412 18.021674793848334 M59.50730101980412 18.021674793848334 C59.07390115720517 18.602391126191193, 58.64050129460622 19.18310745853405, 58.29956669774295 19.639928758550102 M59.50730101980412 18.021674793848334 C59.11409739643744 18.548531827572674, 58.72089377307076 19.075388861297018, 58.29956669774295 19.639928758550102 M58.29956669774295 19.639928758550102 C57.837502545108876 20.182695604429185, 57.37543839247481 20.72546245030827, 56.99063190787245 21.177478043231467 M58.29956669774295 19.639928758550102 C58.033908717672595 19.95198573830803, 57.768250737602244 20.26404271806595, 56.99063190787245 21.177478043231467 M56.99063190787245 21.177478043231467 C56.47329272457442 21.711673224323548, 55.95595354127639 22.245868405415628, 55.58587534400983 22.628004528078414 M56.99063190787245 21.177478043231467 C56.474763156322005 21.710154882819474, 55.95889440477156 22.24283172240748, 55.58587534400983 22.628004528078414 M55.58587534400983 22.628004528078414 C55.14391253906283 23.029383453836253, 54.70194973411583 23.430762379594093, 54.091069452195356 23.985547688627715 M55.58587534400983 22.628004528078414 C55.20902210637622 22.970252667506983, 54.83216886874261 23.31250080693555, 54.091069452195356 23.985547688627715 M54.091069452195356 23.985547688627715 C53.64546171654575 24.340907999688422, 53.19985398089615 24.696268310749126, 52.51235671047331 25.24452908884063 M54.091069452195356 23.985547688627715 C53.61295520100977 24.366831080793663, 53.13484094982418 24.748114472959607, 52.51235671047331 25.24452908884063 M52.51235671047331 25.24452908884063 C52.1026508216433 25.53032218100637, 51.69294493281329 25.81611527317211, 50.8562243881323 26.399775304092973 M52.51235671047331 25.24452908884063 C52.08311536443386 25.543949270279366, 51.6538740183944 25.843369451718104, 50.8562243881323 26.399775304092973 M50.8562243881323 26.399775304092973 C50.27027411869927 26.754981800849272, 49.68432384926625 27.110188297605568, 49.12947788812404 27.446539179886766 M50.8562243881323 26.399775304092973 C50.49326162664194 26.619805463114375, 50.13029886515158 26.839835622135777, 49.12947788812404 27.446539179886766 M49.12947788812404 27.446539179886766 C48.530898167097796 27.758817836937546, 47.932318446071555 28.07109649398833, 47.339212782203084 28.3805193389262 M49.12947788812404 27.446539179886766 C48.66942313773829 27.68654944848388, 48.209368387352534 27.926559717081, 47.339212782203084 28.3805193389262 M47.339212782203084 28.3805193389262 C46.86377013533793 28.590983695188385, 46.38832748847277 28.801448051450567, 45.492785653700295 29.197877856399682 M47.339212782203084 28.3805193389262 C46.785522349855405 28.62562166868341, 46.231831917507726 28.87072399844062, 45.492785653700295 29.197877856399682 M45.492785653700295 29.197877856399682 C45.00150819428046 29.378672502785232, 44.51023073486063 29.559467149170786, 43.59778386774407 29.895256030836055 M45.492785653700295 29.197877856399682 C44.87801308736454 29.424119843706546, 44.26324052102879 29.650361831013406, 43.59778386774407 29.895256030836055 M43.59778386774407 29.895256030836055 C42.88078823296727 30.108056571650923, 42.163792598190476 30.32085711246579, 41.66199439314951 30.46978818572942 M43.59778386774407 29.895256030836055 C42.906630162829174 30.10038682251497, 42.21547645791428 30.30551761419388, 41.66199439314951 30.46978818572942 M41.66199439314951 30.46978818572942 C41.085769780753836 30.601307693291727, 40.509545168358166 30.732827200854032, 39.69337180409324 30.919113445218557 M41.66199439314951 30.46978818572942 C41.21599011045394 30.571585752804744, 40.76998582775837 30.67338331988007, 39.69337180409324 30.919113445218557 M39.69337180409324 30.919113445218557 C39.1393004925595 31.008691397980137, 38.58522918102577 31.098269350741717, 37.70000559306196 31.24138543543225 M39.69337180409324 30.919113445218557 C38.89984375433534 31.04740490640148, 38.10631570457744 31.1756963675844, 37.70000559306196 31.24138543543225 M37.70000559306196 31.24138543543225 C37.24163556700755 31.28560384057511, 36.78326554095313 31.329822245717967, 35.69008692939246 31.435279871635593 M37.70000559306196 31.24138543543225 C37.18764557161239 31.29081219049841, 36.67528555016283 31.34023894556457, 35.69008692939246 31.435279871635593 M35.69008692939246 31.435279871635593 C35.28337662063412 31.44832227962388, 34.876666311875795 31.46136468761217, 33.67187500000001 31.5 M35.69008692939246 31.435279871635593 C35.22177513204993 31.450297719462753, 34.75346333470739 31.465315567289913, 33.67187500000001 31.5 M33.67187500000001 31.5 C33.67187500000001 31.5, 33.671875 31.5, 33.671875 31.5 M33.67187500000001 31.5 C33.67187500000001 31.5, 33.671875 31.5, 33.671875 31.5 M33.671875 31.5 C15.146332007542966 31.5, -3.3792109849140672 31.5, -33.67187499999999 31.5 M33.671875 31.5 C17.020914603918214 31.5, 0.36995420783642885 31.5, -33.67187499999999 31.5 M-33.67187499999999 31.5 C-34.400864706002054 31.4766227190209, -35.12985441200411 31.453245438041794, -35.69008692939244 31.435279871635593 M-33.67187499999999 31.5 C-34.1570023292415 31.484442910794286, -34.642129658483 31.468885821588575, -35.69008692939244 31.435279871635593 M-35.69008692939244 31.435279871635593 C-36.480356571778735 31.359043509672887, -37.270626214165034 31.28280714771018, -37.700005593061945 31.24138543543225 M-35.69008692939244 31.435279871635593 C-36.22894462548412 31.383296917764824, -36.76780232157579 31.331313963894058, -37.700005593061945 31.24138543543225 M-37.700005593061945 31.24138543543225 C-38.150205940852224 31.168600534557356, -38.60040628864251 31.095815633682466, -39.693371804093225 30.919113445218557 M-37.700005593061945 31.24138543543225 C-38.259320243987695 31.150959780220475, -38.818634894913444 31.060534125008697, -39.693371804093225 30.919113445218557 M-39.693371804093225 30.919113445218557 C-40.33125612707294 30.77352051108266, -40.96914045005266 30.62792757694676, -41.66199439314947 30.469788185729428 M-39.693371804093225 30.919113445218557 C-40.21342983900282 30.800413592446276, -40.733487873912416 30.681713739673995, -41.66199439314947 30.469788185729428 M-41.66199439314947 30.469788185729428 C-42.22162140033097 30.303693827540066, -42.781248407512464 30.137599469350704, -43.597783867744035 29.89525603083607 M-41.66199439314947 30.469788185729428 C-42.13746459516417 30.328671125565485, -42.612934797178866 30.187554065401546, -43.597783867744035 29.89525603083607 M-43.597783867744035 29.89525603083607 C-44.02953043901599 29.736369301586432, -44.46127701028796 29.5774825723368, -45.49278565370029 29.197877856399685 M-43.597783867744035 29.89525603083607 C-44.27223225014407 29.647052791580354, -44.946680632544115 29.398849552324634, -45.49278565370029 29.197877856399685 M-45.49278565370029 29.197877856399685 C-45.94639660407427 28.997077744559878, -46.40000755444826 28.79627763272007, -47.33921278220308 28.380519338926206 M-45.49278565370029 29.197877856399685 C-46.14248181452427 28.910276638554766, -46.792177975348245 28.622675420709847, -47.33921278220308 28.380519338926206 M-47.33921278220308 28.380519338926206 C-47.69831664943202 28.19317508140987, -48.05742051666097 28.005830823893536, -49.12947788812403 27.446539179886773 M-47.33921278220308 28.380519338926206 C-47.85842580541463 28.109646237288548, -48.377638828626196 27.838773135650893, -49.12947788812403 27.446539179886773 M-49.12947788812403 27.446539179886773 C-49.68491543403458 27.109829675442466, -50.240352979945136 26.77312017099816, -50.85622438813226 26.399775304092994 M-49.12947788812403 27.446539179886773 C-49.4990708855769 27.222489732861305, -49.86866388302977 26.998440285835837, -50.85622438813226 26.399775304092994 M-50.85622438813226 26.399775304092994 C-51.30613575062762 26.08593661396521, -51.75604711312298 25.772097923837425, -52.5123567104733 25.244529088840636 M-50.85622438813226 26.399775304092994 C-51.46697549832209 25.97374176861401, -52.07772660851192 25.547708233135022, -52.5123567104733 25.244529088840636 M-52.5123567104733 25.244529088840636 C-53.022745528913084 24.837507588151773, -53.53313434735288 24.43048608746291, -54.09106945219533 23.98554768862774 M-52.5123567104733 25.244529088840636 C-52.86277136814429 24.965082724273685, -53.21318602581528 24.68563635970673, -54.09106945219533 23.98554768862774 M-54.09106945219533 23.98554768862774 C-54.64981209710574 23.47811240204038, -55.20855474201615 22.97067711545302, -55.58587534400981 22.628004528078435 M-54.09106945219533 23.98554768862774 C-54.585937326504194 23.536121778666885, -55.08080520081305 23.086695868706027, -55.58587534400981 22.628004528078435 M-55.58587534400981 22.628004528078435 C-55.887745059918736 22.31629926243787, -56.189614775827664 22.004593996797304, -56.99063190787244 21.177478043231478 M-55.58587534400981 22.628004528078435 C-56.09777528650383 22.099425809686466, -56.60967522899786 21.570847091294493, -56.99063190787244 21.177478043231478 M-56.99063190787244 21.177478043231478 C-57.49485898719131 20.585184224529936, -57.999086066510166 19.992890405828394, -58.29956669774293 19.639928758550113 M-56.99063190787244 21.177478043231478 C-57.336702490160654 20.77096384530176, -57.68277307244887 20.364449647372044, -58.29956669774293 19.639928758550113 M-58.29956669774293 19.639928758550113 C-58.72104485475949 19.075186425597938, -59.14252301177605 18.510444092645766, -59.5073010198041 18.021674793848355 M-58.29956669774293 19.639928758550113 C-58.588616862210095 19.25262787117582, -58.87766702667725 18.865326983801534, -59.5073010198041 18.021674793848355 M-59.5073010198041 18.021674793848355 C-59.86881567442355 17.4662912040756, -60.230330329043 16.910907614302843, -60.608872034668394 16.329365901781557 M-59.5073010198041 18.021674793848355 C-59.93646028560354 17.36237091618168, -60.36561955140297 16.703067038515005, -60.608872034668394 16.329365901781557 M-60.608872034668394 16.329365901781557 C-60.83158746046144 15.933912110903645, -61.05430288625449 15.538458320025732, -61.5997531507495 14.569956142586314 M-60.608872034668394 16.329365901781557 C-60.85299338164746 15.895903730253305, -61.09711472862652 15.462441558725056, -61.5997531507495 14.569956142586314 M-61.5997531507495 14.569956142586314 C-61.82599385502666 14.100162479379199, -62.05223455930382 13.630368816172082, -62.47587262499809 12.750675308355417 M-61.5997531507495 14.569956142586314 C-61.93562715201367 13.872506592408893, -62.271501153277846 13.175057042231474, -62.47587262499809 12.750675308355417 M-62.47587262499809 12.750675308355417 C-62.772541509389534 12.017897428205861, -63.069210393780985 11.285119548056306, -63.23363029456745 10.878999214271209 M-62.47587262499809 12.750675308355417 C-62.70281790843743 12.190116070571678, -62.92976319187677 11.62955683278794, -63.23363029456745 10.878999214271209 M-63.23363029456745 10.878999214271209 C-63.39357161181483 10.397281449910315, -63.55351292906221 9.91556368554942, -63.86991237065481 8.962618978877522 M-63.23363029456745 10.878999214271209 C-63.475055664913405 10.151864464698182, -63.716481035259356 9.424729715125153, -63.86991237065481 8.962618978877522 M-63.86991237065481 8.962618978877522 C-64.06537940769492 8.217218450693835, -64.26084644473502 7.471817922510149, -64.38210423372743 7.009409419623911 M-63.86991237065481 8.962618978877522 C-64.04709086496534 8.286960590426249, -64.22426935927588 7.611302201974977, -64.38210423372743 7.009409419623911 M-64.38210423372743 7.009409419623911 C-64.52006598922887 6.3010049633514065, -64.6580277447303 5.592600507078902, -64.76810117755518 5.027396693551461 M-64.38210423372743 7.009409419623911 C-64.52753118051935 6.262672783843567, -64.67295812731125 5.515936148063223, -64.76810117755518 5.027396693551461 M-64.76810117755518 5.027396693551461 C-64.86278647566641 4.293036219127729, -64.95747177377764 3.5586757447039967, -65.02631705789975 3.024725316091999 M-64.76810117755518 5.027396693551461 C-64.85821230737069 4.328512565157625, -64.9483234371862 3.629628436763788, -65.02631705789975 3.024725316091999 M-65.02631705789975 3.024725316091999 C-65.06790718895643 2.376925453934745, -65.10949732001309 1.729125591777491, -65.15569081032167 1.0096246935071416 M-65.02631705789975 3.024725316091999 C-65.07618558966333 2.247982680719854, -65.12605412142692 1.4712400453477097, -65.15569081032167 1.0096246935071416 M-65.15569081032167 1.0096246935071416 C-65.15569081032167 0.49395105564276043, -65.15569081032167 -0.021722582221620712, -65.15569081032167 -1.0096246935071262 M-65.15569081032167 1.0096246935071416 C-65.15569081032167 0.23685690781274205, -65.15569081032167 -0.5359108778816575, -65.15569081032167 -1.0096246935071262 M-65.15569081032167 -1.0096246935071262 C-65.12923675342599 -1.4216679829877439, -65.10278269653031 -1.8337112724683613, -65.02631705789975 -3.024725316091956 M-65.15569081032167 -1.0096246935071262 C-65.10417837919528 -1.8119723883867327, -65.05266594806888 -2.614320083266339, -65.02631705789975 -3.024725316091956 M-65.02631705789975 -3.024725316091956 C-64.95803383725027 -3.554316491402223, -64.8897506166008 -4.08390766671249, -64.76810117755518 -5.027396693551446 M-65.02631705789975 -3.024725316091956 C-64.93854700901447 -3.705452483089621, -64.8507769601292 -4.3861796500872865, -64.76810117755518 -5.027396693551446 M-64.76810117755518 -5.027396693551446 C-64.67329362252761 -5.514213451034201, -64.57848606750002 -6.001030208516955, -64.38210423372745 -7.009409419623896 M-64.76810117755518 -5.027396693551446 C-64.62979162409262 -5.737587018847256, -64.49148207063004 -6.4477773441430655, -64.38210423372745 -7.009409419623896 M-64.38210423372745 -7.009409419623896 C-64.27964396561936 -7.4001348284811215, -64.17718369751128 -7.790860237338347, -63.869912370654816 -8.962618978877506 M-64.38210423372745 -7.009409419623896 C-64.21474663289905 -7.647616484825617, -64.04738903207064 -8.285823550027338, -63.869912370654816 -8.962618978877506 M-63.869912370654816 -8.962618978877506 C-63.66167152804898 -9.589807218133782, -63.45343068544314 -10.216995457390055, -63.23363029456746 -10.878999214271168 M-63.869912370654816 -8.962618978877506 C-63.73779601966309 -9.360532378182704, -63.60567966867135 -9.7584457774879, -63.23363029456746 -10.878999214271168 M-63.23363029456746 -10.878999214271168 C-63.07428668263834 -11.272581016435263, -62.914943070709214 -11.666162818599357, -62.47587262499809 -12.750675308355401 M-63.23363029456746 -10.878999214271168 C-62.978520095773675 -11.509126337511972, -62.72340989697989 -12.139253460752776, -62.47587262499809 -12.750675308355401 M-62.47587262499809 -12.750675308355401 C-62.28277550289603 -13.151645614016878, -62.08967838079396 -13.552615919678356, -61.59975315074951 -14.5699561425863 M-62.47587262499809 -12.750675308355401 C-62.13405389000673 -13.460469225314245, -61.792235155015376 -14.170263142273088, -61.59975315074951 -14.5699561425863 M-61.59975315074951 -14.5699561425863 C-61.22164596745986 -15.241323734021138, -60.84353878417021 -15.912691325455977, -60.6088720346684 -16.329365901781546 M-61.59975315074951 -14.5699561425863 C-61.23535980200532 -15.216973432109333, -60.87096645326114 -15.863990721632364, -60.6088720346684 -16.329365901781546 M-60.6088720346684 -16.329365901781546 C-60.32419913233438 -16.766699925144238, -60.03952623000036 -17.204033948506932, -59.50730101980411 -18.021674793848344 M-60.6088720346684 -16.329365901781546 C-60.32538616659384 -16.76487632175839, -60.041900298519266 -17.200386741735233, -59.50730101980411 -18.021674793848344 M-59.50730101980411 -18.021674793848344 C-59.132326460085075 -18.524106542986704, -58.75735190036604 -19.026538292125068, -58.29956669774295 -19.639928758550102 M-59.50730101980411 -18.021674793848344 C-59.109905148458786 -18.55414905794243, -58.712509277113455 -19.086623322036512, -58.29956669774295 -19.639928758550102 M-58.29956669774295 -19.639928758550102 C-57.90027916575541 -20.108954613726873, -57.50099163376787 -20.57798046890364, -56.990631907872455 -21.177478043231467 M-58.29956669774295 -19.639928758550102 C-57.93722143508361 -20.06556012209929, -57.574876172424275 -20.491191485648475, -56.990631907872455 -21.177478043231467 M-56.990631907872455 -21.177478043231467 C-56.659723437712586 -21.51916820676219, -56.32881496755272 -21.86085837029291, -55.585875344009835 -22.628004528078403 M-56.990631907872455 -21.177478043231467 C-56.51604253660735 -21.667530533574705, -56.04145316534225 -22.157583023917947, -55.585875344009835 -22.628004528078403 M-55.585875344009835 -22.628004528078403 C-55.06666511699004 -23.099537518707972, -54.54745488997023 -23.571070509337545, -54.091069452195356 -23.98554768862771 M-55.585875344009835 -22.628004528078403 C-55.23899463492307 -22.943032410110376, -54.892113925836306 -23.258060292142353, -54.091069452195356 -23.98554768862771 M-54.091069452195356 -23.98554768862771 C-53.690124547873324 -24.305290580232533, -53.2891796435513 -24.62503347183735, -52.51235671047331 -25.244529088840626 M-54.091069452195356 -23.98554768862771 C-53.61346300846455 -24.366426117861796, -53.135856564733736 -24.74730454709588, -52.51235671047331 -25.244529088840626 M-52.51235671047331 -25.244529088840626 C-51.90085008026864 -25.671089642376035, -51.28934345006396 -26.09765019591145, -50.856224388132304 -26.39977530409297 M-52.51235671047331 -25.244529088840626 C-51.929367215987696 -25.65119732298533, -51.34637772150208 -26.057865557130036, -50.856224388132304 -26.39977530409297 M-50.856224388132304 -26.39977530409297 C-50.21099339728696 -26.790918122541598, -49.56576240644163 -27.182060940990226, -49.12947788812404 -27.446539179886763 M-50.856224388132304 -26.39977530409297 C-50.28950440413804 -26.743324288806587, -49.722784420143775 -27.086873273520204, -49.12947788812404 -27.446539179886763 M-49.12947788812404 -27.446539179886763 C-48.74567447097916 -27.64676917677343, -48.36187105383428 -27.84699917366009, -47.33921278220309 -28.3805193389262 M-49.12947788812404 -27.446539179886763 C-48.743948397806946 -27.647669668041768, -48.35841890748985 -27.848800156196774, -47.33921278220309 -28.3805193389262 M-47.33921278220309 -28.3805193389262 C-46.628312925065345 -28.695213617586077, -45.9174130679276 -29.009907896245956, -45.4927856537003 -29.19787785639968 M-47.33921278220309 -28.3805193389262 C-46.8813202819474 -28.583214765890972, -46.423427781691714 -28.78591019285575, -45.4927856537003 -29.19787785639968 M-45.4927856537003 -29.19787785639968 C-44.88942440118213 -29.419920374736645, -44.28606314866396 -29.64196289307361, -43.59778386774408 -29.895256030836055 M-45.4927856537003 -29.19787785639968 C-44.92536447841003 -29.406694094090344, -44.35794330311976 -29.61551033178101, -43.59778386774408 -29.895256030836055 M-43.59778386774408 -29.895256030836055 C-42.95732478888117 -30.08534092360426, -42.316865710018256 -30.27542581637246, -41.66199439314951 -30.469788185729417 M-43.59778386774408 -29.895256030836055 C-43.11548544106651 -30.038399672237855, -42.63318701438894 -30.181543313639654, -41.66199439314951 -30.469788185729417 M-41.66199439314951 -30.469788185729417 C-41.16061925868303 -30.584223788392876, -40.65924412421654 -30.698659391056335, -39.69337180409324 -30.919113445218553 M-41.66199439314951 -30.469788185729417 C-41.212808863915896 -30.572311851567477, -40.763623334682286 -30.674835517405533, -39.69337180409324 -30.919113445218553 M-39.69337180409324 -30.919113445218553 C-39.22570034487453 -30.9947229398987, -38.758028885655825 -31.070332434578848, -37.70000559306196 -31.24138543543225 M-39.69337180409324 -30.919113445218553 C-38.954837707519054 -31.03851391053521, -38.21630361094486 -31.157914375851867, -37.70000559306196 -31.24138543543225 M-37.70000559306196 -31.24138543543225 C-36.93739050933532 -31.31495399538053, -36.17477542560868 -31.388522555328816, -35.69008692939246 -31.435279871635593 M-37.70000559306196 -31.24138543543225 C-37.12212788135947 -31.29713260328056, -36.544250169656976 -31.35287977112887, -35.69008692939246 -31.435279871635593 M-35.69008692939246 -31.435279871635593 C-34.97441190010262 -31.45823017684798, -34.25873687081278 -31.48118048206037, -33.67187500000001 -31.5 M-35.69008692939246 -31.435279871635593 C-35.004316598753896 -31.4572711913682, -34.31854626811533 -31.479262511100806, -33.67187500000001 -31.5 M-33.67187500000001 -31.5 C-33.67187500000001 -31.5, -33.671875 -31.5, -33.671875 -31.5 M-33.67187500000001 -31.5 C-33.67187500000001 -31.5, -33.671875 -31.5, -33.671875 -31.5" stroke="#888" stroke-width="1.3" fill="none" stroke-dasharray="5 5" style="fill:#fafafa !important;stroke:#888 !important;stroke-dasharray:5 5 !important"/></g><g class="label" style="color:#666 !important" transform="translate(-49.796875, -24)"><rect/><foreignObject width="99.59375" height="48"><div style="color: rgb(102, 102, 102) !important; display: table-cell; white-space: nowrap; line-height: 1.5; max-width: 200px; text-align: center;" xmlns="http://www.w3.org/1999/xhtml"><span style="color:#666 !important" class="nodeLabel"><p>S-Miles Cloud<br /><i>optional</i></p></span></div></foreignObject></g></g><g class="node default grid" id="my-svg-flowchart-term_grid-1" data-look="classic" transform="translate(74.890625, 287.65427589416504)"><rect class="basic label-container" style="fill:#fef0ef !important;stroke:#e74c3c !important" x="-66.890625" y="-27" width="133.78125" height="54"/><g class="label" style="" transform="translate(-36.890625, -12)"><rect/><foreignObject width="73.78125" height="24"><div xmlns="http://www.w3.org/1999/xhtml" style="display: table-cell; white-space: nowrap; line-height: 1.5; max-width: 200px; text-align: center;"><span class="nodeLabel"><p>Utility Grid</p></span></div></foreignObject></g></g><g class="node default terminator" id="my-svg-flowchart-term_battery_system-2" data-look="classic" transform="translate(2135.3203125, 206.9375)"><rect class="basic label-container" style="fill:#fafafa !important;stroke:#444 !important" x="-84.2421875" y="-27" width="168.484375" height="54"/><g class="label" style="" transform="translate(-54.2421875, -12)"><rect/><foreignObject width="108.484375" height="24"><div xmlns="http://www.w3.org/1999/xhtml" style="display: table-cell; white-space: nowrap; line-height: 1.5; max-width: 200px; text-align: center;"><span class="nodeLabel"><p>Battery System</p></span></div></foreignObject></g></g><g class="node default terminator" id="my-svg-flowchart-term_user-3" data-look="classic" transform="translate(2135.3203125, 676.771505355835)"><rect class="basic label-container" style="fill:#fafafa !important;stroke:#444 !important" x="-46.890625" y="-27" width="93.78125" height="54"/><g class="label" style="" transform="translate(-16.890625, -12)"><rect/><foreignObject width="33.78125" height="24"><div xmlns="http://www.w3.org/1999/xhtml" style="display: table-cell; white-space: nowrap; line-height: 1.5; max-width: 200px; text-align: center;"><span class="nodeLabel"><p>User</p></span></div></foreignObject></g></g><g class="node default terminator" id="my-svg-flowchart-term_inverters-4" data-look="classic" transform="translate(281.8046875, 406.6875)"><rect class="basic label-container" style="fill:#fafafa !important;stroke:#444 !important" x="-82.0234375" y="-27" width="164.046875" height="54"/><g class="label" style="" transform="translate(-52.0234375, -12)"><rect/><foreignObject width="104.046875" height="24"><div xmlns="http://www.w3.org/1999/xhtml" style="display: table-cell; white-space: nowrap; line-height: 1.5; max-width: 200px; text-align: center;"><span class="nodeLabel"><p>Solar Inverters</p></span></div></foreignObject></g></g><g class="node default terminator" id="my-svg-flowchart-term_meter-5" data-look="classic" transform="translate(281.8046875, 269.9375)"><rect class="basic label-container" style="fill:#fafafa !important;stroke:#444 !important" x="-90.0234375" y="-27" width="180.046875" height="54"/><g class="label" style="" transform="translate(-60.0234375, -12)"><rect/><foreignObject width="120.046875" height="24"><div xmlns="http://www.w3.org/1999/xhtml" style="display: table-cell; white-space: nowrap; line-height: 1.5; max-width: 200px; text-align: center;"><span class="nodeLabel"><p>Net Power Meter</p></span></div></foreignObject></g></g><g class="node default proc" id="my-svg-flowchart-proc_acquire_telemetry-6" data-look="classic" transform="translate(675.5234375, 435.25390625)"><circle class="basic label-container" style="fill:#cfe5ff !important;stroke:#2a70c2 !important" r="71.3828125" cx="0" cy="0"/><g class="label" style="color:#000 !important" transform="translate(-63.8828125, -12)"><rect/><foreignObject width="127.765625" height="24"><div style="color: rgb(0, 0, 0) !important; display: table-cell; white-space: nowrap; line-height: 1.5; max-width: 200px; text-align: center;" xmlns="http://www.w3.org/1999/xhtml"><span style="color:#000 !important" class="nodeLabel"><p>Acquire Telemetry</p></span></div></foreignObject></g></g><g class="node default brain" id="my-svg-flowchart-proc_compute_balance-7" data-look="classic" transform="translate(1309.765625, 576.029317855835)"><circle class="basic label-container" style="fill:#7fbff5 !important;stroke:#1f5a99 !important" r="69.7421875" cx="0" cy="0"/><g class="label" style="color:#000 !important;font-weight:bold !important" transform="translate(-62.2421875, -12)"><rect/><foreignObject width="124.484375" height="24"><div style="color: rgb(0, 0, 0) !important; font-weight: bold !important; display: table-cell; white-space: nowrap; line-height: 1.5; max-width: 200px; text-align: center;" xmlns="http://www.w3.org/1999/xhtml"><span style="color:#000 !important;font-weight:bold !important" class="nodeLabel"><p>Energy Manager</p></span></div></foreignObject></g></g><g class="node default proc" id="my-svg-flowchart-proc_dispatch_commands-8" data-look="classic" transform="translate(1719.328125, 323.6875)"><circle class="basic label-container" style="fill:#cfe5ff !important;stroke:#2a70c2 !important" r="81.75" cx="0" cy="0"/><g class="label" style="color:#000 !important" transform="translate(-74.25, -12)"><rect/><foreignObject width="148.5" height="24"><div style="color: rgb(0, 0, 0) !important; display: table-cell; white-space: nowrap; line-height: 1.5; max-width: 200px; text-align: center;" xmlns="http://www.w3.org/1999/xhtml"><span style="color:#000 !important" class="nodeLabel"><p>Dispatch Commands</p></span></div></foreignObject></g></g><g class="node default proc" id="my-svg-flowchart-proc_serve_ui-9" data-look="classic" transform="translate(1719.328125, 676.771505355835)"><circle class="basic label-container" style="fill:#cfe5ff !important;stroke:#2a70c2 !important" r="38.625" cx="0" cy="0"/><g class="label" style="color:#000 !important" transform="translate(-31.125, -12)"><rect/><foreignObject width="62.25" height="24"><div style="color: rgb(0, 0, 0) !important; display: table-cell; white-space: nowrap; line-height: 1.5; max-width: 200px; text-align: center;" xmlns="http://www.w3.org/1999/xhtml"><span style="color:#000 !important" class="nodeLabel"><p>Serve UI</p></span></div></foreignObject></g></g><g class="node default proc" id="my-svg-flowchart-proc_handle_user_input-10" data-look="classic" transform="translate(2459.3828125, 579.1328544616699)"><circle class="basic label-container" style="fill:#cfe5ff !important;stroke:#2a70c2 !important" r="52.8671875" cx="0" cy="0"/><g class="label" style="color:#000 !important" transform="translate(-45.3671875, -12)"><rect/><foreignObject width="90.734375" height="24"><div style="color: rgb(0, 0, 0) !important; display: table-cell; white-space: nowrap; line-height: 1.5; max-width: 200px; text-align: center;" xmlns="http://www.w3.org/1999/xhtml"><span style="color:#000 !important" class="nodeLabel"><p>Handle Input</p></span></div></foreignObject></g></g><g class="node default optional" id="my-svg-flowchart-proc_cloud_forward-11" data-look="classic" transform="translate(1309.765625, 67.96875)"><circle class="basic label-container" style="fill:#e6f0ff !important;stroke:#888 !important;stroke-dasharray:3 3 !important" r="59.96875" cx="0" cy="0"/><g class="label" style="" transform="translate(-52.46875, -12)"><rect/><foreignObject width="104.9375" height="24"><div xmlns="http://www.w3.org/1999/xhtml" style="display: table-cell; white-space: nowrap; line-height: 1.5; max-width: 200px; text-align: center;"><span class="nodeLabel"><p>Cloud Forward</p></span></div></foreignObject></g></g><g class="node default store" id="my-svg-flowchart-store_system_state-12" data-look="classic" transform="translate(1000.9921875, 399.22068214416504)"><path d="M0,11.710963455149502 a55.078125,11.710963455149502 0,0,0 110.15625,0 a55.078125,11.710963455149502 0,0,0 -110.15625,0 l0,50.7109634551495 a55.078125,11.710963455149502 0,0,0 110.15625,0 l0,-50.7109634551495" class="basic label-container outer-path" style="fill:#fff5cc !important;stroke:#b89800 !important" transform="translate(-55.078125, -37.06644518272425)"/><g class="label" style="" transform="translate(-47.578125, -2)"><rect/><foreignObject width="95.15625" height="24"><div xmlns="http://www.w3.org/1999/xhtml" style="display: table-cell; white-space: nowrap; line-height: 1.5; max-width: 200px; text-align: center;"><span class="nodeLabel"><p>System State</p></span></div></foreignObject></g></g></g></g></g><defs><filter id="my-svg-drop-shadow" height="130%" width="130%"><feDropShadow dx="4" dy="4" stdDeviation="0" flood-opacity="0.06" flood-color="#000000"/></filter></defs><defs><filter id="my-svg-drop-shadow-small" height="150%" width="150%"><feDropShadow dx="2" dy="2" stdDeviation="0" flood-opacity="0.06" flood-color="#000000"/></filter></defs></svg>