<svg id="my-svg" width="100%" xmlns="http://www.w3.org/2000/svg" xmlns:xlink="http://www.w3.org/1999/xlink" class="flowchart" style="max-width: 2541.61px; background-color: white;" viewBox="0 -35 2541.609375 764.1875" role="graphics-document document" aria-roledescription="flowchart-v2"><style>#my-svg{font-family:"trebuchet ms",verdana,arial,sans-serif;font-size:16px;fill:#333;}@keyframes edge-animation-frame{from{stroke-dashoffset:0;}}@keyframes dash{to{stroke-dashoffset:0;}}#my-svg .edge-animation-slow{stroke-dasharray:9,5!important;stroke-dashoffset:900;animation:dash 50s linear infinite;stroke-linecap:round;}#my-svg .edge-animation-fast{stroke-dasharray:9,5!important;stroke-dashoffset:900;animation:dash 20s linear infinite;stroke-linecap:round;}#my-svg .error-icon{fill:#552222;}#my-svg .error-text{fill:#552222;stroke:#552222;}#my-svg .edge-thickness-normal{stroke-width:1px;}#my-svg .edge-thickness-thick{stroke-width:3.5px;}#my-svg .edge-pattern-solid{stroke-dasharray:0;}#my-svg .edge-thickness-invisible{stroke-width:0;fill:none;}#my-svg .edge-pattern-dashed{stroke-dasharray:3;}#my-svg .edge-pattern-dotted{stroke-dasharray:2;}#my-svg .marker{fill:#333333;stroke:#333333;}#my-svg .marker.cross{stroke:#333333;}#my-svg svg{font-family:"trebuchet ms",verdana,arial,sans-serif;font-size:16px;}#my-svg p{margin:0;}#my-svg .label{font-family:"trebuchet ms",verdana,arial,sans-serif;color:#333;}#my-svg .cluster-label text{fill:#333;}#my-svg .cluster-label span{color:#333;}#my-svg .cluster-label span p{background-color:transparent;}#my-svg .label text,#my-svg span{fill:#333;color:#333;}#my-svg .node rect,#my-svg .node circle,#my-svg .node ellipse,#my-svg .node polygon,#my-svg .node path{fill:#ECECFF;stroke:#9370DB;stroke-width:1px;}#my-svg .rough-node .label text,#my-svg .node .label text,#my-svg .image-shape .label,#my-svg .icon-shape .label{text-anchor:middle;}#my-svg .node .katex path{fill:#000;stroke:#000;stroke-width:1px;}#my-svg .rough-node .label,#my-svg .node .label,#my-svg .image-shape .label,#my-svg .icon-shape .label{text-align:center;}#my-svg .node.clickable{cursor:pointer;}#my-svg .root .anchor path{fill:#333333!important;stroke-width:0;stroke:#333333;}#my-svg .arrowheadPath{fill:#333333;}#my-svg .edgePath .path{stroke:#333333;stroke-width:1px;}#my-svg .flowchart-link{stroke:#333333;fill:none;}#my-svg .edgeLabel{background-color:rgba(232,232,232, 0.8);text-align:center;}#my-svg .edgeLabel p{background-color:rgba(232,232,232, 0.8);}#my-svg .edgeLabel rect{opacity:0.5;background-color:rgba(232,232,232, 0.8);fill:rgba(232,232,232, 0.8);}#my-svg .labelBkg{background-color:rgba(232, 232, 232, 0.5);}#my-svg .cluster rect{fill:#ffffde;stroke:#aaaa33;stroke-width:1px;}#my-svg .cluster text{fill:#333;}#my-svg .cluster span{color:#333;}#my-svg div.mermaidTooltip{position:absolute;text-align:center;max-width:200px;padding:2px;font-family:"trebuchet ms",verdana,arial,sans-serif;font-size:12px;background:hsl(80, 100%, 96.2745098039%);border:1px solid #aaaa33;border-radius:2px;pointer-events:none;z-index:100;}#my-svg .flowchartTitleText{text-anchor:middle;font-size:18px;fill:#333;}#my-svg rect.text{fill:none;stroke-width:0;}#my-svg .icon-shape,#my-svg .image-shape{background-color:rgba(232,232,232, 0.8);text-align:center;}#my-svg .icon-shape p,#my-svg .image-shape p{background-color:rgba(232,232,232, 0.8);padding:2px;}#my-svg .icon-shape .label rect,#my-svg .image-shape .label rect{opacity:0.5;background-color:rgba(232,232,232, 0.8);fill:rgba(232,232,232, 0.8);}#my-svg .label-icon{display:inline-block;height:1em;overflow:visible;vertical-align:-0.125em;}#my-svg .node .label-icon path{fill:currentColor;stroke:revert;stroke-width:revert;}#my-svg .node .neo-node{stroke:#9370DB;}#my-svg [data-look="neo"].node rect,#my-svg [data-look="neo"].cluster rect,#my-svg [data-look="neo"].node polygon{stroke:#9370DB;filter:drop-shadow(1px 2px 2px rgba(185, 185, 185, 1));}#my-svg [data-look="neo"].node path{stroke:#9370DB;stroke-width:1px;}#my-svg [data-look="neo"].node .outer-path{filter:drop-shadow(1px 2px 2px rgba(185, 185, 185, 1));}#my-svg [data-look="neo"].node .neo-line path{stroke:#9370DB;filter:none;}#my-svg [data-look="neo"].node circle{stroke:#9370DB;filter:drop-shadow(1px 2px 2px rgba(185, 185, 185, 1));}#my-svg [data-look="neo"].node circle .state-start{fill:#000000;}#my-svg [data-look="neo"].icon-shape .icon{fill:#9370DB;filter:drop-shadow(1px 2px 2px rgba(185, 185, 185, 1));}#my-svg [data-look="neo"].icon-shape .icon-neo path{stroke:#9370DB;filter:drop-shadow(1px 2px 2px rgba(185, 185, 185, 1));}#my-svg :root{--mermaid-font-family:"trebuchet ms",verdana,arial,sans-serif;}#my-svg .proc&gt;*{fill:rgb(207, 229, 255)!important;stroke:rgb(42, 112, 194)!important;color:rgb(0, 0, 0)!important;}#my-svg .proc span{fill:rgb(207, 229, 255)!important;stroke:rgb(42, 112, 194)!important;color:rgb(0, 0, 0)!important;}#my-svg .proc tspan{fill:rgb(0, 0, 0)!important;}#my-svg .brain&gt;*{fill:rgb(127, 191, 245)!important;stroke:rgb(31, 90, 153)!important;color:rgb(0, 0, 0)!important;font-weight:bold!important;}#my-svg .brain span{fill:rgb(127, 191, 245)!important;stroke:rgb(31, 90, 153)!important;color:rgb(0, 0, 0)!important;font-weight:bold!important;}#my-svg .brain tspan{fill:rgb(0, 0, 0)!important;}#my-svg .optional&gt;*{fill:rgb(230, 240, 255)!important;stroke:rgb(136, 136, 136)!important;stroke-dasharray:3,3!important;}#my-svg .optional span{fill:rgb(230, 240, 255)!important;stroke:rgb(136, 136, 136)!important;stroke-dasharray:3,3!important;}#my-svg .terminator&gt;*{fill:rgb(250, 250, 250)!important;stroke:rgb(68, 68, 68)!important;}#my-svg .terminator span{fill:rgb(250, 250, 250)!important;stroke:rgb(68, 68, 68)!important;}#my-svg .store&gt;*{fill:rgb(255, 245, 204)!important;stroke:rgb(184, 152, 0)!important;}#my-svg .store span{fill:rgb(255, 245, 204)!important;stroke:rgb(184, 152, 0)!important;}#my-svg .grid&gt;*{fill:rgb(254, 240, 239)!important;stroke:rgb(231, 76, 60)!important;}#my-svg .grid span{fill:rgb(254, 240, 239)!important;stroke:rgb(231, 76, 60)!important;}#my-svg .termopt&gt;*{fill:rgb(250, 250, 250)!important;stroke:rgb(136, 136, 136)!important;stroke-dasharray:5,5!important;color:rgb(102, 102, 102)!important;}#my-svg .termopt span{fill:rgb(250, 250, 250)!important;stroke:rgb(136, 136, 136)!important;stroke-dasharray:5,5!important;color:rgb(102, 102, 102)!important;}#my-svg .termopt tspan{fill:rgb(102, 102, 102)!important;}</style><g><marker id="my-svg_flowchart-v2-pointEnd" class="marker flowchart-v2" viewBox="0 0 10 10" refX="5" refY="5" markerUnits="userSpaceOnUse" markerWidth="8" markerHeight="8" orient="auto"><path d="M 0 0 L 10 5 L 0 10 z" class="arrowMarkerPath" style="stroke-width: 1; stroke-dasharray: 1, 0;"/></marker><marker id="my-svg_flowchart-v2-pointStart" class="marker flowchart-v2" viewBox="0 0 10 10" refX="4.5" refY="5" markerUnits="userSpaceOnUse" markerWidth="8" markerHeight="8" orient="auto"><path d="M 0 5 L 10 10 L 10 0 z" class="arrowMarkerPath" style="stroke-width: 1; stroke-dasharray: 1, 0;"/></marker><marker id="my-svg_flowchart-v2-pointEnd-margin" class="marker flowchart-v2" viewBox="0 0 11.5 14" refX="11.5" refY="7" markerUnits="userSpaceOnUse" markerWidth="10.5" markerHeight="14" orient="auto"><path d="M 0 0 L 11.5 7 L 0 14 z" class="arrowMarkerPath" style="stroke-width: 0; stroke-dasharray: 1, 0;"/></marker><marker id="my-svg_flowchart-v2-pointStart-margin" class="marker flowchart-v2" viewBox="0 0 11.5 14" refX="1" refY="7" markerUnits="userSpaceOnUse" markerWidth="11.5" markerHeight="14" orient="auto"><polygon points="0,7 11.5,14 11.5,0" class="arrowMarkerPath" style="stroke-width: 0; stroke-dasharray: 1, 0;"/></marker><marker id="my-svg_flowchart-v2-circleEnd" class="marker flowchart-v2" viewBox="0 0 10 10" refX="11" refY="5" markerUnits="userSpaceOnUse" markerWidth="11" markerHeight="11" orient="auto"><circle cx="5" cy="5" r="5" class="arrowMarkerPath" style="stroke-width: 1; stroke-dasharray: 1, 0;"/></marker><marker id="my-svg_flowchart-v2-circleStart" class="marker flowchart-v2" viewBox="0 0 10 10" refX="-1" refY="5" markerUnits="userSpaceOnUse" markerWidth="11" markerHeight="11" orient="auto"><circle cx="5" cy="5" r="5" class="arrowMarkerPath" style="stroke-width: 1; stroke-dasharray: 1, 0;"/></marker><marker id="my-svg_flowchart-v2-circleEnd-margin" class="marker flowchart-v2" viewBox="0 0 10 10" refY="5" refX="12.25" markerUnits="userSpaceOnUse" markerWidth="14" markerHeight="14" orient="auto"><circle cx="5" cy="5" r="5" class="arrowMarkerPath" style="stroke-width: 0; stroke-dasharray: 1, 0;"/></marker><marker id="my-svg_flowchart-v2-circleStart-margin" class="marker flowchart-v2" viewBox="0 0 10 10" refX="-2" refY="5" markerUnits="userSpaceOnUse" markerWidth="14" markerHeight="14" orient="auto"><circle cx="5" cy="5" r="5" class="arrowMarkerPath" style="stroke-width: 0; stroke-dasharray: 1, 0;"/></marker><marker id="my-svg_flowchart-v2-crossEnd" class="marker cross flowchart-v2" viewBox="0 0 11 11" refX="12" refY="5.2" markerUnits="userSpaceOnUse" markerWidth="11" markerHeight="11" orient="auto"><path d="M 1,1 l 9,9 M 10,1 l -9,9" class="arrowMarkerPath" style="stroke-width: 2; stroke-dasharray: 1, 0;"/></marker><marker id="my-svg_flowchart-v2-crossStart" class="marker cross flowchart-v2" viewBox="0 0 11 11" refX="-1" refY="5.2" markerUnits="userSpaceOnUse" markerWidth="11" markerHeight="11" orient="auto"><path d="M 1,1 l 9,9 M 10,1 l -9,9" class="arrowMarkerPath" style="stroke-width: 2; stroke-dasharray: 1, 0;"/></marker><marker id="my-svg_flowchart-v2-crossEnd-margin" class="marker cross flowchart-v2" viewBox="0 0 15 15" refX="17.7" refY="7.5" markerUnits="userSpaceOnUse" markerWidth="12" markerHeight="12" orient="auto"><path d="M 1,1 L 14,14 M 1,14 L 14,1" class="arrowMarkerPath" style="stroke-width: 2.5;"/></marker><marker id="my-svg_flowchart-v2-crossStart-margin" class="marker cross flowchart-v2" viewBox="0 0 15 15" refX="-3.5" refY="7.5" markerUnits="userSpaceOnUse" markerWidth="12" markerHeight="12" orient="auto"><path d="M 1,1 L 14,14 M 1,14 L 14,1" class="arrowMarkerPath" style="stroke-width: 2.5; stroke-dasharray: 1, 0;"/></marker><g class="root"><g class="clusters"/><g class="edgePaths"><path d="M2149.254,63.938L2118.575,149.822C2087.896,235.707,2026.538,407.477,1963.618,493.361C1900.698,579.246,1836.216,579.246,1769.517,579.246C1702.818,579.246,1633.901,579.246,1563.417,579.246C1492.932,579.246,1420.88,579.246,1357.639,579.246C1294.398,579.246,1239.969,579.246,1184.065,579.246C1128.161,579.246,1070.784,579.246,1011.479,579.246C952.174,579.246,890.943,579.246,847.044,579.246C803.146,579.246,776.581,579.246,763.298,579.246L750.016,579.246" id="my-svg-L_term_inverters_proc_acquire_telemetry_0" class="edge-thickness-normal edge-pattern-solid edge-thickness-normal edge-pattern-solid flowchart-link" style=";" data-edge="true" data-et="edge" data-id="L_term_inverters_proc_acquire_telemetry_0" data-points="W3sieCI6MjE0OS4yNTM3MzI3ODcwNzU1LCJ5Ijo2My45Mzc1fSx7IngiOjE5NjUuMTc5Njg3NSwieSI6NTc5LjI0NjA5Mzc1fSx7IngiOjE3NzEuNzM0Mzc1LCJ5Ijo1NzkuMjQ2MDkzNzV9LHsieCI6MTU2NC45ODQzNzUsInkiOjU3OS4yNDYwOTM3NX0seyJ4IjoxMzQ4LjgyODEyNSwieSI6NTc5LjI0NjA5Mzc1fSx7IngiOjExODUuNTM5MDYyNSwieSI6NTc5LjI0NjA5Mzc1fSx7IngiOjEwMTMuNDA2MjUsInkiOjU3OS4yNDYwOTM3NX0seyJ4Ijo4MjkuNzEwOTM3NSwieSI6NTc5LjI0NjA5Mzc1fSx7IngiOjc0Ni4wMTU2MjUsInkiOjU3OS4yNDYwOTM3NX1d" data-look="classic" marker-end="url(#my-svg_flowchart-v2-pointEnd)"/><path d="M1853.484,89.75L1872.1,89.75C1890.716,89.75,1927.948,89.75,1964.536,84.85C2001.125,79.95,2037.07,70.151,2055.043,65.251L2073.016,60.351" id="my-svg-L_proc_dispatch_commands_term_inverters_0" class="edge-thickness-normal edge-pattern-solid edge-thickness-normal edge-pattern-solid flowchart-link" style=";" data-edge="true" data-et="edge" data-id="L_proc_dispatch_commands_term_inverters_0" data-points="W3sieCI6MTg1My40ODQzNzUsInkiOjg5Ljc1fSx7IngiOjE5NjUuMTc5Njg3NSwieSI6ODkuNzV9LHsieCI6MjA3Ni44NzUsInkiOjU5LjI5OTEwODIyMzEwMDUwNH1d" data-look="classic" marker-end="url(#my-svg_flowchart-v2-pointEnd)"/><path d="M371.828,57.191L391.113,57.191C410.398,57.191,448.969,57.191,495.198,132.373C541.426,207.555,595.314,357.919,622.257,433.101L649.201,508.283" id="my-svg-L_term_meter_proc_acquire_telemetry_0" class="edge-thickness-normal edge-pattern-solid edge-thickness-normal edge-pattern-solid flowchart-link" style=";" data-edge="true" data-et="edge" data-id="L_term_meter_proc_acquire_telemetry_0" data-points="W3sieCI6MzcxLjgyODEyNSwieSI6NTcuMTkxNDA2MjV9LHsieCI6NDg3LjUzOTA2MjUsInkiOjU3LjE5MTQwNjI1fSx7IngiOjY1MC41NTA0ODM3Mjg3NzgsInkiOjUxMi4wNDgyNzExNTYwNzI3fV0=" data-look="classic" marker-end="url(#my-svg_flowchart-v2-pointEnd)"/><path d="M365.493,657.438L385.834,650.875C406.175,644.313,446.857,631.188,486.079,620.708C525.3,610.228,563.061,602.394,581.941,598.477L600.822,594.56" id="my-svg-L_term_battery_system_proc_acquire_telemetry_0" class="edge-thickness-normal edge-pattern-solid edge-thickness-normal edge-pattern-solid flowchart-link" style=";" data-edge="true" data-et="edge" data-id="L_term_battery_system_proc_acquire_telemetry_0" data-points="W3sieCI6MzY1LjQ5MzI0NjgyMjAzMzksInkiOjY1Ny40Mzc1fSx7IngiOjQ4Ny41MzkwNjI1LCJ5Ijo2MTguMDYyNX0seyJ4Ijo2MDQuNzM4NDE3MjMzNzQ1NywieSI6NTkzLjc0NzEwODU2ODc5fV0=" data-look="classic" marker-end="url(#my-svg_flowchart-v2-pointEnd)"/><path d="M1745.394,167.14L1715.325,255.481C1685.257,343.823,1625.121,520.505,1559.027,608.846C1492.932,697.188,1420.88,697.188,1357.639,697.188C1294.398,697.188,1239.969,697.188,1184.065,697.188C1128.161,697.188,1070.784,697.188,1011.479,697.188C952.174,697.188,890.943,697.188,834.48,697.188C778.018,697.188,726.326,697.188,669.297,697.188C612.268,697.188,549.904,697.188,499.138,695.974C448.372,694.76,409.206,692.333,389.623,691.119L370.039,689.906" id="my-svg-L_proc_dispatch_commands_term_battery_system_0" class="edge-thickness-normal edge-pattern-solid edge-thickness-normal edge-pattern-solid flowchart-link" style=";" data-edge="true" data-et="edge" data-id="L_proc_dispatch_commands_term_battery_system_0" data-points="W3sieCI6MTc0NS4zOTM1NjA2ODIzNjg2LCJ5IjoxNjcuMTQwMDc2ODkwMjgzOTh9LHsieCI6MTU2NC45ODQzNzUsInkiOjY5Ny4xODc1fSx7IngiOjEzNDguODI4MTI1LCJ5Ijo2OTcuMTg3NX0seyJ4IjoxMTg1LjUzOTA2MjUsInkiOjY5Ny4xODc1fSx7IngiOjEwMTMuNDA2MjUsInkiOjY5Ny4xODc1fSx7IngiOjgyOS43MTA5Mzc1LCJ5Ijo2OTcuMTg3NX0seyJ4Ijo2NzQuNjMyODEyNSwieSI6Njk3LjE4NzV9LHsieCI6NDg3LjUzOTA2MjUsInkiOjY5Ny4xODc1fSx7IngiOjM2Ni4wNDY4NzUsInkiOjY4OS42NTgyNTA3NDA0ODc2fV0=" data-look="classic" marker-end="url(#my-svg_flowchart-v2-pointEnd)"/><path d="M2212.461,260.125L2232.784,260.125C2253.107,260.125,2293.753,260.125,2329.567,265.802C2365.381,271.479,2396.364,282.833,2411.856,288.51L2427.347,294.187" id="my-svg-L_term_user_proc_handle_user_input_0" class="edge-thickness-normal edge-pattern-solid edge-thickness-normal edge-pattern-solid flowchart-link" style=";" data-edge="true" data-et="edge" data-id="L_term_user_proc_handle_user_input_0" data-points="W3sieCI6MjIxMi40NjA5Mzc1LCJ5IjoyNjAuMTI1fSx7IngiOjIzMzQuMzk4NDM3NSwieSI6MjYwLjEyNX0seyJ4IjoyNDMxLjEwMzA5Nzc1MDk2MjcsInkiOjI5NS41NjMyNDE1Mjc0Nzg4NX1d" data-look="classic" marker-end="url(#my-svg_flowchart-v2-pointEnd)"/><path d="M1810.359,260.125L1836.163,260.125C1861.966,260.125,1913.573,260.125,1962.069,260.125C2010.565,260.125,2055.951,260.125,2078.643,260.125L2101.336,260.125" id="my-svg-L_proc_serve_ui_term_user_0" class="edge-thickness-normal edge-pattern-solid edge-thickness-normal edge-pattern-solid flowchart-link" style=";" data-edge="true" data-et="edge" data-id="L_proc_serve_ui_term_user_0" data-points="W3sieCI6MTgxMC4zNTkzNzUsInkiOjI2MC4xMjV9LHsieCI6MTk2NS4xNzk2ODc1LCJ5IjoyNjAuMTI1fSx7IngiOjIxMDUuMzM1OTM3NSwieSI6MjYwLjEyNX1d" data-look="classic" marker-end="url(#my-svg_flowchart-v2-pointEnd)"/><path d="M1408.797,472.277L1434.828,472.277C1460.859,472.277,1512.922,472.277,1561.969,472.358C1611.016,472.439,1657.047,472.601,1680.063,472.682L1703.079,472.763" id="my-svg-L_proc_cloud_forward_term_smiles_cloud_0" class="edge-thickness-normal edge-pattern-dotted edge-thickness-normal edge-pattern-solid flowchart-link" style=";" data-edge="true" data-et="edge" data-id="L_proc_cloud_forward_term_smiles_cloud_0" data-points="W3sieCI6MTQwOC43OTY4NzUsInkiOjQ3Mi4yNzczNDM3NX0seyJ4IjoxNTY0Ljk4NDM3NSwieSI6NDcyLjI3NzM0Mzc1fSx7IngiOjE3MDcuMDc4NjgxOTQ1ODQzOCwieSI6NDcyLjc3NzM0Mzc1fV0=" data-look="classic" marker-end="url(#my-svg_flowchart-v2-pointEnd)"/><path d="M81.743,308.094L95.916,252.245C110.089,196.396,138.435,84.698,171.779,28.849C205.122,-27,243.464,-27,296.923,-27C350.383,-27,418.961,-27,484.432,-27C549.904,-27,612.268,-27,669.297,-27C726.326,-27,778.018,-27,834.48,-27C890.943,-27,952.174,-27,1011.479,-27C1070.784,-27,1128.161,-27,1184.065,-27C1239.969,-27,1294.398,-27,1357.639,-27C1420.88,-27,1492.932,-27,1563.417,-27C1633.901,-27,1702.818,-27,1769.517,-27C1836.216,-27,1900.698,-27,1951.591,-20.844C2002.484,-14.687,2039.789,-2.375,2058.441,3.781L2077.093,9.938" id="my-svg-L_term_grid_term_inverters_0" class="edge-thickness-normal edge-pattern-solid edge-thickness-normal edge-pattern-solid flowchart-link" style=";" data-edge="true" data-et="edge" data-id="L_term_grid_term_inverters_0" data-points="W3sieCI6ODEuNzQyNTcxMTQ2NTQzNTQsInkiOjMwOC4wOTM3NX0seyJ4IjoxNjYuNzgxMjUsInkiOi0yN30seyJ4IjoyODEuODA0Njg3NSwieSI6LTI3fSx7IngiOjQ4Ny41MzkwNjI1LCJ5IjotMjd9LHsieCI6Njc0LjYzMjgxMjUsInkiOi0yN30seyJ4Ijo4MjkuNzEwOTM3NSwieSI6LTI3fSx7IngiOjEwMTMuNDA2MjUsInkiOi0yN30seyJ4IjoxMTg1LjUzOTA2MjUsInkiOi0yN30seyJ4IjoxMzQ4LjgyODEyNSwieSI6LTI3fSx7IngiOjE1NjQuOTg0Mzc1LCJ5IjotMjd9LHsieCI6MTc3MS43MzQzNzUsInkiOi0yN30seyJ4IjoxOTY1LjE3OTY4NzUsInkiOi0yN30seyJ4IjoyMDc3LjA5MzQ1MjE2Mjc1NjQsInkiOjkuOTM3NX1d" data-look="classic"/><path d="M81.993,362.094L96.124,415.818C110.256,469.542,138.518,576.99,157.78,630.714C177.042,684.438,187.302,684.438,192.432,684.438L197.563,684.438" id="my-svg-L_term_grid_term_battery_system_0" class="edge-thickness-normal edge-pattern-solid edge-thickness-normal edge-pattern-solid flowchart-link" style=";" data-edge="true" data-et="edge" data-id="L_term_grid_term_battery_system_0" data-points="W3sieCI6ODEuOTkyNjQ2NjQ3NzMyMzYsInkiOjM2Mi4wOTM3NX0seyJ4IjoxNjYuNzgxMjUsInkiOjY4NC40Mzc1fSx7IngiOjE5Ny41NjI1LCJ5Ijo2ODQuNDM3NX1d" data-look="classic"/><path d="M716.528,521.45L735.391,495.427C754.255,469.403,791.983,417.356,831.617,391.332C871.25,365.309,912.789,365.309,933.559,365.309L954.328,365.309" id="my-svg-L_proc_acquire_telemetry_store_system_state_0" class="edge-thickness-normal edge-pattern-solid edge-thickness-normal edge-pattern-solid flowchart-link" style=";" data-edge="true" data-et="edge" data-id="L_proc_acquire_telemetry_store_system_state_0" data-points="W3sieCI6NzE2LjUyNzUwNDg2NjcwOTksInkiOjUyMS40NTA0MTMzNTg1NjV9LHsieCI6ODI5LjcxMDkzNzUsInkiOjM2NS4zMDg1OTM3NX0seyJ4Ijo5NTguMzI4MTI1LCJ5IjozNjUuMzA4NTkzNzV9XQ==" data-look="classic" marker-end="url(#my-svg_flowchart-v2-pointEnd)"/><path d="M1057.967,333.07L1079.229,314.579C1100.491,296.088,1143.015,259.107,1179.202,240.616C1215.388,222.125,1245.237,222.125,1260.161,222.125L1275.086,222.125" id="my-svg-L_store_system_state_proc_compute_balance_0" class="edge-thickness-normal edge-pattern-solid edge-thickness-normal edge-pattern-solid flowchart-link" style=";" data-edge="true" data-et="edge" data-id="L_store_system_state_proc_compute_balance_0" data-points="W3sieCI6MTA1Ny45NjY4ODU4NDQ5MTc0LCJ5IjozMzMuMDcwMDE1NDE5MzY4OX0seyJ4IjoxMTg1LjUzOTA2MjUsInkiOjIyMi4xMjV9LHsieCI6MTI3OS4wODU5Mzc1LCJ5IjoyMjIuMTI1fV0=" data-look="classic" marker-end="url(#my-svg_flowchart-v2-pointEnd)"/><path d="M1068.484,365.309L1087.993,365.309C1107.503,365.309,1146.521,365.309,1193.245,365.309C1239.969,365.309,1294.398,365.309,1357.639,365.309C1420.88,365.309,1492.932,365.309,1557.085,350.999C1621.237,336.69,1677.49,308.071,1705.617,293.762L1733.743,279.453" id="my-svg-L_store_system_state_proc_serve_ui_0" class="edge-thickness-normal edge-pattern-solid edge-thickness-normal edge-pattern-solid flowchart-link" style=";" data-edge="true" data-et="edge" data-id="L_store_system_state_proc_serve_ui_0" data-points="W3sieCI6MTA2OC40ODQzNzUsInkiOjM2NS4zMDg1OTM3NX0seyJ4IjoxMTg1LjUzOTA2MjUsInkiOjM2NS4zMDg1OTM3NX0seyJ4IjoxMzQ4LjgyODEyNSwieSI6MzY1LjMwODU5Mzc1fSx7IngiOjE1NjQuOTg0Mzc1LCJ5IjozNjUuMzA4NTkzNzV9LHsieCI6MTczNy4zMDg0MjQ0MDMxODMsInkiOjI3Ny42MzkxMjQzMTQ1NDk4Nn1d" data-look="classic" marker-end="url(#my-svg_flowchart-v2-pointEnd)"/><path d="M1068.484,387.825L1087.993,401.9C1107.503,415.976,1146.521,444.127,1182.583,458.202C1218.646,472.277,1251.753,472.277,1268.306,472.277L1284.859,472.277" id="my-svg-L_store_system_state_proc_cloud_forward_0" class="edge-thickness-normal edge-pattern-dotted edge-thickness-normal edge-pattern-solid flowchart-link" style=";" data-edge="true" data-et="edge" data-id="L_store_system_state_proc_cloud_forward_0" data-points="W3sieCI6MTA2OC40ODQzNzUsInkiOjM4Ny44MjQ5MTE1MzIwODU1NH0seyJ4IjoxMTg1LjUzOTA2MjUsInkiOjQ3Mi4yNzczNDM3NX0seyJ4IjoxMjg4Ljg1OTM3NSwieSI6NDcyLjI3NzM0Mzc1fV0=" data-look="classic" marker-end="url(#my-svg_flowchart-v2-pointEnd)"/><path d="M1402.43,177.506L1429.522,154.954C1456.614,132.401,1510.799,87.296,1558.422,69.466C1606.045,51.637,1647.106,61.082,1667.636,65.804L1688.167,70.527" id="my-svg-L_proc_compute_balance_proc_dispatch_commands_0" class="edge-thickness-normal edge-pattern-solid edge-thickness-normal edge-pattern-solid flowchart-link" style=";" data-edge="true" data-et="edge" data-id="L_proc_compute_balance_proc_dispatch_commands_0" data-points="W3sieCI6MTQwMi40Mjk1Mjc5Mzc1MTQsInkiOjE3Ny41MDU5MTk3NzE3NDUyOH0seyJ4IjoxNTY0Ljk4NDM3NSwieSI6NDIuMTkxNDA2MjV9LHsieCI6MTY5Mi4wNjUwMDE0NzA5NTA2LCJ5Ijo3MS40MjM2OTU5MTMwMTA1OH1d" data-look="classic" marker-end="url(#my-svg_flowchart-v2-pointEnd)"/><path d="M1410.333,189.244L1436.108,175.465C1461.883,161.685,1513.434,134.126,1559.423,118.702C1605.412,103.278,1645.839,99.99,1666.053,98.346L1686.267,96.702" id="my-svg-L_proc_compute_balance_proc_dispatch_commands_2" class="edge-thickness-normal edge-pattern-solid edge-thickness-normal edge-pattern-solid flowchart-link" style=";" data-edge="true" data-et="edge" data-id="L_proc_compute_balance_proc_dispatch_commands_2" data-points="W3sieCI6MTQxMC4zMzI3OTc3ODQ1NzIyLCJ5IjoxODkuMjQ0MTg1NzkyNTA0MDN9LHsieCI6MTU2NC45ODQzNzUsInkiOjEwNi41NjY0MDYyNX0seyJ4IjoxNjkwLjI1MzQ1NzA2MjMwMywieSI6OTYuMzc3NDA2MTMxMzgxOTl9XQ==" data-look="classic" marker-end="url(#my-svg_flowchart-v2-pointEnd)"/><path d="M1417.517,234.2L1442.095,238.521C1466.673,242.842,1515.829,251.483,1567.761,255.804C1619.693,260.125,1674.401,260.125,1701.755,260.125L1729.109,260.125" id="my-svg-L_proc_compute_balance_proc_serve_ui_0" class="edge-thickness-normal edge-pattern-solid edge-thickness-normal edge-pattern-solid flowchart-link" style=";" data-edge="true" data-et="edge" data-id="L_proc_compute_balance_proc_serve_ui_0" data-points="W3sieCI6MTQxNy41MTY5Njc3MjI1OTU0LCJ5IjoyMzQuMjAwNDEzMTQ4ODYxNjZ9LHsieCI6MTU2NC45ODQzNzUsInkiOjI2MC4xMjV9LHsieCI6MTczMy4xMDkzNzUsInkiOjI2MC4xMjV9XQ==" data-look="classic" marker-end="url(#my-svg_flowchart-v2-pointEnd)"/><path d="M2428.362,320.911L2412.701,323.051C2397.041,325.191,2365.72,329.47,2320.809,331.61C2275.898,333.75,2217.398,333.75,2155.862,333.75C2094.326,333.75,2029.753,333.75,1965.225,333.75C1900.698,333.75,1836.216,333.75,1769.517,333.75C1702.818,333.75,1633.901,333.75,1574.337,320.785C1514.773,307.82,1464.561,281.891,1439.455,268.926L1414.349,255.961" id="my-svg-L_proc_handle_user_input_proc_compute_balance_0" class="edge-thickness-normal edge-pattern-solid edge-thickness-normal edge-pattern-solid flowchart-link" style=";" data-edge="true" data-et="edge" data-id="L_proc_handle_user_input_proc_compute_balance_0" data-points="W3sieCI6MjQyOC4zNjE3MDc5NDA4NTM2LCJ5IjozMjAuOTExMDYxNzgyMzMxNn0seyJ4IjoyMzM0LjM5ODQzNzUsInkiOjMzMy43NX0seyJ4IjoyMTU4Ljg5ODQzNzUsInkiOjMzMy43NX0seyJ4IjoxOTY1LjE3OTY4NzUsInkiOjMzMy43NX0seyJ4IjoxNzcxLjczNDM3NSwieSI6MzMzLjc1fSx7IngiOjE1NjQuOTg0Mzc1LCJ5IjozMzMuNzV9LHsieCI6MTQxMC43OTU0MDUxMjczMDk2LCJ5IjoyNTQuMTI1NDUxNzI5NzZ9XQ==" data-look="classic" marker-end="url(#my-svg_flowchart-v2-pointEnd)"/><path d="M2458.427,361.681L2437.756,406.078C2417.084,450.475,2375.741,539.269,2325.82,583.666C2275.898,628.063,2217.398,628.063,2155.862,628.063C2094.326,628.063,2029.753,628.063,1965.225,628.063C1900.698,628.063,1836.216,628.063,1769.517,628.063C1702.818,628.063,1633.901,628.063,1563.417,628.063C1492.932,628.063,1420.88,628.063,1357.639,628.063C1294.398,628.063,1239.969,628.063,1184.065,628.063C1128.161,628.063,1070.784,628.063,1011.479,628.063C952.174,628.063,890.943,628.063,846.465,623.699C801.986,619.335,774.262,610.608,760.4,606.244L746.537,601.881" id="my-svg-L_proc_handle_user_input_proc_acquire_telemetry_0" class="edge-thickness-normal edge-pattern-solid edge-thickness-normal edge-pattern-solid flowchart-link" style=";" data-edge="true" data-et="edge" data-id="L_proc_handle_user_input_proc_acquire_telemetry_0" data-points="W3sieCI6MjQ1OC40MjcyMDE1NjM4MTksInkiOjM2MS42ODA3MzUwMjkxNzMyNn0seyJ4IjoyMzM0LjM5ODQzNzUsInkiOjYyOC4wNjI1fSx7IngiOjIxNTguODk4NDM3NSwieSI6NjI4LjA2MjV9LHsieCI6MTk2NS4xNzk2ODc1LCJ5Ijo2MjguMDYyNX0seyJ4IjoxNzcxLjczNDM3NSwieSI6NjI4LjA2MjV9LHsieCI6MTU2NC45ODQzNzUsInkiOjYyOC4wNjI1fSx7IngiOjEzNDguODI4MTI1LCJ5Ijo2MjguMDYyNX0seyJ4IjoxMTg1LjUzOTA2MjUsInkiOjYyOC4wNjI1fSx7IngiOjEwMTMuNDA2MjUsInkiOjYyOC4wNjI1fSx7IngiOjgyOS43MTA5Mzc1LCJ5Ijo2MjguMDYyNX0seyJ4Ijo3NDIuNzIxODE4NzIxMTM0NCwieSI6NjAwLjY3OTU1MjQ1ODk1NTF9XQ==" data-look="classic" marker-end="url(#my-svg_flowchart-v2-pointEnd)"/></g><g class="edgeLabels"><g class="edgeLabel" transform="translate(1348.828125, 579.24609375)"><g class="label" data-id="L_term_inverters_proc_acquire_telemetry_0" transform="translate(-91.15625, -12)"><foreignObject width="182.3125" height="24"><div xmlns="http://www.w3.org/1999/xhtml" class="labelBkg" style="display: table-cell; white-space: nowrap; line-height: 1.5; max-width: 200px; text-align: center;"><span class="edgeLabel"><p>F1: per-channel telemetry</p></span></div></foreignObject></g></g><g class="edgeLabel" transform="translate(1965.1796875, 89.75)"><g class="label" data-id="L_proc_dispatch_commands_term_inverters_0" transform="translate(-86.6953125, -12)"><foreignObject width="173.390625" height="24"><div xmlns="http://www.w3.org/1999/xhtml" class="labelBkg" style="display: table-cell; white-space: nowrap; line-height: 1.5; max-width: 200px; text-align: center;"><span class="edgeLabel"><p>F2: power-limit setpoints</p></span></div></foreignObject></g></g><g class="edgeLabel" transform="translate(487.5390625, 57.19140625)"><g class="label" data-id="L_term_meter_proc_acquire_telemetry_0" transform="translate(-90.7109375, -12)"><foreignObject width="181.421875" height="24"><div xmlns="http://www.w3.org/1999/xhtml" class="labelBkg" style="display: table-cell; white-space: nowrap; line-height: 1.5; max-width: 200px; text-align: center;"><span class="edgeLabel"><p>F3: net grid power, V/I/PF</p></span></div></foreignObject></g></g><g class="edgeLabel" transform="translate(483.47287, 619.37435)"><g class="label" data-id="L_term_battery_system_proc_acquire_telemetry_0" transform="translate(-77.8125, -12)"><foreignObject width="155.625" height="24"><div xmlns="http://www.w3.org/1999/xhtml" class="labelBkg" style="display: table-cell; white-space: nowrap; line-height: 1.5; max-width: 200px; text-align: center;"><span class="edgeLabel"><p>F4: SoC, mode, AC-in</p></span></div></foreignObject></g></g><g class="edgeLabel" transform="translate(1013.40625, 697.1875)"><g class="label" data-id="L_proc_dispatch_commands_term_battery_system_0" transform="translate(-100, -24)"><foreignObject width="200" height="48"><div xmlns="http://www.w3.org/1999/xhtml" class="labelBkg" style="display: table; white-space: break-spaces; line-height: 1.5; max-width: 200px; text-align: center; width: 200px;"><span class="edgeLabel"><p>F5: max-charge, grid setpoint</p></span></div></foreignObject></g></g><g class="edgeLabel" transform="translate(2334.3984375, 260.125)"><g class="label" data-id="L_term_user_proc_handle_user_input_0" transform="translate(-68.4765625, -12)"><foreignObject width="136.953125" height="24"><div xmlns="http://www.w3.org/1999/xhtml" class="labelBkg" style="display: table-cell; white-space: nowrap; line-height: 1.5; max-width: 200px; text-align: center;"><span class="edgeLabel"><p>F6: config, override</p></span></div></foreignObject></g></g><g class="edgeLabel" transform="translate(1965.1796875, 260.125)"><g class="label" data-id="L_proc_serve_ui_term_user_0" transform="translate(-79.6015625, -12)"><foreignObject width="159.203125" height="24"><div xmlns="http://www.w3.org/1999/xhtml" class="labelBkg" style="display: table-cell; white-space: nowrap; line-height: 1.5; max-width: 200px; text-align: center;"><span class="edgeLabel"><p>F7: dashboards, alerts</p></span></div></foreignObject></g></g><g class="edgeLabel" transform="translate(1564.984375, 472.27734375)"><g class="label" data-id="L_proc_cloud_forward_term_smiles_cloud_0" transform="translate(-100, -24)"><foreignObject width="200" height="48"><div xmlns="http://www.w3.org/1999/xhtml" class="labelBkg" style="display: table; white-space: break-spaces; line-height: 1.5; max-width: 200px; text-align: center; width: 200px;"><span class="edgeLabel"><p>F8: optional telemetry forward</p></span></div></foreignObject></g></g><g class="edgeLabel"><g class="label" data-id="L_term_grid_term_inverters_0" transform="translate(0, 0)"><foreignObject width="0" height="0"><div xmlns="http://www.w3.org/1999/xhtml" class="labelBkg" style="display: table-cell; white-space: nowrap; line-height: 1.5; max-width: 200px; text-align: center;"><span class="edgeLabel"></span></div></foreignObject></g></g><g class="edgeLabel"><g class="label" data-id="L_term_grid_term_battery_system_0" transform="translate(0, 0)"><foreignObject width="0" height="0"><div xmlns="http://www.w3.org/1999/xhtml" class="labelBkg" style="display: table-cell; white-space: nowrap; line-height: 1.5; max-width: 200px; text-align: center;"><span class="edgeLabel"></span></div></foreignObject></g></g><g class="edgeLabel" transform="translate(829.7109375, 365.30859375)"><g class="label" data-id="L_proc_acquire_telemetry_store_system_state_0" transform="translate(-58.6953125, -12)"><foreignObject width="117.390625" height="24"><div xmlns="http://www.w3.org/1999/xhtml" class="labelBkg" style="display: table-cell; white-space: nowrap; line-height: 1.5; max-width: 200px; text-align: center;"><span class="edgeLabel"><p>normalized state</p></span></div></foreignObject></g></g><g class="edgeLabel" transform="translate(1185.5390625, 222.125)"><g class="label" data-id="L_store_system_state_proc_compute_balance_0" transform="translate(-47.1328125, -12)"><foreignObject width="94.265625" height="24"><div xmlns="http://www.w3.org/1999/xhtml" class="labelBkg" style="display: table-cell; white-space: nowrap; line-height: 1.5; max-width: 200px; text-align: center;"><span class="edgeLabel"><p>system_state</p></span></div></foreignObject></g></g><g class="edgeLabel" transform="translate(1348.828125, 365.30859375)"><g class="label" data-id="L_store_system_state_proc_serve_ui_0" transform="translate(-47.1328125, -12)"><foreignObject width="94.265625" height="24"><div xmlns="http://www.w3.org/1999/xhtml" class="labelBkg" style="display: table-cell; white-space: nowrap; line-height: 1.5; max-width: 200px; text-align: center;"><span class="edgeLabel"><p>system_state</p></span></div></foreignObject></g></g><g class="edgeLabel" transform="translate(1185.5390625, 472.27734375)"><g class="label" data-id="L_store_system_state_proc_cloud_forward_0" transform="translate(-47.1328125, -12)"><foreignObject width="94.265625" height="24"><div xmlns="http://www.w3.org/1999/xhtml" class="labelBkg" style="display: table-cell; white-space: nowrap; line-height: 1.5; max-width: 200px; text-align: center;"><span class="edgeLabel"><p>system_state</p></span></div></foreignObject></g></g><g class="edgeLabel" transform="translate(1533.81717, 68.13573)"><g class="label" data-id="L_proc_compute_balance_proc_dispatch_commands_0" transform="translate(-47.5859375, -12)"><foreignObject width="95.171875" height="24"><div xmlns="http://www.w3.org/1999/xhtml" class="labelBkg" style="display: table-cell; white-space: nowrap; line-height: 1.5; max-width: 200px; text-align: center;"><span class="edgeLabel"><p>cmd_setpoint</p></span></div></foreignObject></g></g><g class="edgeLabel" transform="translate(1543.07754, 118.27795)"><g class="label" data-id="L_proc_compute_balance_proc_dispatch_commands_2" transform="translate(-64.90625, -12)"><foreignObject width="129.8125" height="24"><div xmlns="http://www.w3.org/1999/xhtml" class="labelBkg" style="display: table-cell; white-space: nowrap; line-height: 1.5; max-width: 200px; text-align: center;"><span class="edgeLabel"><p>cmd_inverter_limit</p></span></div></foreignObject></g></g><g class="edgeLabel" transform="translate(1564.984375, 260.125)"><g class="label" data-id="L_proc_compute_balance_proc_serve_ui_0" transform="translate(-39.5859375, -12)"><foreignObject width="79.171875" height="24"><div xmlns="http://www.w3.org/1999/xhtml" class="labelBkg" style="display: table-cell; white-space: nowrap; line-height: 1.5; max-width: 200px; text-align: center;"><span class="edgeLabel"><p>event_alert</p></span></div></foreignObject></g></g><g class="edgeLabel" transform="translate(1965.1796875, 333.75)"><g class="label" data-id="L_proc_handle_user_input_proc_compute_balance_0" transform="translate(-52.921875, -12)"><foreignObject width="105.84375" height="24"><div xmlns="http://www.w3.org/1999/xhtml" class="labelBkg" style="display: table-cell; white-space: nowrap; line-height: 1.5; max-width: 200px; text-align: center;"><span class="edgeLabel"><p>event_override</p></span></div></foreignObject></g></g><g class="edgeLabel" transform="translate(1564.984375, 628.0625)"><g class="label" data-id="L_proc_handle_user_input_proc_acquire_telemetry_0" transform="translate(-45.3671875, -12)"><foreignObject width="90.734375" height="24"><div xmlns="http://www.w3.org/1999/xhtml" class="labelBkg" style="display: table-cell; white-space: nowrap; line-height: 1.5; max-width: 200px; text-align: center;"><span class="edgeLabel"><p>event_config</p></span></div></foreignObject></g></g></g><g class="nodes"><g class="node default termopt" id="my-svg-flowchart-term_smiles_cloud-0" data-look="classic" transform="translate(1771.734375, 472.27734375)"><g class="basic label-container outer-path"><path d="M-33.671875 -31.5 C-14.356943678958164 -31.5, 4.957987642083673 -31.5, 33.671875 -31.5 C33.671875 -31.5, 33.671875 -31.5, 33.671875 -31.5 C34.18403351066249 -31.48357607341912, 34.69619202132498 -31.467152146838238, 35.69008692939246 -31.435279871635593 C36.45391070770665 -31.361594710374117, 37.21773448602083 -31.287909549112644, 37.70000559306194 -31.241385435432253 C38.30662872928451 -31.14331131120047, 38.913251865507085 -31.045237186968688, 39.693371804093225 -30.91911344521856 C40.43451274718244 -30.749952861355087, 41.175653690271645 -30.58079227749161, 41.66199439314948 -30.469788185729428 C42.15348186557583 -30.323917283783675, 42.64496933800218 -30.178046381837923, 43.59778386774405 -29.895256030836062 C44.067014707574835 -29.722574744255997, 44.53624554740563 -29.549893457675932, 45.49278565370028 -29.197877856399685 C45.944947130416836 -28.997719383550912, 46.3971086071334 -28.79756091070214, 47.33921278220308 -28.380519338926202 C47.89618980695146 -28.089944781875783, 48.45316683169984 -27.799370224825363, 49.129477888124036 -27.44653917988677 C49.77620392427985 -27.05449005618507, 50.42292996043565 -26.66244093248337, 50.856224388132276 -26.399775304092984 C51.22234722678185 -26.144383861053278, 51.58847006543143 -25.888992418013576, 52.5123567104733 -25.244529088840633 C52.94564015750271 -24.898997069991438, 53.378923604532126 -24.55346505114224, 54.09106945219533 -23.985547688627737 C54.680818490955424 -23.449953215530314, 55.27056752971553 -22.914358742432892, 55.58587534400982 -22.62800452807842 C55.97442189067788 -22.226798318378904, 56.36296843734594 -21.825592108679388, 56.990631907872434 -21.177478043231485 C57.28800753453982 -20.828163710995458, 57.58538316120721 -20.478849378759435, 58.29956669774294 -19.63992875855011 C58.62708423916162 -19.20108509051091, 58.954601780580305 -18.762241422471718, 59.5073010198041 -18.02167479384835 C59.867731783683666 -17.467956351317476, 60.22816254756323 -16.9142379087866, 60.6088720346684 -16.329365901781543 C60.93100523780217 -15.757385780093587, 61.253138440935935 -15.185405658405632, 61.59975315074951 -14.56995614258631 C61.94496796833272 -13.853110187460956, 62.290182785915924 -13.136264232335602, 62.47587262499809 -12.750675308355413 C62.710209569693575 -12.171858524360946, 62.94454651438907 -11.59304174036648, 63.23363029456745 -10.878999214271206 C63.46493835345278 -10.1823361948429, 63.69624641233812 -9.485673175414597, 63.86991237065481 -8.962618978877531 C64.03954743676414 -8.315726951499919, 64.20918250287347 -7.668834924122308, 64.38210423372745 -7.009409419623907 C64.51932801784542 -6.304794290435113, 64.65655180196342 -5.600179161246319, 64.76810117755518 -5.027396693551458 C64.8206619184316 -4.61974596660619, 64.87322265930803 -4.212095239660923, 65.02631705789975 -3.024725316091981 C65.07725961530745 -2.231253864374725, 65.12820217271516 -1.4377824126574683, 65.15569081032167 -1.0096246935071378 C65.15569081032167 -0.5252421460513208, 65.15569081032167 -0.0408595985955037, 65.15569081032167 1.00962469350713 C65.1229880779639 1.5189961471498816, 65.09028534560612 2.0283676007926337, 65.02631705789975 3.02472531609196 C64.96300467569152 3.5157636500549345, 64.8996922934833 4.006801984017909, 64.76810117755518 5.027396693551435 C64.65110152846346 5.628165163752881, 64.53410187937172 6.228933633954327, 64.38210423372745 7.0094094196239 C64.18558149291849 7.7588358038230965, 63.989058752109536 8.508262188022293, 63.869912370654816 8.96261897887751 C63.651696897102326 9.619849217303477, 63.433481423549836 10.277079455729444, 63.233630294567455 10.878999214271184 C63.02707632088154 11.389191522724808, 62.82052234719562 11.89938383117843, 62.47587262499809 12.750675308355405 C62.16631637510702 13.3934754846969, 61.856760125215956 14.036275661038395, 61.59975315074951 14.569956142586303 C61.313154541063554 15.0788409953399, 61.0265559313776 15.5877258480935, 60.60887203466841 16.329365901781536 C60.22761981886682 16.915071685807348, 59.84636760306523 17.500777469833157, 59.50730101980412 18.021674793848334 C59.196010683511 18.438775485348078, 58.88472034721788 18.85587617684782, 58.29956669774295 19.639928758550102 C57.883241018702556 20.128968590753182, 57.46691533966216 20.618008422956258, 56.99063190787245 21.177478043231467 C56.563868852262274 21.618145936047455, 56.137105796652094 22.058813828863446, 55.58587534400983 22.628004528078414 C55.13286037360149 23.03942073808397, 54.67984540319315 23.450836948089524, 54.091069452195356 23.985547688627715 C53.607144249539566 24.371465159955232, 53.123219046883776 24.757382631282752, 52.51235671047331 25.24452908884063 C51.94994651140506 25.63684209736552, 51.387536312336806 26.02915510589041, 50.8562243881323 26.399775304092973 C50.39949752477549 26.676645812684843, 49.942770661418685 26.95351632127671, 49.12947788812404 27.446539179886766 C48.437637657222965 27.80747178520304, 47.745797426321886 28.168404390519317, 47.339212782203084 28.3805193389262 C46.697022604459185 28.664797880718645, 46.054832426715286 28.94907642251109, 45.492785653700295 29.197877856399682 C44.752894958020015 29.47016447188464, 44.013004262339734 29.7424510873696, 43.59778386774407 29.895256030836055 C43.193515477900455 30.015240766893562, 42.78924708805683 30.135225502951066, 41.66199439314951 30.46978818572942 C41.19639440400968 30.57605834492671, 40.73079441486985 30.682328504124005, 39.69337180409324 30.919113445218557 C39.08191537730763 31.017968978385845, 38.470458950522016 31.11682451155313, 37.70000559306196 31.24138543543225 C37.293796493044994 31.28057193877297, 36.88758739302803 31.319758442113688, 35.69008692939246 31.435279871635593 C35.106636735076606 31.453989983750393, 34.52318654076075 31.472700095865193, 33.67187500000001 31.5 C33.67187500000001 31.5, 33.671875 31.5, 33.671875 31.5 C12.704471745898221 31.5, -8.262931508203557 31.5, -33.67187499999999 31.5 C-34.09677129599992 31.48637440279775, -34.52166759199985 31.4727488055955, -35.69008692939244 31.435279871635593 C-36.129628810436145 31.39287779499776, -36.56917069147984 31.350475718359927, -37.700005593061945 31.24138543543225 C-38.45272332523339 31.119691869907964, -39.20544105740485 30.997998304383678, -39.693371804093225 30.919113445218557 C-40.147548451608195 30.815450589202868, -40.601725099123165 30.711787733187183, -41.66199439314947 30.469788185729428 C-42.16694992542997 30.319920034314254, -42.671905457710466 30.17005188289908, -43.597783867744035 29.89525603083607 C-44.006488395410706 29.744848986631496, -44.41519292307737 29.594441942426926, -45.49278565370029 29.197877856399685 C-45.87308004291684 29.02953281132576, -46.253374432133384 28.861187766251835, -47.33921278220308 28.380519338926206 C-47.895816429421316 28.0901395726941, -48.45242007663956 27.799759806461996, -49.12947788812403 27.446539179886773 C-49.52461157549987 27.207006816536246, -49.91974526287571 26.96747445318572, -50.85622438813226 26.399775304092994 C-51.456715309514514 25.980898832169757, -52.057206230896774 25.56202236024652, -52.5123567104733 25.244529088840636 C-52.93573788286285 24.906893870506135, -53.35911905525241 24.56925865217163, -54.09106945219533 23.98554768862774 C-54.60000367731761 23.523347091033386, -55.10893790243989 23.061146493439033, -55.58587534400981 22.628004528078435 C-55.90095734980103 22.302656488385225, -56.216039355592265 21.97730844869201, -56.99063190787244 21.177478043231478 C-57.279656618093775 20.837973172633593, -57.56868132831511 20.498468302035707, -58.29956669774293 19.639928758550113 C-58.710298093324724 19.089586106870424, -59.12102948890651 18.539243455190736, -59.5073010198041 18.021674793848355 C-59.86009063870833 17.479695201934323, -60.21288025761255 16.937715610020295, -60.608872034668394 16.329365901781557 C-60.98477205263631 15.661917355875184, -61.360672070604224 14.994468809968811, -61.5997531507495 14.569956142586314 C-61.83205922937946 14.08756759975739, -62.064365308009414 13.605179056928469, -62.47587262499809 12.750675308355417 C-62.75660848620806 12.057252303508161, -63.03734434741803 11.363829298660905, -63.23363029456745 10.878999214271209 C-63.45696335164953 10.206355629630325, -63.68029640873161 9.533712044989443, -63.86991237065481 8.962618978877522 C-64.02185671241566 8.383189350649142, -64.1738010541765 7.803759722420763, -64.38210423372743 7.009409419623911 C-64.49280896959668 6.44096399838958, -64.60351370546591 5.872518577155248, -64.76810117755518 5.027396693551461 C-64.85232226468952 4.374194573072359, -64.93654335182384 3.7209924525932565, -65.02631705789975 3.024725316091999 C-65.06429782969875 2.433144137795453, -65.10227860149773 1.8415629594989065, -65.15569081032167 1.0096246935071416 C-65.15569081032167 0.5754012281629608, -65.15569081032167 0.14117776281878014, -65.15569081032167 -1.0096246935071262 C-65.10726184691762 -1.7639448896808372, -65.05883288351357 -2.518265085854548, -65.02631705789975 -3.024725316091956 C-64.97095941438884 -3.4540682675593932, -64.91560177087793 -3.88341121902683, -64.76810117755518 -5.027396693551446 C-64.66170690681328 -5.573708787373992, -64.55531263607139 -6.120020881196537, -64.38210423372745 -7.009409419623896 C-64.24989552686742 -7.513578518497166, -64.1176868200074 -8.017747617370436, -63.869912370654816 -8.962618978877506 C-63.67641517008053 -9.545401717415075, -63.48291796950625 -10.128184455952642, -63.23363029456746 -10.878999214271168 C-63.004989019716355 -11.443747583631733, -62.77634774486524 -12.008495952992298, -62.47587262499809 -12.750675308355401 C-62.23822978348407 -13.244145753501511, -62.00058694197005 -13.737616198647624, -61.59975315074951 -14.5699561425863 C-61.26615317050099 -15.162296688178591, -60.93255319025248 -15.75463723377088, -60.6088720346684 -16.329365901781546 C-60.32899359271494 -16.75933434650683, -60.049115150761466 -17.189302791232112, -59.50730101980411 -18.021674793848344 C-59.143588055386786 -18.509017031234855, -58.779875090969455 -18.996359268621365, -58.29956669774295 -19.639928758550102 C-57.79625345563154 -20.231149132068946, -57.29294021352015 -20.82236950558779, -56.990631907872455 -21.177478043231467 C-56.57966235909652 -21.601837843570078, -56.16869281032058 -22.026197643908688, -55.585875344009835 -22.628004528078403 C-55.081050330235186 -23.08647324865061, -54.576225316460544 -23.544941969222815, -54.091069452195356 -23.98554768862771 C-53.58470448676694 -24.389360273619232, -53.07833952133853 -24.793172858610756, -52.51235671047331 -25.244529088840626 C-52.177607774295424 -25.478035455670426, -51.84285883811754 -25.711541822500227, -50.856224388132304 -26.39977530409297 C-50.287870100326934 -26.744315013381115, -49.71951581252157 -27.088854722669257, -49.12947788812404 -27.446539179886763 C-48.75993418967866 -27.639329890661685, -48.39039049123327 -27.83212060143661, -47.33921278220309 -28.3805193389262 C-46.71079529983293 -28.65870111702918, -46.08237781746276 -28.936882895132168, -45.4927856537003 -29.19787785639968 C-44.934709030728605 -29.403255212457015, -44.376632407756915 -29.60863256851435, -43.59778386774408 -29.895256030836055 C-42.88908016215515 -30.105595570593184, -42.180376456566236 -30.31593511035031, -41.66199439314951 -30.469788185729417 C-41.11546182655666 -30.594530677595937, -40.5689292599638 -30.719273169462454, -39.69337180409324 -30.919113445218553 C-39.286123979240664 -30.98495411528667, -38.87887615438809 -31.050794785354782, -37.70000559306196 -31.24138543543225 C-37.06949962972778 -31.302209587420734, -36.4389936663936 -31.36303373940922, -35.69008692939246 -31.435279871635593 C-34.9636330147831 -31.45857583472035, -34.23717910017375 -31.48187179780511, -33.67187500000001 -31.5 C-33.67187500000001 -31.5, -33.671875 -31.5, -33.671875 -31.5" stroke="none" stroke-width="0" fill="#fafafa" style="fill:#fafafa !important;stroke:#888 !important;stroke-dasharray:5 5 !important"/><path d="M-33.671875 -31.5 C-18.720559992428157 -31.5, -3.769244984856318 -31.5, 33.671875 -31.5 M-33.671875 -31.5 C-8.875721046985628 -31.5, 15.920432906028744 -31.5, 33.671875 -31.5 M33.671875 -31.5 C33.671875 -31.5, 33.671875 -31.5, 33.671875 -31.5 M33.671875 -31.5 C33.671875 -31.5, 33.671875 -31.5, 33.671875 -31.5 M33.671875 -31.5 C34.14875275691811 -31.484707458521882, 34.625630513836214 -31.46941491704376, 35.69008692939246 -31.435279871635593 M33.671875 -31.5 C34.44096810000851 -31.47533668123163, 35.21006120001702 -31.450673362463263, 35.69008692939246 -31.435279871635593 M35.69008692939246 -31.435279871635593 C36.23863907611217 -31.38236170577202, 36.787191222831886 -31.32944353990845, 37.70000559306194 -31.241385435432253 M35.69008692939246 -31.435279871635593 C36.30564926863197 -31.375897313091183, 36.92121160787148 -31.316514754546773, 37.70000559306194 -31.241385435432253 M37.70000559306194 -31.241385435432253 C38.44889683558826 -31.120310507078923, 39.19778807811458 -30.999235578725592, 39.693371804093225 -30.91911344521856 M37.70000559306194 -31.241385435432253 C38.1859726118557 -31.162818056564195, 38.67193963064947 -31.084250677696136, 39.693371804093225 -30.91911344521856 M39.693371804093225 -30.91911344521856 C40.09427592886142 -30.827609694884124, 40.49518005362962 -30.73610594454969, 41.66199439314948 -30.469788185729428 M39.693371804093225 -30.91911344521856 C40.08735004737207 -30.82919048213847, 40.481328290650914 -30.739267519058377, 41.66199439314948 -30.469788185729428 M41.66199439314948 -30.469788185729428 C42.087136010585986 -30.34360838528816, 42.512277628022495 -30.217428584846893, 43.59778386774405 -29.895256030836062 M41.66199439314948 -30.469788185729428 C42.277883386016704 -30.286995565513728, 42.89377237888394 -30.104202945298027, 43.59778386774405 -29.895256030836062 M43.59778386774405 -29.895256030836062 C43.97864433691209 -29.75509585754664, 44.359504806080125 -29.61493568425722, 45.49278565370028 -29.197877856399685 M43.59778386774405 -29.895256030836062 C44.10280986844389 -29.709401794169345, 44.607835869143734 -29.523547557502628, 45.49278565370028 -29.197877856399685 M45.49278565370028 -29.197877856399685 C45.9437912203605 -28.998231070644, 46.39479678702072 -28.798584284888314, 47.33921278220308 -28.380519338926202 M45.49278565370028 -29.197877856399685 C46.00468884373735 -28.97127349923888, 46.51659203377442 -28.744669142078077, 47.33921278220308 -28.380519338926202 M47.33921278220308 -28.380519338926202 C48.0308476335485 -28.019693879992563, 48.722482484893916 -27.658868421058926, 49.129477888124036 -27.44653917988677 M47.33921278220308 -28.380519338926202 C47.865152497125706 -28.10613692653153, 48.39109221204834 -27.83175451413686, 49.129477888124036 -27.44653917988677 M49.129477888124036 -27.44653917988677 C49.739941383814894 -27.07647262131727, 50.350404879505746 -26.706406062747764, 50.856224388132276 -26.399775304092984 M49.129477888124036 -27.44653917988677 C49.61764533119806 -27.15060920710497, 50.10581277427208 -26.854679234323168, 50.856224388132276 -26.399775304092984 M50.856224388132276 -26.399775304092984 C51.272049868430315 -26.109713449831993, 51.68787534872835 -25.819651595571003, 52.5123567104733 -25.244529088840633 M50.856224388132276 -26.399775304092984 C51.283859518797286 -26.101475548967517, 51.711494649462296 -25.803175793842048, 52.5123567104733 -25.244529088840633 M52.5123567104733 -25.244529088840633 C52.98195075196261 -24.870040337175173, 53.451544793451916 -24.49555158550971, 54.09106945219533 -23.985547688627737 M52.5123567104733 -25.244529088840633 C52.90658172936298 -24.930145127044444, 53.300806748252676 -24.61576116524826, 54.09106945219533 -23.985547688627737 M54.09106945219533 -23.985547688627737 C54.46446882067798 -23.6464362617777, 54.83786818916062 -23.307324834927662, 55.58587534400982 -22.62800452807842 M54.09106945219533 -23.985547688627737 C54.421528510151475 -23.68543351565951, 54.75198756810762 -23.385319342691286, 55.58587534400982 -22.62800452807842 M55.58587534400982 -22.62800452807842 C55.99247142860381 -22.20816068857576, 56.3990675131978 -21.788316849073098, 56.990631907872434 -21.177478043231485 M55.58587534400982 -22.62800452807842 C55.91032523168709 -22.29298338122047, 56.23477511936436 -21.957962234362515, 56.990631907872434 -21.177478043231485 M56.990631907872434 -21.177478043231485 C57.460713512752825 -20.625293441737913, 57.93079511763321 -20.073108840244345, 58.29956669774294 -19.63992875855011 M56.990631907872434 -21.177478043231485 C57.26513485379241 -20.855031263293775, 57.53963779971239 -20.53258448335606, 58.29956669774294 -19.63992875855011 M58.29956669774294 -19.63992875855011 C58.7066433506487 -19.09448312910239, 59.11372000355446 -18.54903749965467, 59.5073010198041 -18.02167479384835 M58.29956669774294 -19.63992875855011 C58.64786875858779 -19.17323572798852, 58.99617081943264 -18.70654269742693, 59.5073010198041 -18.02167479384835 M59.5073010198041 -18.02167479384835 C59.8636995057826 -17.474151012991737, 60.2200979917611 -16.92662723213512, 60.6088720346684 -16.329365901781543 M59.5073010198041 -18.02167479384835 C59.73097600677171 -17.678049948722194, 59.954650993739314 -17.334425103596036, 60.6088720346684 -16.329365901781543 M60.6088720346684 -16.329365901781543 C60.97602561090245 -15.677447548846922, 61.34317918713649 -15.025529195912304, 61.59975315074951 -14.56995614258631 M60.6088720346684 -16.329365901781543 C60.958495510948914 -15.70857401642953, 61.30811898722943 -15.087782131077518, 61.59975315074951 -14.56995614258631 M61.59975315074951 -14.56995614258631 C61.803889244822905 -14.1460631754302, 62.008025338896296 -13.72217020827409, 62.47587262499809 -12.750675308355413 M61.59975315074951 -14.56995614258631 C61.87770678259168 -13.992779478811046, 62.155660414433854 -13.415602815035781, 62.47587262499809 -12.750675308355413 M62.47587262499809 -12.750675308355413 C62.766674760789236 -12.032388410674459, 63.05747689658039 -11.314101512993503, 63.23363029456745 -10.878999214271206 M62.47587262499809 -12.750675308355413 C62.67290471770448 -12.264002230014258, 62.86993681041088 -11.777329151673102, 63.23363029456745 -10.878999214271206 M63.23363029456745 -10.878999214271206 C63.446559309828565 -10.237690945936105, 63.65948832508969 -9.596382677601003, 63.86991237065481 -8.962618978877531 M63.23363029456745 -10.878999214271206 C63.4012207912152 -10.374243340287618, 63.56881128786296 -9.869487466304031, 63.86991237065481 -8.962618978877531 M63.86991237065481 -8.962618978877531 C63.977782959770856 -8.551261671168977, 64.08565354888691 -8.139904363460424, 64.38210423372745 -7.009409419623907 M63.86991237065481 -8.962618978877531 C64.04314987169525 -8.301989305802449, 64.21638737273568 -7.641359632727368, 64.38210423372745 -7.009409419623907 M64.38210423372745 -7.009409419623907 C64.50129330053403 -6.397398752190324, 64.6204823673406 -5.7853880847567405, 64.76810117755518 -5.027396693551458 M64.38210423372745 -7.009409419623907 C64.51674169333205 -6.318074520191406, 64.65137915293667 -5.626739620758904, 64.76810117755518 -5.027396693551458 M64.76810117755518 -5.027396693551458 C64.83084166932441 -4.5407938289007665, 64.89358216109363 -4.054190964250075, 65.02631705789975 -3.024725316091981 M64.76810117755518 -5.027396693551458 C64.86418418786258 -4.2821958393437045, 64.96026719816999 -3.5369949851359523, 65.02631705789975 -3.024725316091981 M65.02631705789975 -3.024725316091981 C65.06983938227442 -2.346829983368503, 65.1133617066491 -1.668934650645025, 65.15569081032167 -1.0096246935071378 M65.02631705789975 -3.024725316091981 C65.0558698050169 -2.5644174251941894, 65.08542255213405 -2.104109534296397, 65.15569081032167 -1.0096246935071378 M65.15569081032167 -1.0096246935071378 C65.15569081032167 -0.31917232470893486, 65.15569081032167 0.37128004408926807, 65.15569081032167 1.00962469350713 M65.15569081032167 -1.0096246935071378 C65.15569081032167 -0.21332290509949647, 65.15569081032167 0.5829788833081448, 65.15569081032167 1.00962469350713 M65.15569081032167 1.00962469350713 C65.11489540104398 1.6450461224689161, 65.07409999176627 2.2804675514307027, 65.02631705789975 3.02472531609196 M65.15569081032167 1.00962469350713 C65.12944843200525 1.4183709182520718, 65.10320605368881 1.8271171429970137, 65.02631705789975 3.02472531609196 M65.02631705789975 3.02472531609196 C64.96274893491172 3.5177471250413768, 64.8991808119237 4.010768933990794, 64.76810117755518 5.027396693551435 M65.02631705789975 3.02472531609196 C64.92767212307915 3.7897959509148516, 64.82902718825855 4.554866585737743, 64.76810117755518 5.027396693551435 M64.76810117755518 5.027396693551435 C64.63992631467057 5.685547524697006, 64.51175145178598 6.3436983558425775, 64.38210423372745 7.0094094196239 M64.76810117755518 5.027396693551435 C64.62711719311596 5.751319656671192, 64.48613320867673 6.475242619790948, 64.38210423372745 7.0094094196239 M64.38210423372745 7.0094094196239 C64.26277771809255 7.464453140178801, 64.14345120245764 7.919496860733703, 63.869912370654816 8.96261897887751 M64.38210423372745 7.0094094196239 C64.21695391472171 7.6391991625938065, 64.05180359571597 8.268988905563713, 63.869912370654816 8.96261897887751 M63.869912370654816 8.96261897887751 C63.67662879943243 9.54475829984439, 63.48334522821004 10.126897620811267, 63.233630294567455 10.878999214271184 M63.869912370654816 8.96261897887751 C63.69976313128952 9.475081378246031, 63.52961389192423 9.987543777614553, 63.233630294567455 10.878999214271184 M63.233630294567455 10.878999214271184 C62.98092043221112 11.503197460104133, 62.72821056985479 12.127395705937081, 62.47587262499809 12.750675308355405 M63.233630294567455 10.878999214271184 C62.963413721249026 11.546439374649738, 62.6931971479306 12.213879535028292, 62.47587262499809 12.750675308355405 M62.47587262499809 12.750675308355405 C62.24440296921993 13.231327001235991, 62.01293331344177 13.711978694116578, 61.59975315074951 14.569956142586303 M62.47587262499809 12.750675308355405 C62.18553599392359 13.353565534990347, 61.89519936284908 13.956455761625291, 61.59975315074951 14.569956142586303 M61.59975315074951 14.569956142586303 C61.3522315644949 15.009455783259849, 61.10470997824029 15.448955423933393, 60.60887203466841 16.329365901781536 M61.59975315074951 14.569956142586303 C61.21196538887575 15.258512581562101, 60.824177627001994 15.9470690205379, 60.60887203466841 16.329365901781536 M60.60887203466841 16.329365901781536 C60.29770596097207 16.807400550769376, 59.986539887275725 17.28543519975722, 59.50730101980412 18.021674793848334 M60.60887203466841 16.329365901781536 C60.28467631682232 16.82741758313274, 59.96048059897623 17.325469264483946, 59.50730101980412 18.021674793848334 M59.50730101980412 18.021674793848334 C59.23882757718093 18.381404748529626, 58.970354134557745 18.741134703210918, 58.29956669774295 19.639928758550102 M59.50730101980412 18.021674793848334 C59.183660542744654 18.455323548854007, 58.86002006568519 18.88897230385968, 58.29956669774295 19.639928758550102 M58.29956669774295 19.639928758550102 C57.84799149925723 20.17037468204813, 57.39641630077152 20.70082060554616, 56.99063190787245 21.177478043231467 M58.29956669774295 19.639928758550102 C57.99313211786814 19.999884252692596, 57.686697537993346 20.359839746835085, 56.99063190787245 21.177478043231467 M56.99063190787245 21.177478043231467 C56.642369021240135 21.53708806659408, 56.29410613460782 21.89669808995669, 55.58587534400983 22.628004528078414 M56.99063190787245 21.177478043231467 C56.54160851588215 21.641131560967537, 56.09258512389186 22.104785078703607, 55.58587534400983 22.628004528078414 M55.58587534400983 22.628004528078414 C55.26910086537274 22.915690728183197, 54.952326386735656 23.20337692828798, 54.091069452195356 23.985547688627715 M55.58587534400983 22.628004528078414 C55.094689095642465 23.07408688276968, 54.60350284727511 23.52016923746095, 54.091069452195356 23.985547688627715 M54.091069452195356 23.985547688627715 C53.64796763630234 24.33890959536787, 53.20486582040932 24.69227150210802, 52.51235671047331 25.24452908884063 M54.091069452195356 23.985547688627715 C53.68983871514643 24.30551852422591, 53.288607978097495 24.62548935982411, 52.51235671047331 25.24452908884063 M52.51235671047331 25.24452908884063 C52.05779581546941 25.561611091571354, 51.60323492046551 25.878693094302076, 50.8562243881323 26.399775304092973 M52.51235671047331 25.24452908884063 C52.03735769787751 25.575867837651614, 51.5623586852817 25.9072065864626, 50.8562243881323 26.399775304092973 M50.8562243881323 26.399775304092973 C50.396638048169315 26.678379244207655, 49.937051708206326 26.95698318432234, 49.12947788812404 27.446539179886766 M50.8562243881323 26.399775304092973 C50.4804799181072 26.62755380994179, 50.1047354480821 26.85533231579061, 49.12947788812404 27.446539179886766 M49.12947788812404 27.446539179886766 C48.58066079712723 27.73285670472568, 48.03184370613041 28.019174229564594, 47.339212782203084 28.3805193389262 M49.12947788812404 27.446539179886766 C48.48104274762312 27.784827377343568, 47.8326076071222 28.123115574800366, 47.339212782203084 28.3805193389262 M47.339212782203084 28.3805193389262 C46.64173462751692 28.689272228051422, 45.94425647283076 28.998025117176642, 45.492785653700295 29.197877856399682 M47.339212782203084 28.3805193389262 C46.775636292584046 28.62999793297797, 46.21205980296501 28.879476527029745, 45.492785653700295 29.197877856399682 M45.492785653700295 29.197877856399682 C45.04813385694264 29.36151382792265, 44.603482060184994 29.525149799445614, 43.59778386774407 29.895256030836055 M45.492785653700295 29.197877856399682 C45.019868222673 29.371915842618538, 44.5469507916457 29.545953828837394, 43.59778386774407 29.895256030836055 M43.59778386774407 29.895256030836055 C43.09037156011786 30.04585334027796, 42.58295925249164 30.19645064971987, 41.66199439314951 30.46978818572942 M43.59778386774407 29.895256030836055 C42.910738522445726 30.099167482945994, 42.22369317714738 30.303078935055936, 41.66199439314951 30.46978818572942 M41.66199439314951 30.46978818572942 C41.03742844882806 30.612341286847116, 40.4128625045066 30.754894387964807, 39.69337180409324 30.919113445218557 M41.66199439314951 30.46978818572942 C41.054754499240275 30.60838672890357, 40.44751460533104 30.746985272077723, 39.69337180409324 30.919113445218557 M39.69337180409324 30.919113445218557 C38.926256102950575 31.04313476270819, 38.15914040180792 31.167156080197824, 37.70000559306196 31.24138543543225 M39.69337180409324 30.919113445218557 C39.250335828840775 30.990740065902074, 38.80729985358832 31.062366686585587, 37.70000559306196 31.24138543543225 M37.70000559306196 31.24138543543225 C36.98270004725509 31.310583038750103, 36.26539450144822 31.37978064206796, 35.69008692939246 31.435279871635593 M37.70000559306196 31.24138543543225 C37.15582108806076 31.293882260152095, 36.611636583059564 31.346379084871938, 35.69008692939246 31.435279871635593 M35.69008692939246 31.435279871635593 C35.17433993793123 31.451818873811135, 34.65859294647001 31.468357875986676, 33.67187500000001 31.5 M35.69008692939246 31.435279871635593 C35.158001601614785 31.452342812456163, 34.62591627383711 31.46940575327673, 33.67187500000001 31.5 M33.67187500000001 31.5 C33.67187500000001 31.5, 33.671875 31.5, 33.671875 31.5 M33.67187500000001 31.5 C33.67187500000001 31.5, 33.671875 31.5, 33.671875 31.5 M33.671875 31.5 C8.632275155944221 31.5, -16.407324688111558 31.5, -33.67187499999999 31.5 M33.671875 31.5 C10.431494400498803 31.5, -12.808886199002394 31.5, -33.67187499999999 31.5 M-33.67187499999999 31.5 C-34.380942750160294 31.477261577369006, -35.0900105003206 31.454523154738016, -35.69008692939244 31.435279871635593 M-33.67187499999999 31.5 C-34.24457673111808 31.481634570179338, -34.81727846223617 31.463269140358676, -35.69008692939244 31.435279871635593 M-35.69008692939244 31.435279871635593 C-36.213487672724 31.384788031407886, -36.736888416055564 31.334296191180183, -37.700005593061945 31.24138543543225 M-35.69008692939244 31.435279871635593 C-36.39718158046442 31.367067301052415, -37.10427623153639 31.29885473046924, -37.700005593061945 31.24138543543225 M-37.700005593061945 31.24138543543225 C-38.187532769343726 31.16256582240073, -38.67505994562551 31.08374620936921, -39.693371804093225 30.919113445218557 M-37.700005593061945 31.24138543543225 C-38.37945084428356 31.13153799639136, -39.05889609550518 31.021690557350464, -39.693371804093225 30.919113445218557 M-39.693371804093225 30.919113445218557 C-40.14610869893304 30.81577920335571, -40.59884559377286 30.712444961492864, -41.66199439314947 30.469788185729428 M-39.693371804093225 30.919113445218557 C-40.4780185162488 30.74002295346736, -41.26266522840437 30.560932461716163, -41.66199439314947 30.469788185729428 M-41.66199439314947 30.469788185729428 C-42.06680997007513 30.349641047418217, -42.47162554700079 30.22949390910701, -43.597783867744035 29.89525603083607 M-41.66199439314947 30.469788185729428 C-42.319758057659094 30.274567382774904, -42.97752172216872 30.07934657982038, -43.597783867744035 29.89525603083607 M-43.597783867744035 29.89525603083607 C-44.08992783735357 29.714142500690777, -44.58207180696311 29.53302897054548, -45.49278565370029 29.197877856399685 M-43.597783867744035 29.89525603083607 C-43.999031793518974 29.747593085055726, -44.400279719293906 29.599930139275383, -45.49278565370029 29.197877856399685 M-45.49278565370029 29.197877856399685 C-46.18721108108467 28.890476319095026, -46.88163650846906 28.583074781790362, -47.33921278220308 28.380519338926206 M-45.49278565370029 29.197877856399685 C-46.12333107119592 28.91875410453961, -46.75387648869156 28.639630352679532, -47.33921278220308 28.380519338926206 M-47.33921278220308 28.380519338926206 C-47.87996429260101 28.09840962231948, -48.42071580299894 27.81629990571275, -49.12947788812403 27.446539179886773 M-47.33921278220308 28.380519338926206 C-47.80041933991153 28.139908173186605, -48.261625897619986 27.899297007447004, -49.12947788812403 27.446539179886773 M-49.12947788812403 27.446539179886773 C-49.60087593965703 27.160774910805024, -50.07227399119003 26.87501064172328, -50.85622438813226 26.399775304092994 M-49.12947788812403 27.446539179886773 C-49.63779442585228 27.13839470751636, -50.14611096358053 26.830250235145943, -50.85622438813226 26.399775304092994 M-50.85622438813226 26.399775304092994 C-51.43758345616591 25.99424438486116, -52.01894252419955 25.588713465629333, -52.5123567104733 25.244529088840636 M-50.85622438813226 26.399775304092994 C-51.36296825973579 26.04629271585102, -51.86971213133932 25.692810127609047, -52.5123567104733 25.244529088840636 M-52.5123567104733 25.244529088840636 C-53.05548766703435 24.811396604304957, -53.59861862359539 24.378264119769277, -54.09106945219533 23.98554768862774 M-52.5123567104733 25.244529088840636 C-52.927453149682115 24.913500724751763, -53.34254958889093 24.582472360662887, -54.09106945219533 23.98554768862774 M-54.09106945219533 23.98554768862774 C-54.434646069619966 23.673520495221833, -54.778222687044604 23.361493301815926, -55.58587534400981 22.628004528078435 M-54.09106945219533 23.98554768862774 C-54.52687520592227 23.589760433881303, -54.96268095964923 23.193973179134865, -55.58587534400981 22.628004528078435 M-55.58587534400981 22.628004528078435 C-55.90392414350373 22.299593030308902, -56.221972942997645 21.97118153253937, -56.99063190787244 21.177478043231478 M-55.58587534400981 22.628004528078435 C-55.970841312738514 22.230495559072214, -56.35580728146723 21.83298659006599, -56.99063190787244 21.177478043231478 M-56.99063190787244 21.177478043231478 C-57.30468827949307 20.8085695588121, -57.618744651113694 20.439661074392724, -58.29956669774293 19.639928758550113 M-56.99063190787244 21.177478043231478 C-57.31373767491194 20.7979396240279, -57.63684344195145 20.418401204824328, -58.29956669774293 19.639928758550113 M-58.29956669774293 19.639928758550113 C-58.685167593829185 19.123258686758845, -59.07076848991543 18.606588614967574, -59.5073010198041 18.021674793848355 M-58.29956669774293 19.639928758550113 C-58.634502098149355 19.1911458352482, -58.969437498555784 18.742362911946287, -59.5073010198041 18.021674793848355 M-59.5073010198041 18.021674793848355 C-59.87299829708815 17.45986557247132, -60.23869557437221 16.898056351094283, -60.608872034668394 16.329365901781557 M-59.5073010198041 18.021674793848355 C-59.856971460175686 17.484487097777173, -60.20664190054727 16.94729940170599, -60.608872034668394 16.329365901781557 M-60.608872034668394 16.329365901781557 C-60.99778339115445 15.63881440679533, -61.38669474764051 14.9482629118091, -61.5997531507495 14.569956142586314 M-60.608872034668394 16.329365901781557 C-60.85275583762711 15.896325513715379, -61.09663964058582 15.463285125649199, -61.5997531507495 14.569956142586314 M-61.5997531507495 14.569956142586314 C-61.845871292567544 14.05888655501652, -62.09198943438559 13.547816967446725, -62.47587262499809 12.750675308355417 M-61.5997531507495 14.569956142586314 C-61.83387218343719 14.08380296186552, -62.06799121612487 13.597649781144726, -62.47587262499809 12.750675308355417 M-62.47587262499809 12.750675308355417 C-62.706638918033256 12.180678102995802, -62.937405211068416 11.610680897636186, -63.23363029456745 10.878999214271209 M-62.47587262499809 12.750675308355417 C-62.71317669195373 12.164529675012966, -62.95048075890937 11.578384041670514, -63.23363029456745 10.878999214271209 M-63.23363029456745 10.878999214271209 C-63.48693525240352 10.116085039933168, -63.7402402102396 9.353170865595127, -63.86991237065481 8.962618978877522 M-63.23363029456745 10.878999214271209 C-63.38895534038072 10.411184923966893, -63.54428038619398 9.943370633662575, -63.86991237065481 8.962618978877522 M-63.86991237065481 8.962618978877522 C-64.0467187523657 8.28837961704331, -64.2235251340766 7.6141402552090955, -64.38210423372743 7.009409419623911 M-63.86991237065481 8.962618978877522 C-64.07021450726214 8.198780120498597, -64.27051664386947 7.434941262119672, -64.38210423372743 7.009409419623911 M-64.38210423372743 7.009409419623911 C-64.47178204049726 6.548932835272002, -64.5614598472671 6.088456250920094, -64.76810117755518 5.027396693551461 M-64.38210423372743 7.009409419623911 C-64.51415498202194 6.331356736067173, -64.64620573031645 5.653304052510435, -64.76810117755518 5.027396693551461 M-64.76810117755518 5.027396693551461 C-64.82419366987301 4.59235439984983, -64.88028616219084 4.157312106148198, -65.02631705789975 3.024725316091999 M-64.76810117755518 5.027396693551461 C-64.823514132399 4.597624758308388, -64.87892708724283 4.167852823065315, -65.02631705789975 3.024725316091999 M-65.02631705789975 3.024725316091999 C-65.07427950512852 2.2776714859132903, -65.12224195235729 1.5306176557345814, -65.15569081032167 1.0096246935071416 M-65.02631705789975 3.024725316091999 C-65.07698877106536 2.235472482066792, -65.12766048423099 1.4462196480415848, -65.15569081032167 1.0096246935071416 M-65.15569081032167 1.0096246935071416 C-65.15569081032167 0.2069624892788745, -65.15569081032167 -0.5956997149493926, -65.15569081032167 -1.0096246935071262 M-65.15569081032167 1.0096246935071416 C-65.15569081032167 0.4542066100820922, -65.15569081032167 -0.10121147334295721, -65.15569081032167 -1.0096246935071262 M-65.15569081032167 -1.0096246935071262 C-65.11838737260074 -1.5906558468037595, -65.08108393487979 -2.171687000100393, -65.02631705789975 -3.024725316091956 M-65.15569081032167 -1.0096246935071262 C-65.10444571627416 -1.807808397592553, -65.05320062222664 -2.6059921016779795, -65.02631705789975 -3.024725316091956 M-65.02631705789975 -3.024725316091956 C-64.95207276608285 -3.6005493822300796, -64.87782847426595 -4.176373448368203, -64.76810117755518 -5.027396693551446 M-65.02631705789975 -3.024725316091956 C-64.93466457554347 -3.735563870417525, -64.84301209318718 -4.446402424743095, -64.76810117755518 -5.027396693551446 M-64.76810117755518 -5.027396693551446 C-64.61928254709849 -5.791548908117844, -64.4704639166418 -6.555701122684242, -64.38210423372745 -7.009409419623896 M-64.76810117755518 -5.027396693551446 C-64.66896879698233 -5.536420516157005, -64.56983641640947 -6.045444338762563, -64.38210423372745 -7.009409419623896 M-64.38210423372745 -7.009409419623896 C-64.22443322303066 -7.610677318459043, -64.06676221233387 -8.21194521729419, -63.869912370654816 -8.962618978877506 M-64.38210423372745 -7.009409419623896 C-64.24226658921913 -7.542670964152626, -64.10242894471081 -8.075932508681356, -63.869912370654816 -8.962618978877506 M-63.869912370654816 -8.962618978877506 C-63.73641712476815 -9.364685389909177, -63.60292187888148 -9.766751800940849, -63.23363029456746 -10.878999214271168 M-63.869912370654816 -8.962618978877506 C-63.729980727240694 -9.384070793761188, -63.59004908382658 -9.80552260864487, -63.23363029456746 -10.878999214271168 M-63.23363029456746 -10.878999214271168 C-62.97522442208464 -11.517266715241398, -62.716818549601825 -12.155534216211626, -62.47587262499809 -12.750675308355401 M-63.23363029456746 -10.878999214271168 C-63.04652855549604 -11.341144127143618, -62.859426816424616 -11.803289040016068, -62.47587262499809 -12.750675308355401 M-62.47587262499809 -12.750675308355401 C-62.14208727778772 -13.443787723700074, -61.80830193057734 -14.136900139044746, -61.59975315074951 -14.5699561425863 M-62.47587262499809 -12.750675308355401 C-62.26827572405506 -13.181754715025717, -62.06067882311203 -13.612834121696032, -61.59975315074951 -14.5699561425863 M-61.59975315074951 -14.5699561425863 C-61.2139511162114 -15.254986721600957, -60.82814908167329 -15.940017300615615, -60.6088720346684 -16.329365901781546 M-61.59975315074951 -14.5699561425863 C-61.31254222071435 -15.079928232124065, -61.0253312906792 -15.589900321661831, -60.6088720346684 -16.329365901781546 M-60.6088720346684 -16.329365901781546 C-60.28056803659334 -16.833729004792165, -59.95226403851827 -17.338092107802783, -59.50730101980411 -18.021674793848344 M-60.6088720346684 -16.329365901781546 C-60.344471103086136 -16.735556734283193, -60.08007017150387 -17.14174756678484, -59.50730101980411 -18.021674793848344 M-59.50730101980411 -18.021674793848344 C-59.03383656661776 -18.656074027619034, -58.560372113431406 -19.290473261389725, -58.29956669774295 -19.639928758550102 M-59.50730101980411 -18.021674793848344 C-59.162941883154595 -18.483084665195967, -58.81858274650508 -18.94449453654359, -58.29956669774295 -19.639928758550102 M-58.29956669774295 -19.639928758550102 C-57.89376571890845 -20.11660567901893, -57.48796474007395 -20.59328259948776, -56.990631907872455 -21.177478043231467 M-58.29956669774295 -19.639928758550102 C-58.01402324148398 -19.975344350154824, -57.72847978522502 -20.310759941759546, -56.990631907872455 -21.177478043231467 M-56.990631907872455 -21.177478043231467 C-56.50525208274879 -21.67867256309641, -56.019872257625124 -22.17986708296135, -55.585875344009835 -22.628004528078403 M-56.990631907872455 -21.177478043231467 C-56.6204603634821 -21.559710554463507, -56.25028881909175 -21.941943065695547, -55.585875344009835 -22.628004528078403 M-55.585875344009835 -22.628004528078403 C-55.044709607262405 -23.119476931731654, -54.50354387051497 -23.610949335384905, -54.091069452195356 -23.98554768862771 M-55.585875344009835 -22.628004528078403 C-55.06309390821678 -23.102780796026842, -54.540312472423714 -23.57755706397528, -54.091069452195356 -23.98554768862771 M-54.091069452195356 -23.98554768862771 C-53.65375851552638 -24.33429152328846, -53.216447578857405 -24.68303535794921, -52.51235671047331 -25.244529088840626 M-54.091069452195356 -23.98554768862771 C-53.75492219382758 -24.25361618192179, -53.418774935459815 -24.521684675215866, -52.51235671047331 -25.244529088840626 M-52.51235671047331 -25.244529088840626 C-51.96661990369818 -25.625211460681353, -51.42088309692305 -26.005893832522084, -50.856224388132304 -26.39977530409297 M-52.51235671047331 -25.244529088840626 C-52.16729414652358 -25.485229795934316, -51.82223158257385 -25.725930503028007, -50.856224388132304 -26.39977530409297 M-50.856224388132304 -26.39977530409297 C-50.20323798163759 -26.795619501084133, -49.55025157514287 -27.191463698075292, -49.12947788812404 -27.446539179886763 M-50.856224388132304 -26.39977530409297 C-50.4481098918452 -26.647176710089205, -50.039995395558094 -26.894578116085437, -49.12947788812404 -27.446539179886763 M-49.12947788812404 -27.446539179886763 C-48.44205077379641 -27.805169465113412, -47.75462365946877 -28.163799750340058, -47.33921278220309 -28.3805193389262 M-49.12947788812404 -27.446539179886763 C-48.699248941101175 -27.6709893459738, -48.269019994078306 -27.89543951206084, -47.33921278220309 -28.3805193389262 M-47.33921278220309 -28.3805193389262 C-46.76958870603988 -28.632675020145793, -46.199964629876675 -28.884830701365388, -45.4927856537003 -29.19787785639968 M-47.33921278220309 -28.3805193389262 C-46.88410099904353 -28.581983824919558, -46.42898921588398 -28.783448310912913, -45.4927856537003 -29.19787785639968 M-45.4927856537003 -29.19787785639968 C-44.891350037829476 -29.419211722650033, -44.28991442195864 -29.640545588900387, -43.59778386774408 -29.895256030836055 M-45.4927856537003 -29.19787785639968 C-44.82631221032204 -29.443146244375857, -44.15983876694377 -29.688414632352032, -43.59778386774408 -29.895256030836055 M-43.59778386774408 -29.895256030836055 C-43.05995832853408 -30.054879827769717, -42.522132789324075 -30.214503624703383, -41.66199439314951 -30.469788185729417 M-43.59778386774408 -29.895256030836055 C-43.17060565938373 -30.022040280773233, -42.743427451023386 -30.14882453071041, -41.66199439314951 -30.469788185729417 M-41.66199439314951 -30.469788185729417 C-40.8884825857911 -30.646337208122706, -40.11497077843269 -30.822886230515994, -39.69337180409324 -30.919113445218553 M-41.66199439314951 -30.469788185729417 C-40.875107961677685 -30.649389878799013, -40.08822153020585 -30.828991571868613, -39.69337180409324 -30.919113445218553 M-39.69337180409324 -30.919113445218553 C-38.969713769870204 -31.036108864139862, -38.24605573564716 -31.153104283061175, -37.70000559306196 -31.24138543543225 M-39.69337180409324 -30.919113445218553 C-39.12875590553118 -31.01039616503638, -38.56414000696912 -31.101678884854206, -37.70000559306196 -31.24138543543225 M-37.70000559306196 -31.24138543543225 C-37.17619308027794 -31.29191699856381, -36.65238056749392 -31.342448561695367, -35.69008692939246 -31.435279871635593 M-37.70000559306196 -31.24138543543225 C-37.21959896774071 -31.28772968480349, -36.73919234241946 -31.334073934174736, -35.69008692939246 -31.435279871635593 M-35.69008692939246 -31.435279871635593 C-35.034686495934785 -31.456297287877028, -34.379286062477114 -31.47731470411846, -33.67187500000001 -31.5 M-35.69008692939246 -31.435279871635593 C-34.929088347879905 -31.459683614950823, -34.16808976636735 -31.48408735826605, -33.67187500000001 -31.5 M-33.67187500000001 -31.5 C-33.67187500000001 -31.5, -33.67187500000001 -31.5, -33.671875 -31.5 M-33.67187500000001 -31.5 C-33.67187500000001 -31.5, -33.671875 -31.5, -33.671875 -31.5" stroke="#888" stroke-width="1.3" fill="none" stroke-dasharray="5 5" style="fill:#fafafa !important;stroke:#888 !important;stroke-dasharray:5 5 !important"/></g><g class="label" style="color:#666 !important" transform="translate(-49.796875, -24)"><rect/><foreignObject width="99.59375" height="48"><div style="color: rgb(102, 102, 102) !important; display: table-cell; white-space: nowrap; line-height: 1.5; max-width: 200px; text-align: center;" xmlns="http://www.w3.org/1999/xhtml"><span style="color:#666 !important" class="nodeLabel"><p>S-Miles Cloud<br /><i>optional</i></p></span></div></foreignObject></g></g><g class="node default terminator" id="my-svg-flowchart-term_battery_system-1" data-look="classic" transform="translate(281.8046875, 684.4375)"><rect class="basic label-container" style="fill:#fafafa !important;stroke:#444 !important" x="-84.2421875" y="-27" width="168.484375" height="54"/><g class="label" style="" transform="translate(-54.2421875, -12)"><rect/><foreignObject width="108.484375" height="24"><div xmlns="http://www.w3.org/1999/xhtml" style="display: table-cell; white-space: nowrap; line-height: 1.5; max-width: 200px; text-align: center;"><span class="nodeLabel"><p>Battery System</p></span></div></foreignObject></g></g><g class="node default terminator" id="my-svg-flowchart-term_inverters-2" data-look="classic" transform="translate(2158.8984375, 36.9375)"><rect class="basic label-container" style="fill:#fafafa !important;stroke:#444 !important" x="-82.0234375" y="-27" width="164.046875" height="54"/><g class="label" style="" transform="translate(-52.0234375, -12)"><rect/><foreignObject width="104.046875" height="24"><div xmlns="http://www.w3.org/1999/xhtml" style="display: table-cell; white-space: nowrap; line-height: 1.5; max-width: 200px; text-align: center;"><span class="nodeLabel"><p>Solar Inverters</p></span></div></foreignObject></g></g><g class="node default grid" id="my-svg-flowchart-term_grid-3" data-look="classic" transform="translate(74.890625, 335.09375)"><rect class="basic label-container" style="fill:#fef0ef !important;stroke:#e74c3c !important" x="-66.890625" y="-27" width="133.78125" height="54"/><g class="label" style="" transform="translate(-36.890625, -12)"><rect/><foreignObject width="73.78125" height="24"><div xmlns="http://www.w3.org/1999/xhtml" style="display: table-cell; white-space: nowrap; line-height: 1.5; max-width: 200px; text-align: center;"><span class="nodeLabel"><p>Utility Grid</p></span></div></foreignObject></g></g><g class="node default terminator" id="my-svg-flowchart-term_user-4" data-look="classic" transform="translate(2158.8984375, 260.125)"><rect class="basic label-container" style="fill:#fafafa !important;stroke:#444 !important" x="-53.5625" y="-27" width="107.125" height="54"/><g class="label" style="" transform="translate(-23.5625, -12)"><rect/><foreignObject width="47.125" height="24"><div xmlns="http://www.w3.org/1999/xhtml" style="display: table-cell; white-space: nowrap; line-height: 1.5; max-width: 200px; text-align: center;"><span class="nodeLabel"><p>Owner</p></span></div></foreignObject></g></g><g class="node default terminator" id="my-svg-flowchart-term_meter-5" data-look="classic" transform="translate(281.8046875, 57.19140625)"><rect class="basic label-container" style="fill:#fafafa !important;stroke:#444 !important" x="-90.0234375" y="-27" width="180.046875" height="54"/><g class="label" style="" transform="translate(-60.0234375, -12)"><rect/><foreignObject width="120.046875" height="24"><div xmlns="http://www.w3.org/1999/xhtml" style="display: table-cell; white-space: nowrap; line-height: 1.5; max-width: 200px; text-align: center;"><span class="nodeLabel"><p>Net Power Meter</p></span></div></foreignObject></g></g><g class="node default proc" id="my-svg-flowchart-proc_acquire_telemetry-6" data-look="classic" transform="translate(674.6328125, 579.24609375)"><circle class="basic label-container" style="fill:#cfe5ff !important;stroke:#2a70c2 !important" r="71.3828125" cx="0" cy="0"/><g class="label" style="color:#000 !important" transform="translate(-63.8828125, -12)"><rect/><foreignObject width="127.765625" height="24"><div style="color: rgb(0, 0, 0) !important; display: table-cell; white-space: nowrap; line-height: 1.5; max-width: 200px; text-align: center;" xmlns="http://www.w3.org/1999/xhtml"><span style="color:#000 !important" class="nodeLabel"><p>Acquire Telemetry</p></span></div></foreignObject></g></g><g class="node default brain" id="my-svg-flowchart-proc_compute_balance-7" data-look="classic" transform="translate(1348.828125, 222.125)"><circle class="basic label-container" style="fill:#7fbff5 !important;stroke:#1f5a99 !important" r="69.7421875" cx="0" cy="0"/><g class="label" style="color:#000 !important;font-weight:bold !important" transform="translate(-62.2421875, -12)"><rect/><foreignObject width="124.484375" height="24"><div style="color: rgb(0, 0, 0) !important; font-weight: bold !important; display: table-cell; white-space: nowrap; line-height: 1.5; max-width: 200px; text-align: center;" xmlns="http://www.w3.org/1999/xhtml"><span style="color:#000 !important;font-weight:bold !important" class="nodeLabel"><p>Energy Manager</p></span></div></foreignObject></g></g><g class="node default proc" id="my-svg-flowchart-proc_dispatch_commands-8" data-look="classic" transform="translate(1771.734375, 89.75)"><circle class="basic label-container" style="fill:#cfe5ff !important;stroke:#2a70c2 !important" r="81.75" cx="0" cy="0"/><g class="label" style="color:#000 !important" transform="translate(-74.25, -12)"><rect/><foreignObject width="148.5" height="24"><div style="color: rgb(0, 0, 0) !important; display: table-cell; white-space: nowrap; line-height: 1.5; max-width: 200px; text-align: center;" xmlns="http://www.w3.org/1999/xhtml"><span style="color:#000 !important" class="nodeLabel"><p>Dispatch Commands</p></span></div></foreignObject></g></g><g class="node default proc" id="my-svg-flowchart-proc_serve_ui-9" data-look="classic" transform="translate(1771.734375, 260.125)"><circle class="basic label-container" style="fill:#cfe5ff !important;stroke:#2a70c2 !important" r="38.625" cx="0" cy="0"/><g class="label" style="color:#000 !important" transform="translate(-31.125, -12)"><rect/><foreignObject width="62.25" height="24"><div style="color: rgb(0, 0, 0) !important; display: table-cell; white-space: nowrap; line-height: 1.5; max-width: 200px; text-align: center;" xmlns="http://www.w3.org/1999/xhtml"><span style="color:#000 !important" class="nodeLabel"><p>Serve UI</p></span></div></foreignObject></g></g><g class="node default proc" id="my-svg-flowchart-proc_handle_user_input-10" data-look="classic" transform="translate(2480.7421875, 313.75390625)"><circle class="basic label-container" style="fill:#cfe5ff !important;stroke:#2a70c2 !important" r="52.8671875" cx="0" cy="0"/><g class="label" style="color:#000 !important" transform="translate(-45.3671875, -12)"><rect/><foreignObject width="90.734375" height="24"><div style="color: rgb(0, 0, 0) !important; display: table-cell; white-space: nowrap; line-height: 1.5; max-width: 200px; text-align: center;" xmlns="http://www.w3.org/1999/xhtml"><span style="color:#000 !important" class="nodeLabel"><p>Handle Input</p></span></div></foreignObject></g></g><g class="node default optional" id="my-svg-flowchart-proc_cloud_forward-11" data-look="classic" transform="translate(1348.828125, 472.27734375)"><circle class="basic label-container" style="fill:#e6f0ff !important;stroke:#888 !important;stroke-dasharray:3 3 !important" r="59.96875" cx="0" cy="0"/><g class="label" style="" transform="translate(-52.46875, -12)"><rect/><foreignObject width="104.9375" height="24"><div xmlns="http://www.w3.org/1999/xhtml" style="display: table-cell; white-space: nowrap; line-height: 1.5; max-width: 200px; text-align: center;"><span class="nodeLabel"><p>Cloud Forward</p></span></div></foreignObject></g></g><g class="node default store" id="my-svg-flowchart-store_system_state-12" data-look="classic" transform="translate(1013.40625, 365.30859375)"><path d="M0,11.710963455149502 a55.078125,11.710963455149502 0,0,0 110.15625,0 a55.078125,11.710963455149502 0,0,0 -110.15625,0 l0,50.7109634551495 a55.078125,11.710963455149502 0,0,0 110.15625,0 l0,-50.7109634551495" class="basic label-container outer-path" style="fill:#fff5cc !important;stroke:#b89800 !important" transform="translate(-55.078125, -37.06644518272425)"/><g class="label" style="" transform="translate(-47.578125, -2)"><rect/><foreignObject width="95.15625" height="24"><div xmlns="http://www.w3.org/1999/xhtml" style="display: table-cell; white-space: nowrap; line-height: 1.5; max-width: 200px; text-align: center;"><span class="nodeLabel"><p>System State</p></span></div></foreignObject></g></g></g></g></g><defs><filter id="my-svg-drop-shadow" height="130%" width="130%"><feDropShadow dx="4" dy="4" stdDeviation="0" flood-opacity="0.06" flood-color="#000000"/></filter></defs><defs><filter id="my-svg-drop-shadow-small" height="150%" width="150%"><feDropShadow dx="2" dy="2" stdDeviation="0" flood-opacity="0.06" flood-color="#000000"/></filter></defs></svg>