<svg id="my-svg" width="100%" xmlns="http://www.w3.org/2000/svg" xmlns:xlink="http://www.w3.org/1999/xlink" class="flowchart" style="max-width: 865.469px; background-color: white;" viewBox="0 0 865.46875 302.2734375" role="graphics-document document" aria-roledescription="flowchart-v2"><style>#my-svg{font-family:"trebuchet ms",verdana,arial,sans-serif;font-size:16px;fill:#333;}@keyframes edge-animation-frame{from{stroke-dashoffset:0;}}@keyframes dash{to{stroke-dashoffset:0;}}#my-svg .edge-animation-slow{stroke-dasharray:9,5!important;stroke-dashoffset:900;animation:dash 50s linear infinite;stroke-linecap:round;}#my-svg .edge-animation-fast{stroke-dasharray:9,5!important;stroke-dashoffset:900;animation:dash 20s linear infinite;stroke-linecap:round;}#my-svg .error-icon{fill:#552222;}#my-svg .error-text{fill:#552222;stroke:#552222;}#my-svg .edge-thickness-normal{stroke-width:1px;}#my-svg .edge-thickness-thick{stroke-width:3.5px;}#my-svg .edge-pattern-solid{stroke-dasharray:0;}#my-svg .edge-thickness-invisible{stroke-width:0;fill:none;}#my-svg .edge-pattern-dashed{stroke-dasharray:3;}#my-svg .edge-pattern-dotted{stroke-dasharray:2;}#my-svg .marker{fill:#333333;stroke:#333333;}#my-svg .marker.cross{stroke:#333333;}#my-svg svg{font-family:"trebuchet ms",verdana,arial,sans-serif;font-size:16px;}#my-svg p{margin:0;}#my-svg .label{font-family:"trebuchet ms",verdana,arial,sans-serif;color:#333;}#my-svg .cluster-label text{fill:#333;}#my-svg .cluster-label span{color:#333;}#my-svg .cluster-label span p{background-color:transparent;}#my-svg .label text,#my-svg span{fill:#333;color:#333;}#my-svg .node rect,#my-svg .node circle,#my-svg .node ellipse,#my-svg .node polygon,#my-svg .node path{fill:#ECECFF;stroke:#9370DB;stroke-width:1px;}#my-svg .rough-node .label text,#my-svg .node .label text,#my-svg .image-shape .label,#my-svg .icon-shape .label{text-anchor:middle;}#my-svg .node .katex path{fill:#000;stroke:#000;stroke-width:1px;}#my-svg .rough-node .label,#my-svg .node .label,#my-svg .image-shape .label,#my-svg .icon-shape .label{text-align:center;}#my-svg .node.clickable{cursor:pointer;}#my-svg .root .anchor path{fill:#333333!important;stroke-width:0;stroke:#333333;}#my-svg .arrowheadPath{fill:#333333;}#my-svg .edgePath .path{stroke:#333333;stroke-width:1px;}#my-svg .flowchart-link{stroke:#333333;fill:none;}#my-svg .edgeLabel{background-color:rgba(232,232,232, 0.8);text-align:center;}#my-svg .edgeLabel p{background-color:rgba(232,232,232, 0.8);}#my-svg .edgeLabel rect{opacity:0.5;background-color:rgba(232,232,232, 0.8);fill:rgba(232,232,232, 0.8);}#my-svg .labelBkg{background-color:rgba(232, 232, 232, 0.5);}#my-svg .cluster rect{fill:#ffffde;stroke:#aaaa33;stroke-width:1px;}#my-svg .cluster text{fill:#333;}#my-svg .cluster span{color:#333;}#my-svg div.mermaidTooltip{position:absolute;text-align:center;max-width:200px;padding:2px;font-family:"trebuchet ms",verdana,arial,sans-serif;font-size:12px;background:hsl(80, 100%, 96.2745098039%);border:1px solid #aaaa33;border-radius:2px;pointer-events:none;z-index:100;}#my-svg .flowchartTitleText{text-anchor:middle;font-size:18px;fill:#333;}#my-svg rect.text{fill:none;stroke-width:0;}#my-svg .icon-shape,#my-svg .image-shape{background-color:rgba(232,232,232, 0.8);text-align:center;}#my-svg .icon-shape p,#my-svg .image-shape p{background-color:rgba(232,232,232, 0.8);padding:2px;}#my-svg .icon-shape .label rect,#my-svg .image-shape .label rect{opacity:0.5;background-color:rgba(232,232,232, 0.8);fill:rgba(232,232,232, 0.8);}#my-svg .label-icon{display:inline-block;height:1em;overflow:visible;vertical-align:-0.125em;}#my-svg .node .label-icon path{fill:currentColor;stroke:revert;stroke-width:revert;}#my-svg .node .neo-node{stroke:#9370DB;}#my-svg [data-look="neo"].node rect,#my-svg [data-look="neo"].cluster rect,#my-svg [data-look="neo"].node polygon{stroke:#9370DB;filter:drop-shadow(1px 2px 2px rgba(185, 185, 185, 1));}#my-svg [data-look="neo"].node path{stroke:#9370DB;stroke-width:1px;}#my-svg [data-look="neo"].node .outer-path{filter:drop-shadow(1px 2px 2px rgba(185, 185, 185, 1));}#my-svg [data-look="neo"].node .neo-line path{stroke:#9370DB;filter:none;}#my-svg [data-look="neo"].node circle{stroke:#9370DB;filter:drop-shadow(1px 2px 2px rgba(185, 185, 185, 1));}#my-svg [data-look="neo"].node circle .state-start{fill:#000000;}#my-svg [data-look="neo"].icon-shape .icon{fill:#9370DB;filter:drop-shadow(1px 2px 2px rgba(185, 185, 185, 1));}#my-svg [data-look="neo"].icon-shape .icon-neo path{stroke:#9370DB;filter:drop-shadow(1px 2px 2px rgba(185, 185, 185, 1));}#my-svg :root{--mermaid-font-family:"trebuchet ms",verdana,arial,sans-serif;}#my-svg .system&gt;*{fill:rgb(74, 144, 226)!important;stroke:rgb(42, 112, 194)!important;color:rgb(255, 255, 255)!important;font-weight:bold!important;}#my-svg .system span{fill:rgb(74, 144, 226)!important;stroke:rgb(42, 112, 194)!important;color:rgb(255, 255, 255)!important;font-weight:bold!important;}#my-svg .system tspan{fill:rgb(255, 255, 255)!important;}#my-svg .terminator&gt;*{fill:rgb(250, 250, 250)!important;stroke:rgb(68, 68, 68)!important;}#my-svg .terminator span{fill:rgb(250, 250, 250)!important;stroke:rgb(68, 68, 68)!important;}#my-svg .optional&gt;*{fill:rgb(250, 250, 250)!important;stroke:rgb(136, 136, 136)!important;stroke-dasharray:5,5!important;color:rgb(102, 102, 102)!important;}#my-svg .optional span{fill:rgb(250, 250, 250)!important;stroke:rgb(136, 136, 136)!important;stroke-dasharray:5,5!important;color:rgb(102, 102, 102)!important;}#my-svg .optional tspan{fill:rgb(102, 102, 102)!important;}#my-svg .grid&gt;*{fill:rgb(254, 240, 239)!important;stroke:rgb(231, 76, 60)!important;}#my-svg .grid span{fill:rgb(254, 240, 239)!important;stroke:rgb(231, 76, 60)!important;}</style><g><marker id="my-svg_flowchart-v2-pointEnd" class="marker flowchart-v2" viewBox="0 0 10 10" refX="5" refY="5" markerUnits="userSpaceOnUse" markerWidth="8" markerHeight="8" orient="auto"><path d="M 0 0 L 10 5 L 0 10 z" class="arrowMarkerPath" style="stroke-width: 1; stroke-dasharray: 1, 0;"/></marker><marker id="my-svg_flowchart-v2-pointStart" class="marker flowchart-v2" viewBox="0 0 10 10" refX="4.5" refY="5" markerUnits="userSpaceOnUse" markerWidth="8" markerHeight="8" orient="auto"><path d="M 0 5 L 10 10 L 10 0 z" class="arrowMarkerPath" style="stroke-width: 1; stroke-dasharray: 1, 0;"/></marker><marker id="my-svg_flowchart-v2-pointEnd-margin" class="marker flowchart-v2" viewBox="0 0 11.5 14" refX="11.5" refY="7" markerUnits="userSpaceOnUse" markerWidth="10.5" markerHeight="14" orient="auto"><path d="M 0 0 L 11.5 7 L 0 14 z" class="arrowMarkerPath" style="stroke-width: 0; stroke-dasharray: 1, 0;"/></marker><marker id="my-svg_flowchart-v2-pointStart-margin" class="marker flowchart-v2" viewBox="0 0 11.5 14" refX="1" refY="7" markerUnits="userSpaceOnUse" markerWidth="11.5" markerHeight="14" orient="auto"><polygon points="0,7 11.5,14 11.5,0" class="arrowMarkerPath" style="stroke-width: 0; stroke-dasharray: 1, 0;"/></marker><marker id="my-svg_flowchart-v2-circleEnd" class="marker flowchart-v2" viewBox="0 0 10 10" refX="11" refY="5" markerUnits="userSpaceOnUse" markerWidth="11" markerHeight="11" orient="auto"><circle cx="5" cy="5" r="5" class="arrowMarkerPath" style="stroke-width: 1; stroke-dasharray: 1, 0;"/></marker><marker id="my-svg_flowchart-v2-circleStart" class="marker flowchart-v2" viewBox="0 0 10 10" refX="-1" refY="5" markerUnits="userSpaceOnUse" markerWidth="11" markerHeight="11" orient="auto"><circle cx="5" cy="5" r="5" class="arrowMarkerPath" style="stroke-width: 1; stroke-dasharray: 1, 0;"/></marker><marker id="my-svg_flowchart-v2-circleEnd-margin" class="marker flowchart-v2" viewBox="0 0 10 10" refY="5" refX="12.25" markerUnits="userSpaceOnUse" markerWidth="14" markerHeight="14" orient="auto"><circle cx="5" cy="5" r="5" class="arrowMarkerPath" style="stroke-width: 0; stroke-dasharray: 1, 0;"/></marker><marker id="my-svg_flowchart-v2-circleStart-margin" class="marker flowchart-v2" viewBox="0 0 10 10" refX="-2" refY="5" markerUnits="userSpaceOnUse" markerWidth="14" markerHeight="14" orient="auto"><circle cx="5" cy="5" r="5" class="arrowMarkerPath" style="stroke-width: 0; stroke-dasharray: 1, 0;"/></marker><marker id="my-svg_flowchart-v2-crossEnd" class="marker cross flowchart-v2" viewBox="0 0 11 11" refX="12" refY="5.2" markerUnits="userSpaceOnUse" markerWidth="11" markerHeight="11" orient="auto"><path d="M 1,1 l 9,9 M 10,1 l -9,9" class="arrowMarkerPath" style="stroke-width: 2; stroke-dasharray: 1, 0;"/></marker><marker id="my-svg_flowchart-v2-crossStart" class="marker cross flowchart-v2" viewBox="0 0 11 11" refX="-1" refY="5.2" markerUnits="userSpaceOnUse" markerWidth="11" markerHeight="11" orient="auto"><path d="M 1,1 l 9,9 M 10,1 l -9,9" class="arrowMarkerPath" style="stroke-width: 2; stroke-dasharray: 1, 0;"/></marker><marker id="my-svg_flowchart-v2-crossEnd-margin" class="marker cross flowchart-v2" viewBox="0 0 15 15" refX="17.7" refY="7.5" markerUnits="userSpaceOnUse" markerWidth="12" markerHeight="12" orient="auto"><path d="M 1,1 L 14,14 M 1,14 L 14,1" class="arrowMarkerPath" style="stroke-width: 2.5;"/></marker><marker id="my-svg_flowchart-v2-crossStart-margin" class="marker cross flowchart-v2" viewBox="0 0 15 15" refX="-3.5" refY="7.5" markerUnits="userSpaceOnUse" markerWidth="12" markerHeight="12" orient="auto"><path d="M 1,1 L 14,14 M 1,14 L 14,1" class="arrowMarkerPath" style="stroke-width: 2.5; stroke-dasharray: 1, 0;"/></marker><g class="root"><g class="clusters"/><g class="edgePaths"><path d="M141.375,156.95L163.326,154.337C185.276,151.724,229.177,146.499,268.514,149.762C307.851,153.025,342.623,164.776,360.01,170.652L377.396,176.527" id="my-svg-L_term_angler_sys_root_0" class="edge-thickness-normal edge-pattern-solid edge-thickness-normal edge-pattern-solid flowchart-link" style=";" data-edge="true" data-et="edge" data-id="L_term_angler_sys_root_0" data-points="W3sieCI6MTQxLjM3NSwieSI6MTU2Ljk0OTk5NTExMjY0Njl9LHsieCI6MjczLjA3ODEyNSwieSI6MTQxLjI3MzQzNzV9LHsieCI6MzgxLjE4NTMxOTAxNDMwMDY2LCJ5IjoxNzcuODA3ODQyNDY5MTQ0Nn1d" data-look="classic" marker-end="url(#my-svg_flowchart-v2-pointEnd)"/><path d="M377.656,199.273L360.227,199.273C342.797,199.273,307.938,199.273,269.212,195.125C230.486,190.977,187.894,182.682,166.597,178.534L145.301,174.386" id="my-svg-L_sys_root_term_angler_0" class="edge-thickness-normal edge-pattern-solid edge-thickness-normal edge-pattern-solid flowchart-link" style=";" data-edge="true" data-et="edge" data-id="L_sys_root_term_angler_0" data-points="W3sieCI6Mzc3LjY1NjI1LCJ5IjoxOTkuMjczNDM3NX0seyJ4IjoyNzMuMDc4MTI1LCJ5IjoxOTkuMjczNDM3NX0seyJ4IjoxNDEuMzc1LCJ5IjoxNzMuNjIwODg4Njc5MzA1MX1d" data-look="classic" marker-end="url(#my-svg_flowchart-v2-pointEnd)"/><path d="M735.404,152L714.674,163.546C693.944,175.091,652.484,198.182,615.772,207.614C579.061,217.046,547.099,212.818,531.118,210.704L515.136,208.59" id="my-svg-L_term_line_sys_root_0" class="edge-thickness-normal edge-pattern-solid edge-thickness-normal edge-pattern-solid flowchart-link" style=";" data-edge="true" data-et="edge" data-id="L_term_line_sys_root_0" data-points="W3sieCI6NzM1LjQwNDE5NTI4MDE2NzIsInkiOjE1Mn0seyJ4Ijo2MTEuMDIzNDM3NSwieSI6MjIxLjI3MzQzNzV9LHsieCI6NTExLjE3MTAzODc0NzI3MzM3LCJ5IjoyMDguMDY1NDczMDYzNTQ1NTd9XQ==" data-look="classic" marker-end="url(#my-svg_flowchart-v2-pointEnd)"/><path d="M502.43,165.172L520.529,154.481C538.628,143.789,574.826,122.406,608.81,113.918C642.794,105.43,674.564,109.837,690.45,112.04L706.335,114.244" id="my-svg-L_sys_root_term_line_0" class="edge-thickness-normal edge-pattern-solid edge-thickness-normal edge-pattern-solid flowchart-link" style=";" data-edge="true" data-et="edge" data-id="L_sys_root_term_line_0" data-points="W3sieCI6NTAyLjQzMDE0NjMyMjgwMywieSI6MTY1LjE3MjQ5MjQwMzY3OTM0fSx7IngiOjYxMS4wMjM0Mzc1LCJ5IjoxMDEuMDIzNDM3NX0seyJ4Ijo3MTAuMjk2ODc1LCJ5IjoxMTQuNzkzMjE4NzM4NzAxMDd9XQ==" data-look="classic" marker-end="url(#my-svg_flowchart-v2-pointEnd)"/><path d="M511.171,190.481L527.813,188.28C544.455,186.079,577.739,181.676,613.743,187.809C649.746,193.943,688.469,210.612,707.83,218.947L727.192,227.281" id="my-svg-L_sys_root_term_cloud_0" class="edge-thickness-normal edge-pattern-dotted edge-thickness-normal edge-pattern-solid flowchart-link" style=";" data-edge="true" data-et="edge" data-id="L_sys_root_term_cloud_0" data-points="W3sieCI6NTExLjE3MTAzODc0NzI3MzM3LCJ5IjoxOTAuNDgxNDAxOTM2NDU0NDN9LHsieCI6NjExLjAyMzQzNzUsInkiOjE3Ny4yNzM0Mzc1fSx7IngiOjczMC44NjU2NTE5NjI2ODU0LCJ5IjoyMjguODYzMDgxMTQ5NTc3NjV9XQ==" data-look="classic" marker-end="url(#my-svg_flowchart-v2-pointEnd)"/><path d="M168.5,267.273L185.93,267.273C203.359,267.273,238.219,267.273,273.864,260.056C309.509,252.839,345.94,238.405,364.155,231.188L382.371,223.97" id="my-svg-L_term_power_sys_root_0" class="edge-thickness-normal edge-pattern-solid edge-thickness-normal edge-pattern-solid flowchart-link" style=";" data-edge="true" data-et="edge" data-id="L_term_power_sys_root_0" data-points="W3sieCI6MTY4LjUsInkiOjI2Ny4yNzM0Mzc1fSx7IngiOjI3My4wNzgxMjUsInkiOjI2Ny4yNzM0Mzc1fSx7IngiOjM4Mi4zNzA1OTIzMDY4Nzc2NSwieSI6MjIzLjk3MDM3Njg5MTg4NTM0fV0=" data-look="classic"/><path d="M489.82,35L510.021,35C530.221,35,570.622,35,610.99,45.5C651.357,56,691.691,77,711.858,87.5L732.025,98" id="my-svg-L_term_fish_term_line_0" class="edge-thickness-normal edge-pattern-solid edge-thickness-normal edge-pattern-solid flowchart-link" style=";" data-edge="true" data-et="edge" data-id="L_term_fish_term_line_0" data-points="W3sieCI6NDg5LjgyMDMxMjUsInkiOjM1fSx7IngiOjYxMS4wMjM0Mzc1LCJ5IjozNX0seyJ4Ijo3MzIuMDI1LCJ5Ijo5OH1d" data-look="classic"/></g><g class="edgeLabels"><g class="edgeLabel" transform="translate(273.078125, 141.2734375)"><g class="label" data-id="L_term_angler_sys_root_0" transform="translate(-79.578125, -12)"><foreignObject width="159.15625" height="24"><div xmlns="http://www.w3.org/1999/xhtml" class="labelBkg" style="display: table-cell; white-space: nowrap; line-height: 1.5; max-width: 200px; text-align: center;"><span class="edgeLabel"><p>F1: config, arm/disarm</p></span></div></foreignObject></g></g><g class="edgeLabel" transform="translate(273.078125, 199.2734375)"><g class="label" data-id="L_sys_root_term_angler_0" transform="translate(-59.1328125, -12)"><foreignObject width="118.265625" height="24"><div xmlns="http://www.w3.org/1999/xhtml" class="labelBkg" style="display: table-cell; white-space: nowrap; line-height: 1.5; max-width: 200px; text-align: center;"><span class="edgeLabel"><p>F2: status, alerts</p></span></div></foreignObject></g></g><g class="edgeLabel" transform="translate(629.21632, 211.14097)"><g class="label" data-id="L_term_line_sys_root_0" transform="translate(-74.2734375, -12)"><foreignObject width="148.546875" height="24"><div xmlns="http://www.w3.org/1999/xhtml" class="labelBkg" style="display: table-cell; white-space: nowrap; line-height: 1.5; max-width: 200px; text-align: center;"><span class="edgeLabel"><p>F3: tension feedback</p></span></div></foreignObject></g></g><g class="edgeLabel" transform="translate(599.87291, 107.61036)"><g class="label" data-id="L_sys_root_term_line_0" transform="translate(-69.3671875, -12)"><foreignObject width="138.734375" height="24"><div xmlns="http://www.w3.org/1999/xhtml" class="labelBkg" style="display: table-cell; white-space: nowrap; line-height: 1.5; max-width: 200px; text-align: center;"><span class="edgeLabel"><p>F4: reel torque cmd</p></span></div></foreignObject></g></g><g class="edgeLabel" transform="translate(624.68743, 183.15551)"><g class="label" data-id="L_sys_root_term_cloud_0" transform="translate(-45.8046875, -12)"><foreignObject width="91.609375" height="24"><div xmlns="http://www.w3.org/1999/xhtml" class="labelBkg" style="display: table-cell; white-space: nowrap; line-height: 1.5; max-width: 200px; text-align: center;"><span class="edgeLabel"><p>F6: catch log</p></span></div></foreignObject></g></g><g class="edgeLabel"><g class="label" data-id="L_term_power_sys_root_0" transform="translate(0, 0)"><foreignObject width="0" height="0"><div xmlns="http://www.w3.org/1999/xhtml" class="labelBkg" style="display: table-cell; white-space: nowrap; line-height: 1.5; max-width: 200px; text-align: center;"><span class="edgeLabel"></span></div></foreignObject></g></g><g class="edgeLabel"><g class="label" data-id="L_term_fish_term_line_0" transform="translate(0, 0)"><foreignObject width="0" height="0"><div xmlns="http://www.w3.org/1999/xhtml" class="labelBkg" style="display: table-cell; white-space: nowrap; line-height: 1.5; max-width: 200px; text-align: center;"><span class="edgeLabel"></span></div></foreignObject></g></g></g><g class="nodes"><g class="node default terminator" id="my-svg-flowchart-term_angler-0" data-look="classic" transform="translate(88.25, 163.2734375)"><rect class="basic label-container" style="fill:#fafafa !important;stroke:#444 !important" x="-53.125" y="-27" width="106.25" height="54"/><g class="label" style="" transform="translate(-23.125, -12)"><rect/><foreignObject width="46.25" height="24"><div xmlns="http://www.w3.org/1999/xhtml" style="display: table-cell; white-space: nowrap; line-height: 1.5; max-width: 200px; text-align: center;"><span class="nodeLabel"><p>Angler</p></span></div></foreignObject></g></g><g class="node default terminator" id="my-svg-flowchart-term_line-1" data-look="classic" transform="translate(783.8828125, 125)"><rect class="basic label-container" style="fill:#fafafa !important;stroke:#444 !important" x="-73.5859375" y="-27" width="147.171875" height="54"/><g class="label" style="" transform="translate(-43.5859375, -12)"><rect/><foreignObject width="87.171875" height="24"><div xmlns="http://www.w3.org/1999/xhtml" style="display: table-cell; white-space: nowrap; line-height: 1.5; max-width: 200px; text-align: center;"><span class="nodeLabel"><p>Hook &amp; Line</p></span></div></foreignObject></g></g><g class="node default terminator" id="my-svg-flowchart-term_fish-2" data-look="classic" transform="translate(444.703125, 35)"><rect class="basic label-container" style="fill:#fafafa !important;stroke:#444 !important" x="-45.1171875" y="-27" width="90.234375" height="54"/><g class="label" style="" transform="translate(-15.1171875, -12)"><rect/><foreignObject width="30.234375" height="24"><div xmlns="http://www.w3.org/1999/xhtml" style="display: table-cell; white-space: nowrap; line-height: 1.5; max-width: 200px; text-align: center;"><span class="nodeLabel"><p>Fish</p></span></div></foreignObject></g></g><g class="node default terminator" id="my-svg-flowchart-term_power-3" data-look="classic" transform="translate(88.25, 267.2734375)"><rect class="basic label-container" style="fill:#fafafa !important;stroke:#444 !important" x="-80.25" y="-27" width="160.5" height="54"/><g class="label" style="" transform="translate(-50.25, -12)"><rect/><foreignObject width="100.5" height="24"><div xmlns="http://www.w3.org/1999/xhtml" style="display: table-cell; white-space: nowrap; line-height: 1.5; max-width: 200px; text-align: center;"><span class="nodeLabel"><p>Power Source</p></span></div></foreignObject></g></g><g class="node default optional" id="my-svg-flowchart-term_cloud-4" data-look="classic" transform="translate(783.8828125, 251.2734375)"><g class="basic label-container outer-path"><path d="M-31.9140625 -31.5 C-12.549403628251849 -31.5, 6.815255243496303 -31.5, 31.9140625 -31.5 C31.9140625 -31.5, 31.914062499999996 -31.5, 31.914062499999996 -31.5 C32.50568966690593 -31.481027668289748, 33.09731683381187 -31.462055336579496, 33.93227442939246 -31.435279871635593 C34.61622260807845 -31.369300213405786, 35.30017078676445 -31.30332055517598, 35.94219309306194 -31.241385435432253 C36.602292324939604 -31.13466571076827, 37.26239155681727 -31.02794598610429, 37.935559304093225 -30.91911344521856 C38.337328067306586 -30.82741234680131, 38.73909683051994 -30.73571124838406, 39.90418189314948 -30.469788185729428 C40.42278908472303 -30.315868293495097, 40.94139627629658 -30.161948401260766, 41.83997136774405 -29.895256030836062 C42.31281960158505 -29.721243509821416, 42.78566783542604 -29.54723098880677, 43.73497315370028 -29.197877856399685 C44.299183273140876 -28.94811877322187, 44.86339339258147 -28.698359690044057, 45.58140028220308 -28.380519338926202 C46.28938126926697 -28.011166111458436, 46.99736225633086 -27.64181288399067, 47.371665388124036 -27.44653917988677 C48.047512087401444 -27.036836939068742, 48.72335878667886 -26.627134698250718, 49.098411888132276 -26.399775304092984 C49.66267709913917 -26.00616831954187, 50.22694231014606 -25.612561334990758, 50.7545442104733 -25.244529088840633 C51.309154292869 -24.802242306924178, 51.863764375264715 -24.359955525007727, 52.33325695219533 -23.985547688627737 C52.71263637903111 -23.641005331005058, 53.09201580586689 -23.29646297338238, 53.82806284400982 -22.62800452807842 C54.27335135729046 -22.168207579249323, 54.71863987057109 -21.708410630420225, 55.232819407872434 -21.177478043231485 C55.65433505224561 -20.682341782431127, 56.07585069661879 -20.187205521630766, 56.54175419774294 -19.63992875855011 C56.866842273550525 -19.204340353100914, 57.1919303493581 -18.76875194765172, 57.7494885198041 -18.02167479384835 C58.10191615629764 -17.480251304123023, 58.45434379279117 -16.938827814397698, 58.8510595346684 -16.329365901781543 C59.072287865646 -15.936552598333149, 59.293516196623585 -15.543739294884755, 59.84194065074951 -14.56995614258631 C60.04465629226887 -14.14901277555146, 60.24737193378824 -13.728069408516609, 60.71806012499809 -12.750675308355413 C60.974426778977474 -12.11744471651426, 61.230793432956865 -11.484214124673109, 61.47581779456745 -10.878999214271206 C61.67849688046324 -10.268562100079997, 61.88117596635904 -9.658124985888787, 62.11209987065481 -8.962618978877531 C62.21933995046918 -8.55366607640075, 62.326580030283544 -8.14471317392397, 62.624291733727446 -7.009409419623907 C62.719871989301915 -6.518625008143178, 62.81545224487638 -6.027840596662449, 63.01028867755518 -5.027396693551458 C63.06716465253115 -4.586277863069503, 63.12404062750711 -4.145159032587548, 63.268504557899746 -3.024725316091981 C63.31784836734611 -2.2561556543587864, 63.36719217679247 -1.487585992625592, 63.39787831032167 -1.0096246935071378 C63.39787831032167 -0.2842488694961257, 63.39787831032167 0.44112695451488637, 63.39787831032167 1.00962469350713 C63.351063572498305 1.7388020232822703, 63.304248834674944 2.4679793530574106, 63.268504557899746 3.02472531609196 C63.205991188285005 3.509566666162801, 63.14347781867026 3.9944080162336424, 63.01028867755518 5.027396693551435 C62.916571941921276 5.508612323992464, 62.822855206287365 5.989827954433492, 62.624291733727446 7.0094094196239 C62.444577494240015 7.694737703433574, 62.26486325475258 8.380065987243249, 62.112099870654816 8.96261897887751 C61.90444282117496 9.588048926253121, 61.696785771695104 10.213478873628734, 61.475817794567455 10.878999214271184 C61.28312284306814 11.354959469977926, 61.09042789156883 11.83091972568467, 60.71806012499809 12.750675308355405 C60.375551900937914 13.461900964118355, 60.03304367687774 14.173126619881305, 59.84194065074951 14.569956142586303 C59.52925844925219 15.125155053851053, 59.21657624775488 15.680353965115803, 58.85105953466841 16.329365901781536 C58.42591236715406 16.98250611908307, 58.00076519963972 17.635646336384607, 57.74948851980412 18.021674793848334 C57.3707134994199 18.529198814048957, 56.991938479035674 19.036722834249577, 56.54175419774295 19.639928758550102 C56.17411916385026 20.071773788386494, 55.80648412995756 20.503618818222886, 55.23281940787245 21.177478043231467 C54.851163297657436 21.57156931157786, 54.469507187442424 21.96566057992425, 53.82806284400983 22.628004528078414 C53.487918332486196 22.936914773713575, 53.14777382096256 23.245825019348732, 52.333256952195356 23.985547688627715 C51.80443268838835 24.40727096640913, 51.27560842458136 24.82899424419054, 50.75454421047331 25.24452908884063 C50.21603811252995 25.620167631212652, 49.677532014586596 25.995806173584675, 49.0984118881323 26.399775304092973 C48.52425299803101 26.747833797404535, 47.95009410792972 27.095892290716094, 47.37166538812404 27.446539179886766 C46.76941124781098 27.760734779125904, 46.167157107497914 28.074930378365043, 45.581400282203084 28.3805193389262 C45.20643429766377 28.54650565731102, 44.83146831312446 28.712491975695844, 43.734973153700295 29.197877856399682 C43.03537028633093 29.45533817864962, 42.33576741896157 29.71279850089956, 41.83997136774407 29.895256030836055 C41.3824725781572 30.031039270125287, 40.924973788570334 30.16682250941452, 39.90418189314951 30.46978818572942 C39.45760309225606 30.57171688283433, 39.01102429136261 30.673645579939237, 37.93555930409324 30.919113445218557 C37.167737565377024 31.04324890938768, 36.39991582666081 31.1673843735568, 35.94219309306196 31.24138543543225 C35.317115441542896 31.30168592470843, 34.692037790023825 31.361986413984614, 33.93227442939246 31.435279871635593 C33.455446141971564 31.450570826723226, 32.97861785455066 31.465861781810855, 31.914062500000007 31.5 C31.914062500000004 31.5, 31.914062500000004 31.5, 31.9140625 31.5 C6.853528927060534 31.5, -18.207004645878932 31.5, -31.914062499999993 31.5 C-32.61532843439448 31.477511766415304, -33.31659436878897 31.45502353283061, -33.93227442939244 31.435279871635593 C-34.50023331501657 31.38048956100993, -35.068192200640695 31.325699250384268, -35.942193093061945 31.24138543543225 C-36.39260314669063 31.168566630943698, -36.84301320031932 31.095747826455145, -37.935559304093225 30.919113445218557 C-38.46876889552444 30.797411835492145, -39.00197848695565 30.67571022576573, -39.90418189314947 30.469788185729428 C-40.35188408009542 30.336912526680607, -40.79958626704136 30.204036867631785, -41.839971367744035 29.89525603083607 C-42.35718897184878 29.704915171418403, -42.87440657595353 29.514574312000732, -43.73497315370029 29.197877856399685 C-44.15775973233151 29.010722779557895, -44.58054631096274 28.823567702716108, -45.58140028220308 28.380519338926206 C-45.96192482069851 28.181999930930736, -46.34244935919395 27.983480522935267, -47.37166538812403 27.446539179886773 C-47.7396216283258 27.223481944725577, -48.107577868527564 27.00042470956438, -49.09841188813226 26.399775304092994 C-49.50685452467822 26.1148634020353, -49.915297161224174 25.829951499977607, -50.7545442104733 25.244529088840636 C-51.12852980017935 24.946285533224565, -51.5025153898854 24.648041977608496, -52.33325695219533 23.98554768862774 C-52.637633195395566 23.709121237907368, -52.94200943859581 23.432694787186993, -53.82806284400981 22.628004528078435 C-54.363053364063376 22.075582892584563, -54.89804388411694 21.523161257090695, -55.23281940787244 21.177478043231478 C-55.69335793039817 20.636503289288452, -56.15389645292391 20.095528535345426, -56.54175419774293 19.639928758550113 C-56.82901126602353 19.255030456711392, -57.11626833430413 18.870132154872675, -57.7494885198041 18.021674793848355 C-58.00567761059759 17.62809955398628, -58.26186670139107 17.234524314124208, -58.851059534668394 16.329365901781557 C-59.06389158938474 15.951461037050175, -59.27672364410108 15.57355617231879, -59.8419406507495 14.569956142586314 C-60.08780430340112 14.059415007215794, -60.33366795605274 13.548873871845274, -60.71806012499809 12.750675308355417 C-61.01165363064587 12.025493673161119, -61.30524713629365 11.30031203796682, -61.47581779456745 10.878999214271209 C-61.632277803243106 10.407766596657146, -61.788737811918764 9.936533979043082, -62.11209987065481 8.962618978877522 C-62.292998520043504 8.272774026787827, -62.473897169432206 7.582929074698133, -62.62429173372744 7.009409419623911 C-62.76368481474555 6.293655409334022, -62.903077895763666 5.577901399044133, -63.01028867755518 5.027396693551461 C-63.080332979053885 4.484146922939331, -63.15037728055259 3.940897152327201, -63.268504557899746 3.024725316091999 C-63.297377685947566 2.5750030407777222, -63.32625081399539 2.125280765463446, -63.39787831032167 1.0096246935071416 C-63.39787831032167 0.34318869287523124, -63.39787831032167 -0.3232473077566791, -63.39787831032167 -1.0096246935071262 C-63.37083846079579 -1.4307921760464062, -63.34379861126991 -1.851959658585686, -63.268504557899746 -3.024725316091956 C-63.18674920932167 -3.658803655243886, -63.1049938607436 -4.292881994395816, -63.01028867755518 -5.027396693551446 C-62.9120650322497 -5.531754352620304, -62.81384138694422 -6.036112011689161, -62.624291733727446 -7.009409419623896 C-62.49824708010971 -7.490072311966772, -62.37220242649197 -7.970735204309647, -62.112099870654816 -8.962618978877506 C-61.890956706102834 -9.628666956129724, -61.66981354155085 -10.294714933381943, -61.47581779456746 -10.878999214271168 C-61.194521186055134 -11.573807275796563, -60.913224577542806 -12.268615337321956, -60.71806012499809 -12.750675308355401 C-60.48171563324961 -13.241449702433142, -60.245371141501124 -13.732224096510881, -59.84194065074951 -14.5699561425863 C-59.60429880044417 -14.991913311650164, -59.36665695013883 -15.413870480714028, -58.8510595346684 -16.329365901781546 C-58.55897314651639 -16.77808903016036, -58.26688675836437 -17.22681215853917, -57.74948851980411 -18.021674793848344 C-57.36975526878673 -18.530482755800787, -56.990022017769356 -19.039290717753232, -56.54175419774295 -19.639928758550102 C-56.12646459992753 -20.12775155079163, -55.71117500211212 -20.615574343033156, -55.232819407872455 -21.177478043231467 C-54.80677160662562 -21.61740737719383, -54.38072380537878 -22.0573367111562, -53.828062844009835 -22.628004528078403 C-53.34338493559036 -23.068176180630243, -52.85870702717088 -23.508347833182082, -52.333256952195356 -23.98554768862771 C-51.81821387019275 -24.39628084065277, -51.303170788190144 -24.807013992677827, -50.75454421047331 -25.244529088840626 C-50.135018840850705 -25.67668316786835, -49.51549347122809 -26.10883724689608, -49.098411888132304 -26.39977530409297 C-48.66403610012689 -26.66309645945732, -48.22966031212149 -26.92641761482167, -47.37166538812404 -27.446539179886763 C-46.97608178690699 -27.652914891258312, -46.580498185689926 -27.859290602629862, -45.58140028220309 -28.3805193389262 C-45.211409515670724 -28.544303275883944, -44.84141874913836 -28.70808721284169, -43.7349731537003 -29.19787785639968 C-43.0544954571142 -29.448299939010237, -42.3740177605281 -29.698722021620796, -41.83997136774408 -29.895256030836055 C-41.10082097118544 -30.114631988655052, -40.361670574626814 -30.33400794647405, -39.90418189314951 -30.469788185729417 C-39.45957047515385 -30.571267840526275, -39.0149590571582 -30.672747495323136, -37.93555930409324 -30.919113445218553 C-37.38970674863557 -31.00736265323516, -36.8438541931779 -31.09561186125177, -35.94219309306196 -31.24138543543225 C-35.15565088363059 -31.31726221642069, -34.369108674199225 -31.393138997409128, -33.93227442939246 -31.435279871635593 C-33.26118578951484 -31.456800378121674, -32.59009714963723 -31.478320884607754, -31.91406250000001 -31.5 C-31.914062500000007 -31.5, -31.914062500000004 -31.5, -31.9140625 -31.5" stroke="none" stroke-width="0" fill="#fafafa" style="fill:#fafafa !important;stroke:#888 !important;stroke-dasharray:5 5 !important"/><path d="M-31.9140625 -31.5 C-13.140150146412733 -31.5, 5.633762207174534 -31.5, 31.9140625 -31.5 M-31.9140625 -31.5 C-12.04231492352914 -31.5, 7.829432652941719 -31.5, 31.9140625 -31.5 M31.9140625 -31.5 C31.9140625 -31.5, 31.914062499999996 -31.5, 31.914062499999996 -31.5 M31.9140625 -31.5 C31.9140625 -31.5, 31.914062499999996 -31.5, 31.914062499999996 -31.5 M31.914062499999996 -31.5 C32.6520583216027 -31.476333910422927, 33.39005414320541 -31.45266782084585, 33.93227442939246 -31.435279871635593 M31.914062499999996 -31.5 C32.689538851369605 -31.475131982784728, 33.46501520273921 -31.45026396556945, 33.93227442939246 -31.435279871635593 M33.93227442939246 -31.435279871635593 C34.715662461788376 -31.35970737031231, 35.499050494184296 -31.284134868989028, 35.94219309306194 -31.241385435432253 M33.93227442939246 -31.435279871635593 C34.527144206300754 -31.377893499692828, 35.122013983209044 -31.320507127750066, 35.94219309306194 -31.241385435432253 M35.94219309306194 -31.241385435432253 C36.47769697600428 -31.15480932053277, 37.013200858946625 -31.06823320563329, 37.935559304093225 -30.91911344521856 M35.94219309306194 -31.241385435432253 C36.464336898326046 -31.15696927428284, 36.98648070359015 -31.072553113133424, 37.935559304093225 -30.91911344521856 M37.935559304093225 -30.91911344521856 C38.50616359764626 -30.788876738756077, 39.076767891199296 -30.658640032293597, 39.90418189314948 -30.469788185729428 M37.935559304093225 -30.91911344521856 C38.442107477931046 -30.80349713007583, 38.948655651768874 -30.6878808149331, 39.90418189314948 -30.469788185729428 M39.90418189314948 -30.469788185729428 C40.43122499697795 -30.313364559018844, 40.95826810080642 -30.15694093230826, 41.83997136774405 -29.895256030836062 M39.90418189314948 -30.469788185729428 C40.301900981536235 -30.351747247966333, 40.69962006992299 -30.23370631020324, 41.83997136774405 -29.895256030836062 M41.83997136774405 -29.895256030836062 C42.47671737736978 -29.660927613278204, 43.113463386995505 -29.426599195720346, 43.73497315370028 -29.197877856399685 M41.83997136774405 -29.895256030836062 C42.59751857720738 -29.616471655063915, 43.355065786670714 -29.33768727929177, 43.73497315370028 -29.197877856399685 M43.73497315370028 -29.197877856399685 C44.441601907083 -28.885074268674366, 45.14823066046572 -28.572270680949046, 45.58140028220308 -28.380519338926202 M43.73497315370028 -29.197877856399685 C44.17264638285177 -29.004132900969374, 44.61031961200326 -28.810387945539063, 45.58140028220308 -28.380519338926202 M45.58140028220308 -28.380519338926202 C46.2074831181764 -28.05389232442412, 46.83356595414972 -27.727265309922032, 47.371665388124036 -27.44653917988677 M45.58140028220308 -28.380519338926202 C46.18571168732637 -28.065250465953312, 46.79002309244966 -27.749981592980422, 47.371665388124036 -27.44653917988677 M47.371665388124036 -27.44653917988677 C47.93270047212196 -27.106436414959113, 48.49373555611988 -26.766333650031456, 49.098411888132276 -26.399775304092984 M47.371665388124036 -27.44653917988677 C47.95739121776564 -27.091468739850985, 48.54311704740725 -26.7363982998152, 49.098411888132276 -26.399775304092984 M49.098411888132276 -26.399775304092984 C49.720719342873174 -25.965680562921264, 50.34302679761407 -25.53158582174954, 50.7545442104733 -25.244529088840633 M49.098411888132276 -26.399775304092984 C49.571465221317034 -26.069793777012038, 50.04451855450179 -25.739812249931095, 50.7545442104733 -25.244529088840633 M50.7545442104733 -25.244529088840633 C51.2901830303835 -24.817371383909872, 51.82582185029371 -24.39021367897911, 52.33325695219533 -23.985547688627737 M50.7545442104733 -25.244529088840633 C51.21318329503392 -24.87877662380215, 51.67182237959455 -24.513024158763663, 52.33325695219533 -23.985547688627737 M52.33325695219533 -23.985547688627737 C52.87904938363035 -23.489873443274853, 53.42484181506537 -22.994199197921965, 53.82806284400982 -22.62800452807842 M52.33325695219533 -23.985547688627737 C52.82416329715851 -23.539719534802302, 53.3150696421217 -23.093891380976867, 53.82806284400982 -22.62800452807842 M53.82806284400982 -22.62800452807842 C54.272450038391895 -22.169138265011743, 54.716837232773976 -21.710272001945064, 55.232819407872434 -21.177478043231485 M53.82806284400982 -22.62800452807842 C54.15619709355515 -22.28917897509996, 54.48433134310048 -21.950353422121502, 55.232819407872434 -21.177478043231485 M55.232819407872434 -21.177478043231485 C55.609903994017415 -20.7345330316248, 55.9869885801624 -20.29158802001811, 56.54175419774294 -19.63992875855011 M55.232819407872434 -21.177478043231485 C55.73773994382496 -20.584369650909245, 56.242660479777484 -19.991261258587006, 56.54175419774294 -19.63992875855011 M56.54175419774294 -19.63992875855011 C56.847328091957856 -19.23048757865657, 57.15290198617277 -18.82104639876303, 57.7494885198041 -18.02167479384835 M56.54175419774294 -19.63992875855011 C56.992908917413885 -19.035422535231532, 57.444063637084824 -18.43091631191296, 57.7494885198041 -18.02167479384835 M57.7494885198041 -18.02167479384835 C58.10123113823798 -17.481303675815766, 58.45297375667185 -16.940932557783185, 58.8510595346684 -16.329365901781543 M57.7494885198041 -18.02167479384835 C58.14716455407027 -17.410737614248173, 58.544840588336434 -16.799800434648, 58.8510595346684 -16.329365901781543 M58.8510595346684 -16.329365901781543 C59.16630273147092 -15.769619684023517, 59.481545928273434 -15.20987346626549, 59.84194065074951 -14.56995614258631 M58.8510595346684 -16.329365901781543 C59.099423167264405 -15.888371122562413, 59.347786799860415 -15.447376343343283, 59.84194065074951 -14.56995614258631 M59.84194065074951 -14.56995614258631 C60.13602238857569 -13.959289121649064, 60.43010412640187 -13.348622100711816, 60.71806012499809 -12.750675308355413 M59.84194065074951 -14.56995614258631 C60.12040898040573 -13.991710697787402, 60.39887731006195 -13.413465252988496, 60.71806012499809 -12.750675308355413 M60.71806012499809 -12.750675308355413 C60.895607469767505 -12.312129934130562, 61.07315481453693 -11.87358455990571, 61.47581779456745 -10.878999214271206 M60.71806012499809 -12.750675308355413 C60.88395561755643 -12.340910234365152, 61.04985111011478 -11.931145160374891, 61.47581779456745 -10.878999214271206 M61.47581779456745 -10.878999214271206 C61.6863036545672 -10.245049340319428, 61.89678951456695 -9.611099466367651, 62.11209987065481 -8.962618978877531 M61.47581779456745 -10.878999214271206 C61.676939777921035 -10.273251844846524, 61.87806176127463 -9.66750447542184, 62.11209987065481 -8.962618978877531 M62.11209987065481 -8.962618978877531 C62.26341175705876 -8.385601177032875, 62.41472364346271 -7.808583375188217, 62.624291733727446 -7.009409419623907 M62.11209987065481 -8.962618978877531 C62.281498856166415 -8.31662722913703, 62.45089784167803 -7.67063547939653, 62.624291733727446 -7.009409419623907 M62.624291733727446 -7.009409419623907 C62.768068850039704 -6.2711443146647445, 62.91184596635197 -5.532879209705582, 63.01028867755518 -5.027396693551458 M62.624291733727446 -7.009409419623907 C62.71155844073331 -6.561313322973837, 62.79882514773918 -6.1132172263237665, 63.01028867755518 -5.027396693551458 M63.01028867755518 -5.027396693551458 C63.1098707737669 -4.255057620042509, 63.20945286997861 -3.482718546533561, 63.268504557899746 -3.024725316091981 M63.01028867755518 -5.027396693551458 C63.08606611169816 -4.439681878285422, 63.16184354584114 -3.851967063019387, 63.268504557899746 -3.024725316091981 M63.268504557899746 -3.024725316091981 C63.31017071521751 -2.375741283550937, 63.35183687253528 -1.726757251009893, 63.39787831032167 -1.0096246935071378 M63.268504557899746 -3.024725316091981 C63.31211293267901 -2.3454896788584696, 63.35572130745826 -1.6662540416249585, 63.39787831032167 -1.0096246935071378 M63.39787831032167 -1.0096246935071378 C63.39787831032167 -0.3788694672197914, 63.39787831032167 0.25188575906755495, 63.39787831032167 1.00962469350713 M63.39787831032167 -1.0096246935071378 C63.39787831032167 -0.5638778218766392, 63.39787831032167 -0.11813095024614051, 63.39787831032167 1.00962469350713 M63.39787831032167 1.00962469350713 C63.36608287529913 1.5048642587964483, 63.33428744027658 2.000103824085766, 63.268504557899746 3.02472531609196 M63.39787831032167 1.00962469350713 C63.367851906091516 1.4773101762690402, 63.33782550186136 1.9449956590309503, 63.268504557899746 3.02472531609196 M63.268504557899746 3.02472531609196 C63.19968544695758 3.558472750688826, 63.130866336015416 4.092220185285692, 63.01028867755518 5.027396693551435 M63.268504557899746 3.02472531609196 C63.18487676880852 3.673325934108661, 63.1012489797173 4.321926552125362, 63.01028867755518 5.027396693551435 M63.01028867755518 5.027396693551435 C62.873395279697284 5.7303153591218425, 62.736501881839395 6.433234024692251, 62.624291733727446 7.0094094196239 M63.01028867755518 5.027396693551435 C62.89866587040539 5.600556216776975, 62.787043063255595 6.173715740002516, 62.624291733727446 7.0094094196239 M62.624291733727446 7.0094094196239 C62.470391601657724 7.596297323944926, 62.316491469588 8.183185228265952, 62.112099870654816 8.96261897887751 M62.624291733727446 7.0094094196239 C62.477414817410995 7.569514758396722, 62.33053790109455 8.129620097169544, 62.112099870654816 8.96261897887751 M62.112099870654816 8.96261897887751 C61.95174292603434 9.445588546664931, 61.79138598141387 9.928558114452352, 61.475817794567455 10.878999214271184 M62.112099870654816 8.96261897887751 C61.9430082145311 9.471896106025424, 61.77391655840737 9.981173233173338, 61.475817794567455 10.878999214271184 M61.475817794567455 10.878999214271184 C61.254214860444705 11.426362745955634, 61.03261192632196 11.973726277640084, 60.71806012499809 12.750675308355405 M61.475817794567455 10.878999214271184 C61.21057878309626 11.534144700652462, 60.945339771625065 12.189290187033738, 60.71806012499809 12.750675308355405 M60.71806012499809 12.750675308355405 C60.39957765705089 13.412010967480937, 60.081095189103685 14.073346626606467, 59.84194065074951 14.569956142586303 M60.71806012499809 12.750675308355405 C60.508839292110075 13.18512684445605, 60.29961845922207 13.619578380556696, 59.84194065074951 14.569956142586303 M59.84194065074951 14.569956142586303 C59.55236183144681 15.084132659293378, 59.26278301214411 15.59830917600045, 58.85105953466841 16.329365901781536 M59.84194065074951 14.569956142586303 C59.60367822320065 14.993015209386291, 59.3654157956518 15.416074276186277, 58.85105953466841 16.329365901781536 M58.85105953466841 16.329365901781536 C58.52016320515991 16.837711522012366, 58.18926687565142 17.346057142243193, 57.74948851980412 18.021674793848334 M58.85105953466841 16.329365901781536 C58.44223931098555 16.95742354895962, 58.03341908730268 17.58548119613771, 57.74948851980412 18.021674793848334 M57.74948851980412 18.021674793848334 C57.29493342039574 18.630737216234095, 56.84037832098738 19.239799638619857, 56.54175419774295 19.639928758550102 M57.74948851980412 18.021674793848334 C57.322131856503994 18.59429378967755, 56.89477519320387 19.166912785506764, 56.54175419774295 19.639928758550102 M56.54175419774295 19.639928758550102 C56.06159901214423 20.203946361158405, 55.5814438265455 20.767963963766707, 55.23281940787245 21.177478043231467 M56.54175419774295 19.639928758550102 C56.24607833127228 19.98724645573996, 55.95040246480162 20.334564152929822, 55.23281940787245 21.177478043231467 M55.23281940787245 21.177478043231467 C54.69657579944259 21.731193595354327, 54.160332191012735 22.28490914747719, 53.82806284400983 22.628004528078414 M55.23281940787245 21.177478043231467 C54.67579022647732 21.75265640596825, 54.11876104508219 22.32783476870503, 53.82806284400983 22.628004528078414 M53.82806284400983 22.628004528078414 C53.367970357212755 23.045848351207397, 52.90787787041568 23.463692174336376, 52.333256952195356 23.985547688627715 M53.82806284400983 22.628004528078414 C53.414249305743304 23.003819034625828, 53.00043576747678 23.37963354117324, 52.333256952195356 23.985547688627715 M52.333256952195356 23.985547688627715 C51.93242905046646 24.30519727377808, 51.531601148737565 24.624846858928446, 50.75454421047331 25.24452908884063 M52.333256952195356 23.985547688627715 C51.78363442226482 24.423857030177544, 51.23401189233428 24.862166371727373, 50.75454421047331 25.24452908884063 M50.75454421047331 25.24452908884063 C50.32868407642959 25.54159068316145, 49.90282394238587 25.838652277482268, 49.0984118881323 26.399775304092973 M50.75454421047331 25.24452908884063 C50.09680334847582 25.703340641027076, 49.43906248647831 26.16215219321352, 49.0984118881323 26.399775304092973 M49.0984118881323 26.399775304092973 C48.69166194223385 26.646349511624614, 48.28491199633541 26.892923719156258, 47.37166538812404 27.446539179886766 M49.0984118881323 26.399775304092973 C48.545229136768256 26.735117938832545, 47.992046385404215 27.070460573572113, 47.37166538812404 27.446539179886766 M47.37166538812404 27.446539179886766 C46.66089565415256 27.817347294829947, 45.95012592018107 28.188155409773124, 45.581400282203084 28.3805193389262 M47.37166538812404 27.446539179886766 C46.921539183635296 27.68136973244895, 46.47141297914655 27.916200285011136, 45.581400282203084 28.3805193389262 M45.581400282203084 28.3805193389262 C45.13133699337551 28.57974900623705, 44.68127370454794 28.778978673547904, 43.734973153700295 29.197877856399682 M45.581400282203084 28.3805193389262 C44.87162843919703 28.694714279191327, 44.16185659619099 29.008909219456456, 43.734973153700295 29.197877856399682 M43.734973153700295 29.197877856399682 C43.0281046191609 29.458012011331284, 42.3212360846215 29.718146166262887, 41.83997136774407 29.895256030836055 M43.734973153700295 29.197877856399682 C43.08207091872657 29.43815191423211, 42.42916868375285 29.678425972064538, 41.83997136774407 29.895256030836055 M41.83997136774407 29.895256030836055 C41.42365327380879 30.018817055817777, 41.007335179873515 30.142378080799503, 39.90418189314951 30.46978818572942 M41.83997136774407 29.895256030836055 C41.17441812641553 30.09278873930211, 40.50886488508699 30.29032144776817, 39.90418189314951 30.46978818572942 M39.90418189314951 30.46978818572942 C39.3330069242542 30.600155145114773, 38.76183195535889 30.730522104500125, 37.93555930409324 30.919113445218557 M39.90418189314951 30.46978818572942 C39.370576818444775 30.591580061932245, 38.836971743740044 30.71337193813507, 37.93555930409324 30.919113445218557 M37.93555930409324 30.919113445218557 C37.36835190055602 31.010815139463343, 36.8011444970188 31.102516833708133, 35.94219309306196 31.24138543543225 M37.93555930409324 30.919113445218557 C37.18119490160462 31.041073231629603, 36.426830499116 31.163033018040647, 35.94219309306196 31.24138543543225 M35.94219309306196 31.24138543543225 C35.46451612704778 31.287466357853035, 34.98683916103359 31.33354728027382, 33.93227442939246 31.435279871635593 M35.94219309306196 31.24138543543225 C35.362560030812446 31.29730193983671, 34.78292696856294 31.353218444241175, 33.93227442939246 31.435279871635593 M33.93227442939246 31.435279871635593 C33.186450726165084 31.459196986140324, 32.440627022937704 31.483114100645054, 31.914062500000007 31.5 M33.93227442939246 31.435279871635593 C33.52503710680645 31.448339179931565, 33.11779978422044 31.461398488227537, 31.914062500000007 31.5 M31.914062500000007 31.5 C31.914062500000007 31.5, 31.914062500000004 31.5, 31.9140625 31.5 M31.914062500000007 31.5 C31.914062500000004 31.5, 31.914062500000004 31.5, 31.9140625 31.5 M31.9140625 31.5 C13.369010552981926 31.5, -5.176041394036147 31.5, -31.914062499999993 31.5 M31.9140625 31.5 C9.86838359065299 31.5, -12.177295318694021 31.5, -31.914062499999993 31.5 M-31.914062499999993 31.5 C-32.49406876540816 31.48140032798207, -33.074075030816324 31.462800655964138, -33.93227442939244 31.435279871635593 M-31.914062499999993 31.5 C-32.43003153405287 31.483453877350723, -32.946000568105745 31.466907754701445, -33.93227442939244 31.435279871635593 M-33.93227442939244 31.435279871635593 C-34.54810415616293 31.37587151853765, -35.163933882933414 31.316463165439707, -35.942193093061945 31.24138543543225 M-33.93227442939244 31.435279871635593 C-34.715968569273485 31.35967784049137, -35.49966270915453 31.284075809347144, -35.942193093061945 31.24138543543225 M-35.942193093061945 31.24138543543225 C-36.72083357078968 31.11550088144032, -37.49947404851741 30.98961632744839, -37.935559304093225 30.919113445218557 M-35.942193093061945 31.24138543543225 C-36.37874446852276 31.170807194554225, -36.81529584398358 31.1002289536762, -37.935559304093225 30.919113445218557 M-37.935559304093225 30.919113445218557 C-38.442433567666804 30.803422702221575, -38.94930783124038 30.687731959224593, -39.90418189314947 30.469788185729428 M-37.935559304093225 30.919113445218557 C-38.60892728511272 30.765421597687585, -39.28229526613222 30.611729750156616, -39.90418189314947 30.469788185729428 M-39.90418189314947 30.469788185729428 C-40.343584176957066 30.339375894364988, -40.78298646076466 30.208963603000548, -41.839971367744035 29.89525603083607 M-39.90418189314947 30.469788185729428 C-40.541983153928456 30.28049211941736, -41.17978441470744 30.091196053105296, -41.839971367744035 29.89525603083607 M-41.839971367744035 29.89525603083607 C-42.334084202519676 29.713417940109657, -42.828197037295325 29.531579849383245, -43.73497315370029 29.197877856399685 M-41.839971367744035 29.89525603083607 C-42.2696721587688 29.737122167628385, -42.69937294979356 29.578988304420704, -43.73497315370029 29.197877856399685 M-43.73497315370029 29.197877856399685 C-44.191389434038555 28.995835908201844, -44.64780571437682 28.793793960004006, -45.58140028220308 28.380519338926206 M-43.73497315370029 29.197877856399685 C-44.12338250552316 29.025940558101755, -44.51179185734603 28.85400325980382, -45.58140028220308 28.380519338926206 M-45.58140028220308 28.380519338926206 C-46.19198330545098 28.061978566794867, -46.80256632869889 27.743437794663524, -47.37166538812403 27.446539179886773 M-45.58140028220308 28.380519338926206 C-46.19811158764531 28.058781445899438, -46.81482289308754 27.73704355287267, -47.37166538812403 27.446539179886773 M-47.37166538812403 27.446539179886773 C-48.06176955284363 27.028193979731526, -48.75187371756323 26.609848779576282, -49.09841188813226 26.399775304092994 M-47.37166538812403 27.446539179886773 C-47.885798785432904 27.134868493054924, -48.39993218274177 26.823197806223074, -49.09841188813226 26.399775304092994 M-49.09841188813226 26.399775304092994 C-49.47300364954431 26.138476307147947, -49.84759541095636 25.8771773102029, -50.7545442104733 25.244529088840636 M-49.09841188813226 26.399775304092994 C-49.508425078193326 26.11376785189133, -49.91843826825439 25.82776039968966, -50.7545442104733 25.244529088840636 M-50.7545442104733 25.244529088840636 C-51.264819400915755 24.83759820345588, -51.775094591358204 24.430667318071123, -52.33325695219533 23.98554768862774 M-50.7545442104733 25.244529088840636 C-51.35907177037372 24.76243444697404, -51.963599330274135 24.28033980510744, -52.33325695219533 23.98554768862774 M-52.33325695219533 23.98554768862774 C-52.836117749924675 23.52886281709757, -53.338978547654015 23.072177945567397, -53.82806284400981 22.628004528078435 M-52.33325695219533 23.98554768862774 C-52.80574206446704 23.556449210933593, -53.27822717673875 23.127350733239446, -53.82806284400981 22.628004528078435 M-53.82806284400981 22.628004528078435 C-54.36264058486352 22.076009120998215, -54.89721832571723 21.524013713917995, -55.23281940787244 21.177478043231478 M-53.82806284400981 22.628004528078435 C-54.283565476824755 22.15766066223535, -54.7390681096397 21.687316796392263, -55.23281940787244 21.177478043231478 M-55.23281940787244 21.177478043231478 C-55.622417451179274 20.71983401280659, -56.012015494486114 20.262189982381702, -56.54175419774293 19.639928758550113 M-55.23281940787244 21.177478043231478 C-55.57426055110092 20.776401847843864, -55.91570169432941 20.375325652456254, -56.54175419774293 19.639928758550113 M-56.54175419774293 19.639928758550113 C-57.00545926356049 19.01860621475514, -57.46916432937804 18.397283670960164, -57.7494885198041 18.021674793848355 M-56.54175419774293 19.639928758550113 C-56.99285509190471 19.035494656510224, -57.44395598606648 18.431060554470335, -57.7494885198041 18.021674793848355 M-57.7494885198041 18.021674793848355 C-57.99201153462166 17.649094316540534, -58.23453454943922 17.276513839232713, -58.851059534668394 16.329365901781557 M-57.7494885198041 18.021674793848355 C-58.14706807937348 17.41088582528953, -58.544647638942855 16.800096856730704, -58.851059534668394 16.329365901781557 M-58.851059534668394 16.329365901781557 C-59.18465570294274 15.737032124735403, -59.518251871217096 15.14469834768925, -59.8419406507495 14.569956142586314 M-58.851059534668394 16.329365901781557 C-59.108079721150496 15.873000534566527, -59.3650999076326 15.416635167351496, -59.8419406507495 14.569956142586314 M-59.8419406507495 14.569956142586314 C-60.01866556493635 14.202983076969907, -60.195390479123205 13.836010011353503, -60.71806012499809 12.750675308355417 M-59.8419406507495 14.569956142586314 C-60.04516845364574 14.14794926149388, -60.24839625654199 13.725942380401447, -60.71806012499809 12.750675308355417 M-60.71806012499809 12.750675308355417 C-61.00572802514363 12.040130033315437, -61.293395925289175 11.329584758275457, -61.47581779456745 10.878999214271209 M-60.71806012499809 12.750675308355417 C-60.89954496899448 12.302404234913562, -61.08102981299088 11.854133161471706, -61.47581779456745 10.878999214271209 M-61.47581779456745 10.878999214271209 C-61.72369708064027 10.132426298820674, -61.9715763667131 9.385853383370138, -62.11209987065481 8.962618978877522 M-61.47581779456745 10.878999214271209 C-61.69113973544622 10.230483835236644, -61.906461676325 9.581968456202077, -62.11209987065481 8.962618978877522 M-62.11209987065481 8.962618978877522 C-62.279517120057264 8.324184447811088, -62.44693436945972 7.685749916744657, -62.62429173372744 7.009409419623911 M-62.11209987065481 8.962618978877522 C-62.29182681279365 8.27724225435267, -62.471553754932486 7.591865529827819, -62.62429173372744 7.009409419623911 M-62.62429173372744 7.009409419623911 C-62.762481372881076 6.299834828960562, -62.90067101203472 5.590260238297213, -63.01028867755518 5.027396693551461 M-62.62429173372744 7.009409419623911 C-62.72567789905059 6.488812888663164, -62.827064064373744 5.968216357702416, -63.01028867755518 5.027396693551461 M-63.01028867755518 5.027396693551461 C-63.104690861173616 4.295231999226555, -63.19909304479205 3.563067304901648, -63.268504557899746 3.024725316091999 M-63.01028867755518 5.027396693551461 C-63.096006161039455 4.362588818479082, -63.181723644523736 3.6977809434067037, -63.268504557899746 3.024725316091999 M-63.268504557899746 3.024725316091999 C-63.3067252536188 2.429407129077462, -63.34494594933785 1.8340889420629247, -63.39787831032167 1.0096246935071416 M-63.268504557899746 3.024725316091999 C-63.31250749245935 2.339344091796633, -63.35651042701896 1.6539628675012668, -63.39787831032167 1.0096246935071416 M-63.39787831032167 1.0096246935071416 C-63.39787831032167 0.38005473574860715, -63.39787831032167 -0.24951522200992726, -63.39787831032167 -1.0096246935071262 M-63.39787831032167 1.0096246935071416 C-63.39787831032167 0.5050213846746944, -63.39787831032167 0.00041807584224717864, -63.39787831032167 -1.0096246935071262 M-63.39787831032167 -1.0096246935071262 C-63.352035187338466 -1.7236683378733937, -63.30619206435526 -2.4377119822396613, -63.268504557899746 -3.024725316091956 M-63.39787831032167 -1.0096246935071262 C-63.361078397853724 -1.5828130345501399, -63.324278485385776 -2.1560013755931537, -63.268504557899746 -3.024725316091956 M-63.268504557899746 -3.024725316091956 C-63.20554700673744 -3.513011650532145, -63.142589455575134 -4.001297984972334, -63.01028867755518 -5.027396693551446 M-63.268504557899746 -3.024725316091956 C-63.20841497314843 -3.490768269392546, -63.148325388397105 -3.956811222693136, -63.01028867755518 -5.027396693551446 M-63.01028867755518 -5.027396693551446 C-62.8687065548593 -5.754390970202567, -62.72712443216342 -6.481385246853689, -62.624291733727446 -7.009409419623896 M-63.01028867755518 -5.027396693551446 C-62.8931338381987 -5.628962032962903, -62.77597899884222 -6.230527372374361, -62.624291733727446 -7.009409419623896 M-62.624291733727446 -7.009409419623896 C-62.47795421297857 -7.567457809322063, -62.33161669222969 -8.12550619902023, -62.112099870654816 -8.962618978877506 M-62.624291733727446 -7.009409419623896 C-62.42754415055628 -7.759693225197491, -62.23079656738512 -8.509977030771086, -62.112099870654816 -8.962618978877506 M-62.112099870654816 -8.962618978877506 C-61.922899632582265 -9.532459950987858, -61.73369939450971 -10.10230092309821, -61.47581779456746 -10.878999214271168 M-62.112099870654816 -8.962618978877506 C-61.87381182510071 -9.680304606042313, -61.6355237795466 -10.39799023320712, -61.47581779456746 -10.878999214271168 M-61.47581779456746 -10.878999214271168 C-61.21958366076918 -11.511902478702872, -60.96334952697091 -12.144805743134576, -60.71806012499809 -12.750675308355401 M-61.47581779456746 -10.878999214271168 C-61.18620025915715 -11.594360126108766, -60.89658272374683 -12.309721037946364, -60.71806012499809 -12.750675308355401 M-60.71806012499809 -12.750675308355401 C-60.50578641940652 -13.191466199945996, -60.29351271381495 -13.632257091536593, -59.84194065074951 -14.5699561425863 M-60.71806012499809 -12.750675308355401 C-60.45199465422145 -13.303165951312188, -60.18592918344481 -13.855656594268977, -59.84194065074951 -14.5699561425863 M-59.84194065074951 -14.5699561425863 C-59.49592691072033 -15.184338575698636, -59.14991317069116 -15.798721008810974, -58.8510595346684 -16.329365901781546 M-59.84194065074951 -14.5699561425863 C-59.49591559491897 -15.184358668049803, -59.14989053908843 -15.79876119351331, -58.8510595346684 -16.329365901781546 M-58.8510595346684 -16.329365901781546 C-58.569192459265224 -16.762389421508438, -58.28732538386205 -17.19541294123533, -57.74948851980411 -18.021674793848344 M-58.8510595346684 -16.329365901781546 C-58.55372850892344 -16.78614620188551, -58.25639748317848 -17.242926501989476, -57.74948851980411 -18.021674793848344 M-57.74948851980411 -18.021674793848344 C-57.47598483961497 -18.388144808603936, -57.20248115942584 -18.754614823359532, -56.54175419774295 -19.639928758550102 M-57.74948851980411 -18.021674793848344 C-57.386747961883046 -18.507714095117922, -57.024007403961974 -18.993753396387497, -56.54175419774295 -19.639928758550102 M-56.54175419774295 -19.639928758550102 C-56.0523355761997 -20.214827720123278, -55.562916954656465 -20.789726681696454, -55.232819407872455 -21.177478043231467 M-56.54175419774295 -19.639928758550102 C-56.20445988045204 -20.036133856230357, -55.86716556316114 -20.43233895391061, -55.232819407872455 -21.177478043231467 M-55.232819407872455 -21.177478043231467 C-54.724902745071894 -21.70194369830659, -54.216986082271326 -22.22640935338171, -53.828062844009835 -22.628004528078403 M-55.232819407872455 -21.177478043231467 C-54.82993696061575 -21.593487247288085, -54.427054513359046 -22.009496451344706, -53.828062844009835 -22.628004528078403 M-53.828062844009835 -22.628004528078403 C-53.29168734776878 -23.115126562046584, -52.755311851527715 -23.602248596014768, -52.333256952195356 -23.98554768862771 M-53.828062844009835 -22.628004528078403 C-53.23793291943337 -23.163944911596566, -52.6478029948569 -23.69988529511473, -52.333256952195356 -23.98554768862771 M-52.333256952195356 -23.98554768862771 C-51.88212514095098 -24.345313302973423, -51.43099332970661 -24.70507891731913, -50.75454421047331 -25.244529088840626 M-52.333256952195356 -23.98554768862771 C-51.873162300617174 -24.352460929628432, -51.41306764903899 -24.719374170629155, -50.75454421047331 -25.244529088840626 M-50.75454421047331 -25.244529088840626 C-50.17276803498131 -25.65035096417912, -49.59099185948931 -26.056172839517608, -49.098411888132304 -26.39977530409297 M-50.75454421047331 -25.244529088840626 C-50.40564659816873 -25.48790495965009, -50.05674898586415 -25.73128083045956, -49.098411888132304 -26.39977530409297 M-49.098411888132304 -26.39977530409297 C-48.40930762865788 -26.817514355812495, -47.72020336918345 -27.23525340753202, -47.37166538812404 -27.446539179886763 M-49.098411888132304 -26.39977530409297 C-48.66088375564119 -26.665007429209787, -48.22335562315008 -26.930239554326604, -47.37166538812404 -27.446539179886763 M-47.37166538812404 -27.446539179886763 C-46.670932228403956 -27.812111220471724, -45.97019906868387 -28.177683261056686, -45.58140028220309 -28.3805193389262 M-47.37166538812404 -27.446539179886763 C-46.92882109188784 -27.677570765577883, -46.48597679565163 -27.908602351269003, -45.58140028220309 -28.3805193389262 M-45.58140028220309 -28.3805193389262 C-44.975288179104965 -28.648827187291023, -44.36917607600683 -28.917135035655843, -43.7349731537003 -29.19787785639968 M-45.58140028220309 -28.3805193389262 C-44.97775296300904 -28.647736100571905, -44.374105643814985 -28.914952862217607, -43.7349731537003 -29.19787785639968 M-43.7349731537003 -29.19787785639968 C-43.277630937721696 -29.366184019504907, -42.8202887217431 -29.534490182610135, -41.83997136774408 -29.895256030836055 M-43.7349731537003 -29.19787785639968 C-43.27373860856828 -29.367616432613662, -42.81250406343625 -29.537355008827642, -41.83997136774408 -29.895256030836055 M-41.83997136774408 -29.895256030836055 C-41.24269945187817 -30.072523200320795, -40.64542753601225 -30.249790369805535, -39.90418189314951 -30.469788185729417 M-41.83997136774408 -29.895256030836055 C-41.35788970266538 -30.038335338533116, -40.87580803758668 -30.181414646230174, -39.90418189314951 -30.469788185729417 M-39.90418189314951 -30.469788185729417 C-39.381471932755375 -30.589093323188113, -38.85876197236123 -30.70839846064681, -37.93555930409324 -30.919113445218553 M-39.90418189314951 -30.469788185729417 C-39.47375405763507 -30.568030530381467, -39.04332622212062 -30.666272875033517, -37.93555930409324 -30.919113445218553 M-37.93555930409324 -30.919113445218553 C-37.22723793085833 -31.033629351728884, -36.51891655762342 -31.148145258239218, -35.94219309306196 -31.24138543543225 M-37.93555930409324 -30.919113445218553 C-37.31769710813583 -31.019004613468056, -36.699834912178424 -31.11889578171756, -35.94219309306196 -31.24138543543225 M-35.94219309306196 -31.24138543543225 C-35.214677591602445 -31.311567980892647, -34.487162090142924 -31.381750526353045, -33.93227442939246 -31.435279871635593 M-35.94219309306196 -31.24138543543225 C-35.157827807166406 -31.317052211225324, -34.37346252127085 -31.392718987018394, -33.93227442939246 -31.435279871635593 M-33.93227442939246 -31.435279871635593 C-33.49601884774475 -31.44926973901906, -33.05976326609704 -31.463259606402524, -31.91406250000001 -31.5 M-33.93227442939246 -31.435279871635593 C-33.46788087920899 -31.450172068902766, -33.00348732902552 -31.465064266169943, -31.91406250000001 -31.5 M-31.91406250000001 -31.5 C-31.914062500000007 -31.5, -31.914062500000004 -31.5, -31.9140625 -31.5 M-31.91406250000001 -31.5 C-31.914062500000007 -31.5, -31.914062500000004 -31.5, -31.9140625 -31.5" stroke="#888" stroke-width="1.3" fill="none" stroke-dasharray="5 5" style="fill:#fafafa !important;stroke:#888 !important;stroke-dasharray:5 5 !important"/></g><g class="label" style="color:#666 !important" transform="translate(-48.0390625, -24)"><rect/><foreignObject width="96.078125" height="48"><div style="color: rgb(102, 102, 102) !important; display: table-cell; white-space: nowrap; line-height: 1.5; max-width: 200px; text-align: center;" xmlns="http://www.w3.org/1999/xhtml"><span style="color:#666 !important" class="nodeLabel"><p>Cloud Logger<br /><i>optional</i></p></span></div></foreignObject></g></g><g class="node default system" id="my-svg-flowchart-sys_root-5" data-look="classic" transform="translate(444.703125, 199.2734375)"><circle class="basic label-container" style="fill:#4a90e2 !important;stroke:#2a70c2 !important" r="67.046875" cx="0" cy="0"/><g class="label" style="color:#fff !important;font-weight:bold !important" transform="translate(-59.546875, -12)"><rect/><foreignObject width="119.09375" height="24"><div style="color: rgb(255, 255, 255) !important; font-weight: bold !important; display: table-cell; white-space: nowrap; line-height: 1.5; max-width: 200px; text-align: center;" xmlns="http://www.w3.org/1999/xhtml"><span style="color:#fff !important;font-weight:bold !important" class="nodeLabel"><p>AutoFishingRig</p></span></div></foreignObject></g></g></g></g></g><defs><filter id="my-svg-drop-shadow" height="130%" width="130%"><feDropShadow dx="4" dy="4" stdDeviation="0" flood-opacity="0.06" flood-color="#000000"/></filter></defs><defs><filter id="my-svg-drop-shadow-small" height="150%" width="150%"><feDropShadow dx="2" dy="2" stdDeviation="0" flood-opacity="0.06" flood-color="#000000"/></filter></defs></svg>