<svg id="my-svg" width="100%" xmlns="http://www.w3.org/2000/svg" xmlns:xlink="http://www.w3.org/1999/xlink" class="flowchart" style="max-width: 865.469px; background-color: white;" viewBox="0 0 865.46875 302.2734375" role="graphics-document document" aria-roledescription="flowchart-v2"><style>#my-svg{font-family:"trebuchet ms",verdana,arial,sans-serif;font-size:16px;fill:#333;}@keyframes edge-animation-frame{from{stroke-dashoffset:0;}}@keyframes dash{to{stroke-dashoffset:0;}}#my-svg .edge-animation-slow{stroke-dasharray:9,5!important;stroke-dashoffset:900;animation:dash 50s linear infinite;stroke-linecap:round;}#my-svg .edge-animation-fast{stroke-dasharray:9,5!important;stroke-dashoffset:900;animation:dash 20s linear infinite;stroke-linecap:round;}#my-svg .error-icon{fill:#552222;}#my-svg .error-text{fill:#552222;stroke:#552222;}#my-svg .edge-thickness-normal{stroke-width:1px;}#my-svg .edge-thickness-thick{stroke-width:3.5px;}#my-svg .edge-pattern-solid{stroke-dasharray:0;}#my-svg .edge-thickness-invisible{stroke-width:0;fill:none;}#my-svg .edge-pattern-dashed{stroke-dasharray:3;}#my-svg .edge-pattern-dotted{stroke-dasharray:2;}#my-svg .marker{fill:#333333;stroke:#333333;}#my-svg .marker.cross{stroke:#333333;}#my-svg svg{font-family:"trebuchet ms",verdana,arial,sans-serif;font-size:16px;}#my-svg p{margin:0;}#my-svg .label{font-family:"trebuchet ms",verdana,arial,sans-serif;color:#333;}#my-svg .cluster-label text{fill:#333;}#my-svg .cluster-label span{color:#333;}#my-svg .cluster-label span p{background-color:transparent;}#my-svg .label text,#my-svg span{fill:#333;color:#333;}#my-svg .node rect,#my-svg .node circle,#my-svg .node ellipse,#my-svg .node polygon,#my-svg .node path{fill:#ECECFF;stroke:#9370DB;stroke-width:1px;}#my-svg .rough-node .label text,#my-svg .node .label text,#my-svg .image-shape .label,#my-svg .icon-shape .label{text-anchor:middle;}#my-svg .node .katex path{fill:#000;stroke:#000;stroke-width:1px;}#my-svg .rough-node .label,#my-svg .node .label,#my-svg .image-shape .label,#my-svg .icon-shape .label{text-align:center;}#my-svg .node.clickable{cursor:pointer;}#my-svg .root .anchor path{fill:#333333!important;stroke-width:0;stroke:#333333;}#my-svg .arrowheadPath{fill:#333333;}#my-svg .edgePath .path{stroke:#333333;stroke-width:1px;}#my-svg .flowchart-link{stroke:#333333;fill:none;}#my-svg .edgeLabel{background-color:rgba(232,232,232, 0.8);text-align:center;}#my-svg .edgeLabel p{background-color:rgba(232,232,232, 0.8);}#my-svg .edgeLabel rect{opacity:0.5;background-color:rgba(232,232,232, 0.8);fill:rgba(232,232,232, 0.8);}#my-svg .labelBkg{background-color:rgba(232, 232, 232, 0.5);}#my-svg .cluster rect{fill:#ffffde;stroke:#aaaa33;stroke-width:1px;}#my-svg .cluster text{fill:#333;}#my-svg .cluster span{color:#333;}#my-svg div.mermaidTooltip{position:absolute;text-align:center;max-width:200px;padding:2px;font-family:"trebuchet ms",verdana,arial,sans-serif;font-size:12px;background:hsl(80, 100%, 96.2745098039%);border:1px solid #aaaa33;border-radius:2px;pointer-events:none;z-index:100;}#my-svg .flowchartTitleText{text-anchor:middle;font-size:18px;fill:#333;}#my-svg rect.text{fill:none;stroke-width:0;}#my-svg .icon-shape,#my-svg .image-shape{background-color:rgba(232,232,232, 0.8);text-align:center;}#my-svg .icon-shape p,#my-svg .image-shape p{background-color:rgba(232,232,232, 0.8);padding:2px;}#my-svg .icon-shape .label rect,#my-svg .image-shape .label rect{opacity:0.5;background-color:rgba(232,232,232, 0.8);fill:rgba(232,232,232, 0.8);}#my-svg .label-icon{display:inline-block;height:1em;overflow:visible;vertical-align:-0.125em;}#my-svg .node .label-icon path{fill:currentColor;stroke:revert;stroke-width:revert;}#my-svg .node .neo-node{stroke:#9370DB;}#my-svg [data-look="neo"].node rect,#my-svg [data-look="neo"].cluster rect,#my-svg [data-look="neo"].node polygon{stroke:#9370DB;filter:drop-shadow(1px 2px 2px rgba(185, 185, 185, 1));}#my-svg [data-look="neo"].node path{stroke:#9370DB;stroke-width:1px;}#my-svg [data-look="neo"].node .outer-path{filter:drop-shadow(1px 2px 2px rgba(185, 185, 185, 1));}#my-svg [data-look="neo"].node .neo-line path{stroke:#9370DB;filter:none;}#my-svg [data-look="neo"].node circle{stroke:#9370DB;filter:drop-shadow(1px 2px 2px rgba(185, 185, 185, 1));}#my-svg [data-look="neo"].node circle .state-start{fill:#000000;}#my-svg [data-look="neo"].icon-shape .icon{fill:#9370DB;filter:drop-shadow(1px 2px 2px rgba(185, 185, 185, 1));}#my-svg [data-look="neo"].icon-shape .icon-neo path{stroke:#9370DB;filter:drop-shadow(1px 2px 2px rgba(185, 185, 185, 1));}#my-svg :root{--mermaid-font-family:"trebuchet ms",verdana,arial,sans-serif;}#my-svg .system&gt;*{fill:rgb(74, 144, 226)!important;stroke:rgb(42, 112, 194)!important;color:rgb(255, 255, 255)!important;font-weight:bold!important;}#my-svg .system span{fill:rgb(74, 144, 226)!important;stroke:rgb(42, 112, 194)!important;color:rgb(255, 255, 255)!important;font-weight:bold!important;}#my-svg .system tspan{fill:rgb(255, 255, 255)!important;}#my-svg .terminator&gt;*{fill:rgb(250, 250, 250)!important;stroke:rgb(68, 68, 68)!important;}#my-svg .terminator span{fill:rgb(250, 250, 250)!important;stroke:rgb(68, 68, 68)!important;}#my-svg .optional&gt;*{fill:rgb(250, 250, 250)!important;stroke:rgb(136, 136, 136)!important;stroke-dasharray:5,5!important;color:rgb(102, 102, 102)!important;}#my-svg .optional span{fill:rgb(250, 250, 250)!important;stroke:rgb(136, 136, 136)!important;stroke-dasharray:5,5!important;color:rgb(102, 102, 102)!important;}#my-svg .optional tspan{fill:rgb(102, 102, 102)!important;}#my-svg .grid&gt;*{fill:rgb(254, 240, 239)!important;stroke:rgb(231, 76, 60)!important;}#my-svg .grid span{fill:rgb(254, 240, 239)!important;stroke:rgb(231, 76, 60)!important;}</style><g><marker id="my-svg_flowchart-v2-pointEnd" class="marker flowchart-v2" viewBox="0 0 10 10" refX="5" refY="5" markerUnits="userSpaceOnUse" markerWidth="8" markerHeight="8" orient="auto"><path d="M 0 0 L 10 5 L 0 10 z" class="arrowMarkerPath" style="stroke-width: 1; stroke-dasharray: 1, 0;"/></marker><marker id="my-svg_flowchart-v2-pointStart" class="marker flowchart-v2" viewBox="0 0 10 10" refX="4.5" refY="5" markerUnits="userSpaceOnUse" markerWidth="8" markerHeight="8" orient="auto"><path d="M 0 5 L 10 10 L 10 0 z" class="arrowMarkerPath" style="stroke-width: 1; stroke-dasharray: 1, 0;"/></marker><marker id="my-svg_flowchart-v2-pointEnd-margin" class="marker flowchart-v2" viewBox="0 0 11.5 14" refX="11.5" refY="7" markerUnits="userSpaceOnUse" markerWidth="10.5" markerHeight="14" orient="auto"><path d="M 0 0 L 11.5 7 L 0 14 z" class="arrowMarkerPath" style="stroke-width: 0; stroke-dasharray: 1, 0;"/></marker><marker id="my-svg_flowchart-v2-pointStart-margin" class="marker flowchart-v2" viewBox="0 0 11.5 14" refX="1" refY="7" markerUnits="userSpaceOnUse" markerWidth="11.5" markerHeight="14" orient="auto"><polygon points="0,7 11.5,14 11.5,0" class="arrowMarkerPath" style="stroke-width: 0; stroke-dasharray: 1, 0;"/></marker><marker id="my-svg_flowchart-v2-circleEnd" class="marker flowchart-v2" viewBox="0 0 10 10" refX="11" refY="5" markerUnits="userSpaceOnUse" markerWidth="11" markerHeight="11" orient="auto"><circle cx="5" cy="5" r="5" class="arrowMarkerPath" style="stroke-width: 1; stroke-dasharray: 1, 0;"/></marker><marker id="my-svg_flowchart-v2-circleStart" class="marker flowchart-v2" viewBox="0 0 10 10" refX="-1" refY="5" markerUnits="userSpaceOnUse" markerWidth="11" markerHeight="11" orient="auto"><circle cx="5" cy="5" r="5" class="arrowMarkerPath" style="stroke-width: 1; stroke-dasharray: 1, 0;"/></marker><marker id="my-svg_flowchart-v2-circleEnd-margin" class="marker flowchart-v2" viewBox="0 0 10 10" refY="5" refX="12.25" markerUnits="userSpaceOnUse" markerWidth="14" markerHeight="14" orient="auto"><circle cx="5" cy="5" r="5" class="arrowMarkerPath" style="stroke-width: 0; stroke-dasharray: 1, 0;"/></marker><marker id="my-svg_flowchart-v2-circleStart-margin" class="marker flowchart-v2" viewBox="0 0 10 10" refX="-2" refY="5" markerUnits="userSpaceOnUse" markerWidth="14" markerHeight="14" orient="auto"><circle cx="5" cy="5" r="5" class="arrowMarkerPath" style="stroke-width: 0; stroke-dasharray: 1, 0;"/></marker><marker id="my-svg_flowchart-v2-crossEnd" class="marker cross flowchart-v2" viewBox="0 0 11 11" refX="12" refY="5.2" markerUnits="userSpaceOnUse" markerWidth="11" markerHeight="11" orient="auto"><path d="M 1,1 l 9,9 M 10,1 l -9,9" class="arrowMarkerPath" style="stroke-width: 2; stroke-dasharray: 1, 0;"/></marker><marker id="my-svg_flowchart-v2-crossStart" class="marker cross flowchart-v2" viewBox="0 0 11 11" refX="-1" refY="5.2" markerUnits="userSpaceOnUse" markerWidth="11" markerHeight="11" orient="auto"><path d="M 1,1 l 9,9 M 10,1 l -9,9" class="arrowMarkerPath" style="stroke-width: 2; stroke-dasharray: 1, 0;"/></marker><marker id="my-svg_flowchart-v2-crossEnd-margin" class="marker cross flowchart-v2" viewBox="0 0 15 15" refX="17.7" refY="7.5" markerUnits="userSpaceOnUse" markerWidth="12" markerHeight="12" orient="auto"><path d="M 1,1 L 14,14 M 1,14 L 14,1" class="arrowMarkerPath" style="stroke-width: 2.5;"/></marker><marker id="my-svg_flowchart-v2-crossStart-margin" class="marker cross flowchart-v2" viewBox="0 0 15 15" refX="-3.5" refY="7.5" markerUnits="userSpaceOnUse" markerWidth="12" markerHeight="12" orient="auto"><path d="M 1,1 L 14,14 M 1,14 L 14,1" class="arrowMarkerPath" style="stroke-width: 2.5; stroke-dasharray: 1, 0;"/></marker><g class="root"><g class="clusters"/><g class="edgePaths"><path d="M141.375,156.95L163.326,154.337C185.276,151.724,229.177,146.499,268.514,149.762C307.851,153.025,342.623,164.776,360.01,170.652L377.396,176.527" id="my-svg-L_term_angler_sys_root_0" class="edge-thickness-normal edge-pattern-solid edge-thickness-normal edge-pattern-solid flowchart-link" style=";" data-edge="true" data-et="edge" data-id="L_term_angler_sys_root_0" data-points="W3sieCI6MTQxLjM3NSwieSI6MTU2Ljk0OTk5NTExMjY0Njl9LHsieCI6MjczLjA3ODEyNSwieSI6MTQxLjI3MzQzNzV9LHsieCI6MzgxLjE4NTMxOTAxNDMwMDY2LCJ5IjoxNzcuODA3ODQyNDY5MTQ0Nn1d" data-look="classic" marker-end="url(#my-svg_flowchart-v2-pointEnd)"/><path d="M377.656,199.273L360.227,199.273C342.797,199.273,307.938,199.273,269.212,195.125C230.486,190.977,187.894,182.682,166.597,178.534L145.301,174.386" id="my-svg-L_sys_root_term_angler_0" class="edge-thickness-normal edge-pattern-solid edge-thickness-normal edge-pattern-solid flowchart-link" style=";" data-edge="true" data-et="edge" data-id="L_sys_root_term_angler_0" data-points="W3sieCI6Mzc3LjY1NjI1LCJ5IjoxOTkuMjczNDM3NX0seyJ4IjoyNzMuMDc4MTI1LCJ5IjoxOTkuMjczNDM3NX0seyJ4IjoxNDEuMzc1LCJ5IjoxNzMuNjIwODg4Njc5MzA1MX1d" data-look="classic" marker-end="url(#my-svg_flowchart-v2-pointEnd)"/><path d="M735.404,152L714.674,163.546C693.944,175.091,652.484,198.182,615.772,207.614C579.061,217.046,547.099,212.818,531.118,210.704L515.136,208.59" id="my-svg-L_term_line_sys_root_0" class="edge-thickness-normal edge-pattern-solid edge-thickness-normal edge-pattern-solid flowchart-link" style=";" data-edge="true" data-et="edge" data-id="L_term_line_sys_root_0" data-points="W3sieCI6NzM1LjQwNDE5NTI4MDE2NzIsInkiOjE1Mn0seyJ4Ijo2MTEuMDIzNDM3NSwieSI6MjIxLjI3MzQzNzV9LHsieCI6NTExLjE3MTAzODc0NzI3MzM3LCJ5IjoyMDguMDY1NDczMDYzNTQ1NTd9XQ==" data-look="classic" marker-end="url(#my-svg_flowchart-v2-pointEnd)"/><path d="M502.43,165.172L520.529,154.481C538.628,143.789,574.826,122.406,608.81,113.918C642.794,105.43,674.564,109.837,690.45,112.04L706.335,114.244" id="my-svg-L_sys_root_term_line_0" class="edge-thickness-normal edge-pattern-solid edge-thickness-normal edge-pattern-solid flowchart-link" style=";" data-edge="true" data-et="edge" data-id="L_sys_root_term_line_0" data-points="W3sieCI6NTAyLjQzMDE0NjMyMjgwMywieSI6MTY1LjE3MjQ5MjQwMzY3OTM0fSx7IngiOjYxMS4wMjM0Mzc1LCJ5IjoxMDEuMDIzNDM3NX0seyJ4Ijo3MTAuMjk2ODc1LCJ5IjoxMTQuNzkzMjE4NzM4NzAxMDd9XQ==" data-look="classic" marker-end="url(#my-svg_flowchart-v2-pointEnd)"/><path d="M511.171,190.481L527.813,188.28C544.455,186.079,577.739,181.676,613.743,187.809C649.746,193.943,688.469,210.612,707.83,218.947L727.192,227.281" id="my-svg-L_sys_root_term_cloud_0" class="edge-thickness-normal edge-pattern-dotted edge-thickness-normal edge-pattern-solid flowchart-link" style=";" data-edge="true" data-et="edge" data-id="L_sys_root_term_cloud_0" data-points="W3sieCI6NTExLjE3MTAzODc0NzI3MzM3LCJ5IjoxOTAuNDgxNDAxOTM2NDU0NDN9LHsieCI6NjExLjAyMzQzNzUsInkiOjE3Ny4yNzM0Mzc1fSx7IngiOjczMC44NjU2NTE5NjI2ODU0LCJ5IjoyMjguODYzMDgxMTQ5NTc3NjV9XQ==" data-look="classic" marker-end="url(#my-svg_flowchart-v2-pointEnd)"/><path d="M168.5,267.273L185.93,267.273C203.359,267.273,238.219,267.273,273.864,260.056C309.509,252.839,345.94,238.405,364.155,231.188L382.371,223.97" id="my-svg-L_term_power_sys_root_0" class="edge-thickness-normal edge-pattern-solid edge-thickness-normal edge-pattern-solid flowchart-link" style=";" data-edge="true" data-et="edge" data-id="L_term_power_sys_root_0" data-points="W3sieCI6MTY4LjUsInkiOjI2Ny4yNzM0Mzc1fSx7IngiOjI3My4wNzgxMjUsInkiOjI2Ny4yNzM0Mzc1fSx7IngiOjM4Mi4zNzA1OTIzMDY4Nzc2NSwieSI6MjIzLjk3MDM3Njg5MTg4NTM0fV0=" data-look="classic"/><path d="M489.82,35L510.021,35C530.221,35,570.622,35,610.99,45.5C651.357,56,691.691,77,711.858,87.5L732.025,98" id="my-svg-L_term_fish_term_line_0" class="edge-thickness-normal edge-pattern-solid edge-thickness-normal edge-pattern-solid flowchart-link" style=";" data-edge="true" data-et="edge" data-id="L_term_fish_term_line_0" data-points="W3sieCI6NDg5LjgyMDMxMjUsInkiOjM1fSx7IngiOjYxMS4wMjM0Mzc1LCJ5IjozNX0seyJ4Ijo3MzIuMDI1LCJ5Ijo5OH1d" data-look="classic"/></g><g class="edgeLabels"><g class="edgeLabel" transform="translate(273.078125, 141.2734375)"><g class="label" data-id="L_term_angler_sys_root_0" transform="translate(-79.578125, -12)"><foreignObject width="159.15625" height="24"><div xmlns="http://www.w3.org/1999/xhtml" class="labelBkg" style="display: table-cell; white-space: nowrap; line-height: 1.5; max-width: 200px; text-align: center;"><span class="edgeLabel"><p>F1: config, arm/disarm</p></span></div></foreignObject></g></g><g class="edgeLabel" transform="translate(273.078125, 199.2734375)"><g class="label" data-id="L_sys_root_term_angler_0" transform="translate(-59.1328125, -12)"><foreignObject width="118.265625" height="24"><div xmlns="http://www.w3.org/1999/xhtml" class="labelBkg" style="display: table-cell; white-space: nowrap; line-height: 1.5; max-width: 200px; text-align: center;"><span class="edgeLabel"><p>F2: status, alerts</p></span></div></foreignObject></g></g><g class="edgeLabel" transform="translate(629.21632, 211.14097)"><g class="label" data-id="L_term_line_sys_root_0" transform="translate(-74.2734375, -12)"><foreignObject width="148.546875" height="24"><div xmlns="http://www.w3.org/1999/xhtml" class="labelBkg" style="display: table-cell; white-space: nowrap; line-height: 1.5; max-width: 200px; text-align: center;"><span class="edgeLabel"><p>F3: tension feedback</p></span></div></foreignObject></g></g><g class="edgeLabel" transform="translate(599.87291, 107.61036)"><g class="label" data-id="L_sys_root_term_line_0" transform="translate(-69.3671875, -12)"><foreignObject width="138.734375" height="24"><div xmlns="http://www.w3.org/1999/xhtml" class="labelBkg" style="display: table-cell; white-space: nowrap; line-height: 1.5; max-width: 200px; text-align: center;"><span class="edgeLabel"><p>F4: reel torque cmd</p></span></div></foreignObject></g></g><g class="edgeLabel" transform="translate(624.68743, 183.15551)"><g class="label" data-id="L_sys_root_term_cloud_0" transform="translate(-45.8046875, -12)"><foreignObject width="91.609375" height="24"><div xmlns="http://www.w3.org/1999/xhtml" class="labelBkg" style="display: table-cell; white-space: nowrap; line-height: 1.5; max-width: 200px; text-align: center;"><span class="edgeLabel"><p>F6: catch log</p></span></div></foreignObject></g></g><g class="edgeLabel"><g class="label" data-id="L_term_power_sys_root_0" transform="translate(0, 0)"><foreignObject width="0" height="0"><div xmlns="http://www.w3.org/1999/xhtml" class="labelBkg" style="display: table-cell; white-space: nowrap; line-height: 1.5; max-width: 200px; text-align: center;"><span class="edgeLabel"></span></div></foreignObject></g></g><g class="edgeLabel"><g class="label" data-id="L_term_fish_term_line_0" transform="translate(0, 0)"><foreignObject width="0" height="0"><div xmlns="http://www.w3.org/1999/xhtml" class="labelBkg" style="display: table-cell; white-space: nowrap; line-height: 1.5; max-width: 200px; text-align: center;"><span class="edgeLabel"></span></div></foreignObject></g></g></g><g class="nodes"><g class="node default terminator" id="my-svg-flowchart-term_angler-0" data-look="classic" transform="translate(88.25, 163.2734375)"><rect class="basic label-container" style="fill:#fafafa !important;stroke:#444 !important" x="-53.125" y="-27" width="106.25" height="54"/><g class="label" style="" transform="translate(-23.125, -12)"><rect/><foreignObject width="46.25" height="24"><div xmlns="http://www.w3.org/1999/xhtml" style="display: table-cell; white-space: nowrap; line-height: 1.5; max-width: 200px; text-align: center;"><span class="nodeLabel"><p>Angler</p></span></div></foreignObject></g></g><g class="node default terminator" id="my-svg-flowchart-term_line-1" data-look="classic" transform="translate(783.8828125, 125)"><rect class="basic label-container" style="fill:#fafafa !important;stroke:#444 !important" x="-73.5859375" y="-27" width="147.171875" height="54"/><g class="label" style="" transform="translate(-43.5859375, -12)"><rect/><foreignObject width="87.171875" height="24"><div xmlns="http://www.w3.org/1999/xhtml" style="display: table-cell; white-space: nowrap; line-height: 1.5; max-width: 200px; text-align: center;"><span class="nodeLabel"><p>Hook &amp; Line</p></span></div></foreignObject></g></g><g class="node default terminator" id="my-svg-flowchart-term_fish-2" data-look="classic" transform="translate(444.703125, 35)"><rect class="basic label-container" style="fill:#fafafa !important;stroke:#444 !important" x="-45.1171875" y="-27" width="90.234375" height="54"/><g class="label" style="" transform="translate(-15.1171875, -12)"><rect/><foreignObject width="30.234375" height="24"><div xmlns="http://www.w3.org/1999/xhtml" style="display: table-cell; white-space: nowrap; line-height: 1.5; max-width: 200px; text-align: center;"><span class="nodeLabel"><p>Fish</p></span></div></foreignObject></g></g><g class="node default terminator" id="my-svg-flowchart-term_power-3" data-look="classic" transform="translate(88.25, 267.2734375)"><rect class="basic label-container" style="fill:#fafafa !important;stroke:#444 !important" x="-80.25" y="-27" width="160.5" height="54"/><g class="label" style="" transform="translate(-50.25, -12)"><rect/><foreignObject width="100.5" height="24"><div xmlns="http://www.w3.org/1999/xhtml" style="display: table-cell; white-space: nowrap; line-height: 1.5; max-width: 200px; text-align: center;"><span class="nodeLabel"><p>Power Source</p></span></div></foreignObject></g></g><g class="node default optional" id="my-svg-flowchart-term_cloud-4" data-look="classic" transform="translate(783.8828125, 251.2734375)"><g class="basic label-container outer-path"><path d="M-31.9140625 -31.5 C-7.472003403601708 -31.5, 16.970055692796585 -31.5, 31.9140625 -31.5 C31.9140625 -31.5, 31.9140625 -31.5, 31.914062499999996 -31.5 C32.574459932098655 -31.47882233973822, 33.23485736419731 -31.457644679476434, 33.93227442939246 -31.435279871635593 C34.59940029195775 -31.370923042010155, 35.266526154523035 -31.30656621238472, 35.94219309306194 -31.241385435432253 C36.694946058501166 -31.119686173666473, 37.447699023940395 -30.997986911900693, 37.935559304093225 -30.91911344521856 C38.39726535138225 -30.813732052838372, 38.85897139867127 -30.70835066045818, 39.90418189314948 -30.469788185729428 C40.51302186155805 -30.289087678971974, 41.121861829966626 -30.108387172214517, 41.83997136774405 -29.895256030836062 C42.47209484509039 -29.66262874788724, 43.10421832243673 -29.430001464938417, 43.73497315370028 -29.197877856399685 C44.10572878540702 -29.033755336318166, 44.47648441711375 -28.869632816236646, 45.58140028220308 -28.380519338926202 C46.120461488295 -28.099291452993228, 46.65952269438692 -27.818063567060253, 47.371665388124036 -27.44653917988677 C47.84371615662613 -27.160379229942567, 48.31576692512822 -26.874219279998364, 49.098411888132276 -26.399775304092984 C49.591681202999624 -26.05569198332601, 50.084950517866965 -25.711608662559033, 50.7545442104733 -25.244529088840633 C51.25769810060765 -24.843277250945825, 51.760851990742005 -24.44202541305102, 52.33325695219533 -23.985547688627737 C52.745803074517724 -23.61088421570679, 53.15834919684012 -23.236220742785843, 53.82806284400982 -22.62800452807842 C54.15483352962921 -22.29058696680417, 54.4816042152486 -21.953169405529923, 55.232819407872434 -21.177478043231485 C55.50327878826083 -20.859781065452566, 55.773738168649224 -20.542084087673647, 56.54175419774294 -19.63992875855011 C56.81583324076948 -19.272687810009028, 57.08991228379602 -18.905446861467944, 57.7494885198041 -18.02167479384835 C58.17507341865752 -17.36786210366268, 58.600658317510934 -16.71404941347701, 58.8510595346684 -16.329365901781543 C59.21689435389966 -15.679789135443993, 59.58272917313093 -15.030212369106446, 59.84194065074951 -14.56995614258631 C60.10868773000957 -14.016050125029608, 60.375434809269635 -13.462144107472906, 60.71806012499809 -12.750675308355413 C60.987915402983894 -12.084127554433612, 61.25777068096969 -11.41757980051181, 61.47581779456745 -10.878999214271206 C61.70124788627128 -10.200039695466685, 61.92667797797512 -9.521080176662167, 62.11209987065481 -8.962618978877531 C62.21849531698052 -8.556887029959471, 62.32489076330623 -8.151155081041411, 62.624291733727446 -7.009409419623907 C62.76090749694201 -6.307916349268892, 62.897523260156575 -5.606423278913876, 63.01028867755518 -5.027396693551458 C63.068582361541544 -4.575282391943151, 63.12687604552791 -4.123168090334844, 63.268504557899746 -3.024725316091981 C63.30421274128143 -2.4685415367954078, 63.33992092466312 -1.9123577574988344, 63.39787831032167 -1.0096246935071378 C63.39787831032167 -0.5787410503603139, 63.39787831032167 -0.14785740721348983, 63.39787831032167 1.00962469350713 C63.359498927451696 1.6074145609872388, 63.32111954458172 2.205204428467348, 63.268504557899746 3.02472531609196 C63.20103274613264 3.5480233643414025, 63.133560934365526 4.071321412590845, 63.01028867755518 5.027396693551435 C62.92731025237045 5.453473369378684, 62.84433182718571 5.879550045205933, 62.624291733727446 7.0094094196239 C62.48863678889777 7.526720517484457, 62.35298184406809 8.044031615345014, 62.112099870654816 8.96261897887751 C61.98127671982694 9.356637465332646, 61.85045356899906 9.750655951787781, 61.475817794567455 10.878999214271184 C61.20083864067378 11.558203040748825, 60.92585948678011 12.237406867226467, 60.71806012499809 12.750675308355405 C60.380845029778065 13.45090966882697, 60.04362993455804 14.151144029298536, 59.84194065074951 14.569956142586303 C59.50383976207407 15.170288506856984, 59.16573887339864 15.770620871127667, 58.85105953466841 16.329365901781536 C58.48613474286778 16.889988378014632, 58.12120995106716 17.45061085424773, 57.74948851980412 18.021674793848334 C57.446558611796505 18.42757327309618, 57.1436287037889 18.833471752344025, 56.54175419774295 19.639928758550102 C56.078365451368434 20.18425154760823, 55.61497670499392 20.72857433666636, 55.23281940787245 21.177478043231467 C54.67775353259879 21.750629131207393, 54.122687657325145 22.323780219183323, 53.82806284400983 22.628004528078414 C53.38027959502083 23.034669427114686, 52.93249634603183 23.441334326150958, 52.333256952195356 23.985547688627715 C51.73775739433912 24.460442739109304, 51.142257836482884 24.93533778959089, 50.75454421047331 25.24452908884063 C50.37258768628726 25.510965425481377, 49.99063116210121 25.777401762122125, 49.0984118881323 26.399775304092973 C48.41640260272571 26.813213340837883, 47.73439331731912 27.22665137758279, 47.37166538812404 27.446539179886766 C46.69125347653448 27.801509638338413, 46.01084156494491 28.156480096790055, 45.581400282203084 28.3805193389262 C44.908611443712246 28.678343000154292, 44.235822605221415 28.976166661382386, 43.734973153700295 29.197877856399682 C42.99021864778945 29.47195439901006, 42.24546414187859 29.746030941620436, 41.83997136774407 29.895256030836055 C41.19319921385132 30.08721461113511, 40.546427059958575 30.279173191434165, 39.90418189314951 30.46978818572942 C39.2619704072725 30.61636876655925, 38.61975892139549 30.762949347389082, 37.93555930409324 30.919113445218557 C37.237303911921245 31.032001961973485, 36.53904851974926 31.14489047872841, 35.94219309306196 31.24138543543225 C35.37957028462152 31.295660981109574, 34.81694747618109 31.349936526786898, 33.93227442939246 31.435279871635593 C33.39444167264203 31.452527121316628, 32.8566089158916 31.46977437099766, 31.914062500000007 31.5 C31.914062500000004 31.5, 31.914062500000004 31.5, 31.9140625 31.5 C14.595281212036348 31.5, -2.723500075927305 31.5, -31.914062499999993 31.5 C-32.37773879765635 31.485130803625324, -32.84141509531271 31.470261607250645, -33.93227442939244 31.435279871635593 C-34.53915017297931 31.376735298526633, -35.14602591656619 31.318190725417676, -35.942193093061945 31.24138543543225 C-36.35568211095447 31.17453573767461, -36.76917112884699 31.107686039916974, -37.935559304093225 30.919113445218557 C-38.6025919903684 30.766867587371316, -39.26962467664357 30.614621729524075, -39.90418189314947 30.469788185729428 C-40.366053231436204 30.332707196938056, -40.82792456972293 30.19562620814668, -41.839971367744035 29.89525603083607 C-42.29083193121545 29.729335175769226, -42.741692494686866 29.563414320702385, -43.73497315370029 29.197877856399685 C-44.187075383001904 28.997745610623994, -44.63917761230352 28.797613364848303, -45.58140028220308 28.380519338926206 C-45.97465498535006 28.175358612186084, -46.36790968849704 27.970197885445963, -47.37166538812403 27.446539179886773 C-47.80963908570525 27.1810369505939, -48.24761278328648 26.915534721301025, -49.09841188813226 26.399775304092994 C-49.637861283976186 26.023478757940246, -50.1773106798201 25.6471822117875, -50.7545442104733 25.244529088840636 C-51.286061266515404 24.82065838090994, -51.817578322557516 24.39678767297924, -52.33325695219533 23.98554768862774 C-52.63830616785655 23.70851006212418, -52.94335538351777 23.43147243562062, -53.82806284400981 22.628004528078435 C-54.15240812212025 22.29309139918683, -54.47675340023069 21.95817827029523, -55.23281940787244 21.177478043231478 C-55.658748956704045 20.677156959095964, -56.084678505535656 20.17683587496045, -56.54175419774293 19.639928758550113 C-56.95783413192861 19.082419552403106, -57.37391406611429 18.524910346256096, -57.7494885198041 18.021674793848355 C-58.181605864309994 17.357826512933208, -58.61372320881589 16.693978232018058, -58.851059534668394 16.329365901781557 C-59.10383062367005 15.880545237410836, -59.356601712671704 15.431724573040114, -59.8419406507495 14.569956142586314 C-60.09259271521756 14.049471767623347, -60.343244779685634 13.52898739266038, -60.71806012499809 12.750675308355417 C-60.96854703246973 12.131967804065566, -61.21903393994137 11.513260299775713, -61.47581779456745 10.878999214271209 C-61.6781824111702 10.26950923148678, -61.88054702777294 9.660019248702351, -62.11209987065481 8.962618978877522 C-62.277001713375746 8.33377678367185, -62.44190355609669 7.704934588466178, -62.62429173372744 7.009409419623911 C-62.77321536280511 6.24471805933024, -62.92213899188278 5.480026699036568, -63.01028867755518 5.027396693551461 C-63.09287726028504 4.386855954858979, -63.175465843014905 3.7463152161664968, -63.268504557899746 3.024725316091999 C-63.31352055365558 2.3235648459371716, -63.35853654941141 1.622404375782344, -63.39787831032167 1.0096246935071416 C-63.39787831032167 0.3393482074752364, -63.39787831032167 -0.33092827855666873, -63.39787831032167 -1.0096246935071262 C-63.35724175773871 -1.6425718012215973, -63.31660520515575 -2.2755189089360686, -63.268504557899746 -3.024725316091956 C-63.19807818355028 -3.570938368285777, -63.12765180920082 -4.1171514204795985, -63.01028867755518 -5.027396693551446 C-62.929330325026484 -5.443100723232448, -62.84837197249778 -5.858804752913452, -62.624291733727446 -7.009409419623896 C-62.468386402114994 -7.603944018860322, -62.31248107050254 -8.198478618096747, -62.112099870654816 -8.962618978877506 C-61.980590620789286 -9.358703886319004, -61.84908137092376 -9.754788793760502, -61.47581779456746 -10.878999214271168 C-61.313456486069256 -11.280034785304094, -61.151095177571044 -11.68107035633702, -60.71806012499809 -12.750675308355401 C-60.47220687068023 -13.261194851363374, -60.226353616362374 -13.771714394371347, -59.84194065074951 -14.5699561425863 C-59.49112659478399 -15.192862022728308, -59.14031253881848 -15.815767902870316, -58.8510595346684 -16.329365901781546 C-58.446689988961886 -16.95058611241359, -58.04232044325537 -17.571806323045635, -57.74948851980411 -18.021674793848344 C-57.346650734130755 -18.561440727373387, -56.943812948457406 -19.101206660898434, -56.54175419774295 -19.639928758550102 C-56.0702741917257 -20.1937560015903, -55.598794185708456 -20.747583244630505, -55.232819407872455 -21.177478043231467 C-54.87450049146566 -21.547471742951625, -54.516181575058866 -21.917465442671787, -53.828062844009835 -22.628004528078403 C-53.34320178465932 -23.068342513459903, -52.85834072530881 -23.508680498841404, -52.333256952195356 -23.98554768862771 C-51.902630092117555 -24.328961150077745, -51.472003232039754 -24.67237461152778, -50.75454421047331 -25.244529088840626 C-50.40711589094921 -25.48688004461109, -50.0596875714251 -25.72923100038156, -49.098411888132304 -26.39977530409297 C-48.587714773623844 -26.709362896097367, -48.077017659115384 -27.01895048810177, -47.37166538812404 -27.446539179886763 C-46.91399381740746 -27.685306145176977, -46.45632224669087 -27.924073110467187, -45.58140028220309 -28.3805193389262 C-44.875505347659946 -28.692998086819202, -44.1696104131168 -29.005476834712205, -43.7349731537003 -29.19787785639968 C-43.05268781300485 -29.448965168752157, -42.37040247230941 -29.70005248110463, -41.83997136774408 -29.895256030836055 C-41.218579211938085 -30.079681960925285, -40.5971870561321 -30.26410789101452, -39.90418189314951 -30.469788185729417 C-39.32848064854456 -30.601188238008785, -38.752779403939606 -30.732588290288152, -37.93555930409324 -30.919113445218553 C-37.156803168912276 -31.045016697810585, -36.37804703373132 -31.17091995040262, -35.94219309306196 -31.24138543543225 C-35.269383730347066 -31.306290545481712, -34.596574367632165 -31.371195655531174, -33.93227442939246 -31.435279871635593 C-33.216461316707544 -31.4582346049137, -32.500648204022625 -31.481189338191804, -31.91406250000001 -31.5 C-31.914062500000007 -31.5, -31.914062500000004 -31.5, -31.9140625 -31.5" stroke="none" stroke-width="0" fill="#fafafa" style="fill:#fafafa !important;stroke:#888 !important;stroke-dasharray:5 5 !important"/><path d="M-31.9140625 -31.5 C-17.158205370358857 -31.5, -2.4023482407177177 -31.5, 31.9140625 -31.5 M-31.9140625 -31.5 C-13.572352218341457 -31.5, 4.769358063317085 -31.5, 31.9140625 -31.5 M31.9140625 -31.5 C31.9140625 -31.5, 31.9140625 -31.5, 31.914062499999996 -31.5 M31.9140625 -31.5 C31.9140625 -31.5, 31.914062499999996 -31.5, 31.914062499999996 -31.5 M31.914062499999996 -31.5 C32.47378307655538 -31.482050850539878, 33.033503653110756 -31.46410170107976, 33.93227442939246 -31.435279871635593 M31.914062499999996 -31.5 C32.390992245809926 -31.48470579133931, 32.86792199161985 -31.46941158267862, 33.93227442939246 -31.435279871635593 M33.93227442939246 -31.435279871635593 C34.69167645162263 -31.362021271865604, 35.451078473852796 -31.288762672095615, 35.94219309306194 -31.241385435432253 M33.93227442939246 -31.435279871635593 C34.40640809428417 -31.38954076721265, 34.88054175917588 -31.343801662789705, 35.94219309306194 -31.241385435432253 M35.94219309306194 -31.241385435432253 C36.613786662058274 -31.13280739548284, 37.28538023105462 -31.024229355533425, 37.935559304093225 -30.91911344521856 M35.94219309306194 -31.241385435432253 C36.542810086710205 -31.144282337753552, 37.143427080358464 -31.047179240074854, 37.935559304093225 -30.91911344521856 M37.935559304093225 -30.91911344521856 C38.6232418714026 -30.76215438677833, 39.31092443871198 -30.605195328338098, 39.90418189314948 -30.469788185729428 M37.935559304093225 -30.91911344521856 C38.673920534134425 -30.75058731271897, 39.412281764175624 -30.582061180219384, 39.90418189314948 -30.469788185729428 M39.90418189314948 -30.469788185729428 C40.29976166310303 -30.352382186447798, 40.69534143305657 -30.234976187166172, 41.83997136774405 -29.895256030836062 M39.90418189314948 -30.469788185729428 C40.33084877901517 -30.343155693624677, 40.75751566488087 -30.216523201519923, 41.83997136774405 -29.895256030836062 M41.83997136774405 -29.895256030836062 C42.588401384561244 -29.6198268662361, 43.33683140137844 -29.344397701636137, 43.73497315370028 -29.197877856399685 M41.83997136774405 -29.895256030836062 C42.33586211124927 -29.71276365326236, 42.831752854754484 -29.530271275688655, 43.73497315370028 -29.197877856399685 M43.73497315370028 -29.197877856399685 C44.45477986654713 -28.879240776929876, 45.17458657939397 -28.560603697460067, 45.58140028220308 -28.380519338926202 M43.73497315370028 -29.197877856399685 C44.46783951304741 -28.87345965882485, 45.200705872394536 -28.549041461250013, 45.58140028220308 -28.380519338926202 M45.58140028220308 -28.380519338926202 C46.17600935241964 -28.07031216785951, 46.770618422636204 -27.760104996792816, 47.371665388124036 -27.44653917988677 M45.58140028220308 -28.380519338926202 C46.03208351896404 -28.145398182984398, 46.48276675572501 -27.910277027042593, 47.371665388124036 -27.44653917988677 M47.371665388124036 -27.44653917988677 C47.79354218725493 -27.19079498503036, 48.21541898638582 -26.93505079017395, 49.098411888132276 -26.399775304092984 M47.371665388124036 -27.44653917988677 C47.74695335798557 -27.2190374071198, 48.1222413278471 -26.99153563435283, 49.098411888132276 -26.399775304092984 M49.098411888132276 -26.399775304092984 C49.58476727935692 -26.06051483716023, 50.07112267058155 -25.721254370227477, 50.7545442104733 -25.244529088840633 M49.098411888132276 -26.399775304092984 C49.526924869859954 -26.100863198067756, 49.95543785158764 -25.801951092042533, 50.7545442104733 -25.244529088840633 M50.7545442104733 -25.244529088840633 C51.316683358091176 -24.796238077766336, 51.87882250570906 -24.347947066692043, 52.33325695219533 -23.985547688627737 M50.7545442104733 -25.244529088840633 C51.1592504369039 -24.921786642947207, 51.563956663334515 -24.59904419705378, 52.33325695219533 -23.985547688627737 M52.33325695219533 -23.985547688627737 C52.78845000891918 -23.57215339825944, 53.24364306564303 -23.158759107891143, 53.82806284400982 -22.62800452807842 M52.33325695219533 -23.985547688627737 C52.763948565353594 -23.59440496103303, 53.19464017851186 -23.203262233438327, 53.82806284400982 -22.62800452807842 M53.82806284400982 -22.62800452807842 C54.1504345409913 -22.2951292837365, 54.472806237972776 -21.96225403939458, 55.232819407872434 -21.177478043231485 M53.82806284400982 -22.62800452807842 C54.192699588533706 -22.251487152124025, 54.5573363330576 -21.87496977616963, 55.232819407872434 -21.177478043231485 M55.232819407872434 -21.177478043231485 C55.65697668603052 -20.67923876907415, 56.0811339641886 -20.180999494916815, 56.54175419774294 -19.63992875855011 M55.232819407872434 -21.177478043231485 C55.5580910130312 -20.79539550733334, 55.88336261818998 -20.413312971435193, 56.54175419774294 -19.63992875855011 M56.54175419774294 -19.63992875855011 C56.87738817585469 -19.190209804764798, 57.213022153966435 -18.740490850979487, 57.7494885198041 -18.02167479384835 M56.54175419774294 -19.63992875855011 C56.93367485450405 -19.114790783196568, 57.325595511265156 -18.589652807843024, 57.7494885198041 -18.02167479384835 M57.7494885198041 -18.02167479384835 C57.98851723164855 -17.65446250425895, 58.227545943493006 -17.28725021466955, 58.8510595346684 -16.329365901781543 M57.7494885198041 -18.02167479384835 C58.04036773314964 -17.57480621014412, 58.33124694649516 -17.12793762643989, 58.8510595346684 -16.329365901781543 M58.8510595346684 -16.329365901781543 C59.128014411668524 -15.837604472945474, 59.40496928866864 -15.345843044109403, 59.84194065074951 -14.56995614258631 M58.8510595346684 -16.329365901781543 C59.241188263805824 -15.636652838380465, 59.631316992943255 -14.943939774979388, 59.84194065074951 -14.56995614258631 M59.84194065074951 -14.56995614258631 C60.164856676372835 -13.899414106083363, 60.487772701996164 -13.228872069580415, 60.71806012499809 -12.750675308355413 M59.84194065074951 -14.56995614258631 C60.16444309687501 -13.900272912759782, 60.486945543000516 -13.230589682933251, 60.71806012499809 -12.750675308355413 M60.71806012499809 -12.750675308355413 C60.93490746737789 -12.215058180219158, 61.15175480975768 -11.679441052082902, 61.47581779456745 -10.878999214271206 M60.71806012499809 -12.750675308355413 C60.9290007412953 -12.229647907841938, 61.139941357592505 -11.708620507328462, 61.47581779456745 -10.878999214271206 M61.47581779456745 -10.878999214271206 C61.724261500465246 -10.130726356235934, 61.97270520636305 -9.382453498200665, 62.11209987065481 -8.962618978877531 M61.47581779456745 -10.878999214271206 C61.68449025503051 -10.25051101079795, 61.893162715493574 -9.622022807324694, 62.11209987065481 -8.962618978877531 M62.11209987065481 -8.962618978877531 C62.2877426899733 -8.292816784736713, 62.46338550929178 -7.623014590595895, 62.624291733727446 -7.009409419623907 M62.11209987065481 -8.962618978877531 C62.29246578020834 -8.274805594670248, 62.47283168976186 -7.586992210462966, 62.624291733727446 -7.009409419623907 M62.624291733727446 -7.009409419623907 C62.76350217288723 -6.294593236675144, 62.90271261204702 -5.5797770537263816, 63.01028867755518 -5.027396693551458 M62.624291733727446 -7.009409419623907 C62.71702307587064 -6.533253576494715, 62.80975441801383 -6.057097733365523, 63.01028867755518 -5.027396693551458 M63.01028867755518 -5.027396693551458 C63.077788091564834 -4.503884567759526, 63.14528750557449 -3.980372441967595, 63.268504557899746 -3.024725316091981 M63.01028867755518 -5.027396693551458 C63.09819377350461 -4.345622128192252, 63.18609886945405 -3.6638475628330456, 63.268504557899746 -3.024725316091981 M63.268504557899746 -3.024725316091981 C63.30979818832284 -2.381543690633852, 63.35109181874592 -1.7383620651757228, 63.39787831032167 -1.0096246935071378 M63.268504557899746 -3.024725316091981 C63.29954279542394 -2.5412797130382616, 63.33058103294814 -2.057834109984542, 63.39787831032167 -1.0096246935071378 M63.39787831032167 -1.0096246935071378 C63.39787831032167 -0.5591296747440977, 63.39787831032167 -0.10863465598105748, 63.39787831032167 1.00962469350713 M63.39787831032167 -1.0096246935071378 C63.39787831032167 -0.5070827086163041, 63.39787831032167 -0.00454072372547043, 63.39787831032167 1.00962469350713 M63.39787831032167 1.00962469350713 C63.34737353717053 1.7962773020552194, 63.2968687640194 2.582929910603309, 63.268504557899746 3.02472531609196 M63.39787831032167 1.00962469350713 C63.36890933063721 1.460839935432209, 63.33994035095274 1.912055177357288, 63.268504557899746 3.02472531609196 M63.268504557899746 3.02472531609196 C63.20886139454639 3.4873059131858186, 63.14921823119303 3.949886510279678, 63.01028867755518 5.027396693551435 M63.268504557899746 3.02472531609196 C63.166068710857736 3.8191975175038113, 63.063632863815734 4.613669718915663, 63.01028867755518 5.027396693551435 M63.01028867755518 5.027396693551435 C62.86552128291452 5.770746668431542, 62.72075388827386 6.51409664331165, 62.624291733727446 7.0094094196239 M63.01028867755518 5.027396693551435 C62.874022095150664 5.727096794246247, 62.73775551274615 6.426796894941059, 62.624291733727446 7.0094094196239 M62.624291733727446 7.0094094196239 C62.47266226412899 7.587638303830625, 62.321032794530545 8.16586718803735, 62.112099870654816 8.96261897887751 M62.624291733727446 7.0094094196239 C62.48289115261737 7.548631118796142, 62.34149057150729 8.087852817968384, 62.112099870654816 8.96261897887751 M62.112099870654816 8.96261897887751 C61.94963023598277 9.451951632488827, 61.78716060131072 9.941284286100146, 61.475817794567455 10.878999214271184 M62.112099870654816 8.96261897887751 C61.974480194455936 9.377107516870831, 61.83686051825706 9.791596054864153, 61.475817794567455 10.878999214271184 M61.475817794567455 10.878999214271184 C61.27857468883846 11.366193498857815, 61.081331583109474 11.853387783444445, 60.71806012499809 12.750675308355405 M61.475817794567455 10.878999214271184 C61.22476657365098 11.499100583680022, 60.973715352734516 12.119201953088862, 60.71806012499809 12.750675308355405 M60.71806012499809 12.750675308355405 C60.542581730191095 13.115059949808291, 60.36710333538411 13.47944459126118, 59.84194065074951 14.569956142586303 M60.71806012499809 12.750675308355405 C60.41309766559809 13.383936380450836, 60.108135206198085 14.017197452546267, 59.84194065074951 14.569956142586303 M59.84194065074951 14.569956142586303 C59.63237427014514 14.942062472246507, 59.42280788954078 15.314168801906712, 58.85105953466841 16.329365901781536 M59.84194065074951 14.569956142586303 C59.540257007569494 15.105625999833887, 59.23857336438948 15.641295857081472, 58.85105953466841 16.329365901781536 M58.85105953466841 16.329365901781536 C58.499276632487124 16.869798906467846, 58.14749373030583 17.410231911154156, 57.74948851980412 18.021674793848334 M58.85105953466841 16.329365901781536 C58.496818639494826 16.873575043767552, 58.14257774432124 17.417784185753565, 57.74948851980412 18.021674793848334 M57.74948851980412 18.021674793848334 C57.34416571224249 18.564770430313516, 56.93884290468086 19.107866066778698, 56.54175419774295 19.639928758550102 M57.74948851980412 18.021674793848334 C57.34333911725986 18.565877992285888, 56.9371897147156 19.11008119072344, 56.54175419774295 19.639928758550102 M56.54175419774295 19.639928758550102 C56.17940376305101 20.06556619746307, 55.81705332835908 20.491203636376035, 55.23281940787245 21.177478043231467 M56.54175419774295 19.639928758550102 C56.15348945735916 20.09600661549449, 55.765224716975375 20.552084472438874, 55.23281940787245 21.177478043231467 M55.23281940787245 21.177478043231467 C54.84326686033545 21.579723031422375, 54.453714312798446 21.981968019613284, 53.82806284400983 22.628004528078414 M55.23281940787245 21.177478043231467 C54.78814278697363 21.636643162939045, 54.343466166074805 22.095808282646622, 53.82806284400983 22.628004528078414 M53.82806284400983 22.628004528078414 C53.489569010150824 22.935415671933097, 53.15107517629182 23.242826815787776, 52.333256952195356 23.985547688627715 M53.82806284400983 22.628004528078414 C53.323178645214966 23.086526998920032, 52.818294446420104 23.54504946976165, 52.333256952195356 23.985547688627715 M52.333256952195356 23.985547688627715 C51.83760603750435 24.380816103269012, 51.34195512281335 24.776084517910313, 50.75454421047331 25.24452908884063 M52.333256952195356 23.985547688627715 C51.98612688958452 24.26237467604094, 51.63899682697369 24.539201663454165, 50.75454421047331 25.24452908884063 M50.75454421047331 25.24452908884063 C50.33542859520915 25.53688599882634, 49.91631297994499 25.829242908812052, 49.0984118881323 26.399775304092973 M50.75454421047331 25.24452908884063 C50.09355969268092 25.705603274894, 49.43257517488852 26.16667746094737, 49.0984118881323 26.399775304092973 M49.0984118881323 26.399775304092973 C48.64993415364413 26.671645142287407, 48.201456419155974 26.94351498048184, 47.37166538812404 27.446539179886766 M49.0984118881323 26.399775304092973 C48.51290373266384 26.754713788765805, 47.92739557719537 27.109652273438634, 47.37166538812404 27.446539179886766 M47.37166538812404 27.446539179886766 C46.956328666764655 27.66322008138409, 46.540991945405274 27.879900982881413, 45.581400282203084 28.3805193389262 M47.37166538812404 27.446539179886766 C46.667714069696245 27.813790131808208, 45.96376275126845 28.18104108372965, 45.581400282203084 28.3805193389262 M45.581400282203084 28.3805193389262 C44.889128748322086 28.686967411469894, 44.19685721444108 28.99341548401359, 43.734973153700295 29.197877856399682 M45.581400282203084 28.3805193389262 C45.19900812119643 28.549793005343417, 44.816615960189765 28.719066671760636, 43.734973153700295 29.197877856399682 M43.734973153700295 29.197877856399682 C43.3012855413493 29.35747890670919, 42.86759792899831 29.517079957018694, 41.83997136774407 29.895256030836055 M43.734973153700295 29.197877856399682 C43.13988833135512 29.416874571926503, 42.54480350900994 29.635871287453327, 41.83997136774407 29.895256030836055 M41.83997136774407 29.895256030836055 C41.17833203055583 30.091627113097775, 40.516692693367595 30.287998195359492, 39.90418189314951 30.46978818572942 M41.83997136774407 29.895256030836055 C41.235553406111805 30.07464410919389, 40.63113544447954 30.254032187551726, 39.90418189314951 30.46978818572942 M39.90418189314951 30.46978818572942 C39.328827793201 30.601109004506288, 38.75347369325249 30.73242982328315, 37.93555930409324 30.919113445218557 M39.90418189314951 30.46978818572942 C39.41151186091478 30.582236905614582, 38.918841828680044 30.694685625499748, 37.93555930409324 30.919113445218557 M37.93555930409324 30.919113445218557 C37.4296714505352 31.000901470162923, 36.92378359697717 31.08268949510729, 35.94219309306196 31.24138543543225 M37.93555930409324 30.919113445218557 C37.47799388937736 30.993089072997034, 37.02042847466148 31.067064700775507, 35.94219309306196 31.24138543543225 M35.94219309306196 31.24138543543225 C35.182139159138565 31.314706924339248, 34.42208522521518 31.388028413246243, 33.93227442939246 31.435279871635593 M35.94219309306196 31.24138543543225 C35.38689457799882 31.294954415336218, 34.831596062935674 31.348523395240186, 33.93227442939246 31.435279871635593 M33.93227442939246 31.435279871635593 C33.43750696834126 31.451146101105063, 32.942739507290064 31.467012330574537, 31.914062500000007 31.5 M33.93227442939246 31.435279871635593 C33.248081973871244 31.457220591984335, 32.563889518350024 31.479161312333073, 31.914062500000007 31.5 M31.914062500000007 31.5 C31.914062500000004 31.5, 31.914062500000004 31.5, 31.9140625 31.5 M31.914062500000007 31.5 C31.914062500000004 31.5, 31.914062500000004 31.5, 31.9140625 31.5 M31.9140625 31.5 C16.050534746619448 31.5, 0.18700699323889935 31.5, -31.914062499999993 31.5 M31.9140625 31.5 C13.84857513348084 31.5, -4.216912233038322 31.5, -31.914062499999993 31.5 M-31.914062499999993 31.5 C-32.38743467959825 31.484819875563336, -32.86080685919651 31.46963975112667, -33.93227442939244 31.435279871635593 M-31.914062499999993 31.5 C-32.50171633740592 31.481155085233198, -33.08937017481184 31.46231017046639, -33.93227442939244 31.435279871635593 M-33.93227442939244 31.435279871635593 C-34.653026144744 31.36574982048639, -35.37377786009555 31.296219769337185, -35.942193093061945 31.24138543543225 M-33.93227442939244 31.435279871635593 C-34.720999499163945 31.359192512735415, -35.50972456893545 31.283105153835237, -35.942193093061945 31.24138543543225 M-35.942193093061945 31.24138543543225 C-36.36248985725966 31.17343511404685, -36.782786621457376 31.10548479266145, -37.935559304093225 30.919113445218557 M-35.942193093061945 31.24138543543225 C-36.36602801542607 31.17286309207333, -36.7898629377902 31.104340748714414, -37.935559304093225 30.919113445218557 M-37.935559304093225 30.919113445218557 C-38.38744068158691 30.81597446960719, -38.839322059080594 30.712835493995826, -39.90418189314947 30.469788185729428 M-37.935559304093225 30.919113445218557 C-38.484025949922334 30.793929512387407, -39.03249259575145 30.668745579556262, -39.90418189314947 30.469788185729428 M-39.90418189314947 30.469788185729428 C-40.5892180590794 30.26647304750964, -41.27425422500933 30.06315790928985, -41.839971367744035 29.89525603083607 M-39.90418189314947 30.469788185729428 C-40.36833711112872 30.332029353433647, -40.832492329107964 30.194270521137863, -41.839971367744035 29.89525603083607 M-41.839971367744035 29.89525603083607 C-42.59263766213646 29.6182678769287, -43.34530395652889 29.341279723021334, -43.73497315370029 29.197877856399685 M-41.839971367744035 29.89525603083607 C-42.468653443383836 29.663895215527223, -43.09733551902364 29.432534400218373, -43.73497315370029 29.197877856399685 M-43.73497315370029 29.197877856399685 C-44.46287542506087 28.875657113322056, -45.19077769642145 28.553436370244427, -45.58140028220308 28.380519338926206 M-43.73497315370029 29.197877856399685 C-44.431294096657 28.889637230579627, -45.12761503961371 28.581396604759572, -45.58140028220308 28.380519338926206 M-45.58140028220308 28.380519338926206 C-46.236018804194316 28.03900527530655, -46.890637326185555 27.697491211686895, -47.37166538812403 27.446539179886773 M-45.58140028220308 28.380519338926206 C-46.2438001173374 28.034945769223974, -46.90619995247172 27.689372199521742, -47.37166538812403 27.446539179886773 M-47.37166538812403 27.446539179886773 C-47.72227748396299 27.233996066963815, -48.07288957980195 27.021452954040857, -49.09841188813226 26.399775304092994 M-47.37166538812403 27.446539179886773 C-47.724294304402456 27.232773458561258, -48.07692322068088 27.019007737235746, -49.09841188813226 26.399775304092994 M-49.09841188813226 26.399775304092994 C-49.62948261596659 26.02932335403705, -50.160553343800906 25.658871403981106, -50.7545442104733 25.244529088840636 M-49.09841188813226 26.399775304092994 C-49.62082451585051 26.035362869874913, -50.143237143568754 25.670950435656827, -50.7545442104733 25.244529088840636 M-50.7545442104733 25.244529088840636 C-51.24116313074663 24.856463449395967, -51.72778205101996 24.468397809951302, -52.33325695219533 23.98554768862774 M-50.7545442104733 25.244529088840636 C-51.232282252007266 24.863545713860503, -51.71002029354123 24.482562338880367, -52.33325695219533 23.98554768862774 M-52.33325695219533 23.98554768862774 C-52.73002594860782 23.625212584018293, -53.12679494502031 23.26487747940885, -53.82806284400981 22.628004528078435 M-52.33325695219533 23.98554768862774 C-52.73463853234896 23.621023557506863, -53.13602011250259 23.25649942638599, -53.82806284400981 22.628004528078435 M-53.82806284400981 22.628004528078435 C-54.354391657613206 22.084526815633687, -54.880720471216605 21.541049103188936, -55.23281940787244 21.177478043231478 M-53.82806284400981 22.628004528078435 C-54.37690557945712 22.061279342902484, -54.92574831490444 21.49455415772653, -55.23281940787244 21.177478043231478 M-55.23281940787244 21.177478043231478 C-55.61902429886004 20.723819802596605, -56.00522918984763 20.270161561961732, -56.54175419774293 19.639928758550113 M-55.23281940787244 21.177478043231478 C-55.65110103348838 20.686140644884247, -56.06938265910432 20.194803246537017, -56.54175419774293 19.639928758550113 M-56.54175419774293 19.639928758550113 C-56.98144329476224 19.050785425045024, -57.42113239178154 18.46164209153994, -57.7494885198041 18.021674793848355 M-56.54175419774293 19.639928758550113 C-56.973101654487415 19.06196246307422, -57.404449111231905 18.483996167598324, -57.7494885198041 18.021674793848355 M-57.7494885198041 18.021674793848355 C-58.171213971492975 17.373791250914092, -58.59293942318185 16.725907707979825, -58.851059534668394 16.329365901781557 M-57.7494885198041 18.021674793848355 C-58.06725329230103 17.53350277150408, -58.38501806479796 17.045330749159806, -58.851059534668394 16.329365901781557 M-58.851059534668394 16.329365901781557 C-59.19081146412818 15.726101947412243, -59.530563393587975 15.12283799304293, -59.8419406507495 14.569956142586314 M-58.851059534668394 16.329365901781557 C-59.203104189358555 15.704274968992308, -59.555148844048716 15.07918403620306, -59.8419406507495 14.569956142586314 M-59.8419406507495 14.569956142586314 C-60.08906362311802 14.056800002878527, -60.336186595486545 13.54364386317074, -60.71806012499809 12.750675308355417 M-59.8419406507495 14.569956142586314 C-60.03354151697528 14.172092844266686, -60.22514238320106 13.774229545947057, -60.71806012499809 12.750675308355417 M-60.71806012499809 12.750675308355417 C-60.91946911206611 12.25319121631955, -61.120878099134124 11.755707124283685, -61.47581779456745 10.878999214271209 M-60.71806012499809 12.750675308355417 C-60.900390122456976 12.300316689521276, -61.08272011991586 11.849958070687137, -61.47581779456745 10.878999214271209 M-61.47581779456745 10.878999214271209 C-61.71236887660424 10.16654504447302, -61.94891995864102 9.454090874674831, -62.11209987065481 8.962618978877522 M-61.47581779456745 10.878999214271209 C-61.65629999520588 10.335415581881788, -61.836782195844314 9.791831949492366, -62.11209987065481 8.962618978877522 M-62.11209987065481 8.962618978877522 C-62.244388406996805 8.458145455591168, -62.37667694333879 7.9536719323048155, -62.62429173372744 7.009409419623911 M-62.11209987065481 8.962618978877522 C-62.28287038864719 8.311396981361893, -62.45364090663957 7.660174983846264, -62.62429173372744 7.009409419623911 M-62.62429173372744 7.009409419623911 C-62.767801336852074 6.272517938344302, -62.9113109399767 5.535626457064693, -63.01028867755518 5.027396693551461 M-62.62429173372744 7.009409419623911 C-62.76579069747475 6.282842146598069, -62.90728966122206 5.556274873572227, -63.01028867755518 5.027396693551461 M-63.01028867755518 5.027396693551461 C-63.08239832577877 4.46812850158997, -63.15450797400236 3.908860309628479, -63.268504557899746 3.024725316091999 M-63.01028867755518 5.027396693551461 C-63.071366117593804 4.553692129716662, -63.13244355763242 4.079987565881863, -63.268504557899746 3.024725316091999 M-63.268504557899746 3.024725316091999 C-63.29694787221364 2.5816977366230063, -63.32539118652754 2.138670157154014, -63.39787831032167 1.0096246935071416 M-63.268504557899746 3.024725316091999 C-63.315357127220004 2.294958730215754, -63.362209696540255 1.5651921443395094, -63.39787831032167 1.0096246935071416 M-63.39787831032167 1.0096246935071416 C-63.39787831032167 0.43384073647722643, -63.39787831032167 -0.1419432205526887, -63.39787831032167 -1.0096246935071262 M-63.39787831032167 1.0096246935071416 C-63.39787831032167 0.45090410756934196, -63.39787831032167 -0.10781647836845765, -63.39787831032167 -1.0096246935071262 M-63.39787831032167 -1.0096246935071262 C-63.35982628640804 -1.6023156810029087, -63.321774262494394 -2.1950066684986913, -63.268504557899746 -3.024725316091956 M-63.39787831032167 -1.0096246935071262 C-63.3531137045286 -1.7068695620735999, -63.30834909873553 -2.4041144306400737, -63.268504557899746 -3.024725316091956 M-63.268504557899746 -3.024725316091956 C-63.19680271413596 -3.5808306571932915, -63.12510087037219 -4.136935998294628, -63.01028867755518 -5.027396693551446 M-63.268504557899746 -3.024725316091956 C-63.1682480361529 -3.8022951008709653, -63.06799151440606 -4.579864885649974, -63.01028867755518 -5.027396693551446 M-63.01028867755518 -5.027396693551446 C-62.890078634221034 -5.644649859670632, -62.76986859088689 -6.2619030257898185, -62.624291733727446 -7.009409419623896 M-63.01028867755518 -5.027396693551446 C-62.91658756868346 -5.508532083871348, -62.82288645981174 -5.989667474191249, -62.624291733727446 -7.009409419623896 M-62.624291733727446 -7.009409419623896 C-62.427099559074044 -7.76138864520643, -62.22990738442064 -8.513367870788963, -62.112099870654816 -8.962618978877506 M-62.624291733727446 -7.009409419623896 C-62.44007673009419 -7.711901067765127, -62.25586172646093 -8.414392715906358, -62.112099870654816 -8.962618978877506 M-62.112099870654816 -8.962618978877506 C-61.97999333437255 -9.36050281784154, -61.84788679809029 -9.758386656805575, -61.47581779456746 -10.878999214271168 M-62.112099870654816 -8.962618978877506 C-61.95768268773709 -9.42769893078875, -61.80326550481937 -9.892778882699995, -61.47581779456746 -10.878999214271168 M-61.47581779456746 -10.878999214271168 C-61.306685228705476 -11.296759921905974, -61.1375526628435 -11.714520629540777, -60.71806012499809 -12.750675308355401 M-61.47581779456746 -10.878999214271168 C-61.2637375489403 -11.402841521262873, -61.05165730331313 -11.926683828254578, -60.71806012499809 -12.750675308355401 M-60.71806012499809 -12.750675308355401 C-60.434202847778266 -13.340111018075131, -60.15034557055844 -13.929546727794863, -59.84194065074951 -14.5699561425863 M-60.71806012499809 -12.750675308355401 C-60.401419096577214 -13.40818717890402, -60.08477806815634 -14.06569904945264, -59.84194065074951 -14.5699561425863 M-59.84194065074951 -14.5699561425863 C-59.60761334075525 -14.986028009694234, -59.373286030761 -15.402099876802168, -58.8510595346684 -16.329365901781546 M-59.84194065074951 -14.5699561425863 C-59.52400595909724 -15.134481381993476, -59.20607126744496 -15.699006621400654, -58.8510595346684 -16.329365901781546 M-58.8510595346684 -16.329365901781546 C-58.54143407600524 -16.80503375236536, -58.23180861734208 -17.280701602949176, -57.74948851980411 -18.021674793848344 M-58.8510595346684 -16.329365901781546 C-58.53949599564353 -16.8080111642484, -58.22793245661865 -17.286656426715247, -57.74948851980411 -18.021674793848344 M-57.74948851980411 -18.021674793848344 C-57.304700785890795 -18.61764983629603, -56.859913051977486 -19.21362487874372, -56.54175419774295 -19.639928758550102 M-57.74948851980411 -18.021674793848344 C-57.35995326203566 -18.54361655186604, -56.97041800426721 -19.065558309883738, -56.54175419774295 -19.639928758550102 M-56.54175419774295 -19.639928758550102 C-56.11097179836873 -20.145950277067982, -55.680189398994514 -20.65197179558586, -55.232819407872455 -21.177478043231467 M-56.54175419774295 -19.639928758550102 C-56.02373954797209 -20.248418242039534, -55.50572489820124 -20.856907725528966, -55.232819407872455 -21.177478043231467 M-55.232819407872455 -21.177478043231467 C-54.763975608608426 -21.661597758763364, -54.2951318093444 -22.145717474295257, -53.828062844009835 -22.628004528078403 M-55.232819407872455 -21.177478043231467 C-54.74211848671444 -21.684167031621982, -54.25141756555643 -22.190856020012497, -53.828062844009835 -22.628004528078403 M-53.828062844009835 -22.628004528078403 C-53.48984732278331 -22.93516291576401, -53.15163180155679 -23.24232130344962, -52.333256952195356 -23.98554768862771 M-53.828062844009835 -22.628004528078403 C-53.29347955633658 -23.11349892564455, -52.75889626866332 -23.598993323210692, -52.333256952195356 -23.98554768862771 M-52.333256952195356 -23.98554768862771 C-52.00337496164795 -24.248619797560828, -51.673492971100536 -24.511691906493944, -50.75454421047331 -25.244529088840626 M-52.333256952195356 -23.98554768862771 C-51.730715248348396 -24.466058663137527, -51.12817354450143 -24.946569637647347, -50.75454421047331 -25.244529088840626 M-50.75454421047331 -25.244529088840626 C-50.130238440096555 -25.68001776849423, -49.5059326697198 -26.115506448147837, -49.098411888132304 -26.39977530409297 M-50.75454421047331 -25.244529088840626 C-50.42263728208863 -25.476052994062425, -50.09073035370394 -25.707576899284227, -49.098411888132304 -26.39977530409297 M-49.098411888132304 -26.39977530409297 C-48.55406977684469 -26.72975869086484, -48.00972766555708 -27.05974207763671, -47.37166538812404 -27.446539179886763 M-49.098411888132304 -26.39977530409297 C-48.414355379223274 -26.81445437975588, -47.73029887031424 -27.229133455418786, -47.37166538812404 -27.446539179886763 M-47.37166538812404 -27.446539179886763 C-47.01251692881332 -27.633906701063598, -46.6533684695026 -27.821274222240437, -45.58140028220309 -28.3805193389262 M-47.37166538812404 -27.446539179886763 C-46.69223886812562 -27.800995560176485, -46.01281234812719 -28.15545194046621, -45.58140028220309 -28.3805193389262 M-45.58140028220309 -28.3805193389262 C-44.8450331611793 -28.70648721984889, -44.108666040155505 -29.03245510077158, -43.7349731537003 -29.19787785639968 M-45.58140028220309 -28.3805193389262 C-45.01964966907323 -28.62918967161891, -44.45789905594338 -28.877860004311625, -43.7349731537003 -29.19787785639968 M-43.7349731537003 -29.19787785639968 C-43.00308807369828 -29.467218331311937, -42.271202993696264 -29.7365588062242, -41.83997136774408 -29.895256030836055 M-43.7349731537003 -29.19787785639968 C-43.16331390789943 -29.40825374321454, -42.59165466209856 -29.6186296300294, -41.83997136774408 -29.895256030836055 M-41.83997136774408 -29.895256030836055 C-41.101415978397746 -30.114455393637698, -40.36286058905142 -30.333654756439337, -39.90418189314951 -30.469788185729417 M-41.83997136774408 -29.895256030836055 C-41.13649842434348 -30.10404310783252, -40.43302548094288 -30.312830184828986, -39.90418189314951 -30.469788185729417 M-39.90418189314951 -30.469788185729417 C-39.17733739636084 -30.635685699017824, -38.45049289957217 -30.80158321230623, -37.93555930409324 -30.919113445218553 M-39.90418189314951 -30.469788185729417 C-39.34895738840012 -30.596514555759967, -38.79373288365073 -30.72324092579052, -37.93555930409324 -30.919113445218553 M-37.93555930409324 -30.919113445218553 C-37.16431354045659 -31.043802479183103, -36.39306777681994 -31.168491513147654, -35.94219309306196 -31.24138543543225 M-37.93555930409324 -30.919113445218553 C-37.17963860093447 -31.04132484225266, -36.4237178977757 -31.163536239286763, -35.94219309306196 -31.24138543543225 M-35.94219309306196 -31.24138543543225 C-35.167370115882854 -31.31613167617975, -34.39254713870375 -31.390877916927256, -33.93227442939246 -31.435279871635593 M-35.94219309306196 -31.24138543543225 C-35.25035276456321 -31.308126439862793, -34.55851243606446 -31.37486744429334, -33.93227442939246 -31.435279871635593 M-33.93227442939246 -31.435279871635593 C-33.51116527975487 -31.448784022425237, -33.09005613011728 -31.46228817321488, -31.91406250000001 -31.5 M-33.93227442939246 -31.435279871635593 C-33.30470617805709 -31.45540476396842, -32.67713792672172 -31.475529656301248, -31.91406250000001 -31.5 M-31.91406250000001 -31.5 C-31.914062500000007 -31.5, -31.914062500000004 -31.5, -31.9140625 -31.5 M-31.91406250000001 -31.5 C-31.914062500000007 -31.5, -31.914062500000004 -31.5, -31.9140625 -31.5" stroke="#888" stroke-width="1.3" fill="none" stroke-dasharray="5 5" style="fill:#fafafa !important;stroke:#888 !important;stroke-dasharray:5 5 !important"/></g><g class="label" style="color:#666 !important" transform="translate(-48.0390625, -24)"><rect/><foreignObject width="96.078125" height="48"><div style="color: rgb(102, 102, 102) !important; display: table-cell; white-space: nowrap; line-height: 1.5; max-width: 200px; text-align: center;" xmlns="http://www.w3.org/1999/xhtml"><span style="color:#666 !important" class="nodeLabel"><p>Cloud Logger<br /><i>optional</i></p></span></div></foreignObject></g></g><g class="node default system" id="my-svg-flowchart-sys_root-5" data-look="classic" transform="translate(444.703125, 199.2734375)"><circle class="basic label-container" style="fill:#4a90e2 !important;stroke:#2a70c2 !important" r="67.046875" cx="0" cy="0"/><g class="label" style="color:#fff !important;font-weight:bold !important" transform="translate(-59.546875, -12)"><rect/><foreignObject width="119.09375" height="24"><div style="color: rgb(255, 255, 255) !important; font-weight: bold !important; display: table-cell; white-space: nowrap; line-height: 1.5; max-width: 200px; text-align: center;" xmlns="http://www.w3.org/1999/xhtml"><span style="color:#fff !important;font-weight:bold !important" class="nodeLabel"><p>AutoFishingRig</p></span></div></foreignObject></g></g></g></g></g><defs><filter id="my-svg-drop-shadow" height="130%" width="130%"><feDropShadow dx="4" dy="4" stdDeviation="0" flood-opacity="0.06" flood-color="#000000"/></filter></defs><defs><filter id="my-svg-drop-shadow-small" height="150%" width="150%"><feDropShadow dx="2" dy="2" stdDeviation="0" flood-opacity="0.06" flood-color="#000000"/></filter></defs></svg>