<svg id="my-svg" width="100%" xmlns="http://www.w3.org/2000/svg" xmlns:xlink="http://www.w3.org/1999/xlink" class="flowchart" style="max-width: 1179.02px; background-color: white;" viewBox="0 30.615978240966797 1179.015625 374.981689453125" role="graphics-document document" aria-roledescription="flowchart-v2"><style>#my-svg{font-family:"trebuchet ms",verdana,arial,sans-serif;font-size:16px;fill:#333;}@keyframes edge-animation-frame{from{stroke-dashoffset:0;}}@keyframes dash{to{stroke-dashoffset:0;}}#my-svg .edge-animation-slow{stroke-dasharray:9,5!important;stroke-dashoffset:900;animation:dash 50s linear infinite;stroke-linecap:round;}#my-svg .edge-animation-fast{stroke-dasharray:9,5!important;stroke-dashoffset:900;animation:dash 20s linear infinite;stroke-linecap:round;}#my-svg .error-icon{fill:#552222;}#my-svg .error-text{fill:#552222;stroke:#552222;}#my-svg .edge-thickness-normal{stroke-width:1px;}#my-svg .edge-thickness-thick{stroke-width:3.5px;}#my-svg .edge-pattern-solid{stroke-dasharray:0;}#my-svg .edge-thickness-invisible{stroke-width:0;fill:none;}#my-svg .edge-pattern-dashed{stroke-dasharray:3;}#my-svg .edge-pattern-dotted{stroke-dasharray:2;}#my-svg .marker{fill:#333333;stroke:#333333;}#my-svg .marker.cross{stroke:#333333;}#my-svg svg{font-family:"trebuchet ms",verdana,arial,sans-serif;font-size:16px;}#my-svg p{margin:0;}#my-svg .label{font-family:"trebuchet ms",verdana,arial,sans-serif;color:#333;}#my-svg .cluster-label text{fill:#333;}#my-svg .cluster-label span{color:#333;}#my-svg .cluster-label span p{background-color:transparent;}#my-svg .label text,#my-svg span{fill:#333;color:#333;}#my-svg .node rect,#my-svg .node circle,#my-svg .node ellipse,#my-svg .node polygon,#my-svg .node path{fill:#ECECFF;stroke:#9370DB;stroke-width:1px;}#my-svg .rough-node .label text,#my-svg .node .label text,#my-svg .image-shape .label,#my-svg .icon-shape .label{text-anchor:middle;}#my-svg .node .katex path{fill:#000;stroke:#000;stroke-width:1px;}#my-svg .rough-node .label,#my-svg .node .label,#my-svg .image-shape .label,#my-svg .icon-shape .label{text-align:center;}#my-svg .node.clickable{cursor:pointer;}#my-svg .root .anchor path{fill:#333333!important;stroke-width:0;stroke:#333333;}#my-svg .arrowheadPath{fill:#333333;}#my-svg .edgePath .path{stroke:#333333;stroke-width:1px;}#my-svg .flowchart-link{stroke:#333333;fill:none;}#my-svg .edgeLabel{background-color:rgba(232,232,232, 0.8);text-align:center;}#my-svg .edgeLabel p{background-color:rgba(232,232,232, 0.8);}#my-svg .edgeLabel rect{opacity:0.5;background-color:rgba(232,232,232, 0.8);fill:rgba(232,232,232, 0.8);}#my-svg .labelBkg{background-color:rgba(232, 232, 232, 0.5);}#my-svg .cluster rect{fill:#ffffde;stroke:#aaaa33;stroke-width:1px;}#my-svg .cluster text{fill:#333;}#my-svg .cluster span{color:#333;}#my-svg div.mermaidTooltip{position:absolute;text-align:center;max-width:200px;padding:2px;font-family:"trebuchet ms",verdana,arial,sans-serif;font-size:12px;background:hsl(80, 100%, 96.2745098039%);border:1px solid #aaaa33;border-radius:2px;pointer-events:none;z-index:100;}#my-svg .flowchartTitleText{text-anchor:middle;font-size:18px;fill:#333;}#my-svg rect.text{fill:none;stroke-width:0;}#my-svg .icon-shape,#my-svg .image-shape{background-color:rgba(232,232,232, 0.8);text-align:center;}#my-svg .icon-shape p,#my-svg .image-shape p{background-color:rgba(232,232,232, 0.8);padding:2px;}#my-svg .icon-shape .label rect,#my-svg .image-shape .label rect{opacity:0.5;background-color:rgba(232,232,232, 0.8);fill:rgba(232,232,232, 0.8);}#my-svg .label-icon{display:inline-block;height:1em;overflow:visible;vertical-align:-0.125em;}#my-svg .node .label-icon path{fill:currentColor;stroke:revert;stroke-width:revert;}#my-svg .node .neo-node{stroke:#9370DB;}#my-svg [data-look="neo"].node rect,#my-svg [data-look="neo"].cluster rect,#my-svg [data-look="neo"].node polygon{stroke:#9370DB;filter:drop-shadow(1px 2px 2px rgba(185, 185, 185, 1));}#my-svg [data-look="neo"].node path{stroke:#9370DB;stroke-width:1px;}#my-svg [data-look="neo"].node .outer-path{filter:drop-shadow(1px 2px 2px rgba(185, 185, 185, 1));}#my-svg [data-look="neo"].node .neo-line path{stroke:#9370DB;filter:none;}#my-svg [data-look="neo"].node circle{stroke:#9370DB;filter:drop-shadow(1px 2px 2px rgba(185, 185, 185, 1));}#my-svg [data-look="neo"].node circle .state-start{fill:#000000;}#my-svg [data-look="neo"].icon-shape .icon{fill:#9370DB;filter:drop-shadow(1px 2px 2px rgba(185, 185, 185, 1));}#my-svg [data-look="neo"].icon-shape .icon-neo path{stroke:#9370DB;filter:drop-shadow(1px 2px 2px rgba(185, 185, 185, 1));}#my-svg :root{--mermaid-font-family:"trebuchet ms",verdana,arial,sans-serif;}#my-svg .system&gt;*{fill:rgb(74, 144, 226)!important;stroke:rgb(42, 112, 194)!important;color:rgb(255, 255, 255)!important;font-weight:bold!important;}#my-svg .system span{fill:rgb(74, 144, 226)!important;stroke:rgb(42, 112, 194)!important;color:rgb(255, 255, 255)!important;font-weight:bold!important;}#my-svg .system tspan{fill:rgb(255, 255, 255)!important;}#my-svg .terminator&gt;*{fill:rgb(250, 250, 250)!important;stroke:rgb(68, 68, 68)!important;}#my-svg .terminator span{fill:rgb(250, 250, 250)!important;stroke:rgb(68, 68, 68)!important;}#my-svg .optional&gt;*{fill:rgb(250, 250, 250)!important;stroke:rgb(136, 136, 136)!important;stroke-dasharray:5,5!important;color:rgb(102, 102, 102)!important;}#my-svg .optional span{fill:rgb(250, 250, 250)!important;stroke:rgb(136, 136, 136)!important;stroke-dasharray:5,5!important;color:rgb(102, 102, 102)!important;}#my-svg .optional tspan{fill:rgb(102, 102, 102)!important;}#my-svg .grid&gt;*{fill:rgb(254, 240, 239)!important;stroke:rgb(231, 76, 60)!important;}#my-svg .grid span{fill:rgb(254, 240, 239)!important;stroke:rgb(231, 76, 60)!important;}</style><g><marker id="my-svg_flowchart-v2-pointEnd" class="marker flowchart-v2" viewBox="0 0 10 10" refX="5" refY="5" markerUnits="userSpaceOnUse" markerWidth="8" markerHeight="8" orient="auto"><path d="M 0 0 L 10 5 L 0 10 z" class="arrowMarkerPath" style="stroke-width: 1; stroke-dasharray: 1, 0;"/></marker><marker id="my-svg_flowchart-v2-pointStart" class="marker flowchart-v2" viewBox="0 0 10 10" refX="4.5" refY="5" markerUnits="userSpaceOnUse" markerWidth="8" markerHeight="8" orient="auto"><path d="M 0 5 L 10 10 L 10 0 z" class="arrowMarkerPath" style="stroke-width: 1; stroke-dasharray: 1, 0;"/></marker><marker id="my-svg_flowchart-v2-pointEnd-margin" class="marker flowchart-v2" viewBox="0 0 11.5 14" refX="11.5" refY="7" markerUnits="userSpaceOnUse" markerWidth="10.5" markerHeight="14" orient="auto"><path d="M 0 0 L 11.5 7 L 0 14 z" class="arrowMarkerPath" style="stroke-width: 0; stroke-dasharray: 1, 0;"/></marker><marker id="my-svg_flowchart-v2-pointStart-margin" class="marker flowchart-v2" viewBox="0 0 11.5 14" refX="1" refY="7" markerUnits="userSpaceOnUse" markerWidth="11.5" markerHeight="14" orient="auto"><polygon points="0,7 11.5,14 11.5,0" class="arrowMarkerPath" style="stroke-width: 0; stroke-dasharray: 1, 0;"/></marker><marker id="my-svg_flowchart-v2-circleEnd" class="marker flowchart-v2" viewBox="0 0 10 10" refX="11" refY="5" markerUnits="userSpaceOnUse" markerWidth="11" markerHeight="11" orient="auto"><circle cx="5" cy="5" r="5" class="arrowMarkerPath" style="stroke-width: 1; stroke-dasharray: 1, 0;"/></marker><marker id="my-svg_flowchart-v2-circleStart" class="marker flowchart-v2" viewBox="0 0 10 10" refX="-1" refY="5" markerUnits="userSpaceOnUse" markerWidth="11" markerHeight="11" orient="auto"><circle cx="5" cy="5" r="5" class="arrowMarkerPath" style="stroke-width: 1; stroke-dasharray: 1, 0;"/></marker><marker id="my-svg_flowchart-v2-circleEnd-margin" class="marker flowchart-v2" viewBox="0 0 10 10" refY="5" refX="12.25" markerUnits="userSpaceOnUse" markerWidth="14" markerHeight="14" orient="auto"><circle cx="5" cy="5" r="5" class="arrowMarkerPath" style="stroke-width: 0; stroke-dasharray: 1, 0;"/></marker><marker id="my-svg_flowchart-v2-circleStart-margin" class="marker flowchart-v2" viewBox="0 0 10 10" refX="-2" refY="5" markerUnits="userSpaceOnUse" markerWidth="14" markerHeight="14" orient="auto"><circle cx="5" cy="5" r="5" class="arrowMarkerPath" style="stroke-width: 0; stroke-dasharray: 1, 0;"/></marker><marker id="my-svg_flowchart-v2-crossEnd" class="marker cross flowchart-v2" viewBox="0 0 11 11" refX="12" refY="5.2" markerUnits="userSpaceOnUse" markerWidth="11" markerHeight="11" orient="auto"><path d="M 1,1 l 9,9 M 10,1 l -9,9" class="arrowMarkerPath" style="stroke-width: 2; stroke-dasharray: 1, 0;"/></marker><marker id="my-svg_flowchart-v2-crossStart" class="marker cross flowchart-v2" viewBox="0 0 11 11" refX="-1" refY="5.2" markerUnits="userSpaceOnUse" markerWidth="11" markerHeight="11" orient="auto"><path d="M 1,1 l 9,9 M 10,1 l -9,9" class="arrowMarkerPath" style="stroke-width: 2; stroke-dasharray: 1, 0;"/></marker><marker id="my-svg_flowchart-v2-crossEnd-margin" class="marker cross flowchart-v2" viewBox="0 0 15 15" refX="17.7" refY="7.5" markerUnits="userSpaceOnUse" markerWidth="12" markerHeight="12" orient="auto"><path d="M 1,1 L 14,14 M 1,14 L 14,1" class="arrowMarkerPath" style="stroke-width: 2.5;"/></marker><marker id="my-svg_flowchart-v2-crossStart-margin" class="marker cross flowchart-v2" viewBox="0 0 15 15" refX="-3.5" refY="7.5" markerUnits="userSpaceOnUse" markerWidth="12" markerHeight="12" orient="auto"><path d="M 1,1 L 14,14 M 1,14 L 14,1" class="arrowMarkerPath" style="stroke-width: 2.5; stroke-dasharray: 1, 0;"/></marker><g class="root"><g class="clusters"/><g class="edgePaths"><path d="M354.813,187.25L377.008,179.042C399.203,170.833,443.594,154.417,485.973,156.796C528.353,159.175,568.721,180.35,588.905,190.937L609.089,201.525" id="my-svg-L_term_inverters_sys_root_0" class="edge-thickness-normal edge-pattern-solid edge-thickness-normal edge-pattern-solid flowchart-link" style=";" data-edge="true" data-et="edge" data-id="L_term_inverters_sys_root_0" data-points="W3sieCI6MzU0LjgxMjU3Njg0NDI2MjMsInkiOjE4Ny4yNX0seyJ4Ijo0ODcuOTg0Mzc1LCJ5IjoxMzh9LHsieCI6NjEyLjYzMTIyMDQ4MDIwOCwieSI6MjAzLjM4MjY4MDQyOTI5NjA0fV0=" data-look="classic" marker-end="url(#my-svg_flowchart-v2-pointEnd)"/><path d="M608.988,264.225L588.82,271.896C568.653,279.567,528.319,294.908,484.057,291.361C439.796,287.813,391.607,265.376,367.513,254.157L343.419,242.938" id="my-svg-L_sys_root_term_inverters_0" class="edge-thickness-normal edge-pattern-solid edge-thickness-normal edge-pattern-solid flowchart-link" style=";" data-edge="true" data-et="edge" data-id="L_sys_root_term_inverters_0" data-points="W3sieCI6NjA4Ljk4NzY5Nzg5NDM3OTYsInkiOjI2NC4yMjUwMzQwNjgzOTA2fSx7IngiOjQ4Ny45ODQzNzUsInkiOjMxMC4yNX0seyJ4IjozMzkuNzkyNzI0NjA5Mzc1LCJ5IjoyNDEuMjV9XQ==" data-look="classic" marker-end="url(#my-svg_flowchart-v2-pointEnd)"/><path d="M371.828,295.545L391.188,290.663C410.547,285.78,449.266,276.015,487.46,268.322C525.655,260.629,563.326,255.008,582.161,252.198L600.997,249.387" id="my-svg-L_term_meter_sys_root_0" class="edge-thickness-normal edge-pattern-solid edge-thickness-normal edge-pattern-solid flowchart-link" style=";" data-edge="true" data-et="edge" data-id="L_term_meter_sys_root_0" data-points="W3sieCI6MzcxLjgyODEyNSwieSI6Mjk1LjU0NTQ0MTYyNzgyNzY0fSx7IngiOjQ4Ny45ODQzNzUsInkiOjI2Ni4yNX0seyJ4Ijo2MDQuOTUzMDEyNDExMjI0OCwieSI6MjQ4Ljc5NzExNzUzMjk5NzgyfV0=" data-look="classic" marker-end="url(#my-svg_flowchart-v2-pointEnd)"/><path d="M1002.531,91.981L981.698,97.417C960.865,102.853,919.198,113.726,876.495,131.595C833.792,149.465,790.052,174.333,768.183,186.766L746.313,199.2" id="my-svg-L_term_battery_system_sys_root_0" class="edge-thickness-normal edge-pattern-solid edge-thickness-normal edge-pattern-solid flowchart-link" style=";" data-edge="true" data-et="edge" data-id="L_term_battery_system_sys_root_0" data-points="W3sieCI6MTAwMi41MzEyNSwieSI6OTEuOTgxMzUxMTMxMDgxMjh9LHsieCI6ODc3LjUzMTI1LCJ5IjoxMjQuNTk3NjU2MjV9LHsieCI6NzQyLjgzNTY4MzA2NDc1NiwieSI6MjAxLjE3NzEzMzc2ODY2MDl9XQ==" data-look="classic" marker-end="url(#my-svg_flowchart-v2-pointEnd)"/><path d="M729.931,184.529L754.531,159.108C779.131,133.686,828.331,82.843,873.109,61.086C917.886,39.329,958.241,46.657,978.418,50.322L998.596,53.986" id="my-svg-L_sys_root_term_battery_system_0" class="edge-thickness-normal edge-pattern-solid edge-thickness-normal edge-pattern-solid flowchart-link" style=";" data-edge="true" data-et="edge" data-id="L_sys_root_term_battery_system_0" data-points="W3sieCI6NzI5LjkzMTMyOTYxMDQ2LCJ5IjoxODQuNTI5MTc5OTk3MDExMTd9LHsieCI6ODc3LjUzMTI1LCJ5IjozMn0seyJ4IjoxMDAyLjUzMTI1LCJ5Ijo1NC43MDA5NjcwMzEzMjU4NDV9XQ==" data-look="classic" marker-end="url(#my-svg_flowchart-v2-pointEnd)"/><path d="M1033.211,264.317L1007.264,267.572C981.318,270.827,929.424,277.338,882.977,275.858C836.53,274.379,795.528,264.911,775.027,260.176L754.526,255.442" id="my-svg-L_term_user_sys_root_0" class="edge-thickness-normal edge-pattern-solid edge-thickness-normal edge-pattern-solid flowchart-link" style=";" data-edge="true" data-et="edge" data-id="L_term_user_sys_root_0" data-points="W3sieCI6MTAzMy4yMTA5Mzc1LCJ5IjoyNjQuMzE3MjE3MTY1NTA2MX0seyJ4Ijo4NzcuNTMxMjUsInkiOjI4My44NDc2NTYyNX0seyJ4Ijo3NTAuNjI4NjYzMjM1MjUxOCwieSI6MjU0LjU0MjE1MjQzMTA4NjUyfV0=" data-look="classic" marker-end="url(#my-svg_flowchart-v2-pointEnd)"/><path d="M752.527,237.01L773.361,236.774C794.195,236.539,835.863,236.068,881.981,238.491C928.098,240.914,978.666,246.231,1003.949,248.889L1029.233,251.548" id="my-svg-L_sys_root_term_user_0" class="edge-thickness-normal edge-pattern-solid edge-thickness-normal edge-pattern-solid flowchart-link" style=";" data-edge="true" data-et="edge" data-id="L_sys_root_term_user_0" data-points="W3sieCI6NzUyLjUyNjUxNzI3MDA0MywieSI6MjM3LjAwOTY0MDUyMzY4ODE4fSx7IngiOjg3Ny41MzEyNSwieSI6MjM1LjU5NzY1NjI1fSx7IngiOjEwMzMuMjEwOTM3NSwieSI6MjUxLjk2NjAyNDI0NDYyMzQ0fV0=" data-look="classic" marker-end="url(#my-svg_flowchart-v2-pointEnd)"/><path d="M740.72,278.013L763.521,292.694C786.323,307.374,831.927,336.736,878.16,351.498C924.393,366.26,971.256,366.422,994.687,366.503L1018.118,366.584" id="my-svg-L_sys_root_term_smiles_cloud_0" class="edge-thickness-normal edge-pattern-dotted edge-thickness-normal edge-pattern-solid flowchart-link" style=";" data-edge="true" data-et="edge" data-id="L_sys_root_term_smiles_cloud_0" data-points="W3sieCI6NzQwLjcxOTUxOTI0NDE3MzIsInkiOjI3OC4wMTI3Mjk3MDYxODQ4N30seyJ4Ijo4NzcuNTMxMjUsInkiOjM2Ni4wOTc2NTYyNX0seyJ4IjoxMDIyLjExNzc0NDQ0NTc3MjcsInkiOjM2Ni41OTc2NTYyNX1d" data-look="classic" marker-end="url(#my-svg_flowchart-v2-pointEnd)"/><path d="M103.876,155.652L114.36,165.419C124.844,175.185,145.813,194.717,161.797,204.484C177.781,214.25,188.781,214.25,194.281,214.25L199.781,214.25" id="my-svg-L_term_grid_term_inverters_0" class="edge-thickness-normal edge-pattern-solid edge-thickness-normal edge-pattern-solid flowchart-link" style=";" data-edge="true" data-et="edge" data-id="L_term_grid_term_inverters_0" data-points="W3sieCI6MTAzLjg3NTYxMTA4MTMyMTYsInkiOjE1NS42NTIzNDM3NX0seyJ4IjoxNjYuNzgxMjUsInkiOjIxNC4yNX0seyJ4IjoxOTkuNzgxMjUsInkiOjIxNC4yNX1d" data-look="classic"/><path d="M122.012,101.652L129.473,97.377C136.935,93.102,151.858,84.551,178.49,80.275C205.122,76,243.464,76,296.997,76C350.531,76,419.258,76,485.346,76C551.435,76,614.885,76,679.81,76C744.734,76,811.133,76,865.165,75.403C919.198,74.805,960.865,73.61,981.698,73.013L1002.531,72.416" id="my-svg-L_term_grid_term_battery_system_0" class="edge-thickness-normal edge-pattern-solid edge-thickness-normal edge-pattern-solid flowchart-link" style=";" data-edge="true" data-et="edge" data-id="L_term_grid_term_battery_system_0" data-points="W3sieCI6MTIyLjAxMTkyNDc5OTY4ODQsInkiOjEwMS42NTIzNDM3NX0seyJ4IjoxNjYuNzgxMjUsInkiOjc2fSx7IngiOjI4MS44MDQ2ODc1LCJ5Ijo3Nn0seyJ4Ijo0ODcuOTg0Mzc1LCJ5Ijo3Nn0seyJ4Ijo2NzguMzM1OTM3NSwieSI6NzZ9LHsieCI6ODc3LjUzMTI1LCJ5Ijo3Nn0seyJ4IjoxMDAyLjUzMTI1LCJ5Ijo3Mi40MTU2MzY3ODQ1Mjc0OX1d" data-look="classic"/></g><g class="edgeLabels"><g class="edgeLabel" transform="translate(487.40625, 138.2138)"><g class="label" data-id="L_term_inverters_sys_root_0" transform="translate(-91.15625, -12)"><foreignObject width="182.3125" height="24"><div xmlns="http://www.w3.org/1999/xhtml" class="labelBkg" style="display: table-cell; white-space: nowrap; line-height: 1.5; max-width: 200px; text-align: center;"><span class="edgeLabel"><p>F1: per-channel telemetry</p></span></div></foreignObject></g></g><g class="edgeLabel" transform="translate(472.56982, 303.07278)"><g class="label" data-id="L_sys_root_term_inverters_0" transform="translate(-86.6953125, -12)"><foreignObject width="173.390625" height="24"><div xmlns="http://www.w3.org/1999/xhtml" class="labelBkg" style="display: table-cell; white-space: nowrap; line-height: 1.5; max-width: 200px; text-align: center;"><span class="edgeLabel"><p>F2: power-limit setpoints</p></span></div></foreignObject></g></g><g class="edgeLabel" transform="translate(487.24259, 266.43708)"><g class="label" data-id="L_term_meter_sys_root_0" transform="translate(-90.7109375, -12)"><foreignObject width="181.421875" height="24"><div xmlns="http://www.w3.org/1999/xhtml" class="labelBkg" style="display: table-cell; white-space: nowrap; line-height: 1.5; max-width: 200px; text-align: center;"><span class="edgeLabel"><p>F3: net grid power, V/I/PF</p></span></div></foreignObject></g></g><g class="edgeLabel" transform="translate(866.33536, 130.96294)"><g class="label" data-id="L_term_battery_system_sys_root_0" transform="translate(-77.8125, -12)"><foreignObject width="155.625" height="24"><div xmlns="http://www.w3.org/1999/xhtml" class="labelBkg" style="display: table-cell; white-space: nowrap; line-height: 1.5; max-width: 200px; text-align: center;"><span class="edgeLabel"><p>F4: SoC, mode, AC-in</p></span></div></foreignObject></g></g><g class="edgeLabel" transform="translate(847.90468, 62.61598)"><g class="label" data-id="L_sys_root_term_battery_system_0" transform="translate(-100, -24)"><foreignObject width="200" height="48"><div xmlns="http://www.w3.org/1999/xhtml" class="labelBkg" style="display: table; white-space: break-spaces; line-height: 1.5; max-width: 200px; text-align: center; width: 200px;"><span class="edgeLabel"><p>F5: max-charge, grid setpoint</p></span></div></foreignObject></g></g><g class="edgeLabel" transform="translate(890.75638, 282.18853)"><g class="label" data-id="L_term_user_sys_root_0" transform="translate(-68.4765625, -12)"><foreignObject width="136.953125" height="24"><div xmlns="http://www.w3.org/1999/xhtml" class="labelBkg" style="display: table-cell; white-space: nowrap; line-height: 1.5; max-width: 200px; text-align: center;"><span class="edgeLabel"><p>F6: config, override</p></span></div></foreignObject></g></g><g class="edgeLabel" transform="translate(877.53125, 235.59765625)"><g class="label" data-id="L_sys_root_term_user_0" transform="translate(-79.6015625, -12)"><foreignObject width="159.203125" height="24"><div xmlns="http://www.w3.org/1999/xhtml" class="labelBkg" style="display: table-cell; white-space: nowrap; line-height: 1.5; max-width: 200px; text-align: center;"><span class="edgeLabel"><p>F7: dashboards, alerts</p></span></div></foreignObject></g></g><g class="edgeLabel" transform="translate(877.53125, 366.09765625)"><g class="label" data-id="L_sys_root_term_smiles_cloud_0" transform="translate(-100, -24)"><foreignObject width="200" height="48"><div xmlns="http://www.w3.org/1999/xhtml" class="labelBkg" style="display: table; white-space: break-spaces; line-height: 1.5; max-width: 200px; text-align: center; width: 200px;"><span class="edgeLabel"><p>F8: optional telemetry forward</p></span></div></foreignObject></g></g><g class="edgeLabel"><g class="label" data-id="L_term_grid_term_inverters_0" transform="translate(0, 0)"><foreignObject width="0" height="0"><div xmlns="http://www.w3.org/1999/xhtml" class="labelBkg" style="display: table-cell; white-space: nowrap; line-height: 1.5; max-width: 200px; text-align: center;"><span class="edgeLabel"></span></div></foreignObject></g></g><g class="edgeLabel"><g class="label" data-id="L_term_grid_term_battery_system_0" transform="translate(0, 0)"><foreignObject width="0" height="0"><div xmlns="http://www.w3.org/1999/xhtml" class="labelBkg" style="display: table-cell; white-space: nowrap; line-height: 1.5; max-width: 200px; text-align: center;"><span class="edgeLabel"></span></div></foreignObject></g></g></g><g class="nodes"><g class="node default terminator" id="my-svg-flowchart-term_inverters-0" data-look="classic" transform="translate(281.8046875, 214.25)"><rect class="basic label-container" style="fill:#fafafa !important;stroke:#444 !important" x="-82.0234375" y="-27" width="164.046875" height="54"/><g class="label" style="" transform="translate(-52.0234375, -12)"><rect/><foreignObject width="104.046875" height="24"><div xmlns="http://www.w3.org/1999/xhtml" style="display: table-cell; white-space: nowrap; line-height: 1.5; max-width: 200px; text-align: center;"><span class="nodeLabel"><p>Solar Inverters</p></span></div></foreignObject></g></g><g class="node default terminator" id="my-svg-flowchart-term_meter-1" data-look="classic" transform="translate(281.8046875, 318.25)"><rect class="basic label-container" style="fill:#fafafa !important;stroke:#444 !important" x="-90.0234375" y="-27" width="180.046875" height="54"/><g class="label" style="" transform="translate(-60.0234375, -12)"><rect/><foreignObject width="120.046875" height="24"><div xmlns="http://www.w3.org/1999/xhtml" style="display: table-cell; white-space: nowrap; line-height: 1.5; max-width: 200px; text-align: center;"><span class="nodeLabel"><p>Net Power Meter</p></span></div></foreignObject></g></g><g class="node default terminator" id="my-svg-flowchart-term_battery_system-2" data-look="classic" transform="translate(1086.7734375, 70)"><rect class="basic label-container" style="fill:#fafafa !important;stroke:#444 !important" x="-84.2421875" y="-27" width="168.484375" height="54"/><g class="label" style="" transform="translate(-54.2421875, -12)"><rect/><foreignObject width="108.484375" height="24"><div xmlns="http://www.w3.org/1999/xhtml" style="display: table-cell; white-space: nowrap; line-height: 1.5; max-width: 200px; text-align: center;"><span class="nodeLabel"><p>Battery System</p></span></div></foreignObject></g></g><g class="node default grid" id="my-svg-flowchart-term_grid-3" data-look="classic" transform="translate(74.890625, 128.65234375)"><rect class="basic label-container" style="fill:#fef0ef !important;stroke:#e74c3c !important" x="-66.890625" y="-27" width="133.78125" height="54"/><g class="label" style="" transform="translate(-36.890625, -12)"><rect/><foreignObject width="73.78125" height="24"><div xmlns="http://www.w3.org/1999/xhtml" style="display: table-cell; white-space: nowrap; line-height: 1.5; max-width: 200px; text-align: center;"><span class="nodeLabel"><p>Utility Grid</p></span></div></foreignObject></g></g><g class="node default terminator" id="my-svg-flowchart-term_user-4" data-look="classic" transform="translate(1086.7734375, 257.59765625)"><rect class="basic label-container" style="fill:#fafafa !important;stroke:#444 !important" x="-53.5625" y="-27" width="107.125" height="54"/><g class="label" style="" transform="translate(-23.5625, -12)"><rect/><foreignObject width="47.125" height="24"><div xmlns="http://www.w3.org/1999/xhtml" style="display: table-cell; white-space: nowrap; line-height: 1.5; max-width: 200px; text-align: center;"><span class="nodeLabel"><p>Owner</p></span></div></foreignObject></g></g><g class="node default optional" id="my-svg-flowchart-term_smiles_cloud-5" data-look="classic" transform="translate(1086.7734375, 366.09765625)"><g class="basic label-container outer-path"><path d="M-33.671875 -31.5 C-13.83220020943891 -31.5, 6.007474581122182 -31.5, 33.671875 -31.5 C33.671875 -31.5, 33.671875 -31.5, 33.671875 -31.5 C34.3298772625113 -31.47889914816497, 34.98787952502261 -31.457798296329937, 35.69008692939246 -31.435279871635593 C36.355523435391305 -31.371086012206373, 37.02095994139015 -31.306892152777152, 37.70000559306194 -31.241385435432253 C38.390503444398746 -31.12975109771893, 39.08100129573555 -31.01811676000561, 39.693371804093225 -30.91911344521856 C40.23149874350375 -30.796289482904566, 40.769625682914274 -30.673465520590568, 41.66199439314948 -30.469788185729428 C42.07200985113984 -30.348097750012947, 42.4820253091302 -30.226407314296463, 43.59778386774405 -29.895256030836062 C44.34634399526626 -29.619778984293923, 45.09490412278847 -29.344301937751784, 45.49278565370028 -29.197877856399685 C45.8751964696277 -29.028595932002425, 46.257607285555125 -28.85931400760516, 47.33921278220308 -28.380519338926202 C47.950231289078616 -28.061751375265267, 48.561249795954154 -27.742983411604335, 49.129477888124036 -27.44653917988677 C49.52197721339822 -27.208603782323493, 49.91447653867241 -26.97066838476022, 50.856224388132276 -26.399775304092984 C51.41067658223063 -26.013013455338616, 51.965128776328974 -25.626251606584248, 52.5123567104733 -25.244529088840633 C52.85486993321706 -24.97138390836213, 53.19738315596082 -24.69823872788363, 54.09106945219533 -23.985547688627737 C54.54252582753631 -23.575546953424194, 54.993982202877284 -23.16554621822065, 55.58587534400982 -22.62800452807842 C56.11287352827189 -22.083835635472244, 56.63987171253395 -21.53966674286607, 56.990631907872434 -21.177478043231485 C57.43900045232249 -20.650798838027526, 57.88736899677254 -20.12411963282357, 58.29956669774294 -19.63992875855011 C58.57295041591855 -19.27361948196388, 58.84633413409416 -18.907310205377648, 59.5073010198041 -18.02167479384835 C59.916803580186624 -17.39256889426653, 60.326306140569145 -16.763462994684712, 60.6088720346684 -16.329365901781543 C60.977617229605414 -15.674621468670935, 61.34636242454243 -15.019877035560329, 61.59975315074951 -14.56995614258631 C61.897455355897414 -13.951771143789918, 62.19515756104531 -13.333586144993525, 62.47587262499809 -12.750675308355413 C62.67055784277324 -12.269799056468166, 62.865243060548394 -11.788922804580917, 63.23363029456745 -10.878999214271206 C63.428521880200265 -10.292016810102426, 63.62341346583308 -9.705034405933647, 63.86991237065481 -8.962618978877531 C64.02988581471766 -8.35257090373663, 64.18985925878052 -7.74252282859573, 64.38210423372745 -7.009409419623907 C64.51497305233399 -6.327156117914058, 64.64784187094054 -5.644902816204208, 64.76810117755518 -5.027396693551458 C64.86663156765286 -4.2632144449800995, 64.96516195775054 -3.4990321964087423, 65.02631705789975 -3.024725316091981 C65.06423378164294 -2.4341417379633024, 65.10215050538612 -1.8435581598346233, 65.15569081032167 -1.0096246935071378 C65.15569081032167 -0.3321991094577561, 65.15569081032167 0.3452264745916256, 65.15569081032167 1.00962469350713 C65.12616012469151 1.4695889589372482, 65.09662943906136 1.929553224367366, 65.02631705789975 3.02472531609196 C64.97354403469573 3.434022462850106, 64.92077101149172 3.8433196096082516, 64.76810117755518 5.027396693551435 C64.63284882101232 5.721888958803376, 64.49759646446945 6.416381224055317, 64.38210423372745 7.0094094196239 C64.17922629620452 7.783070923253176, 63.97634835868158 8.556732426882451, 63.869912370654816 8.96261897887751 C63.71607671101112 9.425947475340527, 63.56224105136743 9.889275971803546, 63.233630294567455 10.878999214271184 C62.97774836908545 11.511032517352229, 62.72186644360343 12.143065820433273, 62.47587262499809 12.750675308355405 C62.24793413494275 13.2239944600577, 62.01999564488742 13.697313611759995, 61.59975315074951 14.569956142586303 C61.285093734587235 15.12866579870338, 60.970434318424964 15.687375454820458, 60.60887203466841 16.329365901781536 C60.212148475494885 16.938839823864033, 59.81542491632137 17.54831374594653, 59.50730101980412 18.021674793848334 C59.15969774384694 18.487431516321056, 58.812094467889764 18.95318823879378, 58.29956669774295 19.639928758550102 C57.854403027158945 20.162843336548512, 57.409239356574936 20.68575791454692, 56.99063190787245 21.177478043231467 C56.68428148838633 21.493810003188084, 56.37793106890022 21.8101419631447, 55.58587534400983 22.628004528078414 C55.199152478135225 22.979216002739403, 54.812429612260615 23.33042747740039, 54.091069452195356 23.985547688627715 C53.62014779721827 24.361095176720397, 53.1492261422412 24.736642664813083, 52.51235671047331 25.24452908884063 C51.870806570699926 25.692046694088603, 51.22925643092654 26.139564299336577, 50.8562243881323 26.399775304092973 C50.45420787014758 26.643480079806604, 50.052191352162865 26.887184855520236, 49.12947788812404 27.446539179886766 C48.636822756687 27.703557046396796, 48.14416762524996 27.96057491290683, 47.339212782203084 28.3805193389262 C46.947905188926406 28.553739602742453, 46.55659759564973 28.72695986655871, 45.492785653700295 29.197877856399682 C44.96850213733477 29.390819036845894, 44.44421862096923 29.58376021729211, 43.59778386774407 29.895256030836055 C42.95590337258702 30.085762792499196, 42.31402287742997 30.276269554162337, 41.66199439314951 30.46978818572942 C40.947334585057185 30.632904623335413, 40.23267477696485 30.796021060941403, 39.69337180409324 30.919113445218557 C39.23659674228634 30.992961294867985, 38.779821680479444 31.066809144517418, 37.70000559306196 31.24138543543225 C37.26491766531318 31.283357844552384, 36.82982973756439 31.32533025367252, 35.69008692939246 31.435279871635593 C34.942829579847036 31.45924296038732, 34.19557223030161 31.48320604913905, 33.67187500000001 31.5 C33.67187500000001 31.5, 33.671875 31.5, 33.671875 31.5 C11.806687922746054 31.5, -10.058499154507892 31.5, -33.67187499999999 31.5 C-34.319353533142696 31.479236623682624, -34.96683206628539 31.458473247365248, -35.69008692939244 31.435279871635593 C-36.490387722926414 31.358075816585895, -37.290688516460385 31.280871761536194, -37.700005593061945 31.24138543543225 C-38.409273232239705 31.12671654398268, -39.11854087141747 31.012047652533113, -39.693371804093225 30.919113445218557 C-40.43187601254557 30.750554678829644, -41.17038022099792 30.581995912440735, -41.66199439314947 30.469788185729428 C-42.242008889914565 30.29764292764777, -42.82202338667966 30.125497669566112, -43.597783867744035 29.89525603083607 C-44.31750674405839 29.63039135930705, -45.03722962037274 29.365526687778033, -45.49278565370029 29.197877856399685 C-45.996795390729844 28.974767696734343, -46.500805127759406 28.751657537068997, -47.33921278220308 28.380519338926206 C-47.803893625404946 28.138095640670073, -48.26857446860682 27.895671942413944, -49.12947788812403 27.446539179886773 C-49.535068162722226 27.200667971912328, -49.94065843732042 26.954796763937882, -50.85622438813226 26.399775304092994 C-51.22728778027042 26.140937544812765, -51.59835117240859 25.882099785532535, -52.5123567104733 25.244529088840636 C-53.04361615606919 24.820863818385494, -53.574875601665084 24.39719854793035, -54.09106945219533 23.98554768862774 C-54.409300499135625 23.696538671728664, -54.72753154607592 23.407529654829588, -55.58587534400981 22.628004528078435 C-55.9955488737783 22.20498297377015, -56.405222403546794 21.78196141946186, -56.99063190787244 21.177478043231478 C-57.255618334766986 20.86620990804631, -57.52060476166153 20.55494177286114, -58.29956669774293 19.639928758550113 C-58.65377334980465 19.16532411367725, -59.007980001866365 18.690719468804385, -59.5073010198041 18.021674793848355 C-59.91359469021969 17.397498610963346, -60.31988836063528 16.773322428078338, -60.608872034668394 16.329365901781557 C-60.97892648991367 15.672296744416652, -61.348980945158935 15.015227587051747, -61.5997531507495 14.569956142586314 C-61.94103056719644 13.861286285167314, -62.282307983643385 13.152616427748315, -62.47587262499809 12.750675308355417 C-62.64028412117438 12.344575734119934, -62.80469561735068 11.938476159884452, -63.23363029456745 10.878999214271209 C-63.415244840925034 10.332005136990484, -63.59685938728262 9.785011059709758, -63.86991237065481 8.962618978877522 C-63.986781617431674 8.516945889465378, -64.10365086420853 8.071272800053231, -64.38210423372743 7.009409419623911 C-64.51522030948897 6.325886504681033, -64.6483363852505 5.642363589738153, -64.76810117755518 5.027396693551461 C-64.82947092450316 4.551425055050285, -64.89084067145112 4.07545341654911, -65.02631705789975 3.024725316091999 C-65.05710544031747 2.5451714080008627, -65.08789382273521 2.0656174999097265, -65.15569081032167 1.0096246935071416 C-65.15569081032167 0.4152967121197393, -65.15569081032167 -0.179031269267663, -65.15569081032167 -1.0096246935071262 C-65.11259989500482 -1.680800481927815, -65.06950897968798 -2.351976270348504, -65.02631705789975 -3.024725316091956 C-64.93457256747584 -3.7362774668209378, -64.84282807705195 -4.44782961754992, -64.76810117755518 -5.027396693551446 C-64.66097283525922 -5.577478089658049, -64.55384449296325 -6.127559485764651, -64.38210423372745 -7.009409419623896 C-64.22547396835483 -7.606708505476105, -64.06884370298222 -8.204007591328313, -63.869912370654816 -8.962618978877506 C-63.62290180198056 -9.706575455934876, -63.3758912333063 -10.450531932992247, -63.23363029456746 -10.878999214271168 C-63.06602246426386 -11.292993795598022, -62.89841463396025 -11.706988376924874, -62.47587262499809 -12.750675308355401 C-62.27935314042375 -13.158752222917384, -62.08283365584941 -13.566829137479367, -61.59975315074951 -14.5699561425863 C-61.34277506662362 -15.026246752804548, -61.085796982497726 -15.482537363022796, -60.6088720346684 -16.329365901781546 C-60.387048128966065 -16.670146988999324, -60.165224223263735 -17.010928076217105, -59.50730101980411 -18.021674793848344 C-59.24195446525565 -18.377215003374864, -58.976607910707195 -18.732755212901385, -58.29956669774295 -19.639928758550102 C-57.90287073019743 -20.10591041466908, -57.50617476265191 -20.571892070788056, -56.990631907872455 -21.177478043231467 C-56.664953193503216 -21.513768054537426, -56.33927447913398 -21.850058065843385, -55.585875344009835 -22.628004528078403 C-55.17280580116207 -23.003143357671544, -54.759736258314305 -23.37828218726468, -54.091069452195356 -23.98554768862771 C-53.54115440905531 -24.42409030167802, -52.991239365915256 -24.86263291472833, -52.51235671047331 -25.244529088840626 C-52.02270642681806 -25.58608793009938, -51.53305614316281 -25.927646771358134, -50.856224388132304 -26.39977530409297 C-50.232141253848894 -26.77809816761516, -49.60805811956548 -27.15642103113735, -49.12947788812404 -27.446539179886763 C-48.44937775019362 -27.801346986220135, -47.769277612263195 -28.15615479255351, -47.33921278220309 -28.3805193389262 C-46.84812877177169 -28.597907662854595, -46.35704476134029 -28.81529598678299, -45.4927856537003 -29.19787785639968 C-44.78203734900264 -29.459439802613726, -44.07128904430498 -29.72100174882777, -43.59778386774408 -29.895256030836055 C-43.03354554372402 -30.062719003657808, -42.469307219703964 -30.23018197647956, -41.66199439314951 -30.469788185729417 C-40.90357699783977 -30.64289200707284, -40.14515960253003 -30.815995828416263, -39.69337180409324 -30.919113445218553 C-39.19732911508703 -30.99930978030857, -38.70128642608081 -31.07950611539859, -37.70000559306196 -31.24138543543225 C-37.03837716865088 -31.305211933810586, -36.376748744239805 -31.369038432188926, -35.69008692939246 -31.435279871635593 C-35.0057343707535 -31.457225726179697, -34.32138181211455 -31.4791715807238, -33.67187500000001 -31.5 C-33.67187500000001 -31.5, -33.671875 -31.5, -33.671875 -31.5" stroke="none" stroke-width="0" fill="#fafafa" style="fill:#fafafa !important;stroke:#888 !important;stroke-dasharray:5 5 !important"/><path d="M-33.671875 -31.5 C-14.606947818181922 -31.5, 4.457979363636156 -31.5, 33.671875 -31.5 M-33.671875 -31.5 C-18.538898020880037 -31.5, -3.405921041760074 -31.5, 33.671875 -31.5 M33.671875 -31.5 C33.671875 -31.5, 33.671875 -31.5, 33.671875 -31.5 M33.671875 -31.5 C33.671875 -31.5, 33.671875 -31.5, 33.671875 -31.5 M33.671875 -31.5 C34.209782505133774 -31.4827503532838, 34.74769001026755 -31.465500706567603, 35.69008692939246 -31.435279871635593 M33.671875 -31.5 C34.211006255869094 -31.482711109979608, 34.75013751173819 -31.465422219959216, 35.69008692939246 -31.435279871635593 M35.69008692939246 -31.435279871635593 C36.418667343225025 -31.364994595359313, 37.147247757057585 -31.294709319083033, 37.70000559306194 -31.241385435432253 M35.69008692939246 -31.435279871635593 C36.39138535737918 -31.367626455722473, 37.09268378536591 -31.299973039809352, 37.70000559306194 -31.241385435432253 M37.70000559306194 -31.241385435432253 C38.413530952343436 -31.126028188815425, 39.127056311624926 -31.010670942198598, 39.693371804093225 -30.91911344521856 M37.70000559306194 -31.241385435432253 C38.492821530066635 -31.113209103116752, 39.28563746707134 -30.98503277080125, 39.693371804093225 -30.91911344521856 M39.693371804093225 -30.91911344521856 C40.13426358694596 -30.818482772870183, 40.5751553697987 -30.717852100521807, 41.66199439314948 -30.469788185729428 M39.693371804093225 -30.91911344521856 C40.119777158811466 -30.821789205559103, 40.546182513529715 -30.724464965899646, 41.66199439314948 -30.469788185729428 M41.66199439314948 -30.469788185729428 C42.14154137077978 -30.32746115996221, 42.621088348410076 -30.185134134194985, 43.59778386774405 -29.895256030836062 M41.66199439314948 -30.469788185729428 C42.35353879179243 -30.264541438202823, 43.04508319043538 -30.059294690676218, 43.59778386774405 -29.895256030836062 M43.59778386774405 -29.895256030836062 C44.353211138710655 -29.61725181202721, 45.108638409677255 -29.339247593218357, 45.49278565370028 -29.197877856399685 M43.59778386774405 -29.895256030836062 C44.11025102679989 -29.706663379109024, 44.622718185855724 -29.51807072738199, 45.49278565370028 -29.197877856399685 M45.49278565370028 -29.197877856399685 C46.129179897518945 -28.91616500262567, 46.7655741413376 -28.634452148851658, 47.33921278220308 -28.380519338926202 M45.49278565370028 -29.197877856399685 C46.117127365415634 -28.921500301062146, 46.74146907713098 -28.645122745724606, 47.33921278220308 -28.380519338926202 M47.33921278220308 -28.380519338926202 C48.047027753749155 -28.01125272164774, 48.754842725295234 -27.64198610436928, 49.129477888124036 -27.44653917988677 M47.33921278220308 -28.380519338926202 C47.708892994779745 -28.18765740881643, 48.07857320735641 -27.994795478706664, 49.129477888124036 -27.44653917988677 M49.129477888124036 -27.44653917988677 C49.487819754600764 -27.229310234578023, 49.8461616210775 -27.012081289269275, 50.856224388132276 -26.399775304092984 M49.129477888124036 -27.44653917988677 C49.777499164491836 -27.053704873956885, 50.42552044085964 -26.660870568026997, 50.856224388132276 -26.399775304092984 M50.856224388132276 -26.399775304092984 C51.393298970075044 -26.025135325313645, 51.93037355201781 -25.650495346534303, 52.5123567104733 -25.244529088840633 M50.856224388132276 -26.399775304092984 C51.45533688637156 -25.981860360483303, 52.054449384610855 -25.563945416873622, 52.5123567104733 -25.244529088840633 M52.5123567104733 -25.244529088840633 C52.94333878146001 -24.900832356143308, 53.374320852446715 -24.55713562344598, 54.09106945219533 -23.985547688627737 M52.5123567104733 -25.244529088840633 C52.84337512526089 -24.980550711817493, 53.17439354004848 -24.71657233479435, 54.09106945219533 -23.985547688627737 M54.09106945219533 -23.985547688627737 C54.558222647962246 -23.561291516428465, 55.025375843729165 -23.137035344229194, 55.58587534400982 -22.62800452807842 M54.09106945219533 -23.985547688627737 C54.598959237549735 -23.524295623596206, 55.10684902290414 -23.063043558564676, 55.58587534400982 -22.62800452807842 M55.58587534400982 -22.62800452807842 C55.9948334168996 -22.20572174173751, 56.40379148978938 -21.783438955396598, 56.990631907872434 -21.177478043231485 M55.58587534400982 -22.62800452807842 C55.981448836235664 -22.21954242016753, 56.37702232846151 -21.811080312256642, 56.990631907872434 -21.177478043231485 M56.990631907872434 -21.177478043231485 C57.498086701973236 -20.581392767084907, 58.00554149607404 -19.98530749093833, 58.29956669774294 -19.63992875855011 M56.990631907872434 -21.177478043231485 C57.26827828348345 -20.851338811912466, 57.54592465909445 -20.525199580593448, 58.29956669774294 -19.63992875855011 M58.29956669774294 -19.63992875855011 C58.63740924239929 -19.187250526799573, 58.97525178705565 -18.73457229504904, 59.5073010198041 -18.02167479384835 M58.29956669774294 -19.63992875855011 C58.72003870327138 -19.076534576929724, 59.14051070879982 -18.513140395309343, 59.5073010198041 -18.02167479384835 M59.5073010198041 -18.02167479384835 C59.93468983013693 -17.36509081121224, 60.36207864046976 -16.70850682857613, 60.6088720346684 -16.329365901781543 M59.5073010198041 -18.02167479384835 C59.87904625309535 -17.450574287940672, 60.25079148638661 -16.879473782032992, 60.6088720346684 -16.329365901781543 M60.6088720346684 -16.329365901781543 C60.968366345282455 -15.69104735053996, 61.327860655896515 -15.052728799298377, 61.59975315074951 -14.56995614258631 M60.6088720346684 -16.329365901781543 C60.89208641771703 -15.826490086112623, 61.17530080076566 -15.3236142704437, 61.59975315074951 -14.56995614258631 M61.59975315074951 -14.56995614258631 C61.88617725977422 -13.975190351702325, 62.17260136879893 -13.38042456081834, 62.47587262499809 -12.750675308355413 M61.59975315074951 -14.56995614258631 C61.84957664037988 -14.051192321002477, 62.099400130010245 -13.532428499418643, 62.47587262499809 -12.750675308355413 M62.47587262499809 -12.750675308355413 C62.7437299487332 -12.089062540060647, 63.011587272468304 -11.427449771765879, 63.23363029456745 -10.878999214271206 M62.47587262499809 -12.750675308355413 C62.75996931088754 -12.048951001572707, 63.04406599677699 -11.347226694789999, 63.23363029456745 -10.878999214271206 M63.23363029456745 -10.878999214271206 C63.47100553353008 -10.164062815123948, 63.70838077249271 -9.449126415976691, 63.86991237065481 -8.962618978877531 M63.23363029456745 -10.878999214271206 C63.37515535254977 -10.452748288584239, 63.51668041053209 -10.026497362897272, 63.86991237065481 -8.962618978877531 M63.86991237065481 -8.962618978877531 C63.97480329131485 -8.562624438388225, 64.07969421197488 -8.162629897898919, 64.38210423372745 -7.009409419623907 M63.86991237065481 -8.962618978877531 C63.99104255481497 -8.500697088520951, 64.11217273897512 -8.03877519816437, 64.38210423372745 -7.009409419623907 M64.38210423372745 -7.009409419623907 C64.50951246269872 -6.355195091595111, 64.63692069167001 -5.7009807635663154, 64.76810117755518 -5.027396693551458 M64.38210423372745 -7.009409419623907 C64.49879278819141 -6.410238354586214, 64.61548134265536 -5.811067289548522, 64.76810117755518 -5.027396693551458 M64.76810117755518 -5.027396693551458 C64.85239561219451 -4.373625704307671, 64.93669004683385 -3.719854715063885, 65.02631705789975 -3.024725316091981 M64.76810117755518 -5.027396693551458 C64.8622779398402 -4.296980322574032, 64.95645470212523 -3.5665639515966063, 65.02631705789975 -3.024725316091981 M65.02631705789975 -3.024725316091981 C65.07615820005276 -2.2484092960129805, 65.12599934220577 -1.4720932759339795, 65.15569081032167 -1.0096246935071378 M65.02631705789975 -3.024725316091981 C65.06648824565076 -2.399026641270802, 65.10665943340177 -1.7733279664496222, 65.15569081032167 -1.0096246935071378 M65.15569081032167 -1.0096246935071378 C65.15569081032167 -0.3998633322645524, 65.15569081032167 0.209898028978033, 65.15569081032167 1.00962469350713 M65.15569081032167 -1.0096246935071378 C65.15569081032167 -0.44405623831265406, 65.15569081032167 0.12151221688182967, 65.15569081032167 1.00962469350713 M65.15569081032167 1.00962469350713 C65.10646486991733 1.7763584497686977, 65.05723892951299 2.5430922060302654, 65.02631705789975 3.02472531609196 M65.15569081032167 1.00962469350713 C65.12965874179028 1.4150951735910924, 65.10362667325889 1.8205656536750547, 65.02631705789975 3.02472531609196 M65.02631705789975 3.02472531609196 C64.97202868862163 3.445775187761927, 64.91774031934352 3.866825059431894, 64.76810117755518 5.027396693551435 M65.02631705789975 3.02472531609196 C64.92973211520918 3.7738190587457607, 64.83314717251862 4.522912801399562, 64.76810117755518 5.027396693551435 M64.76810117755518 5.027396693551435 C64.66503315826331 5.556629189181569, 64.56196513897146 6.085861684811702, 64.38210423372745 7.0094094196239 M64.76810117755518 5.027396693551435 C64.65611560126106 5.602418959661787, 64.54413002496695 6.177441225772138, 64.38210423372745 7.0094094196239 M64.38210423372745 7.0094094196239 C64.20035191596946 7.702509779187915, 64.01859959821147 8.39561013875193, 63.869912370654816 8.96261897887751 M64.38210423372745 7.0094094196239 C64.18900413101927 7.745783801364069, 63.9959040283111 8.482158183104238, 63.869912370654816 8.96261897887751 M63.869912370654816 8.96261897887751 C63.73792783582429 9.360135368907205, 63.605943300993765 9.757651758936902, 63.233630294567455 10.878999214271184 M63.869912370654816 8.96261897887751 C63.65951379587319 9.596305963659326, 63.44911522109155 10.22999294844114, 63.233630294567455 10.878999214271184 M63.233630294567455 10.878999214271184 C62.991106336110626 11.478038080541301, 62.7485823776538 12.077076946811419, 62.47587262499809 12.750675308355405 M63.233630294567455 10.878999214271184 C62.98191670462731 11.500736647974536, 62.730203114687164 12.122474081677886, 62.47587262499809 12.750675308355405 M62.47587262499809 12.750675308355405 C62.17226484619389 13.381123357208134, 61.868657067389684 14.011571406060863, 61.59975315074951 14.569956142586303 M62.47587262499809 12.750675308355405 C62.21791701353649 13.286325654921306, 61.9599614020749 13.821976001487208, 61.59975315074951 14.569956142586303 M61.59975315074951 14.569956142586303 C61.24493146342359 15.199977978025386, 60.89010977609767 15.829999813464468, 60.60887203466841 16.329365901781536 M61.59975315074951 14.569956142586303 C61.30725539564174 15.089315525389585, 61.014757640533965 15.608674908192867, 60.60887203466841 16.329365901781536 M60.60887203466841 16.329365901781536 C60.302422550571464 16.800154602563058, 59.99597306647452 17.270943303344577, 59.50730101980412 18.021674793848334 M60.60887203466841 16.329365901781536 C60.372109758190945 16.69309633802413, 60.13534748171348 17.056826774266728, 59.50730101980412 18.021674793848334 M59.50730101980412 18.021674793848334 C59.109592135169244 18.55456846723431, 58.71188325053437 19.087462140620293, 58.29956669774295 19.639928758550102 M59.50730101980412 18.021674793848334 C59.17949696749854 18.460902360374302, 58.85169291519295 18.900129926900266, 58.29956669774295 19.639928758550102 M58.29956669774295 19.639928758550102 C58.032987914441954 19.95306736617793, 57.76640913114096 20.266205973805757, 56.99063190787245 21.177478043231467 M58.29956669774295 19.639928758550102 C57.81018781459625 20.21478104114152, 57.32080893144955 20.78963332373294, 56.99063190787245 21.177478043231467 M56.99063190787245 21.177478043231467 C56.62883068829546 21.55106750687726, 56.267029468718476 21.924656970523056, 55.58587534400983 22.628004528078414 M56.99063190787245 21.177478043231467 C56.48727318177652 21.697237254445493, 55.9839144556806 22.21699646565952, 55.58587534400983 22.628004528078414 M55.58587534400983 22.628004528078414 C55.00472030140174 23.155794161255262, 54.423565258793644 23.68358379443211, 54.091069452195356 23.985547688627715 M55.58587534400983 22.628004528078414 C55.14405802778928 23.029251324824312, 54.702240711568734 23.43049812157021, 54.091069452195356 23.985547688627715 M54.091069452195356 23.985547688627715 C53.53268570261267 24.430843869704287, 52.97430195302998 24.87614005078086, 52.51235671047331 25.24452908884063 M54.091069452195356 23.985547688627715 C53.4705160919477 24.48042247980678, 52.84996273170004 24.975297270985845, 52.51235671047331 25.24452908884063 M52.51235671047331 25.24452908884063 C51.96928995085004 25.6233489513727, 51.42622319122676 26.00216881390477, 50.8562243881323 26.399775304092973 M52.51235671047331 25.24452908884063 C52.17462837325042 25.480113756863233, 51.83690003602753 25.715698424885836, 50.8562243881323 26.399775304092973 M50.8562243881323 26.399775304092973 C50.333264697896134 26.716796541566403, 49.81030500765996 27.033817779039833, 49.12947788812404 27.446539179886766 M50.8562243881323 26.399775304092973 C50.5031660726943 26.61380132971245, 50.15010775725629 26.827827355331927, 49.12947788812404 27.446539179886766 M49.12947788812404 27.446539179886766 C48.616793018962724 27.714006547737892, 48.10410814980141 27.98147391558902, 47.339212782203084 28.3805193389262 M49.12947788812404 27.446539179886766 C48.418739626415366 27.817330875770597, 47.70800136470669 28.18812257165443, 47.339212782203084 28.3805193389262 M47.339212782203084 28.3805193389262 C46.843750491005224 28.599845797872824, 46.348288199807364 28.819172256819446, 45.492785653700295 29.197877856399682 M47.339212782203084 28.3805193389262 C46.91546160949449 28.568101412952373, 46.4917104367859 28.755683486978548, 45.492785653700295 29.197877856399682 M45.492785653700295 29.197877856399682 C45.04889047981766 29.3612353837105, 44.60499530593501 29.524592911021315, 43.59778386774407 29.895256030836055 M45.492785653700295 29.197877856399682 C44.935908508569426 29.40281379352374, 44.37903136343856 29.6077497306478, 43.59778386774407 29.895256030836055 M43.59778386774407 29.895256030836055 C42.82853927328902 30.123563788623045, 42.05929467883396 30.35187154641003, 41.66199439314951 30.46978818572942 M43.59778386774407 29.895256030836055 C43.017217846632036 30.06756497844888, 42.436651825519995 30.239873926061698, 41.66199439314951 30.46978818572942 M41.66199439314951 30.46978818572942 C41.18413677980487 30.578856067662986, 40.70627916646022 30.687923949596556, 39.69337180409324 30.919113445218557 M41.66199439314951 30.46978818572942 C41.05710048437569 30.607851273105396, 40.452206575601856 30.745914360481375, 39.69337180409324 30.919113445218557 M39.69337180409324 30.919113445218557 C38.95709870329639 31.038148370272218, 38.22082560249954 31.15718329532588, 37.70000559306196 31.24138543543225 M39.69337180409324 30.919113445218557 C39.27956133131158 30.98601511330975, 38.86575085852992 31.052916781400945, 37.70000559306196 31.24138543543225 M37.70000559306196 31.24138543543225 C36.97703161067715 31.311129866009484, 36.254057628292344 31.380874296586722, 35.69008692939246 31.435279871635593 M37.70000559306196 31.24138543543225 C37.10751823954376 31.298541977855855, 36.51503088602556 31.35569852027946, 35.69008692939246 31.435279871635593 M35.69008692939246 31.435279871635593 C34.92910218718315 31.4596831711513, 34.168117444973845 31.484086470667012, 33.67187500000001 31.5 M35.69008692939246 31.435279871635593 C35.09996569725751 31.454203910948866, 34.50984446512256 31.473127950262135, 33.67187500000001 31.5 M33.67187500000001 31.5 C33.67187500000001 31.5, 33.671875 31.5, 33.671875 31.5 M33.67187500000001 31.5 C33.67187500000001 31.5, 33.67187500000001 31.5, 33.671875 31.5 M33.671875 31.5 C18.220195272922922 31.5, 2.7685155458458404 31.5, -33.67187499999999 31.5 M33.671875 31.5 C12.054368581332273 31.5, -9.563137837335454 31.5, -33.67187499999999 31.5 M-33.67187499999999 31.5 C-34.08295219818582 31.486817554367406, -34.49402939637165 31.473635108734815, -35.69008692939244 31.435279871635593 M-33.67187499999999 31.5 C-34.11369636542984 31.48583164876378, -34.555517730859684 31.471663297527563, -35.69008692939244 31.435279871635593 M-35.69008692939244 31.435279871635593 C-36.11166743512729 31.39461050727209, -36.53324794086214 31.35394114290859, -37.700005593061945 31.24138543543225 M-35.69008692939244 31.435279871635593 C-36.26091134276391 31.380213126994445, -36.83173575613539 31.325146382353296, -37.700005593061945 31.24138543543225 M-37.700005593061945 31.24138543543225 C-38.488396206270444 31.113924555149218, -39.27678681947894 30.986463674866187, -39.693371804093225 30.919113445218557 M-37.700005593061945 31.24138543543225 C-38.37273611705526 31.13262358141614, -39.04546664104858 31.023861727400032, -39.693371804093225 30.919113445218557 M-39.693371804093225 30.919113445218557 C-40.103200330061604 30.82557275854734, -40.51302885602998 30.732032071876123, -41.66199439314947 30.469788185729428 M-39.693371804093225 30.919113445218557 C-40.31848877974964 30.77643457479447, -40.94360575540607 30.63375570437039, -41.66199439314947 30.469788185729428 M-41.66199439314947 30.469788185729428 C-42.25564078392388 30.293597053061077, -42.8492871746983 30.117405920392727, -43.597783867744035 29.89525603083607 M-41.66199439314947 30.469788185729428 C-42.32607871903123 30.272691443657482, -42.99016304491299 30.075594701585537, -43.597783867744035 29.89525603083607 M-43.597783867744035 29.89525603083607 C-44.25385083622105 29.653817321819954, -44.909917804698054 29.41237861280384, -45.49278565370029 29.197877856399685 M-43.597783867744035 29.89525603083607 C-44.17929347178522 29.68125512113306, -44.7608030758264 29.467254211430053, -45.49278565370029 29.197877856399685 M-45.49278565370029 29.197877856399685 C-45.98560130529856 28.979722986294025, -46.47841695689684 28.761568116188364, -47.33921278220308 28.380519338926206 M-45.49278565370029 29.197877856399685 C-46.10571586679549 28.92655183299121, -46.71864607989069 28.655225809582728, -47.33921278220308 28.380519338926206 M-47.33921278220308 28.380519338926206 C-48.03975056702986 28.01504922529794, -48.74028835185665 27.64957911166967, -49.12947788812403 27.446539179886773 M-47.33921278220308 28.380519338926206 C-48.031932504579814 28.019127903470423, -48.72465222695654 27.657736468014637, -49.12947788812403 27.446539179886773 M-49.12947788812403 27.446539179886773 C-49.62343122028903 27.147101767136366, -50.117384552454034 26.847664354385955, -50.85622438813226 26.399775304092994 M-49.12947788812403 27.446539179886773 C-49.633701730839384 27.140875723284523, -50.13792557355474 26.83521226668227, -50.85622438813226 26.399775304092994 M-50.85622438813226 26.399775304092994 C-51.39753370107928 26.02218136028364, -51.938843014026304 25.644587416474284, -52.5123567104733 25.244529088840636 M-50.85622438813226 26.399775304092994 C-51.409561939996294 26.013790981509203, -51.96289949186032 25.62780665892541, -52.5123567104733 25.244529088840636 M-52.5123567104733 25.244529088840636 C-53.1082789087438 24.76929699387561, -53.7042011070143 24.294064898910584, -54.09106945219533 23.98554768862774 M-52.5123567104733 25.244529088840636 C-52.9142008610055 24.924069072313152, -53.316045011537696 24.603609055785668, -54.09106945219533 23.98554768862774 M-54.09106945219533 23.98554768862774 C-54.44258986858262 23.66630614718535, -54.794110284969925 23.34706460574296, -55.58587534400981 22.628004528078435 M-54.09106945219533 23.98554768862774 C-54.62961711246692 23.496452952759338, -55.168164772738514 23.00735821689094, -55.58587534400981 22.628004528078435 M-55.58587534400981 22.628004528078435 C-56.01474299530038 22.185163467431913, -56.44361064659096 21.74232240678539, -56.99063190787244 21.177478043231478 M-55.58587534400981 22.628004528078435 C-56.08770264935746 22.10982663451898, -56.58952995470512 21.591648740959528, -56.99063190787244 21.177478043231478 M-56.99063190787244 21.177478043231478 C-57.26540178760861 20.8547177076443, -57.54017166734477 20.53195737205713, -58.29956669774293 19.639928758550113 M-56.99063190787244 21.177478043231478 C-57.36162898196825 20.741683769666988, -57.73262605606407 20.3058894961025, -58.29956669774293 19.639928758550113 M-58.29956669774293 19.639928758550113 C-58.71176026755858 19.087626926603864, -59.12395383737423 18.535325094657612, -59.5073010198041 18.021674793848355 M-58.29956669774293 19.639928758550113 C-58.599767883165136 19.23768651897497, -58.89996906858734 18.835444279399834, -59.5073010198041 18.021674793848355 M-59.5073010198041 18.021674793848355 C-59.91717427608639 17.3919994058187, -60.32704753236868 16.76232401778905, -60.608872034668394 16.329365901781557 M-59.5073010198041 18.021674793848355 C-59.94712527427113 17.34598662963781, -60.38694952873816 16.67029846542727, -60.608872034668394 16.329365901781557 M-60.608872034668394 16.329365901781557 C-60.846601880198754 15.907252488285181, -61.084331725729115 15.485139074788803, -61.5997531507495 14.569956142586314 M-60.608872034668394 16.329365901781557 C-60.96661927804155 15.694149445335933, -61.3243665214147 15.058932988890309, -61.5997531507495 14.569956142586314 M-61.5997531507495 14.569956142586314 C-61.83619676225898 14.07897592420405, -62.07264037376845 13.587995705821786, -62.47587262499809 12.750675308355417 M-61.5997531507495 14.569956142586314 C-61.908982233578264 13.927835335649942, -62.218211316407036 13.28571452871357, -62.47587262499809 12.750675308355417 M-62.47587262499809 12.750675308355417 C-62.70583937935963 12.182652978977687, -62.935806133721165 11.614630649599956, -63.23363029456745 10.878999214271209 M-62.47587262499809 12.750675308355417 C-62.70872792410065 12.175518217621143, -62.94158322320322 11.60036112688687, -63.23363029456745 10.878999214271209 M-63.23363029456745 10.878999214271209 C-63.44159199259567 10.252651714007063, -63.6495536906239 9.62630421374292, -63.86991237065481 8.962618978877522 M-63.23363029456745 10.878999214271209 C-63.38519637879198 10.422506317362966, -63.536762463016515 9.966013420454722, -63.86991237065481 8.962618978877522 M-63.86991237065481 8.962618978877522 C-63.97913718431871 8.546097426043373, -64.08836199798262 8.129575873209225, -64.38210423372743 7.009409419623911 M-63.86991237065481 8.962618978877522 C-64.07178900021913 8.192775896464049, -64.27366562978345 7.422932814050576, -64.38210423372743 7.009409419623911 M-64.38210423372743 7.009409419623911 C-64.49004134945478 6.455175142881448, -64.59797846518214 5.900940866138984, -64.76810117755518 5.027396693551461 M-64.38210423372743 7.009409419623911 C-64.51469604980537 6.328578467354014, -64.6472878658833 5.6477475150841165, -64.76810117755518 5.027396693551461 M-64.76810117755518 5.027396693551461 C-64.82672275118885 4.57273934458781, -64.88534432482251 4.118081995624159, -65.02631705789975 3.024725316091999 M-64.76810117755518 5.027396693551461 C-64.83666256571239 4.495648105981591, -64.9052239538696 3.963899518411721, -65.02631705789975 3.024725316091999 M-65.02631705789975 3.024725316091999 C-65.07626942123206 2.2466769363693895, -65.12622178456435 1.4686285566467798, -65.15569081032167 1.0096246935071416 M-65.02631705789975 3.024725316091999 C-65.05565432280349 2.567773734602143, -65.08499158770724 2.110822153112287, -65.15569081032167 1.0096246935071416 M-65.15569081032167 1.0096246935071416 C-65.15569081032167 0.2932673011672373, -65.15569081032167 -0.42309009117266694, -65.15569081032167 -1.0096246935071262 M-65.15569081032167 1.0096246935071416 C-65.15569081032167 0.5330038896192388, -65.15569081032167 0.0563830857313361, -65.15569081032167 -1.0096246935071262 M-65.15569081032167 -1.0096246935071262 C-65.12286569156673 -1.5209024140743876, -65.09004057281177 -2.0321801346416493, -65.02631705789975 -3.024725316091956 M-65.15569081032167 -1.0096246935071262 C-65.1146242762965 -1.649269109258816, -65.07355774227133 -2.288913525010506, -65.02631705789975 -3.024725316091956 M-65.02631705789975 -3.024725316091956 C-64.93213659657948 -3.7551703760563058, -64.8379561352592 -4.485615436020656, -64.76810117755518 -5.027396693551446 M-65.02631705789975 -3.024725316091956 C-64.95975316805387 -3.540981701209842, -64.89318927820798 -4.057238086327729, -64.76810117755518 -5.027396693551446 M-64.76810117755518 -5.027396693551446 C-64.63914300678123 -5.689569645156686, -64.51018483600726 -6.351742596761926, -64.38210423372745 -7.009409419623896 M-64.76810117755518 -5.027396693551446 C-64.6249697218926 -5.762346467534909, -64.48183826623003 -6.497296241518374, -64.38210423372745 -7.009409419623896 M-64.38210423372745 -7.009409419623896 C-64.1969633245465 -7.715431946908462, -64.01182241536556 -8.421454474193027, -63.869912370654816 -8.962618978877506 M-64.38210423372745 -7.009409419623896 C-64.23810601571171 -7.558537034140357, -64.09410779769598 -8.107664648656817, -63.869912370654816 -8.962618978877506 M-63.869912370654816 -8.962618978877506 C-63.728305307327226 -9.389116891598642, -63.58669824399964 -9.815614804319777, -63.23363029456746 -10.878999214271168 M-63.869912370654816 -8.962618978877506 C-63.70097342922211 -9.47143615370788, -63.532034487789396 -9.980253328538254, -63.23363029456746 -10.878999214271168 M-63.23363029456746 -10.878999214271168 C-62.94162900661358 -11.6002480409781, -62.649627718659694 -12.321496867685031, -62.47587262499809 -12.750675308355401 M-63.23363029456746 -10.878999214271168 C-63.00091302393815 -11.453815372007892, -62.76819575330885 -12.028631529744617, -62.47587262499809 -12.750675308355401 M-62.47587262499809 -12.750675308355401 C-62.245345395584245 -13.229370032725791, -62.0148181661704 -13.708064757096183, -61.59975315074951 -14.5699561425863 M-62.47587262499809 -12.750675308355401 C-62.142270169198454 -13.443407945772421, -61.80866771339882 -14.136140583189441, -61.59975315074951 -14.5699561425863 M-61.59975315074951 -14.5699561425863 C-61.29674181442059 -15.107983453463268, -60.99373047809168 -15.646010764340236, -60.6088720346684 -16.329365901781546 M-61.59975315074951 -14.5699561425863 C-61.221816056306864 -15.241021724049919, -60.84387896186421 -15.91208730551354, -60.6088720346684 -16.329365901781546 M-60.6088720346684 -16.329365901781546 C-60.286856409846514 -16.824068374810636, -59.96484078502462 -17.318770847839726, -59.50730101980411 -18.021674793848344 M-60.6088720346684 -16.329365901781546 C-60.16897364246219 -17.00516796146825, -59.72907525025598 -17.680970021154952, -59.50730101980411 -18.021674793848344 M-59.50730101980411 -18.021674793848344 C-59.09526359531658 -18.57376740528005, -58.683226170829045 -19.12586001671176, -58.29956669774295 -19.639928758550102 M-59.50730101980411 -18.021674793848344 C-59.057241251421424 -18.62471388219277, -58.60718148303874 -19.227752970537193, -58.29956669774295 -19.639928758550102 M-58.29956669774295 -19.639928758550102 C-57.892875334769194 -20.1176515748932, -57.486183971795434 -20.59537439123629, -56.990631907872455 -21.177478043231467 M-58.29956669774295 -19.639928758550102 C-57.809909977390895 -20.21510740453232, -57.320253257038836 -20.790286050514535, -56.990631907872455 -21.177478043231467 M-56.990631907872455 -21.177478043231467 C-56.56724686930139 -21.61465785611421, -56.14386183073034 -22.051837668996953, -55.585875344009835 -22.628004528078403 M-56.990631907872455 -21.177478043231467 C-56.52042129671042 -21.663009104265402, -56.05021068554837 -22.148540165299337, -55.585875344009835 -22.628004528078403 M-55.585875344009835 -22.628004528078403 C-55.25964750478095 -22.924276020150444, -54.933419665552066 -23.220547512222485, -54.091069452195356 -23.98554768862771 M-55.585875344009835 -22.628004528078403 C-55.23678886054381 -22.94503563604003, -54.88770237707779 -23.262066744001654, -54.091069452195356 -23.98554768862771 M-54.091069452195356 -23.98554768862771 C-53.636705425946204 -24.347890908426876, -53.18234139969705 -24.710234128226045, -52.51235671047331 -25.244529088840626 M-54.091069452195356 -23.98554768862771 C-53.75116098511189 -24.25661564578259, -53.41125251802842 -24.527683602937465, -52.51235671047331 -25.244529088840626 M-52.51235671047331 -25.244529088840626 C-52.075221508104384 -25.549455682735267, -51.63808630573546 -25.854382276629913, -50.856224388132304 -26.39977530409297 M-52.51235671047331 -25.244529088840626 C-51.878930247049766 -25.68637996913523, -51.245503783626226 -26.128230849429837, -50.856224388132304 -26.39977530409297 M-50.856224388132304 -26.39977530409297 C-50.25027235627934 -26.767106986771637, -49.64432032442638 -27.1344386694503, -49.12947788812404 -27.446539179886763 M-50.856224388132304 -26.39977530409297 C-50.30109371177017 -26.73629878241366, -49.74596303540803 -27.072822260734352, -49.12947788812404 -27.446539179886763 M-49.12947788812404 -27.446539179886763 C-48.503895797645114 -27.77290495578517, -47.87831370716619 -28.09927073168357, -47.33921278220309 -28.3805193389262 M-49.12947788812404 -27.446539179886763 C-48.4940221890422 -27.778056011068962, -47.858566489960346 -28.109572842251165, -47.33921278220309 -28.3805193389262 M-47.33921278220309 -28.3805193389262 C-46.83751288305436 -28.602607001880607, -46.335812983905626 -28.824694664835015, -45.4927856537003 -29.19787785639968 M-47.33921278220309 -28.3805193389262 C-46.714598534231385 -28.65701753797993, -46.08998428625967 -28.933515737033655, -45.4927856537003 -29.19787785639968 M-45.4927856537003 -29.19787785639968 C-45.02710122843619 -29.36925402963651, -44.561416803172065 -29.540630202873345, -43.59778386774408 -29.895256030836055 M-45.4927856537003 -29.19787785639968 C-44.99105315144456 -29.3825200551942, -44.48932064918882 -29.567162253988723, -43.59778386774408 -29.895256030836055 M-43.59778386774408 -29.895256030836055 C-43.20478816674093 -30.01189509201726, -42.811792465737796 -30.12853415319846, -41.66199439314951 -30.469788185729417 M-43.59778386774408 -29.895256030836055 C-42.881294633045755 -30.107906274765778, -42.16480539834744 -30.320556518695497, -41.66199439314951 -30.469788185729417 M-41.66199439314951 -30.469788185729417 C-41.18548351848845 -30.57854868334675, -40.70897264382738 -30.68730918096408, -39.69337180409324 -30.919113445218553 M-41.66199439314951 -30.469788185729417 C-41.14133211352216 -30.58862595341546, -40.620669833894816 -30.7074637211015, -39.69337180409324 -30.919113445218553 M-39.69337180409324 -30.919113445218553 C-38.977609835294366 -31.034832289516984, -38.26184786649549 -31.15055113381542, -37.70000559306196 -31.24138543543225 M-39.69337180409324 -30.919113445218553 C-39.237101273883205 -30.992879726112104, -38.78083074367317 -31.066646007005655, -37.70000559306196 -31.24138543543225 M-37.70000559306196 -31.24138543543225 C-36.9420399036373 -31.314505473903935, -36.18407421421264 -31.38762551237562, -35.69008692939246 -31.435279871635593 M-37.70000559306196 -31.24138543543225 C-37.11896004645158 -31.297438200504242, -36.53791449984121 -31.35349096557624, -35.69008692939246 -31.435279871635593 M-35.69008692939246 -31.435279871635593 C-35.22711849642849 -31.45012636816736, -34.76415006346453 -31.464972864699128, -33.67187500000001 -31.5 M-35.69008692939246 -31.435279871635593 C-35.02015427211818 -31.456763308009567, -34.350221614843896 -31.478246744383544, -33.67187500000001 -31.5 M-33.67187500000001 -31.5 C-33.67187500000001 -31.5, -33.67187500000001 -31.5, -33.671875 -31.5 M-33.67187500000001 -31.5 C-33.67187500000001 -31.5, -33.671875 -31.5, -33.671875 -31.5" stroke="#888" stroke-width="1.3" fill="none" stroke-dasharray="5 5" style="fill:#fafafa !important;stroke:#888 !important;stroke-dasharray:5 5 !important"/></g><g class="label" style="color:#666 !important" transform="translate(-49.796875, -24)"><rect/><foreignObject width="99.59375" height="48"><div style="color: rgb(102, 102, 102) !important; display: table-cell; white-space: nowrap; line-height: 1.5; max-width: 200px; text-align: center;" xmlns="http://www.w3.org/1999/xhtml"><span style="color:#666 !important" class="nodeLabel"><p>S-Miles Cloud<br /><i>optional</i></p></span></div></foreignObject></g></g><g class="node default system" id="my-svg-flowchart-sys_root-6" data-look="classic" transform="translate(678.3359375, 237.84765625)"><circle class="basic label-container" style="fill:#4a90e2 !important;stroke:#2a70c2 !important" r="74.1953125" cx="0" cy="0"/><g class="label" style="color:#fff !important;font-weight:bold !important" transform="translate(-66.6953125, -12)"><rect/><foreignObject width="133.390625" height="24"><div style="color: rgb(255, 255, 255) !important; font-weight: bold !important; display: table-cell; white-space: nowrap; line-height: 1.5; max-width: 200px; text-align: center;" xmlns="http://www.w3.org/1999/xhtml"><span style="color:#fff !important;font-weight:bold !important" class="nodeLabel"><p>Solar Local Stack</p></span></div></foreignObject></g></g></g></g></g><defs><filter id="my-svg-drop-shadow" height="130%" width="130%"><feDropShadow dx="4" dy="4" stdDeviation="0" flood-opacity="0.06" flood-color="#000000"/></filter></defs><defs><filter id="my-svg-drop-shadow-small" height="150%" width="150%"><feDropShadow dx="2" dy="2" stdDeviation="0" flood-opacity="0.06" flood-color="#000000"/></filter></defs></svg>