<svg id="my-svg" width="100%" xmlns="http://www.w3.org/2000/svg" xmlns:xlink="http://www.w3.org/1999/xlink" class="flowchart" style="max-width: 1179.02px; background-color: white;" viewBox="0 30.615978240966797 1179.015625 374.981689453125" role="graphics-document document" aria-roledescription="flowchart-v2"><style>#my-svg{font-family:"trebuchet ms",verdana,arial,sans-serif;font-size:16px;fill:#333;}@keyframes edge-animation-frame{from{stroke-dashoffset:0;}}@keyframes dash{to{stroke-dashoffset:0;}}#my-svg .edge-animation-slow{stroke-dasharray:9,5!important;stroke-dashoffset:900;animation:dash 50s linear infinite;stroke-linecap:round;}#my-svg .edge-animation-fast{stroke-dasharray:9,5!important;stroke-dashoffset:900;animation:dash 20s linear infinite;stroke-linecap:round;}#my-svg .error-icon{fill:#552222;}#my-svg .error-text{fill:#552222;stroke:#552222;}#my-svg .edge-thickness-normal{stroke-width:1px;}#my-svg .edge-thickness-thick{stroke-width:3.5px;}#my-svg .edge-pattern-solid{stroke-dasharray:0;}#my-svg .edge-thickness-invisible{stroke-width:0;fill:none;}#my-svg .edge-pattern-dashed{stroke-dasharray:3;}#my-svg .edge-pattern-dotted{stroke-dasharray:2;}#my-svg .marker{fill:#333333;stroke:#333333;}#my-svg .marker.cross{stroke:#333333;}#my-svg svg{font-family:"trebuchet ms",verdana,arial,sans-serif;font-size:16px;}#my-svg p{margin:0;}#my-svg .label{font-family:"trebuchet ms",verdana,arial,sans-serif;color:#333;}#my-svg .cluster-label text{fill:#333;}#my-svg .cluster-label span{color:#333;}#my-svg .cluster-label span p{background-color:transparent;}#my-svg .label text,#my-svg span{fill:#333;color:#333;}#my-svg .node rect,#my-svg .node circle,#my-svg .node ellipse,#my-svg .node polygon,#my-svg .node path{fill:#ECECFF;stroke:#9370DB;stroke-width:1px;}#my-svg .rough-node .label text,#my-svg .node .label text,#my-svg .image-shape .label,#my-svg .icon-shape .label{text-anchor:middle;}#my-svg .node .katex path{fill:#000;stroke:#000;stroke-width:1px;}#my-svg .rough-node .label,#my-svg .node .label,#my-svg .image-shape .label,#my-svg .icon-shape .label{text-align:center;}#my-svg .node.clickable{cursor:pointer;}#my-svg .root .anchor path{fill:#333333!important;stroke-width:0;stroke:#333333;}#my-svg .arrowheadPath{fill:#333333;}#my-svg .edgePath .path{stroke:#333333;stroke-width:1px;}#my-svg .flowchart-link{stroke:#333333;fill:none;}#my-svg .edgeLabel{background-color:rgba(232,232,232, 0.8);text-align:center;}#my-svg .edgeLabel p{background-color:rgba(232,232,232, 0.8);}#my-svg .edgeLabel rect{opacity:0.5;background-color:rgba(232,232,232, 0.8);fill:rgba(232,232,232, 0.8);}#my-svg .labelBkg{background-color:rgba(232, 232, 232, 0.5);}#my-svg .cluster rect{fill:#ffffde;stroke:#aaaa33;stroke-width:1px;}#my-svg .cluster text{fill:#333;}#my-svg .cluster span{color:#333;}#my-svg div.mermaidTooltip{position:absolute;text-align:center;max-width:200px;padding:2px;font-family:"trebuchet ms",verdana,arial,sans-serif;font-size:12px;background:hsl(80, 100%, 96.2745098039%);border:1px solid #aaaa33;border-radius:2px;pointer-events:none;z-index:100;}#my-svg .flowchartTitleText{text-anchor:middle;font-size:18px;fill:#333;}#my-svg rect.text{fill:none;stroke-width:0;}#my-svg .icon-shape,#my-svg .image-shape{background-color:rgba(232,232,232, 0.8);text-align:center;}#my-svg .icon-shape p,#my-svg .image-shape p{background-color:rgba(232,232,232, 0.8);padding:2px;}#my-svg .icon-shape .label rect,#my-svg .image-shape .label rect{opacity:0.5;background-color:rgba(232,232,232, 0.8);fill:rgba(232,232,232, 0.8);}#my-svg .label-icon{display:inline-block;height:1em;overflow:visible;vertical-align:-0.125em;}#my-svg .node .label-icon path{fill:currentColor;stroke:revert;stroke-width:revert;}#my-svg .node .neo-node{stroke:#9370DB;}#my-svg [data-look="neo"].node rect,#my-svg [data-look="neo"].cluster rect,#my-svg [data-look="neo"].node polygon{stroke:#9370DB;filter:drop-shadow(1px 2px 2px rgba(185, 185, 185, 1));}#my-svg [data-look="neo"].node path{stroke:#9370DB;stroke-width:1px;}#my-svg [data-look="neo"].node .outer-path{filter:drop-shadow(1px 2px 2px rgba(185, 185, 185, 1));}#my-svg [data-look="neo"].node .neo-line path{stroke:#9370DB;filter:none;}#my-svg [data-look="neo"].node circle{stroke:#9370DB;filter:drop-shadow(1px 2px 2px rgba(185, 185, 185, 1));}#my-svg [data-look="neo"].node circle .state-start{fill:#000000;}#my-svg [data-look="neo"].icon-shape .icon{fill:#9370DB;filter:drop-shadow(1px 2px 2px rgba(185, 185, 185, 1));}#my-svg [data-look="neo"].icon-shape .icon-neo path{stroke:#9370DB;filter:drop-shadow(1px 2px 2px rgba(185, 185, 185, 1));}#my-svg :root{--mermaid-font-family:"trebuchet ms",verdana,arial,sans-serif;}#my-svg .system&gt;*{fill:rgb(74, 144, 226)!important;stroke:rgb(42, 112, 194)!important;color:rgb(255, 255, 255)!important;font-weight:bold!important;}#my-svg .system span{fill:rgb(74, 144, 226)!important;stroke:rgb(42, 112, 194)!important;color:rgb(255, 255, 255)!important;font-weight:bold!important;}#my-svg .system tspan{fill:rgb(255, 255, 255)!important;}#my-svg .terminator&gt;*{fill:rgb(250, 250, 250)!important;stroke:rgb(68, 68, 68)!important;}#my-svg .terminator span{fill:rgb(250, 250, 250)!important;stroke:rgb(68, 68, 68)!important;}#my-svg .optional&gt;*{fill:rgb(250, 250, 250)!important;stroke:rgb(136, 136, 136)!important;stroke-dasharray:5,5!important;color:rgb(102, 102, 102)!important;}#my-svg .optional span{fill:rgb(250, 250, 250)!important;stroke:rgb(136, 136, 136)!important;stroke-dasharray:5,5!important;color:rgb(102, 102, 102)!important;}#my-svg .optional tspan{fill:rgb(102, 102, 102)!important;}#my-svg .grid&gt;*{fill:rgb(254, 240, 239)!important;stroke:rgb(231, 76, 60)!important;}#my-svg .grid span{fill:rgb(254, 240, 239)!important;stroke:rgb(231, 76, 60)!important;}</style><g><marker id="my-svg_flowchart-v2-pointEnd" class="marker flowchart-v2" viewBox="0 0 10 10" refX="5" refY="5" markerUnits="userSpaceOnUse" markerWidth="8" markerHeight="8" orient="auto"><path d="M 0 0 L 10 5 L 0 10 z" class="arrowMarkerPath" style="stroke-width: 1; stroke-dasharray: 1, 0;"/></marker><marker id="my-svg_flowchart-v2-pointStart" class="marker flowchart-v2" viewBox="0 0 10 10" refX="4.5" refY="5" markerUnits="userSpaceOnUse" markerWidth="8" markerHeight="8" orient="auto"><path d="M 0 5 L 10 10 L 10 0 z" class="arrowMarkerPath" style="stroke-width: 1; stroke-dasharray: 1, 0;"/></marker><marker id="my-svg_flowchart-v2-pointEnd-margin" class="marker flowchart-v2" viewBox="0 0 11.5 14" refX="11.5" refY="7" markerUnits="userSpaceOnUse" markerWidth="10.5" markerHeight="14" orient="auto"><path d="M 0 0 L 11.5 7 L 0 14 z" class="arrowMarkerPath" style="stroke-width: 0; stroke-dasharray: 1, 0;"/></marker><marker id="my-svg_flowchart-v2-pointStart-margin" class="marker flowchart-v2" viewBox="0 0 11.5 14" refX="1" refY="7" markerUnits="userSpaceOnUse" markerWidth="11.5" markerHeight="14" orient="auto"><polygon points="0,7 11.5,14 11.5,0" class="arrowMarkerPath" style="stroke-width: 0; stroke-dasharray: 1, 0;"/></marker><marker id="my-svg_flowchart-v2-circleEnd" class="marker flowchart-v2" viewBox="0 0 10 10" refX="11" refY="5" markerUnits="userSpaceOnUse" markerWidth="11" markerHeight="11" orient="auto"><circle cx="5" cy="5" r="5" class="arrowMarkerPath" style="stroke-width: 1; stroke-dasharray: 1, 0;"/></marker><marker id="my-svg_flowchart-v2-circleStart" class="marker flowchart-v2" viewBox="0 0 10 10" refX="-1" refY="5" markerUnits="userSpaceOnUse" markerWidth="11" markerHeight="11" orient="auto"><circle cx="5" cy="5" r="5" class="arrowMarkerPath" style="stroke-width: 1; stroke-dasharray: 1, 0;"/></marker><marker id="my-svg_flowchart-v2-circleEnd-margin" class="marker flowchart-v2" viewBox="0 0 10 10" refY="5" refX="12.25" markerUnits="userSpaceOnUse" markerWidth="14" markerHeight="14" orient="auto"><circle cx="5" cy="5" r="5" class="arrowMarkerPath" style="stroke-width: 0; stroke-dasharray: 1, 0;"/></marker><marker id="my-svg_flowchart-v2-circleStart-margin" class="marker flowchart-v2" viewBox="0 0 10 10" refX="-2" refY="5" markerUnits="userSpaceOnUse" markerWidth="14" markerHeight="14" orient="auto"><circle cx="5" cy="5" r="5" class="arrowMarkerPath" style="stroke-width: 0; stroke-dasharray: 1, 0;"/></marker><marker id="my-svg_flowchart-v2-crossEnd" class="marker cross flowchart-v2" viewBox="0 0 11 11" refX="12" refY="5.2" markerUnits="userSpaceOnUse" markerWidth="11" markerHeight="11" orient="auto"><path d="M 1,1 l 9,9 M 10,1 l -9,9" class="arrowMarkerPath" style="stroke-width: 2; stroke-dasharray: 1, 0;"/></marker><marker id="my-svg_flowchart-v2-crossStart" class="marker cross flowchart-v2" viewBox="0 0 11 11" refX="-1" refY="5.2" markerUnits="userSpaceOnUse" markerWidth="11" markerHeight="11" orient="auto"><path d="M 1,1 l 9,9 M 10,1 l -9,9" class="arrowMarkerPath" style="stroke-width: 2; stroke-dasharray: 1, 0;"/></marker><marker id="my-svg_flowchart-v2-crossEnd-margin" class="marker cross flowchart-v2" viewBox="0 0 15 15" refX="17.7" refY="7.5" markerUnits="userSpaceOnUse" markerWidth="12" markerHeight="12" orient="auto"><path d="M 1,1 L 14,14 M 1,14 L 14,1" class="arrowMarkerPath" style="stroke-width: 2.5;"/></marker><marker id="my-svg_flowchart-v2-crossStart-margin" class="marker cross flowchart-v2" viewBox="0 0 15 15" refX="-3.5" refY="7.5" markerUnits="userSpaceOnUse" markerWidth="12" markerHeight="12" orient="auto"><path d="M 1,1 L 14,14 M 1,14 L 14,1" class="arrowMarkerPath" style="stroke-width: 2.5; stroke-dasharray: 1, 0;"/></marker><g class="root"><g class="clusters"/><g class="edgePaths"><path d="M354.813,187.25L377.008,179.042C399.203,170.833,443.594,154.417,485.973,156.796C528.353,159.175,568.721,180.35,588.905,190.937L609.089,201.525" id="my-svg-L_term_inverters_sys_root_0" class="edge-thickness-normal edge-pattern-solid edge-thickness-normal edge-pattern-solid flowchart-link" style=";" data-edge="true" data-et="edge" data-id="L_term_inverters_sys_root_0" data-points="W3sieCI6MzU0LjgxMjU3Njg0NDI2MjMsInkiOjE4Ny4yNX0seyJ4Ijo0ODcuOTg0Mzc1LCJ5IjoxMzh9LHsieCI6NjEyLjYzMTIyMDQ4MDIwOCwieSI6MjAzLjM4MjY4MDQyOTI5NjA0fV0=" data-look="classic" marker-end="url(#my-svg_flowchart-v2-pointEnd)"/><path d="M608.988,264.225L588.82,271.896C568.653,279.567,528.319,294.908,484.057,291.361C439.796,287.813,391.607,265.376,367.513,254.157L343.419,242.938" id="my-svg-L_sys_root_term_inverters_0" class="edge-thickness-normal edge-pattern-solid edge-thickness-normal edge-pattern-solid flowchart-link" style=";" data-edge="true" data-et="edge" data-id="L_sys_root_term_inverters_0" data-points="W3sieCI6NjA4Ljk4NzY5Nzg5NDM3OTYsInkiOjI2NC4yMjUwMzQwNjgzOTA2fSx7IngiOjQ4Ny45ODQzNzUsInkiOjMxMC4yNX0seyJ4IjozMzkuNzkyNzI0NjA5Mzc1LCJ5IjoyNDEuMjV9XQ==" data-look="classic" marker-end="url(#my-svg_flowchart-v2-pointEnd)"/><path d="M371.828,295.545L391.188,290.663C410.547,285.78,449.266,276.015,487.46,268.322C525.655,260.629,563.326,255.008,582.161,252.198L600.997,249.387" id="my-svg-L_term_meter_sys_root_0" class="edge-thickness-normal edge-pattern-solid edge-thickness-normal edge-pattern-solid flowchart-link" style=";" data-edge="true" data-et="edge" data-id="L_term_meter_sys_root_0" data-points="W3sieCI6MzcxLjgyODEyNSwieSI6Mjk1LjU0NTQ0MTYyNzgyNzY0fSx7IngiOjQ4Ny45ODQzNzUsInkiOjI2Ni4yNX0seyJ4Ijo2MDQuOTUzMDEyNDExMjI0OCwieSI6MjQ4Ljc5NzExNzUzMjk5NzgyfV0=" data-look="classic" marker-end="url(#my-svg_flowchart-v2-pointEnd)"/><path d="M1002.531,91.981L981.698,97.417C960.865,102.853,919.198,113.726,876.495,131.595C833.792,149.465,790.052,174.333,768.183,186.766L746.313,199.2" id="my-svg-L_term_battery_system_sys_root_0" class="edge-thickness-normal edge-pattern-solid edge-thickness-normal edge-pattern-solid flowchart-link" style=";" data-edge="true" data-et="edge" data-id="L_term_battery_system_sys_root_0" data-points="W3sieCI6MTAwMi41MzEyNSwieSI6OTEuOTgxMzUxMTMxMDgxMjh9LHsieCI6ODc3LjUzMTI1LCJ5IjoxMjQuNTk3NjU2MjV9LHsieCI6NzQyLjgzNTY4MzA2NDc1NiwieSI6MjAxLjE3NzEzMzc2ODY2MDl9XQ==" data-look="classic" marker-end="url(#my-svg_flowchart-v2-pointEnd)"/><path d="M729.931,184.529L754.531,159.108C779.131,133.686,828.331,82.843,873.109,61.086C917.886,39.329,958.241,46.657,978.418,50.322L998.596,53.986" id="my-svg-L_sys_root_term_battery_system_0" class="edge-thickness-normal edge-pattern-solid edge-thickness-normal edge-pattern-solid flowchart-link" style=";" data-edge="true" data-et="edge" data-id="L_sys_root_term_battery_system_0" data-points="W3sieCI6NzI5LjkzMTMyOTYxMDQ2LCJ5IjoxODQuNTI5MTc5OTk3MDExMTd9LHsieCI6ODc3LjUzMTI1LCJ5IjozMn0seyJ4IjoxMDAyLjUzMTI1LCJ5Ijo1NC43MDA5NjcwMzEzMjU4NDV9XQ==" data-look="classic" marker-end="url(#my-svg_flowchart-v2-pointEnd)"/><path d="M1033.211,264.317L1007.264,267.572C981.318,270.827,929.424,277.338,882.977,275.858C836.53,274.379,795.528,264.911,775.027,260.176L754.526,255.442" id="my-svg-L_term_user_sys_root_0" class="edge-thickness-normal edge-pattern-solid edge-thickness-normal edge-pattern-solid flowchart-link" style=";" data-edge="true" data-et="edge" data-id="L_term_user_sys_root_0" data-points="W3sieCI6MTAzMy4yMTA5Mzc1LCJ5IjoyNjQuMzE3MjE3MTY1NTA2MX0seyJ4Ijo4NzcuNTMxMjUsInkiOjI4My44NDc2NTYyNX0seyJ4Ijo3NTAuNjI4NjYzMjM1MjUxOCwieSI6MjU0LjU0MjE1MjQzMTA4NjUyfV0=" data-look="classic" marker-end="url(#my-svg_flowchart-v2-pointEnd)"/><path d="M752.527,237.01L773.361,236.774C794.195,236.539,835.863,236.068,881.981,238.491C928.098,240.914,978.666,246.231,1003.949,248.889L1029.233,251.548" id="my-svg-L_sys_root_term_user_0" class="edge-thickness-normal edge-pattern-solid edge-thickness-normal edge-pattern-solid flowchart-link" style=";" data-edge="true" data-et="edge" data-id="L_sys_root_term_user_0" data-points="W3sieCI6NzUyLjUyNjUxNzI3MDA0MywieSI6MjM3LjAwOTY0MDUyMzY4ODE4fSx7IngiOjg3Ny41MzEyNSwieSI6MjM1LjU5NzY1NjI1fSx7IngiOjEwMzMuMjEwOTM3NSwieSI6MjUxLjk2NjAyNDI0NDYyMzQ0fV0=" data-look="classic" marker-end="url(#my-svg_flowchart-v2-pointEnd)"/><path d="M740.72,278.013L763.521,292.694C786.323,307.374,831.927,336.736,878.16,351.498C924.393,366.26,971.256,366.422,994.687,366.503L1018.118,366.584" id="my-svg-L_sys_root_term_smiles_cloud_0" class="edge-thickness-normal edge-pattern-dotted edge-thickness-normal edge-pattern-solid flowchart-link" style=";" data-edge="true" data-et="edge" data-id="L_sys_root_term_smiles_cloud_0" data-points="W3sieCI6NzQwLjcxOTUxOTI0NDE3MzIsInkiOjI3OC4wMTI3Mjk3MDYxODQ4N30seyJ4Ijo4NzcuNTMxMjUsInkiOjM2Ni4wOTc2NTYyNX0seyJ4IjoxMDIyLjExNzc0NDQ0NTc3MjcsInkiOjM2Ni41OTc2NTYyNX1d" data-look="classic" marker-end="url(#my-svg_flowchart-v2-pointEnd)"/><path d="M103.876,155.652L114.36,165.419C124.844,175.185,145.813,194.717,161.797,204.484C177.781,214.25,188.781,214.25,194.281,214.25L199.781,214.25" id="my-svg-L_term_grid_term_inverters_0" class="edge-thickness-normal edge-pattern-solid edge-thickness-normal edge-pattern-solid flowchart-link" style=";" data-edge="true" data-et="edge" data-id="L_term_grid_term_inverters_0" data-points="W3sieCI6MTAzLjg3NTYxMTA4MTMyMTYsInkiOjE1NS42NTIzNDM3NX0seyJ4IjoxNjYuNzgxMjUsInkiOjIxNC4yNX0seyJ4IjoxOTkuNzgxMjUsInkiOjIxNC4yNX1d" data-look="classic"/><path d="M122.012,101.652L129.473,97.377C136.935,93.102,151.858,84.551,178.49,80.275C205.122,76,243.464,76,296.997,76C350.531,76,419.258,76,485.346,76C551.435,76,614.885,76,679.81,76C744.734,76,811.133,76,865.165,75.403C919.198,74.805,960.865,73.61,981.698,73.013L1002.531,72.416" id="my-svg-L_term_grid_term_battery_system_0" class="edge-thickness-normal edge-pattern-solid edge-thickness-normal edge-pattern-solid flowchart-link" style=";" data-edge="true" data-et="edge" data-id="L_term_grid_term_battery_system_0" data-points="W3sieCI6MTIyLjAxMTkyNDc5OTY4ODQsInkiOjEwMS42NTIzNDM3NX0seyJ4IjoxNjYuNzgxMjUsInkiOjc2fSx7IngiOjI4MS44MDQ2ODc1LCJ5Ijo3Nn0seyJ4Ijo0ODcuOTg0Mzc1LCJ5Ijo3Nn0seyJ4Ijo2NzguMzM1OTM3NSwieSI6NzZ9LHsieCI6ODc3LjUzMTI1LCJ5Ijo3Nn0seyJ4IjoxMDAyLjUzMTI1LCJ5Ijo3Mi40MTU2MzY3ODQ1Mjc0OX1d" data-look="classic"/></g><g class="edgeLabels"><g class="edgeLabel" transform="translate(487.40625, 138.2138)"><g class="label" data-id="L_term_inverters_sys_root_0" transform="translate(-91.15625, -12)"><foreignObject width="182.3125" height="24"><div xmlns="http://www.w3.org/1999/xhtml" class="labelBkg" style="display: table-cell; white-space: nowrap; line-height: 1.5; max-width: 200px; text-align: center;"><span class="edgeLabel"><p>F1: per-channel telemetry</p></span></div></foreignObject></g></g><g class="edgeLabel" transform="translate(472.56982, 303.07278)"><g class="label" data-id="L_sys_root_term_inverters_0" transform="translate(-86.6953125, -12)"><foreignObject width="173.390625" height="24"><div xmlns="http://www.w3.org/1999/xhtml" class="labelBkg" style="display: table-cell; white-space: nowrap; line-height: 1.5; max-width: 200px; text-align: center;"><span class="edgeLabel"><p>F2: power-limit setpoints</p></span></div></foreignObject></g></g><g class="edgeLabel" transform="translate(487.24259, 266.43708)"><g class="label" data-id="L_term_meter_sys_root_0" transform="translate(-90.7109375, -12)"><foreignObject width="181.421875" height="24"><div xmlns="http://www.w3.org/1999/xhtml" class="labelBkg" style="display: table-cell; white-space: nowrap; line-height: 1.5; max-width: 200px; text-align: center;"><span class="edgeLabel"><p>F3: net grid power, V/I/PF</p></span></div></foreignObject></g></g><g class="edgeLabel" transform="translate(866.33536, 130.96294)"><g class="label" data-id="L_term_battery_system_sys_root_0" transform="translate(-77.8125, -12)"><foreignObject width="155.625" height="24"><div xmlns="http://www.w3.org/1999/xhtml" class="labelBkg" style="display: table-cell; white-space: nowrap; line-height: 1.5; max-width: 200px; text-align: center;"><span class="edgeLabel"><p>F4: SoC, mode, AC-in</p></span></div></foreignObject></g></g><g class="edgeLabel" transform="translate(847.90468, 62.61598)"><g class="label" data-id="L_sys_root_term_battery_system_0" transform="translate(-100, -24)"><foreignObject width="200" height="48"><div xmlns="http://www.w3.org/1999/xhtml" class="labelBkg" style="display: table; white-space: break-spaces; line-height: 1.5; max-width: 200px; text-align: center; width: 200px;"><span class="edgeLabel"><p>F5: max-charge, grid setpoint</p></span></div></foreignObject></g></g><g class="edgeLabel" transform="translate(890.75638, 282.18853)"><g class="label" data-id="L_term_user_sys_root_0" transform="translate(-68.4765625, -12)"><foreignObject width="136.953125" height="24"><div xmlns="http://www.w3.org/1999/xhtml" class="labelBkg" style="display: table-cell; white-space: nowrap; line-height: 1.5; max-width: 200px; text-align: center;"><span class="edgeLabel"><p>F6: config, override</p></span></div></foreignObject></g></g><g class="edgeLabel" transform="translate(877.53125, 235.59765625)"><g class="label" data-id="L_sys_root_term_user_0" transform="translate(-79.6015625, -12)"><foreignObject width="159.203125" height="24"><div xmlns="http://www.w3.org/1999/xhtml" class="labelBkg" style="display: table-cell; white-space: nowrap; line-height: 1.5; max-width: 200px; text-align: center;"><span class="edgeLabel"><p>F7: dashboards, alerts</p></span></div></foreignObject></g></g><g class="edgeLabel" transform="translate(877.53125, 366.09765625)"><g class="label" data-id="L_sys_root_term_smiles_cloud_0" transform="translate(-100, -24)"><foreignObject width="200" height="48"><div xmlns="http://www.w3.org/1999/xhtml" class="labelBkg" style="display: table; white-space: break-spaces; line-height: 1.5; max-width: 200px; text-align: center; width: 200px;"><span class="edgeLabel"><p>F8: optional telemetry forward</p></span></div></foreignObject></g></g><g class="edgeLabel"><g class="label" data-id="L_term_grid_term_inverters_0" transform="translate(0, 0)"><foreignObject width="0" height="0"><div xmlns="http://www.w3.org/1999/xhtml" class="labelBkg" style="display: table-cell; white-space: nowrap; line-height: 1.5; max-width: 200px; text-align: center;"><span class="edgeLabel"></span></div></foreignObject></g></g><g class="edgeLabel"><g class="label" data-id="L_term_grid_term_battery_system_0" transform="translate(0, 0)"><foreignObject width="0" height="0"><div xmlns="http://www.w3.org/1999/xhtml" class="labelBkg" style="display: table-cell; white-space: nowrap; line-height: 1.5; max-width: 200px; text-align: center;"><span class="edgeLabel"></span></div></foreignObject></g></g></g><g class="nodes"><g class="node default terminator" id="my-svg-flowchart-term_inverters-0" data-look="classic" transform="translate(281.8046875, 214.25)"><rect class="basic label-container" style="fill:#fafafa !important;stroke:#444 !important" x="-82.0234375" y="-27" width="164.046875" height="54"/><g class="label" style="" transform="translate(-52.0234375, -12)"><rect/><foreignObject width="104.046875" height="24"><div xmlns="http://www.w3.org/1999/xhtml" style="display: table-cell; white-space: nowrap; line-height: 1.5; max-width: 200px; text-align: center;"><span class="nodeLabel"><p>Solar Inverters</p></span></div></foreignObject></g></g><g class="node default terminator" id="my-svg-flowchart-term_meter-1" data-look="classic" transform="translate(281.8046875, 318.25)"><rect class="basic label-container" style="fill:#fafafa !important;stroke:#444 !important" x="-90.0234375" y="-27" width="180.046875" height="54"/><g class="label" style="" transform="translate(-60.0234375, -12)"><rect/><foreignObject width="120.046875" height="24"><div xmlns="http://www.w3.org/1999/xhtml" style="display: table-cell; white-space: nowrap; line-height: 1.5; max-width: 200px; text-align: center;"><span class="nodeLabel"><p>Net Power Meter</p></span></div></foreignObject></g></g><g class="node default terminator" id="my-svg-flowchart-term_battery_system-2" data-look="classic" transform="translate(1086.7734375, 70)"><rect class="basic label-container" style="fill:#fafafa !important;stroke:#444 !important" x="-84.2421875" y="-27" width="168.484375" height="54"/><g class="label" style="" transform="translate(-54.2421875, -12)"><rect/><foreignObject width="108.484375" height="24"><div xmlns="http://www.w3.org/1999/xhtml" style="display: table-cell; white-space: nowrap; line-height: 1.5; max-width: 200px; text-align: center;"><span class="nodeLabel"><p>Battery System</p></span></div></foreignObject></g></g><g class="node default grid" id="my-svg-flowchart-term_grid-3" data-look="classic" transform="translate(74.890625, 128.65234375)"><rect class="basic label-container" style="fill:#fef0ef !important;stroke:#e74c3c !important" x="-66.890625" y="-27" width="133.78125" height="54"/><g class="label" style="" transform="translate(-36.890625, -12)"><rect/><foreignObject width="73.78125" height="24"><div xmlns="http://www.w3.org/1999/xhtml" style="display: table-cell; white-space: nowrap; line-height: 1.5; max-width: 200px; text-align: center;"><span class="nodeLabel"><p>Utility Grid</p></span></div></foreignObject></g></g><g class="node default terminator" id="my-svg-flowchart-term_user-4" data-look="classic" transform="translate(1086.7734375, 257.59765625)"><rect class="basic label-container" style="fill:#fafafa !important;stroke:#444 !important" x="-53.5625" y="-27" width="107.125" height="54"/><g class="label" style="" transform="translate(-23.5625, -12)"><rect/><foreignObject width="47.125" height="24"><div xmlns="http://www.w3.org/1999/xhtml" style="display: table-cell; white-space: nowrap; line-height: 1.5; max-width: 200px; text-align: center;"><span class="nodeLabel"><p>Owner</p></span></div></foreignObject></g></g><g class="node default optional" id="my-svg-flowchart-term_smiles_cloud-5" data-look="classic" transform="translate(1086.7734375, 366.09765625)"><g class="basic label-container outer-path"><path d="M-33.671875 -31.5 C-9.192464665593846 -31.5, 15.286945668812308 -31.5, 33.671875 -31.5 C33.671875 -31.5, 33.671875 -31.5, 33.671875 -31.5 C34.17817936884093 -31.48376380435294, 34.684483737681866 -31.467527608705883, 35.69008692939246 -31.435279871635593 C36.22516624882848 -31.383661413216632, 36.7602455682645 -31.332042954797675, 37.70000559306194 -31.241385435432253 C38.22596866448837 -31.156351804948567, 38.7519317359148 -31.071318174464878, 39.693371804093225 -30.91911344521856 C40.21465934363639 -30.800132966036937, 40.73594688317955 -30.68115248685531, 41.66199439314948 -30.469788185729428 C42.400608851454635 -30.250571291570864, 43.1392233097598 -30.0313543974123, 43.59778386774405 -29.895256030836062 C44.17937041952494 -29.68122680365354, 44.76095697130584 -29.467197576471023, 45.49278565370028 -29.197877856399685 C45.92334709862714 -29.007281076882034, 46.353908543554 -28.81668429736438, 47.33921278220308 -28.380519338926202 C48.01258644496263 -28.029220730380963, 48.68596010772218 -27.67792212183572, 49.129477888124036 -27.44653917988677 C49.48540437190829 -27.230774453760567, 49.84133085569253 -27.015009727634368, 50.856224388132276 -26.399775304092984 C51.278007290935896 -26.105557809784763, 51.69979019373951 -25.811340315476542, 52.5123567104733 -25.244529088840633 C52.92366227939544 -24.91652384292609, 53.334967848317575 -24.588518597011547, 54.09106945219533 -23.985547688627737 C54.648180121557715 -23.479594519053382, 55.20529079092011 -22.973641349479024, 55.58587534400982 -22.62800452807842 C56.090940823310525 -22.106482954053416, 56.59600630261123 -21.584961380028414, 56.990631907872434 -21.177478043231485 C57.31313358705427 -20.7986492199991, 57.6356352662361 -20.419820396766717, 58.29956669774294 -19.63992875855011 C58.65251173652771 -19.16701456053302, 59.00545677531248 -18.69410036251593, 59.5073010198041 -18.02167479384835 C59.899921602522525 -17.418504145404327, 60.29254218524095 -16.815333496960307, 60.6088720346684 -16.329365901781543 C60.91683332098321 -15.78254945346784, 61.224794607298016 -15.23573300515414, 61.59975315074951 -14.56995614258631 C61.77980389025659 -14.19607692953118, 61.95985462976367 -13.822197716476051, 62.47587262499809 -12.750675308355413 C62.68137015601424 -12.243092433721044, 62.88686768703039 -11.735509559086676, 63.23363029456745 -10.878999214271206 C63.38789408332691 -10.414381261124595, 63.54215787208638 -9.949763307977983, 63.86991237065481 -8.962618978877531 C64.07273997907146 -8.189149401943277, 64.27556758748811 -7.415679825009025, 64.38210423372745 -7.009409419623907 C64.49534640557596 -6.42793480092327, 64.60858857742448 -5.846460182222634, 64.76810117755518 -5.027396693551458 C64.83601261224636 -4.500689016716295, 64.90392404693753 -3.9739813398811332, 65.02631705789975 -3.024725316091981 C65.06511610578856 -2.4203988271958594, 65.10391515367739 -1.816072338299738, 65.15569081032167 -1.0096246935071378 C65.15569081032167 -0.2403467064276288, 65.15569081032167 0.5289312806518802, 65.15569081032167 1.00962469350713 C65.1147763585829 1.646900304889464, 65.07386190684413 2.2841759162717983, 65.02631705789975 3.02472531609196 C64.94306039897276 3.670447521842749, 64.85980374004578 4.316169727593538, 64.76810117755518 5.027396693551435 C64.66808041518108 5.540982168946849, 64.56805965280698 6.054567644342262, 64.38210423372745 7.0094094196239 C64.2249963639267 7.60852981815564, 64.06788849412595 8.20765021668738, 63.869912370654816 8.96261897887751 C63.71626285972091 9.425386825085408, 63.56261334878701 9.888154671293307, 63.233630294567455 10.878999214271184 C62.94123744425129 11.601215207583287, 62.64884459393513 12.323431200895389, 62.47587262499809 12.750675308355405 C62.206061954930526 13.310942937774222, 61.93625128486296 13.871210567193039, 61.59975315074951 14.569956142586303 C61.296909327768915 15.107686016550751, 60.99406550478833 15.645415890515197, 60.60887203466841 16.329365901781536 C60.323017685645084 16.768514944521854, 60.03716333662177 17.207663987262173, 59.50730101980412 18.021674793848334 C59.07179569541884 18.605212253173356, 58.63629037103357 19.188749712498378, 58.29956669774295 19.639928758550102 C57.950820686294314 20.04958566780788, 57.60207467484568 20.459242577065652, 56.99063190787245 21.177478043231467 C56.65449751620327 21.524564399776686, 56.318363124534095 21.871650756321905, 55.58587534400983 22.628004528078414 C55.05756973873837 23.107797700585614, 54.52926413346692 23.587590873092818, 54.091069452195356 23.985547688627715 C53.55809609912147 24.410579754687568, 53.02512274604758 24.83561182074742, 52.51235671047331 25.24452908884063 C51.94088037910827 25.643166238789213, 51.36940404774324 26.0418033887378, 50.8562243881323 26.399775304092973 C50.33614085018582 26.715053001146245, 49.816057312239344 27.03033069819952, 49.12947788812404 27.446539179886766 C48.44448036746078 27.803901947654936, 47.75948284679752 28.16126471542311, 47.339212782203084 28.3805193389262 C46.79595713931086 28.621002496928515, 46.252701496418624 28.861485654930828, 45.492785653700295 29.197877856399682 C44.95622819393745 29.395335961475197, 44.419670734174595 29.592794066550713, 43.59778386774407 29.895256030836055 C43.02723057292303 30.064593253843583, 42.45667727810199 30.233930476851107, 41.66199439314951 30.46978818572942 C40.974835023246875 30.626627827775746, 40.28767565334424 30.78346746982207, 39.69337180409324 30.919113445218557 C39.160899179646826 31.00519948975218, 38.628426555200406 31.0912855342858, 37.70000559306196 31.24138543543225 C37.129670196022964 31.29640500525593, 36.55933479898397 31.351424575079616, 35.69008692939246 31.435279871635593 C34.93460077597882 31.45950684211098, 34.17911462256519 31.483733812586365, 33.67187500000001 31.5 C33.67187500000001 31.5, 33.671875 31.5, 33.671875 31.5 C8.699532382158843 31.5, -16.272810235682314 31.5, -33.67187499999999 31.5 C-34.11435639922762 31.485810482764567, -34.55683779845525 31.47162096552913, -35.69008692939244 31.435279871635593 C-36.23224077830664 31.38297894186624, -36.77439462722084 31.330678012096886, -37.700005593061945 31.24138543543225 C-38.455246511906154 31.119283940654316, -39.21048743075036 30.997182445876387, -39.693371804093225 30.919113445218557 C-40.47393662985934 30.740954617398955, -41.25450145562546 30.562795789579358, -41.66199439314947 30.469788185729428 C-42.33442515271148 30.270214265952507, -43.0068559122735 30.070640346175587, -43.597783867744035 29.89525603083607 C-44.18941307350968 29.677531014153885, -44.78104227927532 29.459805997471705, -45.49278565370029 29.197877856399685 C-46.1727289958168 28.896887108647316, -46.852672337933306 28.59589636089495, -47.33921278220308 28.380519338926206 C-47.73344118375779 28.174850634350456, -48.1276695853125 27.969181929774706, -49.12947788812403 27.446539179886773 C-49.67221383403765 27.117529460003496, -50.21494977995126 26.788519740120215, -50.85622438813226 26.399775304092994 C-51.404460167831424 26.017349756919256, -51.952695947530586 25.63492420974552, -52.5123567104733 25.244529088840636 C-53.115470804892155 24.76356164808169, -53.718584899311004 24.28259420732275, -54.09106945219533 23.98554768862774 C-54.64604493939302 23.48153363500154, -55.20102042659071 22.977519581375336, -55.58587534400981 22.628004528078435 C-55.940379311341765 22.26195007649119, -56.294883278673716 21.89589562490394, -56.99063190787244 21.177478043231478 C-57.296110385705646 20.818645640950788, -57.60158886353886 20.459813238670094, -58.29956669774293 19.639928758550113 C-58.651660149278236 19.168155609866115, -59.00375360081354 18.696382461182118, -59.5073010198041 18.021674793848355 C-59.936374085177995 17.362503343183374, -60.36544715055188 16.703331892518392, -60.608872034668394 16.329365901781557 C-60.90051873181422 15.81151765856867, -61.192165428960045 15.293669415355781, -61.5997531507495 14.569956142586314 C-61.87373133474434 14.001034581326989, -62.14770951873919 13.432113020067666, -62.47587262499809 12.750675308355417 C-62.69328293970423 12.213667627688755, -62.91069325441038 11.676659947022094, -63.23363029456745 10.878999214271209 C-63.44645186408336 10.238014555401522, -63.65927343359927 9.597029896531833, -63.86991237065481 8.962618978877522 C-64.0593656228018 8.240151618882114, -64.24881887494881 7.517684258886706, -64.38210423372743 7.009409419623911 C-64.49735026597423 6.417645401294135, -64.61259629822104 5.82588138296436, -64.76810117755518 5.027396693551461 C-64.84553585212211 4.426828648816425, -64.92297052668903 3.82626060408139, -65.02631705789975 3.024725316091999 C-65.05715455525332 2.544406403230201, -65.0879920526069 2.0640874903684034, -65.15569081032167 1.0096246935071416 C-65.15569081032167 0.4738960586319153, -65.15569081032167 -0.061832576243310955, -65.15569081032167 -1.0096246935071262 C-65.1194836664934 -1.5735801845130568, -65.08327652266512 -2.137535675518987, -65.02631705789975 -3.024725316091956 C-64.92530321519006 -3.8081687327088236, -64.82428937248038 -4.591612149325691, -64.76810117755518 -5.027396693551446 C-64.68322444010856 -5.463220801635032, -64.59834770266194 -5.899044909718617, -64.38210423372745 -7.009409419623896 C-64.22004027333155 -7.627429539578177, -64.05797631293566 -8.245449659532458, -63.869912370654816 -8.962618978877506 C-63.71104808867089 -9.441092884627132, -63.55218380668697 -9.91956679037676, -63.23363029456746 -10.878999214271168 C-62.997442719805484 -11.462387090309367, -62.7612551450435 -12.045774966347567, -62.47587262499809 -12.750675308355401 C-62.19865844825355 -13.326316477798615, -61.921444271509024 -13.90195764724183, -61.59975315074951 -14.5699561425863 C-61.37614436960254 -14.966996176357126, -61.152535588455585 -15.364036210127955, -60.6088720346684 -16.329365901781546 C-60.20173687007559 -16.954834845695594, -59.79460170548278 -17.58030378960964, -59.50730101980411 -18.021674793848344 C-59.21215302625059 -18.417146216674702, -58.91700503269707 -18.81261763950106, -58.29956669774295 -19.639928758550102 C-57.864173906953084 -20.151365905163498, -57.42878111616323 -20.662803051776898, -56.990631907872455 -21.177478043231467 C-56.66532666910759 -21.513382410312992, -56.34002143034272 -21.84928677739452, -55.585875344009835 -22.628004528078403 C-55.15357219389389 -23.020610810899136, -54.72126904377796 -23.413217093719872, -54.091069452195356 -23.98554768862771 C-53.61097260014888 -24.36841215222099, -53.130875748102405 -24.75127661581427, -52.51235671047331 -25.244529088840626 C-51.99555117475538 -25.605030258406394, -51.47874563903744 -25.965531427972163, -50.856224388132304 -26.39977530409297 C-50.495478140237275 -26.6184617995472, -50.13473189234225 -26.837148295001434, -49.12947788812404 -27.446539179886763 C-48.51689912028104 -27.766121130695034, -47.90432035243803 -28.085703081503304, -47.33921278220309 -28.3805193389262 C-46.90645958048916 -28.57208634415733, -46.473706378775226 -28.763653349388466, -45.4927856537003 -29.19787785639968 C-44.83247608444658 -29.440877881719796, -44.172166515192856 -29.683877907039914, -43.59778386774408 -29.895256030836055 C-43.0251746147266 -30.065203451444336, -42.45256536170913 -30.23515087205262, -41.66199439314951 -30.469788185729417 C-40.95662660614131 -30.63078378015906, -40.25125881913311 -30.791779374588703, -39.69337180409324 -30.919113445218553 C-39.06955261105672 -31.019967694558602, -38.445733418020204 -31.120821943898655, -37.70000559306196 -31.24138543543225 C-37.145281164334456 -31.294899033917858, -36.59055673560695 -31.348412632403466, -35.69008692939246 -31.435279871635593 C-35.067545585810876 -31.45524356082104, -34.445004242229295 -31.475207250006484, -33.67187500000001 -31.5 C-33.67187500000001 -31.5, -33.671875 -31.5, -33.671875 -31.5" stroke="none" stroke-width="0" fill="#fafafa" style="fill:#fafafa !important;stroke:#888 !important;stroke-dasharray:5 5 !important"/><path d="M-33.671875 -31.5 C-11.122000280109852 -31.5, 11.427874439780297 -31.5, 33.671875 -31.5 M-33.671875 -31.5 C-15.653979418888834 -31.5, 2.3639161622223313 -31.5, 33.671875 -31.5 M33.671875 -31.5 C33.671875 -31.5, 33.671875 -31.5, 33.671875 -31.5 M33.671875 -31.5 C33.671875 -31.5, 33.671875 -31.5, 33.671875 -31.5 M33.671875 -31.5 C34.11070733937119 -31.485927501011698, 34.549539678742384 -31.471855002023393, 35.69008692939246 -31.435279871635593 M33.671875 -31.5 C34.38970798861358 -31.47698049323231, 35.10754097722716 -31.453960986464626, 35.69008692939246 -31.435279871635593 M35.69008692939246 -31.435279871635593 C36.138567217685306 -31.39201551760044, 36.58704750597815 -31.348751163565293, 37.70000559306194 -31.241385435432253 M35.69008692939246 -31.435279871635593 C36.23412894071751 -31.382796793109314, 36.778170952042565 -31.33031371458303, 37.70000559306194 -31.241385435432253 M37.70000559306194 -31.241385435432253 C38.2672383133719 -31.149679648167982, 38.83447103368186 -31.057973860903715, 39.693371804093225 -30.91911344521856 M37.70000559306194 -31.241385435432253 C38.46693909754107 -31.117393574086222, 39.233872602020206 -30.99340171274019, 39.693371804093225 -30.91911344521856 M39.693371804093225 -30.91911344521856 C40.454176805216164 -30.74546466842886, 41.21498180633911 -30.571815891639154, 41.66199439314948 -30.469788185729428 M39.693371804093225 -30.91911344521856 C40.293488526629595 -30.78214071942723, 40.893605249165965 -30.645167993635898, 41.66199439314948 -30.469788185729428 M41.66199439314948 -30.469788185729428 C42.41800772001581 -30.245407398710434, 43.17402104688214 -30.02102661169144, 43.59778386774405 -29.895256030836062 M41.66199439314948 -30.469788185729428 C42.11796255658814 -30.334459228246562, 42.5739307200268 -30.1991302707637, 43.59778386774405 -29.895256030836062 M43.59778386774405 -29.895256030836062 C44.04344546711226 -29.731248442617897, 44.489107066480464 -29.56724085439973, 45.49278565370028 -29.197877856399685 M43.59778386774405 -29.895256030836062 C44.25510584724578 -29.653355466161656, 44.9124278267475 -29.41145490148725, 45.49278565370028 -29.197877856399685 M45.49278565370028 -29.197877856399685 C46.07893673135501 -28.93840616187588, 46.665087809009734 -28.678934467352068, 47.33921278220308 -28.380519338926202 M45.49278565370028 -29.197877856399685 C45.97444413052231 -28.98466193660164, 46.456102607344334 -28.771446016803594, 47.33921278220308 -28.380519338926202 M47.33921278220308 -28.380519338926202 C47.719694969832084 -28.182022025350623, 48.10017715746108 -27.983524711775047, 49.129477888124036 -27.44653917988677 M47.33921278220308 -28.380519338926202 C48.042451622601135 -28.013640086336515, 48.745690462999185 -27.646760833746825, 49.129477888124036 -27.44653917988677 M49.129477888124036 -27.44653917988677 C49.541101998353525 -27.19701022529388, 49.952726108583015 -26.94748127070099, 50.856224388132276 -26.399775304092984 M49.129477888124036 -27.44653917988677 C49.48743509243752 -27.229543419041903, 49.845392296751015 -27.01254765819704, 50.856224388132276 -26.399775304092984 M50.856224388132276 -26.399775304092984 C51.43975483978889 -25.992729721643453, 52.023285291445504 -25.58568413919392, 52.5123567104733 -25.244529088840633 M50.856224388132276 -26.399775304092984 C51.359640575570914 -26.04861396427131, 51.86305676300955 -25.697452624449635, 52.5123567104733 -25.244529088840633 M52.5123567104733 -25.244529088840633 C53.11415668718391 -24.76460962198387, 53.715956663894524 -24.284690155127105, 54.09106945219533 -23.985547688627737 M52.5123567104733 -25.244529088840633 C52.884961783841014 -24.947386458267307, 53.25756685720873 -24.650243827693977, 54.09106945219533 -23.985547688627737 M54.09106945219533 -23.985547688627737 C54.68297963552059 -23.447990521216983, 55.27488981884586 -22.91043335380623, 55.58587534400982 -22.62800452807842 M54.09106945219533 -23.985547688627737 C54.67399551722586 -23.456149659745513, 55.256921582256396 -22.92675163086329, 55.58587534400982 -22.62800452807842 M55.58587534400982 -22.62800452807842 C55.87282893716377 -22.33170138381883, 56.15978253031771 -22.03539823955924, 56.990631907872434 -21.177478043231485 M55.58587534400982 -22.62800452807842 C55.974554426987076 -22.226661463758226, 56.36323350996433 -21.825318399438032, 56.990631907872434 -21.177478043231485 M56.990631907872434 -21.177478043231485 C57.50248338969553 -20.57622816750769, 58.014334871518614 -19.97497829178389, 58.29956669774294 -19.63992875855011 M56.990631907872434 -21.177478043231485 C57.415638428065996 -20.67824120105604, 57.84064494825956 -20.179004358880594, 58.29956669774294 -19.63992875855011 M58.29956669774294 -19.63992875855011 C58.76758844916951 -19.012822249297198, 59.23561020059608 -18.385715740044287, 59.5073010198041 -18.02167479384835 M58.29956669774294 -19.63992875855011 C58.6748165427842 -19.13712815215898, 59.05006638782545 -18.634327545767846, 59.5073010198041 -18.02167479384835 M59.5073010198041 -18.02167479384835 C59.928513697202 -17.374579009924208, 60.349726374599896 -16.727483226000064, 60.6088720346684 -16.329365901781543 M59.5073010198041 -18.02167479384835 C59.80765539908102 -17.560249810835206, 60.10800977835793 -17.09882482782206, 60.6088720346684 -16.329365901781543 M60.6088720346684 -16.329365901781543 C60.95316463720645 -15.718039522568773, 61.2974572397445 -15.106713143356005, 61.59975315074951 -14.56995614258631 M60.6088720346684 -16.329365901781543 C60.96937965005878 -15.68924812530137, 61.32988726544915 -15.049130348821198, 61.59975315074951 -14.56995614258631 M61.59975315074951 -14.56995614258631 C61.88128417240581 -13.98535095231812, 62.16281519406212 -13.40074576204993, 62.47587262499809 -12.750675308355413 M61.59975315074951 -14.56995614258631 C61.89503788035005 -13.956791083489698, 62.1903226099506 -13.343626024393087, 62.47587262499809 -12.750675308355413 M62.47587262499809 -12.750675308355413 C62.65798167850668 -12.300862425350166, 62.84009073201527 -11.851049542344919, 63.23363029456745 -10.878999214271206 M62.47587262499809 -12.750675308355413 C62.708424529594595 -12.176267607916841, 62.94097643419109 -11.601859907478271, 63.23363029456745 -10.878999214271206 M63.23363029456745 -10.878999214271206 C63.43039945967102 -10.28636183988817, 63.62716862477459 -9.693724465505138, 63.86991237065481 -8.962618978877531 M63.23363029456745 -10.878999214271206 C63.48174775414036 -10.131708958186218, 63.72986521371327 -9.38441870210123, 63.86991237065481 -8.962618978877531 M63.86991237065481 -8.962618978877531 C63.97266592962255 -8.570775124859374, 64.07541948859028 -8.178931270841217, 64.38210423372745 -7.009409419623907 M63.86991237065481 -8.962618978877531 C64.01917970947746 -8.393397923072916, 64.1684470483001 -7.824176867268302, 64.38210423372745 -7.009409419623907 M64.38210423372745 -7.009409419623907 C64.5144134704946 -6.330029452391628, 64.64672270726177 -5.650649485159349, 64.76810117755518 -5.027396693551458 M64.38210423372745 -7.009409419623907 C64.49030998829554 -6.45379573921112, 64.59851574286361 -5.8981820587983345, 64.76810117755518 -5.027396693551458 M64.76810117755518 -5.027396693551458 C64.83400200118972 -4.516282919031511, 64.89990282482427 -4.005169144511565, 65.02631705789975 -3.024725316091981 M64.76810117755518 -5.027396693551458 C64.8493435894055 -4.397296590369168, 64.93058600125583 -3.767196487186877, 65.02631705789975 -3.024725316091981 M65.02631705789975 -3.024725316091981 C65.05947479511745 -2.5082667944824153, 65.09263253233516 -1.9918082728728495, 65.15569081032167 -1.0096246935071378 M65.02631705789975 -3.024725316091981 C65.06011031662683 -2.4983680339901255, 65.09390357535392 -1.9720107518882704, 65.15569081032167 -1.0096246935071378 M65.15569081032167 -1.0096246935071378 C65.15569081032167 -0.2663312536157283, 65.15569081032167 0.4769621862756812, 65.15569081032167 1.00962469350713 M65.15569081032167 -1.0096246935071378 C65.15569081032167 -0.2024735811669346, 65.15569081032167 0.6046775311732686, 65.15569081032167 1.00962469350713 M65.15569081032167 1.00962469350713 C65.10612709609205 1.7816195497434935, 65.05656338186243 2.5536144059798573, 65.02631705789975 3.02472531609196 M65.15569081032167 1.00962469350713 C65.1167822509063 1.6156569128255391, 65.07787369149091 2.2216891321439487, 65.02631705789975 3.02472531609196 M65.02631705789975 3.02472531609196 C64.93386387414473 3.741773952349729, 64.84141069038972 4.458822588607498, 64.76810117755518 5.027396693551435 M65.02631705789975 3.02472531609196 C64.93768854014189 3.712110598141489, 64.84906002238404 4.399495880191018, 64.76810117755518 5.027396693551435 M64.76810117755518 5.027396693551435 C64.66078717173548 5.57843143261248, 64.55347316591576 6.129466171673526, 64.38210423372745 7.0094094196239 M64.76810117755518 5.027396693551435 C64.68224516672171 5.46824916350699, 64.59638915588825 5.909101633462544, 64.38210423372745 7.0094094196239 M64.38210423372745 7.0094094196239 C64.27238674277498 7.427809764487006, 64.16266925182252 7.846210109350112, 63.869912370654816 8.96261897887751 M64.38210423372745 7.0094094196239 C64.22133837888676 7.622479300493669, 64.06057252404608 8.235549181363439, 63.869912370654816 8.96261897887751 M63.869912370654816 8.96261897887751 C63.64940852644449 9.626741425122537, 63.428904682234155 10.290863871367565, 63.233630294567455 10.878999214271184 M63.869912370654816 8.96261897887751 C63.73796683315175 9.36001791517026, 63.606021295648695 9.757416851463013, 63.233630294567455 10.878999214271184 M63.233630294567455 10.878999214271184 C63.03278213590693 11.375098049297671, 62.83193397724639 11.871196884324156, 62.47587262499809 12.750675308355405 M63.233630294567455 10.878999214271184 C62.952015827166996 11.57459239339564, 62.670401359766544 12.270185572520095, 62.47587262499809 12.750675308355405 M62.47587262499809 12.750675308355405 C62.2890475406729 13.138621593373102, 62.102222456347704 13.5265678783908, 61.59975315074951 14.569956142586303 M62.47587262499809 12.750675308355405 C62.23285924305843 13.255297795606518, 61.989845861118766 13.75992028285763, 61.59975315074951 14.569956142586303 M61.59975315074951 14.569956142586303 C61.265846857867615 15.162840577276665, 60.93194056498573 15.755725011967025, 60.60887203466841 16.329365901781536 M61.59975315074951 14.569956142586303 C61.264677916375646 15.164916151263826, 60.92960268200178 15.75987615994135, 60.60887203466841 16.329365901781536 M60.60887203466841 16.329365901781536 C60.25200623087618 16.87760760829245, 59.895140427083945 17.425849314803365, 59.50730101980412 18.021674793848334 M60.60887203466841 16.329365901781536 C60.37238655247376 16.692671107676052, 60.13590107027912 17.055976313570564, 59.50730101980412 18.021674793848334 M59.50730101980412 18.021674793848334 C59.1398318413142 18.514050015893975, 58.772362662824285 19.006425237939613, 58.29956669774295 19.639928758550102 M59.50730101980412 18.021674793848334 C59.23092707732093 18.391990698591687, 58.95455313483774 18.762306603335038, 58.29956669774295 19.639928758550102 M58.29956669774295 19.639928758550102 C57.81556614382483 20.20846334959402, 57.331565589906724 20.776997940637933, 56.99063190787245 21.177478043231467 M58.29956669774295 19.639928758550102 C57.822717374438206 20.200063107199004, 57.345868051133465 20.760197455847905, 56.99063190787245 21.177478043231467 M56.99063190787245 21.177478043231467 C56.63876397180903 21.54081057611176, 56.286896035745606 21.904143108992052, 55.58587534400983 22.628004528078414 M56.99063190787245 21.177478043231467 C56.61517419827881 21.565168954038135, 56.23971648868517 21.952859864844807, 55.58587534400983 22.628004528078414 M55.58587534400983 22.628004528078414 C55.06848828052074 23.097881769827655, 54.55110121703165 23.567759011576896, 54.091069452195356 23.985547688627715 M55.58587534400983 22.628004528078414 C54.99846278062447 23.161477076060248, 54.411050217239115 23.694949624042078, 54.091069452195356 23.985547688627715 M54.091069452195356 23.985547688627715 C53.75513129016216 24.253449433159258, 53.41919312812896 24.521351177690796, 52.51235671047331 25.24452908884063 M54.091069452195356 23.985547688627715 C53.5233580494037 24.438282424919162, 52.95564664661204 24.891017161210613, 52.51235671047331 25.24452908884063 M52.51235671047331 25.24452908884063 C51.93902659585558 25.644459357737308, 51.365696481237855 26.044389626633986, 50.8562243881323 26.399775304092973 M52.51235671047331 25.24452908884063 C51.908961265006575 25.66543163103038, 51.30556581953984 26.08633417322013, 50.8562243881323 26.399775304092973 M50.8562243881323 26.399775304092973 C50.255547919325224 26.763908909450574, 49.65487145051815 27.128042514808172, 49.12947788812404 27.446539179886766 M50.8562243881323 26.399775304092973 C50.40642660636189 26.672445362707364, 49.956628824591476 26.945115421321756, 49.12947788812404 27.446539179886766 M49.12947788812404 27.446539179886766 C48.63276718603741 27.705672835006972, 48.136056483950775 27.96480649012718, 47.339212782203084 28.3805193389262 M49.12947788812404 27.446539179886766 C48.49680731280651 27.776603013785078, 47.864136737488984 28.106666847683385, 47.339212782203084 28.3805193389262 M47.339212782203084 28.3805193389262 C46.84407660970057 28.59970143480036, 46.34894043719806 28.81888353067452, 45.492785653700295 29.197877856399682 M47.339212782203084 28.3805193389262 C46.63826976294879 28.690806020814176, 45.93732674369449 29.001092702702156, 45.492785653700295 29.197877856399682 M45.492785653700295 29.197877856399682 C44.754295506490436 29.469649057100998, 44.01580535928058 29.74142025780231, 43.59778386774407 29.895256030836055 M45.492785653700295 29.197877856399682 C44.97838341945283 29.387182633684876, 44.46398118520537 29.576487410970067, 43.59778386774407 29.895256030836055 M43.59778386774407 29.895256030836055 C43.19722897747766 30.014138619711606, 42.79667408721124 30.133021208587152, 41.66199439314951 30.46978818572942 M43.59778386774407 29.895256030836055 C43.02040431966239 30.066619249979606, 42.4430247715807 30.237982469123157, 41.66199439314951 30.46978818572942 M41.66199439314951 30.46978818572942 C41.05111939079099 30.609216418685822, 40.44024438843246 30.748644651642223, 39.69337180409324 30.919113445218557 M41.66199439314951 30.46978818572942 C41.08689065486023 30.60105186109133, 40.51178691657095 30.73231553645324, 39.69337180409324 30.919113445218557 M39.69337180409324 30.919113445218557 C39.170990629297926 31.003567982432948, 38.64860945450262 31.08802251964734, 37.70000559306196 31.24138543543225 M39.69337180409324 30.919113445218557 C38.92293985116256 31.043670908579358, 38.15250789823188 31.168228371940163, 37.70000559306196 31.24138543543225 M37.70000559306196 31.24138543543225 C36.93931527170368 31.314768315869724, 36.1786249503454 31.388151196307195, 35.69008692939246 31.435279871635593 M37.70000559306196 31.24138543543225 C36.943824082256896 31.31433335633829, 36.18764257145183 31.387281277244334, 35.69008692939246 31.435279871635593 M35.69008692939246 31.435279871635593 C35.12067130253191 31.45353992248873, 34.55125567567136 31.471799973341867, 33.67187500000001 31.5 M35.69008692939246 31.435279871635593 C35.14554527686985 31.452742262545968, 34.60100362434725 31.47020465345634, 33.67187500000001 31.5 M33.67187500000001 31.5 C33.67187500000001 31.5, 33.671875 31.5, 33.671875 31.5 M33.67187500000001 31.5 C33.67187500000001 31.5, 33.67187500000001 31.5, 33.671875 31.5 M33.671875 31.5 C14.512391134591248 31.5, -4.647092730817505 31.5, -33.67187499999999 31.5 M33.671875 31.5 C11.125757731786884 31.5, -11.420359536426233 31.5, -33.67187499999999 31.5 M-33.67187499999999 31.5 C-34.384047890158094 31.477162001573067, -35.096220780316195 31.454324003146134, -35.69008692939244 31.435279871635593 M-33.67187499999999 31.5 C-34.202649057380356 31.48297910906884, -34.733423114760726 31.46595821813768, -35.69008692939244 31.435279871635593 M-35.69008692939244 31.435279871635593 C-36.382606046773965 31.36847338525789, -37.07512516415549 31.30166689888019, -37.700005593061945 31.24138543543225 M-35.69008692939244 31.435279871635593 C-36.468387361723764 31.36019816497181, -37.246687794055084 31.285116458308025, -37.700005593061945 31.24138543543225 M-37.700005593061945 31.24138543543225 C-38.32207516760723 31.140814050841367, -38.94414474215252 31.04024266625049, -39.693371804093225 30.919113445218557 M-37.700005593061945 31.24138543543225 C-38.49606041091179 31.112685465979602, -39.292115228761624 30.98398549652695, -39.693371804093225 30.919113445218557 M-39.693371804093225 30.919113445218557 C-40.120389732508144 30.82164938961025, -40.547407660923064 30.724185334001945, -41.66199439314947 30.469788185729428 M-39.693371804093225 30.919113445218557 C-40.14150220201129 30.8168306062179, -40.58963259992935 30.71454776721724, -41.66199439314947 30.469788185729428 M-41.66199439314947 30.469788185729428 C-42.23714537914325 30.29908639211561, -42.81229636513704 30.128384598501786, -43.597783867744035 29.89525603083607 M-41.66199439314947 30.469788185729428 C-42.3870082897278 30.25460786690058, -43.112022186306135 30.03942754807174, -43.597783867744035 29.89525603083607 M-43.597783867744035 29.89525603083607 C-44.09510207105625 29.712238334858096, -44.592420274368465 29.529220638880126, -45.49278565370029 29.197877856399685 M-43.597783867744035 29.89525603083607 C-44.00398207596879 29.745771335354284, -44.41018028419355 29.596286639872496, -45.49278565370029 29.197877856399685 M-45.49278565370029 29.197877856399685 C-46.02935873775758 28.960352868962534, -46.56593182181487 28.722827881525383, -47.33921278220308 28.380519338926206 M-45.49278565370029 29.197877856399685 C-45.87460590728381 29.02885735643366, -46.25642616086732 28.859836856467638, -47.33921278220308 28.380519338926206 M-47.33921278220308 28.380519338926206 C-47.846953231432046 28.11563147178673, -48.354693680661015 27.850743604647256, -49.12947788812403 27.446539179886773 M-47.33921278220308 28.380519338926206 C-47.86500216949755 28.106215352358856, -48.390791556792024 27.831911365791505, -49.12947788812403 27.446539179886773 M-49.12947788812403 27.446539179886773 C-49.78632942379171 27.048351918876936, -50.443180959459404 26.650164657867098, -50.85622438813226 26.399775304092994 M-49.12947788812403 27.446539179886773 C-49.64922421218407 27.131465903873146, -50.16897053624412 26.816392627859514, -50.85622438813226 26.399775304092994 M-50.85622438813226 26.399775304092994 C-51.28647132838215 26.099653663664533, -51.71671826863203 25.799532023236075, -52.5123567104733 25.244529088840636 M-50.85622438813226 26.399775304092994 C-51.22647467552007 26.141504731487874, -51.596724962907885 25.883234158882754, -52.5123567104733 25.244529088840636 M-52.5123567104733 25.244529088840636 C-52.94596100530914 24.898741202403937, -53.379565300144975 24.552953315967237, -54.09106945219533 23.98554768862774 M-52.5123567104733 25.244529088840636 C-52.94821693602224 24.896942157693072, -53.384077161571184 24.549355226545508, -54.09106945219533 23.98554768862774 M-54.09106945219533 23.98554768862774 C-54.51355808978373 23.601854686406746, -54.93604672737213 23.218161684185752, -55.58587534400981 22.628004528078435 M-54.09106945219533 23.98554768862774 C-54.6585034366379 23.47021915743751, -55.22593742108048 22.954890626247277, -55.58587534400981 22.628004528078435 M-55.58587534400981 22.628004528078435 C-55.88425198219456 22.319906151975097, -56.18262862037932 22.011807775871755, -56.99063190787244 21.177478043231478 M-55.58587534400981 22.628004528078435 C-55.99687550397424 22.203613119174484, -56.40787566393866 21.77922171027053, -56.99063190787244 21.177478043231478 M-56.99063190787244 21.177478043231478 C-57.47346600522749 20.61031363843979, -57.956300102582546 20.0431492336481, -58.29956669774293 19.639928758550113 M-56.99063190787244 21.177478043231478 C-57.29242855156443 20.822970532835367, -57.594225195256406 20.468463022439252, -58.29956669774293 19.639928758550113 M-58.29956669774293 19.639928758550113 C-58.77694364405771 19.000287140422795, -59.25432059037249 18.36064552229548, -59.5073010198041 18.021674793848355 M-58.29956669774293 19.639928758550113 C-58.614033834713624 19.218571443554925, -58.928500971684315 18.797214128559734, -59.5073010198041 18.021674793848355 M-59.5073010198041 18.021674793848355 C-59.7301810007266 17.6792712914965, -59.953060981649095 17.336867789144648, -60.608872034668394 16.329365901781557 M-59.5073010198041 18.021674793848355 C-59.909205398707485 17.4042417414159, -60.31110977761087 16.786808688983438, -60.608872034668394 16.329365901781557 M-60.608872034668394 16.329365901781557 C-60.93814285206433 15.7447122232093, -61.26741366946026 15.16005854463704, -61.5997531507495 14.569956142586314 M-60.608872034668394 16.329365901781557 C-60.931242184641285 15.756965056987259, -61.25361233461418 15.18456421219296, -61.5997531507495 14.569956142586314 M-61.5997531507495 14.569956142586314 C-61.93035115881952 13.883462305164732, -62.26094916688953 13.196968467743153, -62.47587262499809 12.750675308355417 M-61.5997531507495 14.569956142586314 C-61.945133982315376 13.852765455873822, -62.29051481388126 13.135574769161332, -62.47587262499809 12.750675308355417 M-62.47587262499809 12.750675308355417 C-62.641550872246334 12.341446834481257, -62.80722911949457 11.932218360607095, -63.23363029456745 10.878999214271209 M-62.47587262499809 12.750675308355417 C-62.706198747172515 12.181765333531954, -62.93652486934694 11.612855358708492, -63.23363029456745 10.878999214271209 M-63.23363029456745 10.878999214271209 C-63.39908595091645 10.38067313912685, -63.564541607265454 9.882347063982492, -63.86991237065481 8.962618978877522 M-63.23363029456745 10.878999214271209 C-63.46272249941412 10.189009994158944, -63.6918147042608 9.499020774046679, -63.86991237065481 8.962618978877522 M-63.86991237065481 8.962618978877522 C-64.00566625863465 8.444930567903134, -64.1414201466145 7.927242156928747, -64.38210423372743 7.009409419623911 M-63.86991237065481 8.962618978877522 C-64.02728434817416 8.362491423149716, -64.18465632569351 7.762363867421912, -64.38210423372743 7.009409419623911 M-64.38210423372743 7.009409419623911 C-64.51659890163886 6.318807725356921, -64.65109356955027 5.628206031089931, -64.76810117755518 5.027396693551461 M-64.38210423372743 7.009409419623911 C-64.4705973365987 6.555016039403894, -64.55909043946997 6.100622659183876, -64.76810117755518 5.027396693551461 M-64.76810117755518 5.027396693551461 C-64.86932931880997 4.2422912197367335, -64.97055746006478 3.457185745922007, -65.02631705789975 3.024725316091999 M-64.76810117755518 5.027396693551461 C-64.86194241797399 4.299582563912059, -64.9557836583928 3.5717684342726574, -65.02631705789975 3.024725316091999 M-65.02631705789975 3.024725316091999 C-65.05529866588012 2.573313378264762, -65.0842802738605 2.121901440437525, -65.15569081032167 1.0096246935071416 M-65.02631705789975 3.024725316091999 C-65.06642950366079 2.399941595180367, -65.10654194942182 1.775157874268735, -65.15569081032167 1.0096246935071416 M-65.15569081032167 1.0096246935071416 C-65.15569081032167 0.5391226305221193, -65.15569081032167 0.068620567537097, -65.15569081032167 -1.0096246935071262 M-65.15569081032167 1.0096246935071416 C-65.15569081032167 0.3589419372421401, -65.15569081032167 -0.2917408190228614, -65.15569081032167 -1.0096246935071262 M-65.15569081032167 -1.0096246935071262 C-65.11407854906413 -1.6577692514060718, -65.07246628780659 -2.305913809305017, -65.02631705789975 -3.024725316091956 M-65.15569081032167 -1.0096246935071262 C-65.11518419002036 -1.64054800105544, -65.07467756971906 -2.2714713086037537, -65.02631705789975 -3.024725316091956 M-65.02631705789975 -3.024725316091956 C-64.93287897078058 -3.7494126683509563, -64.83944088366141 -4.474100020609956, -64.76810117755518 -5.027396693551446 M-65.02631705789975 -3.024725316091956 C-64.93765945925051 -3.712336143792366, -64.84900186060128 -4.399946971492776, -64.76810117755518 -5.027396693551446 M-64.76810117755518 -5.027396693551446 C-64.67372632411332 -5.511991619843094, -64.57935147067144 -5.996586546134742, -64.38210423372745 -7.009409419623896 M-64.76810117755518 -5.027396693551446 C-64.68102365051475 -5.474521391062218, -64.59394612347431 -5.921646088572991, -64.38210423372745 -7.009409419623896 M-64.38210423372745 -7.009409419623896 C-64.192665648551 -7.731820848103842, -64.00322706337457 -8.454232276583788, -63.869912370654816 -8.962618978877506 M-64.38210423372745 -7.009409419623896 C-64.25309528213138 -7.501376464893012, -64.1240863305353 -7.993343510162127, -63.869912370654816 -8.962618978877506 M-63.869912370654816 -8.962618978877506 C-63.74196560501403 -9.34797425143885, -63.61401883937325 -9.733329524000194, -63.23363029456746 -10.878999214271168 M-63.869912370654816 -8.962618978877506 C-63.73190013139263 -9.378289854271097, -63.59388789213044 -9.793960729664688, -63.23363029456746 -10.878999214271168 M-63.23363029456746 -10.878999214271168 C-63.036859099827055 -11.365027869592218, -62.84008790508665 -11.851056524913266, -62.47587262499809 -12.750675308355401 M-63.23363029456746 -10.878999214271168 C-62.969935046088466 -11.530331576215083, -62.70623979760947 -12.181663938159, -62.47587262499809 -12.750675308355401 M-62.47587262499809 -12.750675308355401 C-62.19535311420831 -13.333180074666386, -61.91483360341853 -13.91568484097737, -61.59975315074951 -14.5699561425863 M-62.47587262499809 -12.750675308355401 C-62.165200067907755 -13.395793520481325, -61.85452751081742 -14.040911732607249, -61.59975315074951 -14.5699561425863 M-61.59975315074951 -14.5699561425863 C-61.2951523018774 -15.110805793939306, -60.99055145300529 -15.651655445292313, -60.6088720346684 -16.329365901781546 M-61.59975315074951 -14.5699561425863 C-61.23482293830327 -15.217926687975677, -60.86989272585703 -15.865897233365052, -60.6088720346684 -16.329365901781546 M-60.6088720346684 -16.329365901781546 C-60.38244088515055 -16.677224952718152, -60.1560097356327 -17.025084003654758, -59.50730101980411 -18.021674793848344 M-60.6088720346684 -16.329365901781546 C-60.22191723408107 -16.923832387396686, -59.834962433493736 -17.518298873011826, -59.50730101980411 -18.021674793848344 M-59.50730101980411 -18.021674793848344 C-59.16260579920542 -18.48353498706998, -58.817910578606735 -18.945395180291616, -58.29956669774295 -19.639928758550102 M-59.50730101980411 -18.021674793848344 C-59.26017849458932 -18.352796464310977, -59.01305596937453 -18.68391813477361, -58.29956669774295 -19.639928758550102 M-58.29956669774295 -19.639928758550102 C-58.02164657276363 -19.966389551453915, -57.74372644778431 -20.292850344357728, -56.990631907872455 -21.177478043231467 M-58.29956669774295 -19.639928758550102 C-57.95642563407283 -20.04300177721667, -57.61328457040271 -20.446074795883238, -56.990631907872455 -21.177478043231467 M-56.990631907872455 -21.177478043231467 C-56.51204137314432 -21.671662063351917, -56.03345083841619 -22.165846083472367, -55.585875344009835 -22.628004528078403 M-56.990631907872455 -21.177478043231467 C-56.57787810595359 -21.603680231430054, -56.16512430403473 -22.029882419628645, -55.585875344009835 -22.628004528078403 M-55.585875344009835 -22.628004528078403 C-55.15000651067801 -23.023849070052997, -54.71413767734619 -23.419693612027586, -54.091069452195356 -23.98554768862771 M-55.585875344009835 -22.628004528078403 C-55.04504066341113 -23.119176275296645, -54.50420598281243 -23.610348022514888, -54.091069452195356 -23.98554768862771 M-54.091069452195356 -23.98554768862771 C-53.6312443406384 -24.35224597863426, -53.17141922908146 -24.718944268640815, -52.51235671047331 -25.244529088840626 M-54.091069452195356 -23.98554768862771 C-53.49245631284806 -24.462925737492537, -52.89384317350076 -24.94030378635736, -52.51235671047331 -25.244529088840626 M-52.51235671047331 -25.244529088840626 C-51.898259711826256 -25.672896571266197, -51.28416271317921 -26.101264053691768, -50.856224388132304 -26.39977530409297 M-52.51235671047331 -25.244529088840626 C-52.169845428757405 -25.48345013189123, -51.82733414704149 -25.722371174941834, -50.856224388132304 -26.39977530409297 M-50.856224388132304 -26.39977530409297 C-50.46979018934907 -26.634033986334785, -50.08335599056584 -26.868292668576604, -49.12947788812404 -27.446539179886763 M-50.856224388132304 -26.39977530409297 C-50.16853750527328 -26.81665513377881, -49.48085062241426 -27.23353496346465, -49.12947788812404 -27.446539179886763 M-49.12947788812404 -27.446539179886763 C-48.73229059669079 -27.65375153541689, -48.33510330525754 -27.860963890947016, -47.33921278220309 -28.3805193389262 M-49.12947788812404 -27.446539179886763 C-48.5242563475656 -27.76228286993321, -47.919034807007144 -28.078026559979655, -47.33921278220309 -28.3805193389262 M-47.33921278220309 -28.3805193389262 C-46.93875700626514 -28.5577892318354, -46.538301230327185 -28.735059124744605, -45.4927856537003 -29.19787785639968 M-47.33921278220309 -28.3805193389262 C-46.67002700490022 -28.676748031847392, -46.00084122759734 -28.972976724768586, -45.4927856537003 -29.19787785639968 M-45.4927856537003 -29.19787785639968 C-44.80388814509668 -29.451398507664575, -44.114990636493054 -29.70491915892947, -43.59778386774408 -29.895256030836055 M-45.4927856537003 -29.19787785639968 C-44.99277002604486 -29.381888229470675, -44.492754398389415 -29.565898602541672, -43.59778386774408 -29.895256030836055 M-43.59778386774408 -29.895256030836055 C-43.18582295592817 -30.017523867036065, -42.77386204411225 -30.139791703236074, -41.66199439314951 -30.469788185729417 M-43.59778386774408 -29.895256030836055 C-42.984684077710114 -30.077220830291665, -42.37158428767615 -30.259185629747275, -41.66199439314951 -30.469788185729417 M-41.66199439314951 -30.469788185729417 C-40.9981210397699 -30.62131294645982, -40.33424768639029 -30.77283770719022, -39.69337180409324 -30.919113445218553 M-41.66199439314951 -30.469788185729417 C-41.12931121216731 -30.591369645705992, -40.596628031185105 -30.712951105682567, -39.69337180409324 -30.919113445218553 M-39.69337180409324 -30.919113445218553 C-39.070236034394064 -31.019857203973448, -38.44710026469489 -31.120600962728346, -37.70000559306196 -31.24138543543225 M-39.69337180409324 -30.919113445218553 C-39.14261375294264 -31.008155735736107, -38.59185570179203 -31.09719802625366, -37.70000559306196 -31.24138543543225 M-37.70000559306196 -31.24138543543225 C-37.13829697875787 -31.29557278990072, -36.57658836445378 -31.34976014436919, -35.69008692939246 -31.435279871635593 M-37.70000559306196 -31.24138543543225 C-37.10441339003823 -31.298841498953525, -36.508821187014505 -31.3562975624748, -35.69008692939246 -31.435279871635593 M-35.69008692939246 -31.435279871635593 C-34.96146414537283 -31.45864538614089, -34.2328413613532 -31.482010900646188, -33.67187500000001 -31.5 M-35.69008692939246 -31.435279871635593 C-34.93053652830332 -31.459637174623353, -34.17098612721419 -31.483994477611116, -33.67187500000001 -31.5 M-33.67187500000001 -31.5 C-33.67187500000001 -31.5, -33.67187500000001 -31.5, -33.671875 -31.5 M-33.67187500000001 -31.5 C-33.67187500000001 -31.5, -33.67187500000001 -31.5, -33.671875 -31.5" stroke="#888" stroke-width="1.3" fill="none" stroke-dasharray="5 5" style="fill:#fafafa !important;stroke:#888 !important;stroke-dasharray:5 5 !important"/></g><g class="label" style="color:#666 !important" transform="translate(-49.796875, -24)"><rect/><foreignObject width="99.59375" height="48"><div style="color: rgb(102, 102, 102) !important; display: table-cell; white-space: nowrap; line-height: 1.5; max-width: 200px; text-align: center;" xmlns="http://www.w3.org/1999/xhtml"><span style="color:#666 !important" class="nodeLabel"><p>S-Miles Cloud<br /><i>optional</i></p></span></div></foreignObject></g></g><g class="node default system" id="my-svg-flowchart-sys_root-6" data-look="classic" transform="translate(678.3359375, 237.84765625)"><circle class="basic label-container" style="fill:#4a90e2 !important;stroke:#2a70c2 !important" r="74.1953125" cx="0" cy="0"/><g class="label" style="color:#fff !important;font-weight:bold !important" transform="translate(-66.6953125, -12)"><rect/><foreignObject width="133.390625" height="24"><div style="color: rgb(255, 255, 255) !important; font-weight: bold !important; display: table-cell; white-space: nowrap; line-height: 1.5; max-width: 200px; text-align: center;" xmlns="http://www.w3.org/1999/xhtml"><span style="color:#fff !important;font-weight:bold !important" class="nodeLabel"><p>Solar Local Stack</p></span></div></foreignObject></g></g></g></g></g><defs><filter id="my-svg-drop-shadow" height="130%" width="130%"><feDropShadow dx="4" dy="4" stdDeviation="0" flood-opacity="0.06" flood-color="#000000"/></filter></defs><defs><filter id="my-svg-drop-shadow-small" height="150%" width="150%"><feDropShadow dx="2" dy="2" stdDeviation="0" flood-opacity="0.06" flood-color="#000000"/></filter></defs></svg>