<svg id="my-svg" width="100%" xmlns="http://www.w3.org/2000/svg" xmlns:xlink="http://www.w3.org/1999/xlink" class="flowchart" style="max-width: 1179.02px; background-color: white;" viewBox="0 30.615978240966797 1179.015625 374.981689453125" role="graphics-document document" aria-roledescription="flowchart-v2"><style>#my-svg{font-family:"trebuchet ms",verdana,arial,sans-serif;font-size:16px;fill:#333;}@keyframes edge-animation-frame{from{stroke-dashoffset:0;}}@keyframes dash{to{stroke-dashoffset:0;}}#my-svg .edge-animation-slow{stroke-dasharray:9,5!important;stroke-dashoffset:900;animation:dash 50s linear infinite;stroke-linecap:round;}#my-svg .edge-animation-fast{stroke-dasharray:9,5!important;stroke-dashoffset:900;animation:dash 20s linear infinite;stroke-linecap:round;}#my-svg .error-icon{fill:#552222;}#my-svg .error-text{fill:#552222;stroke:#552222;}#my-svg .edge-thickness-normal{stroke-width:1px;}#my-svg .edge-thickness-thick{stroke-width:3.5px;}#my-svg .edge-pattern-solid{stroke-dasharray:0;}#my-svg .edge-thickness-invisible{stroke-width:0;fill:none;}#my-svg .edge-pattern-dashed{stroke-dasharray:3;}#my-svg .edge-pattern-dotted{stroke-dasharray:2;}#my-svg .marker{fill:#333333;stroke:#333333;}#my-svg .marker.cross{stroke:#333333;}#my-svg svg{font-family:"trebuchet ms",verdana,arial,sans-serif;font-size:16px;}#my-svg p{margin:0;}#my-svg .label{font-family:"trebuchet ms",verdana,arial,sans-serif;color:#333;}#my-svg .cluster-label text{fill:#333;}#my-svg .cluster-label span{color:#333;}#my-svg .cluster-label span p{background-color:transparent;}#my-svg .label text,#my-svg span{fill:#333;color:#333;}#my-svg .node rect,#my-svg .node circle,#my-svg .node ellipse,#my-svg .node polygon,#my-svg .node path{fill:#ECECFF;stroke:#9370DB;stroke-width:1px;}#my-svg .rough-node .label text,#my-svg .node .label text,#my-svg .image-shape .label,#my-svg .icon-shape .label{text-anchor:middle;}#my-svg .node .katex path{fill:#000;stroke:#000;stroke-width:1px;}#my-svg .rough-node .label,#my-svg .node .label,#my-svg .image-shape .label,#my-svg .icon-shape .label{text-align:center;}#my-svg .node.clickable{cursor:pointer;}#my-svg .root .anchor path{fill:#333333!important;stroke-width:0;stroke:#333333;}#my-svg .arrowheadPath{fill:#333333;}#my-svg .edgePath .path{stroke:#333333;stroke-width:1px;}#my-svg .flowchart-link{stroke:#333333;fill:none;}#my-svg .edgeLabel{background-color:rgba(232,232,232, 0.8);text-align:center;}#my-svg .edgeLabel p{background-color:rgba(232,232,232, 0.8);}#my-svg .edgeLabel rect{opacity:0.5;background-color:rgba(232,232,232, 0.8);fill:rgba(232,232,232, 0.8);}#my-svg .labelBkg{background-color:rgba(232, 232, 232, 0.5);}#my-svg .cluster rect{fill:#ffffde;stroke:#aaaa33;stroke-width:1px;}#my-svg .cluster text{fill:#333;}#my-svg .cluster span{color:#333;}#my-svg div.mermaidTooltip{position:absolute;text-align:center;max-width:200px;padding:2px;font-family:"trebuchet ms",verdana,arial,sans-serif;font-size:12px;background:hsl(80, 100%, 96.2745098039%);border:1px solid #aaaa33;border-radius:2px;pointer-events:none;z-index:100;}#my-svg .flowchartTitleText{text-anchor:middle;font-size:18px;fill:#333;}#my-svg rect.text{fill:none;stroke-width:0;}#my-svg .icon-shape,#my-svg .image-shape{background-color:rgba(232,232,232, 0.8);text-align:center;}#my-svg .icon-shape p,#my-svg .image-shape p{background-color:rgba(232,232,232, 0.8);padding:2px;}#my-svg .icon-shape .label rect,#my-svg .image-shape .label rect{opacity:0.5;background-color:rgba(232,232,232, 0.8);fill:rgba(232,232,232, 0.8);}#my-svg .label-icon{display:inline-block;height:1em;overflow:visible;vertical-align:-0.125em;}#my-svg .node .label-icon path{fill:currentColor;stroke:revert;stroke-width:revert;}#my-svg .node .neo-node{stroke:#9370DB;}#my-svg [data-look="neo"].node rect,#my-svg [data-look="neo"].cluster rect,#my-svg [data-look="neo"].node polygon{stroke:#9370DB;filter:drop-shadow(1px 2px 2px rgba(185, 185, 185, 1));}#my-svg [data-look="neo"].node path{stroke:#9370DB;stroke-width:1px;}#my-svg [data-look="neo"].node .outer-path{filter:drop-shadow(1px 2px 2px rgba(185, 185, 185, 1));}#my-svg [data-look="neo"].node .neo-line path{stroke:#9370DB;filter:none;}#my-svg [data-look="neo"].node circle{stroke:#9370DB;filter:drop-shadow(1px 2px 2px rgba(185, 185, 185, 1));}#my-svg [data-look="neo"].node circle .state-start{fill:#000000;}#my-svg [data-look="neo"].icon-shape .icon{fill:#9370DB;filter:drop-shadow(1px 2px 2px rgba(185, 185, 185, 1));}#my-svg [data-look="neo"].icon-shape .icon-neo path{stroke:#9370DB;filter:drop-shadow(1px 2px 2px rgba(185, 185, 185, 1));}#my-svg :root{--mermaid-font-family:"trebuchet ms",verdana,arial,sans-serif;}#my-svg .system&gt;*{fill:rgb(74, 144, 226)!important;stroke:rgb(42, 112, 194)!important;color:rgb(255, 255, 255)!important;font-weight:bold!important;}#my-svg .system span{fill:rgb(74, 144, 226)!important;stroke:rgb(42, 112, 194)!important;color:rgb(255, 255, 255)!important;font-weight:bold!important;}#my-svg .system tspan{fill:rgb(255, 255, 255)!important;}#my-svg .terminator&gt;*{fill:rgb(250, 250, 250)!important;stroke:rgb(68, 68, 68)!important;}#my-svg .terminator span{fill:rgb(250, 250, 250)!important;stroke:rgb(68, 68, 68)!important;}#my-svg .optional&gt;*{fill:rgb(250, 250, 250)!important;stroke:rgb(136, 136, 136)!important;stroke-dasharray:5,5!important;color:rgb(102, 102, 102)!important;}#my-svg .optional span{fill:rgb(250, 250, 250)!important;stroke:rgb(136, 136, 136)!important;stroke-dasharray:5,5!important;color:rgb(102, 102, 102)!important;}#my-svg .optional tspan{fill:rgb(102, 102, 102)!important;}#my-svg .grid&gt;*{fill:rgb(254, 240, 239)!important;stroke:rgb(231, 76, 60)!important;}#my-svg .grid span{fill:rgb(254, 240, 239)!important;stroke:rgb(231, 76, 60)!important;}</style><g><marker id="my-svg_flowchart-v2-pointEnd" class="marker flowchart-v2" viewBox="0 0 10 10" refX="5" refY="5" markerUnits="userSpaceOnUse" markerWidth="8" markerHeight="8" orient="auto"><path d="M 0 0 L 10 5 L 0 10 z" class="arrowMarkerPath" style="stroke-width: 1; stroke-dasharray: 1, 0;"/></marker><marker id="my-svg_flowchart-v2-pointStart" class="marker flowchart-v2" viewBox="0 0 10 10" refX="4.5" refY="5" markerUnits="userSpaceOnUse" markerWidth="8" markerHeight="8" orient="auto"><path d="M 0 5 L 10 10 L 10 0 z" class="arrowMarkerPath" style="stroke-width: 1; stroke-dasharray: 1, 0;"/></marker><marker id="my-svg_flowchart-v2-pointEnd-margin" class="marker flowchart-v2" viewBox="0 0 11.5 14" refX="11.5" refY="7" markerUnits="userSpaceOnUse" markerWidth="10.5" markerHeight="14" orient="auto"><path d="M 0 0 L 11.5 7 L 0 14 z" class="arrowMarkerPath" style="stroke-width: 0; stroke-dasharray: 1, 0;"/></marker><marker id="my-svg_flowchart-v2-pointStart-margin" class="marker flowchart-v2" viewBox="0 0 11.5 14" refX="1" refY="7" markerUnits="userSpaceOnUse" markerWidth="11.5" markerHeight="14" orient="auto"><polygon points="0,7 11.5,14 11.5,0" class="arrowMarkerPath" style="stroke-width: 0; stroke-dasharray: 1, 0;"/></marker><marker id="my-svg_flowchart-v2-circleEnd" class="marker flowchart-v2" viewBox="0 0 10 10" refX="11" refY="5" markerUnits="userSpaceOnUse" markerWidth="11" markerHeight="11" orient="auto"><circle cx="5" cy="5" r="5" class="arrowMarkerPath" style="stroke-width: 1; stroke-dasharray: 1, 0;"/></marker><marker id="my-svg_flowchart-v2-circleStart" class="marker flowchart-v2" viewBox="0 0 10 10" refX="-1" refY="5" markerUnits="userSpaceOnUse" markerWidth="11" markerHeight="11" orient="auto"><circle cx="5" cy="5" r="5" class="arrowMarkerPath" style="stroke-width: 1; stroke-dasharray: 1, 0;"/></marker><marker id="my-svg_flowchart-v2-circleEnd-margin" class="marker flowchart-v2" viewBox="0 0 10 10" refY="5" refX="12.25" markerUnits="userSpaceOnUse" markerWidth="14" markerHeight="14" orient="auto"><circle cx="5" cy="5" r="5" class="arrowMarkerPath" style="stroke-width: 0; stroke-dasharray: 1, 0;"/></marker><marker id="my-svg_flowchart-v2-circleStart-margin" class="marker flowchart-v2" viewBox="0 0 10 10" refX="-2" refY="5" markerUnits="userSpaceOnUse" markerWidth="14" markerHeight="14" orient="auto"><circle cx="5" cy="5" r="5" class="arrowMarkerPath" style="stroke-width: 0; stroke-dasharray: 1, 0;"/></marker><marker id="my-svg_flowchart-v2-crossEnd" class="marker cross flowchart-v2" viewBox="0 0 11 11" refX="12" refY="5.2" markerUnits="userSpaceOnUse" markerWidth="11" markerHeight="11" orient="auto"><path d="M 1,1 l 9,9 M 10,1 l -9,9" class="arrowMarkerPath" style="stroke-width: 2; stroke-dasharray: 1, 0;"/></marker><marker id="my-svg_flowchart-v2-crossStart" class="marker cross flowchart-v2" viewBox="0 0 11 11" refX="-1" refY="5.2" markerUnits="userSpaceOnUse" markerWidth="11" markerHeight="11" orient="auto"><path d="M 1,1 l 9,9 M 10,1 l -9,9" class="arrowMarkerPath" style="stroke-width: 2; stroke-dasharray: 1, 0;"/></marker><marker id="my-svg_flowchart-v2-crossEnd-margin" class="marker cross flowchart-v2" viewBox="0 0 15 15" refX="17.7" refY="7.5" markerUnits="userSpaceOnUse" markerWidth="12" markerHeight="12" orient="auto"><path d="M 1,1 L 14,14 M 1,14 L 14,1" class="arrowMarkerPath" style="stroke-width: 2.5;"/></marker><marker id="my-svg_flowchart-v2-crossStart-margin" class="marker cross flowchart-v2" viewBox="0 0 15 15" refX="-3.5" refY="7.5" markerUnits="userSpaceOnUse" markerWidth="12" markerHeight="12" orient="auto"><path d="M 1,1 L 14,14 M 1,14 L 14,1" class="arrowMarkerPath" style="stroke-width: 2.5; stroke-dasharray: 1, 0;"/></marker><g class="root"><g class="clusters"/><g class="edgePaths"><path d="M354.813,187.25L377.008,179.042C399.203,170.833,443.594,154.417,485.973,156.796C528.353,159.175,568.721,180.35,588.905,190.937L609.089,201.525" id="my-svg-L_term_inverters_sys_root_0" class="edge-thickness-normal edge-pattern-solid edge-thickness-normal edge-pattern-solid flowchart-link" style=";" data-edge="true" data-et="edge" data-id="L_term_inverters_sys_root_0" data-points="W3sieCI6MzU0LjgxMjU3Njg0NDI2MjMsInkiOjE4Ny4yNX0seyJ4Ijo0ODcuOTg0Mzc1LCJ5IjoxMzh9LHsieCI6NjEyLjYzMTIyMDQ4MDIwOCwieSI6MjAzLjM4MjY4MDQyOTI5NjA0fV0=" data-look="classic" marker-end="url(#my-svg_flowchart-v2-pointEnd)"/><path d="M608.988,264.225L588.82,271.896C568.653,279.567,528.319,294.908,484.057,291.361C439.796,287.813,391.607,265.376,367.513,254.157L343.419,242.938" id="my-svg-L_sys_root_term_inverters_0" class="edge-thickness-normal edge-pattern-solid edge-thickness-normal edge-pattern-solid flowchart-link" style=";" data-edge="true" data-et="edge" data-id="L_sys_root_term_inverters_0" data-points="W3sieCI6NjA4Ljk4NzY5Nzg5NDM3OTYsInkiOjI2NC4yMjUwMzQwNjgzOTA2fSx7IngiOjQ4Ny45ODQzNzUsInkiOjMxMC4yNX0seyJ4IjozMzkuNzkyNzI0NjA5Mzc1LCJ5IjoyNDEuMjV9XQ==" data-look="classic" marker-end="url(#my-svg_flowchart-v2-pointEnd)"/><path d="M371.828,295.545L391.188,290.663C410.547,285.78,449.266,276.015,487.46,268.322C525.655,260.629,563.326,255.008,582.161,252.198L600.997,249.387" id="my-svg-L_term_meter_sys_root_0" class="edge-thickness-normal edge-pattern-solid edge-thickness-normal edge-pattern-solid flowchart-link" style=";" data-edge="true" data-et="edge" data-id="L_term_meter_sys_root_0" data-points="W3sieCI6MzcxLjgyODEyNSwieSI6Mjk1LjU0NTQ0MTYyNzgyNzY0fSx7IngiOjQ4Ny45ODQzNzUsInkiOjI2Ni4yNX0seyJ4Ijo2MDQuOTUzMDEyNDExMjI0OCwieSI6MjQ4Ljc5NzExNzUzMjk5NzgyfV0=" data-look="classic" marker-end="url(#my-svg_flowchart-v2-pointEnd)"/><path d="M1002.531,91.981L981.698,97.417C960.865,102.853,919.198,113.726,876.495,131.595C833.792,149.465,790.052,174.333,768.183,186.766L746.313,199.2" id="my-svg-L_term_battery_system_sys_root_0" class="edge-thickness-normal edge-pattern-solid edge-thickness-normal edge-pattern-solid flowchart-link" style=";" data-edge="true" data-et="edge" data-id="L_term_battery_system_sys_root_0" data-points="W3sieCI6MTAwMi41MzEyNSwieSI6OTEuOTgxMzUxMTMxMDgxMjh9LHsieCI6ODc3LjUzMTI1LCJ5IjoxMjQuNTk3NjU2MjV9LHsieCI6NzQyLjgzNTY4MzA2NDc1NiwieSI6MjAxLjE3NzEzMzc2ODY2MDl9XQ==" data-look="classic" marker-end="url(#my-svg_flowchart-v2-pointEnd)"/><path d="M729.931,184.529L754.531,159.108C779.131,133.686,828.331,82.843,873.109,61.086C917.886,39.329,958.241,46.657,978.418,50.322L998.596,53.986" id="my-svg-L_sys_root_term_battery_system_0" class="edge-thickness-normal edge-pattern-solid edge-thickness-normal edge-pattern-solid flowchart-link" style=";" data-edge="true" data-et="edge" data-id="L_sys_root_term_battery_system_0" data-points="W3sieCI6NzI5LjkzMTMyOTYxMDQ2LCJ5IjoxODQuNTI5MTc5OTk3MDExMTd9LHsieCI6ODc3LjUzMTI1LCJ5IjozMn0seyJ4IjoxMDAyLjUzMTI1LCJ5Ijo1NC43MDA5NjcwMzEzMjU4NDV9XQ==" data-look="classic" marker-end="url(#my-svg_flowchart-v2-pointEnd)"/><path d="M1033.211,264.317L1007.264,267.572C981.318,270.827,929.424,277.338,882.977,275.858C836.53,274.379,795.528,264.911,775.027,260.176L754.526,255.442" id="my-svg-L_term_user_sys_root_0" class="edge-thickness-normal edge-pattern-solid edge-thickness-normal edge-pattern-solid flowchart-link" style=";" data-edge="true" data-et="edge" data-id="L_term_user_sys_root_0" data-points="W3sieCI6MTAzMy4yMTA5Mzc1LCJ5IjoyNjQuMzE3MjE3MTY1NTA2MX0seyJ4Ijo4NzcuNTMxMjUsInkiOjI4My44NDc2NTYyNX0seyJ4Ijo3NTAuNjI4NjYzMjM1MjUxOCwieSI6MjU0LjU0MjE1MjQzMTA4NjUyfV0=" data-look="classic" marker-end="url(#my-svg_flowchart-v2-pointEnd)"/><path d="M752.527,237.01L773.361,236.774C794.195,236.539,835.863,236.068,881.981,238.491C928.098,240.914,978.666,246.231,1003.949,248.889L1029.233,251.548" id="my-svg-L_sys_root_term_user_0" class="edge-thickness-normal edge-pattern-solid edge-thickness-normal edge-pattern-solid flowchart-link" style=";" data-edge="true" data-et="edge" data-id="L_sys_root_term_user_0" data-points="W3sieCI6NzUyLjUyNjUxNzI3MDA0MywieSI6MjM3LjAwOTY0MDUyMzY4ODE4fSx7IngiOjg3Ny41MzEyNSwieSI6MjM1LjU5NzY1NjI1fSx7IngiOjEwMzMuMjEwOTM3NSwieSI6MjUxLjk2NjAyNDI0NDYyMzQ0fV0=" data-look="classic" marker-end="url(#my-svg_flowchart-v2-pointEnd)"/><path d="M740.72,278.013L763.521,292.694C786.323,307.374,831.927,336.736,878.16,351.498C924.393,366.26,971.256,366.422,994.687,366.503L1018.118,366.584" id="my-svg-L_sys_root_term_smiles_cloud_0" class="edge-thickness-normal edge-pattern-dotted edge-thickness-normal edge-pattern-solid flowchart-link" style=";" data-edge="true" data-et="edge" data-id="L_sys_root_term_smiles_cloud_0" data-points="W3sieCI6NzQwLjcxOTUxOTI0NDE3MzIsInkiOjI3OC4wMTI3Mjk3MDYxODQ4N30seyJ4Ijo4NzcuNTMxMjUsInkiOjM2Ni4wOTc2NTYyNX0seyJ4IjoxMDIyLjExNzc0NDQ0NTc3MjcsInkiOjM2Ni41OTc2NTYyNX1d" data-look="classic" marker-end="url(#my-svg_flowchart-v2-pointEnd)"/><path d="M103.876,155.652L114.36,165.419C124.844,175.185,145.813,194.717,161.797,204.484C177.781,214.25,188.781,214.25,194.281,214.25L199.781,214.25" id="my-svg-L_term_grid_term_inverters_0" class="edge-thickness-normal edge-pattern-solid edge-thickness-normal edge-pattern-solid flowchart-link" style=";" data-edge="true" data-et="edge" data-id="L_term_grid_term_inverters_0" data-points="W3sieCI6MTAzLjg3NTYxMTA4MTMyMTYsInkiOjE1NS42NTIzNDM3NX0seyJ4IjoxNjYuNzgxMjUsInkiOjIxNC4yNX0seyJ4IjoxOTkuNzgxMjUsInkiOjIxNC4yNX1d" data-look="classic"/><path d="M122.012,101.652L129.473,97.377C136.935,93.102,151.858,84.551,178.49,80.275C205.122,76,243.464,76,296.997,76C350.531,76,419.258,76,485.346,76C551.435,76,614.885,76,679.81,76C744.734,76,811.133,76,865.165,75.403C919.198,74.805,960.865,73.61,981.698,73.013L1002.531,72.416" id="my-svg-L_term_grid_term_battery_system_0" class="edge-thickness-normal edge-pattern-solid edge-thickness-normal edge-pattern-solid flowchart-link" style=";" data-edge="true" data-et="edge" data-id="L_term_grid_term_battery_system_0" data-points="W3sieCI6MTIyLjAxMTkyNDc5OTY4ODQsInkiOjEwMS42NTIzNDM3NX0seyJ4IjoxNjYuNzgxMjUsInkiOjc2fSx7IngiOjI4MS44MDQ2ODc1LCJ5Ijo3Nn0seyJ4Ijo0ODcuOTg0Mzc1LCJ5Ijo3Nn0seyJ4Ijo2NzguMzM1OTM3NSwieSI6NzZ9LHsieCI6ODc3LjUzMTI1LCJ5Ijo3Nn0seyJ4IjoxMDAyLjUzMTI1LCJ5Ijo3Mi40MTU2MzY3ODQ1Mjc0OX1d" data-look="classic"/></g><g class="edgeLabels"><g class="edgeLabel" transform="translate(487.40625, 138.2138)"><g class="label" data-id="L_term_inverters_sys_root_0" transform="translate(-91.15625, -12)"><foreignObject width="182.3125" height="24"><div xmlns="http://www.w3.org/1999/xhtml" class="labelBkg" style="display: table-cell; white-space: nowrap; line-height: 1.5; max-width: 200px; text-align: center;"><span class="edgeLabel"><p>F1: per-channel telemetry</p></span></div></foreignObject></g></g><g class="edgeLabel" transform="translate(472.56982, 303.07278)"><g class="label" data-id="L_sys_root_term_inverters_0" transform="translate(-86.6953125, -12)"><foreignObject width="173.390625" height="24"><div xmlns="http://www.w3.org/1999/xhtml" class="labelBkg" style="display: table-cell; white-space: nowrap; line-height: 1.5; max-width: 200px; text-align: center;"><span class="edgeLabel"><p>F2: power-limit setpoints</p></span></div></foreignObject></g></g><g class="edgeLabel" transform="translate(487.24259, 266.43708)"><g class="label" data-id="L_term_meter_sys_root_0" transform="translate(-90.7109375, -12)"><foreignObject width="181.421875" height="24"><div xmlns="http://www.w3.org/1999/xhtml" class="labelBkg" style="display: table-cell; white-space: nowrap; line-height: 1.5; max-width: 200px; text-align: center;"><span class="edgeLabel"><p>F3: net grid power, V/I/PF</p></span></div></foreignObject></g></g><g class="edgeLabel" transform="translate(866.33536, 130.96294)"><g class="label" data-id="L_term_battery_system_sys_root_0" transform="translate(-77.8125, -12)"><foreignObject width="155.625" height="24"><div xmlns="http://www.w3.org/1999/xhtml" class="labelBkg" style="display: table-cell; white-space: nowrap; line-height: 1.5; max-width: 200px; text-align: center;"><span class="edgeLabel"><p>F4: SoC, mode, AC-in</p></span></div></foreignObject></g></g><g class="edgeLabel" transform="translate(847.90468, 62.61598)"><g class="label" data-id="L_sys_root_term_battery_system_0" transform="translate(-100, -24)"><foreignObject width="200" height="48"><div xmlns="http://www.w3.org/1999/xhtml" class="labelBkg" style="display: table; white-space: break-spaces; line-height: 1.5; max-width: 200px; text-align: center; width: 200px;"><span class="edgeLabel"><p>F5: max-charge, grid setpoint</p></span></div></foreignObject></g></g><g class="edgeLabel" transform="translate(890.75638, 282.18853)"><g class="label" data-id="L_term_user_sys_root_0" transform="translate(-68.4765625, -12)"><foreignObject width="136.953125" height="24"><div xmlns="http://www.w3.org/1999/xhtml" class="labelBkg" style="display: table-cell; white-space: nowrap; line-height: 1.5; max-width: 200px; text-align: center;"><span class="edgeLabel"><p>F6: config, override</p></span></div></foreignObject></g></g><g class="edgeLabel" transform="translate(877.53125, 235.59765625)"><g class="label" data-id="L_sys_root_term_user_0" transform="translate(-79.6015625, -12)"><foreignObject width="159.203125" height="24"><div xmlns="http://www.w3.org/1999/xhtml" class="labelBkg" style="display: table-cell; white-space: nowrap; line-height: 1.5; max-width: 200px; text-align: center;"><span class="edgeLabel"><p>F7: dashboards, alerts</p></span></div></foreignObject></g></g><g class="edgeLabel" transform="translate(877.53125, 366.09765625)"><g class="label" data-id="L_sys_root_term_smiles_cloud_0" transform="translate(-100, -24)"><foreignObject width="200" height="48"><div xmlns="http://www.w3.org/1999/xhtml" class="labelBkg" style="display: table; white-space: break-spaces; line-height: 1.5; max-width: 200px; text-align: center; width: 200px;"><span class="edgeLabel"><p>F8: optional telemetry forward</p></span></div></foreignObject></g></g><g class="edgeLabel"><g class="label" data-id="L_term_grid_term_inverters_0" transform="translate(0, 0)"><foreignObject width="0" height="0"><div xmlns="http://www.w3.org/1999/xhtml" class="labelBkg" style="display: table-cell; white-space: nowrap; line-height: 1.5; max-width: 200px; text-align: center;"><span class="edgeLabel"></span></div></foreignObject></g></g><g class="edgeLabel"><g class="label" data-id="L_term_grid_term_battery_system_0" transform="translate(0, 0)"><foreignObject width="0" height="0"><div xmlns="http://www.w3.org/1999/xhtml" class="labelBkg" style="display: table-cell; white-space: nowrap; line-height: 1.5; max-width: 200px; text-align: center;"><span class="edgeLabel"></span></div></foreignObject></g></g></g><g class="nodes"><g class="node default terminator" id="my-svg-flowchart-term_inverters-0" data-look="classic" transform="translate(281.8046875, 214.25)"><rect class="basic label-container" style="fill:#fafafa !important;stroke:#444 !important" x="-82.0234375" y="-27" width="164.046875" height="54"/><g class="label" style="" transform="translate(-52.0234375, -12)"><rect/><foreignObject width="104.046875" height="24"><div xmlns="http://www.w3.org/1999/xhtml" style="display: table-cell; white-space: nowrap; line-height: 1.5; max-width: 200px; text-align: center;"><span class="nodeLabel"><p>Solar Inverters</p></span></div></foreignObject></g></g><g class="node default terminator" id="my-svg-flowchart-term_meter-1" data-look="classic" transform="translate(281.8046875, 318.25)"><rect class="basic label-container" style="fill:#fafafa !important;stroke:#444 !important" x="-90.0234375" y="-27" width="180.046875" height="54"/><g class="label" style="" transform="translate(-60.0234375, -12)"><rect/><foreignObject width="120.046875" height="24"><div xmlns="http://www.w3.org/1999/xhtml" style="display: table-cell; white-space: nowrap; line-height: 1.5; max-width: 200px; text-align: center;"><span class="nodeLabel"><p>Net Power Meter</p></span></div></foreignObject></g></g><g class="node default terminator" id="my-svg-flowchart-term_battery_system-2" data-look="classic" transform="translate(1086.7734375, 70)"><rect class="basic label-container" style="fill:#fafafa !important;stroke:#444 !important" x="-84.2421875" y="-27" width="168.484375" height="54"/><g class="label" style="" transform="translate(-54.2421875, -12)"><rect/><foreignObject width="108.484375" height="24"><div xmlns="http://www.w3.org/1999/xhtml" style="display: table-cell; white-space: nowrap; line-height: 1.5; max-width: 200px; text-align: center;"><span class="nodeLabel"><p>Battery System</p></span></div></foreignObject></g></g><g class="node default grid" id="my-svg-flowchart-term_grid-3" data-look="classic" transform="translate(74.890625, 128.65234375)"><rect class="basic label-container" style="fill:#fef0ef !important;stroke:#e74c3c !important" x="-66.890625" y="-27" width="133.78125" height="54"/><g class="label" style="" transform="translate(-36.890625, -12)"><rect/><foreignObject width="73.78125" height="24"><div xmlns="http://www.w3.org/1999/xhtml" style="display: table-cell; white-space: nowrap; line-height: 1.5; max-width: 200px; text-align: center;"><span class="nodeLabel"><p>Utility Grid</p></span></div></foreignObject></g></g><g class="node default terminator" id="my-svg-flowchart-term_user-4" data-look="classic" transform="translate(1086.7734375, 257.59765625)"><rect class="basic label-container" style="fill:#fafafa !important;stroke:#444 !important" x="-53.5625" y="-27" width="107.125" height="54"/><g class="label" style="" transform="translate(-23.5625, -12)"><rect/><foreignObject width="47.125" height="24"><div xmlns="http://www.w3.org/1999/xhtml" style="display: table-cell; white-space: nowrap; line-height: 1.5; max-width: 200px; text-align: center;"><span class="nodeLabel"><p>Owner</p></span></div></foreignObject></g></g><g class="node default optional" id="my-svg-flowchart-term_smiles_cloud-5" data-look="classic" transform="translate(1086.7734375, 366.09765625)"><g class="basic label-container outer-path"><path d="M-33.671875 -31.5 C-16.271754400936636 -31.5, 1.1283661981267272 -31.5, 33.671875 -31.5 C33.671875 -31.5, 33.671875 -31.5, 33.671875 -31.5 C34.40686554215196 -31.476430283885488, 35.14185608430392 -31.45286056777098, 35.69008692939246 -31.435279871635593 C36.26628212087794 -31.379695014489094, 36.84247731236342 -31.32411015734259, 37.70000559306194 -31.241385435432253 C38.24335390124788 -31.153541094693814, 38.78670220943381 -31.065696753955372, 39.693371804093225 -30.91911344521856 C40.372365589327295 -30.764137544587417, 41.051359374561365 -30.609161643956273, 41.66199439314948 -30.469788185729428 C42.35142938143341 -30.265167500124857, 43.04086436971735 -30.06054681452029, 43.59778386774405 -29.895256030836062 C44.24411424101941 -29.657400478858253, 44.89044461429477 -29.419544926880445, 45.49278565370028 -29.197877856399685 C45.945536626071515 -28.997458431311355, 46.39828759844274 -28.797039006223024, 47.33921278220308 -28.380519338926202 C47.92543409884216 -28.074688053528266, 48.51165541548125 -27.76885676813033, 49.129477888124036 -27.44653917988677 C49.736773401263136 -27.078393070957276, 50.34406891440223 -26.71024696202778, 50.856224388132276 -26.399775304092984 C51.28409630095395 -26.101310379985165, 51.71196821377561 -25.802845455877346, 52.5123567104733 -25.244529088840633 C53.08312725994974 -24.789354764475384, 53.653897809426184 -24.334180440110135, 54.09106945219533 -23.985547688627737 C54.4632991426308 -23.64749853243216, 54.83552883306628 -23.309449376236582, 55.58587534400982 -22.62800452807842 C55.972141598899185 -22.22915290685584, 56.358407853788556 -21.83030128563326, 56.990631907872434 -21.177478043231485 C57.505820881985805 -20.572307759154835, 58.02100985609918 -19.967137475078186, 58.29956669774294 -19.63992875855011 C58.69215597805873 -19.113894888546152, 59.08474525837452 -18.5878610185422, 59.5073010198041 -18.02167479384835 C59.742327281864796 -17.660611341935056, 59.97735354392549 -17.299547890021763, 60.6088720346684 -16.329365901781543 C60.845442029278495 -15.909311921041741, 61.082012023888595 -15.48925794030194, 61.59975315074951 -14.56995614258631 C61.93665341691283 -13.870375531387246, 62.27355368307616 -13.17079492018818, 62.47587262499809 -12.750675308355413 C62.66739390092613 -12.277614054001194, 62.85891517685416 -11.804552799646975, 63.23363029456745 -10.878999214271206 C63.42812140126688 -10.29322298884212, 63.622612507966316 -9.707446763413033, 63.86991237065481 -8.962618978877531 C64.01798136428266 -8.397967732666771, 64.1660503579105 -7.833316486456011, 64.38210423372745 -7.009409419623907 C64.50606142647163 -6.372915433244503, 64.6300186192158 -5.7364214468651, 64.76810117755518 -5.027396693551458 C64.82461807894556 -4.589062766892156, 64.88113498033594 -4.150728840232855, 65.02631705789975 -3.024725316091981 C65.0579855945175 -2.531462295887782, 65.08965413113526 -2.0381992756835836, 65.15569081032167 -1.0096246935071378 C65.15569081032167 -0.3549547613577101, 65.15569081032167 0.2997151707917176, 65.15569081032167 1.00962469350713 C65.11462901157418 1.6491953534866375, 65.0735672128267 2.2887660134661454, 65.02631705789975 3.02472531609196 C64.97340386900945 3.4351095602341033, 64.92049068011916 3.8454938043762468, 64.76810117755518 5.027396693551435 C64.67068767957127 5.527594417348713, 64.57327418158737 6.027792141145989, 64.38210423372745 7.0094094196239 C64.20577575259782 7.681826339418299, 64.0294472714682 8.354243259212698, 63.869912370654816 8.96261897887751 C63.657597753093896 9.602076779230588, 63.445283135532975 10.241534579583664, 63.233630294567455 10.878999214271184 C63.014646486778645 11.419893453273447, 62.795662678989835 11.960787692275712, 62.47587262499809 12.750675308355405 C62.189952662419095 13.344394228357851, 61.9040326998401 13.938113148360298, 61.59975315074951 14.569956142586303 C61.29316662089087 15.11433157160289, 60.98658009103224 15.658707000619476, 60.60887203466841 16.329365901781536 C60.29645647019523 16.809320104137843, 59.98404090572206 17.289274306494153, 59.50730101980412 18.021674793848334 C59.077149598566635 18.59803851070592, 58.64699817732915 19.174402227563508, 58.29956669774295 19.639928758550102 C57.877290881517034 20.135957960463692, 57.455015065291114 20.631987162377282, 56.99063190787245 21.177478043231467 C56.672807641545084 21.50565769207202, 56.354983375217714 21.83383734091257, 55.58587534400983 22.628004528078414 C55.272069197751 22.912994967255035, 54.95826305149217 23.19798540643166, 54.091069452195356 23.985547688627715 C53.747155508667994 24.259809906656393, 53.40324156514063 24.534072124685068, 52.51235671047331 25.24452908884063 C51.99964794779171 25.602172526882697, 51.48693918511011 25.95981596492476, 50.8562243881323 26.399775304092973 C50.310398515905796 26.730658155465544, 49.7645726436793 27.061541006838112, 49.12947788812404 27.446539179886766 C48.5141218445557 27.76757003366201, 47.89876580098737 28.088600887437252, 47.339212782203084 28.3805193389262 C46.62235228327639 28.69785221688989, 45.90549178434971 29.015185094853578, 45.492785653700295 29.197877856399682 C44.85603340860354 29.432208568668518, 44.21928116350678 29.666539280937354, 43.59778386774407 29.895256030836055 C43.05677655409836 30.055824161720764, 42.51576924045265 30.216392292605473, 41.66199439314951 30.46978818572942 C41.21905577329087 30.570886035267534, 40.77611715343223 30.67198388480565, 39.69337180409324 30.919113445218557 C39.220044974672874 30.995637256294856, 38.7467181452525 31.07216106737116, 37.70000559306196 31.24138543543225 C37.08568910776202 31.300647807945467, 36.47137262246209 31.359910180458684, 35.69008692939246 31.435279871635593 C35.05853278456516 31.455532583814637, 34.42697863973786 31.475785295993678, 33.67187500000001 31.5 C33.67187500000001 31.5, 33.671875 31.5, 33.671875 31.5 C8.861550905555678 31.5, -15.948773188888644 31.5, -33.67187499999999 31.5 C-34.10237496387215 31.486194704075967, -34.53287492774432 31.472389408151933, -35.69008692939244 31.435279871635593 C-36.118914045420695 31.39391143549241, -36.54774116144894 31.35254299934923, -37.700005593061945 31.24138543543225 C-38.412975040633356 31.126118064309548, -39.12594448820477 31.010850693186846, -39.693371804093225 30.919113445218557 C-40.325896287904605 30.77474385939661, -40.95842077171599 30.630374273574667, -41.66199439314947 30.469788185729428 C-42.17655326273112 30.317069814212218, -42.69111213231277 30.16435144269501, -43.597783867744035 29.89525603083607 C-44.046700953515774 29.730050393528018, -44.495618039287514 29.56484475621997, -45.49278565370029 29.197877856399685 C-45.95735093349065 28.992228587875882, -46.421916213281015 28.78657931935208, -47.33921278220308 28.380519338926206 C-47.84778225436545 28.115198971053392, -48.35635172652782 27.849878603180574, -49.12947788812403 27.446539179886773 C-49.72317718215488 27.086635178880954, -50.316876476185726 26.72673117787513, -50.85622438813226 26.399775304092994 C-51.2790021221358 26.10486385860526, -51.70177985613934 25.80995241311752, -52.5123567104733 25.244529088840636 C-52.93027119919253 24.911253405258652, -53.348185687911766 24.57797772167667, -54.09106945219533 23.98554768862774 C-54.444382764353676 23.664677886683503, -54.79769607651203 23.343808084739262, -55.58587534400981 22.628004528078435 C-56.10687884855929 22.09002563444786, -56.62788235310878 21.552046740817282, -56.99063190787244 21.177478043231478 C-57.36584370332584 20.73673291813593, -57.74105549877924 20.295987793040382, -58.29956669774293 19.639928758550113 C-58.683895232001845 19.12496353569293, -59.06822376626075 18.609998312835753, -59.5073010198041 18.021674793848355 C-59.83502952350158 17.51819580474358, -60.16275802719907 17.014716815638803, -60.608872034668394 16.329365901781557 C-60.8399464789497 15.919069827135331, -61.07102092323101 15.508773752489105, -61.5997531507495 14.569956142586314 C-61.92236164502852 13.90005270149994, -62.24497013930755 13.230149260413565, -62.47587262499809 12.750675308355417 C-62.63567988489136 12.355948286755863, -62.79548714478462 11.961221265156308, -63.23363029456745 10.878999214271209 C-63.37590009387087 10.450505246383498, -63.51816989317429 10.022011278495787, -63.86991237065481 8.962618978877522 C-63.99410374965965 8.489023425847906, -64.1182951286645 8.015427872818291, -64.38210423372743 7.009409419623911 C-64.50385657255063 6.384236892132697, -64.62560891137385 5.759064364641483, -64.76810117755518 5.027396693551461 C-64.83765321179852 4.487964850562726, -64.90720524604187 3.9485330075739906, -65.02631705789975 3.024725316091999 C-65.05220210530287 2.6215448087541526, -65.07808715270599 2.2183643014163064, -65.15569081032167 1.0096246935071416 C-65.15569081032167 0.5870289985194319, -65.15569081032167 0.16443330353172214, -65.15569081032167 -1.0096246935071262 C-65.10868526828125 -1.7417739529773544, -65.06167972624083 -2.4739232124475823, -65.02631705789975 -3.024725316091956 C-64.96090651715906 -3.5320365533044145, -64.89549597641839 -4.039347790516873, -64.76810117755518 -5.027396693551446 C-64.6306086708845 -5.733391656253793, -64.49311616421383 -6.4393866189561395, -64.38210423372745 -7.009409419623896 C-64.19104698492988 -7.737993514024423, -63.99998973613233 -8.46657760842495, -63.869912370654816 -8.962618978877506 C-63.68174673892005 -9.529343881540584, -63.493581107185285 -10.096068784203663, -63.23363029456746 -10.878999214271168 C-63.05475827778303 -11.320816553983896, -62.8758862609986 -11.762633893696623, -62.47587262499809 -12.750675308355401 C-62.24558134248132 -13.228880083945556, -62.015290059964556 -13.707084859535714, -61.59975315074951 -14.5699561425863 C-61.36415913513218 -14.988277173795863, -61.128565119514846 -15.406598205005425, -60.6088720346684 -16.329365901781546 C-60.188184092932445 -16.9756555508177, -59.76749615119649 -17.62194519985385, -59.50730101980411 -18.021674793848344 C-59.06594679458393 -18.61304924744631, -58.62459256936375 -19.20442370104427, -58.29956669774295 -19.639928758550102 C-58.00986599514158 -19.98022768826263, -57.720165292540216 -20.32052661797516, -56.990631907872455 -21.177478043231467 C-56.45929186238302 -21.726130264028335, -55.92795181689358 -22.274782484825202, -55.585875344009835 -22.628004528078403 C-55.05309025902193 -23.111865845543548, -54.52030517403402 -23.595727163008693, -54.091069452195356 -23.98554768862771 C-53.5068105499661 -24.451478615373198, -52.92255164773683 -24.91740954211868, -52.51235671047331 -25.244529088840626 C-51.875639280128716 -25.688675605195694, -51.23892184978413 -26.132822121550763, -50.856224388132304 -26.39977530409297 C-50.35436628698008 -26.704004634257007, -49.85250818582786 -27.00823396442105, -49.12947788812404 -27.446539179886763 C-48.489210286052604 -27.780566377776463, -47.84894268398116 -28.114593575666163, -47.33921278220309 -28.3805193389262 C-46.68560946616807 -28.669850138481404, -46.03200615013305 -28.95918093803661, -45.4927856537003 -29.19787785639968 C-44.921723089517315 -29.408034158863494, -44.350660525334334 -29.61819046132731, -43.59778386774408 -29.895256030836055 C-43.06558124176209 -30.05321097663892, -42.5333786157801 -30.211165922441783, -41.66199439314951 -30.469788185729417 C-40.93607745686315 -30.635473989386067, -40.21016052057679 -30.80115979304272, -39.69337180409324 -30.919113445218553 C-39.16185523333302 -31.005044922406498, -38.630338662572804 -31.090976399594442, -37.70000559306196 -31.24138543543225 C-37.03933356501372 -31.3051196714037, -36.37866153696548 -31.36885390737515, -35.69008692939246 -31.435279871635593 C-34.9004823802202 -31.46060095265553, -34.11087783104794 -31.485922033675465, -33.67187500000001 -31.5 C-33.67187500000001 -31.5, -33.671875 -31.5, -33.671875 -31.5" stroke="none" stroke-width="0" fill="#fafafa" style="fill:#fafafa !important;stroke:#888 !important;stroke-dasharray:5 5 !important"/><path d="M-33.671875 -31.5 C-7.136459356309491 -31.5, 19.39895628738102 -31.5, 33.671875 -31.5 M-33.671875 -31.5 C-17.4279205365348 -31.5, -1.1839660730695982 -31.5, 33.671875 -31.5 M33.671875 -31.5 C33.671875 -31.5, 33.671875 -31.5, 33.671875 -31.5 M33.671875 -31.5 C33.671875 -31.5, 33.671875 -31.5, 33.671875 -31.5 M33.671875 -31.5 C34.2586973452015 -31.481181749569792, 34.845519690402995 -31.46236349913958, 35.69008692939246 -31.435279871635593 M33.671875 -31.5 C34.160645463513966 -31.4843260825691, 34.64941592702793 -31.4686521651382, 35.69008692939246 -31.435279871635593 M35.69008692939246 -31.435279871635593 C36.331865139025304 -31.373368299603538, 36.97364334865814 -31.31145672757148, 37.70000559306194 -31.241385435432253 M35.69008692939246 -31.435279871635593 C36.268611755851424 -31.379470277404998, 36.847136582310384 -31.3236606831744, 37.70000559306194 -31.241385435432253 M37.70000559306194 -31.241385435432253 C38.33849501114603 -31.138159417875805, 38.97698442923012 -31.03493340031936, 39.693371804093225 -30.91911344521856 M37.70000559306194 -31.241385435432253 C38.23120025693823 -31.155506001652878, 38.762394920814515 -31.069626567873502, 39.693371804093225 -30.91911344521856 M39.693371804093225 -30.91911344521856 C40.19133982403157 -30.805455494212648, 40.68930784396992 -30.691797543206736, 41.66199439314948 -30.469788185729428 M39.693371804093225 -30.91911344521856 C40.10573086871877 -30.824995179612152, 40.51808993334433 -30.730876914005744, 41.66199439314948 -30.469788185729428 M41.66199439314948 -30.469788185729428 C42.25349073936815 -30.294235174999407, 42.844987085586816 -30.118682164269384, 43.59778386774405 -29.895256030836062 M41.66199439314948 -30.469788185729428 C42.40309181114667 -30.24983436216759, 43.14418922914387 -30.02988053860575, 43.59778386774405 -29.895256030836062 M43.59778386774405 -29.895256030836062 C44.13125222806837 -29.69893474290925, 44.6647205883927 -29.50261345498243, 45.49278565370028 -29.197877856399685 M43.59778386774405 -29.895256030836062 C44.05233782067969 -29.727975974305068, 44.50689177361533 -29.560695917774073, 45.49278565370028 -29.197877856399685 M45.49278565370028 -29.197877856399685 C45.92843150952 -29.005030359003456, 46.36407736533972 -28.812182861607223, 47.33921278220308 -28.380519338926202 M45.49278565370028 -29.197877856399685 C46.175856852916766 -28.89550249909374, 46.85892805213325 -28.593127141787797, 47.33921278220308 -28.380519338926202 M47.33921278220308 -28.380519338926202 C47.72555790440807 -28.17896333613772, 48.11190302661306 -27.977407333349237, 49.129477888124036 -27.44653917988677 M47.33921278220308 -28.380519338926202 C47.86498151933253 -28.10622612553672, 48.390750256461985 -27.83193291214723, 49.129477888124036 -27.44653917988677 M49.129477888124036 -27.44653917988677 C49.55513474732526 -27.188503490401626, 49.98079160652649 -26.930467800916485, 50.856224388132276 -26.399775304092984 M49.129477888124036 -27.44653917988677 C49.70034541175818 -27.100475932269806, 50.27121293539233 -26.75441268465284, 50.856224388132276 -26.399775304092984 M50.856224388132276 -26.399775304092984 C51.45684502944153 -25.980808345164156, 52.05746567075079 -25.561841386235326, 52.5123567104733 -25.244529088840633 M50.856224388132276 -26.399775304092984 C51.294377577953526 -26.094138606219566, 51.73253076777478 -25.788501908346145, 52.5123567104733 -25.244529088840633 M52.5123567104733 -25.244529088840633 C52.93331622487179 -24.908825078310976, 53.35427573927028 -24.573121067781322, 54.09106945219533 -23.985547688627737 M52.5123567104733 -25.244529088840633 C53.133042728457546 -24.749548506646814, 53.75372874644179 -24.254567924452992, 54.09106945219533 -23.985547688627737 M54.09106945219533 -23.985547688627737 C54.515488939394686 -23.60010113987755, 54.939908426594044 -23.21465459112737, 55.58587534400982 -22.62800452807842 M54.09106945219533 -23.985547688627737 C54.64476831078855 -23.48269303532237, 55.19846716938178 -22.979838382017004, 55.58587534400982 -22.62800452807842 M55.58587534400982 -22.62800452807842 C56.110843584120154 -22.085931719470427, 56.63581182423048 -21.543858910862433, 56.990631907872434 -21.177478043231485 M55.58587534400982 -22.62800452807842 C56.08146158797305 -22.116271042799056, 56.57704783193628 -21.60453755751969, 56.990631907872434 -21.177478043231485 M56.990631907872434 -21.177478043231485 C57.28748679091907 -20.828775406083544, 57.58434167396571 -20.480072768935603, 58.29956669774294 -19.63992875855011 M56.990631907872434 -21.177478043231485 C57.348694906310264 -20.756876870904616, 57.706757904748095 -20.33627569857775, 58.29956669774294 -19.63992875855011 M58.29956669774294 -19.63992875855011 C58.66359330766677 -19.152166264758574, 59.027619917590606 -18.66440377096704, 59.5073010198041 -18.02167479384835 M58.29956669774294 -19.63992875855011 C58.778158115060826 -18.998659859919204, 59.25674953237871 -18.3573909612883, 59.5073010198041 -18.02167479384835 M59.5073010198041 -18.02167479384835 C59.800937239665984 -17.5705707077751, 60.09457345952786 -17.119466621701854, 60.6088720346684 -16.329365901781543 M59.5073010198041 -18.02167479384835 C59.82862556989746 -17.528033997181836, 60.14995011999081 -17.034393200515325, 60.6088720346684 -16.329365901781543 M60.6088720346684 -16.329365901781543 C60.830331109249904 -15.936142889699079, 61.051790183831415 -15.542919877616615, 61.59975315074951 -14.56995614258631 M60.6088720346684 -16.329365901781543 C60.85303600788873 -15.895828043045544, 61.09719998110907 -15.462290184309545, 61.59975315074951 -14.56995614258631 M61.59975315074951 -14.56995614258631 C61.81475124591293 -14.123507997757166, 62.029749341076354 -13.677059852928023, 62.47587262499809 -12.750675308355413 M61.59975315074951 -14.56995614258631 C61.85456189856601 -14.040840325711526, 62.10937064638252 -13.511724508836743, 62.47587262499809 -12.750675308355413 M62.47587262499809 -12.750675308355413 C62.74433476845818 -12.087568623646543, 63.01279691191827 -11.424461938937675, 63.23363029456745 -10.878999214271206 M62.47587262499809 -12.750675308355413 C62.72337579470885 -12.139337694021577, 62.97087896441961 -11.528000079687743, 63.23363029456745 -10.878999214271206 M63.23363029456745 -10.878999214271206 C63.37844303063838 -10.442846326001698, 63.52325576670932 -10.006693437732189, 63.86991237065481 -8.962618978877531 M63.23363029456745 -10.878999214271206 C63.404835123312935 -10.363357547874873, 63.576039952058416 -9.847715881478539, 63.86991237065481 -8.962618978877531 M63.86991237065481 -8.962618978877531 C64.01388625215924 -8.413584170026173, 64.15786013366368 -7.8645493611748165, 64.38210423372745 -7.009409419623907 M63.86991237065481 -8.962618978877531 C63.97731860629831 -8.55303245221187, 64.0847248419418 -8.143445925546207, 64.38210423372745 -7.009409419623907 M64.38210423372745 -7.009409419623907 C64.52538117760758 -6.273712594392224, 64.66865812148772 -5.538015769160541, 64.76810117755518 -5.027396693551458 M64.38210423372745 -7.009409419623907 C64.50461236636978 -6.380356050608537, 64.62712049901211 -5.751302681593168, 64.76810117755518 -5.027396693551458 M64.76810117755518 -5.027396693551458 C64.8614644794673 -4.303289360590343, 64.95482778137942 -3.579182027629228, 65.02631705789975 -3.024725316091981 M64.76810117755518 -5.027396693551458 C64.83862580022765 -4.480421646765778, 64.90915042290011 -3.933446599980097, 65.02631705789975 -3.024725316091981 M65.02631705789975 -3.024725316091981 C65.07477956399399 -2.269882665443465, 65.12324207008821 -1.515040014794949, 65.15569081032167 -1.0096246935071378 M65.02631705789975 -3.024725316091981 C65.06262507390637 -2.459198659485643, 65.09893308991302 -1.893672002879305, 65.15569081032167 -1.0096246935071378 M65.15569081032167 -1.0096246935071378 C65.15569081032167 -0.462961267197773, 65.15569081032167 0.08370215911159185, 65.15569081032167 1.00962469350713 M65.15569081032167 -1.0096246935071378 C65.15569081032167 -0.23525823566544635, 65.15569081032167 0.5391082221762451, 65.15569081032167 1.00962469350713 M65.15569081032167 1.00962469350713 C65.11117238398127 1.7030351183857615, 65.06665395764088 2.396445543264393, 65.02631705789975 3.02472531609196 M65.15569081032167 1.00962469350713 C65.11735005462131 1.6068129116412897, 65.07900929892094 2.204001129775449, 65.02631705789975 3.02472531609196 M65.02631705789975 3.02472531609196 C64.93460935763585 3.735992129604985, 64.84290165737195 4.44725894311801, 64.76810117755518 5.027396693551435 M65.02631705789975 3.02472531609196 C64.95311692260904 3.592451110404985, 64.87991678731834 4.160176904718011, 64.76810117755518 5.027396693551435 M64.76810117755518 5.027396693551435 C64.660077463947 5.582075632109487, 64.55205375033883 6.136754570667538, 64.38210423372745 7.0094094196239 M64.76810117755518 5.027396693551435 C64.6286523017351 5.743437198357226, 64.48920342591501 6.4594777031630155, 64.38210423372745 7.0094094196239 M64.38210423372745 7.0094094196239 C64.27565607815941 7.4153423717272595, 64.16920792259138 7.821275323830619, 63.869912370654816 8.96261897887751 M64.38210423372745 7.0094094196239 C64.17781191867533 7.78846455776706, 63.97351960362321 8.567519695910221, 63.869912370654816 8.96261897887751 M63.869912370654816 8.96261897887751 C63.63009287775238 9.684917081452479, 63.39027338484994 10.40721518402745, 63.233630294567455 10.878999214271184 M63.869912370654816 8.96261897887751 C63.65576716747377 9.60759021145421, 63.441621964292715 10.252561444030912, 63.233630294567455 10.878999214271184 M63.233630294567455 10.878999214271184 C63.02887631202458 11.384745509801037, 62.8241223294817 11.89049180533089, 62.47587262499809 12.750675308355405 M63.233630294567455 10.878999214271184 C63.02989050045137 11.382240444778851, 62.82615070633529 11.885481675286517, 62.47587262499809 12.750675308355405 M62.47587262499809 12.750675308355405 C62.191498795838555 13.341183649230384, 61.90712496667902 13.931691990105366, 61.59975315074951 14.569956142586303 M62.47587262499809 12.750675308355405 C62.156195134247895 13.414492457900737, 61.83651764349771 14.07830960744607, 61.59975315074951 14.569956142586303 M61.59975315074951 14.569956142586303 C61.39914739409635 14.926151977059558, 61.198541637443206 15.282347811532812, 60.60887203466841 16.329365901781536 M61.59975315074951 14.569956142586303 C61.30949088376486 15.08534618985926, 61.01922861678022 15.600736237132217, 60.60887203466841 16.329365901781536 M60.60887203466841 16.329365901781536 C60.240119761670584 16.895868416956137, 59.87136748867277 17.462370932130735, 59.50730101980412 18.021674793848334 M60.60887203466841 16.329365901781536 C60.30183599218225 16.801055713761873, 59.99479994969609 17.27274552574221, 59.50730101980412 18.021674793848334 M59.50730101980412 18.021674793848334 C59.02534853863877 18.667447211835622, 58.54339605747342 19.31321962982291, 58.29956669774295 19.639928758550102 M59.50730101980412 18.021674793848334 C59.07625807861027 18.599233066228305, 58.645215137416436 19.176791338608275, 58.29956669774295 19.639928758550102 M58.29956669774295 19.639928758550102 C57.94625774371857 20.054945559796135, 57.59294878969419 20.46996236104217, 56.99063190787245 21.177478043231467 M58.29956669774295 19.639928758550102 C57.78482635333441 20.244572056647705, 57.270086008925865 20.849215354745308, 56.99063190787245 21.177478043231467 M56.99063190787245 21.177478043231467 C56.658908065510964 21.520010145503658, 56.32718422314948 21.862542247775853, 55.58587534400983 22.628004528078414 M56.99063190787245 21.177478043231467 C56.66605596211818 21.512629355403483, 56.34148001636392 21.8477806675755, 55.58587534400983 22.628004528078414 M55.58587534400983 22.628004528078414 C55.095800780449316 23.073077280041673, 54.6057262168888 23.51815003200493, 54.091069452195356 23.985547688627715 M55.58587534400983 22.628004528078414 C55.19676397987151 22.981385173666304, 54.8076526157332 23.334765819254194, 54.091069452195356 23.985547688627715 M54.091069452195356 23.985547688627715 C53.61480011055108 24.365359814529565, 53.13853076890681 24.74517194043142, 52.51235671047331 25.24452908884063 M54.091069452195356 23.985547688627715 C53.49429448382303 24.46145984505578, 52.89751951545072 24.937372001483844, 52.51235671047331 25.24452908884063 M52.51235671047331 25.24452908884063 C52.06787179728521 25.554582522838878, 51.623386884097094 25.86463595683713, 50.8562243881323 26.399775304092973 M52.51235671047331 25.24452908884063 C51.86487351749197 25.696185335168735, 51.21739032451064 26.14784158149684, 50.8562243881323 26.399775304092973 M50.8562243881323 26.399775304092973 C50.307250797382494 26.732566320932417, 49.75827720663269 27.06535733777186, 49.12947788812404 27.446539179886766 M50.8562243881323 26.399775304092973 C50.34587951003107 26.709149368317338, 49.83553463192984 27.018523432541706, 49.12947788812404 27.446539179886766 M49.12947788812404 27.446539179886766 C48.70538483199441 27.667788255625027, 48.28129177586478 27.88903733136329, 47.339212782203084 28.3805193389262 M49.12947788812404 27.446539179886766 C48.581077188766216 27.732639473474332, 48.03267648940839 28.018739767061895, 47.339212782203084 28.3805193389262 M47.339212782203084 28.3805193389262 C46.88386972639443 28.582086202460854, 46.42852667058577 28.783653065995512, 45.492785653700295 29.197877856399682 M47.339212782203084 28.3805193389262 C46.6100660003643 28.70329098987544, 45.88091921852551 29.02606264082468, 45.492785653700295 29.197877856399682 M45.492785653700295 29.197877856399682 C44.789197048594794 29.456804966980275, 44.08560844348929 29.71573207756087, 43.59778386774407 29.895256030836055 M45.492785653700295 29.197877856399682 C44.92328792324078 29.407458285588095, 44.35379019278126 29.61703871477651, 43.59778386774407 29.895256030836055 M43.59778386774407 29.895256030836055 C42.87751137165997 30.109029126886334, 42.15723887557588 30.322802222936613, 41.66199439314951 30.46978818572942 M43.59778386774407 29.895256030836055 C42.88775540400955 30.105988751857, 42.17772694027503 30.316721472877948, 41.66199439314951 30.46978818572942 M41.66199439314951 30.46978818572942 C41.15556283107964 30.58537788499708, 40.64913126900977 30.700967584264735, 39.69337180409324 30.919113445218557 M41.66199439314951 30.46978818572942 C40.92782310790779 30.637357990670473, 40.19365182266607 30.804927795611526, 39.69337180409324 30.919113445218557 M39.69337180409324 30.919113445218557 C39.000991146747936 31.031052180405954, 38.30861048940264 31.14299091559335, 37.70000559306196 31.24138543543225 M39.69337180409324 30.919113445218557 C39.18956822681143 31.000564500538385, 38.685764649529624 31.082015555858213, 37.70000559306196 31.24138543543225 M37.70000559306196 31.24138543543225 C37.18060493672934 31.291491392077976, 36.661204280396724 31.341597348723703, 35.69008692939246 31.435279871635593 M37.70000559306196 31.24138543543225 C36.95901930438682 31.312867491534345, 36.218033015711676 31.384349547636443, 35.69008692939246 31.435279871635593 M35.69008692939246 31.435279871635593 C34.96171772203809 31.45863725443079, 34.23334851468372 31.48199463722599, 33.67187500000001 31.5 M35.69008692939246 31.435279871635593 C35.18995818285762 31.451318027095414, 34.68982943632279 31.46735618255524, 33.67187500000001 31.5 M33.67187500000001 31.5 C33.67187500000001 31.5, 33.671875 31.5, 33.671875 31.5 M33.67187500000001 31.5 C33.67187500000001 31.5, 33.67187500000001 31.5, 33.671875 31.5 M33.671875 31.5 C15.243991740028026 31.5, -3.1838915199439484 31.5, -33.67187499999999 31.5 M33.671875 31.5 C8.623643646795458 31.5, -16.424587706409085 31.5, -33.67187499999999 31.5 M-33.67187499999999 31.5 C-34.33486280279302 31.4787392715919, -34.997850605586045 31.4574785431838, -35.69008692939244 31.435279871635593 M-33.67187499999999 31.5 C-34.44793554103713 31.475113248959143, -35.22399608207427 31.45022649791829, -35.69008692939244 31.435279871635593 M-35.69008692939244 31.435279871635593 C-36.291459389142375 31.377266193699715, -36.89283184889231 31.31925251576384, -37.700005593061945 31.24138543543225 M-35.69008692939244 31.435279871635593 C-36.25998094789886 31.380302881068115, -36.82987496640528 31.325325890500633, -37.700005593061945 31.24138543543225 M-37.700005593061945 31.24138543543225 C-38.45518849511032 31.11929332035994, -39.21037139715869 30.997201205287634, -39.693371804093225 30.919113445218557 M-37.700005593061945 31.24138543543225 C-38.29594018039119 31.145039352894603, -38.89187476772044 31.04869327035696, -39.693371804093225 30.919113445218557 M-39.693371804093225 30.919113445218557 C-40.438058445754336 30.74914357879389, -41.18274508741544 30.57917371236923, -41.66199439314947 30.469788185729428 M-39.693371804093225 30.919113445218557 C-40.37848775256495 30.762740200779266, -41.063603701036676 30.60636695633998, -41.66199439314947 30.469788185729428 M-41.66199439314947 30.469788185729428 C-42.28767694227359 30.28408888942411, -42.91335949139771 30.098389593118792, -43.597783867744035 29.89525603083607 M-41.66199439314947 30.469788185729428 C-42.22231246083569 30.303488724409714, -42.782630528521906 30.137189263090004, -43.597783867744035 29.89525603083607 M-43.597783867744035 29.89525603083607 C-44.3050650164245 29.63497003008639, -45.012346165104965 29.374684029336713, -45.49278565370029 29.197877856399685 M-43.597783867744035 29.89525603083607 C-44.290041776849 29.64049872112348, -44.982299685953976 29.385741411410887, -45.49278565370029 29.197877856399685 M-45.49278565370029 29.197877856399685 C-45.96010225880532 28.991010657774243, -46.427418863910354 28.7841434591488, -47.33921278220308 28.380519338926206 M-45.49278565370029 29.197877856399685 C-45.876708850433694 29.027926445882798, -46.2606320471671 28.85797503536591, -47.33921278220308 28.380519338926206 M-47.33921278220308 28.380519338926206 C-47.719124755392414 28.18231950585856, -48.09903672858176 27.984119672790914, -49.12947788812403 27.446539179886773 M-47.33921278220308 28.380519338926206 C-47.73536944146979 28.17384466353721, -48.131526100736515 27.967169988148214, -49.12947788812403 27.446539179886773 M-49.12947788812403 27.446539179886773 C-49.52666731778 27.205760613485147, -49.92385674743598 26.96498204708352, -50.85622438813226 26.399775304092994 M-49.12947788812403 27.446539179886773 C-49.775037439031976 27.055197186397354, -50.42059698993993 26.66385519290794, -50.85622438813226 26.399775304092994 M-50.85622438813226 26.399775304092994 C-51.45648337203531 25.981060621714843, -52.05674235593835 25.56234593933669, -52.5123567104733 25.244529088840636 M-50.85622438813226 26.399775304092994 C-51.46025994259949 25.97842624957437, -52.06429549706672 25.557077195055747, -52.5123567104733 25.244529088840636 M-52.5123567104733 25.244529088840636 C-53.012299198047145 24.84583825902882, -53.51224168562099 24.447147429217008, -54.09106945219533 23.98554768862774 M-52.5123567104733 25.244529088840636 C-52.906487601637835 24.930220191400412, -53.30061849280237 24.61591129396019, -54.09106945219533 23.98554768862774 M-54.09106945219533 23.98554768862774 C-54.412402304166946 23.693721694468483, -54.733735156138565 23.40189570030923, -55.58587534400981 22.628004528078435 M-54.09106945219533 23.98554768862774 C-54.48151146867236 23.63095857979296, -54.87195348514939 23.27636947095818, -55.58587534400981 22.628004528078435 M-55.58587534400981 22.628004528078435 C-55.96280024530682 22.238798621379352, -56.33972514660383 21.849592714680274, -56.99063190787244 21.177478043231478 M-55.58587534400981 22.628004528078435 C-56.12415194244528 22.072189746863195, -56.66242854088075 21.516374965647955, -56.99063190787244 21.177478043231478 M-56.99063190787244 21.177478043231478 C-57.4499687558008 20.637914844647746, -57.909305603729166 20.098351646064017, -58.29956669774293 19.639928758550113 M-56.99063190787244 21.177478043231478 C-57.29299011023564 20.822310894066558, -57.59534831259885 20.467143744901634, -58.29956669774293 19.639928758550113 M-58.29956669774293 19.639928758550113 C-58.637201262573214 19.18752920081917, -58.974835827403496 18.73512964308823, -59.5073010198041 18.021674793848355 M-58.29956669774293 19.639928758550113 C-58.716211665618445 19.08166245873435, -59.132856633493965 18.523396158918587, -59.5073010198041 18.021674793848355 M-59.5073010198041 18.021674793848355 C-59.93843740676368 17.35933352714833, -60.36957379372326 16.696992260448308, -60.608872034668394 16.329365901781557 M-59.5073010198041 18.021674793848355 C-59.83087513102156 17.52457806720348, -60.15444924223902 17.027481340558605, -60.608872034668394 16.329365901781557 M-60.608872034668394 16.329365901781557 C-60.959237463018496 15.707256605399188, -61.3096028913686 15.08514730901682, -61.5997531507495 14.569956142586314 M-60.608872034668394 16.329365901781557 C-60.99236384419991 15.648437361201765, -61.37585565373141 14.967508820621973, -61.5997531507495 14.569956142586314 M-61.5997531507495 14.569956142586314 C-61.83402097493785 14.08349399313076, -62.0682887991262 13.59703184367521, -62.47587262499809 12.750675308355417 M-61.5997531507495 14.569956142586314 C-61.78840700865381 14.178212370102097, -61.97706086655812 13.786468597617882, -62.47587262499809 12.750675308355417 M-62.47587262499809 12.750675308355417 C-62.6780412528409 12.25131488891917, -62.8802098806837 11.751954469482923, -63.23363029456745 10.878999214271209 M-62.47587262499809 12.750675308355417 C-62.67929849457825 12.248209477520797, -62.882724364158406 11.745743646686178, -63.23363029456745 10.878999214271209 M-63.23363029456745 10.878999214271209 C-63.46534307117818 10.181117249537001, -63.697055847788924 9.483235284802793, -63.86991237065481 8.962618978877522 M-63.23363029456745 10.878999214271209 C-63.37611802578669 10.44984887017578, -63.518605757005936 10.020698526080352, -63.86991237065481 8.962618978877522 M-63.86991237065481 8.962618978877522 C-64.05512385216534 8.256327328713988, -64.24033533367587 7.550035678550453, -64.38210423372743 7.009409419623911 M-63.86991237065481 8.962618978877522 C-64.05699190552232 8.249203631644386, -64.24407144038983 7.535788284411249, -64.38210423372743 7.009409419623911 M-64.38210423372743 7.009409419623911 C-64.49156574547678 6.447347691489763, -64.60102725722612 5.8852859633556145, -64.76810117755518 5.027396693551461 M-64.38210423372743 7.009409419623911 C-64.51247447519476 6.33998578344951, -64.64284471666208 5.670562147275108, -64.76810117755518 5.027396693551461 M-64.76810117755518 5.027396693551461 C-64.86095684465951 4.3072264759157015, -64.95381251176384 3.587056258279941, -65.02631705789975 3.024725316091999 M-64.76810117755518 5.027396693551461 C-64.8291112580954 4.55421455668464, -64.89012133863561 4.081032419817818, -65.02631705789975 3.024725316091999 M-65.02631705789975 3.024725316091999 C-65.07162893598617 2.318956239806288, -65.11694081407259 1.6131871635205774, -65.15569081032167 1.0096246935071416 M-65.02631705789975 3.024725316091999 C-65.0734909351578 2.2899540997294245, -65.12066481241585 1.5551828833668497, -65.15569081032167 1.0096246935071416 M-65.15569081032167 1.0096246935071416 C-65.15569081032167 0.5501018930680114, -65.15569081032167 0.0905790926288812, -65.15569081032167 -1.0096246935071262 M-65.15569081032167 1.0096246935071416 C-65.15569081032167 0.541890844444305, -65.15569081032167 0.07415699538146847, -65.15569081032167 -1.0096246935071262 M-65.15569081032167 -1.0096246935071262 C-65.1100228658241 -1.7209397915579538, -65.06435492132655 -2.4322548896087812, -65.02631705789975 -3.024725316091956 M-65.15569081032167 -1.0096246935071262 C-65.11502047483948 -1.6430979971460666, -65.0743501393573 -2.2765713007850072, -65.02631705789975 -3.024725316091956 M-65.02631705789975 -3.024725316091956 C-64.94670740024604 -3.6421621001490263, -64.86709774259235 -4.259598884206096, -64.76810117755518 -5.027396693551446 M-65.02631705789975 -3.024725316091956 C-64.92581196003923 -3.804223008121741, -64.8253068621787 -4.5837207001515266, -64.76810117755518 -5.027396693551446 M-64.76810117755518 -5.027396693551446 C-64.66454684100144 -5.559126325538163, -64.56099250444768 -6.090855957524878, -64.38210423372745 -7.009409419623896 M-64.76810117755518 -5.027396693551446 C-64.66689855014592 -5.547050796115167, -64.56569592273664 -6.066704898678888, -64.38210423372745 -7.009409419623896 M-64.38210423372745 -7.009409419623896 C-64.27849484157838 -7.404516936482898, -64.17488544942931 -7.7996244533419015, -63.869912370654816 -8.962618978877506 M-64.38210423372745 -7.009409419623896 C-64.1772871548551 -7.7904657096476875, -63.97247007598274 -8.571521999671479, -63.869912370654816 -8.962618978877506 M-63.869912370654816 -8.962618978877506 C-63.68158981396092 -9.52981651451489, -63.49326725726702 -10.097014050152273, -63.23363029456746 -10.878999214271168 M-63.869912370654816 -8.962618978877506 C-63.65385495024988 -9.613349505062116, -63.43779752984494 -10.264080031246726, -63.23363029456746 -10.878999214271168 M-63.23363029456746 -10.878999214271168 C-63.06260481248776 -11.301435461560777, -62.891579330408064 -11.723871708850387, -62.47587262499809 -12.750675308355401 M-63.23363029456746 -10.878999214271168 C-62.94296902758513 -11.596938163270828, -62.652307760602795 -12.314877112270485, -62.47587262499809 -12.750675308355401 M-62.47587262499809 -12.750675308355401 C-62.16743330418869 -13.391156157560353, -61.8589939833793 -14.031637006765305, -61.59975315074951 -14.5699561425863 M-62.47587262499809 -12.750675308355401 C-62.136612053605155 -13.455157143866195, -61.797351482212214 -14.15963897937699, -61.59975315074951 -14.5699561425863 M-61.59975315074951 -14.5699561425863 C-61.373799254849814 -14.971160165069222, -61.14784535895012 -15.372364187552146, -60.6088720346684 -16.329365901781546 M-61.59975315074951 -14.5699561425863 C-61.36964227089749 -14.97854131101685, -61.139531391045466 -15.387126479447401, -60.6088720346684 -16.329365901781546 M-60.6088720346684 -16.329365901781546 C-60.268382642713696 -16.852449042027704, -59.927893250759 -17.37553218227386, -59.50730101980411 -18.021674793848344 M-60.6088720346684 -16.329365901781546 C-60.17888135913518 -16.98994704806409, -59.748890683601964 -17.650528194346627, -59.50730101980411 -18.021674793848344 M-59.50730101980411 -18.021674793848344 C-59.09574804406712 -18.573118288088512, -58.68419506833013 -19.124561782328684, -58.29956669774295 -19.639928758550102 M-59.50730101980411 -18.021674793848344 C-59.08029524833187 -18.593823626595096, -58.653289476859634 -19.165972459341848, -58.29956669774295 -19.639928758550102 M-58.29956669774295 -19.639928758550102 C-57.77843460573093 -20.252080167083495, -57.25730251371891 -20.864231575616884, -56.990631907872455 -21.177478043231467 M-58.29956669774295 -19.639928758550102 C-57.777799698498356 -20.252825965246117, -57.256032699253765 -20.865723171942133, -56.990631907872455 -21.177478043231467 M-56.990631907872455 -21.177478043231467 C-56.66521155026755 -21.51350127996677, -56.33979119266264 -21.849524516702072, -55.585875344009835 -22.628004528078403 M-56.990631907872455 -21.177478043231467 C-56.548467420912736 -21.634049178396886, -56.10630293395302 -22.0906203135623, -55.585875344009835 -22.628004528078403 M-55.585875344009835 -22.628004528078403 C-55.175361919332964 -23.000821958779916, -54.7648484946561 -23.37363938948143, -54.091069452195356 -23.98554768862771 M-55.585875344009835 -22.628004528078403 C-55.01876534257367 -23.14303882647433, -54.45165534113751 -23.658073124870263, -54.091069452195356 -23.98554768862771 M-54.091069452195356 -23.98554768862771 C-53.58817401768311 -24.38659341504168, -53.08527858317087 -24.787639141455653, -52.51235671047331 -25.244529088840626 M-54.091069452195356 -23.98554768862771 C-53.61836397524345 -24.362517727275826, -53.14565849829154 -24.73948776592394, -52.51235671047331 -25.244529088840626 M-52.51235671047331 -25.244529088840626 C-51.928880522788496 -25.65153681909248, -51.34540433510368 -26.05854454934434, -50.856224388132304 -26.39977530409297 M-52.51235671047331 -25.244529088840626 C-52.037186028878025 -25.575987586514223, -51.56201534728273 -25.907446084187818, -50.856224388132304 -26.39977530409297 M-50.856224388132304 -26.39977530409297 C-50.2406157861448 -26.772960856335498, -49.625007184157305 -27.146146408578026, -49.12947788812404 -27.446539179886763 M-50.856224388132304 -26.39977530409297 C-50.49152828313106 -26.620856226136926, -50.126832178129824 -26.84193714818088, -49.12947788812404 -27.446539179886763 M-49.12947788812404 -27.446539179886763 C-48.46206066977935 -27.794730315196063, -47.79464345143465 -28.14292145050536, -47.33921278220309 -28.3805193389262 M-49.12947788812404 -27.446539179886763 C-48.655748744235495 -27.69368337081542, -48.18201960034694 -27.940827561744083, -47.33921278220309 -28.3805193389262 M-47.33921278220309 -28.3805193389262 C-46.80255438634119 -28.618082091368567, -46.265895990479294 -28.855644843810932, -45.4927856537003 -29.19787785639968 M-47.33921278220309 -28.3805193389262 C-46.815373282872784 -28.612407546133085, -46.291533783542484 -28.844295753339967, -45.4927856537003 -29.19787785639968 M-45.4927856537003 -29.19787785639968 C-44.94664605682124 -29.39886227651027, -44.40050645994217 -29.599846696620855, -43.59778386774408 -29.895256030836055 M-45.4927856537003 -29.19787785639968 C-45.110836531683326 -29.338438664000908, -44.72888740966634 -29.478999471602137, -43.59778386774408 -29.895256030836055 M-43.59778386774408 -29.895256030836055 C-43.107756948359295 -30.04069344830567, -42.617730028974506 -30.186130865775283, -41.66199439314951 -30.469788185729417 M-43.59778386774408 -29.895256030836055 C-42.87722663638926 -30.109113634820076, -42.15666940503444 -30.322971238804094, -41.66199439314951 -30.469788185729417 M-41.66199439314951 -30.469788185729417 C-40.968196527385196 -30.628143021135937, -40.27439866162087 -30.786497856542454, -39.69337180409324 -30.919113445218553 M-41.66199439314951 -30.469788185729417 C-41.03192580701605 -30.61359722893261, -40.40185722088259 -30.757406272135796, -39.69337180409324 -30.919113445218553 M-39.69337180409324 -30.919113445218553 C-39.129895436329086 -31.010211934534166, -38.566419068564926 -31.10131042384978, -37.70000559306196 -31.24138543543225 M-39.69337180409324 -30.919113445218553 C-38.980360637200306 -31.034387561197622, -38.267349470307366 -31.14966167717669, -37.70000559306196 -31.24138543543225 M-37.70000559306196 -31.24138543543225 C-37.01415713339487 -31.30754841148288, -36.32830867372778 -31.37371138753351, -35.69008692939246 -31.435279871635593 M-37.70000559306196 -31.24138543543225 C-37.216615874742196 -31.288017460197366, -36.73322615642243 -31.33464948496248, -35.69008692939246 -31.435279871635593 M-35.69008692939246 -31.435279871635593 C-35.229576901395056 -31.450047531905078, -34.76906687339766 -31.464815192174562, -33.67187500000001 -31.5 M-35.69008692939246 -31.435279871635593 C-35.273232436571256 -31.44864758386232, -34.85637794375005 -31.46201529608905, -33.67187500000001 -31.5 M-33.67187500000001 -31.5 C-33.67187500000001 -31.5, -33.671875 -31.5, -33.671875 -31.5 M-33.67187500000001 -31.5 C-33.67187500000001 -31.5, -33.671875 -31.5, -33.671875 -31.5" stroke="#888" stroke-width="1.3" fill="none" stroke-dasharray="5 5" style="fill:#fafafa !important;stroke:#888 !important;stroke-dasharray:5 5 !important"/></g><g class="label" style="color:#666 !important" transform="translate(-49.796875, -24)"><rect/><foreignObject width="99.59375" height="48"><div style="color: rgb(102, 102, 102) !important; display: table-cell; white-space: nowrap; line-height: 1.5; max-width: 200px; text-align: center;" xmlns="http://www.w3.org/1999/xhtml"><span style="color:#666 !important" class="nodeLabel"><p>S-Miles Cloud<br /><i>optional</i></p></span></div></foreignObject></g></g><g class="node default system" id="my-svg-flowchart-sys_root-6" data-look="classic" transform="translate(678.3359375, 237.84765625)"><circle class="basic label-container" style="fill:#4a90e2 !important;stroke:#2a70c2 !important" r="74.1953125" cx="0" cy="0"/><g class="label" style="color:#fff !important;font-weight:bold !important" transform="translate(-66.6953125, -12)"><rect/><foreignObject width="133.390625" height="24"><div style="color: rgb(255, 255, 255) !important; font-weight: bold !important; display: table-cell; white-space: nowrap; line-height: 1.5; max-width: 200px; text-align: center;" xmlns="http://www.w3.org/1999/xhtml"><span style="color:#fff !important;font-weight:bold !important" class="nodeLabel"><p>Solar Local Stack</p></span></div></foreignObject></g></g></g></g></g><defs><filter id="my-svg-drop-shadow" height="130%" width="130%"><feDropShadow dx="4" dy="4" stdDeviation="0" flood-opacity="0.06" flood-color="#000000"/></filter></defs><defs><filter id="my-svg-drop-shadow-small" height="150%" width="150%"><feDropShadow dx="2" dy="2" stdDeviation="0" flood-opacity="0.06" flood-color="#000000"/></filter></defs></svg>