<svg id="my-svg" width="100%" xmlns="http://www.w3.org/2000/svg" xmlns:xlink="http://www.w3.org/1999/xlink" class="flowchart" style="max-width: 1179.02px; background-color: white;" viewBox="0 30.615978240966797 1179.015625 374.981689453125" role="graphics-document document" aria-roledescription="flowchart-v2"><style>#my-svg{font-family:"trebuchet ms",verdana,arial,sans-serif;font-size:16px;fill:#333;}@keyframes edge-animation-frame{from{stroke-dashoffset:0;}}@keyframes dash{to{stroke-dashoffset:0;}}#my-svg .edge-animation-slow{stroke-dasharray:9,5!important;stroke-dashoffset:900;animation:dash 50s linear infinite;stroke-linecap:round;}#my-svg .edge-animation-fast{stroke-dasharray:9,5!important;stroke-dashoffset:900;animation:dash 20s linear infinite;stroke-linecap:round;}#my-svg .error-icon{fill:#552222;}#my-svg .error-text{fill:#552222;stroke:#552222;}#my-svg .edge-thickness-normal{stroke-width:1px;}#my-svg .edge-thickness-thick{stroke-width:3.5px;}#my-svg .edge-pattern-solid{stroke-dasharray:0;}#my-svg .edge-thickness-invisible{stroke-width:0;fill:none;}#my-svg .edge-pattern-dashed{stroke-dasharray:3;}#my-svg .edge-pattern-dotted{stroke-dasharray:2;}#my-svg .marker{fill:#333333;stroke:#333333;}#my-svg .marker.cross{stroke:#333333;}#my-svg svg{font-family:"trebuchet ms",verdana,arial,sans-serif;font-size:16px;}#my-svg p{margin:0;}#my-svg .label{font-family:"trebuchet ms",verdana,arial,sans-serif;color:#333;}#my-svg .cluster-label text{fill:#333;}#my-svg .cluster-label span{color:#333;}#my-svg .cluster-label span p{background-color:transparent;}#my-svg .label text,#my-svg span{fill:#333;color:#333;}#my-svg .node rect,#my-svg .node circle,#my-svg .node ellipse,#my-svg .node polygon,#my-svg .node path{fill:#ECECFF;stroke:#9370DB;stroke-width:1px;}#my-svg .rough-node .label text,#my-svg .node .label text,#my-svg .image-shape .label,#my-svg .icon-shape .label{text-anchor:middle;}#my-svg .node .katex path{fill:#000;stroke:#000;stroke-width:1px;}#my-svg .rough-node .label,#my-svg .node .label,#my-svg .image-shape .label,#my-svg .icon-shape .label{text-align:center;}#my-svg .node.clickable{cursor:pointer;}#my-svg .root .anchor path{fill:#333333!important;stroke-width:0;stroke:#333333;}#my-svg .arrowheadPath{fill:#333333;}#my-svg .edgePath .path{stroke:#333333;stroke-width:1px;}#my-svg .flowchart-link{stroke:#333333;fill:none;}#my-svg .edgeLabel{background-color:rgba(232,232,232, 0.8);text-align:center;}#my-svg .edgeLabel p{background-color:rgba(232,232,232, 0.8);}#my-svg .edgeLabel rect{opacity:0.5;background-color:rgba(232,232,232, 0.8);fill:rgba(232,232,232, 0.8);}#my-svg .labelBkg{background-color:rgba(232, 232, 232, 0.5);}#my-svg .cluster rect{fill:#ffffde;stroke:#aaaa33;stroke-width:1px;}#my-svg .cluster text{fill:#333;}#my-svg .cluster span{color:#333;}#my-svg div.mermaidTooltip{position:absolute;text-align:center;max-width:200px;padding:2px;font-family:"trebuchet ms",verdana,arial,sans-serif;font-size:12px;background:hsl(80, 100%, 96.2745098039%);border:1px solid #aaaa33;border-radius:2px;pointer-events:none;z-index:100;}#my-svg .flowchartTitleText{text-anchor:middle;font-size:18px;fill:#333;}#my-svg rect.text{fill:none;stroke-width:0;}#my-svg .icon-shape,#my-svg .image-shape{background-color:rgba(232,232,232, 0.8);text-align:center;}#my-svg .icon-shape p,#my-svg .image-shape p{background-color:rgba(232,232,232, 0.8);padding:2px;}#my-svg .icon-shape .label rect,#my-svg .image-shape .label rect{opacity:0.5;background-color:rgba(232,232,232, 0.8);fill:rgba(232,232,232, 0.8);}#my-svg .label-icon{display:inline-block;height:1em;overflow:visible;vertical-align:-0.125em;}#my-svg .node .label-icon path{fill:currentColor;stroke:revert;stroke-width:revert;}#my-svg .node .neo-node{stroke:#9370DB;}#my-svg [data-look="neo"].node rect,#my-svg [data-look="neo"].cluster rect,#my-svg [data-look="neo"].node polygon{stroke:#9370DB;filter:drop-shadow(1px 2px 2px rgba(185, 185, 185, 1));}#my-svg [data-look="neo"].node path{stroke:#9370DB;stroke-width:1px;}#my-svg [data-look="neo"].node .outer-path{filter:drop-shadow(1px 2px 2px rgba(185, 185, 185, 1));}#my-svg [data-look="neo"].node .neo-line path{stroke:#9370DB;filter:none;}#my-svg [data-look="neo"].node circle{stroke:#9370DB;filter:drop-shadow(1px 2px 2px rgba(185, 185, 185, 1));}#my-svg [data-look="neo"].node circle .state-start{fill:#000000;}#my-svg [data-look="neo"].icon-shape .icon{fill:#9370DB;filter:drop-shadow(1px 2px 2px rgba(185, 185, 185, 1));}#my-svg [data-look="neo"].icon-shape .icon-neo path{stroke:#9370DB;filter:drop-shadow(1px 2px 2px rgba(185, 185, 185, 1));}#my-svg :root{--mermaid-font-family:"trebuchet ms",verdana,arial,sans-serif;}#my-svg .system&gt;*{fill:rgb(74, 144, 226)!important;stroke:rgb(42, 112, 194)!important;color:rgb(255, 255, 255)!important;font-weight:bold!important;}#my-svg .system span{fill:rgb(74, 144, 226)!important;stroke:rgb(42, 112, 194)!important;color:rgb(255, 255, 255)!important;font-weight:bold!important;}#my-svg .system tspan{fill:rgb(255, 255, 255)!important;}#my-svg .terminator&gt;*{fill:rgb(250, 250, 250)!important;stroke:rgb(68, 68, 68)!important;}#my-svg .terminator span{fill:rgb(250, 250, 250)!important;stroke:rgb(68, 68, 68)!important;}#my-svg .optional&gt;*{fill:rgb(250, 250, 250)!important;stroke:rgb(136, 136, 136)!important;stroke-dasharray:5,5!important;color:rgb(102, 102, 102)!important;}#my-svg .optional span{fill:rgb(250, 250, 250)!important;stroke:rgb(136, 136, 136)!important;stroke-dasharray:5,5!important;color:rgb(102, 102, 102)!important;}#my-svg .optional tspan{fill:rgb(102, 102, 102)!important;}#my-svg .grid&gt;*{fill:rgb(254, 240, 239)!important;stroke:rgb(231, 76, 60)!important;}#my-svg .grid span{fill:rgb(254, 240, 239)!important;stroke:rgb(231, 76, 60)!important;}</style><g><marker id="my-svg_flowchart-v2-pointEnd" class="marker flowchart-v2" viewBox="0 0 10 10" refX="5" refY="5" markerUnits="userSpaceOnUse" markerWidth="8" markerHeight="8" orient="auto"><path d="M 0 0 L 10 5 L 0 10 z" class="arrowMarkerPath" style="stroke-width: 1; stroke-dasharray: 1, 0;"/></marker><marker id="my-svg_flowchart-v2-pointStart" class="marker flowchart-v2" viewBox="0 0 10 10" refX="4.5" refY="5" markerUnits="userSpaceOnUse" markerWidth="8" markerHeight="8" orient="auto"><path d="M 0 5 L 10 10 L 10 0 z" class="arrowMarkerPath" style="stroke-width: 1; stroke-dasharray: 1, 0;"/></marker><marker id="my-svg_flowchart-v2-pointEnd-margin" class="marker flowchart-v2" viewBox="0 0 11.5 14" refX="11.5" refY="7" markerUnits="userSpaceOnUse" markerWidth="10.5" markerHeight="14" orient="auto"><path d="M 0 0 L 11.5 7 L 0 14 z" class="arrowMarkerPath" style="stroke-width: 0; stroke-dasharray: 1, 0;"/></marker><marker id="my-svg_flowchart-v2-pointStart-margin" class="marker flowchart-v2" viewBox="0 0 11.5 14" refX="1" refY="7" markerUnits="userSpaceOnUse" markerWidth="11.5" markerHeight="14" orient="auto"><polygon points="0,7 11.5,14 11.5,0" class="arrowMarkerPath" style="stroke-width: 0; stroke-dasharray: 1, 0;"/></marker><marker id="my-svg_flowchart-v2-circleEnd" class="marker flowchart-v2" viewBox="0 0 10 10" refX="11" refY="5" markerUnits="userSpaceOnUse" markerWidth="11" markerHeight="11" orient="auto"><circle cx="5" cy="5" r="5" class="arrowMarkerPath" style="stroke-width: 1; stroke-dasharray: 1, 0;"/></marker><marker id="my-svg_flowchart-v2-circleStart" class="marker flowchart-v2" viewBox="0 0 10 10" refX="-1" refY="5" markerUnits="userSpaceOnUse" markerWidth="11" markerHeight="11" orient="auto"><circle cx="5" cy="5" r="5" class="arrowMarkerPath" style="stroke-width: 1; stroke-dasharray: 1, 0;"/></marker><marker id="my-svg_flowchart-v2-circleEnd-margin" class="marker flowchart-v2" viewBox="0 0 10 10" refY="5" refX="12.25" markerUnits="userSpaceOnUse" markerWidth="14" markerHeight="14" orient="auto"><circle cx="5" cy="5" r="5" class="arrowMarkerPath" style="stroke-width: 0; stroke-dasharray: 1, 0;"/></marker><marker id="my-svg_flowchart-v2-circleStart-margin" class="marker flowchart-v2" viewBox="0 0 10 10" refX="-2" refY="5" markerUnits="userSpaceOnUse" markerWidth="14" markerHeight="14" orient="auto"><circle cx="5" cy="5" r="5" class="arrowMarkerPath" style="stroke-width: 0; stroke-dasharray: 1, 0;"/></marker><marker id="my-svg_flowchart-v2-crossEnd" class="marker cross flowchart-v2" viewBox="0 0 11 11" refX="12" refY="5.2" markerUnits="userSpaceOnUse" markerWidth="11" markerHeight="11" orient="auto"><path d="M 1,1 l 9,9 M 10,1 l -9,9" class="arrowMarkerPath" style="stroke-width: 2; stroke-dasharray: 1, 0;"/></marker><marker id="my-svg_flowchart-v2-crossStart" class="marker cross flowchart-v2" viewBox="0 0 11 11" refX="-1" refY="5.2" markerUnits="userSpaceOnUse" markerWidth="11" markerHeight="11" orient="auto"><path d="M 1,1 l 9,9 M 10,1 l -9,9" class="arrowMarkerPath" style="stroke-width: 2; stroke-dasharray: 1, 0;"/></marker><marker id="my-svg_flowchart-v2-crossEnd-margin" class="marker cross flowchart-v2" viewBox="0 0 15 15" refX="17.7" refY="7.5" markerUnits="userSpaceOnUse" markerWidth="12" markerHeight="12" orient="auto"><path d="M 1,1 L 14,14 M 1,14 L 14,1" class="arrowMarkerPath" style="stroke-width: 2.5;"/></marker><marker id="my-svg_flowchart-v2-crossStart-margin" class="marker cross flowchart-v2" viewBox="0 0 15 15" refX="-3.5" refY="7.5" markerUnits="userSpaceOnUse" markerWidth="12" markerHeight="12" orient="auto"><path d="M 1,1 L 14,14 M 1,14 L 14,1" class="arrowMarkerPath" style="stroke-width: 2.5; stroke-dasharray: 1, 0;"/></marker><g class="root"><g class="clusters"/><g class="edgePaths"><path d="M354.813,187.25L377.008,179.042C399.203,170.833,443.594,154.417,485.973,156.796C528.353,159.175,568.721,180.35,588.905,190.937L609.089,201.525" id="my-svg-L_term_inverters_sys_root_0" class="edge-thickness-normal edge-pattern-solid edge-thickness-normal edge-pattern-solid flowchart-link" style=";" data-edge="true" data-et="edge" data-id="L_term_inverters_sys_root_0" data-points="W3sieCI6MzU0LjgxMjU3Njg0NDI2MjMsInkiOjE4Ny4yNX0seyJ4Ijo0ODcuOTg0Mzc1LCJ5IjoxMzh9LHsieCI6NjEyLjYzMTIyMDQ4MDIwOCwieSI6MjAzLjM4MjY4MDQyOTI5NjA0fV0=" data-look="classic" marker-end="url(#my-svg_flowchart-v2-pointEnd)"/><path d="M608.988,264.225L588.82,271.896C568.653,279.567,528.319,294.908,484.057,291.361C439.796,287.813,391.607,265.376,367.513,254.157L343.419,242.938" id="my-svg-L_sys_root_term_inverters_0" class="edge-thickness-normal edge-pattern-solid edge-thickness-normal edge-pattern-solid flowchart-link" style=";" data-edge="true" data-et="edge" data-id="L_sys_root_term_inverters_0" data-points="W3sieCI6NjA4Ljk4NzY5Nzg5NDM3OTYsInkiOjI2NC4yMjUwMzQwNjgzOTA2fSx7IngiOjQ4Ny45ODQzNzUsInkiOjMxMC4yNX0seyJ4IjozMzkuNzkyNzI0NjA5Mzc1LCJ5IjoyNDEuMjV9XQ==" data-look="classic" marker-end="url(#my-svg_flowchart-v2-pointEnd)"/><path d="M371.828,295.545L391.188,290.663C410.547,285.78,449.266,276.015,487.46,268.322C525.655,260.629,563.326,255.008,582.161,252.198L600.997,249.387" id="my-svg-L_term_meter_sys_root_0" class="edge-thickness-normal edge-pattern-solid edge-thickness-normal edge-pattern-solid flowchart-link" style=";" data-edge="true" data-et="edge" data-id="L_term_meter_sys_root_0" data-points="W3sieCI6MzcxLjgyODEyNSwieSI6Mjk1LjU0NTQ0MTYyNzgyNzY0fSx7IngiOjQ4Ny45ODQzNzUsInkiOjI2Ni4yNX0seyJ4Ijo2MDQuOTUzMDEyNDExMjI0OCwieSI6MjQ4Ljc5NzExNzUzMjk5NzgyfV0=" data-look="classic" marker-end="url(#my-svg_flowchart-v2-pointEnd)"/><path d="M1002.531,91.981L981.698,97.417C960.865,102.853,919.198,113.726,876.495,131.595C833.792,149.465,790.052,174.333,768.183,186.766L746.313,199.2" id="my-svg-L_term_battery_system_sys_root_0" class="edge-thickness-normal edge-pattern-solid edge-thickness-normal edge-pattern-solid flowchart-link" style=";" data-edge="true" data-et="edge" data-id="L_term_battery_system_sys_root_0" data-points="W3sieCI6MTAwMi41MzEyNSwieSI6OTEuOTgxMzUxMTMxMDgxMjh9LHsieCI6ODc3LjUzMTI1LCJ5IjoxMjQuNTk3NjU2MjV9LHsieCI6NzQyLjgzNTY4MzA2NDc1NiwieSI6MjAxLjE3NzEzMzc2ODY2MDl9XQ==" data-look="classic" marker-end="url(#my-svg_flowchart-v2-pointEnd)"/><path d="M729.931,184.529L754.531,159.108C779.131,133.686,828.331,82.843,873.109,61.086C917.886,39.329,958.241,46.657,978.418,50.322L998.596,53.986" id="my-svg-L_sys_root_term_battery_system_0" class="edge-thickness-normal edge-pattern-solid edge-thickness-normal edge-pattern-solid flowchart-link" style=";" data-edge="true" data-et="edge" data-id="L_sys_root_term_battery_system_0" data-points="W3sieCI6NzI5LjkzMTMyOTYxMDQ2LCJ5IjoxODQuNTI5MTc5OTk3MDExMTd9LHsieCI6ODc3LjUzMTI1LCJ5IjozMn0seyJ4IjoxMDAyLjUzMTI1LCJ5Ijo1NC43MDA5NjcwMzEzMjU4NDV9XQ==" data-look="classic" marker-end="url(#my-svg_flowchart-v2-pointEnd)"/><path d="M1033.211,264.317L1007.264,267.572C981.318,270.827,929.424,277.338,882.977,275.858C836.53,274.379,795.528,264.911,775.027,260.176L754.526,255.442" id="my-svg-L_term_user_sys_root_0" class="edge-thickness-normal edge-pattern-solid edge-thickness-normal edge-pattern-solid flowchart-link" style=";" data-edge="true" data-et="edge" data-id="L_term_user_sys_root_0" data-points="W3sieCI6MTAzMy4yMTA5Mzc1LCJ5IjoyNjQuMzE3MjE3MTY1NTA2MX0seyJ4Ijo4NzcuNTMxMjUsInkiOjI4My44NDc2NTYyNX0seyJ4Ijo3NTAuNjI4NjYzMjM1MjUxOCwieSI6MjU0LjU0MjE1MjQzMTA4NjUyfV0=" data-look="classic" marker-end="url(#my-svg_flowchart-v2-pointEnd)"/><path d="M752.527,237.01L773.361,236.774C794.195,236.539,835.863,236.068,881.981,238.491C928.098,240.914,978.666,246.231,1003.949,248.889L1029.233,251.548" id="my-svg-L_sys_root_term_user_0" class="edge-thickness-normal edge-pattern-solid edge-thickness-normal edge-pattern-solid flowchart-link" style=";" data-edge="true" data-et="edge" data-id="L_sys_root_term_user_0" data-points="W3sieCI6NzUyLjUyNjUxNzI3MDA0MywieSI6MjM3LjAwOTY0MDUyMzY4ODE4fSx7IngiOjg3Ny41MzEyNSwieSI6MjM1LjU5NzY1NjI1fSx7IngiOjEwMzMuMjEwOTM3NSwieSI6MjUxLjk2NjAyNDI0NDYyMzQ0fV0=" data-look="classic" marker-end="url(#my-svg_flowchart-v2-pointEnd)"/><path d="M740.72,278.013L763.521,292.694C786.323,307.374,831.927,336.736,878.16,351.498C924.393,366.26,971.256,366.422,994.687,366.503L1018.118,366.584" id="my-svg-L_sys_root_term_smiles_cloud_0" class="edge-thickness-normal edge-pattern-dotted edge-thickness-normal edge-pattern-solid flowchart-link" style=";" data-edge="true" data-et="edge" data-id="L_sys_root_term_smiles_cloud_0" data-points="W3sieCI6NzQwLjcxOTUxOTI0NDE3MzIsInkiOjI3OC4wMTI3Mjk3MDYxODQ4N30seyJ4Ijo4NzcuNTMxMjUsInkiOjM2Ni4wOTc2NTYyNX0seyJ4IjoxMDIyLjExNzc0NDQ0NTc3MjcsInkiOjM2Ni41OTc2NTYyNX1d" data-look="classic" marker-end="url(#my-svg_flowchart-v2-pointEnd)"/><path d="M103.876,155.652L114.36,165.419C124.844,175.185,145.813,194.717,161.797,204.484C177.781,214.25,188.781,214.25,194.281,214.25L199.781,214.25" id="my-svg-L_term_grid_term_inverters_0" class="edge-thickness-normal edge-pattern-solid edge-thickness-normal edge-pattern-solid flowchart-link" style=";" data-edge="true" data-et="edge" data-id="L_term_grid_term_inverters_0" data-points="W3sieCI6MTAzLjg3NTYxMTA4MTMyMTYsInkiOjE1NS42NTIzNDM3NX0seyJ4IjoxNjYuNzgxMjUsInkiOjIxNC4yNX0seyJ4IjoxOTkuNzgxMjUsInkiOjIxNC4yNX1d" data-look="classic"/><path d="M122.012,101.652L129.473,97.377C136.935,93.102,151.858,84.551,178.49,80.275C205.122,76,243.464,76,296.997,76C350.531,76,419.258,76,485.346,76C551.435,76,614.885,76,679.81,76C744.734,76,811.133,76,865.165,75.403C919.198,74.805,960.865,73.61,981.698,73.013L1002.531,72.416" id="my-svg-L_term_grid_term_battery_system_0" class="edge-thickness-normal edge-pattern-solid edge-thickness-normal edge-pattern-solid flowchart-link" style=";" data-edge="true" data-et="edge" data-id="L_term_grid_term_battery_system_0" data-points="W3sieCI6MTIyLjAxMTkyNDc5OTY4ODQsInkiOjEwMS42NTIzNDM3NX0seyJ4IjoxNjYuNzgxMjUsInkiOjc2fSx7IngiOjI4MS44MDQ2ODc1LCJ5Ijo3Nn0seyJ4Ijo0ODcuOTg0Mzc1LCJ5Ijo3Nn0seyJ4Ijo2NzguMzM1OTM3NSwieSI6NzZ9LHsieCI6ODc3LjUzMTI1LCJ5Ijo3Nn0seyJ4IjoxMDAyLjUzMTI1LCJ5Ijo3Mi40MTU2MzY3ODQ1Mjc0OX1d" data-look="classic"/></g><g class="edgeLabels"><g class="edgeLabel" transform="translate(487.40625, 138.2138)"><g class="label" data-id="L_term_inverters_sys_root_0" transform="translate(-91.15625, -12)"><foreignObject width="182.3125" height="24"><div xmlns="http://www.w3.org/1999/xhtml" class="labelBkg" style="display: table-cell; white-space: nowrap; line-height: 1.5; max-width: 200px; text-align: center;"><span class="edgeLabel"><p>F1: per-channel telemetry</p></span></div></foreignObject></g></g><g class="edgeLabel" transform="translate(472.56982, 303.07278)"><g class="label" data-id="L_sys_root_term_inverters_0" transform="translate(-86.6953125, -12)"><foreignObject width="173.390625" height="24"><div xmlns="http://www.w3.org/1999/xhtml" class="labelBkg" style="display: table-cell; white-space: nowrap; line-height: 1.5; max-width: 200px; text-align: center;"><span class="edgeLabel"><p>F2: power-limit setpoints</p></span></div></foreignObject></g></g><g class="edgeLabel" transform="translate(487.24259, 266.43708)"><g class="label" data-id="L_term_meter_sys_root_0" transform="translate(-90.7109375, -12)"><foreignObject width="181.421875" height="24"><div xmlns="http://www.w3.org/1999/xhtml" class="labelBkg" style="display: table-cell; white-space: nowrap; line-height: 1.5; max-width: 200px; text-align: center;"><span class="edgeLabel"><p>F3: net grid power, V/I/PF</p></span></div></foreignObject></g></g><g class="edgeLabel" transform="translate(866.33536, 130.96294)"><g class="label" data-id="L_term_battery_system_sys_root_0" transform="translate(-77.8125, -12)"><foreignObject width="155.625" height="24"><div xmlns="http://www.w3.org/1999/xhtml" class="labelBkg" style="display: table-cell; white-space: nowrap; line-height: 1.5; max-width: 200px; text-align: center;"><span class="edgeLabel"><p>F4: SoC, mode, AC-in</p></span></div></foreignObject></g></g><g class="edgeLabel" transform="translate(847.90468, 62.61598)"><g class="label" data-id="L_sys_root_term_battery_system_0" transform="translate(-100, -24)"><foreignObject width="200" height="48"><div xmlns="http://www.w3.org/1999/xhtml" class="labelBkg" style="display: table; white-space: break-spaces; line-height: 1.5; max-width: 200px; text-align: center; width: 200px;"><span class="edgeLabel"><p>F5: max-charge, grid setpoint</p></span></div></foreignObject></g></g><g class="edgeLabel" transform="translate(890.75638, 282.18853)"><g class="label" data-id="L_term_user_sys_root_0" transform="translate(-68.4765625, -12)"><foreignObject width="136.953125" height="24"><div xmlns="http://www.w3.org/1999/xhtml" class="labelBkg" style="display: table-cell; white-space: nowrap; line-height: 1.5; max-width: 200px; text-align: center;"><span class="edgeLabel"><p>F6: config, override</p></span></div></foreignObject></g></g><g class="edgeLabel" transform="translate(877.53125, 235.59765625)"><g class="label" data-id="L_sys_root_term_user_0" transform="translate(-79.6015625, -12)"><foreignObject width="159.203125" height="24"><div xmlns="http://www.w3.org/1999/xhtml" class="labelBkg" style="display: table-cell; white-space: nowrap; line-height: 1.5; max-width: 200px; text-align: center;"><span class="edgeLabel"><p>F7: dashboards, alerts</p></span></div></foreignObject></g></g><g class="edgeLabel" transform="translate(877.53125, 366.09765625)"><g class="label" data-id="L_sys_root_term_smiles_cloud_0" transform="translate(-100, -24)"><foreignObject width="200" height="48"><div xmlns="http://www.w3.org/1999/xhtml" class="labelBkg" style="display: table; white-space: break-spaces; line-height: 1.5; max-width: 200px; text-align: center; width: 200px;"><span class="edgeLabel"><p>F8: optional telemetry forward</p></span></div></foreignObject></g></g><g class="edgeLabel"><g class="label" data-id="L_term_grid_term_inverters_0" transform="translate(0, 0)"><foreignObject width="0" height="0"><div xmlns="http://www.w3.org/1999/xhtml" class="labelBkg" style="display: table-cell; white-space: nowrap; line-height: 1.5; max-width: 200px; text-align: center;"><span class="edgeLabel"></span></div></foreignObject></g></g><g class="edgeLabel"><g class="label" data-id="L_term_grid_term_battery_system_0" transform="translate(0, 0)"><foreignObject width="0" height="0"><div xmlns="http://www.w3.org/1999/xhtml" class="labelBkg" style="display: table-cell; white-space: nowrap; line-height: 1.5; max-width: 200px; text-align: center;"><span class="edgeLabel"></span></div></foreignObject></g></g></g><g class="nodes"><g class="node default terminator" id="my-svg-flowchart-term_inverters-0" data-look="classic" transform="translate(281.8046875, 214.25)"><rect class="basic label-container" style="fill:#fafafa !important;stroke:#444 !important" x="-82.0234375" y="-27" width="164.046875" height="54"/><g class="label" style="" transform="translate(-52.0234375, -12)"><rect/><foreignObject width="104.046875" height="24"><div xmlns="http://www.w3.org/1999/xhtml" style="display: table-cell; white-space: nowrap; line-height: 1.5; max-width: 200px; text-align: center;"><span class="nodeLabel"><p>Solar Inverters</p></span></div></foreignObject></g></g><g class="node default terminator" id="my-svg-flowchart-term_meter-1" data-look="classic" transform="translate(281.8046875, 318.25)"><rect class="basic label-container" style="fill:#fafafa !important;stroke:#444 !important" x="-90.0234375" y="-27" width="180.046875" height="54"/><g class="label" style="" transform="translate(-60.0234375, -12)"><rect/><foreignObject width="120.046875" height="24"><div xmlns="http://www.w3.org/1999/xhtml" style="display: table-cell; white-space: nowrap; line-height: 1.5; max-width: 200px; text-align: center;"><span class="nodeLabel"><p>Net Power Meter</p></span></div></foreignObject></g></g><g class="node default terminator" id="my-svg-flowchart-term_battery_system-2" data-look="classic" transform="translate(1086.7734375, 70)"><rect class="basic label-container" style="fill:#fafafa !important;stroke:#444 !important" x="-84.2421875" y="-27" width="168.484375" height="54"/><g class="label" style="" transform="translate(-54.2421875, -12)"><rect/><foreignObject width="108.484375" height="24"><div xmlns="http://www.w3.org/1999/xhtml" style="display: table-cell; white-space: nowrap; line-height: 1.5; max-width: 200px; text-align: center;"><span class="nodeLabel"><p>Battery System</p></span></div></foreignObject></g></g><g class="node default grid" id="my-svg-flowchart-term_grid-3" data-look="classic" transform="translate(74.890625, 128.65234375)"><rect class="basic label-container" style="fill:#fef0ef !important;stroke:#e74c3c !important" x="-66.890625" y="-27" width="133.78125" height="54"/><g class="label" style="" transform="translate(-36.890625, -12)"><rect/><foreignObject width="73.78125" height="24"><div xmlns="http://www.w3.org/1999/xhtml" style="display: table-cell; white-space: nowrap; line-height: 1.5; max-width: 200px; text-align: center;"><span class="nodeLabel"><p>Utility Grid</p></span></div></foreignObject></g></g><g class="node default terminator" id="my-svg-flowchart-term_user-4" data-look="classic" transform="translate(1086.7734375, 257.59765625)"><rect class="basic label-container" style="fill:#fafafa !important;stroke:#444 !important" x="-53.5625" y="-27" width="107.125" height="54"/><g class="label" style="" transform="translate(-23.5625, -12)"><rect/><foreignObject width="47.125" height="24"><div xmlns="http://www.w3.org/1999/xhtml" style="display: table-cell; white-space: nowrap; line-height: 1.5; max-width: 200px; text-align: center;"><span class="nodeLabel"><p>Owner</p></span></div></foreignObject></g></g><g class="node default optional" id="my-svg-flowchart-term_smiles_cloud-5" data-look="classic" transform="translate(1086.7734375, 366.09765625)"><g class="basic label-container outer-path"><path d="M-33.671875 -31.5 C-6.8996957887796135 -31.5, 19.872483422440773 -31.5, 33.671875 -31.5 C33.671875 -31.5, 33.671875 -31.5, 33.671875 -31.5 C34.46097024791092 -31.47469525128022, 35.25006549582184 -31.44939050256044, 35.69008692939246 -31.435279871635593 C36.31823778215549 -31.374682914331473, 36.94638863491853 -31.314085957027352, 37.70000559306194 -31.241385435432253 C38.20072745267029 -31.16043260832679, 38.70144931227865 -31.07947978122133, 39.693371804093225 -30.91911344521856 C40.30942845408208 -30.77850253500395, 40.92548510407094 -30.637891624789333, 41.66199439314948 -30.469788185729428 C42.32406006588381 -30.27329056931551, 42.986125738618156 -30.07679295290159, 43.59778386774405 -29.895256030836062 C44.30674557704864 -29.634351568241772, 45.015707286353226 -29.373447105647486, 45.49278565370028 -29.197877856399685 C46.05943491815817 -28.94703903607738, 46.626084182616054 -28.69620021575508, 47.33921278220308 -28.380519338926202 C48.00658513596945 -28.032351609438678, 48.673957489735834 -27.684183879951153, 49.129477888124036 -27.44653917988677 C49.4936050873861 -27.225803131845165, 49.857732286648165 -27.005067083803556, 50.856224388132276 -26.399775304092984 C51.41965984937541 -26.006747117057785, 51.98309531061853 -25.613718930022586, 52.5123567104733 -25.244529088840633 C52.97973423732896 -24.87180794861157, 53.44711176418463 -24.499086808382504, 54.09106945219533 -23.985547688627737 C54.40554999112692 -23.699944783869167, 54.72003053005851 -23.414341879110598, 55.58587534400982 -22.62800452807842 C56.09344463446849 -22.103897563466102, 56.60101392492716 -21.57979059885378, 56.990631907872434 -21.177478043231485 C57.41914155372721 -20.674126230320883, 57.84765119958198 -20.170774417410282, 58.29956669774294 -19.63992875855011 C58.54267783691713 -19.314181979937096, 58.78578897609132 -18.988435201324084, 59.5073010198041 -18.02167479384835 C59.74761713676726 -17.652484704279935, 59.98793325373042 -17.28329461471152, 60.6088720346684 -16.329365901781543 C60.89137203653084 -15.827758542247647, 61.17387203839328 -15.326151182713751, 61.59975315074951 -14.56995614258631 C61.86160719768541 -14.026210611344851, 62.12346124462131 -13.482465080103392, 62.47587262499809 -12.750675308355413 C62.71378128000955 -12.163036330826168, 62.951689935021015 -11.575397353296925, 63.23363029456745 -10.878999214271206 C63.385739889323226 -10.420869350239489, 63.53784948407901 -9.962739486207774, 63.86991237065481 -8.962618978877531 C64.01992827022761 -8.390543336504312, 64.1699441698004 -7.818467694131093, 64.38210423372745 -7.009409419623907 C64.53265000030714 -6.236388726096179, 64.68319576688685 -5.46336803256845, 64.76810117755518 -5.027396693551458 C64.87128027741515 -4.22715997005531, 64.97445937727514 -3.426923246559163, 65.02631705789975 -3.024725316091981 C65.06585589644037 -2.4088759906458375, 65.10539473498098 -1.7930266651996938, 65.15569081032167 -1.0096246935071378 C65.15569081032167 -0.5317690664040684, 65.15569081032167 -0.05391343930099912, 65.15569081032167 1.00962469350713 C65.11038751437493 1.715260096039867, 65.0650842184282 2.4208954985726043, 65.02631705789975 3.02472531609196 C64.95789866426627 3.555364866373229, 64.88948027063279 4.086004416654498, 64.76810117755518 5.027396693551435 C64.67378471439687 5.51169179807782, 64.57946825123855 5.995986902604203, 64.38210423372745 7.0094094196239 C64.21519465182676 7.6459079944816155, 64.04828506992607 8.282406569339331, 63.869912370654816 8.96261897887751 C63.66659966332573 9.574964459871927, 63.463286955996644 10.187309940866342, 63.233630294567455 10.878999214271184 C62.95662687222286 11.563203022959167, 62.67962344987827 12.247406831647147, 62.47587262499809 12.750675308355405 C62.26689963259923 13.184612198377401, 62.05792664020036 13.618549088399398, 61.59975315074951 14.569956142586303 C61.28803301609998 15.123446806742972, 60.976312881450454 15.67693747089964, 60.60887203466841 16.329365901781536 C60.31063886473569 16.787532137617532, 60.012405694802965 17.245698373453532, 59.50730101980412 18.021674793848334 C59.10414119373326 18.561872232167545, 58.70098136766241 19.10206967048676, 58.29956669774295 19.639928758550102 C57.87569233394033 20.137835705407223, 57.45181797013771 20.63574265226434, 56.99063190787245 21.177478043231467 C56.61074980660588 21.569737501689744, 56.23086770533932 21.96199696014802, 55.58587534400983 22.628004528078414 C55.248179259243386 22.934691177314516, 54.91048317447694 23.241377826550618, 54.091069452195356 23.985547688627715 C53.732745384164716 24.271301597478242, 53.374421316134075 24.557055506328766, 52.51235671047331 25.24452908884063 C52.152142639450624 25.495798831370244, 51.791928568427934 25.74706857389986, 50.8562243881323 26.399775304092973 C50.435619150239475 26.65474867105434, 50.01501391234666 26.909722038015705, 49.12947788812404 27.446539179886766 C48.74807177193328 27.645518506401206, 48.36666565574253 27.844497832915646, 47.339212782203084 28.3805193389262 C46.76395261697841 28.635169949584665, 46.18869245175373 28.88982056024313, 45.492785653700295 29.197877856399682 C44.98840113740534 29.383496020875583, 44.48401662111038 29.569114185351488, 43.59778386774407 29.895256030836055 C42.90612866787101 30.10053566358615, 42.21447346799794 30.30581529633625, 41.66199439314951 30.46978818572942 C41.05789541003211 30.607669836511693, 40.45379642691471 30.745551487293966, 39.69337180409324 30.919113445218557 C39.16962751184196 31.003788360692095, 38.64588321959067 31.088463276165633, 37.70000559306196 31.24138543543225 C37.23319933998318 31.286417673250103, 36.7663930869044 31.331449911067953, 35.69008692939246 31.435279871635593 C35.14848759225363 31.452647908218477, 34.606888255114804 31.470015944801364, 33.67187500000001 31.5 C33.67187500000001 31.5, 33.671875 31.5, 33.671875 31.5 C13.769181761833988 31.5, -6.133511476332025 31.5, -33.67187499999999 31.5 C-34.24764984464952 31.481536021409838, -34.82342468929905 31.463072042819675, -35.69008692939244 31.435279871635593 C-36.43876249407338 31.363056040324924, -37.18743805875432 31.29083220901426, -37.700005593061945 31.24138543543225 C-38.223109610937996 31.156814034554294, -38.74621362881405 31.072242633676343, -39.693371804093225 30.919113445218557 C-40.16844294346741 30.810681557785305, -40.64351408284159 30.702249670352057, -41.66199439314947 30.469788185729428 C-42.17189606009143 30.318452047509524, -42.68179772703338 30.16711590928962, -43.597783867744035 29.89525603083607 C-44.16596920407395 29.686158574818986, -44.73415454040387 29.477061118801902, -45.49278565370029 29.197877856399685 C-45.87103287691089 29.03043903098957, -46.249280100121496 28.863000205579457, -47.33921278220308 28.380519338926206 C-47.907567206072684 28.084009200041812, -48.4759216299423 27.78749906115742, -49.12947788812403 27.446539179886773 C-49.80338111398072 27.038015084077507, -50.47728433983741 26.629490988268238, -50.85622438813226 26.399775304092994 C-51.217783340013625 26.14756743089532, -51.57934229189499 25.89535955769765, -52.5123567104733 25.244529088840636 C-52.95568458930357 24.89098690292381, -53.39901246813385 24.537444717006988, -54.09106945219533 23.98554768862774 C-54.42330831209023 23.683817146629718, -54.75554717198513 23.382086604631695, -55.58587534400981 22.628004528078435 C-56.09625629806605 22.100994289959747, -56.60663725212229 21.57398405184106, -56.99063190787244 21.177478043231478 C-57.26342970870856 20.857034223734768, -57.53622750954468 20.53659040423806, -58.29956669774293 19.639928758550113 C-58.735949308368525 19.055215815585488, -59.172331918994125 18.470502872620862, -59.5073010198041 18.021674793848355 C-59.78723286651157 17.59162430507974, -60.06716471321904 17.161573816311122, -60.608872034668394 16.329365901781557 C-60.911890024734625 15.791326776520224, -61.214908014800855 15.25328765125889, -61.5997531507495 14.569956142586314 C-61.80391483653375 14.146010033695045, -62.008076522318 13.722063924803777, -62.47587262499809 12.750675308355417 C-62.76413029950566 12.038673279238717, -63.05238797401323 11.326671250122018, -63.23363029456745 10.878999214271209 C-63.45531688468356 10.21131452580292, -63.67700347479968 9.54362983733463, -63.86991237065481 8.962618978877522 C-64.03593883943633 8.329488097086841, -64.20196530821785 7.696357215296161, -64.38210423372743 7.009409419623911 C-64.52111123775052 6.295637833106091, -64.6601182417736 5.58186624658827, -64.76810117755518 5.027396693551461 C-64.86708116134501 4.259727485086129, -64.96606114513484 3.492058276620797, -65.02631705789975 3.024725316091999 C-65.07095011124237 2.329529483128436, -65.11558316458499 1.6343336501648729, -65.15569081032167 1.0096246935071416 C-65.15569081032167 0.4648815926395119, -65.15569081032167 -0.07986150822811777, -65.15569081032167 -1.0096246935071262 C-65.11314403356278 -1.6723250846671023, -65.07059725680386 -2.335025475827078, -65.02631705789975 -3.024725316091956 C-64.94884462367986 -3.625586217238901, -64.87137218945996 -4.226447118385845, -64.76810117755518 -5.027396693551446 C-64.68408244383586 -5.458815133834517, -64.60006371011653 -5.8902335741175875, -64.38210423372745 -7.009409419623896 C-64.19798406413442 -7.7115394244684214, -64.01386389454137 -8.413669429312947, -63.869912370654816 -8.962618978877506 C-63.63919647691031 -9.657498491250355, -63.4084805831658 -10.352378003623205, -63.23363029456746 -10.878999214271168 C-62.99980615948515 -11.456549348606586, -62.76598202440284 -12.034099482942002, -62.47587262499809 -12.750675308355401 C-62.21251513447364 -13.297542772377023, -61.949157643949185 -13.844410236398645, -61.59975315074951 -14.5699561425863 C-61.24629976953565 -15.197548411967393, -60.8928463883218 -15.825140681348486, -60.6088720346684 -16.329365901781546 C-60.25994753913925 -16.865407626260517, -59.9110230436101 -17.40144935073949, -59.50730101980411 -18.021674793848344 C-59.11614553048056 -18.545787514543743, -58.72499004115701 -19.069900235239146, -58.29956669774295 -19.639928758550102 C-57.7860611170156 -20.243121632967732, -57.27255553628826 -20.84631450738536, -56.990631907872455 -21.177478043231467 C-56.64461269747037 -21.534771286677117, -56.298593487068295 -21.892064530122767, -55.585875344009835 -22.628004528078403 C-55.1717982536744 -23.0040583856416, -54.757721163338964 -23.380112243204795, -54.091069452195356 -23.98554768862771 C-53.55801321453716 -24.410645852937897, -53.02495697687897 -24.835744017248086, -52.51235671047331 -25.244529088840626 C-52.15062091139336 -25.49686032298844, -51.78888511231341 -25.749191557136257, -50.856224388132304 -26.39977530409297 C-50.230338155166955 -26.779191216632334, -49.604451922201605 -27.158607129171696, -49.12947788812404 -27.446539179886763 C-48.738515027266374 -27.650504253972546, -48.347552166408704 -27.85446932805833, -47.33921278220309 -28.3805193389262 C-46.676907386418584 -28.67370229104848, -46.01460199063408 -28.966885243170758, -45.4927856537003 -29.19787785639968 C-44.78761360631363 -29.457387688376922, -44.08244155892696 -29.71689752035417, -43.59778386774408 -29.895256030836055 C-43.07645184950769 -30.04998463732101, -42.5551198312713 -30.204713243805962, -41.66199439314951 -30.469788185729417 C-41.22055965406791 -30.57054278429391, -40.77912491498631 -30.671297382858405, -39.69337180409324 -30.919113445218553 C-39.06327516095997 -31.020982584007896, -38.43317851782669 -31.122851722797236, -37.70000559306196 -31.24138543543225 C-37.28568378633521 -31.281354561832302, -36.87136197960846 -31.321323688232358, -35.69008692939246 -31.435279871635593 C-35.23993107553295 -31.449715493693652, -34.789775221673445 -31.46415111575171, -33.67187500000001 -31.5 C-33.67187500000001 -31.5, -33.671875 -31.5, -33.671875 -31.5" stroke="none" stroke-width="0" fill="#fafafa" style="fill:#fafafa !important;stroke:#888 !important;stroke-dasharray:5 5 !important"/><path d="M-33.671875 -31.5 C-18.249562937711246 -31.5, -2.8272508754224894 -31.5, 33.671875 -31.5 M-33.671875 -31.5 C-15.668298045772879 -31.5, 2.3352789084542422 -31.5, 33.671875 -31.5 M33.671875 -31.5 C33.671875 -31.5, 33.671875 -31.5, 33.671875 -31.5 M33.671875 -31.5 C33.671875 -31.5, 33.671875 -31.5, 33.671875 -31.5 M33.671875 -31.5 C34.296887713115446 -31.479957058803834, 34.92190042623089 -31.459914117607664, 35.69008692939246 -31.435279871635593 M33.671875 -31.5 C34.22486915665523 -31.482266553733893, 34.77786331331046 -31.46453310746779, 35.69008692939246 -31.435279871635593 M35.69008692939246 -31.435279871635593 C36.22988888210592 -31.383205826464156, 36.76969083481938 -31.33113178129272, 37.70000559306194 -31.241385435432253 M35.69008692939246 -31.435279871635593 C36.17915296681308 -31.388100259193592, 36.6682190042337 -31.340920646751588, 37.70000559306194 -31.241385435432253 M37.70000559306194 -31.241385435432253 C38.20507438125168 -31.159729830624688, 38.71014316944142 -31.078074225817122, 39.693371804093225 -30.91911344521856 M37.70000559306194 -31.241385435432253 C38.37274892385707 -31.132621510911747, 39.045492254652196 -31.02385758639124, 39.693371804093225 -30.91911344521856 M39.693371804093225 -30.91911344521856 C40.31467063353237 -30.777306041752837, 40.93596946297152 -30.63549863828711, 41.66199439314948 -30.469788185729428 M39.693371804093225 -30.91911344521856 C40.28824991247662 -30.783336398922494, 40.88312802086001 -30.647559352626427, 41.66199439314948 -30.469788185729428 M41.66199439314948 -30.469788185729428 C42.34020200847791 -30.268499725484368, 43.018409623806335 -30.067211265239308, 43.59778386774405 -29.895256030836062 M41.66199439314948 -30.469788185729428 C42.29971432741723 -30.280516256699006, 42.93743426168497 -30.09124432766858, 43.59778386774405 -29.895256030836062 M43.59778386774405 -29.895256030836062 C44.18185212441388 -29.680313513313784, 44.76592038108371 -29.46537099579151, 45.49278565370028 -29.197877856399685 M43.59778386774405 -29.895256030836062 C43.99315057222738 -29.749757428856444, 44.3885172767107 -29.60425882687683, 45.49278565370028 -29.197877856399685 M45.49278565370028 -29.197877856399685 C46.00906803765989 -28.969334959993546, 46.5253504216195 -28.740792063587406, 47.33921278220308 -28.380519338926202 M45.49278565370028 -29.197877856399685 C45.93626967555308 -29.001560635411543, 46.37975369740588 -28.805243414423405, 47.33921278220308 -28.380519338926202 M47.33921278220308 -28.380519338926202 C47.98320204308352 -28.044550554019686, 48.62719130396396 -27.708581769113167, 49.129477888124036 -27.44653917988677 M47.33921278220308 -28.380519338926202 C47.8878119855683 -28.094315485925126, 48.436411188933526 -27.80811163292405, 49.129477888124036 -27.44653917988677 M49.129477888124036 -27.44653917988677 C49.70134310287052 -27.099871126054424, 50.27320831761699 -26.75320307222208, 50.856224388132276 -26.399775304092984 M49.129477888124036 -27.44653917988677 C49.61150976759917 -27.15432862181519, 50.09354164707431 -26.86211806374361, 50.856224388132276 -26.399775304092984 M50.856224388132276 -26.399775304092984 C51.276015078427854 -26.106947490988883, 51.69580576872343 -25.814119677884783, 52.5123567104733 -25.244529088840633 M50.856224388132276 -26.399775304092984 C51.41958550444811 -26.00679897686073, 51.98294662076393 -25.61382264962847, 52.5123567104733 -25.244529088840633 M52.5123567104733 -25.244529088840633 C52.86210293000812 -24.965615785899388, 53.21184914954295 -24.686702482958143, 54.09106945219533 -23.985547688627737 M52.5123567104733 -25.244529088840633 C53.05678299814795 -24.81036361221206, 53.601209285822605 -24.37619813558349, 54.09106945219533 -23.985547688627737 M54.09106945219533 -23.985547688627737 C54.494099959358195 -23.619526045625292, 54.89713046652107 -23.253504402622845, 55.58587534400982 -22.62800452807842 M54.09106945219533 -23.985547688627737 C54.55424666441633 -23.564902399486108, 55.01742387663733 -23.144257110344476, 55.58587534400982 -22.62800452807842 M55.58587534400982 -22.62800452807842 C56.03035644613628 -22.169041297555694, 56.47483754826274 -21.71007806703297, 56.990631907872434 -21.177478043231485 M55.58587534400982 -22.62800452807842 C56.06464716211744 -22.133633317985012, 56.543418980225056 -21.639262107891607, 56.990631907872434 -21.177478043231485 M56.990631907872434 -21.177478043231485 C57.304122019064735 -20.809234720532345, 57.617612130257044 -20.44099139783321, 58.29956669774294 -19.63992875855011 M56.990631907872434 -21.177478043231485 C57.38735758735666 -20.711461485778646, 57.78408326684089 -20.24544492832581, 58.29956669774294 -19.63992875855011 M58.29956669774294 -19.63992875855011 C58.55185707855887 -19.301882632383286, 58.80414745937479 -18.963836506216467, 59.5073010198041 -18.02167479384835 M58.29956669774294 -19.63992875855011 C58.62356733294045 -19.20579742445053, 58.94756796813797 -18.77166609035095, 59.5073010198041 -18.02167479384835 M59.5073010198041 -18.02167479384835 C59.848955175388646 -17.496802263883932, 60.19060933097319 -16.971929733919513, 60.6088720346684 -16.329365901781543 M59.5073010198041 -18.02167479384835 C59.83726347513497 -17.514763855134692, 60.16722593046583 -17.007852916421033, 60.6088720346684 -16.329365901781543 M60.6088720346684 -16.329365901781543 C60.867582640558936 -15.869999023733312, 61.12629324644948 -15.410632145685081, 61.59975315074951 -14.56995614258631 M60.6088720346684 -16.329365901781543 C60.8585666455868 -15.886007835774834, 61.1082612565052 -15.442649769768124, 61.59975315074951 -14.56995614258631 M61.59975315074951 -14.56995614258631 C61.867533658969705 -14.013904187682048, 62.135314167189904 -13.457852232777785, 62.47587262499809 -12.750675308355413 M61.59975315074951 -14.56995614258631 C61.833790987998 -14.083971565932291, 62.0678288252465 -13.59798698927827, 62.47587262499809 -12.750675308355413 M62.47587262499809 -12.750675308355413 C62.646784881497084 -12.32851873043921, 62.81769713799608 -11.906362152523007, 63.23363029456745 -10.878999214271206 M62.47587262499809 -12.750675308355413 C62.67279191255426 -12.264280860916243, 62.86971120011044 -11.777886413477072, 63.23363029456745 -10.878999214271206 M63.23363029456745 -10.878999214271206 C63.38860363477454 -10.412244205216023, 63.543576974981626 -9.94548919616084, 63.86991237065481 -8.962618978877531 M63.23363029456745 -10.878999214271206 C63.387161067278505 -10.416588988672153, 63.54069183998956 -9.9541787630731, 63.86991237065481 -8.962618978877531 M63.86991237065481 -8.962618978877531 C64.06103273989757 -8.233794178862873, 64.25215310914034 -7.504969378848214, 64.38210423372745 -7.009409419623907 M63.86991237065481 -8.962618978877531 C64.07238859770588 -8.1904893713799, 64.27486482475695 -7.418359763882268, 64.38210423372745 -7.009409419623907 M64.38210423372745 -7.009409419623907 C64.48419813567415 -6.485178810681443, 64.58629203762084 -5.960948201738979, 64.76810117755518 -5.027396693551458 M64.38210423372745 -7.009409419623907 C64.48062911686436 -6.503504967957247, 64.57915400000128 -5.997600516290587, 64.76810117755518 -5.027396693551458 M64.76810117755518 -5.027396693551458 C64.86419762413304 -4.282091630283287, 64.96029407071092 -3.536786567015117, 65.02631705789975 -3.024725316091981 M64.76810117755518 -5.027396693551458 C64.83356294973481 -4.519688115415278, 64.89902472191444 -4.011979537279099, 65.02631705789975 -3.024725316091981 M65.02631705789975 -3.024725316091981 C65.06571032641213 -2.4111433613374933, 65.10510359492453 -1.7975614065830054, 65.15569081032167 -1.0096246935071378 M65.02631705789975 -3.024725316091981 C65.07442482202015 -2.2754080580285057, 65.12253258614055 -1.5260907999650304, 65.15569081032167 -1.0096246935071378 M65.15569081032167 -1.0096246935071378 C65.15569081032167 -0.5766712125034017, 65.15569081032167 -0.1437177314996655, 65.15569081032167 1.00962469350713 M65.15569081032167 -1.0096246935071378 C65.15569081032167 -0.4912940994676753, 65.15569081032167 0.02703649457178714, 65.15569081032167 1.00962469350713 M65.15569081032167 1.00962469350713 C65.12362331791873 1.5091017720969535, 65.09155582551578 2.008578850686777, 65.02631705789975 3.02472531609196 M65.15569081032167 1.00962469350713 C65.11636515654827 1.6221534941243463, 65.07703950277485 2.234682294741563, 65.02631705789975 3.02472531609196 M65.02631705789975 3.02472531609196 C64.9596881965997 3.541485606978255, 64.89305933529965 4.05824589786455, 64.76810117755518 5.027396693551435 M65.02631705789975 3.02472531609196 C64.92773735451148 3.7892900288071005, 64.82915765112321 4.553854741522241, 64.76810117755518 5.027396693551435 M64.76810117755518 5.027396693551435 C64.6180971174634 5.797635838753384, 64.46809305737163 6.567874983955332, 64.38210423372745 7.0094094196239 M64.76810117755518 5.027396693551435 C64.67400863135514 5.510542031821984, 64.57991608515509 5.993687370092534, 64.38210423372745 7.0094094196239 M64.38210423372745 7.0094094196239 C64.2493673325756 7.515592752252745, 64.11663043142376 8.02177608488159, 63.869912370654816 8.96261897887751 M64.38210423372745 7.0094094196239 C64.19799926173972 7.711481469412682, 64.013894289752 8.413553519201464, 63.869912370654816 8.96261897887751 M63.869912370654816 8.96261897887751 C63.701927603042606 9.468562334187494, 63.533942835430395 9.974505689497478, 63.233630294567455 10.878999214271184 M63.869912370654816 8.96261897887751 C63.73742594507252 9.361646983886091, 63.60493951949023 9.760674988894673, 63.233630294567455 10.878999214271184 M63.233630294567455 10.878999214271184 C63.065266994896206 11.294859819542117, 62.896903695224964 11.71072042481305, 62.47587262499809 12.750675308355405 M63.233630294567455 10.878999214271184 C63.01259465470633 11.42496151816155, 62.7915590148452 11.970923822051915, 62.47587262499809 12.750675308355405 M62.47587262499809 12.750675308355405 C62.22106473018993 13.279789353940107, 61.96625683538177 13.808903399524807, 61.59975315074951 14.569956142586303 M62.47587262499809 12.750675308355405 C62.20637008571693 13.310303097603311, 61.93686754643577 13.86993088685122, 61.59975315074951 14.569956142586303 M61.59975315074951 14.569956142586303 C61.278122512387846 15.14104390963119, 60.956491874026185 15.712131676676078, 60.60887203466841 16.329365901781536 M61.59975315074951 14.569956142586303 C61.21172137234103 15.258945857628847, 60.823689593932556 15.947935572671389, 60.60887203466841 16.329365901781536 M60.60887203466841 16.329365901781536 C60.3880510993908 16.66860615709167, 60.16723016411319 17.007846412401804, 59.50730101980412 18.021674793848334 M60.60887203466841 16.329365901781536 C60.332352885609644 16.75417357052411, 60.05583373655088 17.17898123926668, 59.50730101980412 18.021674793848334 M59.50730101980412 18.021674793848334 C59.034593297987485 18.655060076523245, 58.56188557617085 19.288445359198157, 58.29956669774295 19.639928758550102 M59.50730101980412 18.021674793848334 C59.22809285715977 18.39578829540487, 58.94888469451542 18.769901796961403, 58.29956669774295 19.639928758550102 M58.29956669774295 19.639928758550102 C57.86334697595071 20.15233726537259, 57.427127254158485 20.66474577219508, 56.99063190787245 21.177478043231467 M58.29956669774295 19.639928758550102 C57.80642298748248 20.219203421294083, 57.31327927722201 20.798478084038063, 56.99063190787245 21.177478043231467 M56.99063190787245 21.177478043231467 C56.482743174767286 21.70191485860302, 55.974854441662124 22.226351673974573, 55.58587534400983 22.628004528078414 M56.99063190787245 21.177478043231467 C56.5761917856338 21.605421495609704, 56.16175166339516 22.03336494798794, 55.58587534400983 22.628004528078414 M55.58587534400983 22.628004528078414 C55.032510095374 23.13055620564731, 54.47914484673817 23.633107883216205, 54.091069452195356 23.985547688627715 M55.58587534400983 22.628004528078414 C55.153424267849296 23.020745153418936, 54.72097319168876 23.41348577875946, 54.091069452195356 23.985547688627715 M54.091069452195356 23.985547688627715 C53.46155074740182 24.487572103504277, 52.83203204260829 24.989596518380836, 52.51235671047331 25.24452908884063 M54.091069452195356 23.985547688627715 C53.64656940653874 24.340024646395886, 53.20206936088211 24.694501604164056, 52.51235671047331 25.24452908884063 M52.51235671047331 25.24452908884063 C51.85080098065328 25.70600172767711, 51.189245250833245 26.167474366513588, 50.8562243881323 26.399775304092973 M52.51235671047331 25.24452908884063 C52.16685506308933 25.485536081530437, 51.82135341570535 25.726543074220242, 50.8562243881323 26.399775304092973 M50.8562243881323 26.399775304092973 C50.46899624520014 26.634515279943603, 50.08176810226798 26.869255255794236, 49.12947788812404 27.446539179886766 M50.8562243881323 26.399775304092973 C50.30439296182948 26.73429875763916, 49.75256153552667 27.06882221118535, 49.12947788812404 27.446539179886766 M49.12947788812404 27.446539179886766 C48.43488778382544 27.80890639239315, 47.74029767952684 28.171273604899536, 47.339212782203084 28.3805193389262 M49.12947788812404 27.446539179886766 C48.543819328278374 27.75207687542604, 47.9581607684327 28.057614570965317, 47.339212782203084 28.3805193389262 M47.339212782203084 28.3805193389262 C46.66847557415523 28.677434804216638, 45.997738366107384 28.974350269507077, 45.492785653700295 29.197877856399682 M47.339212782203084 28.3805193389262 C46.90741808055415 28.571662044611454, 46.47562337890521 28.76280475029671, 45.492785653700295 29.197877856399682 M45.492785653700295 29.197877856399682 C44.96352450179791 29.392650852736217, 44.434263349895524 29.58742384907275, 43.59778386774407 29.895256030836055 M45.492785653700295 29.197877856399682 C45.00074054152781 29.378955006094312, 44.508695429355335 29.560032155788942, 43.59778386774407 29.895256030836055 M43.59778386774407 29.895256030836055 C43.20565966114558 30.011636437052523, 42.81353545454709 30.128016843268995, 41.66199439314951 30.46978818572942 M43.59778386774407 29.895256030836055 C43.07451327154283 30.050559997085173, 42.55124267534159 30.205863963334295, 41.66199439314951 30.46978818572942 M41.66199439314951 30.46978818572942 C41.02883579823001 30.614302503273834, 40.39567720331051 30.758816820818247, 39.69337180409324 30.919113445218557 M41.66199439314951 30.46978818572942 C41.02508618355582 30.615158328354696, 40.38817797396213 30.76052847097997, 39.69337180409324 30.919113445218557 M39.69337180409324 30.919113445218557 C38.996718992535186 31.03174286916802, 38.30006618097713 31.144372293117485, 37.70000559306196 31.24138543543225 M39.69337180409324 30.919113445218557 C39.04823747204537 31.023413760932588, 38.403103139997505 31.127714076646622, 37.70000559306196 31.24138543543225 M37.70000559306196 31.24138543543225 C37.17120966926407 31.292397742230886, 36.642413745466186 31.343410049029526, 35.69008692939246 31.435279871635593 M37.70000559306196 31.24138543543225 C37.02245403470107 31.306748019392355, 36.34490247634018 31.37211060335246, 35.69008692939246 31.435279871635593 M35.69008692939246 31.435279871635593 C35.254846611094294 31.44923718149953, 34.819606292796124 31.463194491363467, 33.67187500000001 31.5 M35.69008692939246 31.435279871635593 C35.07605802757127 31.454970583382245, 34.46202912575008 31.4746612951289, 33.67187500000001 31.5 M33.67187500000001 31.5 C33.67187500000001 31.5, 33.671875 31.5, 33.671875 31.5 M33.67187500000001 31.5 C33.67187500000001 31.5, 33.671875 31.5, 33.671875 31.5 M33.671875 31.5 C6.930946107337817 31.5, -19.809982785324365 31.5, -33.67187499999999 31.5 M33.671875 31.5 C12.417296272167505 31.5, -8.83728245566499 31.5, -33.67187499999999 31.5 M-33.67187499999999 31.5 C-34.273371110269686 31.480711190484804, -34.87486722053938 31.46142238096961, -35.69008692939244 31.435279871635593 M-33.67187499999999 31.5 C-34.1548010405564 31.48451350183787, -34.63772708111281 31.46902700367574, -35.69008692939244 31.435279871635593 M-35.69008692939244 31.435279871635593 C-36.346390349252204 31.371967070042064, -37.00269376911197 31.30865426844854, -37.700005593061945 31.24138543543225 M-35.69008692939244 31.435279871635593 C-36.32235498498728 31.374285732725948, -36.95462304058212 31.313291593816302, -37.700005593061945 31.24138543543225 M-37.700005593061945 31.24138543543225 C-38.33571133851172 31.138609460479614, -38.97141708396149 31.035833485526982, -39.693371804093225 30.919113445218557 M-37.700005593061945 31.24138543543225 C-38.241246480142806 31.153881806194782, -38.782487367223666 31.06637817695732, -39.693371804093225 30.919113445218557 M-39.693371804093225 30.919113445218557 C-40.32534095819102 30.77487060977987, -40.957310112288816 30.63062777434119, -41.66199439314947 30.469788185729428 M-39.693371804093225 30.919113445218557 C-40.16354278010998 30.811799988095085, -40.633713756126724 30.704486530971614, -41.66199439314947 30.469788185729428 M-41.66199439314947 30.469788185729428 C-42.18724832798303 30.313895574984997, -42.71250226281658 30.158002964240566, -43.597783867744035 29.89525603083607 M-41.66199439314947 30.469788185729428 C-42.068013962229166 30.349283708866786, -42.47403353130886 30.22877923200414, -43.597783867744035 29.89525603083607 M-43.597783867744035 29.89525603083607 C-44.17080570088751 29.68437869928351, -44.74382753403099 29.47350136773095, -45.49278565370029 29.197877856399685 M-43.597783867744035 29.89525603083607 C-44.07345179951436 29.720205834918428, -44.54911973128469 29.54515563900079, -45.49278565370029 29.197877856399685 M-45.49278565370029 29.197877856399685 C-45.976533220394735 28.98373715848577, -46.46028078708918 28.769596460571854, -47.33921278220308 28.380519338926206 M-45.49278565370029 29.197877856399685 C-46.18110370797283 28.89317987200285, -46.86942176224537 28.588481887606015, -47.33921278220308 28.380519338926206 M-47.33921278220308 28.380519338926206 C-47.80410949319506 28.137983022582244, -48.26900620418704 27.895446706238282, -49.12947788812403 27.446539179886773 M-47.33921278220308 28.380519338926206 C-47.87491246300828 28.101045158582153, -48.41061214381348 27.821570978238103, -49.12947788812403 27.446539179886773 M-49.12947788812403 27.446539179886773 C-49.724746013375004 27.085684144175836, -50.32001413862597 26.724829108464903, -50.85622438813226 26.399775304092994 M-49.12947788812403 27.446539179886773 C-49.75995243278958 27.064341805830832, -50.390426977455135 26.68214443177489, -50.85622438813226 26.399775304092994 M-50.85622438813226 26.399775304092994 C-51.42111978105188 26.0057287319197, -51.9860151739715 25.611682159746405, -52.5123567104733 25.244529088840636 M-50.85622438813226 26.399775304092994 C-51.307018166591796 26.08532107878777, -51.75781194505133 25.770866853482552, -52.5123567104733 25.244529088840636 M-52.5123567104733 25.244529088840636 C-53.121501530103075 24.75875230521032, -53.73064634973285 24.272975521579998, -54.09106945219533 23.98554768862774 M-52.5123567104733 25.244529088840636 C-53.13356171431892 24.749134629233158, -53.754766718164554 24.25374016962568, -54.09106945219533 23.98554768862774 M-54.09106945219533 23.98554768862774 C-54.48680824213191 23.626148190281945, -54.88254703206849 23.266748691936147, -55.58587534400981 22.628004528078435 M-54.09106945219533 23.98554768862774 C-54.63729861289604 23.489476817310976, -55.18352777359676 22.993405945994212, -55.58587534400981 22.628004528078435 M-55.58587534400981 22.628004528078435 C-55.87583755713179 22.32859473668955, -56.16579977025378 22.029184945300667, -56.99063190787244 21.177478043231478 M-55.58587534400981 22.628004528078435 C-56.14409051753362 22.051601531097024, -56.70230569105743 21.47519853411561, -56.99063190787244 21.177478043231478 M-56.99063190787244 21.177478043231478 C-57.42848397120299 20.663152095155212, -57.86633603453354 20.148826147078946, -58.29956669774293 19.639928758550113 M-56.99063190787244 21.177478043231478 C-57.332583603219355 20.775802124274318, -57.67453529856627 20.374126205317154, -58.29956669774293 19.639928758550113 M-58.29956669774293 19.639928758550113 C-58.65824858456661 19.1593277067985, -59.01693047139028 18.67872665504689, -59.5073010198041 18.021674793848355 M-58.29956669774293 19.639928758550113 C-58.742469914816965 19.046478796984054, -59.18537313189099 18.453028835417996, -59.5073010198041 18.021674793848355 M-59.5073010198041 18.021674793848355 C-59.84473443970761 17.50328644731623, -60.18216785961112 16.984898100784104, -60.608872034668394 16.329365901781557 M-59.5073010198041 18.021674793848355 C-59.87667219256969 17.454221482432605, -60.24604336533528 16.886768171016854, -60.608872034668394 16.329365901781557 M-60.608872034668394 16.329365901781557 C-60.865048722310284 15.874498252170842, -61.121225409952174 15.419630602560126, -61.5997531507495 14.569956142586314 M-60.608872034668394 16.329365901781557 C-60.990683749503425 15.651420539463402, -61.372495464338456 14.973475177145247, -61.5997531507495 14.569956142586314 M-61.5997531507495 14.569956142586314 C-61.79840798327947 14.15744513230534, -61.99706281580944 13.744934122024363, -62.47587262499809 12.750675308355417 M-61.5997531507495 14.569956142586314 C-61.87089554918084 14.0069231507257, -62.142037947612174 13.443890158865088, -62.47587262499809 12.750675308355417 M-62.47587262499809 12.750675308355417 C-62.73151251468926 12.119239838357197, -62.987152404380424 11.487804368358978, -63.23363029456745 10.878999214271209 M-62.47587262499809 12.750675308355417 C-62.683488516869836 12.23786004145201, -62.891104408741576 11.7250447745486, -63.23363029456745 10.878999214271209 M-63.23363029456745 10.878999214271209 C-63.449109750465894 10.230009425094005, -63.66458920636434 9.581019635916801, -63.86991237065481 8.962618978877522 M-63.23363029456745 10.878999214271209 C-63.41515567920122 10.332273677896612, -63.596681063835 9.785548141522014, -63.86991237065481 8.962618978877522 M-63.86991237065481 8.962618978877522 C-64.02889421442947 8.356352305397763, -64.18787605820414 7.7500856319180045, -64.38210423372743 7.009409419623911 M-63.86991237065481 8.962618978877522 C-64.01088497342816 8.425029346590165, -64.15185757620152 7.887439714302808, -64.38210423372743 7.009409419623911 M-64.38210423372743 7.009409419623911 C-64.47334857005174 6.540889037095884, -64.56459290637606 6.072368654567855, -64.76810117755518 5.027396693551461 M-64.38210423372743 7.009409419623911 C-64.46631586737027 6.577000479003042, -64.55052750101311 6.144591538382172, -64.76810117755518 5.027396693551461 M-64.76810117755518 5.027396693551461 C-64.84875500903387 4.401861503503217, -64.92940884051256 3.7763263134549723, -65.02631705789975 3.024725316091999 M-64.76810117755518 5.027396693551461 C-64.84933324029129 4.397376856055352, -64.9305653030274 3.767357018559244, -65.02631705789975 3.024725316091999 M-65.02631705789975 3.024725316091999 C-65.07642742353748 2.244215922925069, -65.12653778917523 1.4637065297581386, -65.15569081032167 1.0096246935071416 M-65.02631705789975 3.024725316091999 C-65.06579071803709 2.4098911968878816, -65.10526437817444 1.795057077683764, -65.15569081032167 1.0096246935071416 M-65.15569081032167 1.0096246935071416 C-65.15569081032167 0.5919972530077506, -65.15569081032167 0.1743698125083597, -65.15569081032167 -1.0096246935071262 M-65.15569081032167 1.0096246935071416 C-65.15569081032167 0.21245585809968492, -65.15569081032167 -0.5847129773077717, -65.15569081032167 -1.0096246935071262 M-65.15569081032167 -1.0096246935071262 C-65.11852017383187 -1.5885873604335414, -65.08134953734206 -2.1675500273599564, -65.02631705789975 -3.024725316091956 M-65.15569081032167 -1.0096246935071262 C-65.10515532055824 -1.796755738085762, -65.0546198307948 -2.583886782664398, -65.02631705789975 -3.024725316091956 M-65.02631705789975 -3.024725316091956 C-64.96529161636991 -3.498026589760894, -64.90426617484007 -3.971327863429832, -64.76810117755518 -5.027396693551446 M-65.02631705789975 -3.024725316091956 C-64.94867443463725 -3.626906169845675, -64.87103181137476 -4.229087023599394, -64.76810117755518 -5.027396693551446 M-64.76810117755518 -5.027396693551446 C-64.63269440166864 -5.722681869496624, -64.49728762578209 -6.417967045441802, -64.38210423372745 -7.009409419623896 M-64.76810117755518 -5.027396693551446 C-64.65397241379459 -5.613423774339329, -64.539843650034 -6.199450855127211, -64.38210423372745 -7.009409419623896 M-64.38210423372745 -7.009409419623896 C-64.21959727320953 -7.629118891040926, -64.05709031269161 -8.248828362457957, -63.869912370654816 -8.962618978877506 M-64.38210423372745 -7.009409419623896 C-64.20930856116506 -7.668354209222474, -64.03651288860269 -8.327298998821052, -63.869912370654816 -8.962618978877506 M-63.869912370654816 -8.962618978877506 C-63.697864251426644 -9.480800501847598, -63.52581613219848 -9.99898202481769, -63.23363029456746 -10.878999214271168 M-63.869912370654816 -8.962618978877506 C-63.6735828018759 -9.553932359170835, -63.47725323309699 -10.145245739464164, -63.23363029456746 -10.878999214271168 M-63.23363029456746 -10.878999214271168 C-62.940435985914 -11.603194825171547, -62.64724167726054 -12.327390436071928, -62.47587262499809 -12.750675308355401 M-63.23363029456746 -10.878999214271168 C-63.00485127417257 -11.444087817787995, -62.776072253777684 -12.009176421304822, -62.47587262499809 -12.750675308355401 M-62.47587262499809 -12.750675308355401 C-62.226747829015004 -13.267988277631002, -61.97762303303192 -13.785301246906602, -61.59975315074951 -14.5699561425863 M-62.47587262499809 -12.750675308355401 C-62.183490912598934 -13.35781219011871, -61.89110920019978 -13.964949071882016, -61.59975315074951 -14.5699561425863 M-61.59975315074951 -14.5699561425863 C-61.256981444470306 -15.178582016484041, -60.914209738191104 -15.787207890381783, -60.6088720346684 -16.329365901781546 M-61.59975315074951 -14.5699561425863 C-61.20723190224479 -15.26691736639286, -60.81471065374008 -15.963878590199423, -60.6088720346684 -16.329365901781546 M-60.6088720346684 -16.329365901781546 C-60.38450224422554 -16.674058151626554, -60.16013245378267 -17.01875040147156, -59.50730101980411 -18.021674793848344 M-60.6088720346684 -16.329365901781546 C-60.385213393752444 -16.67296563498284, -60.16155475283649 -17.016565368184136, -59.50730101980411 -18.021674793848344 M-59.50730101980411 -18.021674793848344 C-59.090702026876784 -18.57987949142194, -58.67410303394946 -19.138084188995535, -58.29956669774295 -19.639928758550102 M-59.50730101980411 -18.021674793848344 C-59.15722755581639 -18.490741343243233, -58.80715409182867 -18.959807892638118, -58.29956669774295 -19.639928758550102 M-58.29956669774295 -19.639928758550102 C-57.852308174199145 -20.1653040700356, -57.40504965065534 -20.690679381521097, -56.990631907872455 -21.177478043231467 M-58.29956669774295 -19.639928758550102 C-57.90624618737356 -20.101945410601036, -57.512925677004176 -20.563962062651974, -56.990631907872455 -21.177478043231467 M-56.990631907872455 -21.177478043231467 C-56.635871056649876 -21.543797748526337, -56.281110205427304 -21.910117453821208, -55.585875344009835 -22.628004528078403 M-56.990631907872455 -21.177478043231467 C-56.48359025314511 -21.701040180631495, -55.97654859841776 -22.224602318031526, -55.585875344009835 -22.628004528078403 M-55.585875344009835 -22.628004528078403 C-55.05074909586603 -23.11399202797795, -54.51562284772223 -23.599979527877498, -54.091069452195356 -23.98554768862771 M-55.585875344009835 -22.628004528078403 C-55.03104496218932 -23.13188680084033, -54.476214580368804 -23.635769073602262, -54.091069452195356 -23.98554768862771 M-54.091069452195356 -23.98554768862771 C-53.57996400385336 -24.393140682593263, -53.06885855551137 -24.800733676558814, -52.51235671047331 -25.244529088840626 M-54.091069452195356 -23.98554768862771 C-53.49627920238196 -24.45987708482061, -52.90148895256857 -24.934206481013515, -52.51235671047331 -25.244529088840626 M-52.51235671047331 -25.244529088840626 C-51.95449240383525 -25.633671079594727, -51.396628097197194 -26.02281307034883, -50.856224388132304 -26.39977530409297 M-52.51235671047331 -25.244529088840626 C-52.03871072465721 -25.574924024741676, -51.56506473884111 -25.90531896064273, -50.856224388132304 -26.39977530409297 M-50.856224388132304 -26.39977530409297 C-50.36908366411518 -26.695082873748802, -49.881942940098064 -26.990390443404635, -49.12947788812404 -27.446539179886763 M-50.856224388132304 -26.39977530409297 C-50.46807255167233 -26.63507522838839, -50.079920715212346 -26.87037515268381, -49.12947788812404 -27.446539179886763 M-49.12947788812404 -27.446539179886763 C-48.56615645704872 -27.74042360965416, -48.0028350259734 -28.03430803942156, -47.33921278220309 -28.3805193389262 M-49.12947788812404 -27.446539179886763 C-48.507216283276755 -27.771172660558015, -47.884954678429466 -28.095806141229268, -47.33921278220309 -28.3805193389262 M-47.33921278220309 -28.3805193389262 C-46.76859989140323 -28.633112739053296, -46.19798700060337 -28.885706139180392, -45.4927856537003 -29.19787785639968 M-47.33921278220309 -28.3805193389262 C-46.82721569859621 -28.607165259985106, -46.31521861498933 -28.83381118104401, -45.4927856537003 -29.19787785639968 M-45.4927856537003 -29.19787785639968 C-44.98035253886021 -29.38645797954062, -44.46791942402012 -29.575038102681564, -43.59778386774408 -29.895256030836055 M-45.4927856537003 -29.19787785639968 C-44.74195489995073 -29.47419051438293, -43.991124146201145 -29.750503172366177, -43.59778386774408 -29.895256030836055 M-43.59778386774408 -29.895256030836055 C-43.13268860506878 -30.033293863463232, -42.66759334239348 -30.17133169609041, -41.66199439314951 -30.469788185729417 M-43.59778386774408 -29.895256030836055 C-42.8779279489304 -30.10890548893913, -42.15807203011673 -30.322554947042203, -41.66199439314951 -30.469788185729417 M-41.66199439314951 -30.469788185729417 C-41.11039429239989 -30.595687309198468, -40.558794191650264 -30.721586432667518, -39.69337180409324 -30.919113445218553 M-41.66199439314951 -30.469788185729417 C-40.960235434768855 -30.62996008857463, -40.25847647638819 -30.790131991419845, -39.69337180409324 -30.919113445218553 M-39.69337180409324 -30.919113445218553 C-39.04968811426318 -31.02317923234871, -38.40600442443312 -31.127245019478867, -37.70000559306196 -31.24138543543225 M-39.69337180409324 -30.919113445218553 C-39.08408796040851 -31.017617731998723, -38.47480411672378 -31.116122018778896, -37.70000559306196 -31.24138543543225 M-37.70000559306196 -31.24138543543225 C-37.18470704831784 -31.291095666306543, -36.66940850357372 -31.34080589718084, -35.69008692939246 -31.435279871635593 M-37.70000559306196 -31.24138543543225 C-37.001166989117564 -31.30880155507838, -36.302328385173176 -31.376217674724508, -35.69008692939246 -31.435279871635593 M-35.69008692939246 -31.435279871635593 C-35.166939789183104 -31.452056182177973, -34.643792648973744 -31.468832492720352, -33.67187500000001 -31.5 M-35.69008692939246 -31.435279871635593 C-35.23529752441329 -31.4498640826594, -34.78050811943413 -31.46444829368321, -33.67187500000001 -31.5 M-33.67187500000001 -31.5 C-33.67187500000001 -31.5, -33.67187500000001 -31.5, -33.671875 -31.5 M-33.67187500000001 -31.5 C-33.67187500000001 -31.5, -33.671875 -31.5, -33.671875 -31.5" stroke="#888" stroke-width="1.3" fill="none" stroke-dasharray="5 5" style="fill:#fafafa !important;stroke:#888 !important;stroke-dasharray:5 5 !important"/></g><g class="label" style="color:#666 !important" transform="translate(-49.796875, -24)"><rect/><foreignObject width="99.59375" height="48"><div style="color: rgb(102, 102, 102) !important; display: table-cell; white-space: nowrap; line-height: 1.5; max-width: 200px; text-align: center;" xmlns="http://www.w3.org/1999/xhtml"><span style="color:#666 !important" class="nodeLabel"><p>S-Miles Cloud<br /><i>optional</i></p></span></div></foreignObject></g></g><g class="node default system" id="my-svg-flowchart-sys_root-6" data-look="classic" transform="translate(678.3359375, 237.84765625)"><circle class="basic label-container" style="fill:#4a90e2 !important;stroke:#2a70c2 !important" r="74.1953125" cx="0" cy="0"/><g class="label" style="color:#fff !important;font-weight:bold !important" transform="translate(-66.6953125, -12)"><rect/><foreignObject width="133.390625" height="24"><div style="color: rgb(255, 255, 255) !important; font-weight: bold !important; display: table-cell; white-space: nowrap; line-height: 1.5; max-width: 200px; text-align: center;" xmlns="http://www.w3.org/1999/xhtml"><span style="color:#fff !important;font-weight:bold !important" class="nodeLabel"><p>Solar Local Stack</p></span></div></foreignObject></g></g></g></g></g><defs><filter id="my-svg-drop-shadow" height="130%" width="130%"><feDropShadow dx="4" dy="4" stdDeviation="0" flood-opacity="0.06" flood-color="#000000"/></filter></defs><defs><filter id="my-svg-drop-shadow-small" height="150%" width="150%"><feDropShadow dx="2" dy="2" stdDeviation="0" flood-opacity="0.06" flood-color="#000000"/></filter></defs></svg>