<svg id="my-svg" width="100%" xmlns="http://www.w3.org/2000/svg" xmlns:xlink="http://www.w3.org/1999/xlink" class="flowchart" style="max-width: 1179.02px; background-color: white;" viewBox="0 30.615978240966797 1179.015625 374.981689453125" role="graphics-document document" aria-roledescription="flowchart-v2"><style>#my-svg{font-family:"trebuchet ms",verdana,arial,sans-serif;font-size:16px;fill:#333;}@keyframes edge-animation-frame{from{stroke-dashoffset:0;}}@keyframes dash{to{stroke-dashoffset:0;}}#my-svg .edge-animation-slow{stroke-dasharray:9,5!important;stroke-dashoffset:900;animation:dash 50s linear infinite;stroke-linecap:round;}#my-svg .edge-animation-fast{stroke-dasharray:9,5!important;stroke-dashoffset:900;animation:dash 20s linear infinite;stroke-linecap:round;}#my-svg .error-icon{fill:#552222;}#my-svg .error-text{fill:#552222;stroke:#552222;}#my-svg .edge-thickness-normal{stroke-width:1px;}#my-svg .edge-thickness-thick{stroke-width:3.5px;}#my-svg .edge-pattern-solid{stroke-dasharray:0;}#my-svg .edge-thickness-invisible{stroke-width:0;fill:none;}#my-svg .edge-pattern-dashed{stroke-dasharray:3;}#my-svg .edge-pattern-dotted{stroke-dasharray:2;}#my-svg .marker{fill:#333333;stroke:#333333;}#my-svg .marker.cross{stroke:#333333;}#my-svg svg{font-family:"trebuchet ms",verdana,arial,sans-serif;font-size:16px;}#my-svg p{margin:0;}#my-svg .label{font-family:"trebuchet ms",verdana,arial,sans-serif;color:#333;}#my-svg .cluster-label text{fill:#333;}#my-svg .cluster-label span{color:#333;}#my-svg .cluster-label span p{background-color:transparent;}#my-svg .label text,#my-svg span{fill:#333;color:#333;}#my-svg .node rect,#my-svg .node circle,#my-svg .node ellipse,#my-svg .node polygon,#my-svg .node path{fill:#ECECFF;stroke:#9370DB;stroke-width:1px;}#my-svg .rough-node .label text,#my-svg .node .label text,#my-svg .image-shape .label,#my-svg .icon-shape .label{text-anchor:middle;}#my-svg .node .katex path{fill:#000;stroke:#000;stroke-width:1px;}#my-svg .rough-node .label,#my-svg .node .label,#my-svg .image-shape .label,#my-svg .icon-shape .label{text-align:center;}#my-svg .node.clickable{cursor:pointer;}#my-svg .root .anchor path{fill:#333333!important;stroke-width:0;stroke:#333333;}#my-svg .arrowheadPath{fill:#333333;}#my-svg .edgePath .path{stroke:#333333;stroke-width:1px;}#my-svg .flowchart-link{stroke:#333333;fill:none;}#my-svg .edgeLabel{background-color:rgba(232,232,232, 0.8);text-align:center;}#my-svg .edgeLabel p{background-color:rgba(232,232,232, 0.8);}#my-svg .edgeLabel rect{opacity:0.5;background-color:rgba(232,232,232, 0.8);fill:rgba(232,232,232, 0.8);}#my-svg .labelBkg{background-color:rgba(232, 232, 232, 0.5);}#my-svg .cluster rect{fill:#ffffde;stroke:#aaaa33;stroke-width:1px;}#my-svg .cluster text{fill:#333;}#my-svg .cluster span{color:#333;}#my-svg div.mermaidTooltip{position:absolute;text-align:center;max-width:200px;padding:2px;font-family:"trebuchet ms",verdana,arial,sans-serif;font-size:12px;background:hsl(80, 100%, 96.2745098039%);border:1px solid #aaaa33;border-radius:2px;pointer-events:none;z-index:100;}#my-svg .flowchartTitleText{text-anchor:middle;font-size:18px;fill:#333;}#my-svg rect.text{fill:none;stroke-width:0;}#my-svg .icon-shape,#my-svg .image-shape{background-color:rgba(232,232,232, 0.8);text-align:center;}#my-svg .icon-shape p,#my-svg .image-shape p{background-color:rgba(232,232,232, 0.8);padding:2px;}#my-svg .icon-shape .label rect,#my-svg .image-shape .label rect{opacity:0.5;background-color:rgba(232,232,232, 0.8);fill:rgba(232,232,232, 0.8);}#my-svg .label-icon{display:inline-block;height:1em;overflow:visible;vertical-align:-0.125em;}#my-svg .node .label-icon path{fill:currentColor;stroke:revert;stroke-width:revert;}#my-svg .node .neo-node{stroke:#9370DB;}#my-svg [data-look="neo"].node rect,#my-svg [data-look="neo"].cluster rect,#my-svg [data-look="neo"].node polygon{stroke:#9370DB;filter:drop-shadow(1px 2px 2px rgba(185, 185, 185, 1));}#my-svg [data-look="neo"].node path{stroke:#9370DB;stroke-width:1px;}#my-svg [data-look="neo"].node .outer-path{filter:drop-shadow(1px 2px 2px rgba(185, 185, 185, 1));}#my-svg [data-look="neo"].node .neo-line path{stroke:#9370DB;filter:none;}#my-svg [data-look="neo"].node circle{stroke:#9370DB;filter:drop-shadow(1px 2px 2px rgba(185, 185, 185, 1));}#my-svg [data-look="neo"].node circle .state-start{fill:#000000;}#my-svg [data-look="neo"].icon-shape .icon{fill:#9370DB;filter:drop-shadow(1px 2px 2px rgba(185, 185, 185, 1));}#my-svg [data-look="neo"].icon-shape .icon-neo path{stroke:#9370DB;filter:drop-shadow(1px 2px 2px rgba(185, 185, 185, 1));}#my-svg :root{--mermaid-font-family:"trebuchet ms",verdana,arial,sans-serif;}#my-svg .system&gt;*{fill:rgb(74, 144, 226)!important;stroke:rgb(42, 112, 194)!important;color:rgb(255, 255, 255)!important;font-weight:bold!important;}#my-svg .system span{fill:rgb(74, 144, 226)!important;stroke:rgb(42, 112, 194)!important;color:rgb(255, 255, 255)!important;font-weight:bold!important;}#my-svg .system tspan{fill:rgb(255, 255, 255)!important;}#my-svg .terminator&gt;*{fill:rgb(250, 250, 250)!important;stroke:rgb(68, 68, 68)!important;}#my-svg .terminator span{fill:rgb(250, 250, 250)!important;stroke:rgb(68, 68, 68)!important;}#my-svg .optional&gt;*{fill:rgb(250, 250, 250)!important;stroke:rgb(136, 136, 136)!important;stroke-dasharray:5,5!important;color:rgb(102, 102, 102)!important;}#my-svg .optional span{fill:rgb(250, 250, 250)!important;stroke:rgb(136, 136, 136)!important;stroke-dasharray:5,5!important;color:rgb(102, 102, 102)!important;}#my-svg .optional tspan{fill:rgb(102, 102, 102)!important;}#my-svg .grid&gt;*{fill:rgb(254, 240, 239)!important;stroke:rgb(231, 76, 60)!important;}#my-svg .grid span{fill:rgb(254, 240, 239)!important;stroke:rgb(231, 76, 60)!important;}</style><g><marker id="my-svg_flowchart-v2-pointEnd" class="marker flowchart-v2" viewBox="0 0 10 10" refX="5" refY="5" markerUnits="userSpaceOnUse" markerWidth="8" markerHeight="8" orient="auto"><path d="M 0 0 L 10 5 L 0 10 z" class="arrowMarkerPath" style="stroke-width: 1; stroke-dasharray: 1, 0;"/></marker><marker id="my-svg_flowchart-v2-pointStart" class="marker flowchart-v2" viewBox="0 0 10 10" refX="4.5" refY="5" markerUnits="userSpaceOnUse" markerWidth="8" markerHeight="8" orient="auto"><path d="M 0 5 L 10 10 L 10 0 z" class="arrowMarkerPath" style="stroke-width: 1; stroke-dasharray: 1, 0;"/></marker><marker id="my-svg_flowchart-v2-pointEnd-margin" class="marker flowchart-v2" viewBox="0 0 11.5 14" refX="11.5" refY="7" markerUnits="userSpaceOnUse" markerWidth="10.5" markerHeight="14" orient="auto"><path d="M 0 0 L 11.5 7 L 0 14 z" class="arrowMarkerPath" style="stroke-width: 0; stroke-dasharray: 1, 0;"/></marker><marker id="my-svg_flowchart-v2-pointStart-margin" class="marker flowchart-v2" viewBox="0 0 11.5 14" refX="1" refY="7" markerUnits="userSpaceOnUse" markerWidth="11.5" markerHeight="14" orient="auto"><polygon points="0,7 11.5,14 11.5,0" class="arrowMarkerPath" style="stroke-width: 0; stroke-dasharray: 1, 0;"/></marker><marker id="my-svg_flowchart-v2-circleEnd" class="marker flowchart-v2" viewBox="0 0 10 10" refX="11" refY="5" markerUnits="userSpaceOnUse" markerWidth="11" markerHeight="11" orient="auto"><circle cx="5" cy="5" r="5" class="arrowMarkerPath" style="stroke-width: 1; stroke-dasharray: 1, 0;"/></marker><marker id="my-svg_flowchart-v2-circleStart" class="marker flowchart-v2" viewBox="0 0 10 10" refX="-1" refY="5" markerUnits="userSpaceOnUse" markerWidth="11" markerHeight="11" orient="auto"><circle cx="5" cy="5" r="5" class="arrowMarkerPath" style="stroke-width: 1; stroke-dasharray: 1, 0;"/></marker><marker id="my-svg_flowchart-v2-circleEnd-margin" class="marker flowchart-v2" viewBox="0 0 10 10" refY="5" refX="12.25" markerUnits="userSpaceOnUse" markerWidth="14" markerHeight="14" orient="auto"><circle cx="5" cy="5" r="5" class="arrowMarkerPath" style="stroke-width: 0; stroke-dasharray: 1, 0;"/></marker><marker id="my-svg_flowchart-v2-circleStart-margin" class="marker flowchart-v2" viewBox="0 0 10 10" refX="-2" refY="5" markerUnits="userSpaceOnUse" markerWidth="14" markerHeight="14" orient="auto"><circle cx="5" cy="5" r="5" class="arrowMarkerPath" style="stroke-width: 0; stroke-dasharray: 1, 0;"/></marker><marker id="my-svg_flowchart-v2-crossEnd" class="marker cross flowchart-v2" viewBox="0 0 11 11" refX="12" refY="5.2" markerUnits="userSpaceOnUse" markerWidth="11" markerHeight="11" orient="auto"><path d="M 1,1 l 9,9 M 10,1 l -9,9" class="arrowMarkerPath" style="stroke-width: 2; stroke-dasharray: 1, 0;"/></marker><marker id="my-svg_flowchart-v2-crossStart" class="marker cross flowchart-v2" viewBox="0 0 11 11" refX="-1" refY="5.2" markerUnits="userSpaceOnUse" markerWidth="11" markerHeight="11" orient="auto"><path d="M 1,1 l 9,9 M 10,1 l -9,9" class="arrowMarkerPath" style="stroke-width: 2; stroke-dasharray: 1, 0;"/></marker><marker id="my-svg_flowchart-v2-crossEnd-margin" class="marker cross flowchart-v2" viewBox="0 0 15 15" refX="17.7" refY="7.5" markerUnits="userSpaceOnUse" markerWidth="12" markerHeight="12" orient="auto"><path d="M 1,1 L 14,14 M 1,14 L 14,1" class="arrowMarkerPath" style="stroke-width: 2.5;"/></marker><marker id="my-svg_flowchart-v2-crossStart-margin" class="marker cross flowchart-v2" viewBox="0 0 15 15" refX="-3.5" refY="7.5" markerUnits="userSpaceOnUse" markerWidth="12" markerHeight="12" orient="auto"><path d="M 1,1 L 14,14 M 1,14 L 14,1" class="arrowMarkerPath" style="stroke-width: 2.5; stroke-dasharray: 1, 0;"/></marker><g class="root"><g class="clusters"/><g class="edgePaths"><path d="M354.813,187.25L377.008,179.042C399.203,170.833,443.594,154.417,485.973,156.796C528.353,159.175,568.721,180.35,588.905,190.937L609.089,201.525" id="my-svg-L_term_inverters_sys_root_0" class="edge-thickness-normal edge-pattern-solid edge-thickness-normal edge-pattern-solid flowchart-link" style=";" data-edge="true" data-et="edge" data-id="L_term_inverters_sys_root_0" data-points="W3sieCI6MzU0LjgxMjU3Njg0NDI2MjMsInkiOjE4Ny4yNX0seyJ4Ijo0ODcuOTg0Mzc1LCJ5IjoxMzh9LHsieCI6NjEyLjYzMTIyMDQ4MDIwOCwieSI6MjAzLjM4MjY4MDQyOTI5NjA0fV0=" data-look="classic" marker-end="url(#my-svg_flowchart-v2-pointEnd)"/><path d="M608.988,264.225L588.82,271.896C568.653,279.567,528.319,294.908,484.057,291.361C439.796,287.813,391.607,265.376,367.513,254.157L343.419,242.938" id="my-svg-L_sys_root_term_inverters_0" class="edge-thickness-normal edge-pattern-solid edge-thickness-normal edge-pattern-solid flowchart-link" style=";" data-edge="true" data-et="edge" data-id="L_sys_root_term_inverters_0" data-points="W3sieCI6NjA4Ljk4NzY5Nzg5NDM3OTYsInkiOjI2NC4yMjUwMzQwNjgzOTA2fSx7IngiOjQ4Ny45ODQzNzUsInkiOjMxMC4yNX0seyJ4IjozMzkuNzkyNzI0NjA5Mzc1LCJ5IjoyNDEuMjV9XQ==" data-look="classic" marker-end="url(#my-svg_flowchart-v2-pointEnd)"/><path d="M371.828,295.545L391.188,290.663C410.547,285.78,449.266,276.015,487.46,268.322C525.655,260.629,563.326,255.008,582.161,252.198L600.997,249.387" id="my-svg-L_term_meter_sys_root_0" class="edge-thickness-normal edge-pattern-solid edge-thickness-normal edge-pattern-solid flowchart-link" style=";" data-edge="true" data-et="edge" data-id="L_term_meter_sys_root_0" data-points="W3sieCI6MzcxLjgyODEyNSwieSI6Mjk1LjU0NTQ0MTYyNzgyNzY0fSx7IngiOjQ4Ny45ODQzNzUsInkiOjI2Ni4yNX0seyJ4Ijo2MDQuOTUzMDEyNDExMjI0OCwieSI6MjQ4Ljc5NzExNzUzMjk5NzgyfV0=" data-look="classic" marker-end="url(#my-svg_flowchart-v2-pointEnd)"/><path d="M1002.531,91.981L981.698,97.417C960.865,102.853,919.198,113.726,876.495,131.595C833.792,149.465,790.052,174.333,768.183,186.766L746.313,199.2" id="my-svg-L_term_battery_system_sys_root_0" class="edge-thickness-normal edge-pattern-solid edge-thickness-normal edge-pattern-solid flowchart-link" style=";" data-edge="true" data-et="edge" data-id="L_term_battery_system_sys_root_0" data-points="W3sieCI6MTAwMi41MzEyNSwieSI6OTEuOTgxMzUxMTMxMDgxMjh9LHsieCI6ODc3LjUzMTI1LCJ5IjoxMjQuNTk3NjU2MjV9LHsieCI6NzQyLjgzNTY4MzA2NDc1NiwieSI6MjAxLjE3NzEzMzc2ODY2MDl9XQ==" data-look="classic" marker-end="url(#my-svg_flowchart-v2-pointEnd)"/><path d="M729.931,184.529L754.531,159.108C779.131,133.686,828.331,82.843,873.109,61.086C917.886,39.329,958.241,46.657,978.418,50.322L998.596,53.986" id="my-svg-L_sys_root_term_battery_system_0" class="edge-thickness-normal edge-pattern-solid edge-thickness-normal edge-pattern-solid flowchart-link" style=";" data-edge="true" data-et="edge" data-id="L_sys_root_term_battery_system_0" data-points="W3sieCI6NzI5LjkzMTMyOTYxMDQ2LCJ5IjoxODQuNTI5MTc5OTk3MDExMTd9LHsieCI6ODc3LjUzMTI1LCJ5IjozMn0seyJ4IjoxMDAyLjUzMTI1LCJ5Ijo1NC43MDA5NjcwMzEzMjU4NDV9XQ==" data-look="classic" marker-end="url(#my-svg_flowchart-v2-pointEnd)"/><path d="M1033.211,264.317L1007.264,267.572C981.318,270.827,929.424,277.338,882.977,275.858C836.53,274.379,795.528,264.911,775.027,260.176L754.526,255.442" id="my-svg-L_term_user_sys_root_0" class="edge-thickness-normal edge-pattern-solid edge-thickness-normal edge-pattern-solid flowchart-link" style=";" data-edge="true" data-et="edge" data-id="L_term_user_sys_root_0" data-points="W3sieCI6MTAzMy4yMTA5Mzc1LCJ5IjoyNjQuMzE3MjE3MTY1NTA2MX0seyJ4Ijo4NzcuNTMxMjUsInkiOjI4My44NDc2NTYyNX0seyJ4Ijo3NTAuNjI4NjYzMjM1MjUxOCwieSI6MjU0LjU0MjE1MjQzMTA4NjUyfV0=" data-look="classic" marker-end="url(#my-svg_flowchart-v2-pointEnd)"/><path d="M752.527,237.01L773.361,236.774C794.195,236.539,835.863,236.068,881.981,238.491C928.098,240.914,978.666,246.231,1003.949,248.889L1029.233,251.548" id="my-svg-L_sys_root_term_user_0" class="edge-thickness-normal edge-pattern-solid edge-thickness-normal edge-pattern-solid flowchart-link" style=";" data-edge="true" data-et="edge" data-id="L_sys_root_term_user_0" data-points="W3sieCI6NzUyLjUyNjUxNzI3MDA0MywieSI6MjM3LjAwOTY0MDUyMzY4ODE4fSx7IngiOjg3Ny41MzEyNSwieSI6MjM1LjU5NzY1NjI1fSx7IngiOjEwMzMuMjEwOTM3NSwieSI6MjUxLjk2NjAyNDI0NDYyMzQ0fV0=" data-look="classic" marker-end="url(#my-svg_flowchart-v2-pointEnd)"/><path d="M740.72,278.013L763.521,292.694C786.323,307.374,831.927,336.736,878.16,351.498C924.393,366.26,971.256,366.422,994.687,366.503L1018.118,366.584" id="my-svg-L_sys_root_term_smiles_cloud_0" class="edge-thickness-normal edge-pattern-dotted edge-thickness-normal edge-pattern-solid flowchart-link" style=";" data-edge="true" data-et="edge" data-id="L_sys_root_term_smiles_cloud_0" data-points="W3sieCI6NzQwLjcxOTUxOTI0NDE3MzIsInkiOjI3OC4wMTI3Mjk3MDYxODQ4N30seyJ4Ijo4NzcuNTMxMjUsInkiOjM2Ni4wOTc2NTYyNX0seyJ4IjoxMDIyLjExNzc0NDQ0NTc3MjcsInkiOjM2Ni41OTc2NTYyNX1d" data-look="classic" marker-end="url(#my-svg_flowchart-v2-pointEnd)"/><path d="M103.876,155.652L114.36,165.419C124.844,175.185,145.813,194.717,161.797,204.484C177.781,214.25,188.781,214.25,194.281,214.25L199.781,214.25" id="my-svg-L_term_grid_term_inverters_0" class="edge-thickness-normal edge-pattern-solid edge-thickness-normal edge-pattern-solid flowchart-link" style=";" data-edge="true" data-et="edge" data-id="L_term_grid_term_inverters_0" data-points="W3sieCI6MTAzLjg3NTYxMTA4MTMyMTYsInkiOjE1NS42NTIzNDM3NX0seyJ4IjoxNjYuNzgxMjUsInkiOjIxNC4yNX0seyJ4IjoxOTkuNzgxMjUsInkiOjIxNC4yNX1d" data-look="classic"/><path d="M122.012,101.652L129.473,97.377C136.935,93.102,151.858,84.551,178.49,80.275C205.122,76,243.464,76,296.997,76C350.531,76,419.258,76,485.346,76C551.435,76,614.885,76,679.81,76C744.734,76,811.133,76,865.165,75.403C919.198,74.805,960.865,73.61,981.698,73.013L1002.531,72.416" id="my-svg-L_term_grid_term_battery_system_0" class="edge-thickness-normal edge-pattern-solid edge-thickness-normal edge-pattern-solid flowchart-link" style=";" data-edge="true" data-et="edge" data-id="L_term_grid_term_battery_system_0" data-points="W3sieCI6MTIyLjAxMTkyNDc5OTY4ODQsInkiOjEwMS42NTIzNDM3NX0seyJ4IjoxNjYuNzgxMjUsInkiOjc2fSx7IngiOjI4MS44MDQ2ODc1LCJ5Ijo3Nn0seyJ4Ijo0ODcuOTg0Mzc1LCJ5Ijo3Nn0seyJ4Ijo2NzguMzM1OTM3NSwieSI6NzZ9LHsieCI6ODc3LjUzMTI1LCJ5Ijo3Nn0seyJ4IjoxMDAyLjUzMTI1LCJ5Ijo3Mi40MTU2MzY3ODQ1Mjc0OX1d" data-look="classic"/></g><g class="edgeLabels"><g class="edgeLabel" transform="translate(487.40625, 138.2138)"><g class="label" data-id="L_term_inverters_sys_root_0" transform="translate(-91.15625, -12)"><foreignObject width="182.3125" height="24"><div xmlns="http://www.w3.org/1999/xhtml" class="labelBkg" style="display: table-cell; white-space: nowrap; line-height: 1.5; max-width: 200px; text-align: center;"><span class="edgeLabel"><p>F1: per-channel telemetry</p></span></div></foreignObject></g></g><g class="edgeLabel" transform="translate(472.56982, 303.07278)"><g class="label" data-id="L_sys_root_term_inverters_0" transform="translate(-86.6953125, -12)"><foreignObject width="173.390625" height="24"><div xmlns="http://www.w3.org/1999/xhtml" class="labelBkg" style="display: table-cell; white-space: nowrap; line-height: 1.5; max-width: 200px; text-align: center;"><span class="edgeLabel"><p>F2: power-limit setpoints</p></span></div></foreignObject></g></g><g class="edgeLabel" transform="translate(487.24259, 266.43708)"><g class="label" data-id="L_term_meter_sys_root_0" transform="translate(-90.7109375, -12)"><foreignObject width="181.421875" height="24"><div xmlns="http://www.w3.org/1999/xhtml" class="labelBkg" style="display: table-cell; white-space: nowrap; line-height: 1.5; max-width: 200px; text-align: center;"><span class="edgeLabel"><p>F3: net grid power, V/I/PF</p></span></div></foreignObject></g></g><g class="edgeLabel" transform="translate(866.33536, 130.96294)"><g class="label" data-id="L_term_battery_system_sys_root_0" transform="translate(-77.8125, -12)"><foreignObject width="155.625" height="24"><div xmlns="http://www.w3.org/1999/xhtml" class="labelBkg" style="display: table-cell; white-space: nowrap; line-height: 1.5; max-width: 200px; text-align: center;"><span class="edgeLabel"><p>F4: SoC, mode, AC-in</p></span></div></foreignObject></g></g><g class="edgeLabel" transform="translate(847.90468, 62.61598)"><g class="label" data-id="L_sys_root_term_battery_system_0" transform="translate(-100, -24)"><foreignObject width="200" height="48"><div xmlns="http://www.w3.org/1999/xhtml" class="labelBkg" style="display: table; white-space: break-spaces; line-height: 1.5; max-width: 200px; text-align: center; width: 200px;"><span class="edgeLabel"><p>F5: max-charge, grid setpoint</p></span></div></foreignObject></g></g><g class="edgeLabel" transform="translate(890.75638, 282.18853)"><g class="label" data-id="L_term_user_sys_root_0" transform="translate(-68.4765625, -12)"><foreignObject width="136.953125" height="24"><div xmlns="http://www.w3.org/1999/xhtml" class="labelBkg" style="display: table-cell; white-space: nowrap; line-height: 1.5; max-width: 200px; text-align: center;"><span class="edgeLabel"><p>F6: config, override</p></span></div></foreignObject></g></g><g class="edgeLabel" transform="translate(877.53125, 235.59765625)"><g class="label" data-id="L_sys_root_term_user_0" transform="translate(-79.6015625, -12)"><foreignObject width="159.203125" height="24"><div xmlns="http://www.w3.org/1999/xhtml" class="labelBkg" style="display: table-cell; white-space: nowrap; line-height: 1.5; max-width: 200px; text-align: center;"><span class="edgeLabel"><p>F7: dashboards, alerts</p></span></div></foreignObject></g></g><g class="edgeLabel" transform="translate(877.53125, 366.09765625)"><g class="label" data-id="L_sys_root_term_smiles_cloud_0" transform="translate(-100, -24)"><foreignObject width="200" height="48"><div xmlns="http://www.w3.org/1999/xhtml" class="labelBkg" style="display: table; white-space: break-spaces; line-height: 1.5; max-width: 200px; text-align: center; width: 200px;"><span class="edgeLabel"><p>F8: optional telemetry forward</p></span></div></foreignObject></g></g><g class="edgeLabel"><g class="label" data-id="L_term_grid_term_inverters_0" transform="translate(0, 0)"><foreignObject width="0" height="0"><div xmlns="http://www.w3.org/1999/xhtml" class="labelBkg" style="display: table-cell; white-space: nowrap; line-height: 1.5; max-width: 200px; text-align: center;"><span class="edgeLabel"></span></div></foreignObject></g></g><g class="edgeLabel"><g class="label" data-id="L_term_grid_term_battery_system_0" transform="translate(0, 0)"><foreignObject width="0" height="0"><div xmlns="http://www.w3.org/1999/xhtml" class="labelBkg" style="display: table-cell; white-space: nowrap; line-height: 1.5; max-width: 200px; text-align: center;"><span class="edgeLabel"></span></div></foreignObject></g></g></g><g class="nodes"><g class="node default terminator" id="my-svg-flowchart-term_inverters-0" data-look="classic" transform="translate(281.8046875, 214.25)"><rect class="basic label-container" style="fill:#fafafa !important;stroke:#444 !important" x="-82.0234375" y="-27" width="164.046875" height="54"/><g class="label" style="" transform="translate(-52.0234375, -12)"><rect/><foreignObject width="104.046875" height="24"><div xmlns="http://www.w3.org/1999/xhtml" style="display: table-cell; white-space: nowrap; line-height: 1.5; max-width: 200px; text-align: center;"><span class="nodeLabel"><p>Solar Inverters</p></span></div></foreignObject></g></g><g class="node default terminator" id="my-svg-flowchart-term_meter-1" data-look="classic" transform="translate(281.8046875, 318.25)"><rect class="basic label-container" style="fill:#fafafa !important;stroke:#444 !important" x="-90.0234375" y="-27" width="180.046875" height="54"/><g class="label" style="" transform="translate(-60.0234375, -12)"><rect/><foreignObject width="120.046875" height="24"><div xmlns="http://www.w3.org/1999/xhtml" style="display: table-cell; white-space: nowrap; line-height: 1.5; max-width: 200px; text-align: center;"><span class="nodeLabel"><p>Net Power Meter</p></span></div></foreignObject></g></g><g class="node default terminator" id="my-svg-flowchart-term_battery_system-2" data-look="classic" transform="translate(1086.7734375, 70)"><rect class="basic label-container" style="fill:#fafafa !important;stroke:#444 !important" x="-84.2421875" y="-27" width="168.484375" height="54"/><g class="label" style="" transform="translate(-54.2421875, -12)"><rect/><foreignObject width="108.484375" height="24"><div xmlns="http://www.w3.org/1999/xhtml" style="display: table-cell; white-space: nowrap; line-height: 1.5; max-width: 200px; text-align: center;"><span class="nodeLabel"><p>Battery System</p></span></div></foreignObject></g></g><g class="node default grid" id="my-svg-flowchart-term_grid-3" data-look="classic" transform="translate(74.890625, 128.65234375)"><rect class="basic label-container" style="fill:#fef0ef !important;stroke:#e74c3c !important" x="-66.890625" y="-27" width="133.78125" height="54"/><g class="label" style="" transform="translate(-36.890625, -12)"><rect/><foreignObject width="73.78125" height="24"><div xmlns="http://www.w3.org/1999/xhtml" style="display: table-cell; white-space: nowrap; line-height: 1.5; max-width: 200px; text-align: center;"><span class="nodeLabel"><p>Utility Grid</p></span></div></foreignObject></g></g><g class="node default terminator" id="my-svg-flowchart-term_user-4" data-look="classic" transform="translate(1086.7734375, 257.59765625)"><rect class="basic label-container" style="fill:#fafafa !important;stroke:#444 !important" x="-53.5625" y="-27" width="107.125" height="54"/><g class="label" style="" transform="translate(-23.5625, -12)"><rect/><foreignObject width="47.125" height="24"><div xmlns="http://www.w3.org/1999/xhtml" style="display: table-cell; white-space: nowrap; line-height: 1.5; max-width: 200px; text-align: center;"><span class="nodeLabel"><p>Owner</p></span></div></foreignObject></g></g><g class="node default optional" id="my-svg-flowchart-term_smiles_cloud-5" data-look="classic" transform="translate(1086.7734375, 366.09765625)"><g class="basic label-container outer-path"><path d="M-33.671875 -31.5 C-13.521322067300225 -31.5, 6.629230865399549 -31.5, 33.671875 -31.5 C33.671875 -31.5, 33.671875 -31.5, 33.671875 -31.5 C34.44861810339141 -31.47509136051297, 35.225361206782814 -31.45018272102594, 35.69008692939246 -31.435279871635593 C36.28164607764185 -31.37821287205794, 36.87320522589125 -31.321145872480287, 37.70000559306194 -31.241385435432253 C38.44990953056499 -31.120146782408654, 39.199813468068044 -30.99890812938505, 39.693371804093225 -30.91911344521856 C40.424896427377476 -30.752147723598217, 41.15642105066173 -30.585182001977874, 41.66199439314948 -30.469788185729428 C42.10164383058211 -30.33930254046641, 42.541293268014755 -30.208816895203395, 43.59778386774405 -29.895256030836062 C44.15303694419485 -29.690917765998993, 44.70829002064566 -29.486579501161923, 45.49278565370028 -29.197877856399685 C45.903216671945046 -29.016192219626305, 46.31364769018981 -28.834506582852928, 47.33921278220308 -28.380519338926202 C47.84686484594126 -28.115677582440657, 48.35451690967945 -27.850835825955116, 49.129477888124036 -27.44653917988677 C49.73349365926315 -27.08038126983157, 50.33750943040226 -26.714223359776373, 50.856224388132276 -26.399775304092984 C51.34385279913027 -26.059626833674475, 51.83148121012827 -25.719478363255966, 52.5123567104733 -25.244529088840633 C52.89247785718004 -24.941392589790542, 53.27259900388679 -24.638256090740448, 54.09106945219533 -23.985547688627737 C54.552226948298014 -23.566736652226002, 55.0133844444007 -23.147925615824267, 55.58587534400982 -22.62800452807842 C55.92467389852933 -22.278167204658402, 56.263472453048834 -21.92832988123838, 56.990631907872434 -21.177478043231485 C57.511938662825116 -20.56512146566939, 58.03324541777779 -19.952764888107296, 58.29956669774294 -19.63992875855011 C58.743633730634244 -19.044919389814698, 59.187700763525555 -18.449910021079287, 59.5073010198041 -18.02167479384835 C59.893516594706014 -17.428343957395914, 60.279732169607925 -16.835013120943476, 60.6088720346684 -16.329365901781543 C60.991989990436366 -15.64910117641573, 61.37510794620433 -14.968836451049917, 61.59975315074951 -14.56995614258631 C61.84662360043176 -14.057324371639677, 62.09349405011401 -13.544692600693041, 62.47587262499809 -12.750675308355413 C62.67516204735227 -12.25842658214171, 62.87445146970646 -11.766177855928008, 63.23363029456745 -10.878999214271206 C63.465716794846806 -10.179991653391902, 63.69780329512616 -9.4809840925126, 63.86991237065481 -8.962618978877531 C63.99066676761447 -8.502130127983651, 64.11142116457412 -8.041641277089772, 64.38210423372745 -7.009409419623907 C64.50710813321952 -6.367540815315644, 64.63211203271159 -5.725672211007382, 64.76810117755518 -5.027396693551458 C64.82416092926398 -4.592608329548094, 64.88022068097278 -4.15781996554473, 65.02631705789975 -3.024725316091981 C65.05963400017274 -2.505787047238365, 65.09295094244573 -1.986848778384749, 65.15569081032167 -1.0096246935071378 C65.15569081032167 -0.5593066891636653, 65.15569081032167 -0.10898868482019275, 65.15569081032167 1.00962469350713 C65.12559891550188 1.4783302450656717, 65.09550702068209 1.9470357966242133, 65.02631705789975 3.02472531609196 C64.92325877657385 3.8240249948961313, 64.82020049524795 4.623324673700303, 64.76810117755518 5.027396693551435 C64.65804179934753 5.592528339589903, 64.54798242113988 6.15765998562837, 64.38210423372745 7.0094094196239 C64.23006051225882 7.589218025749497, 64.07801679079019 8.169026631875095, 63.869912370654816 8.96261897887751 C63.68586859131557 9.516929518853278, 63.50182481197632 10.071240058829048, 63.233630294567455 10.878999214271184 C62.99787199241344 11.461326778668301, 62.76211369025941 12.04365434306542, 62.47587262499809 12.750675308355405 C62.22239225864641 13.27703271269567, 61.96891189229473 13.803390117035935, 61.59975315074951 14.569956142586303 C61.28824191192903 15.123075891045502, 60.97673067310855 15.6761956395047, 60.60887203466841 16.329365901781536 C60.26565246098226 16.85664333432364, 59.92243288729611 17.383920766865742, 59.50730101980412 18.021674793848334 C59.238156398415384 18.382304066929812, 58.96901177702665 18.74293334001129, 58.29956669774295 19.639928758550102 C57.99568163260671 19.99688944760918, 57.69179656747047 20.35385013666826, 56.99063190787245 21.177478043231467 C56.62603979927058 21.5539493289317, 56.26144769066871 21.930420614631934, 55.58587534400983 22.628004528078414 C54.98857840291498 23.1704538063697, 54.39128146182014 23.71290308466099, 54.091069452195356 23.985547688627715 C53.73856292798772 24.266662261090737, 53.38605640378008 24.54777683355376, 52.51235671047331 25.24452908884063 C51.963104556615534 25.627663614629288, 51.413852402757755 26.010798140417947, 50.8562243881323 26.399775304092973 C50.24534522494906 26.770093842739087, 49.634466061765835 27.140412381385204, 49.12947788812404 27.446539179886766 C48.75700105577234 27.640860104741847, 48.38452422342065 27.83518102959693, 47.339212782203084 28.3805193389262 C46.95475317907516 28.550708200642006, 46.57029357594725 28.720897062357817, 45.492785653700295 29.197877856399682 C44.752904214134546 29.470161065548933, 44.01302277456879 29.74244427469818, 43.59778386774407 29.895256030836055 C42.83566503870177 30.121448898852442, 42.07354620965947 30.347641766868833, 41.66199439314951 30.46978818572942 C41.1317122073581 30.590821634221655, 40.601430021566685 30.711855082713893, 39.69337180409324 30.919113445218557 C39.162086849314235 31.005007476530867, 38.630801894535225 31.090901507843178, 37.70000559306196 31.24138543543225 C36.90535783839107 31.318044148621603, 36.110710083720186 31.394702861810952, 35.69008692939246 31.435279871635593 C35.05378036344121 31.455684984710054, 34.41747379748996 31.476090097784517, 33.67187500000001 31.5 C33.67187500000001 31.5, 33.671875 31.5, 33.671875 31.5 C17.4584130155604 31.5, 1.2449510311207987 31.5, -33.67187499999999 31.5 C-34.40928662631375 31.476352644428776, -35.14669825262751 31.452705288857548, -35.69008692939244 31.435279871635593 C-36.283537675028796 31.378030391933, -36.87698842066515 31.320780912230404, -37.700005593061945 31.24138543543225 C-38.21251044941955 31.158527624790874, -38.725015305777156 31.075669814149496, -39.693371804093225 30.919113445218557 C-40.1326987445223 30.81883993794183, -40.57202568495138 30.718566430665103, -41.66199439314947 30.469788185729428 C-42.076522145474044 30.34675852474007, -42.49104989779861 30.22372886375071, -43.597783867744035 29.89525603083607 C-44.135231417473435 29.697470364424962, -44.672678967202835 29.499684698013855, -45.49278565370029 29.197877856399685 C-46.14204090575744 28.910471815786746, -46.79129615781459 28.623065775173806, -47.33921278220308 28.380519338926206 C-47.958396301620006 28.057491693452366, -48.57757982103694 27.734464047978523, -49.12947788812403 27.446539179886773 C-49.78503778117873 27.04913492021946, -50.44059767423344 26.651730660552147, -50.85622438813226 26.399775304092994 C-51.26754356931242 26.112856849022087, -51.678862750492584 25.825938393951184, -52.5123567104733 25.244529088840636 C-52.97082066719555 24.878916283592908, -53.4292846239178 24.51330347834518, -54.09106945219533 23.98554768862774 C-54.44979421932087 23.659763346461553, -54.80851898644641 23.333979004295365, -55.58587534400981 22.628004528078435 C-55.96554935100075 22.235959944044595, -56.34522335799169 21.843915360010755, -56.99063190787244 21.177478043231478 C-57.403522251175524 20.692473551861585, -57.8164125944786 20.207469060491693, -58.29956669774293 19.639928758550113 C-58.56077427638954 19.289934399663615, -58.82198185503614 18.93994004077712, -59.5073010198041 18.021674793848355 C-59.88252435322689 17.44523099213798, -60.25774768664968 16.868787190427607, -60.608872034668394 16.329365901781557 C-60.96134683611419 15.703511199870604, -61.313821637559975 15.077656497959653, -61.5997531507495 14.569956142586314 C-61.81877367345738 14.115155340894946, -62.03779419616526 13.660354539203576, -62.47587262499809 12.750675308355417 C-62.77291515998773 12.016974504004274, -63.069957694977376 11.283273699653131, -63.23363029456745 10.878999214271209 C-63.413867792227116 10.336152588265694, -63.59410528988679 9.793305962260177, -63.86991237065481 8.962618978877522 C-64.02592225267358 8.367685683629354, -64.18193213469236 7.772752388381185, -64.38210423372743 7.009409419623911 C-64.46509757993465 6.583256127499806, -64.54809092614187 6.157102835375701, -64.76810117755518 5.027396693551461 C-64.82839737048127 4.559751328046733, -64.88869356340737 4.092105962542006, -65.02631705789975 3.024725316091999 C-65.05240843957772 2.6183309858733645, -65.07849982125569 2.21193665565473, -65.15569081032167 1.0096246935071416 C-65.15569081032167 0.4504925416081572, -65.15569081032167 -0.10863961029082714, -65.15569081032167 -1.0096246935071262 C-65.12801064488882 -1.4407656131512434, -65.10033047945596 -1.8719065327953606, -65.02631705789975 -3.024725316091956 C-64.93843364198382 -3.706331735392518, -64.85055022606788 -4.38793815469308, -64.76810117755518 -5.027396693551446 C-64.6889974086254 -5.433577828418395, -64.60989363969561 -5.839758963285344, -64.38210423372745 -7.009409419623896 C-64.18809106785083 -7.749265706949423, -63.994077901974215 -8.48912199427495, -63.869912370654816 -8.962618978877506 C-63.729120200953695 -9.386662561831391, -63.58832803125257 -9.810706144785275, -63.23363029456746 -10.878999214271168 C-62.941451528170326 -11.600686416164242, -62.6492727617732 -12.322373618057318, -62.47587262499809 -12.750675308355401 C-62.220046835265634 -13.281903034529865, -61.96422104553318 -13.813130760704329, -61.59975315074951 -14.5699561425863 C-61.30187179468852 -15.098874654030723, -61.00399043862754 -15.627793165475147, -60.6088720346684 -16.329365901781546 C-60.20387022733777 -16.951557436054255, -59.79886842000713 -17.573748970326964, -59.50730101980411 -18.021674793848344 C-59.17040416293846 -18.473085890113264, -58.83350730607281 -18.924496986378184, -58.29956669774295 -19.639928758550102 C-58.000982092975065 -19.990663225255776, -57.702397488207176 -20.341397691961447, -56.990631907872455 -21.177478043231467 C-56.67751568567677 -21.500796249968445, -56.364399463481085 -21.82411445670542, -55.585875344009835 -22.628004528078403 C-55.186944881941486 -22.990302618607252, -54.788014419873136 -23.352600709136105, -54.091069452195356 -23.98554768862771 C-53.507124080919006 -24.45122858278166, -52.923178709642656 -24.916909476935604, -52.51235671047331 -25.244529088840626 C-51.94985981592389 -25.636902572380194, -51.38736292137447 -26.029276055919766, -50.856224388132304 -26.39977530409297 C-50.45414897938342 -26.643515779733917, -50.05207357063453 -26.88725625537487, -49.12947788812404 -27.446539179886763 C-48.63571569485977 -27.704134599842956, -48.141953501595495 -27.96173001979915, -47.33921278220309 -28.3805193389262 C-46.78563534380896 -28.625571649612017, -46.232057905414834 -28.870623960297838, -45.4927856537003 -29.19787785639968 C-44.983090154506286 -29.385450511676623, -44.47339465531227 -29.57302316695357, -43.59778386774408 -29.895256030836055 C-43.06389760317106 -30.053710671735136, -42.530011338598044 -30.21216531263422, -41.66199439314951 -30.469788185729417 C-41.09274333708847 -30.59971602456505, -40.52349228102743 -30.729643863400685, -39.69337180409324 -30.919113445218553 C-39.207286514468095 -30.997699945197425, -38.72120122484295 -31.0762864451763, -37.70000559306196 -31.24138543543225 C-37.292313700383005 -31.28071498199775, -36.88462180770406 -31.32004452856325, -35.69008692939246 -31.435279871635593 C-34.92833319383746 -31.459707831271142, -34.16657945828246 -31.484135790906695, -33.67187500000001 -31.5 C-33.67187500000001 -31.5, -33.671875 -31.5, -33.671875 -31.5" stroke="none" stroke-width="0" fill="#fafafa" style="fill:#fafafa !important;stroke:#888 !important;stroke-dasharray:5 5 !important"/><path d="M-33.671875 -31.5 C-17.623928671623865 -31.5, -1.5759823432477305 -31.5, 33.671875 -31.5 M-33.671875 -31.5 C-14.82483300711609 -31.5, 4.0222089857678185 -31.5, 33.671875 -31.5 M33.671875 -31.5 C33.671875 -31.5, 33.671875 -31.5, 33.671875 -31.5 M33.671875 -31.5 C33.671875 -31.5, 33.671875 -31.5, 33.671875 -31.5 M33.671875 -31.5 C34.31719436719221 -31.479305863932094, 34.962513734384416 -31.458611727864188, 35.69008692939246 -31.435279871635593 M33.671875 -31.5 C34.350533006958905 -31.478236758644503, 35.0291910139178 -31.456473517289005, 35.69008692939246 -31.435279871635593 M35.69008692939246 -31.435279871635593 C36.33130515849905 -31.37342232025143, 36.97252338760565 -31.311564768867264, 37.70000559306194 -31.241385435432253 M35.69008692939246 -31.435279871635593 C36.33319195932911 -31.37324030284456, 36.97629698926578 -31.311200734053532, 37.70000559306194 -31.241385435432253 M37.70000559306194 -31.241385435432253 C38.42238793273687 -31.124596260912323, 39.14477027241179 -31.007807086392397, 39.693371804093225 -30.91911344521856 M37.70000559306194 -31.241385435432253 C38.20800803917543 -31.15925553956243, 38.716010485288926 -31.07712564369261, 39.693371804093225 -30.91911344521856 M39.693371804093225 -30.91911344521856 C40.224645268249866 -30.797853743908156, 40.75591873240651 -30.676594042597753, 41.66199439314948 -30.469788185729428 M39.693371804093225 -30.91911344521856 C40.374923175479566 -30.76355379223797, 41.0564745468659 -30.607994139257382, 41.66199439314948 -30.469788185729428 M41.66199439314948 -30.469788185729428 C42.22478867050156 -30.302753798378774, 42.78758294785364 -30.13571941102812, 43.59778386774405 -29.895256030836062 M41.66199439314948 -30.469788185729428 C42.30809881053802 -30.278027786119804, 42.95420322792656 -30.086267386510176, 43.59778386774405 -29.895256030836062 M43.59778386774405 -29.895256030836062 C44.03400374627421 -29.73472308316461, 44.47022362480437 -29.574190135493158, 45.49278565370028 -29.197877856399685 M43.59778386774405 -29.895256030836062 C44.18931549216698 -29.67756692499003, 44.780847116589925 -29.45987781914399, 45.49278565370028 -29.197877856399685 M45.49278565370028 -29.197877856399685 C46.053298841084924 -28.94975529537745, 46.61381202846956 -28.701632734355215, 47.33921278220308 -28.380519338926202 M45.49278565370028 -29.197877856399685 C46.10274802893206 -28.927865606775562, 46.712710404163836 -28.65785335715144, 47.33921278220308 -28.380519338926202 M47.33921278220308 -28.380519338926202 C47.76679827645791 -28.157448260455038, 48.19438377071275 -27.93437718198387, 49.129477888124036 -27.44653917988677 M47.33921278220308 -28.380519338926202 C47.806048059986466 -28.136971673528876, 48.272883337769855 -27.89342400813155, 49.129477888124036 -27.44653917988677 M49.129477888124036 -27.44653917988677 C49.659793819685106 -27.125058545692113, 50.19010975124617 -26.803577911497452, 50.856224388132276 -26.399775304092984 M49.129477888124036 -27.44653917988677 C49.641424579912034 -27.13619408679218, 50.15337127170004 -26.82584899369759, 50.856224388132276 -26.399775304092984 M50.856224388132276 -26.399775304092984 C51.36427406622894 -26.045381841768847, 51.872323744325605 -25.69098837944471, 52.5123567104733 -25.244529088840633 M50.856224388132276 -26.399775304092984 C51.18747129910538 -26.16871179844581, 51.51871821007849 -25.937648292798634, 52.5123567104733 -25.244529088840633 M52.5123567104733 -25.244529088840633 C52.94250411773209 -24.90149797825498, 53.37265152499089 -24.55846686766933, 54.09106945219533 -23.985547688627737 M52.5123567104733 -25.244529088840633 C53.008573753496385 -24.848809201919806, 53.50479079651947 -24.453089314998977, 54.09106945219533 -23.985547688627737 M54.09106945219533 -23.985547688627737 C54.44890252621678 -23.660573158545777, 54.806735600238234 -23.335598628463817, 55.58587534400982 -22.62800452807842 M54.09106945219533 -23.985547688627737 C54.530877659839284 -23.586125511133, 54.97068586748323 -23.186703333638267, 55.58587534400982 -22.62800452807842 M55.58587534400982 -22.62800452807842 C55.87518620883757 -22.329267307280027, 56.16449707366531 -22.030530086481637, 56.990631907872434 -21.177478043231485 M55.58587534400982 -22.62800452807842 C55.930477991521414 -22.272174002119176, 56.27508063903301 -21.916343476159927, 56.990631907872434 -21.177478043231485 M56.990631907872434 -21.177478043231485 C57.304863339267214 -20.808363923640204, 57.619094770661995 -20.439249804048927, 58.29956669774294 -19.63992875855011 M56.990631907872434 -21.177478043231485 C57.30298378226169 -20.810571758248717, 57.61533565665095 -20.443665473265945, 58.29956669774294 -19.63992875855011 M58.29956669774294 -19.63992875855011 C58.672791154938764 -19.13984198735523, 59.04601561213459 -18.639755216160346, 59.5073010198041 -18.02167479384835 M58.29956669774294 -19.63992875855011 C58.68374742575245 -19.1251615826017, 59.067928153761954 -18.610394406653285, 59.5073010198041 -18.02167479384835 M59.5073010198041 -18.02167479384835 C59.92347479492431 -17.38232011695745, 60.339648570044524 -16.742965440066552, 60.6088720346684 -16.329365901781543 M59.5073010198041 -18.02167479384835 C59.83375144067337 -17.520159283181012, 60.16020186154263 -17.018643772513673, 60.6088720346684 -16.329365901781543 M60.6088720346684 -16.329365901781543 C60.881120015642935 -15.845962043463803, 61.15336799661747 -15.362558185146064, 61.59975315074951 -14.56995614258631 M60.6088720346684 -16.329365901781543 C60.990630468456466 -15.651515145357568, 61.37238890224453 -14.973664388933592, 61.59975315074951 -14.56995614258631 M61.59975315074951 -14.56995614258631 C61.85048560423973 -14.049304838098783, 62.10121805772995 -13.528653533611255, 62.47587262499809 -12.750675308355413 M61.59975315074951 -14.56995614258631 C61.873450455755574 -14.001617832557024, 62.14714776076164 -13.433279522527739, 62.47587262499809 -12.750675308355413 M62.47587262499809 -12.750675308355413 C62.76685795965829 -12.031935905925996, 63.05784329431849 -11.31319650349658, 63.23363029456745 -10.878999214271206 M62.47587262499809 -12.750675308355413 C62.76928974916935 -12.025929338818223, 63.06270687334061 -11.301183369281034, 63.23363029456745 -10.878999214271206 M63.23363029456745 -10.878999214271206 C63.38659220112862 -10.418302322879082, 63.5395541076898 -9.95760543148696, 63.86991237065481 -8.962618978877531 M63.23363029456745 -10.878999214271206 C63.39622449515946 -10.38929138795584, 63.55881869575148 -9.899583561640476, 63.86991237065481 -8.962618978877531 M63.86991237065481 -8.962618978877531 C64.0416082183015 -8.30786829834961, 64.2133040659482 -7.6531176178216915, 64.38210423372745 -7.009409419623907 M63.86991237065481 -8.962618978877531 C64.00809013454834 -8.435687278529809, 64.14626789844186 -7.908755578182085, 64.38210423372745 -7.009409419623907 M64.38210423372745 -7.009409419623907 C64.49118457763919 -6.449304907775934, 64.60026492155095 -5.889200395927961, 64.76810117755518 -5.027396693551458 M64.38210423372745 -7.009409419623907 C64.47689313660972 -6.522688436965184, 64.57168203949198 -6.03596745430646, 64.76810117755518 -5.027396693551458 M64.76810117755518 -5.027396693551458 C64.82768449823817 -4.565280224391703, 64.88726781892116 -4.103163755231948, 65.02631705789975 -3.024725316091981 M64.76810117755518 -5.027396693551458 C64.86388623958723 -4.284506667330833, 64.95967130161927 -3.541616641110207, 65.02631705789975 -3.024725316091981 M65.02631705789975 -3.024725316091981 C65.07804861058729 -2.2189646260257527, 65.12978016327483 -1.4132039359595243, 65.15569081032167 -1.0096246935071378 M65.02631705789975 -3.024725316091981 C65.06186938769697 -2.470969082175991, 65.09742171749421 -1.917212848260001, 65.15569081032167 -1.0096246935071378 M65.15569081032167 -1.0096246935071378 C65.15569081032167 -0.5596808323240954, 65.15569081032167 -0.10973697114105296, 65.15569081032167 1.00962469350713 M65.15569081032167 -1.0096246935071378 C65.15569081032167 -0.5233786162847356, 65.15569081032167 -0.03713253906233327, 65.15569081032167 1.00962469350713 M65.15569081032167 1.00962469350713 C65.10464032015136 1.8047772851238024, 65.05358982998104 2.5999298767404744, 65.02631705789975 3.02472531609196 M65.15569081032167 1.00962469350713 C65.1232656091287 1.514673375239004, 65.09084040793573 2.019722056970878, 65.02631705789975 3.02472531609196 M65.02631705789975 3.02472531609196 C64.93844131069092 3.706272258414586, 64.85056556348209 4.387819200737212, 64.76810117755518 5.027396693551435 M65.02631705789975 3.02472531609196 C64.97330073287308 3.435909463741251, 64.92028440784641 3.8470936113905414, 64.76810117755518 5.027396693551435 M64.76810117755518 5.027396693551435 C64.61887459467667 5.793643657583146, 64.46964801179816 6.559890621614857, 64.38210423372745 7.0094094196239 M64.76810117755518 5.027396693551435 C64.62590110583328 5.75756400784763, 64.48370103411136 6.487731322143823, 64.38210423372745 7.0094094196239 M64.38210423372745 7.0094094196239 C64.21310563737359 7.653874311976157, 64.04410704101973 8.298339204328414, 63.869912370654816 8.96261897887751 M64.38210423372745 7.0094094196239 C64.24927228390588 7.515955214024733, 64.11644033408433 8.022501008425566, 63.869912370654816 8.96261897887751 M63.869912370654816 8.96261897887751 C63.64956111417485 9.626281855190236, 63.429209857694886 10.28994473150296, 63.233630294567455 10.878999214271184 M63.869912370654816 8.96261897887751 C63.63785540586472 9.661537583568998, 63.40579844107463 10.360456188260486, 63.233630294567455 10.878999214271184 M63.233630294567455 10.878999214271184 C63.031375643081574 11.378572113768975, 62.829120991595694 11.878145013266767, 62.47587262499809 12.750675308355405 M63.233630294567455 10.878999214271184 C63.01619343953155 11.416072450065485, 62.798756584495635 11.953145685859784, 62.47587262499809 12.750675308355405 M62.47587262499809 12.750675308355405 C62.21998477013368 13.282031914104357, 61.964096915269266 13.813388519853309, 61.59975315074951 14.569956142586303 M62.47587262499809 12.750675308355405 C62.24132955229037 13.237709017250818, 62.006786479582644 13.724742726146232, 61.59975315074951 14.569956142586303 M61.59975315074951 14.569956142586303 C61.366934818838054 14.98334866630762, 61.13411648692661 15.396741190028937, 60.60887203466841 16.329365901781536 M61.59975315074951 14.569956142586303 C61.3151684929748 15.07526501978674, 61.03058383520009 15.580573896987177, 60.60887203466841 16.329365901781536 M60.60887203466841 16.329365901781536 C60.22690247034606 16.91617372577028, 59.844932906023715 17.50298154975902, 59.50730101980412 18.021674793848334 M60.60887203466841 16.329365901781536 C60.36102223185844 16.71012975588856, 60.113172429048475 17.09089360999558, 59.50730101980412 18.021674793848334 M59.50730101980412 18.021674793848334 C59.09015264221137 18.580615616823618, 58.67300426461863 19.1395564397989, 58.29956669774295 19.639928758550102 M59.50730101980412 18.021674793848334 C59.12981643523526 18.527469747617488, 58.75233185066641 19.033264701386642, 58.29956669774295 19.639928758550102 M58.29956669774295 19.639928758550102 C57.88574235978424 20.126030373188293, 57.47191802182553 20.61213198782648, 56.99063190787245 21.177478043231467 M58.29956669774295 19.639928758550102 C57.929666007027194 20.07443515781039, 57.559765316311434 20.508941557070678, 56.99063190787245 21.177478043231467 M56.99063190787245 21.177478043231467 C56.57305278675727 21.608662769666324, 56.1554736656421 22.03984749610118, 55.58587534400983 22.628004528078414 M56.99063190787245 21.177478043231467 C56.553654848993 21.628692733008247, 56.11667779011355 22.079907422785027, 55.58587534400983 22.628004528078414 M55.58587534400983 22.628004528078414 C55.05969602322287 23.105866665275197, 54.53351670243592 23.58372880247198, 54.091069452195356 23.985547688627715 M55.58587534400983 22.628004528078414 C55.10974491996989 23.060413581470797, 54.63361449592996 23.492822634863177, 54.091069452195356 23.985547688627715 M54.091069452195356 23.985547688627715 C53.55875785816887 24.410052019457417, 53.02644626414238 24.834556350287116, 52.51235671047331 25.24452908884063 M54.091069452195356 23.985547688627715 C53.7170258977993 24.283837469541556, 53.34298234340325 24.5821272504554, 52.51235671047331 25.24452908884063 M52.51235671047331 25.24452908884063 C52.011931814419476 25.59360383328318, 51.51150691836565 25.94267857772573, 50.8562243881323 26.399775304092973 M52.51235671047331 25.24452908884063 C52.01700879679007 25.590062350160476, 51.52166088310683 25.935595611480327, 50.8562243881323 26.399775304092973 M50.8562243881323 26.399775304092973 C50.405887601356284 26.672772110709307, 49.95555081458027 26.945768917325637, 49.12947788812404 27.446539179886766 M50.8562243881323 26.399775304092973 C50.33868177008523 26.71351268057112, 49.82113915203817 27.027250057049265, 49.12947788812404 27.446539179886766 M49.12947788812404 27.446539179886766 C48.52539213970755 27.761690327900265, 47.92130639129105 28.07684147591376, 47.339212782203084 28.3805193389262 M49.12947788812404 27.446539179886766 C48.55727428427473 27.74505743350105, 47.98507068042543 28.04357568711533, 47.339212782203084 28.3805193389262 M47.339212782203084 28.3805193389262 C46.72763621262697 28.651246144503187, 46.11605964305086 28.921972950080175, 45.492785653700295 29.197877856399682 M47.339212782203084 28.3805193389262 C46.74452167638499 28.643771450586996, 46.149830570566905 28.907023562247794, 45.492785653700295 29.197877856399682 M45.492785653700295 29.197877856399682 C45.001395143155854 29.37871410664412, 44.510004632611405 29.559550356888565, 43.59778386774407 29.895256030836055 M45.492785653700295 29.197877856399682 C44.904921401116724 29.414217335508017, 44.31705714853315 29.63055681461635, 43.59778386774407 29.895256030836055 M43.59778386774407 29.895256030836055 C43.00868391870903 30.07009780346092, 42.419583969673994 30.24493957608579, 41.66199439314951 30.46978818572942 M43.59778386774407 29.895256030836055 C42.95122445494658 30.08715147069474, 42.3046650421491 30.27904691055342, 41.66199439314951 30.46978818572942 M41.66199439314951 30.46978818572942 C41.225084978612756 30.569509908497057, 40.788175564076 30.66923163126469, 39.69337180409324 30.919113445218557 M41.66199439314951 30.46978818572942 C41.23676780679119 30.566843379202908, 40.81154122043287 30.66389857267639, 39.69337180409324 30.919113445218557 M39.69337180409324 30.919113445218557 C39.221392643972344 30.99541937557385, 38.74941348385144 31.071725305929146, 37.70000559306196 31.24138543543225 M39.69337180409324 30.919113445218557 C38.975391221600105 31.03519097777347, 38.257410639106965 31.151268510328386, 37.70000559306196 31.24138543543225 M37.70000559306196 31.24138543543225 C37.17303445674506 31.292221707177227, 36.646063320428155 31.3430579789222, 35.69008692939246 31.435279871635593 M37.70000559306196 31.24138543543225 C36.90119527031607 31.318445706557576, 36.10238494757018 31.3955059776829, 35.69008692939246 31.435279871635593 M35.69008692939246 31.435279871635593 C35.085093646137565 31.45468082868159, 34.48010036288267 31.474081785727588, 33.67187500000001 31.5 M35.69008692939246 31.435279871635593 C35.11480705909538 31.453727977361684, 34.539527188798296 31.47217608308777, 33.67187500000001 31.5 M33.67187500000001 31.5 C33.67187500000001 31.5, 33.671875 31.5, 33.671875 31.5 M33.67187500000001 31.5 C33.67187500000001 31.5, 33.671875 31.5, 33.671875 31.5 M33.671875 31.5 C9.296012236726792 31.5, -15.079850526546416 31.5, -33.67187499999999 31.5 M33.671875 31.5 C14.823287807248349 31.5, -4.025299385503303 31.5, -33.67187499999999 31.5 M-33.67187499999999 31.5 C-34.43131161791835 31.47564634581706, -35.19074823583669 31.451292691634123, -35.69008692939244 31.435279871635593 M-33.67187499999999 31.5 C-34.183407950558276 31.483596133914084, -34.69494090111655 31.467192267828164, -35.69008692939244 31.435279871635593 M-35.69008692939244 31.435279871635593 C-36.34456173793388 31.372143473976717, -36.99903654647531 31.309007076317844, -37.700005593061945 31.24138543543225 M-35.69008692939244 31.435279871635593 C-36.47783893485425 31.35928638307909, -37.26559094031605 31.28329289452259, -37.700005593061945 31.24138543543225 M-37.700005593061945 31.24138543543225 C-38.17769537021303 31.164156256802013, -38.655385147364115 31.086927078171772, -39.693371804093225 30.919113445218557 M-37.700005593061945 31.24138543543225 C-38.31813910815208 31.14145040240948, -38.93627262324221 31.041515369386712, -39.693371804093225 30.919113445218557 M-39.693371804093225 30.919113445218557 C-40.451060872251816 30.746175859794604, -41.20874994041041 30.573238274370652, -41.66199439314947 30.469788185729428 M-39.693371804093225 30.919113445218557 C-40.22184328577931 30.798493278122415, -40.75031476746538 30.677873111026276, -41.66199439314947 30.469788185729428 M-41.66199439314947 30.469788185729428 C-42.26506804039224 30.29079909282595, -42.868141687634996 30.11180999992247, -43.597783867744035 29.89525603083607 M-41.66199439314947 30.469788185729428 C-42.22787529932652 30.301837703145573, -42.79375620550356 30.133887220561718, -43.597783867744035 29.89525603083607 M-43.597783867744035 29.89525603083607 C-44.14267077358861 29.694732612605925, -44.68755767943318 29.494209194375777, -45.49278565370029 29.197877856399685 M-43.597783867744035 29.89525603083607 C-44.113229627299326 29.705567226591352, -44.62867538685461 29.51587842234664, -45.49278565370029 29.197877856399685 M-45.49278565370029 29.197877856399685 C-46.06965245679886 28.942516034813664, -46.646519259897445 28.687154213227643, -47.33921278220308 28.380519338926206 M-45.49278565370029 29.197877856399685 C-46.19951078823154 28.885031603598957, -46.90623592276279 28.572185350798225, -47.33921278220308 28.380519338926206 M-47.33921278220308 28.380519338926206 C-48.01159503020799 28.029737950823424, -48.68397727821291 27.678956562720646, -49.12947788812403 27.446539179886773 M-47.33921278220308 28.380519338926206 C-47.94234729753918 28.065864448601456, -48.54548181287529 27.751209558276702, -49.12947788812403 27.446539179886773 M-49.12947788812403 27.446539179886773 C-49.58930916375739 27.167786758329306, -50.04914043939075 26.889034336771843, -50.85622438813226 26.399775304092994 M-49.12947788812403 27.446539179886773 C-49.53401937855804 27.201303751035994, -49.938560868992056 26.956068322185217, -50.85622438813226 26.399775304092994 M-50.85622438813226 26.399775304092994 C-51.46139134448279 25.977637032598178, -52.06655830083332 25.55549876110336, -52.5123567104733 25.244529088840636 M-50.85622438813226 26.399775304092994 C-51.45998058188546 25.978621119515147, -52.06373677563867 25.557466934937302, -52.5123567104733 25.244529088840636 M-52.5123567104733 25.244529088840636 C-52.87985301937195 24.951460561981456, -53.247349328270595 24.658392035122276, -54.09106945219533 23.98554768862774 M-52.5123567104733 25.244529088840636 C-52.92209553903933 24.917773276667376, -53.33183436760537 24.59101746449411, -54.09106945219533 23.98554768862774 M-54.09106945219533 23.98554768862774 C-54.61684717393702 23.50805027305814, -55.14262489567871 23.030552857488534, -55.58587534400981 22.628004528078435 M-54.09106945219533 23.98554768862774 C-54.55803928668963 23.561458040284787, -55.02500912118393 23.13736839194183, -55.58587534400981 22.628004528078435 M-55.58587534400981 22.628004528078435 C-56.07356061747025 22.12442944352494, -56.56124589093069 21.620854358971446, -56.99063190787244 21.177478043231478 M-55.58587534400981 22.628004528078435 C-55.95568714628769 22.2461434801129, -56.32549894856557 21.864282432147366, -56.99063190787244 21.177478043231478 M-56.99063190787244 21.177478043231478 C-57.25322448382485 20.869021861576915, -57.51581705977727 20.560565679922348, -58.29956669774293 19.639928758550113 M-56.99063190787244 21.177478043231478 C-57.47167797807893 20.612413956870117, -57.95272404828542 20.047349870508754, -58.29956669774293 19.639928758550113 M-58.29956669774293 19.639928758550113 C-58.73186651860284 19.06068638192171, -59.16416633946275 18.481444005293305, -59.5073010198041 18.021674793848355 M-58.29956669774293 19.639928758550113 C-58.644592657033996 19.177625405611607, -58.98961861632506 18.715322052673105, -59.5073010198041 18.021674793848355 M-59.5073010198041 18.021674793848355 C-59.93605309466202 17.36299647081393, -60.36480516951993 16.704318147779507, -60.608872034668394 16.329365901781557 M-59.5073010198041 18.021674793848355 C-59.900947284323586 17.41692842272378, -60.29459354884306 16.812182051599205, -60.608872034668394 16.329365901781557 M-60.608872034668394 16.329365901781557 C-60.98933965291459 15.653807119061424, -61.369807271160774 14.978248336341291, -61.5997531507495 14.569956142586314 M-60.608872034668394 16.329365901781557 C-60.936959917779575 15.74681264281697, -61.26504780089075 15.164259383852384, -61.5997531507495 14.569956142586314 M-61.5997531507495 14.569956142586314 C-61.77618949796607 14.20358229245803, -61.95262584518265 13.837208442329747, -62.47587262499809 12.750675308355417 M-61.5997531507495 14.569956142586314 C-61.85269379899843 14.044719474434531, -62.10563444724736 13.519482806282747, -62.47587262499809 12.750675308355417 M-62.47587262499809 12.750675308355417 C-62.673970304948355 12.26137020892016, -62.87206798489863 11.772065109484904, -63.23363029456745 10.878999214271209 M-62.47587262499809 12.750675308355417 C-62.68635565724047 12.230778149304157, -62.89683868948284 11.710880990252898, -63.23363029456745 10.878999214271209 M-63.23363029456745 10.878999214271209 C-63.48588339002448 10.119253081827331, -63.73813648548151 9.359506949383455, -63.86991237065481 8.962618978877522 M-63.23363029456745 10.878999214271209 C-63.45692891751488 10.206459339757556, -63.680227540462305 9.533919465243903, -63.86991237065481 8.962618978877522 M-63.86991237065481 8.962618978877522 C-64.04535367745417 8.293585239308204, -64.22079498425353 7.624551499738885, -64.38210423372743 7.009409419623911 M-63.86991237065481 8.962618978877522 C-64.06766447068435 8.208504515162545, -64.2654165707139 7.45439005144757, -64.38210423372743 7.009409419623911 M-64.38210423372743 7.009409419623911 C-64.53240425349804 6.237650584022281, -64.68270427326866 5.465891748420649, -64.76810117755518 5.027396693551461 M-64.38210423372743 7.009409419623911 C-64.47745033393143 6.519827346481844, -64.57279643413541 6.030245273339777, -64.76810117755518 5.027396693551461 M-64.76810117755518 5.027396693551461 C-64.82661458112852 4.573578290215107, -64.88512798470185 4.119759886878754, -65.02631705789975 3.024725316091999 M-64.76810117755518 5.027396693551461 C-64.85128085675562 4.382271527358403, -64.93446053595605 3.737146361165345, -65.02631705789975 3.024725316091999 M-65.02631705789975 3.024725316091999 C-65.05731505003764 2.541906567415438, -65.08831304217553 2.059087818738877, -65.15569081032167 1.0096246935071416 M-65.02631705789975 3.024725316091999 C-65.0685763995722 2.366501958417068, -65.11083574124463 1.708278600742137, -65.15569081032167 1.0096246935071416 M-65.15569081032167 1.0096246935071416 C-65.15569081032167 0.40400088340775886, -65.15569081032167 -0.20162292669162385, -65.15569081032167 -1.0096246935071262 M-65.15569081032167 1.0096246935071416 C-65.15569081032167 0.3480212580589316, -65.15569081032167 -0.3135821773892784, -65.15569081032167 -1.0096246935071262 M-65.15569081032167 -1.0096246935071262 C-65.1295040207434 -1.4175050787849024, -65.10331723116512 -1.8253854640626788, -65.02631705789975 -3.024725316091956 M-65.15569081032167 -1.0096246935071262 C-65.11753543850848 -1.6039254079592902, -65.0793800666953 -2.1982261224114543, -65.02631705789975 -3.024725316091956 M-65.02631705789975 -3.024725316091956 C-64.97313878027836 -3.437165536084688, -64.91996050265699 -3.8496057560774197, -64.76810117755518 -5.027396693551446 M-65.02631705789975 -3.024725316091956 C-64.9426916732594 -3.6733072856624043, -64.85906628861908 -4.321889255232852, -64.76810117755518 -5.027396693551446 M-64.76810117755518 -5.027396693551446 C-64.67474427092993 -5.506764678082858, -64.5813873643047 -5.986132662614271, -64.38210423372745 -7.009409419623896 M-64.76810117755518 -5.027396693551446 C-64.64789054105543 -5.644652905450612, -64.5276799045557 -6.261909117349778, -64.38210423372745 -7.009409419623896 M-64.38210423372745 -7.009409419623896 C-64.18582418692486 -7.7579103063925565, -63.98954414012228 -8.506411193161217, -63.869912370654816 -8.962618978877506 M-64.38210423372745 -7.009409419623896 C-64.20202512575607 -7.696129105097844, -64.0219460177847 -8.382848790571792, -63.869912370654816 -8.962618978877506 M-63.869912370654816 -8.962618978877506 C-63.65793616845219 -9.601057526090576, -63.44595996624956 -10.239496073303645, -63.23363029456746 -10.878999214271168 M-63.869912370654816 -8.962618978877506 C-63.63128697343771 -9.681320655501576, -63.392661576220604 -10.400022332125644, -63.23363029456746 -10.878999214271168 M-63.23363029456746 -10.878999214271168 C-63.04722503273202 -11.339423814905262, -62.86081977089659 -11.799848415539355, -62.47587262499809 -12.750675308355401 M-63.23363029456746 -10.878999214271168 C-63.05392203128439 -11.32288209900326, -62.87421376800132 -11.766764983735355, -62.47587262499809 -12.750675308355401 M-62.47587262499809 -12.750675308355401 C-62.12763902125154 -13.473789837540606, -61.77940541750499 -14.196904366725812, -61.59975315074951 -14.5699561425863 M-62.47587262499809 -12.750675308355401 C-62.24600386468087 -13.228002707557655, -62.01613510436366 -13.705330106759911, -61.59975315074951 -14.5699561425863 M-61.59975315074951 -14.5699561425863 C-61.29387199934861 -15.113079100723857, -60.987990847947714 -15.656202058861412, -60.6088720346684 -16.329365901781546 M-61.59975315074951 -14.5699561425863 C-61.386429825767955 -14.948733307420063, -61.17310650078641 -15.327510472253827, -60.6088720346684 -16.329365901781546 M-60.6088720346684 -16.329365901781546 C-60.17864659739952 -16.990307705132423, -59.74842116013063 -17.651249508483296, -59.50730101980411 -18.021674793848344 M-60.6088720346684 -16.329365901781546 C-60.28058455267302 -16.833703631658587, -59.95229707067764 -17.338041361535627, -59.50730101980411 -18.021674793848344 M-59.50730101980411 -18.021674793848344 C-59.160507615123265 -18.486346362591576, -58.81371421044241 -18.951017931334807, -58.29956669774295 -19.639928758550102 M-59.50730101980411 -18.021674793848344 C-59.20889466959793 -18.421512117746865, -58.91048831939175 -18.821349441645385, -58.29956669774295 -19.639928758550102 M-58.29956669774295 -19.639928758550102 C-57.936945081532635 -20.065884742705226, -57.57432346532232 -20.49184072686035, -56.990631907872455 -21.177478043231467 M-58.29956669774295 -19.639928758550102 C-57.962536951576205 -20.035823075933394, -57.62550720540946 -20.43171739331668, -56.990631907872455 -21.177478043231467 M-56.990631907872455 -21.177478043231467 C-56.471667984190596 -21.713350902163512, -55.952704060508744 -22.249223761095553, -55.585875344009835 -22.628004528078403 M-56.990631907872455 -21.177478043231467 C-56.59992653130664 -21.58091342204364, -56.20922115474083 -21.984348800855816, -55.585875344009835 -22.628004528078403 M-55.585875344009835 -22.628004528078403 C-55.249662943099615 -22.933343734892404, -54.913450542189395 -23.238682941706408, -54.091069452195356 -23.98554768862771 M-55.585875344009835 -22.628004528078403 C-55.24279851335721 -22.9395778283616, -54.89972168270459 -23.251151128644796, -54.091069452195356 -23.98554768862771 M-54.091069452195356 -23.98554768862771 C-53.684922828134255 -24.309438813300865, -53.278776204073154 -24.633329937974022, -52.51235671047331 -25.244529088840626 M-54.091069452195356 -23.98554768862771 C-53.58868001487101 -24.386189895749485, -53.08629057754666 -24.78683210287126, -52.51235671047331 -25.244529088840626 M-52.51235671047331 -25.244529088840626 C-52.09285633152279 -25.537154393317795, -51.673355952572265 -25.82977969779496, -50.856224388132304 -26.39977530409297 M-52.51235671047331 -25.244529088840626 C-51.990910390676554 -25.608267468483476, -51.4694640708798 -25.972005848126322, -50.856224388132304 -26.39977530409297 M-50.856224388132304 -26.39977530409297 C-50.47881118895741 -26.628565403358937, -50.10139798978251 -26.857355502624902, -49.12947788812404 -27.446539179886763 M-50.856224388132304 -26.39977530409297 C-50.36017168487098 -26.700485367939244, -49.86411898160965 -27.001195431785522, -49.12947788812404 -27.446539179886763 M-49.12947788812404 -27.446539179886763 C-48.750154229898904 -27.644432089414423, -48.37083057167376 -27.84232499894208, -47.33921278220309 -28.3805193389262 M-49.12947788812404 -27.446539179886763 C-48.649683920693086 -27.69684738537279, -48.16988995326213 -27.947155590858817, -47.33921278220309 -28.3805193389262 M-47.33921278220309 -28.3805193389262 C-46.858552517034006 -28.593293380036382, -46.37789225186492 -28.80606742114657, -45.4927856537003 -29.19787785639968 M-47.33921278220309 -28.3805193389262 C-46.68810806592622 -28.6687440824868, -46.037003349649346 -28.9569688260474, -45.4927856537003 -29.19787785639968 M-45.4927856537003 -29.19787785639968 C-44.97317351047624 -29.389099928348134, -44.45356136725216 -29.58032200029659, -43.59778386774408 -29.895256030836055 M-45.4927856537003 -29.19787785639968 C-44.753191004784846 -29.47005552393856, -44.01359635586938 -29.74223319147744, -43.59778386774408 -29.895256030836055 M-43.59778386774408 -29.895256030836055 C-43.105626012948974 -30.041325898749943, -42.61346815815387 -30.187395766663833, -41.66199439314951 -30.469788185729417 M-43.59778386774408 -29.895256030836055 C-42.82570304842343 -30.124405565275502, -42.05362222910278 -30.35355509971495, -41.66199439314951 -30.469788185729417 M-41.66199439314951 -30.469788185729417 C-41.0589768578546 -30.607423003103314, -40.455959322559686 -30.745057820477207, -39.69337180409324 -30.919113445218553 M-41.66199439314951 -30.469788185729417 C-40.92115454263328 -30.63888004717792, -40.18031469211705 -30.807971908626424, -39.69337180409324 -30.919113445218553 M-39.69337180409324 -30.919113445218553 C-39.2350297514347 -30.993214633796683, -38.776687698776165 -31.06731582237481, -37.70000559306196 -31.24138543543225 M-39.69337180409324 -30.919113445218553 C-39.11580827553051 -31.01248943744452, -38.538244746967784 -31.10586542967048, -37.70000559306196 -31.24138543543225 M-37.70000559306196 -31.24138543543225 C-37.0080378519052 -31.308138731208675, -36.31607011074844 -31.374892026985105, -35.69008692939246 -31.435279871635593 M-37.70000559306196 -31.24138543543225 C-37.11589336802902 -31.297734039283448, -36.53178114299608 -31.354082643134646, -35.69008692939246 -31.435279871635593 M-35.69008692939246 -31.435279871635593 C-35.162709402845024 -31.452191842433887, -34.635331876297585 -31.46910381323218, -33.67187500000001 -31.5 M-35.69008692939246 -31.435279871635593 C-34.94212521512306 -31.459265547993056, -34.19416350085367 -31.483251224350518, -33.67187500000001 -31.5 M-33.67187500000001 -31.5 C-33.67187500000001 -31.5, -33.671875 -31.5, -33.671875 -31.5 M-33.67187500000001 -31.5 C-33.67187500000001 -31.5, -33.671875 -31.5, -33.671875 -31.5" stroke="#888" stroke-width="1.3" fill="none" stroke-dasharray="5 5" style="fill:#fafafa !important;stroke:#888 !important;stroke-dasharray:5 5 !important"/></g><g class="label" style="color:#666 !important" transform="translate(-49.796875, -24)"><rect/><foreignObject width="99.59375" height="48"><div style="color: rgb(102, 102, 102) !important; display: table-cell; white-space: nowrap; line-height: 1.5; max-width: 200px; text-align: center;" xmlns="http://www.w3.org/1999/xhtml"><span style="color:#666 !important" class="nodeLabel"><p>S-Miles Cloud<br /><i>optional</i></p></span></div></foreignObject></g></g><g class="node default system" id="my-svg-flowchart-sys_root-6" data-look="classic" transform="translate(678.3359375, 237.84765625)"><circle class="basic label-container" style="fill:#4a90e2 !important;stroke:#2a70c2 !important" r="74.1953125" cx="0" cy="0"/><g class="label" style="color:#fff !important;font-weight:bold !important" transform="translate(-66.6953125, -12)"><rect/><foreignObject width="133.390625" height="24"><div style="color: rgb(255, 255, 255) !important; font-weight: bold !important; display: table-cell; white-space: nowrap; line-height: 1.5; max-width: 200px; text-align: center;" xmlns="http://www.w3.org/1999/xhtml"><span style="color:#fff !important;font-weight:bold !important" class="nodeLabel"><p>Solar Local Stack</p></span></div></foreignObject></g></g></g></g></g><defs><filter id="my-svg-drop-shadow" height="130%" width="130%"><feDropShadow dx="4" dy="4" stdDeviation="0" flood-opacity="0.06" flood-color="#000000"/></filter></defs><defs><filter id="my-svg-drop-shadow-small" height="150%" width="150%"><feDropShadow dx="2" dy="2" stdDeviation="0" flood-opacity="0.06" flood-color="#000000"/></filter></defs></svg>