<svg id="my-svg" width="100%" xmlns="http://www.w3.org/2000/svg" xmlns:xlink="http://www.w3.org/1999/xlink" class="flowchart" style="max-width: 1179.02px; background-color: white;" viewBox="0 30.615978240966797 1179.015625 374.981689453125" role="graphics-document document" aria-roledescription="flowchart-v2"><style>#my-svg{font-family:"trebuchet ms",verdana,arial,sans-serif;font-size:16px;fill:#333;}@keyframes edge-animation-frame{from{stroke-dashoffset:0;}}@keyframes dash{to{stroke-dashoffset:0;}}#my-svg .edge-animation-slow{stroke-dasharray:9,5!important;stroke-dashoffset:900;animation:dash 50s linear infinite;stroke-linecap:round;}#my-svg .edge-animation-fast{stroke-dasharray:9,5!important;stroke-dashoffset:900;animation:dash 20s linear infinite;stroke-linecap:round;}#my-svg .error-icon{fill:#552222;}#my-svg .error-text{fill:#552222;stroke:#552222;}#my-svg .edge-thickness-normal{stroke-width:1px;}#my-svg .edge-thickness-thick{stroke-width:3.5px;}#my-svg .edge-pattern-solid{stroke-dasharray:0;}#my-svg .edge-thickness-invisible{stroke-width:0;fill:none;}#my-svg .edge-pattern-dashed{stroke-dasharray:3;}#my-svg .edge-pattern-dotted{stroke-dasharray:2;}#my-svg .marker{fill:#333333;stroke:#333333;}#my-svg .marker.cross{stroke:#333333;}#my-svg svg{font-family:"trebuchet ms",verdana,arial,sans-serif;font-size:16px;}#my-svg p{margin:0;}#my-svg .label{font-family:"trebuchet ms",verdana,arial,sans-serif;color:#333;}#my-svg .cluster-label text{fill:#333;}#my-svg .cluster-label span{color:#333;}#my-svg .cluster-label span p{background-color:transparent;}#my-svg .label text,#my-svg span{fill:#333;color:#333;}#my-svg .node rect,#my-svg .node circle,#my-svg .node ellipse,#my-svg .node polygon,#my-svg .node path{fill:#ECECFF;stroke:#9370DB;stroke-width:1px;}#my-svg .rough-node .label text,#my-svg .node .label text,#my-svg .image-shape .label,#my-svg .icon-shape .label{text-anchor:middle;}#my-svg .node .katex path{fill:#000;stroke:#000;stroke-width:1px;}#my-svg .rough-node .label,#my-svg .node .label,#my-svg .image-shape .label,#my-svg .icon-shape .label{text-align:center;}#my-svg .node.clickable{cursor:pointer;}#my-svg .root .anchor path{fill:#333333!important;stroke-width:0;stroke:#333333;}#my-svg .arrowheadPath{fill:#333333;}#my-svg .edgePath .path{stroke:#333333;stroke-width:1px;}#my-svg .flowchart-link{stroke:#333333;fill:none;}#my-svg .edgeLabel{background-color:rgba(232,232,232, 0.8);text-align:center;}#my-svg .edgeLabel p{background-color:rgba(232,232,232, 0.8);}#my-svg .edgeLabel rect{opacity:0.5;background-color:rgba(232,232,232, 0.8);fill:rgba(232,232,232, 0.8);}#my-svg .labelBkg{background-color:rgba(232, 232, 232, 0.5);}#my-svg .cluster rect{fill:#ffffde;stroke:#aaaa33;stroke-width:1px;}#my-svg .cluster text{fill:#333;}#my-svg .cluster span{color:#333;}#my-svg div.mermaidTooltip{position:absolute;text-align:center;max-width:200px;padding:2px;font-family:"trebuchet ms",verdana,arial,sans-serif;font-size:12px;background:hsl(80, 100%, 96.2745098039%);border:1px solid #aaaa33;border-radius:2px;pointer-events:none;z-index:100;}#my-svg .flowchartTitleText{text-anchor:middle;font-size:18px;fill:#333;}#my-svg rect.text{fill:none;stroke-width:0;}#my-svg .icon-shape,#my-svg .image-shape{background-color:rgba(232,232,232, 0.8);text-align:center;}#my-svg .icon-shape p,#my-svg .image-shape p{background-color:rgba(232,232,232, 0.8);padding:2px;}#my-svg .icon-shape .label rect,#my-svg .image-shape .label rect{opacity:0.5;background-color:rgba(232,232,232, 0.8);fill:rgba(232,232,232, 0.8);}#my-svg .label-icon{display:inline-block;height:1em;overflow:visible;vertical-align:-0.125em;}#my-svg .node .label-icon path{fill:currentColor;stroke:revert;stroke-width:revert;}#my-svg .node .neo-node{stroke:#9370DB;}#my-svg [data-look="neo"].node rect,#my-svg [data-look="neo"].cluster rect,#my-svg [data-look="neo"].node polygon{stroke:#9370DB;filter:drop-shadow(1px 2px 2px rgba(185, 185, 185, 1));}#my-svg [data-look="neo"].node path{stroke:#9370DB;stroke-width:1px;}#my-svg [data-look="neo"].node .outer-path{filter:drop-shadow(1px 2px 2px rgba(185, 185, 185, 1));}#my-svg [data-look="neo"].node .neo-line path{stroke:#9370DB;filter:none;}#my-svg [data-look="neo"].node circle{stroke:#9370DB;filter:drop-shadow(1px 2px 2px rgba(185, 185, 185, 1));}#my-svg [data-look="neo"].node circle .state-start{fill:#000000;}#my-svg [data-look="neo"].icon-shape .icon{fill:#9370DB;filter:drop-shadow(1px 2px 2px rgba(185, 185, 185, 1));}#my-svg [data-look="neo"].icon-shape .icon-neo path{stroke:#9370DB;filter:drop-shadow(1px 2px 2px rgba(185, 185, 185, 1));}#my-svg :root{--mermaid-font-family:"trebuchet ms",verdana,arial,sans-serif;}#my-svg .system&gt;*{fill:rgb(74, 144, 226)!important;stroke:rgb(42, 112, 194)!important;color:rgb(255, 255, 255)!important;font-weight:bold!important;}#my-svg .system span{fill:rgb(74, 144, 226)!important;stroke:rgb(42, 112, 194)!important;color:rgb(255, 255, 255)!important;font-weight:bold!important;}#my-svg .system tspan{fill:rgb(255, 255, 255)!important;}#my-svg .terminator&gt;*{fill:rgb(250, 250, 250)!important;stroke:rgb(68, 68, 68)!important;}#my-svg .terminator span{fill:rgb(250, 250, 250)!important;stroke:rgb(68, 68, 68)!important;}#my-svg .optional&gt;*{fill:rgb(250, 250, 250)!important;stroke:rgb(136, 136, 136)!important;stroke-dasharray:5,5!important;color:rgb(102, 102, 102)!important;}#my-svg .optional span{fill:rgb(250, 250, 250)!important;stroke:rgb(136, 136, 136)!important;stroke-dasharray:5,5!important;color:rgb(102, 102, 102)!important;}#my-svg .optional tspan{fill:rgb(102, 102, 102)!important;}#my-svg .grid&gt;*{fill:rgb(254, 240, 239)!important;stroke:rgb(231, 76, 60)!important;}#my-svg .grid span{fill:rgb(254, 240, 239)!important;stroke:rgb(231, 76, 60)!important;}</style><g><marker id="my-svg_flowchart-v2-pointEnd" class="marker flowchart-v2" viewBox="0 0 10 10" refX="5" refY="5" markerUnits="userSpaceOnUse" markerWidth="8" markerHeight="8" orient="auto"><path d="M 0 0 L 10 5 L 0 10 z" class="arrowMarkerPath" style="stroke-width: 1; stroke-dasharray: 1, 0;"/></marker><marker id="my-svg_flowchart-v2-pointStart" class="marker flowchart-v2" viewBox="0 0 10 10" refX="4.5" refY="5" markerUnits="userSpaceOnUse" markerWidth="8" markerHeight="8" orient="auto"><path d="M 0 5 L 10 10 L 10 0 z" class="arrowMarkerPath" style="stroke-width: 1; stroke-dasharray: 1, 0;"/></marker><marker id="my-svg_flowchart-v2-pointEnd-margin" class="marker flowchart-v2" viewBox="0 0 11.5 14" refX="11.5" refY="7" markerUnits="userSpaceOnUse" markerWidth="10.5" markerHeight="14" orient="auto"><path d="M 0 0 L 11.5 7 L 0 14 z" class="arrowMarkerPath" style="stroke-width: 0; stroke-dasharray: 1, 0;"/></marker><marker id="my-svg_flowchart-v2-pointStart-margin" class="marker flowchart-v2" viewBox="0 0 11.5 14" refX="1" refY="7" markerUnits="userSpaceOnUse" markerWidth="11.5" markerHeight="14" orient="auto"><polygon points="0,7 11.5,14 11.5,0" class="arrowMarkerPath" style="stroke-width: 0; stroke-dasharray: 1, 0;"/></marker><marker id="my-svg_flowchart-v2-circleEnd" class="marker flowchart-v2" viewBox="0 0 10 10" refX="11" refY="5" markerUnits="userSpaceOnUse" markerWidth="11" markerHeight="11" orient="auto"><circle cx="5" cy="5" r="5" class="arrowMarkerPath" style="stroke-width: 1; stroke-dasharray: 1, 0;"/></marker><marker id="my-svg_flowchart-v2-circleStart" class="marker flowchart-v2" viewBox="0 0 10 10" refX="-1" refY="5" markerUnits="userSpaceOnUse" markerWidth="11" markerHeight="11" orient="auto"><circle cx="5" cy="5" r="5" class="arrowMarkerPath" style="stroke-width: 1; stroke-dasharray: 1, 0;"/></marker><marker id="my-svg_flowchart-v2-circleEnd-margin" class="marker flowchart-v2" viewBox="0 0 10 10" refY="5" refX="12.25" markerUnits="userSpaceOnUse" markerWidth="14" markerHeight="14" orient="auto"><circle cx="5" cy="5" r="5" class="arrowMarkerPath" style="stroke-width: 0; stroke-dasharray: 1, 0;"/></marker><marker id="my-svg_flowchart-v2-circleStart-margin" class="marker flowchart-v2" viewBox="0 0 10 10" refX="-2" refY="5" markerUnits="userSpaceOnUse" markerWidth="14" markerHeight="14" orient="auto"><circle cx="5" cy="5" r="5" class="arrowMarkerPath" style="stroke-width: 0; stroke-dasharray: 1, 0;"/></marker><marker id="my-svg_flowchart-v2-crossEnd" class="marker cross flowchart-v2" viewBox="0 0 11 11" refX="12" refY="5.2" markerUnits="userSpaceOnUse" markerWidth="11" markerHeight="11" orient="auto"><path d="M 1,1 l 9,9 M 10,1 l -9,9" class="arrowMarkerPath" style="stroke-width: 2; stroke-dasharray: 1, 0;"/></marker><marker id="my-svg_flowchart-v2-crossStart" class="marker cross flowchart-v2" viewBox="0 0 11 11" refX="-1" refY="5.2" markerUnits="userSpaceOnUse" markerWidth="11" markerHeight="11" orient="auto"><path d="M 1,1 l 9,9 M 10,1 l -9,9" class="arrowMarkerPath" style="stroke-width: 2; stroke-dasharray: 1, 0;"/></marker><marker id="my-svg_flowchart-v2-crossEnd-margin" class="marker cross flowchart-v2" viewBox="0 0 15 15" refX="17.7" refY="7.5" markerUnits="userSpaceOnUse" markerWidth="12" markerHeight="12" orient="auto"><path d="M 1,1 L 14,14 M 1,14 L 14,1" class="arrowMarkerPath" style="stroke-width: 2.5;"/></marker><marker id="my-svg_flowchart-v2-crossStart-margin" class="marker cross flowchart-v2" viewBox="0 0 15 15" refX="-3.5" refY="7.5" markerUnits="userSpaceOnUse" markerWidth="12" markerHeight="12" orient="auto"><path d="M 1,1 L 14,14 M 1,14 L 14,1" class="arrowMarkerPath" style="stroke-width: 2.5; stroke-dasharray: 1, 0;"/></marker><g class="root"><g class="clusters"/><g class="edgePaths"><path d="M354.813,187.25L377.008,179.042C399.203,170.833,443.594,154.417,485.973,156.796C528.353,159.175,568.721,180.35,588.905,190.937L609.089,201.525" id="my-svg-L_term_inverters_sys_root_0" class="edge-thickness-normal edge-pattern-solid edge-thickness-normal edge-pattern-solid flowchart-link" style=";" data-edge="true" data-et="edge" data-id="L_term_inverters_sys_root_0" data-points="W3sieCI6MzU0LjgxMjU3Njg0NDI2MjMsInkiOjE4Ny4yNX0seyJ4Ijo0ODcuOTg0Mzc1LCJ5IjoxMzh9LHsieCI6NjEyLjYzMTIyMDQ4MDIwOCwieSI6MjAzLjM4MjY4MDQyOTI5NjA0fV0=" data-look="classic" marker-end="url(#my-svg_flowchart-v2-pointEnd)"/><path d="M608.988,264.225L588.82,271.896C568.653,279.567,528.319,294.908,484.057,291.361C439.796,287.813,391.607,265.376,367.513,254.157L343.419,242.938" id="my-svg-L_sys_root_term_inverters_0" class="edge-thickness-normal edge-pattern-solid edge-thickness-normal edge-pattern-solid flowchart-link" style=";" data-edge="true" data-et="edge" data-id="L_sys_root_term_inverters_0" data-points="W3sieCI6NjA4Ljk4NzY5Nzg5NDM3OTYsInkiOjI2NC4yMjUwMzQwNjgzOTA2fSx7IngiOjQ4Ny45ODQzNzUsInkiOjMxMC4yNX0seyJ4IjozMzkuNzkyNzI0NjA5Mzc1LCJ5IjoyNDEuMjV9XQ==" data-look="classic" marker-end="url(#my-svg_flowchart-v2-pointEnd)"/><path d="M371.828,295.545L391.188,290.663C410.547,285.78,449.266,276.015,487.46,268.322C525.655,260.629,563.326,255.008,582.161,252.198L600.997,249.387" id="my-svg-L_term_meter_sys_root_0" class="edge-thickness-normal edge-pattern-solid edge-thickness-normal edge-pattern-solid flowchart-link" style=";" data-edge="true" data-et="edge" data-id="L_term_meter_sys_root_0" data-points="W3sieCI6MzcxLjgyODEyNSwieSI6Mjk1LjU0NTQ0MTYyNzgyNzY0fSx7IngiOjQ4Ny45ODQzNzUsInkiOjI2Ni4yNX0seyJ4Ijo2MDQuOTUzMDEyNDExMjI0OCwieSI6MjQ4Ljc5NzExNzUzMjk5NzgyfV0=" data-look="classic" marker-end="url(#my-svg_flowchart-v2-pointEnd)"/><path d="M1002.531,91.981L981.698,97.417C960.865,102.853,919.198,113.726,876.495,131.595C833.792,149.465,790.052,174.333,768.183,186.766L746.313,199.2" id="my-svg-L_term_battery_system_sys_root_0" class="edge-thickness-normal edge-pattern-solid edge-thickness-normal edge-pattern-solid flowchart-link" style=";" data-edge="true" data-et="edge" data-id="L_term_battery_system_sys_root_0" data-points="W3sieCI6MTAwMi41MzEyNSwieSI6OTEuOTgxMzUxMTMxMDgxMjh9LHsieCI6ODc3LjUzMTI1LCJ5IjoxMjQuNTk3NjU2MjV9LHsieCI6NzQyLjgzNTY4MzA2NDc1NiwieSI6MjAxLjE3NzEzMzc2ODY2MDl9XQ==" data-look="classic" marker-end="url(#my-svg_flowchart-v2-pointEnd)"/><path d="M729.931,184.529L754.531,159.108C779.131,133.686,828.331,82.843,873.109,61.086C917.886,39.329,958.241,46.657,978.418,50.322L998.596,53.986" id="my-svg-L_sys_root_term_battery_system_0" class="edge-thickness-normal edge-pattern-solid edge-thickness-normal edge-pattern-solid flowchart-link" style=";" data-edge="true" data-et="edge" data-id="L_sys_root_term_battery_system_0" data-points="W3sieCI6NzI5LjkzMTMyOTYxMDQ2LCJ5IjoxODQuNTI5MTc5OTk3MDExMTd9LHsieCI6ODc3LjUzMTI1LCJ5IjozMn0seyJ4IjoxMDAyLjUzMTI1LCJ5Ijo1NC43MDA5NjcwMzEzMjU4NDV9XQ==" data-look="classic" marker-end="url(#my-svg_flowchart-v2-pointEnd)"/><path d="M1033.211,264.317L1007.264,267.572C981.318,270.827,929.424,277.338,882.977,275.858C836.53,274.379,795.528,264.911,775.027,260.176L754.526,255.442" id="my-svg-L_term_user_sys_root_0" class="edge-thickness-normal edge-pattern-solid edge-thickness-normal edge-pattern-solid flowchart-link" style=";" data-edge="true" data-et="edge" data-id="L_term_user_sys_root_0" data-points="W3sieCI6MTAzMy4yMTA5Mzc1LCJ5IjoyNjQuMzE3MjE3MTY1NTA2MX0seyJ4Ijo4NzcuNTMxMjUsInkiOjI4My44NDc2NTYyNX0seyJ4Ijo3NTAuNjI4NjYzMjM1MjUxOCwieSI6MjU0LjU0MjE1MjQzMTA4NjUyfV0=" data-look="classic" marker-end="url(#my-svg_flowchart-v2-pointEnd)"/><path d="M752.527,237.01L773.361,236.774C794.195,236.539,835.863,236.068,881.981,238.491C928.098,240.914,978.666,246.231,1003.949,248.889L1029.233,251.548" id="my-svg-L_sys_root_term_user_0" class="edge-thickness-normal edge-pattern-solid edge-thickness-normal edge-pattern-solid flowchart-link" style=";" data-edge="true" data-et="edge" data-id="L_sys_root_term_user_0" data-points="W3sieCI6NzUyLjUyNjUxNzI3MDA0MywieSI6MjM3LjAwOTY0MDUyMzY4ODE4fSx7IngiOjg3Ny41MzEyNSwieSI6MjM1LjU5NzY1NjI1fSx7IngiOjEwMzMuMjEwOTM3NSwieSI6MjUxLjk2NjAyNDI0NDYyMzQ0fV0=" data-look="classic" marker-end="url(#my-svg_flowchart-v2-pointEnd)"/><path d="M740.72,278.013L763.521,292.694C786.323,307.374,831.927,336.736,878.16,351.498C924.393,366.26,971.256,366.422,994.687,366.503L1018.118,366.584" id="my-svg-L_sys_root_term_smiles_cloud_0" class="edge-thickness-normal edge-pattern-dotted edge-thickness-normal edge-pattern-solid flowchart-link" style=";" data-edge="true" data-et="edge" data-id="L_sys_root_term_smiles_cloud_0" data-points="W3sieCI6NzQwLjcxOTUxOTI0NDE3MzIsInkiOjI3OC4wMTI3Mjk3MDYxODQ4N30seyJ4Ijo4NzcuNTMxMjUsInkiOjM2Ni4wOTc2NTYyNX0seyJ4IjoxMDIyLjExNzc0NDQ0NTc3MjcsInkiOjM2Ni41OTc2NTYyNX1d" data-look="classic" marker-end="url(#my-svg_flowchart-v2-pointEnd)"/><path d="M103.876,155.652L114.36,165.419C124.844,175.185,145.813,194.717,161.797,204.484C177.781,214.25,188.781,214.25,194.281,214.25L199.781,214.25" id="my-svg-L_term_grid_term_inverters_0" class="edge-thickness-normal edge-pattern-solid edge-thickness-normal edge-pattern-solid flowchart-link" style=";" data-edge="true" data-et="edge" data-id="L_term_grid_term_inverters_0" data-points="W3sieCI6MTAzLjg3NTYxMTA4MTMyMTYsInkiOjE1NS42NTIzNDM3NX0seyJ4IjoxNjYuNzgxMjUsInkiOjIxNC4yNX0seyJ4IjoxOTkuNzgxMjUsInkiOjIxNC4yNX1d" data-look="classic"/><path d="M122.012,101.652L129.473,97.377C136.935,93.102,151.858,84.551,178.49,80.275C205.122,76,243.464,76,296.997,76C350.531,76,419.258,76,485.346,76C551.435,76,614.885,76,679.81,76C744.734,76,811.133,76,865.165,75.403C919.198,74.805,960.865,73.61,981.698,73.013L1002.531,72.416" id="my-svg-L_term_grid_term_battery_system_0" class="edge-thickness-normal edge-pattern-solid edge-thickness-normal edge-pattern-solid flowchart-link" style=";" data-edge="true" data-et="edge" data-id="L_term_grid_term_battery_system_0" data-points="W3sieCI6MTIyLjAxMTkyNDc5OTY4ODQsInkiOjEwMS42NTIzNDM3NX0seyJ4IjoxNjYuNzgxMjUsInkiOjc2fSx7IngiOjI4MS44MDQ2ODc1LCJ5Ijo3Nn0seyJ4Ijo0ODcuOTg0Mzc1LCJ5Ijo3Nn0seyJ4Ijo2NzguMzM1OTM3NSwieSI6NzZ9LHsieCI6ODc3LjUzMTI1LCJ5Ijo3Nn0seyJ4IjoxMDAyLjUzMTI1LCJ5Ijo3Mi40MTU2MzY3ODQ1Mjc0OX1d" data-look="classic"/></g><g class="edgeLabels"><g class="edgeLabel" transform="translate(487.40625, 138.2138)"><g class="label" data-id="L_term_inverters_sys_root_0" transform="translate(-91.15625, -12)"><foreignObject width="182.3125" height="24"><div xmlns="http://www.w3.org/1999/xhtml" class="labelBkg" style="display: table-cell; white-space: nowrap; line-height: 1.5; max-width: 200px; text-align: center;"><span class="edgeLabel"><p>F1: per-channel telemetry</p></span></div></foreignObject></g></g><g class="edgeLabel" transform="translate(472.56982, 303.07278)"><g class="label" data-id="L_sys_root_term_inverters_0" transform="translate(-86.6953125, -12)"><foreignObject width="173.390625" height="24"><div xmlns="http://www.w3.org/1999/xhtml" class="labelBkg" style="display: table-cell; white-space: nowrap; line-height: 1.5; max-width: 200px; text-align: center;"><span class="edgeLabel"><p>F2: power-limit setpoints</p></span></div></foreignObject></g></g><g class="edgeLabel" transform="translate(487.24259, 266.43708)"><g class="label" data-id="L_term_meter_sys_root_0" transform="translate(-90.7109375, -12)"><foreignObject width="181.421875" height="24"><div xmlns="http://www.w3.org/1999/xhtml" class="labelBkg" style="display: table-cell; white-space: nowrap; line-height: 1.5; max-width: 200px; text-align: center;"><span class="edgeLabel"><p>F3: net grid power, V/I/PF</p></span></div></foreignObject></g></g><g class="edgeLabel" transform="translate(866.33536, 130.96294)"><g class="label" data-id="L_term_battery_system_sys_root_0" transform="translate(-77.8125, -12)"><foreignObject width="155.625" height="24"><div xmlns="http://www.w3.org/1999/xhtml" class="labelBkg" style="display: table-cell; white-space: nowrap; line-height: 1.5; max-width: 200px; text-align: center;"><span class="edgeLabel"><p>F4: SoC, mode, AC-in</p></span></div></foreignObject></g></g><g class="edgeLabel" transform="translate(847.90468, 62.61598)"><g class="label" data-id="L_sys_root_term_battery_system_0" transform="translate(-100, -24)"><foreignObject width="200" height="48"><div xmlns="http://www.w3.org/1999/xhtml" class="labelBkg" style="display: table; white-space: break-spaces; line-height: 1.5; max-width: 200px; text-align: center; width: 200px;"><span class="edgeLabel"><p>F5: max-charge, grid setpoint</p></span></div></foreignObject></g></g><g class="edgeLabel" transform="translate(890.75638, 282.18853)"><g class="label" data-id="L_term_user_sys_root_0" transform="translate(-68.4765625, -12)"><foreignObject width="136.953125" height="24"><div xmlns="http://www.w3.org/1999/xhtml" class="labelBkg" style="display: table-cell; white-space: nowrap; line-height: 1.5; max-width: 200px; text-align: center;"><span class="edgeLabel"><p>F6: config, override</p></span></div></foreignObject></g></g><g class="edgeLabel" transform="translate(877.53125, 235.59765625)"><g class="label" data-id="L_sys_root_term_user_0" transform="translate(-79.6015625, -12)"><foreignObject width="159.203125" height="24"><div xmlns="http://www.w3.org/1999/xhtml" class="labelBkg" style="display: table-cell; white-space: nowrap; line-height: 1.5; max-width: 200px; text-align: center;"><span class="edgeLabel"><p>F7: dashboards, alerts</p></span></div></foreignObject></g></g><g class="edgeLabel" transform="translate(877.53125, 366.09765625)"><g class="label" data-id="L_sys_root_term_smiles_cloud_0" transform="translate(-100, -24)"><foreignObject width="200" height="48"><div xmlns="http://www.w3.org/1999/xhtml" class="labelBkg" style="display: table; white-space: break-spaces; line-height: 1.5; max-width: 200px; text-align: center; width: 200px;"><span class="edgeLabel"><p>F8: optional telemetry forward</p></span></div></foreignObject></g></g><g class="edgeLabel"><g class="label" data-id="L_term_grid_term_inverters_0" transform="translate(0, 0)"><foreignObject width="0" height="0"><div xmlns="http://www.w3.org/1999/xhtml" class="labelBkg" style="display: table-cell; white-space: nowrap; line-height: 1.5; max-width: 200px; text-align: center;"><span class="edgeLabel"></span></div></foreignObject></g></g><g class="edgeLabel"><g class="label" data-id="L_term_grid_term_battery_system_0" transform="translate(0, 0)"><foreignObject width="0" height="0"><div xmlns="http://www.w3.org/1999/xhtml" class="labelBkg" style="display: table-cell; white-space: nowrap; line-height: 1.5; max-width: 200px; text-align: center;"><span class="edgeLabel"></span></div></foreignObject></g></g></g><g class="nodes"><g class="node default terminator" id="my-svg-flowchart-term_inverters-0" data-look="classic" transform="translate(281.8046875, 214.25)"><rect class="basic label-container" style="fill:#fafafa !important;stroke:#444 !important" x="-82.0234375" y="-27" width="164.046875" height="54"/><g class="label" style="" transform="translate(-52.0234375, -12)"><rect/><foreignObject width="104.046875" height="24"><div xmlns="http://www.w3.org/1999/xhtml" style="display: table-cell; white-space: nowrap; line-height: 1.5; max-width: 200px; text-align: center;"><span class="nodeLabel"><p>Solar Inverters</p></span></div></foreignObject></g></g><g class="node default terminator" id="my-svg-flowchart-term_meter-1" data-look="classic" transform="translate(281.8046875, 318.25)"><rect class="basic label-container" style="fill:#fafafa !important;stroke:#444 !important" x="-90.0234375" y="-27" width="180.046875" height="54"/><g class="label" style="" transform="translate(-60.0234375, -12)"><rect/><foreignObject width="120.046875" height="24"><div xmlns="http://www.w3.org/1999/xhtml" style="display: table-cell; white-space: nowrap; line-height: 1.5; max-width: 200px; text-align: center;"><span class="nodeLabel"><p>Net Power Meter</p></span></div></foreignObject></g></g><g class="node default terminator" id="my-svg-flowchart-term_battery_system-2" data-look="classic" transform="translate(1086.7734375, 70)"><rect class="basic label-container" style="fill:#fafafa !important;stroke:#444 !important" x="-84.2421875" y="-27" width="168.484375" height="54"/><g class="label" style="" transform="translate(-54.2421875, -12)"><rect/><foreignObject width="108.484375" height="24"><div xmlns="http://www.w3.org/1999/xhtml" style="display: table-cell; white-space: nowrap; line-height: 1.5; max-width: 200px; text-align: center;"><span class="nodeLabel"><p>Battery System</p></span></div></foreignObject></g></g><g class="node default grid" id="my-svg-flowchart-term_grid-3" data-look="classic" transform="translate(74.890625, 128.65234375)"><rect class="basic label-container" style="fill:#fef0ef !important;stroke:#e74c3c !important" x="-66.890625" y="-27" width="133.78125" height="54"/><g class="label" style="" transform="translate(-36.890625, -12)"><rect/><foreignObject width="73.78125" height="24"><div xmlns="http://www.w3.org/1999/xhtml" style="display: table-cell; white-space: nowrap; line-height: 1.5; max-width: 200px; text-align: center;"><span class="nodeLabel"><p>Utility Grid</p></span></div></foreignObject></g></g><g class="node default terminator" id="my-svg-flowchart-term_user-4" data-look="classic" transform="translate(1086.7734375, 257.59765625)"><rect class="basic label-container" style="fill:#fafafa !important;stroke:#444 !important" x="-53.5625" y="-27" width="107.125" height="54"/><g class="label" style="" transform="translate(-23.5625, -12)"><rect/><foreignObject width="47.125" height="24"><div xmlns="http://www.w3.org/1999/xhtml" style="display: table-cell; white-space: nowrap; line-height: 1.5; max-width: 200px; text-align: center;"><span class="nodeLabel"><p>Owner</p></span></div></foreignObject></g></g><g class="node default optional" id="my-svg-flowchart-term_smiles_cloud-5" data-look="classic" transform="translate(1086.7734375, 366.09765625)"><g class="basic label-container outer-path"><path d="M-33.671875 -31.5 C-10.41660624347109 -31.5, 12.83866251305782 -31.5, 33.671875 -31.5 C33.671875 -31.5, 33.671875 -31.5, 33.671875 -31.5 C34.454935185624784 -31.4748887839812, 35.23799537124957 -31.4497775679624, 35.69008692939246 -31.435279871635593 C36.137257667536 -31.392141848328382, 36.58442840567953 -31.34900382502117, 37.70000559306194 -31.241385435432253 C38.24461401358361 -31.15333736950369, 38.78922243410527 -31.065289303575128, 39.693371804093225 -30.91911344521856 C40.26602649150294 -30.78840874973836, 40.83868117891266 -30.65770405425816, 41.66199439314948 -30.469788185729428 C42.245137141511485 -30.296714478994332, 42.82827988987349 -30.12364077225924, 43.59778386774405 -29.895256030836062 C44.07248627463158 -29.720561157000503, 44.54718868151912 -29.545866283164944, 45.49278565370028 -29.197877856399685 C45.95416891674177 -28.993637172299437, 46.41555217978326 -28.789396488199184, 47.33921278220308 -28.380519338926202 C47.99351551568655 -28.039170021968776, 48.64781824917003 -27.697820705011353, 49.129477888124036 -27.44653917988677 C49.628838190294665 -27.143824030144064, 50.1281984924653 -26.841108880401357, 50.856224388132276 -26.399775304092984 C51.49580211648096 -25.95363356767057, 52.13537984482964 -25.507491831248153, 52.5123567104733 -25.244529088840633 C53.121119018635135 -24.759057347926937, 53.72988132679697 -24.273585607013246, 54.09106945219533 -23.985547688627737 C54.651805305344794 -23.47630222305506, 55.21254115849427 -22.96705675748239, 55.58587534400982 -22.62800452807842 C55.968882651454294 -22.232518037657254, 56.351889958898774 -21.837031547236084, 56.990631907872434 -21.177478043231485 C57.325001251285514 -20.78470878630386, 57.659370594698586 -20.39193952937623, 58.29956669774294 -19.63992875855011 C58.54276984368783 -19.314058699246353, 58.78597298963272 -18.988188639942592, 59.5073010198041 -18.02167479384835 C59.7676929287837 -17.6216428966377, 60.0280848377633 -17.22161099942705, 60.6088720346684 -16.329365901781543 C60.96317777832568 -15.700260176571101, 61.31748352198296 -15.071154451360657, 61.59975315074951 -14.56995614258631 C61.884557833432574 -13.978553125150919, 62.16936251611565 -13.387150107715529, 62.47587262499809 -12.750675308355413 C62.68386034084993 -12.236941629032433, 62.891848056701775 -11.723207949709453, 63.23363029456745 -10.878999214271206 C63.38893537954871 -10.411245042812569, 63.54424046452997 -9.943490871353932, 63.86991237065481 -8.962618978877531 C64.02310231778107 -8.378439317542059, 64.17629226490732 -7.794259656206586, 64.38210423372745 -7.009409419623907 C64.53250106027365 -6.23715350168969, 64.68289788681986 -5.464897583755474, 64.76810117755518 -5.027396693551458 C64.86630316571086 -4.265761465591989, 64.96450515386654 -3.504126237632521, 65.02631705789975 -3.024725316091981 C65.05263258768564 -2.6148396981634954, 65.07894811747151 -2.2049540802350096, 65.15569081032167 -1.0096246935071378 C65.15569081032167 -0.42112844710549835, 65.15569081032167 0.1673677992961411, 65.15569081032167 1.00962469350713 C65.11817171350468 1.5940149113015565, 65.0806526166877 2.178405129095983, 65.02631705789975 3.02472531609196 C64.96202526692501 3.5233597510418977, 64.89773347595028 4.021994185991836, 64.76810117755518 5.027396693551435 C64.68759716302178 5.4407677936509975, 64.60709314848836 5.85413889375056, 64.38210423372745 7.0094094196239 C64.193726844353 7.727774048585687, 64.00534945497854 8.446138677547474, 63.869912370654816 8.96261897887751 C63.71709702375783 9.422874455912195, 63.56428167686085 9.88312993294688, 63.233630294567455 10.878999214271184 C63.076431492881355 11.267283293667917, 62.91923269119526 11.65556737306465, 62.47587262499809 12.750675308355405 C62.267443173564885 13.183483523932292, 62.05901372213168 13.61629173950918, 61.59975315074951 14.569956142586303 C61.35171577374785 15.010371621960708, 61.1036783967462 15.450787101335111, 60.60887203466841 16.329365901781536 C60.35847255339734 16.71404674668934, 60.108073072126274 17.098727591597143, 59.50730101980412 18.021674793848334 C59.187805680480764 18.449769441917436, 58.86831034115741 18.87786408998654, 58.29956669774295 19.639928758550102 C57.839271567193855 20.18061761042797, 57.378976436644756 20.721306462305833, 56.99063190787245 21.177478043231467 C56.584831926813735 21.596499840472642, 56.17903194575502 22.015521637713814, 55.58587534400983 22.628004528078414 C55.120885006414746 23.05029644971212, 54.655894668819656 23.472588371345825, 54.091069452195356 23.985547688627715 C53.465984864271874 24.484036013297217, 52.84090027634839 24.98252433796672, 52.51235671047331 25.24452908884063 C52.05170240015992 25.565861594311556, 51.59104808984653 25.887194099782487, 50.8562243881323 26.399775304092973 C50.225049260613574 26.782397375591586, 49.59387413309486 27.1650194470902, 49.12947788812404 27.446539179886766 C48.47961748951192 27.78557093358726, 47.82975709089979 28.124602687287755, 47.339212782203084 28.3805193389262 C46.69110946126117 28.667415453805244, 46.043006140319264 28.95431156868429, 45.492785653700295 29.197877856399682 C44.93143187932859 29.404461234465874, 44.37007810495689 29.611044612532066, 43.59778386774407 29.895256030836055 C43.100070153724594 30.04297484860444, 42.60235643970511 30.190693666372827, 41.66199439314951 30.46978818572942 C41.04472398936804 30.610676127326716, 40.42745358558656 30.75156406892401, 39.69337180409324 30.919113445218557 C38.956622936345525 31.038225288583206, 38.21987406859782 31.157337131947852, 37.70000559306196 31.24138543543225 C36.91877692101512 31.316749625859668, 36.13754824896829 31.392113816287083, 35.69008692939246 31.435279871635593 C35.19724171700685 31.45108445833179, 34.70439650462123 31.466889045027987, 33.67187500000001 31.5 C33.67187500000001 31.5, 33.671875 31.5, 33.671875 31.5 C9.111431946383966 31.5, -15.449011107232067 31.5, -33.67187499999999 31.5 C-34.118605462723075 31.485674223568566, -34.565335925446156 31.47134844713713, -35.69008692939244 31.435279871635593 C-36.1516380907085 31.390754586199918, -36.61318925202456 31.346229300764243, -37.700005593061945 31.24138543543225 C-38.32031942826058 31.141097905162972, -38.94063326345921 31.040810374893695, -39.693371804093225 30.919113445218557 C-40.3645237208351 30.765927399897784, -41.03567563757698 30.612741354577008, -41.66199439314947 30.469788185729428 C-42.238106694742655 30.298801078691753, -42.81421899633583 30.12781397165408, -43.597783867744035 29.89525603083607 C-44.16620388437057 29.686072210300473, -44.7346239009971 29.476888389764873, -45.49278565370029 29.197877856399685 C-46.10074790172457 28.92875100375866, -46.70871014974884 28.65962415111763, -47.33921278220308 28.380519338926206 C-47.832615113749625 28.12311165859765, -48.326017445296166 27.865703978269096, -49.12947788812403 27.446539179886773 C-49.51711053037266 27.211553994173396, -49.90474317262129 26.976568808460016, -50.85622438813226 26.399775304092994 C-51.206274468710944 26.155595521305063, -51.556324549289634 25.911415738517128, -52.5123567104733 25.244529088840636 C-52.9026272816471 24.933298693865595, -53.29289785282089 24.622068298890557, -54.09106945219533 23.98554768862774 C-54.597353033225886 23.52575433586529, -55.103636614256445 23.06596098310284, -55.58587534400981 22.628004528078435 C-55.89915467896185 22.304517894028713, -56.21243401391389 21.98103125997899, -56.99063190787244 21.177478043231478 C-57.354013041454614 20.750629886753604, -57.71739417503679 20.32378173027573, -58.29956669774293 19.639928758550113 C-58.69353402790542 19.11204842729451, -59.08750135806791 18.58416809603891, -59.5073010198041 18.021674793848355 C-59.908652551461095 17.405091063246623, -60.310004083118095 16.78850733264489, -60.608872034668394 16.329365901781557 C-60.832370389037756 15.93252194193628, -61.05586874340712 15.535677982091004, -61.5997531507495 14.569956142586314 C-61.85801017630185 14.033679903211722, -62.11626720185421 13.49740366383713, -62.47587262499809 12.750675308355417 C-62.759681006755415 12.049663118353047, -63.04348938851274 11.348650928350676, -63.23363029456745 10.878999214271209 C-63.436527464629606 10.267905265317903, -63.639424634691764 9.6568113163646, -63.86991237065481 8.962618978877522 C-64.05871406689603 8.242636283936974, -64.24751576313724 7.5226535889964286, -64.38210423372743 7.009409419623911 C-64.47089556297217 6.553484710006251, -64.55968689221692 6.09756000038859, -64.76810117755518 5.027396693551461 C-64.85925527033547 4.3204235503591395, -64.95040936311575 3.613450407166817, -65.02631705789975 3.024725316091999 C-65.06948912456805 2.3522855298680687, -65.11266119123637 1.6798457436441387, -65.15569081032167 1.0096246935071416 C-65.15569081032167 0.4591485554301342, -65.15569081032167 -0.09132758264687313, -65.15569081032167 -1.0096246935071262 C-65.12531243261519 -1.4827924472706993, -65.0949340549087 -1.955960201034272, -65.02631705789975 -3.024725316091956 C-64.93281360324498 -3.7499196460487836, -64.8393101485902 -4.475113976005612, -64.76810117755518 -5.027396693551446 C-64.63466151882143 -5.712581138667385, -64.50122186008768 -6.3977655837833245, -64.38210423372745 -7.009409419623896 C-64.2472552915825 -7.523646879923789, -64.11240634943756 -8.037884340223682, -63.869912370654816 -8.962618978877506 C-63.63142921003543 -9.680892261531575, -63.39294604941604 -10.399165544185644, -63.23363029456746 -10.878999214271168 C-62.9902144020308 -11.48024117496285, -62.746798509494134 -12.081483135654535, -62.47587262499809 -12.750675308355401 C-62.21873136693257 -13.28463463266998, -61.96159010886706 -13.818593956984557, -61.59975315074951 -14.5699561425863 C-61.29277971413824 -15.115018563720735, -60.98580627752698 -15.66008098485517, -60.6088720346684 -16.329365901781546 C-60.27241619927771 -16.8462524159838, -59.935960363887006 -17.36313893018605, -59.50730101980411 -18.021674793848344 C-59.06233313377186 -18.617891223723213, -58.617365247739606 -19.21410765359808, -58.29956669774295 -19.639928758550102 C-57.80025212609425 -20.22645206621266, -57.300937554445554 -20.812975373875215, -56.990631907872455 -21.177478043231467 C-56.570339469785935 -21.611464492206704, -56.15004703169941 -22.04545094118194, -55.585875344009835 -22.628004528078403 C-55.20814358071283 -22.971050521269955, -54.83041181741582 -23.314096514461507, -54.091069452195356 -23.98554768862771 C-53.466845225350525 -24.48334989823216, -52.842620998505694 -24.981152107836607, -52.51235671047331 -25.244529088840626 C-51.877430712855 -25.687425979275712, -51.24250471523669 -26.1303228697108, -50.856224388132304 -26.39977530409297 C-50.230780420685015 -26.778923112676242, -49.605336453237726 -27.158070921259515, -49.12947788812404 -27.446539179886763 C-48.498129513392755 -27.775913222586144, -47.86678113866146 -28.105287265285526, -47.33921278220309 -28.3805193389262 C-46.79949368154759 -28.619436974588112, -46.259774580892085 -28.858354610250025, -45.4927856537003 -29.19787785639968 C-44.7857852150994 -29.45806055324522, -44.0787847764985 -29.71824325009077, -43.59778386774408 -29.895256030836055 C-42.83053048652846 -30.12297280698567, -42.06327710531285 -30.350689583135278, -41.66199439314951 -30.469788185729417 C-41.19228980190693 -30.57699519357163, -40.72258521066435 -30.684202201413843, -39.69337180409324 -30.919113445218553 C-39.23175095316275 -30.99374472447383, -38.77013010223226 -31.068376003729107, -37.70000559306196 -31.24138543543225 C-37.16260124938376 -31.2932281861436, -36.62519690570556 -31.345070936854956, -35.69008692939246 -31.435279871635593 C-35.278767607676826 -31.448470081698524, -34.86744828596119 -31.46166029176145, -33.67187500000001 -31.5 C-33.67187500000001 -31.5, -33.671875 -31.5, -33.671875 -31.5" stroke="none" stroke-width="0" fill="#fafafa" style="fill:#fafafa !important;stroke:#888 !important;stroke-dasharray:5 5 !important"/><path d="M-33.671875 -31.5 C-15.568851745347335 -31.5, 2.534171509305331 -31.5, 33.671875 -31.5 M-33.671875 -31.5 C-11.48084250164155 -31.5, 10.710189996716899 -31.5, 33.671875 -31.5 M33.671875 -31.5 C33.671875 -31.5, 33.671875 -31.5, 33.671875 -31.5 M33.671875 -31.5 C33.671875 -31.5, 33.671875 -31.5, 33.671875 -31.5 M33.671875 -31.5 C34.07917897103325 -31.48693855441805, 34.486482942066495 -31.4738771088361, 35.69008692939246 -31.435279871635593 M33.671875 -31.5 C34.171712111072836 -31.48397119672181, 34.67154922214567 -31.46794239344362, 35.69008692939246 -31.435279871635593 M35.69008692939246 -31.435279871635593 C36.24158839522792 -31.382077188504, 36.79308986106339 -31.328874505372408, 37.70000559306194 -31.241385435432253 M35.69008692939246 -31.435279871635593 C36.14016591082251 -31.391861293596207, 36.59024489225257 -31.348442715556818, 37.70000559306194 -31.241385435432253 M37.70000559306194 -31.241385435432253 C38.140549485270355 -31.170161715408906, 38.58109337747877 -31.09893799538556, 39.693371804093225 -30.91911344521856 M37.70000559306194 -31.241385435432253 C38.316720598475435 -31.141679736053295, 38.93343560388894 -31.04197403667434, 39.693371804093225 -30.91911344521856 M39.693371804093225 -30.91911344521856 C40.205565284687225 -30.8022086256478, 40.71775876528122 -30.685303806077044, 41.66199439314948 -30.469788185729428 M39.693371804093225 -30.91911344521856 C40.14512378106095 -30.816004004432827, 40.59687575802868 -30.712894563647094, 41.66199439314948 -30.469788185729428 M41.66199439314948 -30.469788185729428 C42.201339523299445 -30.309713382181275, 42.740684653449414 -30.149638578633127, 43.59778386774405 -29.895256030836062 M41.66199439314948 -30.469788185729428 C42.3591960361391 -30.26286239777621, 43.05639767912873 -30.055936609822997, 43.59778386774405 -29.895256030836062 M43.59778386774405 -29.895256030836062 C44.05537301576141 -29.72685899445796, 44.51296216377877 -29.558461958079853, 45.49278565370028 -29.197877856399685 M43.59778386774405 -29.895256030836062 C44.29997143533312 -29.636844515012562, 45.0021590029222 -29.378432999189062, 45.49278565370028 -29.197877856399685 M45.49278565370028 -29.197877856399685 C46.12113982915836 -28.91972410238875, 46.74949400461644 -28.64157034837781, 47.33921278220308 -28.380519338926202 M45.49278565370028 -29.197877856399685 C46.12665103069784 -28.917284456951204, 46.7605164076954 -28.636691057502723, 47.33921278220308 -28.380519338926202 M47.33921278220308 -28.380519338926202 C47.98785835298161 -28.04212136012836, 48.636503923760145 -27.70372338133052, 49.129477888124036 -27.44653917988677 M47.33921278220308 -28.380519338926202 C47.87856598771204 -28.0991391170844, 48.41791919322099 -27.81775889524259, 49.129477888124036 -27.44653917988677 M49.129477888124036 -27.44653917988677 C49.80093671033022 -27.03949689593535, 50.472395532536396 -26.63245461198393, 50.856224388132276 -26.399775304092984 M49.129477888124036 -27.44653917988677 C49.65064128151756 -27.13060686811556, 50.17180467491108 -26.814674556344354, 50.856224388132276 -26.399775304092984 M50.856224388132276 -26.399775304092984 C51.2900185669866 -26.097179263571547, 51.72381274584093 -25.79458322305011, 52.5123567104733 -25.244529088840633 M50.856224388132276 -26.399775304092984 C51.34662123627249 -26.057695691767776, 51.837018084412705 -25.715616079442565, 52.5123567104733 -25.244529088840633 M52.5123567104733 -25.244529088840633 C53.11457153402189 -24.76427879267012, 53.71678635757048 -24.28402849649961, 54.09106945219533 -23.985547688627737 M52.5123567104733 -25.244529088840633 C53.03519128923588 -24.82758242548993, 53.55802586799847 -24.41063576213923, 54.09106945219533 -23.985547688627737 M54.09106945219533 -23.985547688627737 C54.65354046781047 -23.474726394413622, 55.21601148342562 -22.963905100199504, 55.58587534400982 -22.62800452807842 M54.09106945219533 -23.985547688627737 C54.403564883592196 -23.701747606009135, 54.71606031498906 -23.417947523390534, 55.58587534400982 -22.62800452807842 M55.58587534400982 -22.62800452807842 C56.07187599529234 -22.12616895423369, 56.55787664657485 -21.624333380388958, 56.990631907872434 -21.177478043231485 M55.58587534400982 -22.62800452807842 C56.02547580812295 -22.174080957012297, 56.465076272236075 -21.720157385946173, 56.990631907872434 -21.177478043231485 M56.990631907872434 -21.177478043231485 C57.49136232128808 -20.589291607265796, 57.99209273470372 -20.001105171300107, 58.29956669774294 -19.63992875855011 M56.990631907872434 -21.177478043231485 C57.33082008191694 -20.77787365674334, 57.671008255961446 -20.37826927025519, 58.29956669774294 -19.63992875855011 M58.29956669774294 -19.63992875855011 C58.7523192592158 -19.03328157278335, 59.20507182068866 -18.426634387016588, 59.5073010198041 -18.02167479384835 M58.29956669774294 -19.63992875855011 C58.55900690076115 -19.292302521994433, 58.818447103779356 -18.94467628543876, 59.5073010198041 -18.02167479384835 M59.5073010198041 -18.02167479384835 C59.780208492931536 -17.60241562920708, 60.053115966058975 -17.18315646456581, 60.6088720346684 -16.329365901781543 M59.5073010198041 -18.02167479384835 C59.898658513076185 -17.42044458998091, 60.290016006348274 -16.819214386113472, 60.6088720346684 -16.329365901781543 M60.6088720346684 -16.329365901781543 C60.96940768907981 -15.689198339180273, 61.329943343491216 -15.049030776579002, 61.59975315074951 -14.56995614258631 M60.6088720346684 -16.329365901781543 C60.989667593179036 -15.653224827914343, 61.37046315168967 -14.977083754047142, 61.59975315074951 -14.56995614258631 M61.59975315074951 -14.56995614258631 C61.85279593879398 -14.044507378963639, 62.105838726838456 -13.519058615340967, 62.47587262499809 -12.750675308355413 M61.59975315074951 -14.56995614258631 C61.857106035774756 -14.03555737036175, 62.11445892080001 -13.501158598137193, 62.47587262499809 -12.750675308355413 M62.47587262499809 -12.750675308355413 C62.76088894413116 -12.046679489681063, 63.04590526326424 -11.34268367100671, 63.23363029456745 -10.878999214271206 M62.47587262499809 -12.750675308355413 C62.674730539194684 -12.259492415633611, 62.87358845339127 -11.768309522911808, 63.23363029456745 -10.878999214271206 M63.23363029456745 -10.878999214271206 C63.36977862866096 -10.468942124272722, 63.505926962754465 -10.058885034274239, 63.86991237065481 -8.962618978877531 M63.23363029456745 -10.878999214271206 C63.387574029611926 -10.415345211920496, 63.54151776465641 -9.951691209569786, 63.86991237065481 -8.962618978877531 M63.86991237065481 -8.962618978877531 C64.01112663234079 -8.424107796420746, 64.15234089402676 -7.885596613963961, 64.38210423372745 -7.009409419623907 M63.86991237065481 -8.962618978877531 C64.05019928601196 -8.275106833777349, 64.2304862013691 -7.587594688677165, 64.38210423372745 -7.009409419623907 M64.38210423372745 -7.009409419623907 C64.46145707851751 -6.6019493328566075, 64.54080992330758 -6.194489246089309, 64.76810117755518 -5.027396693551458 M64.38210423372745 -7.009409419623907 C64.46829695112515 -6.566828032623924, 64.55448966852288 -6.124246645623941, 64.76810117755518 -5.027396693551458 M64.76810117755518 -5.027396693551458 C64.84600220103253 -4.42321173875821, 64.92390322450987 -3.8190267839649623, 65.02631705789975 -3.024725316091981 M64.76810117755518 -5.027396693551458 C64.85404610046719 -4.360824843190554, 64.9399910233792 -3.694252992829651, 65.02631705789975 -3.024725316091981 M65.02631705789975 -3.024725316091981 C65.0731171880268 -2.295775512977996, 65.11991731815385 -1.5668257098640113, 65.15569081032167 -1.0096246935071378 M65.02631705789975 -3.024725316091981 C65.0665132142095 -2.3986377358142383, 65.10670937051924 -1.7725501555364955, 65.15569081032167 -1.0096246935071378 M65.15569081032167 -1.0096246935071378 C65.15569081032167 -0.5564530424020518, 65.15569081032167 -0.1032813912969659, 65.15569081032167 1.00962469350713 M65.15569081032167 -1.0096246935071378 C65.15569081032167 -0.4335964704029259, 65.15569081032167 0.14243175270128594, 65.15569081032167 1.00962469350713 M65.15569081032167 1.00962469350713 C65.12687109096517 1.458515085343528, 65.09805137160865 1.9074054771799258, 65.02631705789975 3.02472531609196 M65.15569081032167 1.00962469350713 C65.1201069800913 1.5638715720960303, 65.08452314986091 2.1181184506849307, 65.02631705789975 3.02472531609196 M65.02631705789975 3.02472531609196 C64.97312734156154 3.4372542525135903, 64.91993762522333 3.8497831889352208, 64.76810117755518 5.027396693551435 M65.02631705789975 3.02472531609196 C64.93213502735614 3.7551825466425917, 64.83795299681255 4.4856397771932235, 64.76810117755518 5.027396693551435 M64.76810117755518 5.027396693551435 C64.62519649200358 5.761182050942901, 64.48229180645198 6.494967408334367, 64.38210423372745 7.0094094196239 M64.76810117755518 5.027396693551435 C64.62107960085687 5.782321416876008, 64.47405802415857 6.5372461402005815, 64.38210423372745 7.0094094196239 M64.38210423372745 7.0094094196239 C64.18727165700763 7.752390475629487, 63.9924390802878 8.495371531635074, 63.869912370654816 8.96261897887751 M64.38210423372745 7.0094094196239 C64.27874191178104 7.403574750719273, 64.17537958983462 7.797740081814646, 63.869912370654816 8.96261897887751 M63.869912370654816 8.96261897887751 C63.680352274043685 9.533543787570396, 63.49079217743255 10.104468596263281, 63.233630294567455 10.878999214271184 M63.869912370654816 8.96261897887751 C63.62473483124623 9.701054663840232, 63.379557291837635 10.439490348802956, 63.233630294567455 10.878999214271184 M63.233630294567455 10.878999214271184 C62.951361105130154 11.576209569484835, 62.66909191569285 12.273419924698484, 62.47587262499809 12.750675308355405 M63.233630294567455 10.878999214271184 C63.01338946045905 11.422998332585792, 62.79314862635065 11.966997450900399, 62.47587262499809 12.750675308355405 M62.47587262499809 12.750675308355405 C62.243773349618 13.23263441981109, 62.011674074237916 13.714593531266775, 61.59975315074951 14.569956142586303 M62.47587262499809 12.750675308355405 C62.18679395186786 13.350953358403064, 61.897715278737635 13.951231408450724, 61.59975315074951 14.569956142586303 M61.59975315074951 14.569956142586303 C61.242240823330974 15.204755481966682, 60.884728495912434 15.839554821347061, 60.60887203466841 16.329365901781536 M61.59975315074951 14.569956142586303 C61.35790358989377 14.99938452780929, 61.11605402903804 15.42881291303228, 60.60887203466841 16.329365901781536 M60.60887203466841 16.329365901781536 C60.25647051412168 16.87074927039945, 59.90406899357496 17.412132639017365, 59.50730101980412 18.021674793848334 M60.60887203466841 16.329365901781536 C60.318977224107286 16.77472217845975, 60.02908241354617 17.220078455137966, 59.50730101980412 18.021674793848334 M59.50730101980412 18.021674793848334 C59.18470695762419 18.453921448245787, 58.86211289544426 18.886168102643236, 58.29956669774295 19.639928758550102 M59.50730101980412 18.021674793848334 C59.169730752350915 18.473988198951602, 58.83216048489772 18.926301604054874, 58.29956669774295 19.639928758550102 M58.29956669774295 19.639928758550102 C57.9015139053422 20.10750421834955, 57.50346111294145 20.575079678148995, 56.99063190787245 21.177478043231467 M58.29956669774295 19.639928758550102 C58.01860150621818 19.969966459887388, 57.73763631469342 20.300004161224674, 56.99063190787245 21.177478043231467 M56.99063190787245 21.177478043231467 C56.54555653167028 21.63705491052817, 56.10048115546811 22.09663177782488, 55.58587534400983 22.628004528078414 M56.99063190787245 21.177478043231467 C56.66975093449117 21.508813993065495, 56.3488699611099 21.840149942899526, 55.58587534400983 22.628004528078414 M55.58587534400983 22.628004528078414 C55.22173049138294 22.958711248489315, 54.85758563875606 23.289417968900217, 54.091069452195356 23.985547688627715 M55.58587534400983 22.628004528078414 C55.15121924753984 23.02274769452234, 54.71656315106986 23.417490860966268, 54.091069452195356 23.985547688627715 M54.091069452195356 23.985547688627715 C53.67879089118791 24.31432886983789, 53.266512330180454 24.643110051048062, 52.51235671047331 25.24452908884063 M54.091069452195356 23.985547688627715 C53.751302344205484 24.256502915667177, 53.411535236215606 24.527458142706635, 52.51235671047331 25.24452908884063 M52.51235671047331 25.24452908884063 C52.14074416859702 25.50374991120587, 51.76913162672072 25.76297073357111, 50.8562243881323 26.399775304092973 M52.51235671047331 25.24452908884063 C51.941340684281116 25.642845149826933, 51.37032465808892 26.041161210813232, 50.8562243881323 26.399775304092973 M50.8562243881323 26.399775304092973 C50.29539761097065 26.739751792192333, 49.734570833809 27.079728280291693, 49.12947788812404 27.446539179886766 M50.8562243881323 26.399775304092973 C50.196010068156134 26.800001104712525, 49.535795748179964 27.20022690533208, 49.12947788812404 27.446539179886766 M49.12947788812404 27.446539179886766 C48.74388819832763 27.64770107407157, 48.35829850853123 27.84886296825637, 47.339212782203084 28.3805193389262 M49.12947788812404 27.446539179886766 C48.50571903538228 27.77195377382553, 47.88196018264051 28.097368367764293, 47.339212782203084 28.3805193389262 M47.339212782203084 28.3805193389262 C46.677462041553056 28.673456761673705, 46.01571130090302 28.966394184421215, 45.492785653700295 29.197877856399682 M47.339212782203084 28.3805193389262 C46.851090262389306 28.596596698807673, 46.36296774257552 28.812674058689144, 45.492785653700295 29.197877856399682 M45.492785653700295 29.197877856399682 C44.79220832515349 29.455696789370737, 44.09163099660669 29.713515722341796, 43.59778386774407 29.895256030836055 M45.492785653700295 29.197877856399682 C44.823506748757225 29.44417868016511, 44.154227843814155 29.690479503930533, 43.59778386774407 29.895256030836055 M43.59778386774407 29.895256030836055 C43.02586977646808 30.064997131088447, 42.45395568519209 30.234738231340835, 41.66199439314951 30.46978818572942 M43.59778386774407 29.895256030836055 C43.07488584582457 30.050449418994038, 42.551987823905066 30.20564280715202, 41.66199439314951 30.46978818572942 M41.66199439314951 30.46978818572942 C40.91023346898466 30.641372710971556, 40.1584725448198 30.812957236213695, 39.69337180409324 30.919113445218557 M41.66199439314951 30.46978818572942 C41.14434702722995 30.58793781903581, 40.62669966131038 30.706087452342203, 39.69337180409324 30.919113445218557 M39.69337180409324 30.919113445218557 C38.90046953145335 31.04730373561001, 38.10756725881346 31.17549402600147, 37.70000559306196 31.24138543543225 M39.69337180409324 30.919113445218557 C38.92744251348537 31.042942953053675, 38.161513222877495 31.166772460888797, 37.70000559306196 31.24138543543225 M37.70000559306196 31.24138543543225 C37.206036176594516 31.289038070953723, 36.71206676012707 31.336690706475196, 35.69008692939246 31.435279871635593 M37.70000559306196 31.24138543543225 C36.921976108783795 31.316441004063208, 36.14394662450563 31.39149657269417, 35.69008692939246 31.435279871635593 M35.69008692939246 31.435279871635593 C35.13303398208709 31.453143475417892, 34.57598103478173 31.47100707920019, 33.67187500000001 31.5 M35.69008692939246 31.435279871635593 C34.92248240538721 31.459895454668874, 34.15487788138196 31.484511037702156, 33.67187500000001 31.5 M33.67187500000001 31.5 C33.67187500000001 31.5, 33.671875 31.5, 33.671875 31.5 M33.67187500000001 31.5 C33.67187500000001 31.5, 33.671875 31.5, 33.671875 31.5 M33.671875 31.5 C18.4148519918127 31.5, 3.1578289836254 31.5, -33.67187499999999 31.5 M33.671875 31.5 C7.51998503077667 31.5, -18.63190493844666 31.5, -33.67187499999999 31.5 M-33.67187499999999 31.5 C-34.32814837945392 31.478954590079553, -34.98442175890786 31.457909180159106, -35.69008692939244 31.435279871635593 M-33.67187499999999 31.5 C-34.109888640417566 31.48595375509364, -34.54790228083514 31.47190751018728, -35.69008692939244 31.435279871635593 M-35.69008692939244 31.435279871635593 C-36.132554971377765 31.392595511770946, -36.57502301336309 31.349911151906298, -37.700005593061945 31.24138543543225 M-35.69008692939244 31.435279871635593 C-36.26132389854408 31.380173328234505, -36.83256086769571 31.325066784833414, -37.700005593061945 31.24138543543225 M-37.700005593061945 31.24138543543225 C-38.144259148152905 31.169561965882917, -38.58851270324387 31.097738496333584, -39.693371804093225 30.919113445218557 M-37.700005593061945 31.24138543543225 C-38.1193532304889 31.17358856150256, -38.53870086791586 31.105791687572864, -39.693371804093225 30.919113445218557 M-39.693371804093225 30.919113445218557 C-40.217045200734084 30.799588409723558, -40.740718597374936 30.680063374228556, -41.66199439314947 30.469788185729428 M-39.693371804093225 30.919113445218557 C-40.210866874579985 30.800998572350885, -40.72836194506674 30.682883699483213, -41.66199439314947 30.469788185729428 M-41.66199439314947 30.469788185729428 C-42.19025861726436 30.313002136927626, -42.718522841379254 30.156216088125824, -43.597783867744035 29.89525603083607 M-41.66199439314947 30.469788185729428 C-42.23094833366841 30.300925642683588, -42.79990227418734 30.132063099637744, -43.597783867744035 29.89525603083607 M-43.597783867744035 29.89525603083607 C-44.13557523492392 29.69734383642497, -44.67336660210381 29.499431642013867, -45.49278565370029 29.197877856399685 M-43.597783867744035 29.89525603083607 C-44.122562953242316 29.702132476368014, -44.6473420387406 29.509008921899955, -45.49278565370029 29.197877856399685 M-45.49278565370029 29.197877856399685 C-46.12682639746705 28.917206827284552, -46.76086714123381 28.636535798169415, -47.33921278220308 28.380519338926206 M-45.49278565370029 29.197877856399685 C-46.15832070146299 28.903265233150883, -46.823855749225686 28.60865260990208, -47.33921278220308 28.380519338926206 M-47.33921278220308 28.380519338926206 C-47.78233684245021 28.149341800529783, -48.22546090269734 27.91816426213336, -49.12947788812403 27.446539179886773 M-47.33921278220308 28.380519338926206 C-47.74985025122372 28.16629003436399, -48.16048772024437 27.95206072980177, -49.12947788812403 27.446539179886773 M-49.12947788812403 27.446539179886773 C-49.51928357540109 27.21023668150693, -49.90908926267815 26.97393418312709, -50.85622438813226 26.399775304092994 M-49.12947788812403 27.446539179886773 C-49.59170510244325 27.166334326217843, -50.05393231676246 26.886129472548912, -50.85622438813226 26.399775304092994 M-50.85622438813226 26.399775304092994 C-51.34658614477815 26.05772017007514, -51.83694790142405 25.715665036057285, -52.5123567104733 25.244529088840636 M-50.85622438813226 26.399775304092994 C-51.276265102247486 26.106773085195666, -51.6963058163627 25.813770866298338, -52.5123567104733 25.244529088840636 M-52.5123567104733 25.244529088840636 C-53.08251837504158 24.789840333986533, -53.65268003960987 24.335151579132432, -54.09106945219533 23.98554768862774 M-52.5123567104733 25.244529088840636 C-53.05344655951959 24.81302433323182, -53.594536408565894 24.381519577623, -54.09106945219533 23.98554768862774 M-54.09106945219533 23.98554768862774 C-54.44502815294782 23.664091761838346, -54.79898685370032 23.342635835048952, -55.58587534400981 22.628004528078435 M-54.09106945219533 23.98554768862774 C-54.62607610475924 23.49966880226952, -55.16108275732316 23.013789915911303, -55.58587534400981 22.628004528078435 M-55.58587534400981 22.628004528078435 C-55.938334611722695 22.264061396720834, -56.29079387943558 21.900118265363233, -56.99063190787244 21.177478043231478 M-55.58587534400981 22.628004528078435 C-55.98449472327276 22.216397291729756, -56.38311410253571 21.804790055381076, -56.99063190787244 21.177478043231478 M-56.99063190787244 21.177478043231478 C-57.36962367603217 20.732292747108534, -57.7486154441919 20.28710745098559, -58.29956669774293 19.639928758550113 M-56.99063190787244 21.177478043231478 C-57.41048345968457 20.684296520242874, -57.83033501149669 20.19111499725427, -58.29956669774293 19.639928758550113 M-58.29956669774293 19.639928758550113 C-58.73120001291142 19.06157943882829, -59.16283332807991 18.48323011910647, -59.5073010198041 18.021674793848355 M-58.29956669774293 19.639928758550113 C-58.59491601435117 19.244187581171346, -58.89026533095941 18.848446403792575, -59.5073010198041 18.021674793848355 M-59.5073010198041 18.021674793848355 C-59.78734308353065 17.591454982141016, -60.067385147257205 17.161235170433677, -60.608872034668394 16.329365901781557 M-59.5073010198041 18.021674793848355 C-59.74295560925952 17.65964606232724, -59.978610198714925 17.29761733080613, -60.608872034668394 16.329365901781557 M-60.608872034668394 16.329365901781557 C-61.00046269453467 15.634057032334866, -61.39205335440094 14.938748162888176, -61.5997531507495 14.569956142586314 M-60.608872034668394 16.329365901781557 C-60.898811606030044 15.814548833263709, -61.18875117739169 15.299731764745863, -61.5997531507495 14.569956142586314 M-61.5997531507495 14.569956142586314 C-61.85019817483949 14.04990169139837, -62.10064319892949 13.529847240210426, -62.47587262499809 12.750675308355417 M-61.5997531507495 14.569956142586314 C-61.88287124050214 13.982055371458268, -62.16598933025478 13.39415460033022, -62.47587262499809 12.750675308355417 M-62.47587262499809 12.750675308355417 C-62.70364455437861 12.18807423911485, -62.931416483759136 11.625473169874285, -63.23363029456745 10.878999214271209 M-62.47587262499809 12.750675308355417 C-62.76610382413114 12.033798635258268, -63.0563350232642 11.31692196216112, -63.23363029456745 10.878999214271209 M-63.23363029456745 10.878999214271209 C-63.38847500771959 10.412631609411573, -63.54331972087174 9.946264004551937, -63.86991237065481 8.962618978877522 M-63.23363029456745 10.878999214271209 C-63.41492771889634 10.332960258014381, -63.59622514322523 9.786921301757552, -63.86991237065481 8.962618978877522 M-63.86991237065481 8.962618978877522 C-64.0119209715794 8.421078636635098, -64.15392957250398 7.879538294392675, -64.38210423372743 7.009409419623911 M-63.86991237065481 8.962618978877522 C-64.01344688461333 8.415259668901836, -64.15698139857184 7.867900358926151, -64.38210423372743 7.009409419623911 M-64.38210423372743 7.009409419623911 C-64.4951445523993 6.4289712743237, -64.60818487107117 5.84853312902349, -64.76810117755518 5.027396693551461 M-64.38210423372743 7.009409419623911 C-64.46352092100109 6.591351937896656, -64.54493760827474 6.1732944561694, -64.76810117755518 5.027396693551461 M-64.76810117755518 5.027396693551461 C-64.8495612944698 4.3956081128812485, -64.9310214113844 3.763819532211036, -65.02631705789975 3.024725316091999 M-64.76810117755518 5.027396693551461 C-64.8656380197995 4.270920205932487, -64.96317486204384 3.514443718313513, -65.02631705789975 3.024725316091999 M-65.02631705789975 3.024725316091999 C-65.07603075431766 2.2503943662096435, -65.12574445073555 1.476063416327288, -65.15569081032167 1.0096246935071416 M-65.02631705789975 3.024725316091999 C-65.07111880838117 2.3269018890216526, -65.1159205588626 1.6290784619513066, -65.15569081032167 1.0096246935071416 M-65.15569081032167 1.0096246935071416 C-65.15569081032167 0.2786453392735434, -65.15569081032167 -0.45233401496005476, -65.15569081032167 -1.0096246935071262 M-65.15569081032167 1.0096246935071416 C-65.15569081032167 0.386983103573163, -65.15569081032167 -0.23565848636081554, -65.15569081032167 -1.0096246935071262 M-65.15569081032167 -1.0096246935071262 C-65.11482447201473 -1.6461508993522675, -65.07395813370779 -2.2826771051974086, -65.02631705789975 -3.024725316091956 M-65.15569081032167 -1.0096246935071262 C-65.12499422807781 -1.4877487397904956, -65.09429764583395 -1.9658727860738647, -65.02631705789975 -3.024725316091956 M-65.02631705789975 -3.024725316091956 C-64.92529681279794 -3.8082183883978384, -64.82427656769613 -4.591711460703721, -64.76810117755518 -5.027396693551446 M-65.02631705789975 -3.024725316091956 C-64.9397712438043 -3.6959575598121495, -64.85322542970887 -4.367189803532343, -64.76810117755518 -5.027396693551446 M-64.76810117755518 -5.027396693551446 C-64.6651519482007 -5.556019227959364, -64.56220271884622 -6.084641762367282, -64.38210423372745 -7.009409419623896 M-64.76810117755518 -5.027396693551446 C-64.61447195621277 -5.81625027559732, -64.46084273487035 -6.605103857643194, -64.38210423372745 -7.009409419623896 M-64.38210423372745 -7.009409419623896 C-64.19686202432752 -7.7158182485472535, -64.01161981492758 -8.42222707747061, -63.869912370654816 -8.962618978877506 M-64.38210423372745 -7.009409419623896 C-64.18292688762273 -7.7689589643290615, -63.983749541518 -8.528508509034227, -63.869912370654816 -8.962618978877506 M-63.869912370654816 -8.962618978877506 C-63.66094765917172 -9.591987395859244, -63.45198294768861 -10.221355812840983, -63.23363029456746 -10.878999214271168 M-63.869912370654816 -8.962618978877506 C-63.70982965830184 -9.444762602768197, -63.54974694594887 -9.926906226658888, -63.23363029456746 -10.878999214271168 M-63.23363029456746 -10.878999214271168 C-63.06109508898263 -11.305164507806959, -62.88855988339781 -11.731329801342751, -62.47587262499809 -12.750675308355401 M-63.23363029456746 -10.878999214271168 C-63.01229532236937 -11.425700874821032, -62.790960350171275 -11.972402535370898, -62.47587262499809 -12.750675308355401 M-62.47587262499809 -12.750675308355401 C-62.129590342148056 -13.469737877947408, -61.78330805929803 -14.188800447539416, -61.59975315074951 -14.5699561425863 M-62.47587262499809 -12.750675308355401 C-62.137374191684565 -13.45357454783715, -61.79887575837105 -14.156473787318896, -61.59975315074951 -14.5699561425863 M-61.59975315074951 -14.5699561425863 C-61.361635179796494 -14.992758712072552, -61.12351720884349 -15.415561281558807, -60.6088720346684 -16.329365901781546 M-61.59975315074951 -14.5699561425863 C-61.28884734427631 -15.122000884606223, -60.97794153780312 -15.674045626626148, -60.6088720346684 -16.329365901781546 M-60.6088720346684 -16.329365901781546 C-60.199438561044325 -16.958365665550012, -59.79000508742024 -17.587365429318474, -59.50730101980411 -18.021674793848344 M-60.6088720346684 -16.329365901781546 C-60.17463315715061 -16.996473427114353, -59.74039427963282 -17.66358095244716, -59.50730101980411 -18.021674793848344 M-59.50730101980411 -18.021674793848344 C-59.0993966443565 -18.56822949609506, -58.6914922689089 -19.114784198341777, -58.29956669774295 -19.639928758550102 M-59.50730101980411 -18.021674793848344 C-59.07662718089657 -18.598738502790575, -58.64595334198904 -19.175802211732805, -58.29956669774295 -19.639928758550102 M-58.29956669774295 -19.639928758550102 C-57.984167643539976 -20.0104144343315, -57.66876858933701 -20.3809001101129, -56.990631907872455 -21.177478043231467 M-58.29956669774295 -19.639928758550102 C-57.80475471236041 -20.221163072180012, -57.30994272697787 -20.80239738580992, -56.990631907872455 -21.177478043231467 M-56.990631907872455 -21.177478043231467 C-56.481784189990854 -21.702905089118808, -55.97293647210925 -22.22833213500615, -55.585875344009835 -22.628004528078403 M-56.990631907872455 -21.177478043231467 C-56.62509636117034 -21.554923506227908, -56.25956081446823 -21.93236896922435, -55.585875344009835 -22.628004528078403 M-55.585875344009835 -22.628004528078403 C-55.0436860630186 -23.120406487532378, -54.50149678202737 -23.612808446986357, -54.091069452195356 -23.98554768862771 M-55.585875344009835 -22.628004528078403 C-55.12045752366544 -23.050684678234454, -54.65503970332105 -23.473364828390505, -54.091069452195356 -23.98554768862771 M-54.091069452195356 -23.98554768862771 C-53.5751767291254 -24.39695840679408, -53.05928400605544 -24.808369124960453, -52.51235671047331 -25.244529088840626 M-54.091069452195356 -23.98554768862771 C-53.69041422138669 -24.30505957331416, -53.28975899057802 -24.624571458000613, -52.51235671047331 -25.244529088840626 M-52.51235671047331 -25.244529088840626 C-51.92136663014027 -25.656778185332715, -51.33037654980723 -26.069027281824802, -50.856224388132304 -26.39977530409297 M-52.51235671047331 -25.244529088840626 C-51.94790178746734 -25.6382684082698, -51.38344686446136 -26.032007727698975, -50.856224388132304 -26.39977530409297 M-50.856224388132304 -26.39977530409297 C-50.39989794044904 -26.676403078350436, -49.94357149276576 -26.9530308526079, -49.12947788812404 -27.446539179886763 M-50.856224388132304 -26.39977530409297 C-50.49369955832789 -26.61953998635278, -50.131174728523476 -26.839304668612588, -49.12947788812404 -27.446539179886763 M-49.12947788812404 -27.446539179886763 C-48.677245319300624 -27.682468621373157, -48.225012750477205 -27.918398062859552, -47.33921278220309 -28.3805193389262 M-49.12947788812404 -27.446539179886763 C-48.56275046632413 -27.74220051283354, -47.99602304452422 -28.037861845780316, -47.33921278220309 -28.3805193389262 M-47.33921278220309 -28.3805193389262 C-46.88311407932368 -28.582420705003603, -46.42701537644427 -28.784322071081007, -45.4927856537003 -29.19787785639968 M-47.33921278220309 -28.3805193389262 C-46.77022269957373 -28.63239437001511, -46.20123261694436 -28.884269401104024, -45.4927856537003 -29.19787785639968 M-45.4927856537003 -29.19787785639968 C-45.079205405952564 -29.35007921066475, -44.66562515820482 -29.50228056492982, -43.59778386774408 -29.895256030836055 M-45.4927856537003 -29.19787785639968 C-44.788438036547134 -29.457084290430043, -44.08409041939397 -29.71629072446041, -43.59778386774408 -29.895256030836055 M-43.59778386774408 -29.895256030836055 C-42.896384490556365 -30.103427684264908, -42.19498511336865 -30.31159933769376, -41.66199439314951 -30.469788185729417 M-43.59778386774408 -29.895256030836055 C-43.10452957472608 -30.04165131585918, -42.611275281708075 -30.188046600882302, -41.66199439314951 -30.469788185729417 M-41.66199439314951 -30.469788185729417 C-41.09428595444744 -30.599363932219383, -40.52657751574537 -30.728939678709352, -39.69337180409324 -30.919113445218553 M-41.66199439314951 -30.469788185729417 C-40.9162360834098 -30.640002653399737, -40.17047777367008 -30.810217121070053, -39.69337180409324 -30.919113445218553 M-39.69337180409324 -30.919113445218553 C-39.267493518594414 -30.987966143682574, -38.84161523309558 -31.056818842146594, -37.70000559306196 -31.24138543543225 M-39.69337180409324 -30.919113445218553 C-39.05466815905369 -31.022374097327805, -38.415964514014135 -31.125634749437058, -37.70000559306196 -31.24138543543225 M-37.70000559306196 -31.24138543543225 C-37.0845655984476 -31.30075619153781, -36.469125603833234 -31.360126947643376, -35.69008692939246 -31.435279871635593 M-37.70000559306196 -31.24138543543225 C-37.028578476818815 -31.306157201826977, -36.35715136057566 -31.3709289682217, -35.69008692939246 -31.435279871635593 M-35.69008692939246 -31.435279871635593 C-35.218961387757155 -31.450387950765602, -34.74783584612185 -31.46549602989561, -33.67187500000001 -31.5 M-35.69008692939246 -31.435279871635593 C-35.239596375400986 -31.44972622687543, -34.78910582140951 -31.464172582115268, -33.67187500000001 -31.5 M-33.67187500000001 -31.5 C-33.67187500000001 -31.5, -33.671875 -31.5, -33.671875 -31.5 M-33.67187500000001 -31.5 C-33.67187500000001 -31.5, -33.67187500000001 -31.5, -33.671875 -31.5" stroke="#888" stroke-width="1.3" fill="none" stroke-dasharray="5 5" style="fill:#fafafa !important;stroke:#888 !important;stroke-dasharray:5 5 !important"/></g><g class="label" style="color:#666 !important" transform="translate(-49.796875, -24)"><rect/><foreignObject width="99.59375" height="48"><div style="color: rgb(102, 102, 102) !important; display: table-cell; white-space: nowrap; line-height: 1.5; max-width: 200px; text-align: center;" xmlns="http://www.w3.org/1999/xhtml"><span style="color:#666 !important" class="nodeLabel"><p>S-Miles Cloud<br /><i>optional</i></p></span></div></foreignObject></g></g><g class="node default system" id="my-svg-flowchart-sys_root-6" data-look="classic" transform="translate(678.3359375, 237.84765625)"><circle class="basic label-container" style="fill:#4a90e2 !important;stroke:#2a70c2 !important" r="74.1953125" cx="0" cy="0"/><g class="label" style="color:#fff !important;font-weight:bold !important" transform="translate(-66.6953125, -12)"><rect/><foreignObject width="133.390625" height="24"><div style="color: rgb(255, 255, 255) !important; font-weight: bold !important; display: table-cell; white-space: nowrap; line-height: 1.5; max-width: 200px; text-align: center;" xmlns="http://www.w3.org/1999/xhtml"><span style="color:#fff !important;font-weight:bold !important" class="nodeLabel"><p>Solar Local Stack</p></span></div></foreignObject></g></g></g></g></g><defs><filter id="my-svg-drop-shadow" height="130%" width="130%"><feDropShadow dx="4" dy="4" stdDeviation="0" flood-opacity="0.06" flood-color="#000000"/></filter></defs><defs><filter id="my-svg-drop-shadow-small" height="150%" width="150%"><feDropShadow dx="2" dy="2" stdDeviation="0" flood-opacity="0.06" flood-color="#000000"/></filter></defs></svg>