<svg id="my-svg" width="100%" xmlns="http://www.w3.org/2000/svg" xmlns:xlink="http://www.w3.org/1999/xlink" class="statediagram" style="max-width: 2012.06px; background-color: white;" viewBox="0 0 2012.0625 413.5" role="graphics-document document" aria-roledescription="stateDiagram"><style>#my-svg{font-family:"trebuchet ms",verdana,arial,sans-serif;font-size:16px;fill:#333;}@keyframes edge-animation-frame{from{stroke-dashoffset:0;}}@keyframes dash{to{stroke-dashoffset:0;}}#my-svg .edge-animation-slow{stroke-dasharray:9,5!important;stroke-dashoffset:900;animation:dash 50s linear infinite;stroke-linecap:round;}#my-svg .edge-animation-fast{stroke-dasharray:9,5!important;stroke-dashoffset:900;animation:dash 20s linear infinite;stroke-linecap:round;}#my-svg .error-icon{fill:#552222;}#my-svg .error-text{fill:#552222;stroke:#552222;}#my-svg .edge-thickness-normal{stroke-width:1px;}#my-svg .edge-thickness-thick{stroke-width:3.5px;}#my-svg .edge-pattern-solid{stroke-dasharray:0;}#my-svg .edge-thickness-invisible{stroke-width:0;fill:none;}#my-svg .edge-pattern-dashed{stroke-dasharray:3;}#my-svg .edge-pattern-dotted{stroke-dasharray:2;}#my-svg .marker{fill:#333333;stroke:#333333;}#my-svg .marker.cross{stroke:#333333;}#my-svg svg{font-family:"trebuchet ms",verdana,arial,sans-serif;font-size:16px;}#my-svg p{margin:0;}#my-svg defs [id$="-barbEnd"]{fill:#333333;stroke:#333333;}#my-svg g.stateGroup text{fill:#9370DB;stroke:none;font-size:10px;}#my-svg g.stateGroup text{fill:#333;stroke:none;font-size:10px;}#my-svg g.stateGroup .state-title{font-weight:bolder;fill:#131300;}#my-svg g.stateGroup rect{fill:#ECECFF;stroke:#9370DB;}#my-svg g.stateGroup line{stroke:#333333;stroke-width:1;}#my-svg .transition{stroke:#333333;stroke-width:1;fill:none;}#my-svg .stateGroup .composit{fill:white;border-bottom:1px;}#my-svg .stateGroup .alt-composit{fill:#e0e0e0;border-bottom:1px;}#my-svg .state-note{stroke:#aaaa33;fill:#fff5ad;}#my-svg .state-note text{fill:black;stroke:none;font-size:10px;}#my-svg .stateLabel .box{stroke:none;stroke-width:0;fill:#ECECFF;opacity:0.5;}#my-svg .edgeLabel .label rect{fill:#ECECFF;opacity:0.5;}#my-svg .edgeLabel{background-color:rgba(232,232,232, 0.8);text-align:center;}#my-svg .edgeLabel p{background-color:rgba(232,232,232, 0.8);}#my-svg .edgeLabel rect{opacity:0.5;background-color:rgba(232,232,232, 0.8);fill:rgba(232,232,232, 0.8);}#my-svg .edgeLabel .label text{fill:#333;}#my-svg .label div .edgeLabel{color:#333;}#my-svg .stateLabel text{fill:#131300;font-size:10px;font-weight:bold;}#my-svg .node circle.state-start{fill:#333333;stroke:#333333;}#my-svg .node .fork-join{fill:#333333;stroke:#333333;}#my-svg .node circle.state-end{fill:#9370DB;stroke:white;stroke-width:1.5;}#my-svg .end-state-inner{fill:white;stroke-width:1.5;}#my-svg .node rect{fill:#ECECFF;stroke:#9370DB;stroke-width:1px;}#my-svg .node polygon{fill:#ECECFF;stroke:#9370DB;stroke-width:1px;}#my-svg [id$="-barbEnd"]{fill:#333333;}#my-svg .statediagram-cluster rect{fill:#ECECFF;stroke:#9370DB;stroke-width:1px;}#my-svg .cluster-label,#my-svg .nodeLabel{color:#131300;}#my-svg .statediagram-cluster rect.outer{rx:5px;ry:5px;}#my-svg .statediagram-state .divider{stroke:#9370DB;}#my-svg .statediagram-state .title-state{rx:5px;ry:5px;}#my-svg .statediagram-cluster.statediagram-cluster .inner{fill:white;}#my-svg .statediagram-cluster.statediagram-cluster-alt .inner{fill:#f0f0f0;}#my-svg .statediagram-cluster .inner{rx:0;ry:0;}#my-svg .statediagram-state rect.basic{rx:5px;ry:5px;}#my-svg .statediagram-state rect.divider{stroke-dasharray:10,10;fill:#f0f0f0;}#my-svg .note-edge{stroke-dasharray:5;}#my-svg .statediagram-note rect{fill:#fff5ad;stroke:#aaaa33;stroke-width:1px;rx:0;ry:0;}#my-svg .statediagram-note rect{fill:#fff5ad;stroke:#aaaa33;stroke-width:1px;rx:0;ry:0;}#my-svg .statediagram-note text{fill:black;}#my-svg .statediagram-note .nodeLabel{color:black;}#my-svg .statediagram .edgeLabel{color:red;}#my-svg [id$="-dependencyStart"],#my-svg [id$="-dependencyEnd"]{fill:#333333;stroke:#333333;stroke-width:1;}#my-svg .statediagramTitleText{text-anchor:middle;font-size:18px;fill:#333;}#my-svg [data-look="neo"].statediagram-cluster rect{fill:#ECECFF;stroke:#9370DB;stroke-width:1;}#my-svg [data-look="neo"].statediagram-cluster rect.outer{rx:5px;ry:5px;filter:drop-shadow(1px 2px 2px rgba(185, 185, 185, 1));}#my-svg .node .neo-node{stroke:#9370DB;}#my-svg [data-look="neo"].node rect,#my-svg [data-look="neo"].cluster rect,#my-svg [data-look="neo"].node polygon{stroke:#9370DB;filter:drop-shadow(1px 2px 2px rgba(185, 185, 185, 1));}#my-svg [data-look="neo"].node path{stroke:#9370DB;stroke-width:1px;}#my-svg [data-look="neo"].node .outer-path{filter:drop-shadow(1px 2px 2px rgba(185, 185, 185, 1));}#my-svg [data-look="neo"].node .neo-line path{stroke:#9370DB;filter:none;}#my-svg [data-look="neo"].node circle{stroke:#9370DB;filter:drop-shadow(1px 2px 2px rgba(185, 185, 185, 1));}#my-svg [data-look="neo"].node circle .state-start{fill:#000000;}#my-svg [data-look="neo"].icon-shape .icon{fill:#9370DB;filter:drop-shadow(1px 2px 2px rgba(185, 185, 185, 1));}#my-svg [data-look="neo"].icon-shape .icon-neo path{stroke:#9370DB;filter:drop-shadow(1px 2px 2px rgba(185, 185, 185, 1));}#my-svg :root{--mermaid-font-family:"trebuchet ms",verdana,arial,sans-serif;}</style><g><defs><marker id="my-svg_stateDiagram-barbEnd" refX="19" refY="7" markerWidth="20" markerHeight="14" markerUnits="userSpaceOnUse" orient="auto"><path d="M 19,7 L9,13 L14,7 L9,1 Z"/></marker></defs><g class="root"><g class="clusters"/><g class="edgePaths"><path d="M22,290L26.167,290C30.333,290,38.667,290,47,290C55.333,290,63.667,290,67.833,290L72,290" id="my-svg-edge0" class="edge-thickness-normal edge-pattern-solid transition" style="fill:none;;;fill:none" data-edge="true" data-et="edge" data-id="edge0" data-points="W3sieCI6MjIsInkiOjI5MH0seyJ4Ijo0NywieSI6MjkwfSx7IngiOjcyLCJ5IjoyOTB9XQ==" data-look="classic" marker-end="url(#my-svg_stateDiagram-barbEnd)"/><path d="M137.811,270L154.725,255.083C171.64,240.167,205.468,210.333,235.888,195.417C266.307,180.5,293.318,180.5,306.823,180.5L320.328,180.5" id="my-svg-edge1" class="edge-thickness-normal edge-pattern-solid transition" style="fill:none;;;fill:none" data-edge="true" data-et="edge" data-id="edge1" data-points="W3sieCI6MTM3LjgxMTE4MDA3OTkwODY3LCJ5IjoyNzB9LHsieCI6MjM5LjI5Njg3NSwieSI6MTgwLjV9LHsieCI6MzIwLjMyODEyNSwieSI6MTgwLjV9XQ==" data-look="classic" marker-end="url(#my-svg_stateDiagram-barbEnd)"/><path d="M139.126,310L155.821,323.917C172.516,337.833,205.907,365.667,239.59,379.583C273.273,393.5,307.25,393.5,345.823,393.5C384.396,393.5,427.565,393.5,474.762,393.5C521.958,393.5,573.182,393.5,621.294,393.5C669.406,393.5,714.406,393.5,757.156,393.5C799.906,393.5,840.406,393.5,878.161,393.5C915.917,393.5,950.927,393.5,992.424,393.5C1033.922,393.5,1081.906,393.5,1134.191,393.5C1186.477,393.5,1243.063,393.5,1296.499,393.5C1349.935,393.5,1400.221,393.5,1446.428,393.5C1492.635,393.5,1534.763,393.5,1574.148,393.5C1613.534,393.5,1650.177,393.5,1692.081,393.5C1733.984,393.5,1781.148,393.5,1823.941,385.805C1866.734,378.11,1905.156,362.72,1924.367,355.025L1943.578,347.33" id="my-svg-edge2" class="edge-thickness-normal edge-pattern-solid transition" style="fill:none;;;fill:none" data-edge="true" data-et="edge" data-id="edge2" data-points="W3sieCI6MTM5LjEyNTg2ODA1NTU1NTU0LCJ5IjozMTB9LHsieCI6MjM5LjI5Njg3NSwieSI6MzkzLjV9LHsieCI6MzQxLjIyNjU2MjUsInkiOjM5My41fSx7IngiOjQ3MC43MzQzNzUsInkiOjM5My41fSx7IngiOjYyNC40MDYyNSwieSI6MzkzLjV9LHsieCI6NzU5LjQwNjI1LCJ5IjozOTMuNX0seyJ4Ijo4ODAuOTA2MjUsInkiOjM5My41fSx7IngiOjk4NS45Mzc1LCJ5IjozOTMuNX0seyJ4IjoxMTI5Ljg5MDYyNSwieSI6MzkzLjV9LHsieCI6MTI5OS42NDg0Mzc1LCJ5IjozOTMuNX0seyJ4IjoxNDUwLjUwNzgxMjUsInkiOjM5My41fSx7IngiOjE1NzYuODkwNjI1LCJ5IjozOTMuNX0seyJ4IjoxNjg2LjgyMDMxMjUsInkiOjM5My41fSx7IngiOjE4MjguMzEyNSwieSI6MzkzLjV9LHsieCI6MTk0My41NzgxMjUsInkiOjM0Ny4zMjk5MDg2MTI1NzI3fV0=" data-look="classic" marker-end="url(#my-svg_stateDiagram-barbEnd)"/><path d="M362.125,197.524L380.227,212.27C398.328,227.016,434.531,256.508,470.734,263.715C506.938,270.922,543.141,255.845,561.242,248.306L579.344,240.767" id="my-svg-edge3" class="edge-thickness-normal edge-pattern-solid transition" style="fill:none;;;fill:none" data-edge="true" data-et="edge" data-id="edge3" data-points="W3sieCI6MzYyLjEyNSwieSI6MTk3LjUyNDM0MDk1NDMzNDMyfSx7IngiOjQ3MC43MzQzNzUsInkiOjI4Nn0seyJ4Ijo1NzkuMzQzNzUsInkiOjI0MC43NjcyNTk3ODY0NzY4N31d" data-look="classic" marker-end="url(#my-svg_stateDiagram-barbEnd)"/><path d="M666.594,242L682.063,249.333C697.531,256.667,728.469,271.333,759.478,267.667C790.488,264,821.569,242,837.11,231L852.65,220" id="my-svg-edge4" class="edge-thickness-normal edge-pattern-solid transition" style="fill:none;;;fill:none" data-edge="true" data-et="edge" data-id="edge4" data-points="W3sieCI6NjY2LjU5Mzc1LCJ5IjoyNDJ9LHsieCI6NzU5LjQwNjI1LCJ5IjoyODZ9LHsieCI6ODUyLjY1MDQzNjA0NjUxMTcsInkiOjIyMH1d" data-look="classic" marker-end="url(#my-svg_stateDiagram-barbEnd)"/><path d="M579.344,206.019L561.242,199.599C543.141,193.179,506.938,180.34,470.734,175.737C434.531,171.134,398.328,174.768,380.227,176.585L362.125,178.402" id="my-svg-edge5" class="edge-thickness-normal edge-pattern-solid transition" style="fill:none;;;fill:none" data-edge="true" data-et="edge" data-id="edge5" data-points="W3sieCI6NTc5LjM0Mzc1LCJ5IjoyMDYuMDE4NTA1MzM4MDc4Mjh9LHsieCI6NDcwLjczNDM3NSwieSI6MTY3LjV9LHsieCI6MzYyLjEyNSwieSI6MTc4LjQwMjIxMzkxMDg0MDMyfV0=" data-look="classic" marker-end="url(#my-svg_stateDiagram-barbEnd)"/><path d="M907.164,220L920.293,230C933.422,240,959.68,260,987.833,267.704C1015.987,275.408,1046.036,270.815,1061.061,268.519L1076.086,266.223" id="my-svg-edge6" class="edge-thickness-normal edge-pattern-solid transition" style="fill:none;;;fill:none" data-edge="true" data-et="edge" data-id="edge6" data-points="W3sieCI6OTA3LjE2NDA2MjUsInkiOjIyMH0seyJ4Ijo5ODUuOTM3NSwieSI6MjgwfSx7IngiOjEwNzYuMDg1OTM3NSwieSI6MjY2LjIyMjgzNzI5NTEyNjQ1fV0=" data-look="classic" marker-end="url(#my-svg_stateDiagram-barbEnd)"/><path d="M849.344,198.831L834.354,198.276C819.365,197.721,789.385,196.61,759.406,198.998C729.427,201.385,699.448,207.27,684.458,210.212L669.469,213.154" id="my-svg-edge7" class="edge-thickness-normal edge-pattern-solid transition" style="fill:none;;;fill:none" data-edge="true" data-et="edge" data-id="edge7" data-points="W3sieCI6ODQ5LjM0Mzc1LCJ5IjoxOTguODMxMDE4NTE4NTE4NX0seyJ4Ijo3NTkuNDA2MjUsInkiOjE5NS41fSx7IngiOjY2OS40Njg3NSwieSI6MjEzLjE1NDM5ODE0ODE0ODE1fV0=" data-look="classic" marker-end="url(#my-svg_stateDiagram-barbEnd)"/><path d="M851.272,180L835.961,169.667C820.65,159.333,790.028,138.667,752.217,128.333C714.406,118,669.406,118,621.294,118C573.182,118,521.958,118,478.245,126.736C434.531,135.471,398.328,152.943,380.227,161.679L362.125,170.414" id="my-svg-edge8" class="edge-thickness-normal edge-pattern-solid transition" style="fill:none;;;fill:none" data-edge="true" data-et="edge" data-id="edge8" data-points="W3sieCI6ODUxLjI3MjEwMzY1ODUzNjYsInkiOjE4MH0seyJ4Ijo3NTkuNDA2MjUsInkiOjExOH0seyJ4Ijo2MjQuNDA2MjUsInkiOjExOH0seyJ4Ijo0NzAuNzM0Mzc1LCJ5IjoxMTh9LHsieCI6MzYyLjEyNSwieSI6MTcwLjQxNDQ4OTk1NTk2MzF9XQ==" data-look="classic" marker-end="url(#my-svg_stateDiagram-barbEnd)"/><path d="M1183.695,258L1203.021,258C1222.346,258,1260.997,258,1296.868,254.326C1332.74,250.652,1365.831,243.303,1382.376,239.629L1398.922,235.955" id="my-svg-edge9" class="edge-thickness-normal edge-pattern-solid transition" style="fill:none;;;fill:none" data-edge="true" data-et="edge" data-id="edge9" data-points="W3sieCI6MTE4My42OTUzMTI1LCJ5IjoyNTh9LHsieCI6MTI5OS42NDg0Mzc1LCJ5IjoyNTh9LHsieCI6MTM5OC45MjE4NzUsInkiOjIzNS45NTUyMzA0NTA1NDM3NX1d" data-look="classic" marker-end="url(#my-svg_stateDiagram-barbEnd)"/><path d="M1076.086,249.777L1061.061,247.481C1046.036,245.185,1015.987,240.592,988.717,234.099C961.448,227.606,936.958,219.212,924.714,215.015L912.469,210.818" id="my-svg-edge10" class="edge-thickness-normal edge-pattern-solid transition" style="fill:none;;;fill:none" data-edge="true" data-et="edge" data-id="edge10" data-points="W3sieCI6MTA3Ni4wODU5Mzc1LCJ5IjoyNDkuNzc3MTYyNzA0ODczNTV9LHsieCI6OTg1LjkzNzUsInkiOjIzNn0seyJ4Ijo5MTIuNDY4NzUsInkiOjIxMC44MTgyMDg4NjY0MDg4fV0=" data-look="classic" marker-end="url(#my-svg_stateDiagram-barbEnd)"/><path d="M1502.094,224.5L1514.56,224.5C1527.026,224.5,1551.958,224.5,1576.891,224.5C1601.823,224.5,1626.755,224.5,1639.221,224.5L1651.688,224.5" id="my-svg-edge11" class="edge-thickness-normal edge-pattern-solid transition" style="fill:none;;;fill:none" data-edge="true" data-et="edge" data-id="edge11" data-points="W3sieCI6MTUwMi4wOTM3NSwieSI6MjI0LjV9LHsieCI6MTU3Ni44OTA2MjUsInkiOjIyNC41fSx7IngiOjE2NTEuNjg3NSwieSI6MjI0LjV9XQ==" data-look="classic" marker-end="url(#my-svg_stateDiagram-barbEnd)"/><path d="M1398.922,209.454L1382.376,204.629C1365.831,199.803,1332.74,190.151,1287.901,185.326C1243.063,180.5,1186.477,180.5,1134.191,180.5C1081.906,180.5,1033.922,180.5,997.685,182.773C961.448,185.047,936.958,189.593,924.714,191.867L912.469,194.14" id="my-svg-edge12" class="edge-thickness-normal edge-pattern-solid transition" style="fill:none;;;fill:none" data-edge="true" data-et="edge" data-id="edge12" data-points="W3sieCI6MTM5OC45MjE4NzUsInkiOjIwOS40NTQzMjQxODQzNjA0NH0seyJ4IjoxMjk5LjY0ODQzNzUsInkiOjE4MC41fSx7IngiOjExMjkuODkwNjI1LCJ5IjoxODAuNX0seyJ4Ijo5ODUuOTM3NSwieSI6MTgwLjV9LHsieCI6OTEyLjQ2ODc1LCJ5IjoxOTQuMTQwMTM2ODY0MDI4NTZ9XQ==" data-look="classic" marker-end="url(#my-svg_stateDiagram-barbEnd)"/><path d="M1703.418,204.5L1724.233,179.417C1745.049,154.333,1786.681,104.167,1825.223,75.816C1863.766,47.465,1899.219,40.93,1916.945,37.663L1934.672,34.395" id="my-svg-edge13" class="edge-thickness-normal edge-pattern-solid transition" style="fill:none;;;fill:none" data-edge="true" data-et="edge" data-id="edge13" data-points="W3sieCI6MTcwMy40MTc2MzY1NDY5MjEsInkiOjIwNC41fSx7IngiOjE4MjguMzEyNSwieSI6NTR9LHsieCI6MTkzNC42NzE4NzUsInkiOjM0LjM5NTIzNjc3NjUxNjJ9XQ==" data-look="classic" marker-end="url(#my-svg_stateDiagram-barbEnd)"/><path d="M1707.476,244.5L1727.616,264C1747.755,283.5,1788.034,322.5,1827.384,338.663C1866.734,354.826,1905.156,348.153,1924.367,344.816L1943.578,341.479" id="my-svg-edge14" class="edge-thickness-normal edge-pattern-solid transition" style="fill:none;;;fill:none" data-edge="true" data-et="edge" data-id="edge14" data-points="W3sieCI6MTcwNy40NzYxMDYyOTU2MjA0LCJ5IjoyNDQuNX0seyJ4IjoxODI4LjMxMjUsInkiOjM2MS41fSx7IngiOjE5NDMuNTc4MTI1LCJ5IjozNDEuNDc5MzQwOTAyNzk3fV0=" data-look="classic" marker-end="url(#my-svg_stateDiagram-barbEnd)"/><path d="M1934.672,26.524L1916.945,25.77C1899.219,25.016,1863.766,23.508,1822.457,22.754C1781.148,22,1733.984,22,1692.081,22C1650.177,22,1613.534,22,1574.148,22C1534.763,22,1492.635,22,1446.428,22C1400.221,22,1349.935,22,1296.499,22C1243.063,22,1186.477,22,1134.191,22C1081.906,22,1033.922,22,992.424,22C950.927,22,915.917,22,878.161,22C840.406,22,799.906,22,757.156,22C714.406,22,669.406,22,621.294,22C573.182,22,521.958,22,477.485,45.083C433.012,68.167,395.29,114.333,376.429,137.417L357.568,160.5" id="my-svg-edge15" class="edge-thickness-normal edge-pattern-solid transition" style="fill:none;;;fill:none" data-edge="true" data-et="edge" data-id="edge15" data-points="W3sieCI6MTkzNC42NzE4NzUsInkiOjI2LjUyNDE3NjEyODQ5NjI2fSx7IngiOjE4MjguMzEyNSwieSI6MjJ9LHsieCI6MTY4Ni44MjAzMTI1LCJ5IjoyMn0seyJ4IjoxNTc2Ljg5MDYyNSwieSI6MjJ9LHsieCI6MTQ1MC41MDc4MTI1LCJ5IjoyMn0seyJ4IjoxMjk5LjY0ODQzNzUsInkiOjIyfSx7IngiOjExMjkuODkwNjI1LCJ5IjoyMn0seyJ4Ijo5ODUuOTM3NSwieSI6MjJ9LHsieCI6ODgwLjkwNjI1LCJ5IjoyMn0seyJ4Ijo3NTkuNDA2MjUsInkiOjIyfSx7IngiOjYyNC40MDYyNSwieSI6MjJ9LHsieCI6NDcwLjczNDM3NSwieSI6MjJ9LHsieCI6MzU3LjU2ODI0MjMxMDcyNTU3LCJ5IjoxNjAuNX1d" data-look="classic" marker-end="url(#my-svg_stateDiagram-barbEnd)"/><path d="M358.61,200.5L377.298,222C395.985,243.5,433.36,286.5,477.659,308C521.958,329.5,573.182,329.5,621.294,329.5C669.406,329.5,714.406,329.5,757.156,329.5C799.906,329.5,840.406,329.5,878.161,329.5C915.917,329.5,950.927,329.5,992.424,329.5C1033.922,329.5,1081.906,329.5,1134.191,329.5C1186.477,329.5,1243.063,329.5,1296.499,329.5C1349.935,329.5,1400.221,329.5,1446.428,329.5C1492.635,329.5,1534.763,329.5,1574.148,329.5C1613.534,329.5,1650.177,329.5,1692.081,329.5C1733.984,329.5,1781.148,329.5,1823.941,330.521C1866.734,331.543,1905.156,333.586,1924.367,334.607L1943.578,335.629" id="my-svg-edge16" class="edge-thickness-normal edge-pattern-solid transition" style="fill:none;;;fill:none" data-edge="true" data-et="edge" data-id="edge16" data-points="W3sieCI6MzU4LjYxMDE2MTQ5MzI4ODYsInkiOjIwMC41fSx7IngiOjQ3MC43MzQzNzUsInkiOjMyOS41fSx7IngiOjYyNC40MDYyNSwieSI6MzI5LjV9LHsieCI6NzU5LjQwNjI1LCJ5IjozMjkuNX0seyJ4Ijo4ODAuOTA2MjUsInkiOjMyOS41fSx7IngiOjk4NS45Mzc1LCJ5IjozMjkuNX0seyJ4IjoxMTI5Ljg5MDYyNSwieSI6MzI5LjV9LHsieCI6MTI5OS42NDg0Mzc1LCJ5IjozMjkuNX0seyJ4IjoxNDUwLjUwNzgxMjUsInkiOjMyOS41fSx7IngiOjE1NzYuODkwNjI1LCJ5IjozMjkuNX0seyJ4IjoxNjg2LjgyMDMxMjUsInkiOjMyOS41fSx7IngiOjE4MjguMzEyNSwieSI6MzI5LjV9LHsieCI6MTk0My41NzgxMjUsInkiOjMzNS42Mjg3NzMxOTMwMjEzNX1d" data-look="classic" marker-end="url(#my-svg_stateDiagram-barbEnd)"/><path d="M911.35,180L923.781,171.833C936.213,163.667,961.075,147.333,997.498,139.167C1033.922,131,1081.906,131,1134.191,131C1186.477,131,1243.063,131,1296.499,131C1349.935,131,1400.221,131,1446.428,131C1492.635,131,1534.763,131,1574.148,131C1613.534,131,1650.177,131,1692.081,131C1733.984,131,1781.148,131,1825.957,162C1870.766,193,1913.219,255,1934.446,286L1955.673,317" id="my-svg-edge17" class="edge-thickness-normal edge-pattern-solid transition" style="fill:none;;;fill:none" data-edge="true" data-et="edge" data-id="edge17" data-points="W3sieCI6OTExLjM1MDA5MDU3OTcxMDEsInkiOjE4MH0seyJ4Ijo5ODUuOTM3NSwieSI6MTMxfSx7IngiOjExMjkuODkwNjI1LCJ5IjoxMzF9LHsieCI6MTI5OS42NDg0Mzc1LCJ5IjoxMzF9LHsieCI6MTQ1MC41MDc4MTI1LCJ5IjoxMzF9LHsieCI6MTU3Ni44OTA2MjUsInkiOjEzMX0seyJ4IjoxNjg2LjgyMDMxMjUsInkiOjEzMX0seyJ4IjoxODI4LjMxMjUsInkiOjEzMX0seyJ4IjoxOTU1LjY3MjU1NzY0NTYzMSwieSI6MzE3fV0=" data-look="classic" marker-end="url(#my-svg_stateDiagram-barbEnd)"/><path d="M1958.128,317L1936.492,278.5C1914.856,240,1871.584,163,1826.366,124.5C1781.148,86,1733.984,86,1692.081,86C1650.177,86,1613.534,86,1574.148,86C1534.763,86,1492.635,86,1446.428,86C1400.221,86,1349.935,86,1296.499,86C1243.063,86,1186.477,86,1134.191,86C1081.906,86,1033.922,86,992.424,86C950.927,86,915.917,86,878.161,86C840.406,86,799.906,86,757.156,86C714.406,86,669.406,86,621.294,86C573.182,86,521.958,86,478.245,99.208C434.531,112.417,398.328,138.834,380.227,152.042L362.125,165.251" id="my-svg-edge18" class="edge-thickness-normal edge-pattern-solid transition" style="fill:none;;;fill:none" data-edge="true" data-et="edge" data-id="edge18" data-points="W3sieCI6MTk1OC4xMjc3NzAxNjkzMjI3LCJ5IjozMTd9LHsieCI6MTgyOC4zMTI1LCJ5Ijo4Nn0seyJ4IjoxNjg2LjgyMDMxMjUsInkiOjg2fSx7IngiOjE1NzYuODkwNjI1LCJ5Ijo4Nn0seyJ4IjoxNDUwLjUwNzgxMjUsInkiOjg2fSx7IngiOjEyOTkuNjQ4NDM3NSwieSI6ODZ9LHsieCI6MTEyOS44OTA2MjUsInkiOjg2fSx7IngiOjk4NS45Mzc1LCJ5Ijo4Nn0seyJ4Ijo4ODAuOTA2MjUsInkiOjg2fSx7IngiOjc1OS40MDYyNSwieSI6ODZ9LHsieCI6NjI0LjQwNjI1LCJ5Ijo4Nn0seyJ4Ijo0NzAuNzM0Mzc1LCJ5Ijo4Nn0seyJ4IjozNjIuMTI1LCJ5IjoxNjUuMjUwNzA4ODEzNDE2MTd9XQ==" data-look="classic" marker-end="url(#my-svg_stateDiagram-barbEnd)"/></g><g class="edgeLabels"><g class="edgeLabel"><g class="label" data-id="edge0" transform="translate(0, 0)"><foreignObject width="0" height="0"><div xmlns="http://www.w3.org/1999/xhtml" class="labelBkg" style="display: table-cell; white-space: nowrap; line-height: 1.5; max-width: 200px; text-align: center;"><span class="edgeLabel"></span></div></foreignObject></g></g><g class="edgeLabel" transform="translate(239.296875, 180.5)"><g class="label" data-id="edge1" transform="translate(-56.03125, -12)"><foreignObject width="112.0625" height="24"><div xmlns="http://www.w3.org/1999/xhtml" class="labelBkg" style="display: table-cell; white-space: nowrap; line-height: 1.5; max-width: 200px; text-align: center;"><span class="edgeLabel"><p>self-test passed</p></span></div></foreignObject></g></g><g class="edgeLabel" transform="translate(985.9375, 393.5)"><g class="label" data-id="edge2" transform="translate(-48.46875, -12)"><foreignObject width="96.9375" height="24"><div xmlns="http://www.w3.org/1999/xhtml" class="labelBkg" style="display: table-cell; white-space: nowrap; line-height: 1.5; max-width: 200px; text-align: center;"><span class="edgeLabel"><p>startup failure</p></span></div></foreignObject></g></g><g class="edgeLabel" transform="translate(470.734375, 286)"><g class="label" data-id="edge3" transform="translate(-57.8125, -12)"><foreignObject width="115.625" height="24"><div xmlns="http://www.w3.org/1999/xhtml" class="labelBkg" style="display: table-cell; white-space: nowrap; line-height: 1.5; max-width: 200px; text-align: center;"><span class="edgeLabel"><p>armed by angler</p></span></div></foreignObject></g></g><g class="edgeLabel" transform="translate(759.40625, 286)"><g class="label" data-id="edge4" transform="translate(-64.9375, -12)"><foreignObject width="129.875" height="24"><div xmlns="http://www.w3.org/1999/xhtml" class="labelBkg" style="display: table-cell; white-space: nowrap; line-height: 1.5; max-width: 200px; text-align: center;"><span class="edgeLabel"><p>tension at setpoint</p></span></div></foreignObject></g></g><g class="edgeLabel" transform="translate(470.734375, 167.5)"><g class="label" data-id="edge5" transform="translate(-83.609375, -12)"><foreignObject width="167.21875" height="24"><div xmlns="http://www.w3.org/1999/xhtml" class="labelBkg" style="display: table-cell; white-space: nowrap; line-height: 1.5; max-width: 200px; text-align: center;"><span class="edgeLabel"><p>disarmed during tighten</p></span></div></foreignObject></g></g><g class="edgeLabel" transform="translate(982.82449, 277.62889)"><g class="label" data-id="edge6" transform="translate(-46.6953125, -12)"><foreignObject width="93.390625" height="24"><div xmlns="http://www.w3.org/1999/xhtml" class="labelBkg" style="display: table-cell; white-space: nowrap; line-height: 1.5; max-width: 200px; text-align: center;"><span class="edgeLabel"><p>tension spike</p></span></div></foreignObject></g></g><g class="edgeLabel" transform="translate(759.40625, 195.5)"><g class="label" data-id="edge7" transform="translate(-51.140625, -12)"><foreignObject width="102.28125" height="24"><div xmlns="http://www.w3.org/1999/xhtml" class="labelBkg" style="display: table-cell; white-space: nowrap; line-height: 1.5; max-width: 200px; text-align: center;"><span class="edgeLabel"><p>slack detected</p></span></div></foreignObject></g></g><g class="edgeLabel" transform="translate(624.40625, 118)"><g class="label" data-id="edge8" transform="translate(-32.90625, -12)"><foreignObject width="65.8125" height="24"><div xmlns="http://www.w3.org/1999/xhtml" class="labelBkg" style="display: table-cell; white-space: nowrap; line-height: 1.5; max-width: 200px; text-align: center;"><span class="edgeLabel"><p>disarmed</p></span></div></foreignObject></g></g><g class="edgeLabel" transform="translate(1299.6484375, 258)"><g class="label" data-id="edge9" transform="translate(-74.2734375, -12)"><foreignObject width="148.546875" height="24"><div xmlns="http://www.w3.org/1999/xhtml" class="labelBkg" style="display: table-cell; white-space: nowrap; line-height: 1.5; max-width: 200px; text-align: center;"><span class="edgeLabel"><p>after hook_set_delay</p></span></div></foreignObject></g></g><g class="edgeLabel" transform="translate(992.62515, 237.02206)"><g class="label" data-id="edge10" transform="translate(-32.0234375, -12)"><foreignObject width="64.046875" height="24"><div xmlns="http://www.w3.org/1999/xhtml" class="labelBkg" style="display: table-cell; white-space: nowrap; line-height: 1.5; max-width: 200px; text-align: center;"><span class="edgeLabel"><p>false bite</p></span></div></foreignObject></g></g><g class="edgeLabel" transform="translate(1576.890625, 224.5)"><g class="label" data-id="edge11" transform="translate(-49.796875, -12)"><foreignObject width="99.59375" height="24"><div xmlns="http://www.w3.org/1999/xhtml" class="labelBkg" style="display: table-cell; white-space: nowrap; line-height: 1.5; max-width: 200px; text-align: center;"><span class="edgeLabel"><p>fish confirmed</p></span></div></foreignObject></g></g><g class="edgeLabel" transform="translate(1129.890625, 180.5)"><g class="label" data-id="edge12" transform="translate(-46.6796875, -12)"><foreignObject width="93.359375" height="24"><div xmlns="http://www.w3.org/1999/xhtml" class="labelBkg" style="display: table-cell; white-space: nowrap; line-height: 1.5; max-width: 200px; text-align: center;"><span class="edgeLabel"><p>missed strike</p></span></div></foreignObject></g></g><g class="edgeLabel" transform="translate(1828.3125, 54)"><g class="label" data-id="edge13" transform="translate(-37.3515625, -12)"><foreignObject width="74.703125" height="24"><div xmlns="http://www.w3.org/1999/xhtml" class="labelBkg" style="display: table-cell; white-space: nowrap; line-height: 1.5; max-width: 200px; text-align: center;"><span class="edgeLabel"><p>line fully in</p></span></div></foreignObject></g></g><g class="edgeLabel" transform="translate(1809.91874, 343.69022)"><g class="label" data-id="edge14" transform="translate(-81.359375, -12)"><foreignObject width="162.71875" height="24"><div xmlns="http://www.w3.org/1999/xhtml" class="labelBkg" style="display: table-cell; white-space: nowrap; line-height: 1.5; max-width: 200px; text-align: center;"><span class="edgeLabel"><p>line slack or motor stall</p></span></div></foreignObject></g></g><g class="edgeLabel" transform="translate(1129.890625, 22)"><g class="label" data-id="edge15" transform="translate(-42.25, -12)"><foreignObject width="84.5" height="24"><div xmlns="http://www.w3.org/1999/xhtml" class="labelBkg" style="display: table-cell; white-space: nowrap; line-height: 1.5; max-width: 200px; text-align: center;"><span class="edgeLabel"><p>angler reset</p></span></div></foreignObject></g></g><g class="edgeLabel" transform="translate(1129.890625, 329.5)"><g class="label" data-id="edge16" transform="translate(-36.9140625, -12)"><foreignObject width="73.828125" height="24"><div xmlns="http://www.w3.org/1999/xhtml" class="labelBkg" style="display: table-cell; white-space: nowrap; line-height: 1.5; max-width: 200px; text-align: center;"><span class="edgeLabel"><p>fault event</p></span></div></foreignObject></g></g><g class="edgeLabel" transform="translate(1450.5078125, 131)"><g class="label" data-id="edge17" transform="translate(-36.9140625, -12)"><foreignObject width="73.828125" height="24"><div xmlns="http://www.w3.org/1999/xhtml" class="labelBkg" style="display: table-cell; white-space: nowrap; line-height: 1.5; max-width: 200px; text-align: center;"><span class="edgeLabel"><p>fault event</p></span></div></foreignObject></g></g><g class="edgeLabel" transform="translate(1129.890625, 86)"><g class="label" data-id="edge18" transform="translate(-70.484375, -12)"><foreignObject width="140.96875" height="24"><div xmlns="http://www.w3.org/1999/xhtml" class="labelBkg" style="display: table-cell; white-space: nowrap; line-height: 1.5; max-width: 200px; text-align: center;"><span class="edgeLabel"><p>fault cleared + reset</p></span></div></foreignObject></g></g></g><g class="nodes"><g class="node default" id="my-svg-state-root_start-0" data-look="classic" transform="translate(15, 290)"><circle class="state-start" r="7" width="14" height="14"/></g><g class="node  statediagram-state" id="my-svg-state-Initializing-2" data-look="classic" transform="translate(115.1328125, 290)"><rect class="basic label-container" style="" rx="5" ry="5" x="-43.1328125" y="-20" width="86.265625" height="40"/><g class="label" style="" transform="translate(-35.1328125, -12)"><rect/><foreignObject width="70.265625" height="24"><div xmlns="http://www.w3.org/1999/xhtml" style="display: table-cell; white-space: nowrap; line-height: 1.5; max-width: 200px; text-align: center;"><span class="nodeLabel markdown-node-label"><p>Initializing</p></span></div></foreignObject></g></g><g class="node  statediagram-state" id="my-svg-state-Idle-18" data-look="classic" transform="translate(341.2265625, 180.5)"><rect class="basic label-container" style="" rx="5" ry="5" x="-20.8984375" y="-20" width="41.796875" height="40"/><g class="label" style="" transform="translate(-12.8984375, -12)"><rect/><foreignObject width="25.796875" height="24"><div xmlns="http://www.w3.org/1999/xhtml" style="display: table-cell; white-space: nowrap; line-height: 1.5; max-width: 200px; text-align: center;"><span class="nodeLabel markdown-node-label"><p>Idle</p></span></div></foreignObject></g></g><g class="node  statediagram-state" id="my-svg-state-Fault-18" data-look="classic" transform="translate(1969.3671875, 337)"><rect class="basic label-container" style="" rx="5" ry="5" x="-25.7890625" y="-20" width="51.578125" height="40"/><g class="label" style="" transform="translate(-17.7890625, -12)"><rect/><foreignObject width="35.578125" height="24"><div xmlns="http://www.w3.org/1999/xhtml" style="display: table-cell; white-space: nowrap; line-height: 1.5; max-width: 200px; text-align: center;"><span class="nodeLabel markdown-node-label"><p>Fault</p></span></div></foreignObject></g></g><g class="node  statediagram-state" id="my-svg-state-Tightening-7" data-look="classic" transform="translate(624.40625, 222)"><rect class="basic label-container" style="" rx="5" ry="5" x="-45.0625" y="-20" width="90.125" height="40"/><g class="label" style="" transform="translate(-37.0625, -12)"><rect/><foreignObject width="74.125" height="24"><div xmlns="http://www.w3.org/1999/xhtml" style="display: table-cell; white-space: nowrap; line-height: 1.5; max-width: 200px; text-align: center;"><span class="nodeLabel markdown-node-label"><p>Tightening</p></span></div></foreignObject></g></g><g class="node  statediagram-state" id="my-svg-state-Armed-17" data-look="classic" transform="translate(880.90625, 200)"><rect class="basic label-container" style="" rx="5" ry="5" x="-31.5625" y="-20" width="63.125" height="40"/><g class="label" style="" transform="translate(-23.5625, -12)"><rect/><foreignObject width="47.125" height="24"><div xmlns="http://www.w3.org/1999/xhtml" style="display: table-cell; white-space: nowrap; line-height: 1.5; max-width: 200px; text-align: center;"><span class="nodeLabel markdown-node-label"><p>Armed</p></span></div></foreignObject></g></g><g class="node  statediagram-state" id="my-svg-state-BiteDetected-10" data-look="classic" transform="translate(1129.890625, 258)"><rect class="basic label-container" style="" rx="5" ry="5" x="-53.8046875" y="-20" width="107.609375" height="40"/><g class="label" style="" transform="translate(-45.8046875, -12)"><rect/><foreignObject width="91.609375" height="24"><div xmlns="http://www.w3.org/1999/xhtml" style="display: table-cell; white-space: nowrap; line-height: 1.5; max-width: 200px; text-align: center;"><span class="nodeLabel markdown-node-label"><p>BiteDetected</p></span></div></foreignObject></g></g><g class="node  statediagram-state" id="my-svg-state-SettingHook-12" data-look="classic" transform="translate(1450.5078125, 224.5)"><rect class="basic label-container" style="" rx="5" ry="5" x="-51.5859375" y="-20" width="103.171875" height="40"/><g class="label" style="" transform="translate(-43.5859375, -12)"><rect/><foreignObject width="87.171875" height="24"><div xmlns="http://www.w3.org/1999/xhtml" style="display: table-cell; white-space: nowrap; line-height: 1.5; max-width: 200px; text-align: center;"><span class="nodeLabel markdown-node-label"><p>SettingHook</p></span></div></foreignObject></g></g><g class="node  statediagram-state" id="my-svg-state-Reeling-14" data-look="classic" transform="translate(1686.8203125, 224.5)"><rect class="basic label-container" style="" rx="5" ry="5" x="-35.1328125" y="-20" width="70.265625" height="40"/><g class="label" style="" transform="translate(-27.1328125, -12)"><rect/><foreignObject width="54.265625" height="24"><div xmlns="http://www.w3.org/1999/xhtml" style="display: table-cell; white-space: nowrap; line-height: 1.5; max-width: 200px; text-align: center;"><span class="nodeLabel markdown-node-label"><p>Reeling</p></span></div></foreignObject></g></g><g class="node  statediagram-state" id="my-svg-state-Landed-15" data-look="classic" transform="translate(1969.3671875, 28)"><rect class="basic label-container" style="" rx="5" ry="5" x="-34.6953125" y="-20" width="69.390625" height="40"/><g class="label" style="" transform="translate(-26.6953125, -12)"><rect/><foreignObject width="53.390625" height="24"><div xmlns="http://www.w3.org/1999/xhtml" style="display: table-cell; white-space: nowrap; line-height: 1.5; max-width: 200px; text-align: center;"><span class="nodeLabel markdown-node-label"><p>Landed</p></span></div></foreignObject></g></g></g></g></g><defs><filter id="my-svg-drop-shadow" height="130%" width="130%"><feDropShadow dx="4" dy="4" stdDeviation="0" flood-opacity="0.06" flood-color="#000000"/></filter></defs><defs><filter id="my-svg-drop-shadow-small" height="150%" width="150%"><feDropShadow dx="2" dy="2" stdDeviation="0" flood-opacity="0.06" flood-color="#000000"/></filter></defs></svg>